<svg xmlns="http://www.w3.org/2000/svg" xml:space="preserve" width="256" height="256"><g style="stroke:none;stroke-width:0;stroke-dasharray:none;stroke-linecap:butt;stroke-linejoin:miter;stroke-miterlimit:10;fill:none;fill-rule:nonzero;opacity:1" transform="translate(1.407 1.407)scale(2.81)"><path d="M75.927 56.703H43.784a3.5 3.5 0 0 1-3.347-2.477L30.199 20.754h-8.58a3.5 3.5 0 1 1 0-7h11.169a3.5 3.5 0 0 1 3.347 2.476l10.239 33.473h27.227l7.633-18.164H54.06a3.5 3.5 0 1 1 0-7H86.5a3.5 3.5 0 0 1 3.227 4.856L79.153 54.559a3.5 3.5 0 0 1-3.226 2.144" style="stroke:none;stroke-width:1;stroke-dasharray:none;stroke-linecap:butt;stroke-linejoin:miter;stroke-miterlimit:10;fill:#ff5c35;fill-rule:nonzero;opacity:1"/><circle cx="41.455" cy="67.935" r="4.815" style="stroke:none;stroke-width:1;stroke-dasharray:none;stroke-linecap:butt;stroke-linejoin:miter;stroke-miterlimit:10;fill:#ff5c35;fill-rule:nonzero;opacity:1"/><circle cx="77.195" cy="67.935" r="4.815" style="stroke:none;stroke-width:1;stroke-dasharray:none;stroke-linecap:butt;stroke-linejoin:miter;stroke-miterlimit:10;fill:#ff5c35;fill-rule:nonzero;opacity:1"/><path d="M25.434 56.703H8.687a3.5 3.5 0 1 1 0-7h16.747a3.5 3.5 0 1 1 0 7M20.247 42.18H3.5a3.5 3.5 0 1 1 0-7h16.747a3.5 3.5 0 1 1 0 7" style="stroke:none;stroke-width:1;stroke-dasharray:none;stroke-linecap:butt;stroke-linejoin:miter;stroke-miterlimit:10;fill:#ff5c35;fill-rule:nonzero;opacity:1"/></g></svg>