<svg xmlns="http://www.w3.org/2000/svg" viewBox="0 0 750 500"><path d="M74.7 297.52h107.51v155.87H75.44z" style="fill:#e0e0e0"/><path d="M66.64 298.25h106.53v154.41H66.64z" style="fill:#fff" transform="rotate(180 119.905 375.455)"/><path d="M173.9 297.52v155.87h-108V297.52Zm-1.46 154.41V299H67.37v153Z" style="fill:#e0e0e0"/><path d="M79.88 314.98h80.06v120.96H79.88z" style="fill:#fff"/><path d="M79.88 315v8.95c0 5.82.05 14.26.09 24.93 0 21.33.1 51.53.18 87.08l-.35-.35h80l-.38.39c0-45.63.06-87.7.08-121l.3.3-58.25-.16-15.97-.14h-5.7 5.58l16-.08 58.44-.16h.31v.24c0 33.26 0 75.33.07 121v.38H79.53v-.35c.07-35.65.13-65.92.17-87.31 0-10.63.07-19.05.09-24.85v-8.25c0-.4.09-.62.09-.62" style="fill:#e0e0e0"/><path d="M66.34 452.66a13.7 13.7 0 0 1 1.72-2.66c1.14-1.57 2.76-3.73 4.62-6.05s3.62-4.36 4.93-5.8a12.2 12.2 0 0 1 2.27-2.21c.16.14-2.9 3.85-6.61 8.49s-6.75 8.37-6.93 8.23M66.64 298.25c.17-.13 3.26 3.51 6.92 8.13s6.48 8.46 6.32 8.6-3.27-3.51-6.92-8.13-6.49-8.47-6.32-8.6" style="fill:#e0e0e0"/><path d="m173.18 298.37-14 17.22" style="fill:#fff"/><path d="M159.23 315.59c-.16-.13 2.83-4.09 6.68-8.85s7.11-8.5 7.27-8.37-2.82 4.1-6.68 8.85-7.11 8.5-7.27 8.37M173.17 452.66c-.17.13-3.23-3.47-6.85-8s-6.41-8.38-6.24-8.51 3.23 3.47 6.84 8 6.41 8.38 6.25 8.51M125.07 377.22H111l-1.68 3.88a8.7 8.7 0 0 0-.82 3.21 2.66 2.66 0 0 0 1.35 2.47 11.5 11.5 0 0 0 3.91.71v1.08h-13.28v-1.08a6 6 0 0 0 3.53-1.78 23.7 23.7 0 0 0 3.41-6l14.26-31.82h.56l14.38 32.7c1.38 3.1 2.5 5.05 3.39 5.86a4.64 4.64 0 0 0 2.82 1.06v1.08h-19.29v-1.08h.79a6.1 6.1 0 0 0 3.27-.65 1.57 1.57 0 0 0 .64-1.35 3.8 3.8 0 0 0-.17-1.09c0-.18-.34-.91-.89-2.21Zm-1-2.18-5.94-13.73L112 375ZM158 131.63a2.5 2.5 0 0 1 1.09-.12h.37l-.12.12c0-.42.06-.72.12-.72s.1.3.12.72v.12H159a2.4 2.4 0 0 1-1-.12M155 131.63c0-.07.32-.12.73-.12s.72.05.72.12-.32.13-.72.13-.73-.06-.73-.13M152.12 131.63c0-.07.33-.12.73-.12s.73.05.73.12-.33.13-.73.13-.73-.06-.73-.13M149.21 131.63c0-.07.32-.12.72-.12s.73.05.73.12-.32.13-.73.13-.72-.06-.72-.13M146.29 131.63c0-.07.33-.12.73-.12s.73.05.73.12-.33.13-.73.13-.73-.06-.73-.13M143.38 131.63c0-.07.32-.12.72-.12s.73.05.73.12-.32.13-.73.13-.72-.06-.72-.13M140.46 131.63c0-.07.33-.12.73-.12s.73.05.73.12-.33.13-.73.13-.73-.06-.73-.13M137.54 131.63c0-.07.33-.12.73-.12s.73.05.73.12-.32.13-.73.13-.73-.06-.73-.13M134.63 131.63c0-.07.33-.12.73-.12s.73.05.73.12-.33.13-.73.13-.73-.06-.73-.13M131.71 131.63c0-.07.33-.12.73-.12s.73.05.73.12-.32.13-.73.13-.73-.06-.73-.13M128.8 131.63c0-.07.32-.12.73-.12s.73.05.73.12-.33.13-.73.13-.73-.06-.73-.13M125.88 131.63c0-.07.33-.12.73-.12s.73.05.73.12-.33.13-.73.13-.73-.06-.73-.13M123 131.63c0-.07.32-.12.73-.12s.73.05.73.12-.33.13-.73.13-.73-.06-.73-.13M120.05 131.63c0-.07.33-.12.73-.12s.73.05.73.12-.33.13-.73.13-.73-.06-.73-.13M117.14 131.63c0-.07.32-.12.73-.12s.72.05.72.12-.32.13-.72.13-.73-.06-.73-.13M114.22 131.63c0-.07.33-.12.73-.12s.73.05.73.12-.33.13-.73.13-.73-.06-.73-.13M111.31 131.63c0-.07.32-.12.72-.12s.73.05.73.12-.32.13-.73.13-.72-.06-.72-.13M108.39 131.63c0-.07.33-.12.73-.12s.73.05.73.12-.33.13-.73.13-.73-.06-.73-.13M107.48 129.63c.07 0 .13.32.13.73s-.06.73-.13.73-.13-.33-.13-.73.06-.73.13-.73M107.48 126.71c.07 0 .13.33.13.73s-.06.73-.13.73-.13-.33-.13-.73.06-.73.13-.73M107.48 123.8c.07 0 .13.32.13.73s-.06.72-.13.72-.13-.32-.13-.72.06-.73.13-.73M107.48 120.88c.07 0 .13.33.13.73s-.06.73-.13.73-.13-.33-.13-.73.06-.73.13-.73M107.48 118c.07 0 .13.32.13.73s-.06.72-.13.72-.13-.32-.13-.72.06-.73.13-.73M107.48 115.05c.07 0 .13.33.13.73s-.06.73-.13.73-.13-.33-.13-.73.06-.73.13-.73M107.48 112.14c.07 0 .13.32.13.72s-.06.73-.13.73-.13-.32-.13-.73.06-.72.13-.72M107.48 109.22c.07 0 .13.33.13.73s-.06.73-.13.73-.13-.33-.13-.73.06-.73.13-.73M107.48 106.3c.07 0 .13.33.13.73s-.06.73-.13.73-.13-.32-.13-.73.06-.73.13-.73M107.48 103.39c.07 0 .13.33.13.73s-.06.73-.13.73-.13-.33-.13-.73.06-.73.13-.73M107.48 100.47c.07 0 .13.33.13.73s-.06.73-.13.73-.13-.32-.13-.73.06-.73.13-.73M107.48 97.56c.07 0 .13.33.13.73s-.06.73-.13.73-.13-.33-.13-.73.06-.73.13-.73M107.48 94.64c.07 0 .13.33.13.73s-.06.73-.13.73-.13-.33-.13-.73.06-.73.13-.73M107.48 91.73c.07 0 .13.32.13.73s-.06.73-.13.73-.13-.33-.13-.73.06-.73.13-.73M107.48 88.81c.07 0 .13.33.13.73s-.06.73-.13.73-.13-.33-.13-.73.06-.73.13-.73M107.48 85.9c.07 0 .13.32.13.73s-.06.73-.13.73-.13-.33-.13-.73.06-.73.13-.73M107.48 83c.07 0 .13.33.13.73s-.06.73-.13.73-.13-.33-.13-.73.06-.73.13-.73M107.48 80.07c.07 0 .13.32.13.73s-.06.72-.13.72-.13-.32-.13-.72.06-.73.13-.73M110 79.7c0 .07-.32.13-.72.13s-.73-.06-.73-.13.32-.12.73-.12.72.05.72.12M113 79.7c0 .07-.33.13-.73.13s-.73-.06-.73-.13.33-.12.73-.12.73.05.73.12M115.87 79.7c0 .07-.33.13-.73.13s-.73-.06-.73-.13.32-.12.73-.12.73.05.73.12M118.78 79.7c0 .07-.33.13-.73.13s-.73-.06-.73-.13.33-.12.73-.12.73.05.73.12" style="fill:#e0e0e0"/><ellipse cx="120.97" cy="79.7" rx=".73" ry=".13" style="fill:#e0e0e0"/><path d="M124.61 79.7c0 .07-.33.13-.73.13s-.73-.06-.73-.13.33-.12.73-.12.73.05.73.12M127.53 79.7c0 .07-.33.13-.73.13s-.73-.06-.73-.13.33-.12.73-.12.73.05.73.12" style="fill:#e0e0e0"/><ellipse cx="129.71" cy="79.7" rx=".73" ry=".13" style="fill:#e0e0e0"/><path d="M133.36 79.7c0 .07-.33.13-.73.13s-.73-.06-.73-.13.33-.12.73-.12.73.05.73.12M136.27 79.7c0 .07-.32.13-.73.13s-.73-.06-.73-.13.33-.12.73-.12.73.05.73.12" style="fill:#e0e0e0"/><ellipse cx="138.46" cy="79.7" rx=".73" ry=".13" style="fill:#e0e0e0"/><path d="M142.1 79.7c0 .07-.32.13-.73.13s-.72-.06-.72-.13.32-.12.72-.12.73.05.73.12M145 79.7c0 .07-.33.13-.73.13s-.73-.06-.73-.13.33-.12.73-.12.73.05.73.12" style="fill:#e0e0e0"/><ellipse cx="147.21" cy="79.7" rx=".73" ry=".13" style="fill:#e0e0e0"/><path d="M150.85 79.7c0 .07-.33.13-.73.13s-.73-.06-.73-.13.33-.12.73-.12.73.05.73.12M153.76 79.7c0 .07-.32.13-.72.13s-.73-.06-.73-.13.32-.12.73-.12.72.05.72.12" style="fill:#e0e0e0"/><ellipse cx="155.95" cy="79.7" rx=".73" ry=".13" style="fill:#e0e0e0"/><path d="M159.41 79.89s-.06-.07-.08-.19l.08.09a4 4 0 0 1-.54 0c-.41 0-.73-.06-.73-.13s.32-.12.73-.12a2.7 2.7 0 0 1 .54 0h.1v.06c-.04.22-.07.29-.1.29" style="fill:#e0e0e0"/><ellipse cx="159.41" cy="82.08" rx=".13" ry=".73" style="fill:#e0e0e0"/><path d="M159.41 85.72c-.07 0-.13-.32-.13-.73s.06-.73.13-.73.13.33.13.73-.06.73-.13.73M159.41 88.64c-.07 0-.13-.33-.13-.73s.06-.73.13-.73.13.33.13.73-.06.73-.13.73" style="fill:#e0e0e0"/><ellipse cx="159.41" cy="90.82" rx=".13" ry=".73" style="fill:#e0e0e0"/><path d="M159.41 94.47c-.07 0-.13-.33-.13-.73s.06-.73.13-.73.13.33.13.73-.06.73-.13.73M159.41 97.38c-.07 0-.13-.32-.13-.73s.06-.72.13-.72.13.32.13.72-.06.73-.13.73" style="fill:#e0e0e0"/><ellipse cx="159.41" cy="99.57" rx=".13" ry=".73" style="fill:#e0e0e0"/><path d="M159.41 103.21c-.07 0-.13-.32-.13-.73s.06-.72.13-.72.13.32.13.72-.06.73-.13.73M159.41 106.13c-.07 0-.13-.33-.13-.73s.06-.73.13-.73.13.33.13.73-.06.73-.13.73" style="fill:#e0e0e0"/><ellipse cx="159.41" cy="108.32" rx=".13" ry=".73" style="fill:#e0e0e0"/><path d="M159.41 112c-.07 0-.13-.33-.13-.73s.06-.73.13-.73.13.33.13.73-.06.73-.13.73M159.41 114.88c-.07 0-.13-.33-.13-.73s.06-.73.13-.73.13.32.13.73-.06.73-.13.73" style="fill:#e0e0e0"/><ellipse cx="159.41" cy="117.06" rx=".13" ry=".73" style="fill:#e0e0e0"/><ellipse cx="159.41" cy="119.98" rx=".13" ry=".73" style="fill:#e0e0e0"/><path d="M159.41 123.62c-.07 0-.13-.33-.13-.73s.06-.73.13-.73.13.33.13.73-.06.73-.13.73" style="fill:#e0e0e0"/><ellipse cx="159.41" cy="125.81" rx=".13" ry=".73" style="fill:#e0e0e0"/><ellipse cx="159.41" cy="128.72" rx=".13" ry=".73" style="fill:#e0e0e0"/><path d="M157.49 129.18h3.85v3.85h-3.85zM105.56 129.71h3.85v3.85h-3.85zM157.49 77.41h3.85v3.85h-3.85zM105.56 77.78h3.85v3.85h-3.85z" style="fill:#e0e0e0"/><circle cx="689.26" cy="284.11" r="5.96" style="fill:#e0e0e0"/><path d="M701.32 252.39a3.71 3.71 0 1 1 3.68 3.71 3.71 3.71 0 0 1-3.68-3.71M685.43 226.14a3.4 3.4 0 1 1 4.31 2.13 3.4 3.4 0 0 1-4.31-2.13" style="fill:#e0e0e0"/><circle cx="664.92" cy="344.7" r="5.54" style="fill:#e0e0e0"/><circle cx="666.25" cy="387.98" r="3.97" style="fill:#e0e0e0"/><path d="M664.71 433.59a2.83 2.83 0 1 1-2.83-2.82 2.83 2.83 0 0 1 2.83 2.82" style="fill:#e0e0e0"/><circle cx="681.41" cy="344.7" r="5.54" style="fill:#e0e0e0"/><circle cx="701.24" cy="384.01" r="3.97" style="fill:#e0e0e0"/><path d="M689.62 428.13a2.82 2.82 0 1 1-2.12-3.38 2.83 2.83 0 0 1 2.12 3.38" style="fill:#e0e0e0"/><circle cx="671.1" cy="311.75" r="9.16" style="fill:#e0e0e0" transform="rotate(-45 671.101 311.75)"/><circle cx="671.17" cy="272.68" r="5.96" style="fill:#e0e0e0"/><path d="M657.11 284.11a6 6 0 1 1-6-5.95 6 6 0 0 1 6 5.95M639.09 315.84a3.71 3.71 0 1 1-3.71-3.71 3.71 3.71 0 0 1 3.71 3.71M655 342.09a3.4 3.4 0 1 1-4.31-2.13 3.4 3.4 0 0 1 4.31 2.13" style="fill:#e0e0e0"/><path d="M708.34 256.48s-9.5 21.4-13.36 26a21.3 21.3 0 0 1-7-4.17s11.37-21.73 13.32-25.41ZM707.58 247.91c-.14-.45-15-23-15-23l-6.54 4.5 14.23 23.46ZM692 223.48s9.63-10.83 2.89-14.53-8.54 9.06-7.93 12.73l5.32 2" style="fill:#f5f5f5"/><path d="M697.3 453.4h-46.87a14.83 14.83 0 0 1 14.84-14.84h17.19a14.84 14.84 0 0 1 14.84 14.84" style="fill:#e0e0e0"/><path d="M671.91 318.67c.15 0 .26 26.94.26 60.17s-.11 60.17-.26 60.17-.26-26.94-.26-60.17.12-60.17.26-60.17" style="fill:#e0e0e0"/><path d="M661.32 314.87s-5.49 8.9-4 26.51h28.78s1.78-20.94-5-27ZM658.5 349.34h13.21l-1.25 37.23h-9.04zM661.24 389.13l-2.74 42.73 6.61 1.25 5.9-42.73zM655.62 438.56s.08-5.25 5.4-5.45 5.91 5.45 5.91 5.45ZM677.75 350.78l12.01-5.5 14.37 34.38-8.22 3.76zM696.14 384.01l-12.18 41.05 6.16 2.69 15.27-40.35zM681.06 431.38c.34.57 16.24 6.53 16.24 6.53s3.78-3.37-8.12-8.78l-2.54-1.13a3.76 3.76 0 0 0-5.13 2.16ZM656.43 276c-.44.1.37 23.55 5.51 32.24 0 0 18.49-.6 18.94 0s6.43-20.4 5.89-31.68c0-.01-12.99-4.66-30.34-.56M668.63 239.59s-11.8.26-9.62 15.27 4.61 15 4.68 15.4 14.83-1 14.83-1 8.08-30.26-9.89-29.67M632.07 311.75s9.5-21.4 13.36-26a21.3 21.3 0 0 1 7 4.17s-11.37 21.73-13.32 25.4ZM632.83 320.32c.14.44 15 23 15 23l6.54-4.5-14.23-23.47ZM648.11 345.49s-9.63 10.84-2.89 14.54 8.54-9.07 7.93-12.74l-5.32-2" style="fill:#f5f5f5"/><path d="M629.25 106.97h43.81v75.15h-43.81z" style="fill:#fff"/><path d="M629.25 106.97h43.81v6.33h-43.81zM639.78 121.2l.53 7.02 1.96-2.56 3.27-.13zM658.71 121.2l.11.07.31.23 1.2.87 4.2 3.09.18.14h-.23l-3.16.13h-.11.06l-2 2.56-.13.17v-.21c-.13-2-.25-3.78-.33-5.09q-.06-.86-.09-1.44v-.5.55c0 .39.07.87.13 1.46.11 1.29.25 3 .42 5h-.14l2-2.56h.15l3.17-.12-.05.14-4.08-3.12-1.2-.92-.32-.25ZM638.5 151.73s2.17-2.34 4.91-5.16 5-5.08 5-5-2.16 2.34-4.9 5.16-4.97 5.03-5.01 5M668.92 146.55a10 10 0 0 0-.23-1.56 6.43 6.43 0 0 0-2.28-3.55 6.11 6.11 0 0 0-6-.94 5.9 5.9 0 0 0-1.59.9 6 6 0 0 0-1.32 1.38 6.58 6.58 0 0 0 0 7.55 6 6 0 0 0 1.32 1.38 5.9 5.9 0 0 0 1.59.9 6.11 6.11 0 0 0 6-.94 6.46 6.46 0 0 0 2.28-3.55 10 10 0 0 0 .23-1.57v.45a3 3 0 0 1 0 .49 5 5 0 0 1-.12.68 6.57 6.57 0 0 1-2.27 3.63 6.23 6.23 0 0 1-6.13 1 6.4 6.4 0 0 1-3-2.32 6.72 6.72 0 0 1 0-7.75 6.3 6.3 0 0 1 1.35-1.41 5.8 5.8 0 0 1 1.64-.91 6.2 6.2 0 0 1 3.41-.29 6.36 6.36 0 0 1 2.72 1.27 6.54 6.54 0 0 1 2.27 3.63 5 5 0 0 1 .12.67 3.4 3.4 0 0 1 0 .5ZM663.24 163.25s.06 0 .16.12l.45.38 1.72 1.49-7.37 8.45-.89.14-1.59.24h-.12v-.12l.58-2.9c2-2.35 3.73-4.36 5-5.75a14 14 0 0 1 2.09-2.13l-.15.13c-.09.1-.23.23-.4.42-.35.38-.85.94-1.46 1.64-1.24 1.42-3 3.43-4.94 5.79-.18.92-.37 1.9-.57 2.9l-.1-.1 1.6-.24.88-.13c3-3.43 5.7-6.45 7.42-8.41v.07l-1.66-1.51-.44-.4ZM647.22 173.5a2 2 0 0 1 0-.21v-10.36l.07.07H637l.08-.08v10.57l-.07-.08h9.52-9.63V163l.09-.09h10.34v10.46a1 1 0 0 1-.11.13" style="fill:#e0e0e0"/><path d="M638.5 162.93a16 16 0 0 1-2.22.08 16 16 0 0 1-2.23-.08 14 14 0 0 1 2.23-.09 13.7 13.7 0 0 1 2.22.09" style="fill:#e0e0e0"/><path d="M637 165a35 35 0 0 1 0-5 39 39 0 0 1 0 5" style="fill:#e0e0e0"/><path d="M673.06 182.12v-21.1c0-13.27 0-32-.06-54.05l.13.13h-43.88l.14-.14v75.15l-.11-.11 32 .05h11.85-11.75l-32 .05h-.11v-75.39h44.08v.29c0 22-.05 40.84-.06 54.14v20.6c0 .19-.23.38-.23.38" style="fill:#e0e0e0"/><path d="M604.55 65.74h-4.23l-9.25-12.88v-8.45s-6.54-.41-5.77 10.66-.07 8.25-.07 8.25-13.89.06-15.05 1.27c-.84.87-1.22 14.68-1.36 22.17a8.08 8.08 0 0 0 5.74 8.16 6 6 0 0 0 1.5.2c3.46 0 21.17-2.81 21.17-2.81h7.32ZM616.67 63.42l-2.6 28.97h-7.25V64zM71.19 185.54h3l6.52 9.09v6s4.62.28 4.08-7.53 0-5.83 0-5.83 9.81 0 10.62-.89c.59-.62.86-10.36 1-15.65a5.71 5.71 0 0 0-4-5.76 4.3 4.3 0 0 0-1.06-.14c-2.44 0-15 2-15 2h-5.16ZM62.63 187.18l1.84-20.45h5.12v20.03z" style="fill:#ebebeb"/><path d="M717.44 453.14c0 .15-148.37.26-331.35.26s-331.38-.11-331.38-.26 148.34-.26 331.38-.26 331.35.12 331.35.26" style="fill:#263238"/><path d="M448.9 316.54c0 .54 2.88 4 1.73 7.85-.33 1.09-3.16 3.28-3.16 3.28l3 5.29-17.64 7.55-8.87-17.31 17.75-5Z" style="fill:#ffbe9d"/><path d="M438.48 296.37a7.77 7.77 0 0 0 1.72-11.12c-1.92-2.27-5.14-3.33-6.58-5.94-1.07-1.92-.92-4.28-.49-6.43a28 28 0 0 0 1.05-6.49c-.08-2.2-1.16-4.55-3.21-5.33-2.87-1.08-5.87 1.34-7.47 3.95a19.67 19.67 0 0 0-.95 18.43c1.2 2.51 2.93 4.73 4.23 7.18s2.19 5.31 1.5 8" style="fill:#f5f5f5"/><path d="M430.31 269a13.7 13.7 0 0 0-1.21 3.65 10.4 10.4 0 0 0 .22 4.12 11.2 11.2 0 0 0 .9 2.26 10 10 0 0 0 1.58 2.06c1.3 1.25 2.85 2.2 3.83 3.55a7.9 7.9 0 0 1 1.48 4 7.4 7.4 0 0 1-.33 2.88 2.9 2.9 0 0 1-.45 1 10 10 0 0 0 .41-3.8 7.6 7.6 0 0 0-1.5-3.79c-.92-1.25-2.44-2.16-3.8-3.46a9.9 9.9 0 0 1-1.66-2.2 10.7 10.7 0 0 1-.92-2.39 10.3 10.3 0 0 1-.13-4.29 8.7 8.7 0 0 1 1-2.72 3.6 3.6 0 0 1 .58-.87M425.61 269.39a13.6 13.6 0 0 0-1.22 3.64 10.6 10.6 0 0 0 .23 4.12 11 11 0 0 0 .9 2.26 9.7 9.7 0 0 0 1.58 2.07c1.29 1.24 2.85 2.19 3.83 3.55a7.8 7.8 0 0 1 1.48 4 7.3 7.3 0 0 1-.33 2.87 2.9 2.9 0 0 1-.45 1 10.2 10.2 0 0 0 .41-3.8 7.7 7.7 0 0 0-1.5-3.78c-.92-1.25-2.44-2.17-3.8-3.47a9.8 9.8 0 0 1-1.66-2.19 10.7 10.7 0 0 1-.92-2.39A10.4 10.4 0 0 1 424 273a8.6 8.6 0 0 1 1-2.72 3.1 3.1 0 0 1 .61-.89" style="fill:#263238"/><path d="M433 238.61a4.26 4.26 0 0 1 2.62 2.8 6.3 6.3 0 0 1-.14 3.91 6.06 6.06 0 0 1-1.76 2.73 4 4 0 0 1-3 1 4.85 4.85 0 0 1-3.37-2.42 6.3 6.3 0 0 1-.22-6.57c1.25-1.94 4.13-2.79 6-1.48" style="fill:#f5f5f5"/><path d="m448.63 293.06 3.16 28.33a4.15 4.15 0 0 1-3.45 4.56l-17.27 2.87a4.17 4.17 0 0 1-4.78-3.35l-5.06-27.34Z" style="fill:#455a64"/><path d="m435.15 300.32 1-.14.9 6.45-1 .15ZM437.73 321.57l-1 .12-.32-1.15-1.24.15v1.19l-.93.11.26-6.59 1.48-.18Zm-2.56-1.78 1-.11-.88-3.22ZM440.33 321.26a2.1 2.1 0 0 1-.19-.79l-.12-1c-.07-.6-.3-.8-.76-.75l-.36.05.32 2.63-1 .12-.77-6.47 1.53-.18a1.31 1.31 0 0 1 1.69 1.31l.06.5a1.31 1.31 0 0 1-.51 1.4c.53.15.76.62.84 1.29l.12 1a1.9 1.9 0 0 0 .2.77Zm-1.77-5.42.23 2 .4-.05c.38 0 .59-.23.53-.75l-.08-.64c-.05-.46-.23-.65-.59-.6ZM440.85 314.63l3.14-.37.11.92-1.06.13.66 5.54-1 .12-.66-5.54-1.06.13Z" style="fill:#263238"/><path d="M437.38 309.63a5.8 5.8 0 0 0-1.76-1.59 1.46 1.46 0 0 0-1.89.38 1.43 1.43 0 0 0 0 1.35 3.35 3.35 0 0 0 .91 1.07 17.4 17.4 0 0 0 3.48 2.28 8.76 8.76 0 0 0 2.11-3.6 2.47 2.47 0 0 0 .11-1.26 1 1 0 0 0-.87-.82 1.8 1.8 0 0 0-1.15.46 3.66 3.66 0 0 0-.93 1.73" style="fill:#efff00"/><path d="M448.93 295.76s-9 9.74-7.48 12.86c.88 1.81 3.28 1.64 4.65-.08s3.16-3.8 4.38-5.26c1.6-1.93 1.37-7.75-1.55-7.52" style="fill:#ffbe9d"/><path d="M450.69 302.58s-8.19 8-6.85 10.64 3.75 1.07 4.94-.42 2-2.76 3-4c1.42-1.69 1.72-7.19-1.09-6.22" style="fill:#ffbe9d"/><path d="M451.31 309s-5.83 6.34-4.81 8.37 2.26 1.58 3.16.45 2.07-2.49 2.87-3.45c1.06-1.29.66-5.87-1.22-5.37M423.92 322.91 419.26 312l10.89-12.35s2.74 1.73 1.11 5.36-5.74 7-5.74 7l.3 10.92Z" style="fill:#ffbe9d"/><path d="M427.69 301.91c0 .28-2.17-.2-5.16 1.06a10.47 10.47 0 0 0-4.29 3.39 9.87 9.87 0 0 0 .9 12.33 10.4 10.4 0 0 0 4.75 2.74c3.13.8 5.19 0 5.25.3 0 .08-.43.39-1.37.64a9.7 9.7 0 0 1-4.12.14 10.8 10.8 0 0 1-5.52-2.8 10.91 10.91 0 0 1-1-14.21 10.8 10.8 0 0 1 5.05-3.56 9.5 9.5 0 0 1 4.1-.47c.93.11 1.43.35 1.41.44" style="fill:#455a64"/><path d="M451 302.16a55.3 55.3 0 0 1-6.73 8.12 27 27 0 0 1 3.16-4.23 26.4 26.4 0 0 1 3.57-3.89M452 308.67a14 14 0 0 1-2.29 3.44 13.6 13.6 0 0 1-2.87 3 20.6 20.6 0 0 1 2.46-3.3 21 21 0 0 1 2.7-3.14M446.26 328.6a21.7 21.7 0 0 1-4.28 1.89 21.5 21.5 0 0 1-4.47 1.4 21 21 0 0 1 4.28-1.89 21.5 21.5 0 0 1 4.47-1.4" style="fill:#eb996e"/><path d="M432.21 398.78s3-35.48 1.36-40-6.46-21.47-6.46-21.47l26.06-7.78s13.31 35.1 17.88 65.89Z" style="fill:#263238"/><path d="m424.54 422.37-32.15-36-.32 43.75 9 23.28h-96.65L301.5 399l-6.92-58.27a15.82 15.82 0 0 1 9.91-16.59L331 313.72l37.28 6.83 15 5.7a41.1 41.1 0 0 1 16.34 11.37l45.14 51.62" style="fill:#263238"/><path d="M390.14 377.77a50 50 0 0 0 5.43-.38 22.05 22.05 0 0 0 18.07-16.67 49 49 0 0 0 .82-5.38 4.8 4.8 0 0 1 .14 1.48 19 19 0 0 1-.42 4 21.55 21.55 0 0 1-18.53 17.09 19 19 0 0 1-4 .1 4.4 4.4 0 0 1-1.51-.24" style="fill:#fff"/><path d="M392.33 428.27c.22 0 .56-15.15.75-33.84s.16-33.86-.07-33.86-.56 15.15-.75 33.85-.16 33.85.07 33.85" style="fill:#455a64"/><path d="M389.43 439.39 331.32 416a13.25 13.25 0 0 1-8.32-11.3l-4.21-55.7s.5-23.7-14.3-24.85l-8.42 3.31c-10.88 5.78-13.58 21.63-12.09 33.86 2.1 17.38 3 42 5.33 57.06 1.93 12.33 9 23.19 21.07 26.37l70.73 9Z" style="fill:#263238"/><path d="M319.62 357.48a7.4 7.4 0 0 1 .18 1.28c.09.91.22 2.13.38 3.67.29 3.27.71 7.86 1.22 13.51s1.08 12.52 1.73 20.05c.16 1.88.32 3.82.48 5.79a45 45 0 0 0 .75 6 9.86 9.86 0 0 0 2.88 5.22 19.8 19.8 0 0 0 5.37 3.34c16 6.93 30.79 12.65 41.5 16.67l12.73 4.69 3.46 1.27a7 7 0 0 1 1.19.5 10 10 0 0 1-1.24-.35l-3.51-1.14c-3-1-7.42-2.51-12.82-4.45-10.78-3.93-25.57-9.53-41.64-16.53a20.2 20.2 0 0 1-5.57-3.48 10.75 10.75 0 0 1-3.1-5.61 45 45 0 0 1-.74-6.07c-.15-2-.31-3.9-.46-5.79-.58-7.54-1.11-14.33-1.55-20.07s-.75-10.26-1-13.53c-.09-1.54-.17-2.77-.22-3.68a7 7 0 0 1-.02-1.29" style="fill:#455a64"/><path d="M311.18 426.75a8.4 8.4 0 0 1 1.05-3.09A20 20 0 0 1 324 413.59a8.7 8.7 0 0 1 3.23-.56c0 .13-1.2.37-3.05 1.08a22.54 22.54 0 0 0-11.48 9.81c-.97 1.71-1.4 2.88-1.52 2.83" style="fill:#263238"/><path d="M322.6 384.39s.14 0 .37.16l1 .54a37 37 0 0 0 4.15 1.76 32.8 32.8 0 0 0 16.29 1.39 32.13 32.13 0 0 0 20.24-12.57A26.75 26.75 0 0 0 370 362.5a18 18 0 0 0-.77-7.45 15.2 15.2 0 0 0-4.19-6.4 12.7 12.7 0 0 0-6.82-3.31 8.12 8.12 0 0 0-6.84 1.92 4.33 4.33 0 0 0-1.33 3.09 5.3 5.3 0 0 0 1.12 3.19 8.72 8.72 0 0 0 5.91 3.09 24 24 0 0 0 12.7-1.82 23.58 23.58 0 0 0 13.38-15 25.2 25.2 0 0 0 1.11-7 27.7 27.7 0 0 0-.33-4.48c-.09-.47-.16-.85-.21-1.16s-.07-.39-.05-.4a18.9 18.9 0 0 1 .89 6 25.2 25.2 0 0 1-1 7.12A24.58 24.58 0 0 1 357 357.34a9.48 9.48 0 0 1-6.4-3.35 6.18 6.18 0 0 1-1.28-3.64 5.15 5.15 0 0 1 1.55-3.63 8.85 8.85 0 0 1 7.48-2.15 13.4 13.4 0 0 1 7.24 3.51 15.9 15.9 0 0 1 4.4 6.73 18.7 18.7 0 0 1 .8 7.76 27.4 27.4 0 0 1-5.48 13.52 32.09 32.09 0 0 1-37.21 11.05 23.7 23.7 0 0 1-5.5-2.75M284.54 369.53a5.2 5.2 0 0 1 1-1.19 21 21 0 0 1 3.14-2.73 26.36 26.36 0 0 1 12.85-4.56 24.9 24.9 0 0 1 7.58.32 23 23 0 0 1 5.83 2.05 26 26 0 0 1 3.55 2.16 5.4 5.4 0 0 1 1.17 1c-.08.13-1.82-1.19-4.95-2.64a24.33 24.33 0 0 0-13.1-2.1 27.6 27.6 0 0 0-12.61 4.22c-2.93 1.94-4.35 3.58-4.46 3.47M293.84 329.69a23.6 23.6 0 0 0 4.7 3.42 17.1 17.1 0 0 0 6 1.76 15 15 0 0 0 13.54-5.6 16.9 16.9 0 0 0 3-5.48 23 23 0 0 0 .91-5.74 5 5 0 0 1 .2 1.58 14.3 14.3 0 0 1-.58 4.32 16.5 16.5 0 0 1-3 5.76 15.3 15.3 0 0 1-14.17 5.87 16.6 16.6 0 0 1-6.17-2 14.7 14.7 0 0 1-3.46-2.65 4.8 4.8 0 0 1-.97-1.24M344.47 421.3a6 6 0 0 1 .12-1.1 12.6 12.6 0 0 1 1-3 16.57 16.57 0 0 1 8.7-7.55c4.54-2 10.79-2.44 17.08-.61 3.07.91 6.6 2 8.91 5a5.4 5.4 0 0 1 .65 5.46 8.68 8.68 0 0 1-4.14 3.91 13 13 0 0 1-5.5 1.36 8 8 0 0 1-5.28-1.64 6.74 6.74 0 0 1-2.37-4.78 12.1 12.1 0 0 1 .79-5 22.64 22.64 0 0 1 12-12.12 23.4 23.4 0 0 1 11.43-2 16 16 0 0 1 4.18.88c0 .1-1.48-.4-4.2-.58a23.9 23.9 0 0 0-11.18 2.16 23.4 23.4 0 0 0-6.53 4.43 20.9 20.9 0 0 0-5 7.44 11.3 11.3 0 0 0-.73 4.73 6 6 0 0 0 2.11 4.26 7.3 7.3 0 0 0 4.79 1.45 12.4 12.4 0 0 0 5.16-1.29 8 8 0 0 0 3.79-3.53 4.64 4.64 0 0 0-.57-4.7 10.8 10.8 0 0 0-3.89-3.08 26.5 26.5 0 0 0-4.59-1.71c-6.17-1.82-12.22-1.5-16.68.43a16.57 16.57 0 0 0-8.64 7.18 17 17 0 0 0-1.41 4M305.78 442.28c0-.15 2.22-.34 5.58-1.54A27.74 27.74 0 0 0 329.18 421c.85-3.46.82-5.7 1-5.69a5 5 0 0 1 .09 1.57 24.4 24.4 0 0 1-.51 4.25 26.76 26.76 0 0 1-18.19 20.11 23 23 0 0 1-4.18.94 5.9 5.9 0 0 1-1.61.1M287 399a3.3 3.3 0 0 1 .7-.28c.47-.15 1.17-.37 2.08-.6a24.9 24.9 0 0 1 7.91-.8 16.2 16.2 0 0 1 5.38 1.33 12.3 12.3 0 0 1 5 3.94 10.32 10.32 0 0 1 2 6.77 8.4 8.4 0 0 1-1.16 3.64 5.76 5.76 0 0 1-3 2.54 4 4 0 0 1-3.93-.77 5.25 5.25 0 0 1-1.35-3.62 15.5 15.5 0 0 1 1.37-6.92 15.12 15.12 0 0 1 8.47-8 15.34 15.34 0 0 1 7.91-.78 13.6 13.6 0 0 1 2.1.53 2.6 2.6 0 0 1 .69.31c0 .07-1-.31-2.84-.54a15.75 15.75 0 0 0-7.66 1 14.7 14.7 0 0 0-8 7.82 14.9 14.9 0 0 0-1.26 6.59 4.55 4.55 0 0 0 1.12 3.09 3.25 3.25 0 0 0 3.16.6 5 5 0 0 0 2.62-2.21 7.5 7.5 0 0 0 1.06-3.29 9.7 9.7 0 0 0-1.78-6.3 11.9 11.9 0 0 0-4.7-3.77 16.5 16.5 0 0 0-5.16-1.37 26.6 26.6 0 0 0-7.8.56c-1.93.29-2.93.53-2.93.53" style="fill:#fff"/><path d="M372.73 432.75c-6.22-3.51-12.29-6.2-18.79-9.16s-12.86-6.74-17.11-12.47c-8-10.81-7.11-26.41-15.32-37.07q.81 10.76 1.61 21.51c.49 6.58-.52 13.08 3.72 17.54 3.56 3.77 10.52 6.65 15.44 8.28 9.9 3.26 20.55 8.11 30.45 11.37" style="opacity:.30000000000000004"/><path d="M459.53 346.1a4.7 4.7 0 0 1-.72.45c-.49.27-1.19.71-2.07 1.29a31.2 31.2 0 0 0-6.57 6 29.8 29.8 0 0 0-5.89 11.69 14.65 14.65 0 0 0-.06 7.64 8.3 8.3 0 0 0 2 3.44 7.23 7.23 0 0 0 3.53 2 5.27 5.27 0 0 0 3.93-.64 6.5 6.5 0 0 0 2.57-3 6.36 6.36 0 0 0 .49-3.78 7.6 7.6 0 0 0-1.52-3.35 9.1 9.1 0 0 0-5.87-3.38 12.05 12.05 0 0 0-6 .67 15.9 15.9 0 0 0-4.38 2.49 23 23 0 0 0-2.79 2.62c-.71.78-1.22 1.43-1.57 1.86a5 5 0 0 1-.54.66s0-.07.11-.19.19-.3.35-.53c.32-.46.81-1.12 1.5-1.93a21 21 0 0 1 2.76-2.72 15.8 15.8 0 0 1 4.43-2.61 12.5 12.5 0 0 1 6.19-.75 9.58 9.58 0 0 1 6.18 3.51 8.06 8.06 0 0 1 1.63 3.57 6.9 6.9 0 0 1-.51 4.06 7.1 7.1 0 0 1-2.77 3.22 5.83 5.83 0 0 1-4.31.7 7.66 7.66 0 0 1-3.79-2.18 8.7 8.7 0 0 1-2.14-3.66 15 15 0 0 1 .09-7.89 29.9 29.9 0 0 1 12.81-17.75 24 24 0 0 1 2.13-1.21 7 7 0 0 1 .8-.3" style="fill:#fff"/><path d="M349.26 453.41a5.5 5.5 0 0 1-.86-.16l-2.44-.52-9-1.78c-3.81-.74-8.36-1.61-13.39-2.66-2.52-.52-5.15-1.09-7.88-1.74a52 52 0 0 1-8.32-2.52 27.9 27.9 0 0 1-12.77-10.63 42.3 42.3 0 0 1-5-12.71 60 60 0 0 1-1.4-9.12c-.07-1.08-.12-1.93-.12-2.5a6 6 0 0 1 0-.87 5.5 5.5 0 0 1 .1.87c0 .57.12 1.41.22 2.49a69 69 0 0 0 1.55 9 43.1 43.1 0 0 0 5.05 12.59 27.63 27.63 0 0 0 12.57 10.41 53.4 53.4 0 0 0 8.23 2.49c2.72.66 5.35 1.24 7.86 1.77l13.34 2.77c3.8.79 6.88 1.44 9 1.94 1.06.25 1.88.45 2.43.62a4.4 4.4 0 0 1 .83.26" style="fill:#455a64"/><path d="m391.18 441.68 3.47-1.58 5.35-6.33a8.24 8.24 0 0 1 7.85-2.78l12.45 2.36-3.36 16.42h-26.86Z" style="fill:#ffbe9d"/><path d="M404.46 235.53c-5.27-3.08-12.4.61-18-1.91-3.38-1.54-5.38-5-8.11-7.5-4.09-3.75-10.66-5.75-16-4.45s-9.11 3.18-11 8.39c-3.78-3.55-12.39.23-16.14 5s-4.42 10.38-4.36 16.41a79.7 79.7 0 0 0 6.37 30.32c.36.84 1 1.84 1.92 1.65.62-.13 1-.78 1.21-1.37 2.07-5 2.67-10.49 3.46-15.86s1.86-10.84 4.7-15.46 7.85-8.27 13.28-8.06c4 .15 7.68 2.33 10.63 5s5.33 6 8.06 8.92 5.93 5.63 9.78 6.72 8.47.24 11-2.89 1.82-8.59-1.81-10.31a7.88 7.88 0 0 0 5.08-14.6Z" style="fill:#263238"/><path d="m338.62 255-8.29 60.27a18.1 18.1 0 0 0 16.35 20.5 18.11 18.11 0 0 0 19.51-15.59c.62-4.54 1.15-8.32 1.24-8.79 0 0 15.55.67 18.74-14.36 1.55-7.27 3.51-22.49 5.13-36.28a28.63 28.63 0 0 0-22.84-31.4L367 229c-15.85-2.18-26.6 10.06-28.38 26" style="fill:#ffbe9d"/><path d="M367.5 311.16a35.74 35.74 0 0 1-18.5-9.51s2.48 11.78 17.79 13.42Z" style="fill:#eb996e"/><path d="M384.89 269.94a2.19 2.19 0 0 1-2.51 1.76 2.11 2.11 0 0 1-1.83-2.38 2.19 2.19 0 0 1 2.51-1.76 2.09 2.09 0 0 1 1.83 2.38M386.58 267.48c-.32.22-1.71-1.31-4-1.77s-4.24.37-4.44 0c-.09-.15.28-.6 1.13-1a6 6 0 0 1 3.62-.37 5.84 5.84 0 0 1 3.14 1.75c.57.73.71 1.29.55 1.39M362 266.19a2.2 2.2 0 0 1-2.51 1.76 2.1 2.1 0 0 1-1.83-2.39 2.19 2.19 0 0 1 2.51-1.75 2.09 2.09 0 0 1 1.83 2.38M363.73 263.36c-.32.23-1.71-1.31-4-1.76s-4.24.36-4.44 0c-.1-.15.27-.61 1.12-1a6.1 6.1 0 0 1 3.63-.37 5.84 5.84 0 0 1 3.14 1.75c.57.72.71 1.28.55 1.38M368.71 282.21a16 16 0 0 1 3.89.08c.61 0 1.19 0 1.37-.34a3.17 3.17 0 0 0 0-1.83c-.27-1.54-.56-3.16-.85-4.85-1.15-6.9-1.86-12.52-1.58-12.56s1.44 5.51 2.58 12.4c.27 1.7.53 3.32.77 4.87a3.47 3.47 0 0 1-.15 2.38 1.51 1.51 0 0 1-1.15.67 4.1 4.1 0 0 1-1-.06c-2.44-.34-3.9-.62-3.88-.76M361.57 282.45c.38.06-.12 2.57 1.68 4.79s4.52 2.47 4.47 2.82c0 .17-.69.37-1.83.18a6.4 6.4 0 0 1-3.76-2.22 5.55 5.55 0 0 1-1.25-4c.12-1.02.52-1.61.69-1.57M366.14 254.4c-.35.59-2.6-.17-5.39-.39s-5.12.09-5.37-.55c-.11-.3.39-.82 1.4-1.25a9.36 9.36 0 0 1 8.2.72c.92.6 1.32 1.19 1.16 1.47M387.07 260.6c-.51.45-2-.42-3.91-.83s-3.61-.35-3.88-1c-.11-.3.25-.77 1.06-1.13a5.82 5.82 0 0 1 6.28 1.46c.57.7.68 1.28.45 1.5" style="fill:#263238"/><path d="M337.62 266.38c-.23-.16-9.74-5.13-11.47 5.24s9 10 9.11 9.67 2.36-14.91 2.36-14.91" style="fill:#ffbe9d"/><path d="M332.74 276.84s-.2.09-.53.18a1.77 1.77 0 0 1-1.35-.2c-1-.58-1.66-2.47-1.4-4.35a6 6 0 0 1 .94-2.5 2.08 2.08 0 0 1 1.59-1.16.93.93 0 0 1 1 .67c.09.31 0 .51 0 .54s.25-.14.24-.58a1.17 1.17 0 0 0-.3-.72 1.33 1.33 0 0 0-.95-.43 2.59 2.59 0 0 0-2.16 1.29 6.2 6.2 0 0 0-1.11 2.79c-.28 2.1.47 4.23 1.89 4.91a2 2 0 0 0 1.7 0c.38-.2.48-.42.44-.44" style="fill:#eb996e"/><path d="M395.12 258.23a22.19 22.19 0 0 1-18.47-8.23c-3-3.84-5-8.87-9.29-11.2a12.5 12.5 0 0 0-9.62-.59 24.1 24.1 0 0 0-8.4 5.1c1.38 8.24-2.28 16.4-5.85 24a4.17 4.17 0 0 1-1.68 2.13c-1.41.7-3.08-.4-3.92-1.72-1.35-2.12-1.51-4.77-1.46-7.28a43.3 43.3 0 0 1 3.44-16.69 29.36 29.36 0 0 1 10.84-13 27.9 27.9 0 0 1 20.63-3.42 34.25 34.25 0 0 1 18.07 10.85 20 20 0 0 1 4.88 8.56" style="fill:#263238"/><path d="M408.06 240a2.2 2.2 0 0 1-.27.87 4.22 4.22 0 0 1-1.86 1.84 6.72 6.72 0 0 1-4.11.52 11.5 11.5 0 0 1-2.52-.67 5.7 5.7 0 0 1-2.39-1.74 3.71 3.71 0 0 1-.7-3.17 3.23 3.23 0 0 1 2.71-2.19 4 4 0 0 1 1.9.13 3.37 3.37 0 0 1 1.61 1.15 4.77 4.77 0 0 1 .82 3.91 5.55 5.55 0 0 1-2.38 3.45 8.44 8.44 0 0 1-4.16 1.38 13.87 13.87 0 0 1-8.61-2.72 40.2 40.2 0 0 1-6.71-6.11 51 51 0 0 0-6-5.8 15.6 15.6 0 0 0-6.74-3.13 14.8 14.8 0 0 0-6.48.35 18.6 18.6 0 0 0-8.08 4.85 25 25 0 0 0-1.75 1.92c-.37.46-.57.71-.58.7s0-.07.11-.2.21-.32.39-.56a20 20 0 0 1 1.69-2 18.4 18.4 0 0 1 8.12-5.06 15.2 15.2 0 0 1 6.65-.42 16.06 16.06 0 0 1 7 3.18 50.5 50.5 0 0 1 6.11 5.83 39.4 39.4 0 0 0 6.62 6 13.44 13.44 0 0 0 8.29 2.64 8 8 0 0 0 3.91-1.28 5 5 0 0 0 2.19-3.14 4.34 4.34 0 0 0-.71-3.53 3.16 3.16 0 0 0-3.08-1.14 2.87 2.87 0 0 0-2.4 1.88 3.34 3.34 0 0 0 .62 2.84 5.3 5.3 0 0 0 2.21 1.65 10.8 10.8 0 0 0 2.45.69 6.55 6.55 0 0 0 4-.41 4.3 4.3 0 0 0 1.86-1.7 8 8 0 0 0 .27-.81M331.56 243.53a17.4 17.4 0 0 0 3 1.45 9.2 9.2 0 0 0 3.52.33 15.3 15.3 0 0 0 4.24-1.09 12.3 12.3 0 0 0 5.81-5.22 26 26 0 0 0 1.33-3.06 2.8 2.8 0 0 1-.13.91 10.2 10.2 0 0 1-.87 2.32 12 12 0 0 1-5.94 5.53 15 15 0 0 1-4.4 1.09 9.1 9.1 0 0 1-3.68-.46 8.8 8.8 0 0 1-2.2-1.18 2.8 2.8 0 0 1-.68-.62M330.52 251.08c0-.09 1.18.41 3.15.69a14.37 14.37 0 0 0 13.61-5.54c1.21-1.58 1.68-2.74 1.77-2.7a2.7 2.7 0 0 1-.28.83 13 13 0 0 1-1.19 2.09 13.93 13.93 0 0 1-14 5.69 12.4 12.4 0 0 1-2.3-.66 2.7 2.7 0 0 1-.76-.4" style="fill:#455a64"/><path d="M354.07 271.67a.29.29 0 1 1 .26-.29.28.28 0 0 1-.26.29M358.69 271.55a.34.34 0 1 1 .27-.33.31.31 0 0 1-.27.33M361.69 272.07c-.14 0-.25-.21-.23-.44s.15-.42.29-.41.25.21.23.44-.15.42-.29.41M355.69 274.88c-.14 0-.24-.12-.22-.21s.14-.14.29-.12.24.13.22.22-.15.14-.29.11M359.94 274.75a.28.28 0 0 1-.23-.32.26.26 0 1 1 .52.05.28.28 0 0 1-.29.27" style="fill:#eb996e"/><ellipse cx="381.56" cy="276.15" rx=".26" ry=".29" style="fill:#eb996e"/><path d="M384.63 276.77a.33.33 0 0 1 .07-.65.3.3 0 0 1 .22.35c-.02.18-.15.32-.29.3M378.88 276a.25.25 0 0 1-.26-.23.25.25 0 0 1 .26-.23.25.25 0 0 1 .26.23.24.24 0 0 1-.26.23M380.51 279.45a.27.27 0 0 1-.31-.23.26.26 0 1 1 .31.23M383.19 279.45a.23.23 0 0 1-.13-.31.24.24 0 0 1 .33-.08.22.22 0 1 1-.2.39" style="fill:#eb996e"/><path d="M328.06 278.81a6.5 6.5 0 0 0-.75 2.28 3.46 3.46 0 0 0 .69 2.38 3.17 3.17 0 0 0 2.63 1.29 2.9 2.9 0 0 0 2.41-1.6 3.75 3.75 0 0 0 0-2.49 5.26 5.26 0 0 0-1.14-2.1c0-.08 1 .45 1.5 2a4 4 0 0 1 0 2.79 3.32 3.32 0 0 1-2.81 1.92 3.57 3.57 0 0 1-3.05-1.52 3.8 3.8 0 0 1-.68-2.7 4.2 4.2 0 0 1 .65-1.75c.33-.37.49-.52.55-.5" style="fill:#263238"/><path d="M328.44 277.07s.35.21.43.82a1.5 1.5 0 0 1-.26 1 1.55 1.55 0 0 1-1.14.67 1.41 1.41 0 0 1-1.22-.57 1.19 1.19 0 0 1-.18-1.08c.21-.61.68-.69.68-.63s-.26.26-.32.72a.85.85 0 0 0 .2.7 1 1 0 0 0 .8.34 1.15 1.15 0 0 0 .8-.44 1.27 1.27 0 0 0 .27-.73c.03-.45-.13-.76-.06-.8" style="fill:#263238"/><path d="m512.43 388.43-29.3 64.98H355.54l.52-3.3 44.21-.75 22.3-60.64z" style="fill:#455a64"/><path d="M454.06 417.87a5 5 0 0 1 7.24 3.13 4.87 4.87 0 0 1-4.62 5.82 4.66 4.66 0 0 1-4.68-3.09c-.56-1.94.06-4.83 2.06-5.85" style="fill:#ebebeb"/><path d="M188.62 378.6h17.63v20.96h-17.63z" style="fill:#f5f5f5"/><path d="M109.54 377.23h79.68v23.65h-79.68z" style="fill:#efff00"/><path d="M206.79 379.22h-19.7v-2h19.7a1 1 0 0 1 1 1 1 1 0 0 1-1 1M206.79 400.88h-19.7v-2h19.7a1 1 0 0 1 1 1 1 1 0 0 1-1 1" style="fill:#efff00"/><path d="M173.55 377.23h9.41v23.65h-9.41zM116.61 377.23h9.41v23.65h-9.41z" style="opacity:.4"/><path d="M206.25 382.07c0 .05-3.82.1-8.52.1s-8.53-.05-8.53-.1 3.82-.11 8.53-.11 8.52.04 8.52.11M206.25 385.21c0 .06-3.82.1-8.52.1s-8.53 0-8.53-.1 3.82-.11 8.53-.11 8.52.05 8.52.11M206.25 389.08c0 .06-3.82.1-8.52.1s-8.53 0-8.53-.1 3.82-.1 8.53-.1 8.52.02 8.52.1M206.25 393c0 .06-3.82.11-8.52.11s-8.53-.05-8.53-.11 3.82-.1 8.53-.1 8.52-.01 8.52.1M206.25 396.82c0 .06-3.82.11-8.52.11s-8.53-.05-8.53-.11 3.82-.1 8.53-.1 8.52.04 8.52.1" style="fill:#e0e0e0"/><path d="M132.64 386.95h35.85v4.26h-35.85z" style="opacity:.2"/><path d="M188.17 401.34h17.9v12.77h-17.9z" style="fill:#fafafa"/><path d="M112.18 400.88h76.19v13.7h-76.19z" style="fill:#455a64"/><path d="M187.82 401.81h19.24a.47.47 0 0 0 .46-.47.47.47 0 0 0-.46-.46h-19.24ZM187.82 413.65h19.28a.42.42 0 0 1 .42.42v.09a.42.42 0 0 1-.42.42h-19.28z" style="fill:#455a64"/><path d="M206.07 403.77c0 .06-4 .1-8.85.1s-8.85 0-8.85-.1 4-.11 8.85-.11 8.85.05 8.85.11M206.07 406.19c0 .05-4 .1-8.85.1s-8.85-.05-8.85-.1 4-.11 8.85-.11 8.85.05 8.85.11M206.07 408.6c0 .06-4 .11-8.85.11s-8.85 0-8.85-.11 4-.1 8.85-.1 8.85.04 8.85.1M206.07 411c0 .06-4 .1-8.85.1s-8.85 0-8.85-.1 4-.11 8.85-.11 8.85.11 8.85.11" style="fill:#e0e0e0"/><path d="M190.51 415.8h18.27v34.62h-18.27z" style="fill:#ebebeb"/><path d="M104.74 414.58h85.77v37.54h-85.77z" style="fill:#efff00"/><path d="M210.22 452.12h-22.05v-2.43h22.05a1.21 1.21 0 0 1 1.21 1.21 1.22 1.22 0 0 1-1.21 1.22M188.17 414.58h22.16a1.1 1.1 0 0 1 1.1 1.1v.23a1.1 1.1 0 0 1-1.1 1.1h-22.16z" style="fill:#efff00"/><path d="M208.79 420.44c0 .06-4.09.1-9.14.1s-9.14 0-9.14-.1 4.09-.11 9.14-.11 9.14.05 9.14.11M208.79 424.88c0 .06-4.09.1-9.14.1s-9.14 0-9.14-.1 4.09-.11 9.14-.11 9.14.05 9.14.11M208.79 429.32c0 .06-4.09.1-9.14.1s-9.14 0-9.14-.1 4.09-.11 9.14-.11 9.14.05 9.14.11M208.79 433.76c0 .06-4.09.1-9.14.1s-9.14 0-9.14-.1 4.09-.11 9.14-.11 9.14.05 9.14.11M208.79 438.2c0 .06-4.09.1-9.14.1s-9.14 0-9.14-.1 4.09-.1 9.14-.1 9.14.04 9.14.1M208.79 442.64c0 .06-4.09.11-9.14.11s-9.14-.05-9.14-.11 4.09-.1 9.14-.1 9.14.04 9.14.1M208.79 447.08c0 .06-4.09.11-9.14.11s-9.14-.05-9.14-.11 4.09-.1 9.14-.1 9.14.02 9.14.1" style="fill:#e0e0e0"/><path d="M134.09 435.4v2.09c0 2.52-1.26 4-3.68 4s-3.69-1.44-3.69-4v-8.17c0-2.52 1.26-4 3.69-4s3.68 1.44 3.68 4v1.52h-2.34v-1.68c0-1.12-.49-1.55-1.28-1.55s-1.28.43-1.28 1.55v8.49c0 1.12.5 1.53 1.28 1.53s1.28-.41 1.28-1.53v-2.25ZM135.39 429.32c0-2.52 1.33-4 3.75-4s3.75 1.44 3.75 4v8.17c0 2.52-1.32 4-3.75 4s-3.75-1.44-3.75-4Zm2.47 8.33c0 1.12.5 1.55 1.28 1.55s1.28-.43 1.28-1.55v-8.49c0-1.12-.49-1.55-1.28-1.55s-1.28.43-1.28 1.55ZM144.49 425.54H147V439h4v2.25h-6.53ZM151.9 429.32c0-2.52 1.32-4 3.75-4s3.75 1.44 3.75 4v8.17c0 2.52-1.33 4-3.75 4s-3.75-1.44-3.75-4Zm2.47 8.33c0 1.12.49 1.55 1.28 1.55s1.28-.43 1.28-1.55v-8.49c0-1.12-.5-1.55-1.28-1.55s-1.28.43-1.28 1.55ZM163.35 425.54v12.13c0 1.13.49 1.53 1.28 1.53s1.28-.4 1.28-1.53v-12.13h2.34v12c0 2.52-1.26 4-3.69 4s-3.68-1.44-3.68-4v-12ZM175.09 441.27a5 5 0 0 1-.22-1.94v-2.47c0-1.46-.49-2-1.62-2h-.85v6.41h-2.47v-15.73h3.73c2.56 0 3.66 1.19 3.66 3.62v1.23c0 1.62-.52 2.68-1.62 3.19 1.24.52 1.64 1.71 1.64 3.35v2.43a4.6 4.6 0 0 0 .27 1.91Zm-2.69-13.48v4.83h1c.92 0 1.48-.41 1.48-1.66v-1.55c0-1.13-.38-1.62-1.26-1.62Z" style="fill:#ebebeb"/><path d="M133.56 406.27h-1.81l.1-.46H136l-.1.46h-1.79l-.93 4.64h-.53ZM139.45 407.08l-2.8 4.33c-.47.73-.83.95-1.38.95a1.23 1.23 0 0 1-.91-.34l.27-.38a.9.9 0 0 0 .68.28c.33 0 .59-.15.88-.62l.27-.41-1-3.81h.54l.8 3.26 2.09-3.26ZM143.72 408.67a2.16 2.16 0 0 1-2.17 2.28 1.44 1.44 0 0 1-1.46-.84l-.44 2.22h-.52l1-5.25h.5l-.12.61a1.92 1.92 0 0 1 1.49-.64 1.55 1.55 0 0 1 1.72 1.62m-.53 0a1.12 1.12 0 0 0-1.26-1.2 1.67 1.67 0 0 0-1.65 1.8 1.12 1.12 0 0 0 1.26 1.19 1.67 1.67 0 0 0 1.65-1.76ZM144.32 409.32a2.18 2.18 0 0 1 2.22-2.27 1.57 1.57 0 0 1 1.74 1.62 2.17 2.17 0 0 1-2.21 2.28 1.58 1.58 0 0 1-1.75-1.63m3.45-.62a1.13 1.13 0 0 0-1.27-1.2 1.69 1.69 0 0 0-1.66 1.8 1.12 1.12 0 0 0 1.26 1.19 1.68 1.68 0 0 0 1.67-1.79M153.25 407.08l-.67 3.37a2 2 0 0 1-2.24 1.91 2.42 2.42 0 0 1-1.7-.57l.3-.4a2 2 0 0 0 1.44.52 1.5 1.5 0 0 0 1.66-1.38l.09-.42a2 2 0 0 1-1.53.66 1.52 1.52 0 0 1-1.69-1.55 2.12 2.12 0 0 1 2.19-2.17 1.47 1.47 0 0 1 1.49.87l.16-.84Zm-.88 1.54c0-.7-.47-1.12-1.27-1.12a1.63 1.63 0 0 0-1.67 1.69c0 .7.47 1.12 1.27 1.12a1.63 1.63 0 0 0 1.67-1.69M156.63 407.05l-.1.5h-.14a1.51 1.51 0 0 0-1.55 1.43l-.39 1.94h-.52l.76-3.83h.5l-.14.7a1.73 1.73 0 0 1 1.58-.74M161 407.08l-.77 3.83h-.5l.13-.6a2 2 0 0 1-1.5.64 1.55 1.55 0 0 1-1.67-1.63 2.16 2.16 0 0 1 2.17-2.27 1.45 1.45 0 0 1 1.46.83l.16-.8Zm-.86 1.62a1.13 1.13 0 0 0-1.27-1.2 1.69 1.69 0 0 0-1.66 1.8 1.12 1.12 0 0 0 1.26 1.19 1.68 1.68 0 0 0 1.7-1.79ZM166 408.67a2.16 2.16 0 0 1-2.18 2.28 1.44 1.44 0 0 1-1.46-.84l-.43 2.22h-.52l1-5.25h.5l-.13.61a2 2 0 0 1 1.5-.64 1.55 1.55 0 0 1 1.72 1.62m-.53 0a1.12 1.12 0 0 0-1.26-1.2 1.67 1.67 0 0 0-1.66 1.8 1.12 1.12 0 0 0 1.26 1.19 1.67 1.67 0 0 0 1.67-1.76ZM170.65 408.3a3 3 0 0 1 0 .43l-.44 2.18h-.52l.44-2.19a2 2 0 0 0 0-.34c0-.55-.32-.87-1-.87a1.5 1.5 0 0 0-1.56 1.35l-.41 2.05h-.52l1.08-5.41h.52l-.43 2.15a1.9 1.9 0 0 1 1.47-.6 1.2 1.2 0 0 1 1.37 1.25M175.5 407.08l-2.8 4.33c-.48.73-.84.95-1.39.95a1.23 1.23 0 0 1-.91-.34l.28-.38a.85.85 0 0 0 .67.28c.33 0 .59-.15.89-.62l.27-.41-1-3.81h.53l.79 3.26 2.09-3.26Z" style="fill:#263238"/><path d="m126.03 414.58-11.81 37.54h-9.48v-37.54z" style="opacity:.30000000000000004"/><path d="M152.15 359.36c-5.55-3.22-8.53-10.71-8.75-16.85s2.33-12.53 7.36-16.05a16.86 16.86 0 0 1 18.29-.15 19 19 0 0 1 8.39 16.53 21.89 21.89 0 0 1-9 16.46" style="fill:#efff00"/><path d="M161 360a8 8 0 0 1-.1-1.41c0-1-.06-2.28-.11-3.82-.08-3.23-.21-7.69-.42-12.62s-.49-9.38-.69-12.6c-.09-1.54-.17-2.82-.23-3.82a9 9 0 0 1 0-1.41 6.6 6.6 0 0 1 .23 1.39c.11.9.24 2.2.39 3.81.3 3.22.62 7.68.84 12.61s.28 9.4.27 12.63c0 1.62 0 2.93-.06 3.83A7 7 0 0 1 161 360" style="fill:#fff"/><path d="M145.05 341.12c0 .15-.9.19-2 .1s-1.95-.28-1.94-.42.9-.19 2-.1 1.95.3 1.94.42M145.35 335.62c-.06.13-.82-.08-1.71-.47s-1.55-.82-1.49-.95.82.08 1.7.47 1.56.82 1.5.95M148.18 331.53c-.07.12-.93-.28-1.83-1S144.9 329 145 328.9s.82.49 1.69 1.21 1.57 1.3 1.49 1.42M151 327.68c-.13.06-.54-.59-.92-1.44s-.58-1.59-.44-1.65.54.59.92 1.44.6 1.59.44 1.65M155.5 324.94c-.13.06-.57-.62-.87-1.57s-.32-1.77-.18-1.79.39.72.68 1.63.5 1.67.37 1.73M163 321.86c.14.05.06.63-.18 1.31s-.54 1.18-.68 1.13-.05-.63.19-1.31.49-1.18.67-1.13M168.49 324.23c.09.11-.26.6-.8 1.09s-1.05.81-1.14.71.25-.59.79-1.09 1.05-.81 1.15-.71M173.35 327.38c.09.12-.35.55-1 1s-1.18.65-1.26.54.35-.56 1-1 1.18-.66 1.26-.54M176.81 332.07c.06.13-.62.55-1.52.93s-1.67.59-1.73.45.63-.55 1.52-.93 1.68-.59 1.73-.45M178.17 337.18c0 .14-.67.35-1.55.45s-1.59.08-1.61-.06.68-.34 1.55-.45 1.6-.12 1.61.06M178.88 343.47c-.06.14-.79-.06-1.65-.43s-1.5-.78-1.44-.91.79.06 1.65.43 1.5.78 1.44.91M178.26 348.87c0 .14-1-.09-2-.73s-1.56-1.4-1.46-1.5.82.47 1.75 1.07 1.76 1.03 1.71 1.16M175.45 353.79c-.09.11-.83-.32-1.55-1.09s-1.09-1.55-1-1.62.68.53 1.36 1.26 1.28 1.34 1.19 1.45M148.74 354.37c.07.13-.71.67-1.74 1.2s-1.92.87-2 .74.72-.66 1.75-1.2 1.93-.87 1.99-.74M146.3 349.92c.06.13-.56.55-1.39.92s-1.56.58-1.62.45.57-.54 1.4-.92 1.56-.58 1.61-.45M144.51 346c0 .15-.75.37-1.72.51s-1.78.13-1.8 0 .76-.37 1.73-.51 1.77-.16 1.79 0M150.39 343.81c.05.14-.71.49-1.71.6s-1.81-.06-1.8-.2.79-.21 1.74-.32 1.73-.22 1.77-.08M155.28 339c0 .14-.56.44-1.37.52s-1.45-.1-1.43-.24.63-.21 1.38-.28 1.38-.19 1.42 0M156.21 335.06c-.05.13-.69 0-1.45-.23s-1.32-.58-1.27-.71.69 0 1.44.22 1.33.58 1.28.72M158 331.12c-.1.1-.54-.19-.86-.75s-.35-1.08-.21-1.12.38.37.66.86.52.89.41 1.01M155.84 347.24c0 .14-.52.4-1.25.58a5 5 0 0 1-1.05.15l-.11-.3h.34c.03 0-.05.15-.21.26l-.1-.3a4.5 4.5 0 0 1 1-.35c.73-.15 1.35-.18 1.38-.04M156.85 354.15c.05.13-.66.54-1.6.9s-1.73.56-1.79.43.67-.54 1.6-.91 1.74-.57 1.79-.42M151.33 351.08c0 .13-.43.42-1.06.64s-1.19.28-1.24.14.43-.42 1.07-.64 1.18-.28 1.23-.14M151.75 337c0 .13-.86.05-1.82-.29s-1.66-.8-1.6-.93.84.11 1.77.44 1.69.66 1.65.78M165.11 335.5c.08.12-.39.57-1.05 1s-1.25.68-1.33.56.39-.56 1.05-1 1.22-.68 1.33-.56M165.83 342.43c0 .14-.46.36-1.09.49s-1.18.13-1.21 0 .46-.36 1.1-.5 1.18-.13 1.2.01M166.68 350.23c-.06.13-.77-.07-1.58-.45s-1.43-.79-1.36-.92.76.07 1.58.45 1.42.79 1.36.92M164.89 357.82c-.11.09-.57-.29-1-.84s-.74-1.08-.63-1.17.57.28 1 .84.74 1.07.63 1.17M164.53 330.39c.08.11-.22.5-.74.76s-1 .27-1 .14.34-.37.81-.61.84-.4.93-.29M171.07 337.39c.05.13-.56.46-1.38.58s-1.51 0-1.5-.18.65-.23 1.42-.34 1.39-.2 1.46-.06M169.77 331.11c.06.12-.54.55-1.39.83s-1.6.27-1.62.13.64-.37 1.46-.63 1.48-.44 1.55-.33M172.5 347.11a6.32 6.32 0 0 1-4.39-.8 7.1 7.1 0 0 1 2.21.29 6.9 6.9 0 0 1 2.18.51M170.07 356.23c-.09.11-.85-.34-1.6-1.1s-1.2-1.52-1.09-1.6.73.5 1.46 1.23 1.32 1.35 1.23 1.47" style="fill:#263238"/><path d="M159.37 323.69a23.4 23.4 0 0 0-4.56 3.61 22.28 22.28 0 0 0-5.69 12.57 28.2 28.2 0 0 0 .35 7.7 57 57 0 0 0 1.44 6.18c.5 1.74 1 3.13 1.27 4.1a9.5 9.5 0 0 1 .43 1.51 8.6 8.6 0 0 1-.63-1.44c-.36-.95-.88-2.33-1.42-4.07a52 52 0 0 1-1.57-6.2 28 28 0 0 1-.38-7.85 21.93 21.93 0 0 1 5.93-12.8 16.2 16.2 0 0 1 3.41-2.66 11 11 0 0 1 1-.54c.29-.08.42-.13.42-.11" style="fill:#fff"/><path d="M166.48 359.7a60 60 0 0 0 2.34-5.59 31.8 31.8 0 0 0 1.4-14.39 27.3 27.3 0 0 0-2.22-7.66 18.2 18.2 0 0 0-3.78-5.27 13.8 13.8 0 0 0-3.71-2.34c-1-.4-1.54-.5-1.53-.54a1.2 1.2 0 0 1 .43 0 8 8 0 0 1 1.18.32 12.9 12.9 0 0 1 3.87 2.25 17.8 17.8 0 0 1 4 5.34 26.6 26.6 0 0 1 2.3 7.8 30.55 30.55 0 0 1-1.57 14.58c-.29.9-.67 1.67-.95 2.36s-.61 1.26-.87 1.72a10.7 10.7 0 0 1-.89 1.42" style="fill:#fff"/><path d="M146.31 358.47h28.7l.18 5.74h-28.88z" style="fill:#263238"/><path d="m148.74 361.34 1.65 17.54h20.99l1.68-17.35z" style="fill:#263238"/><path d="M175.19 364.28c0 .15-6.47.26-14.44.26s-14.44-.11-14.44-.26 6.46-.26 14.44-.26 14.44.12 14.44.26M172.27 369.62a4.4 4.4 0 0 1-.62 1.1 15.7 15.7 0 0 1-2.22 2.63l-.13.13-.13-.14a42.4 42.4 0 0 0-5.63-4.93h.32l-2.5 2.19-2.94 2.57-.17.14-.16-.14-4.79-4h.27c-1 1.21-1.82 2.22-2.47 3a7 7 0 0 1-1 1.06 7.7 7.7 0 0 1 .8-1.2l2.35-3.13.12-.16.16.13 4.86 3.94h-.33l2.94-2.61 2.5-2.18.16-.14.16.12a37.3 37.3 0 0 1 5.6 5.09h-.26a29 29 0 0 0 3.11-3.47" style="fill:#455a64"/><path d="M548.65 357.13h99.86v72.92h-99.86z" style="fill:#fff"/><path d="M548.65 357.13h99.86v9.11h-99.86z" style="fill:#efff00"/><path d="M554.07 362a1 1 0 1 1-1-1.14 1.09 1.09 0 0 1 1 1.14M558.3 362a1 1 0 1 1-1-1.14 1.1 1.1 0 0 1 1 1.14M562.52 362a1 1 0 1 1-1-1.14 1.09 1.09 0 0 1 1 1.14" style="fill:#fff"/><path d="M558.15 375.17h14.23v35.8h-14.23z" style="fill:#efff00"/><path d="M580.09 375.17h14.23v35.8h-14.23z" style="fill:#ebebeb"/><path d="M602.03 375.17h14.23v35.8h-14.23z" style="fill:#fafafa"/><path d="M623.98 375.46h14.23v35.8h-14.23z" style="fill:#e0e0e0"/><path d="M556.5 414.93h86.26v8.18H556.5z" style="fill:#efff00"/><path d="m636.19 421.43 1.86 9.85 1.52-2.75 3.28 4.91 1.64-1.1-3.28-4.91 3.01-.46z" style="fill:#263238"/><path d="M648.51 430.05v-5.21c0-3.4 0-8.37-.05-14.72 0-12.7-.06-30.91-.1-53l.19.19H548.7l.23-.23V430l-.21-.2 72 .1 20.49.05h6.88-6.79l-20.45.06-72.16.1h-.2v-73.36h.24l99.85.05h.18v.18c0 22.13-.07 40.38-.09 53.1 0 6.34 0 11.3-.05 14.68v3.84c0 .84-.11 1.45-.11 1.45" style="fill:#263238"/><path d="M657.18 262.15c0 .35-25.66.63-57.3.63s-57.32-.28-57.32-.63 25.66-.63 57.32-.63 57.3.28 57.3.63" style="fill:#efff00"/><path d="M598.56 259.7h6.77v6.77h-6.77zM658.47 262.15a2 2 0 1 1-2-2 2 2 0 0 1 2 2" style="fill:#efff00"/><circle cx="542.56" cy="262.15" r="2.01" style="fill:#efff00"/><path d="m592.23 243.61 8.57 16h1.1l-.3-12.82a1.42 1.42 0 1 1 1.67-1.42 1.41 1.41 0 0 1-1.13 1.4l.3 12.82h1l8.09-16.74c-6.22-.2-7-6.15-7-6.15l-6 .09c.18 5.97-6.3 6.82-6.3 6.82M648.46 318.29a2.2 2.2 0 0 1 0-.42v-1.22c0-1.08-.1-2.66-.25-4.7A72.5 72.5 0 0 0 645 295a50.4 50.4 0 0 0-4.91-10.82A38.8 38.8 0 0 0 625 269.87a45 45 0 0 0-7.09-3 54 54 0 0 0-7.77-1.79 69 69 0 0 0-8.2-.68c-11.09-.42-21.77 2.93-29.41 8.76a38.8 38.8 0 0 0-9.25 9.95 46.1 46.1 0 0 0-5.13 10.71c-.33.85-.54 1.71-.78 2.55s-.48 1.64-.67 2.44c-.31 1.61-.7 3.12-.91 4.55s-.42 2.77-.58 4-.2 2.37-.29 3.39-.14 1.92-.16 2.71-.06 1.44-.08 2 0 .93-.06 1.23a2 2 0 0 1 0 .41 2 2 0 0 1 0-.41v-3.23c0-.79 0-1.7.11-2.72s.17-2.16.26-3.4.34-2.57.53-4 .57-2.95.88-4.58c.18-.8.43-1.61.65-2.46s.44-1.71.77-2.57a46.4 46.4 0 0 1 5.12-10.83 39.1 39.1 0 0 1 9.32-10.09c7.73-5.92 18.51-9.32 29.72-8.9a68 68 0 0 1 8.26.69 53 53 0 0 1 7.85 1.82 46 46 0 0 1 7.17 3 41 41 0 0 1 6.21 4.13 40.1 40.1 0 0 1 9 10.39 49.8 49.8 0 0 1 4.9 10.94 70.8 70.8 0 0 1 3 17.05c.11 2 .15 3.63.14 4.71v1.22a2 2 0 0 1-.05.43" style="fill:#efff00"/><path d="M518.08 134.81h4.36v6.8h-4.36z" style="fill:#263238" transform="rotate(-40.7 520.2 138.213)"/><path d="m522.8 134.23-6.8 5.86-4.78-5.56a17.06 17.06 0 0 1 6.81-5.86Z" style="fill:#455a64"/><path d="M517.13 139.11a14.2 14.2 0 0 1-2.7-2.72 14.7 14.7 0 0 1-2.32-3 14.5 14.5 0 0 1 2.71 2.71 14 14 0 0 1 2.31 3.01M518.43 138a15.5 15.5 0 0 1-2.68-2.86 21.3 21.3 0 0 1-2.33-3.15c.14-.13 1.36 1.15 2.73 2.81a14.5 14.5 0 0 1 2.28 3.2M520.15 136.5a15.4 15.4 0 0 1-2.68-2.9 18 18 0 0 1-2.32-3.21 13.4 13.4 0 0 1 2.72 2.88 14.4 14.4 0 0 1 2.28 3.23M521.73 135.11a14.7 14.7 0 0 1-2.69-2.75 14.6 14.6 0 0 1-2.29-3.08 14.3 14.3 0 0 1 2.69 2.75 14.6 14.6 0 0 1 2.29 3.08" style="fill:#263238"/><path d="M572.13 135.53h4.36v6.8h-4.36z" style="fill:#263238" transform="rotate(46.3 574.324 138.936)"/><path d="m578.42 141.25-6.2-6.49 5.3-5.07a17.2 17.2 0 0 1 6.21 6.5Z" style="fill:#455a64"/><path d="M573.26 135.85a28 28 0 0 1 5.49-5.31 14.6 14.6 0 0 1-2.56 2.84 14.4 14.4 0 0 1-2.93 2.47M574.44 137.09a15.2 15.2 0 0 1 2.72-2.83 21.3 21.3 0 0 1 3-2.49c.14.13-1.07 1.42-2.67 2.88a14.6 14.6 0 0 1-3.05 2.44M576 138.73a15.6 15.6 0 0 1 2.76-2.84 18.6 18.6 0 0 1 3.08-2.48c.12.12-1.11 1.41-2.73 2.87a15.2 15.2 0 0 1-3.11 2.45M577.49 140.23a28.6 28.6 0 0 1 5.56-5.27 14 14 0 0 1-2.6 2.82 14.1 14.1 0 0 1-2.96 2.45M545.32 123.1h5.16v8.05h-5.16z" style="fill:#263238"/><path d="M553.25 125.51h-10.63v-8.68a20.37 20.37 0 0 1 10.63 0Z" style="fill:#efff00"/><path d="M553.37 116.87a11.51 11.51 0 0 1-10.8 0 18.1 18.1 0 0 0 10.8 0" style="fill:#263238"/><path d="M546.13 125.49a13.7 13.7 0 0 1-.26-3.72 13.8 13.8 0 0 1 .26-3.73 13.8 13.8 0 0 1 .26 3.73 13.7 13.7 0 0 1-.26 3.72M548.15 125.54a13.8 13.8 0 0 1-.26-3.74 13.9 13.9 0 0 1 .26-3.74 13.4 13.4 0 0 1 .26 3.74 13.4 13.4 0 0 1-.26 3.74M550.18 125.51a13.4 13.4 0 0 1-.26-3.74 13.4 13.4 0 0 1 .26-3.74 13.8 13.8 0 0 1 .26 3.74 13.9 13.9 0 0 1-.26 3.74M551.86 125.51a16.1 16.1 0 0 1-.26-4 16.2 16.2 0 0 1 .26-4 16.2 16.2 0 0 1 .26 4 16.1 16.1 0 0 1-.26 4M544.22 125.45a15.5 15.5 0 0 1-.26-4 15.6 15.6 0 0 1 .26-4 16.1 16.1 0 0 1 .26 4 16 16 0 0 1-.26 4" style="fill:#263238"/><circle cx="547.28" cy="166.22" r="37.55" style="fill:#efff00"/><circle cx="547.28" cy="165.92" r="31.53" style="fill:#fafafa" transform="rotate(-45 547.277 165.92)"/><path d="M578.81 165.92a5 5 0 0 1 0-.51c0-.36-.06-.86-.1-1.5 0-.33 0-.7-.07-1.1s-.13-.84-.2-1.32a23.4 23.4 0 0 0-.66-3.25 30.2 30.2 0 0 0-3.5-8.35 31.5 31.5 0 0 0-21.17-14.73 29 29 0 0 0-4-.46c-.68 0-1.36-.09-2-.08l-2.08.11c-.34 0-.69 0-1 .07l-1.05.16c-.69.11-1.4.2-2.1.34a34 34 0 0 0-4.17 1.23 32 32 0 0 0-4.08 1.79c-.66.36-1.3.78-1.95 1.17a15 15 0 0 0-1.89 1.3 28.2 28.2 0 0 0-6.61 6.64 30.2 30.2 0 0 0-4.47 8.62 30.94 30.94 0 0 0 0 19.73 30.2 30.2 0 0 0 4.48 8.62 33.6 33.6 0 0 0 3.06 3.63 36 36 0 0 0 3.55 3 15 15 0 0 0 1.89 1.3c.65.39 1.29.81 1.95 1.17a32 32 0 0 0 4.08 1.79 34 34 0 0 0 4.17 1.23c.7.14 1.41.22 2.11.34l1 .16c.35.05.7 0 1 .07l2.07.11c.68 0 1.36-.06 2-.08a30 30 0 0 0 4-.46A31.45 31.45 0 0 0 574.23 182a30.2 30.2 0 0 0 3.5-8.36 23.4 23.4 0 0 0 .66-3.25c.07-.47.16-.91.2-1.31s0-.77.07-1.11c0-.64.07-1.13.1-1.49a5 5 0 0 1 0-.51v3.12c0 .41-.12.84-.18 1.32a23 23 0 0 1-.62 3.28 29.7 29.7 0 0 1-3.44 8.45 31.7 31.7 0 0 1-21.34 15 29 29 0 0 1-4 .47c-.68 0-1.37.1-2.07.09l-2.1-.11c-.35 0-.71 0-1.06-.06l-1.06-.16c-.71-.12-1.43-.2-2.14-.34a35 35 0 0 1-4.24-1.24 33 33 0 0 1-4.21-1.79c-.67-.37-1.31-.79-2-1.18a19 19 0 0 1-1.92-1.32 29.1 29.1 0 0 1-6.73-6.74 31.2 31.2 0 0 1-4.55-8.76 31.43 31.43 0 0 1 0-20.07 30.5 30.5 0 0 1 4.55-8.75 29.3 29.3 0 0 1 6.72-6.74 17 17 0 0 1 1.92-1.32c.67-.39 1.31-.82 2-1.18a32 32 0 0 1 4.14-1.81 33 33 0 0 1 4.24-1.24c.71-.14 1.43-.23 2.14-.34l1.06-.16c.35-.05.71 0 1.06-.07l2.1-.1c.7 0 1.39.06 2.07.08a31 31 0 0 1 4 .48 31.74 31.74 0 0 1 21.34 15 30 30 0 0 1 3.44 8.45 23.4 23.4 0 0 1 .62 3.28c.06.48.14.92.18 1.33s0 .77 0 1.11v1.5c0 .36.13.47.13.47" style="fill:#263238"/><path d="M574.21 165.43c-2.88 0-5.22-.1-5.23-.31s2.32-.53 5.19-.69 5.21 0 5.22.3-2.31.65-5.18.7M566.77 184.5c-2.08-2-3.64-3.73-3.5-3.89s2 1.26 4.18 3.16 3.72 3.64 3.49 3.89-2.1-1.17-4.17-3.16M548.07 192.84c-.08-2.88 0-5.21.25-5.22s.55 2.3.75 5.17.08 5.22-.25 5.23-.68-2.31-.75-5.18M528.91 185.62c2-2.1 3.69-3.69 3.85-3.55s-1.23 2-3.11 4.21-3.6 3.77-3.85 3.54 1.14-2.11 3.11-4.2M520.37 167c2.87-.11 5.21 0 5.22.19s-2.3.57-5.17.8-5.2.15-5.23-.19 2.3-.69 5.18-.8M527.38 147.77c2.12 1.94 3.72 3.65 3.58 3.81s-2-1.21-4.24-3.06-3.81-3.56-3.58-3.81 2.12 1.11 4.24 3.06M545.89 139c.14 2.87.08 5.21-.13 5.23s-.6-2.29-.86-5.16-.2-5.21.13-5.23.73 2.31.86 5.16M565.21 145.82c-1.92 2.14-3.61 3.77-3.78 3.63s1.19-2.06 3-4.28 3.52-3.84 3.77-3.62-1.07 2.13-2.99 4.27M574.16 164.24c-2.87.17-5.22.13-5.23-.08s2.29-.62 5.15-.92 5.2-.25 5.23.08-2.31.75-5.15.92" style="fill:#263238"/><path d="M535 131.8a14 14 0 0 1-1.63.74 36.49 36.49 0 0 0-21.82 27.81 39 39 0 0 0-.5 4.84A14 14 0 0 1 511 167a1.5 1.5 0 0 1-.06-.47c0-.3-.06-.75-.05-1.33a33 33 0 0 1 .33-4.88 35.33 35.33 0 0 1 17.68-25.86 31.5 31.5 0 0 1 4.43-2.09c.54-.22 1-.34 1.26-.43a1.7 1.7 0 0 1 .41-.14M545.51 129.77a17.3 17.3 0 0 1-3.69.61 17.7 17.7 0 0 1-3.72.35 10.9 10.9 0 0 1 3.66-.86 11 11 0 0 1 3.75-.1" style="fill:#fff"/><path d="M522.07 184.87s16.34 25.79 41.7 12.58c26.45-13.78 11.84-45.39 11.84-45.39s12.45 25.19-13.35 41.61c-6.42 4.09-13.41 4.09-18.75 3.56-13.64-1.37-21.44-12.36-21.44-12.36" style="opacity:.4"/><path d="M556.07 149.16a111 111 0 0 1-.42 13.86 17.3 17.3 0 0 1-1 4.9 6.56 6.56 0 0 1-3.29 3.63 4.07 4.07 0 0 1-4.6-.9Z" style="fill:#e0e0e0"/><path d="m546.59 163.43 11.46-19.3-6.92 21.79-3.53 1.06z" style="fill:#efff00"/><path d="m558.05 144.13-8.5 19.72 1.58 2.07z" style="opacity:.4"/><path d="M551.29 167a3.69 3.69 0 1 1-3.69-3.69 3.69 3.69 0 0 1 3.69 3.69" style="fill:#fafafa"/><path d="M551.29 167s0-.33-.21-.88a3.75 3.75 0 0 0-1.36-1.91 3.47 3.47 0 1 0 0 5.57 3.75 3.75 0 0 0 1.36-1.91 8 8 0 0 1 .21-.87 1.9 1.9 0 0 1 0 .92 3.66 3.66 0 0 1-1.33 2.15 3.84 3.84 0 0 1-3.68.62 3.91 3.91 0 0 1 0-7.38 3.82 3.82 0 0 1 3.68.61 3.66 3.66 0 0 1 1.33 2.15 1.9 1.9 0 0 1 0 .93" style="fill:#263238"/><circle cx="547.6" cy="166.98" r="2.75" style="fill:#455a64"/><path d="M448 94.08a28 28 0 1 0-38.16 27.82c.21 3.3.45 7 .45 7l24.46-1.58s-.11-4-.28-7.49A28 28 0 0 0 448 94.08" style="fill:#efff00"/><path d="M425.9 127.81v-1.34c.05-.89.12-2.2.26-3.89s.34-3.76.72-6.14a41.4 41.4 0 0 1 2-7.93 27 27 0 0 1 2-4.32 5.2 5.2 0 0 1 1.8-1.84 2.9 2.9 0 0 1 2.66-.08 1.9 1.9 0 0 1 .95 1 1.94 1.94 0 0 1 0 1.44 4 4 0 0 1-2 2 7.65 7.65 0 0 1-5.83 0 7.75 7.75 0 0 1-4.24-4.4 5.9 5.9 0 0 1-.37-3.2 2.52 2.52 0 0 1 2.46-2.11 1.81 1.81 0 0 1 1.48.9 2.48 2.48 0 0 1 .34 1.7 5.47 5.47 0 0 1-1.78 2.9 8.35 8.35 0 0 1-6.38 2.31 7.26 7.26 0 0 1-5.66-3.68 4.2 4.2 0 0 1-.41-3.36 2.18 2.18 0 0 1 1.15-1.32 2.13 2.13 0 0 1 1.73 0 2.8 2.8 0 0 1 1.22 1.18 4.4 4.4 0 0 1 .53 1.58 7.9 7.9 0 0 1-.22 3.22 8.33 8.33 0 0 1-3.63 4.93 8.46 8.46 0 0 1-5.72 1.17 4.5 4.5 0 0 1-2.6-1.17 2.18 2.18 0 0 1-.33-2.68 1.87 1.87 0 0 1 1.22-.7 2.6 2.6 0 0 1 1.35.18 4 4 0 0 1 1.83 1.8c.8 1.47 1.45 2.9 2.12 4.27 2.59 5.48 4.47 10 5.74 13.15.63 1.58 1.11 2.8 1.42 3.64.16.4.27.72.36 1l.11.33s-.06-.11-.15-.32l-.38-.94c-.35-.84-.84-2.05-1.48-3.61-1.31-3.12-3.22-7.64-5.84-13.09-.67-1.36-1.34-2.81-2.13-4.24a3.78 3.78 0 0 0-1.71-1.69 1.9 1.9 0 0 0-2.23.44 1.87 1.87 0 0 0 .32 2.3 4.12 4.12 0 0 0 2.43 1.08 8.2 8.2 0 0 0 5.51-1.14 8.05 8.05 0 0 0 3.48-4.75 7.6 7.6 0 0 0 .2-3.08 3 3 0 0 0-1.59-2.47 1.77 1.77 0 0 0-1.46-.05 1.85 1.85 0 0 0-1 1.12 3.92 3.92 0 0 0 .39 3.09 6.92 6.92 0 0 0 5.39 3.5 8 8 0 0 0 6.11-2.22 5.12 5.12 0 0 0 1.68-2.7 2.23 2.23 0 0 0-.28-1.48 1.48 1.48 0 0 0-1.21-.73 2 2 0 0 0-1.36.54 2.36 2.36 0 0 0-.71 1.3 5.5 5.5 0 0 0 .35 3 7.39 7.39 0 0 0 9.63 4.28 3.7 3.7 0 0 0 1.89-1.83 1.65 1.65 0 0 0-.78-2.13 2.64 2.64 0 0 0-2.4.07 5 5 0 0 0-1.7 1.74 25.4 25.4 0 0 0-2 4.27 41.5 41.5 0 0 0-2.07 7.87c-.4 2.37-.62 4.43-.78 6.12s-.25 3-.32 3.89c0 .43-.07.77-.08 1s0 .32 0 .32M433.17 132l-21 1.35a1.58 1.58 0 0 1-1.68-1.47 1.59 1.59 0 0 1 1.48-1.68l21-1.36a1.59 1.59 0 0 1 1.68 1.48 1.58 1.58 0 0 1-1.48 1.68M433.26 133.38l-21 1.36a1.58 1.58 0 1 0 .2 3.15l2.31-.15 3.43 5.62a2 2 0 0 0 1.86 1l7.51-.48a2.05 2.05 0 0 0 1.73-1.22l2.59-6 1.57-.1a1.58 1.58 0 0 0-.2-3.15Z" style="fill:#263238"/><g style="opacity:.2"><path d="M401 79.26a20.5 20.5 0 0 1 5.35-4.07 15 15 0 0 1 4.22-1.53c1-.18 1.65-.11 1.72.11.15.49-1.91 1.38-4.64 3.47a23 23 0 0 0-9 23.21c.6 3.38 1.53 5.43 1.08 5.69-.2.12-.69-.24-1.34-1.08a14.9 14.9 0 0 1-2.09-4 20.4 20.4 0 0 1-1.2-6.61 21.9 21.9 0 0 1 1.43-8.19" style="fill:#fff"/></g><g style="opacity:.2"><path d="M419.11 74.54c-1.77.09-3.37-.29-3.61-1.21-.1-.46.19-1 .8-1.41a5.26 5.26 0 0 1 2.6-.81 5.15 5.15 0 0 1 2.68.5c.66.35 1 .83 1 1.3" style="fill:#fff"/></g><path d="M428.94 143.15a15 15 0 0 1-1.47-.35 12 12 0 0 0-3.6-.22 12.3 12.3 0 0 0-3.48.88 14 14 0 0 1-1.38.62 4.2 4.2 0 0 1 1.27-.84 10.3 10.3 0 0 1 3.56-1 10.4 10.4 0 0 1 3.68.32 4.6 4.6 0 0 1 1.42.59M431.94 136.7c0 .1-3.78.42-8.47.72s-8.48.47-8.48.38 3.78-.42 8.46-.72 8.49-.47 8.49-.38M430.79 139.28a13 13 0 0 1-2.06.34c-1.27.17-3 .35-5 .51s-3.73.24-5 .28a11 11 0 0 1-2.08 0 15 15 0 0 1 2.07-.22l5-.38 5-.41a13 13 0 0 1 2.07-.12" style="fill:#455a64"/><path d="M221.2 102.74h41.55v51.97H221.2z" style="fill:#ebebeb" transform="rotate(-82.33 241.975 128.731)"/><path d="M270.5 111.61h-.25l-.72-.09-2.81-.36-10.55-1.38-37.17-4.97.16-.12c-1.65 12.26-3.54 26.31-5.53 41.18l-.13-.17 51.5 7-.14.11c1.7-12.39 3.1-22.67 4.09-29.86.49-3.59.89-6.41 1.15-8.34.14-1 .24-1.69.31-2.2l.12-.76s0 .25-.09.74-.15 1.23-.27 2.18c-.26 1.92-.62 4.74-1.09 8.32-1 7.21-2.32 17.52-4 30v.12h-.12L213.43 146h-.15v-.15c2-14.87 3.9-28.92 5.56-41.18v-.13h.13l37.27 5.09 10.51 1.45 2.77.39.71.1Z" style="fill:#263238"/><path d="M223.78 104.57h36.32v48.32h-36.32z" style="fill:#efff00" transform="rotate(-82.33 241.942 128.723)"/><path d="m215.57 143.5 19.74-20.12 8.48 15.39 8.03-6.54 11.64 17.72zM250.44 122.62a3.8 3.8 0 1 1-3.26-4.27 3.81 3.81 0 0 1 3.26 4.27" style="fill:#efff00"/><path d="m215.57 143.5 19.74-20.12 8.48 15.39 8.03-6.54 11.64 17.72zM250.44 122.62a3.8 3.8 0 1 1-3.26-4.27 3.81 3.81 0 0 1 3.26 4.27" style="opacity:.2"/><path d="M258.08 67.35h62.79v78.53h-62.79z" style="fill:#ebebeb" transform="rotate(-81.51 289.45 106.624)"/><path d="m332.94 81.37-.38-.05-1.09-.15-4.22-.61-15.91-2.32-56.1-8.24.23-.18c-2.75 18.49-5.91 39.68-9.25 62.1l-.19-.25 77.66 11.63-.21.16c2.83-18.69 5.18-34.18 6.82-45 .83-5.42 1.49-9.67 1.93-12.58.23-1.44.4-2.55.52-3.32s.19-1.14.19-1.14 0 .37-.14 1.11-.27 1.86-.47 3.29c-.43 2.9-1 7.14-1.83 12.55l-6.65 45.17v.19h-.19L246 132.09h-.22v-.22c3.36-22.42 6.53-43.6 9.3-62.09v-.2h.2l56.2 8.5 15.85 2.42 4.17.65 1.07.17Z" style="fill:#263238"/><path d="M261.98 70.1h54.88v73.02h-54.88z" style="fill:#efff00" transform="rotate(-81.51 289.4 106.612)"/><path d="m249.26 128.35 30.26-29.97 12.47 23.44 12.28-9.7 17.2 27.02zM302.39 97.57a5.75 5.75 0 1 1-4.83-6.57 5.75 5.75 0 0 1 4.83 6.57" style="fill:#efff00"/><path d="m249.26 128.35 30.26-29.97 12.47 23.44 12.28-9.7 17.2 27.02zM302.39 97.57a5.75 5.75 0 1 1-4.83-6.57 5.75 5.75 0 0 1 4.83 6.57" style="opacity:.2"/><path d="m116.64 260.91 17.12 17.82a3 3 0 0 0 4.21.13l68.11-65.43a3 3 0 0 0 0-4.21L189 191.4a3 3 0 0 0-4.21-.13l-68.11 65.43a3 3 0 0 0-.04 4.21" style="fill:#f5f5f5"/><path d="M116.64 260.91a2.2 2.2 0 0 1-.42-.51 3 3 0 0 1-.47-1.88 2.9 2.9 0 0 1 .47-1.37 9.4 9.4 0 0 1 1.2-1.27l3.1-3 19.8-19.14 29.42-28.34 8.51-8.18 4.39-4.23c.76-.71 1.45-1.42 2.27-2.14a3.24 3.24 0 0 1 3.22-.35 4 4 0 0 1 1.32 1l1.09 1.14 2.2 2.29 4.46 4.63 9.1 9.48a3.29 3.29 0 0 1 .75 3.34 3.4 3.4 0 0 1-1 1.44l-1.18 1.18-4.71 4.52-9.16 8.8L173.55 245c-11.11 10.63-21.1 20.21-29.5 28.26l-6 5.73a3.12 3.12 0 0 1-3.73.36 7.5 7.5 0 0 1-1.36-1.26l-1.22-1.27-8.17-8.58-5.16-5.43c-.57-.62-1-1.09-1.33-1.42l-.44-.5s.17.15.48.46l1.37 1.39 5.22 5.36 8.24 8.52 1.22 1.26a7 7 0 0 0 1.31 1.2 2.78 2.78 0 0 0 3.34-.33l6-5.76 29.42-28.34L190.6 228l9.2-8.84 4.71-4.52 1.18-1.15a2.72 2.72 0 0 0 .23-4l-9.1-9.48-4.45-4.63-2.2-2.3-1.09-1.14a3.4 3.4 0 0 0-1.16-.89 2.72 2.72 0 0 0-2.7.28c-.74.64-1.49 1.41-2.23 2.11l-4.4 4.22-8.52 8.17L140.58 234l-19.92 19-3.13 3a9 9 0 0 0-1.2 1.23 2.94 2.94 0 0 0-.47 1.31 3 3 0 0 0 .4 1.84c.23.36.4.52.38.53" style="fill:#263238"/><path d="M179.98 196.13h17.26v25.17h-17.26z" style="fill:#efff00" transform="rotate(-44.22 188.58 208.7)"/><path d="M139.68 235.33h17.26v25.17h-17.26z" style="fill:#efff00" transform="rotate(-44.22 148.294 247.896)"/><path d="M153.13 222.25h17.26v25.17h-17.26z" style="fill:#efff00" transform="rotate(-44.22 161.738 234.818)"/><path d="M166.59 209.16h17.26v25.17h-17.26z" style="fill:#efff00" transform="rotate(-44.22 175.186 221.727)"/><path d="M179.98 196.13h17.26v25.17h-17.26z" style="opacity:.8" transform="rotate(-44.22 188.58 208.7)"/><path d="M139.68 235.33h17.26v25.17h-17.26z" style="opacity:.5" transform="rotate(-44.22 148.294 247.896)"/><path d="M153.13 222.25h17.26v25.17h-17.26z" style="opacity:.6000000000000001" transform="rotate(-44.22 161.738 234.818)"/><path d="M166.59 209.16h17.26v25.17h-17.26z" style="opacity:.7000000000000001" transform="rotate(-44.22 175.186 221.727)"/><path d="m117.79 257.86 12 21.63a3 3 0 0 0 4 1.23l81.47-45.05a3 3 0 0 0 1.08-4l-12-21.62a3 3 0 0 0-4-1.24l-81.48 45a3 3 0 0 0-1.07 4.05" style="fill:#f5f5f5"/><path d="M117.79 257.86a2.7 2.7 0 0 1-.28-.59 3 3 0 0 1 0-1.92 2.8 2.8 0 0 1 .78-1.2 8.6 8.6 0 0 1 1.46-.91l3.73-2.09 23.8-13.25 35.32-19.6 10.22-5.66 5.27-2.92 1.34-.74a7 7 0 0 1 1.43-.69 3.2 3.2 0 0 1 3.09.81 5.2 5.2 0 0 1 .91 1.35l.76 1.36c.5.92 1 1.83 1.52 2.75 1 1.84 2 3.7 3.08 5.57q3.09 5.61 6.29 11.37a3.32 3.32 0 0 1-.1 3.39 3.26 3.26 0 0 1-1.32 1.13l-1.42.79-5.67 3.12-11 6.07-20.88 11.53-35.39 19.5c-2.53 1.38-4.89 2.72-7.21 3.94a3.11 3.11 0 0 1-3.58-1c-.7-1.06-1.19-2.1-1.76-3.1-2.2-4-4.09-7.45-5.63-10.28s-2.73-5-3.54-6.5l-.91-1.7c-.21-.38-.3-.59-.3-.59s.13.19.34.56.55.95 1 1.68c.84 1.49 2.06 3.66 3.62 6.45l5.71 10.24c.57 1 1.11 2.07 1.75 3a2.8 2.8 0 0 0 3.21.88c2.25-1.21 4.66-2.58 7.16-4l35.33-19.6 20.88-11.56 11-6.11 5.65-3.12 1.42-.79a2.75 2.75 0 0 0 1.13-1 2.8 2.8 0 0 0 .08-2.85l-6.29-11.37-3.07-5.57-1.52-2.75-.76-1.36a5 5 0 0 0-.81-1.23 2.7 2.7 0 0 0-2.61-.69 7.6 7.6 0 0 0-1.32.64l-1.33.74-5.28 2.92-10.22 5.64-35.38 19.5-23.89 13.28-3.75 2a8.4 8.4 0 0 0-1.45.88 2.7 2.7 0 0 0-.77 1.13 3 3 0 0 0-.07 1.87c.13.45.25.65.23.65" style="fill:#263238"/><path d="M189.83 215.33h17.26v25.17h-17.26z" style="fill:#efff00" transform="rotate(-29.28 198.46 227.909)"/><path d="M140.8 242.82h17.26v25.17H140.8z" style="fill:#efff00" transform="rotate(-29.28 149.424 255.4)"/><path d="M157.16 233.65h17.26v25.17h-17.26z" style="fill:#efff00" transform="rotate(-29.28 165.782 246.24)"/><path d="M173.53 224.46h17.26v25.17h-17.26z" style="fill:#efff00" transform="rotate(-29.28 182.17 237.046)"/><path d="M189.83 215.33h17.26v25.17h-17.26z" style="opacity:.5" transform="rotate(-29.28 198.46 227.909)"/><path d="M140.8 242.82h17.26v25.17H140.8z" style="opacity:.2" transform="rotate(-29.28 149.424 255.4)"/><path d="M157.16 233.65h17.26v25.17h-17.26z" style="opacity:.30000000000000004" transform="rotate(-29.28 165.782 246.24)"/><path d="M173.53 224.46h17.26v25.17h-17.26z" style="opacity:.4" transform="rotate(-29.28 182.17 237.046)"/><path d="m114.79 257.67 5.28 24.14a3 3 0 0 0 3.62 2.29l95.55-20.88a3 3 0 0 0 2.33-3.6l-5.27-24.13a3 3 0 0 0-3.62-2.3l-95.55 20.89a3 3 0 0 0-2.34 3.59" style="fill:#f5f5f5"/><path d="M114.79 257.67a2.4 2.4 0 0 1-.09-.68 3 3 0 0 1 .65-1.88 3.2 3.2 0 0 1 1.18-.91 11.5 11.5 0 0 1 1.73-.45l4.33-1 27.63-6.12 41-9 11.85-2.6 6.12-1.34 3.11-.68a3.8 3.8 0 0 1 1.68-.09 3.3 3.3 0 0 1 1.55.76 3.2 3.2 0 0 1 1 1.44c.16.57.25 1.07.37 1.6.23 1.06.47 2.13.7 3.19q.71 3.21 1.41 6.46l2.88 13.18a3.27 3.27 0 0 1-1.21 3.29 3.76 3.76 0 0 1-1.65.7l-1.65.36-6.55 1.43-12.83 2.8-24.22 5.28-41 8.9-8.33 1.81c-.33.06-.65.15-1 .19a3.2 3.2 0 0 1-2.76-1.06 3.44 3.44 0 0 1-.79-1.75c-.12-.6-.25-1.19-.38-1.77-1-4.64-1.85-8.63-2.55-11.9s-1.23-5.79-1.6-7.53l-.4-2c-.1-.5-.12-.67-.12-.67s.07.22.17.66l.46 1.95c.39 1.73 1 4.26 1.69 7.5s1.61 7.26 2.64 11.89c.13.57.26 1.16.39 1.76a3.1 3.1 0 0 0 .72 1.61 2.87 2.87 0 0 0 1.56.9 4 4 0 0 0 1.9-.15l8.32-1.84 41-9 24.21-5.31 12.81-2.8 6.55-1.43 1.65-.36a3.1 3.1 0 0 0 1.45-.6 2.77 2.77 0 0 0 1-2.77q-1.47-6.68-2.88-13.18-.72-3.26-1.41-6.46c-.24-1.06-.47-2.13-.7-3.19-.12-.51-.22-1.08-.35-1.55a2.73 2.73 0 0 0-.81-1.22 2.88 2.88 0 0 0-2.79-.55l-3.1.67-6.12 1.34-11.85 2.58-41 8.9-27.66 6-4.35.92a13 13 0 0 0-1.71.42 3.1 3.1 0 0 0-1.15.86 3.05 3.05 0 0 0-.68 1.81c-.07.45 0 .68-.02.68" style="fill:#263238"/><path d="M114.59 257.77c0 .09-1.2 0-3.3.4a17.8 17.8 0 0 0-8 3.81 17.1 17.1 0 0 0-5.92 11.41 16.76 16.76 0 0 0 31.23 9.74 17.37 17.37 0 0 0 2.32-8.55v-1.42c0-.42-.08-.75-.11-1a2.8 2.8 0 0 1 0-.87 3.4 3.4 0 0 1 .24.84c.06.28.15.62.21 1s.09.9.14 1.44a17 17 0 0 1-2.09 8.92 17.3 17.3 0 0 1-10.57 8.4 17.44 17.44 0 0 1-16-3.42 18 18 0 0 1-3-3.27 17.54 17.54 0 0 1 3.22-23.79 17.34 17.34 0 0 1 8.42-3.64 15 15 0 0 1 2.5-.12 2.2 2.2 0 0 1 .71.12" style="fill:#263238"/><path d="M133.51 267.46a3.76 3.76 0 1 1-4.48-2.87 3.77 3.77 0 0 1 4.48 2.87" style="fill:#263238"/><path d="M199 237.97h17.26v25.17H199z" style="fill:#efff00" transform="rotate(-12.33 207.6 250.53)"/><path d="M180.75 241.96h17.26v25.17h-17.26z" style="fill:#efff00" transform="rotate(-12.33 189.329 254.503)"/><path d="M162.41 245.97h17.26v25.17h-17.26z" style="fill:#efff00" transform="rotate(-12.33 171.006 258.518)"/><path d="M144.08 249.97h17.26v25.17h-17.26z" style="fill:#efff00" transform="rotate(-12.33 152.689 262.487)"/><g style="opacity:.8"><path d="M144.08 249.97h17.26v25.17h-17.26z" style="fill:#fff" transform="rotate(-12.33 152.689 262.487)"/></g><g style="opacity:.6000000000000001"><path d="M162.41 245.97h17.26v25.17h-17.26z" style="fill:#fff" transform="rotate(-12.33 171.006 258.518)"/></g><g style="opacity:.4"><path d="M180.75 241.96h17.26v25.17h-17.26z" style="fill:#fff" transform="rotate(-12.33 189.329 254.503)"/></g><circle cx="274.16" cy="251.88" r="13.93" style="fill:#efff00" transform="rotate(-76.64 274.145 251.875)"/><path d="M274.16 234.46a38.5 38.5 0 0 1-.26-6.27 38.4 38.4 0 0 1 .26-6.26 38.4 38.4 0 0 1 .26 6.26 38.5 38.5 0 0 1-.26 6.27M273.45 284.33a53.5 53.5 0 0 1-.26-7.4 54 54 0 0 1 .26-7.4 54 54 0 0 1 .26 7.4 53.5 53.5 0 0 1-.26 7.4M253.11 252.1a46 46 0 0 1-9.77 0 46 46 0 0 1 9.77 0M305.15 250.25a35 35 0 0 1-6.08.26 35 35 0 0 1-6.07-.26 36 36 0 0 1 6.07-.26 36 36 0 0 1 6.08.26M294.85 235.46a32.4 32.4 0 0 1-5.81 5.81 15.7 15.7 0 0 1 2.72-3.09 16.6 16.6 0 0 1 3.09-2.72M293 269.53a11.7 11.7 0 0 1-2.69-2.32 12.5 12.5 0 0 1-2.33-2.69 12 12 0 0 1 2.69 2.32 12.5 12.5 0 0 1 2.33 2.69M260.78 264.53a15.8 15.8 0 0 1-2.72 3 15.5 15.5 0 0 1-3.09 2.58 15.7 15.7 0 0 1 2.73-3 15.3 15.3 0 0 1 3.08-2.58M261 238.93c-.14.07-1-1.27-2.29-2.63s-2.63-2.23-2.55-2.37a6.65 6.65 0 0 1 2.93 2 6.6 6.6 0 0 1 1.91 3M473.6 251.88a19.48 19.48 0 0 1 16.75-19.29 21 21 0 0 0-2.74-.19 19.48 19.48 0 0 0 0 39 21 21 0 0 0 2.74-.19 19.48 19.48 0 0 1-16.75-19.33M494.54 249.8l.52.87a6 6 0 0 0 2.47 2.28l.91.45-.87.52a5.94 5.94 0 0 0-2.27 2.47l-.46.92-.52-.88a6 6 0 0 0-2.47-2.27l-.91-.45.87-.53a5.9 5.9 0 0 0 2.27-2.47ZM456.68 261.13l.26.45a3.1 3.1 0 0 0 1.26 1.15l.46.23-.44.27a3 3 0 0 0-1.16 1.25l-.23.46-.26-.44a3 3 0 0 0-1.26-1.15l-.46-.23.44-.27a3 3 0 0 0 1.16-1.25ZM447.23 252.61l.14.22a1.55 1.55 0 0 0 .62.57l.23.11-.22.14a1.37 1.37 0 0 0-.57.62l-.12.23-.13-.22a1.4 1.4 0 0 0-.62-.57l-.23-.12.22-.13a1.6 1.6 0 0 0 .57-.62ZM512.45 263.27l.13.22a1.5 1.5 0 0 0 .62.58l.23.11-.22.13a1.5 1.5 0 0 0-.57.63l-.12.23-.13-.22a1.5 1.5 0 0 0-.62-.58l-.23-.11.22-.13a1.5 1.5 0 0 0 .57-.63ZM501.87 246.45l.14.22a1.4 1.4 0 0 0 .62.57l.23.12-.22.13a1.4 1.4 0 0 0-.57.62l-.12.23-.13-.22a1.55 1.55 0 0 0-.62-.57l-.23-.11.22-.14a1.55 1.55 0 0 0 .57-.62ZM283 241.32a6.3 6.3 0 0 1-1.12 2.26c-.74 1.16-1.43 2-1.56 2a6.35 6.35 0 0 1 1.12-2.25c.7-1.2 1.4-2.09 1.56-2.01M288.86 233.26c.12.09-.47 1.05-1.31 2.14s-1.62 1.91-1.73 1.83.47-1 1.31-2.14 1.62-1.92 1.73-1.83M295.47 225.77c.1.1-.57 1-1.5 2s-1.78 1.76-1.89 1.66.57-1 1.5-2 1.79-1.76 1.89-1.66M302.71 218.88c.09.11-.66 1-1.67 1.87s-1.93 1.6-2 1.49.65-.94 1.68-1.87 1.89-1.6 1.99-1.49M310.52 212.63c.08.12-.74.89-1.83 1.73a6.2 6.2 0 0 1-2.14 1.31c-.1-.11.72-.88 1.82-1.73s2.06-1.43 2.15-1.31M318.83 207.06c.07.13-.81.83-2 1.57a6.3 6.3 0 0 1-2.25 1.13c-.08-.12.8-.82 2-1.57a6.5 6.5 0 0 1 2.25-1.13M327.58 202.22c.07.13-.87.75-2.09 1.39a6.3 6.3 0 0 1-2.33.94c-.07-.13.86-.75 2.09-1.4a6.3 6.3 0 0 1 2.33-.93M336.72 198.13a6.2 6.2 0 0 1-2.21 1.21 6.3 6.3 0 0 1-2.4.74 6 6 0 0 1 2.2-1.21 6.3 6.3 0 0 1 2.41-.74M346.16 194.84a6.15 6.15 0 0 1-2.3 1 6.35 6.35 0 0 1-2.46.53 6 6 0 0 1 2.3-1 6.4 6.4 0 0 1 2.46-.53M355.85 192.39a11.9 11.9 0 0 1-4.87 1.12 6.2 6.2 0 0 1 2.37-.81 6.3 6.3 0 0 1 2.5-.31M365.72 190.82a6.3 6.3 0 0 1-2.44.59 6.05 6.05 0 0 1-2.52.08 6.4 6.4 0 0 1 2.44-.59 6.2 6.2 0 0 1 2.52-.08M375.69 190.16a6.3 6.3 0 0 1-2.49.35 6.7 6.7 0 0 1-2.5-.14 5.9 5.9 0 0 1 2.48-.38 6.3 6.3 0 0 1 2.51.17M385.69 190.43a6.4 6.4 0 0 1-2.51.13 6.5 6.5 0 0 1-2.49-.38 11.95 11.95 0 0 1 5 .25M395.61 191.6a6.3 6.3 0 0 1-2.51-.09 6.25 6.25 0 0 1-2.44-.61 6.3 6.3 0 0 1 2.51.09 6 6 0 0 1 2.44.61M405.39 193.63a6.1 6.1 0 0 1-2.49-.3 6.3 6.3 0 0 1-2.38-.82 6.3 6.3 0 0 1 2.5.31 6.2 6.2 0 0 1 2.37.81M415 196.51a6.4 6.4 0 0 1-2.46-.52 6.3 6.3 0 0 1-2.3-1 6.1 6.1 0 0 1 2.46.52 6.1 6.1 0 0 1 2.3 1M424.27 200.19a12.1 12.1 0 0 1-4.61-1.94 6.1 6.1 0 0 1 2.41.73 6 6 0 0 1 2.2 1.21M433.23 204.64a12.3 12.3 0 0 1-4.43-2.32 6.1 6.1 0 0 1 2.34.93c1.23.64 2.16 1.26 2.09 1.39M441.79 209.83a6.3 6.3 0 0 1-2.25-1.13c-1.17-.74-2.05-1.44-2-1.56a6.35 6.35 0 0 1 2.25 1.12c1.21.74 2.08 1.45 2 1.57M449.86 215.73a6.4 6.4 0 0 1-2.14-1.31c-1.1-.84-1.92-1.61-1.83-1.73A6.2 6.2 0 0 1 448 214c1.13.84 2 1.62 1.86 1.73M457.39 222.3c-.1.11-1-.56-2-1.49s-1.77-1.77-1.67-1.88 1 .56 2 1.5 1.77 1.77 1.67 1.87M464.3 229.52c-.11.1-.95-.65-1.88-1.67a6.3 6.3 0 0 1-1.5-2c.11-.1.95.65 1.88 1.67s1.61 1.91 1.5 2M469.61 236.1c-.12.09-.68-.46-1.26-1.21s-1-1.44-.85-1.53.68.45 1.26 1.21.96 1.43.85 1.53" style="fill:#efff00"/></svg>