<svg xmlns="http://www.w3.org/2000/svg" width="173" height="50" fill="none"><path fill="#FF5C35" d="M20.434 30.002a6.68 6.68 0 0 0 4.498 1.733c3.708 0 6.715-3.015 6.715-6.734s-3.007-6.735-6.715-6.735a6.68 6.68 0 0 0-4.593 1.823 6.69 6.69 0 0 1-4.515 1.749 6.68 6.68 0 0 1-4.591-1.82 6.68 6.68 0 0 0-4.518-1.752C3.007 18.266.001 21.283.001 25s3.006 6.734 6.714 6.734a6.68 6.68 0 0 0 4.613-1.84 6.67 6.67 0 0 1 4.496-1.733 6.68 6.68 0 0 1 4.61 1.84"/><path fill="#FF5C35" d="M24.93 0c-3.709 0-6.715 3.015-6.715 6.735s3.006 6.734 6.715 6.734c6.34 0 11.5 5.174 11.5 11.531s-5.16 11.531-11.5 11.531c-3.709 0-6.715 3.015-6.715 6.735 0 3.719 3.006 6.734 6.715 6.734 13.77 0 24.932-11.193 24.932-25S38.7 0 24.93 0M6.716 13.47c3.71 0 6.716-3.016 6.716-6.735S10.426 0 6.716 0 0 3.015 0 6.735s3.007 6.734 6.716 6.734"/><path fill="#121212" d="M148.918 40.689V8.64h13.918q3.021 0 5.265 1.053t3.479 2.975 1.236 4.533v.55q0 2.883-1.373 4.67-1.374 1.785-3.388 2.609v.824q1.831.091 2.839 1.282 1.007 1.144 1.007 3.067V40.69h-6.044v-9.615q0-1.098-.595-1.785-.55-.687-1.877-.687h-8.424v12.087zm6.043-17.581h7.234q2.151 0 3.342-1.145 1.236-1.189 1.236-3.113v-.458q0-1.923-1.19-3.067-1.19-1.19-3.388-1.19h-7.234zM130.431 41.33q-6.043 0-9.614-3.296-3.571-3.343-3.571-9.523v-7.692q0-6.18 3.571-9.477Q124.388 8 130.431 8t9.615 3.342q3.57 3.297 3.571 9.477v7.692q0 6.18-3.571 9.523-3.572 3.296-9.615 3.296m0-5.402q3.388 0 5.265-1.97 1.878-1.967 1.877-5.264v-8.058q0-3.296-1.877-5.265-1.876-1.969-5.265-1.969-3.342 0-5.265 1.97-1.877 1.967-1.877 5.264v8.058q0 3.297 1.877 5.265 1.923 1.969 5.265 1.969M87.032 40.689 95.456 8.64h10.53l8.425 32.048h-6.227l-1.74-7.05H94.999l-1.74 7.05zm9.386-12.636h8.607l-3.891-15.612h-.825zM72.59 41.33q-3.708 0-6.547-1.328t-4.44-3.8T60 30.251v-1.282h5.952v1.281q0 2.884 1.785 4.35 1.785 1.42 4.853 1.42 3.114 0 4.624-1.237 1.557-1.236 1.557-3.159 0-1.327-.778-2.152-.733-.825-2.198-1.328-1.419-.549-3.48-1.007l-1.052-.229q-3.296-.732-5.678-1.831-2.334-1.144-3.616-2.976-1.236-1.83-1.236-4.761t1.373-4.99q1.42-2.107 3.937-3.205Q68.608 8 72.041 8t6.09 1.19q2.7 1.144 4.211 3.48 1.557 2.289 1.557 5.769v1.373h-5.952v-1.373q0-1.832-.733-2.93-.686-1.146-2.014-1.649-1.327-.55-3.16-.55-2.746 0-4.074 1.054-1.281 1.007-1.282 2.793 0 1.19.596 2.014.64.824 1.877 1.374 1.236.549 3.159.961l1.053.229q3.434.732 5.951 1.877 2.564 1.144 3.984 3.022t1.419 4.807-1.511 5.173q-1.465 2.198-4.212 3.48-2.7 1.236-6.41 1.236"/></svg>