<svg xmlns="http://www.w3.org/2000/svg" width="173" height="50" fill="none"><path fill="#FF5C00" fill-rule="evenodd" d="M11.055 26.674C16.97 14.54 29.377 12.954 35.202 15.09c.447.164.955-.116 1.014-.587.917-7.365 1.027-7.863 2.734-12.104a.69.69 0 0 0-.357-.886l-1.021-.454a.69.69 0 0 0-.73.106l-4.126 3.526a.69.69 0 0 1-.854.035L28.301 2.16a.69.69 0 0 0-.935.118l-3.478 4.177a.69.69 0 0 1-.728.22l-4.975-1.472a.69.69 0 0 0-.802.33l-5.422 9.94C3.34 29.12 4.7 36.543 5.84 39.419c6.12 15.45 25.496 8.11 26.462 5.88.895-2.07-.511-2.306-1.362-2.284a.65.65 0 0 0-.347.117C19.64 50.56 2.477 44.27 11.055 26.674m8.06 12.53a1.175 1.175 0 0 1 1.635-1.257c.348.138.56.447.776.76.109.157.218.315.345.453.766.831 2.168.635 4.484-.728l.03-.015c.347-.182 1.544-.81 1.91-.242.304.471.042 1.128-.349 1.7-.21.308-.494.555-.815.746-1.35.805-3.77 1.836-5.689.987-.632-.286-2.086-.961-2.327-2.403m10.397-5.564c2.254.583 4.834-1.83 5.763-5.39s-.144-6.918-2.397-7.501-4.833 1.83-5.762 5.39c-.93 3.56.143 6.918 2.396 7.501m.499-1.348c.852.22 1.828-.692 2.18-2.039.35-1.346-.055-2.616-.907-2.837-.852-.22-1.828.692-2.18 2.039-.351 1.346.055 2.616.907 2.837m-6.869-3.459c-.836 3.202-3.34 5.325-5.593 4.742s-3.402-3.652-2.566-6.854 3.34-5.325 5.593-4.742 3.402 3.652 2.566 6.854m-2.504 1.42c-.351 1.347-1.327 2.26-2.179 2.039s-1.258-1.491-.906-2.837c.351-1.346 1.327-2.26 2.179-2.039s1.258 1.491.906 2.837" clip-rule="evenodd"/><path fill="#000" d="M48.431 39.341q-2.387 0-4.464-.868a11.5 11.5 0 0 1-3.596-2.387 11.5 11.5 0 0 1-2.387-3.596 11.4 11.4 0 0 1-.868-4.433q0-2.356.837-4.371a11.1 11.1 0 0 1 2.387-3.565 10.8 10.8 0 0 1 3.596-2.387q2.046-.868 4.433-.868 2.418 0 4.464.868a10.5 10.5 0 0 1 3.565 2.387 10.9 10.9 0 0 1 2.418 3.565q.868 2.046.868 4.402 0 2.355-.868 4.402a11.25 11.25 0 0 1-2.418 3.596 11.1 11.1 0 0 1-3.565 2.387q-2.014.868-4.402.868m-.062-3.937q2.108 0 3.658-.93a6.45 6.45 0 0 0 2.418-2.573q.9-1.643.899-3.844 0-1.612-.496-2.945a6.5 6.5 0 0 0-1.426-2.294 6.3 6.3 0 0 0-2.201-1.519q-1.27-.527-2.852-.527-2.046 0-3.627.93-1.55.9-2.449 2.542-.868 1.642-.868 3.813 0 1.643.496 3.007.527 1.364 1.426 2.325a6.5 6.5 0 0 0 2.201 1.488 7.5 7.5 0 0 0 2.821.527M65.909 39v-3.751h5.549q2.108 0 3.689-.868a6.23 6.23 0 0 0 2.449-2.511q.9-1.613.899-3.813 0-2.139-.9-3.72a6.23 6.23 0 0 0-2.48-2.48q-1.58-.9-3.657-.899h-5.642v-3.751h5.704q2.418 0 4.464.806a10.5 10.5 0 0 1 3.596 2.294 10 10 0 0 1 2.387 3.441q.868 1.985.868 4.34 0 2.356-.868 4.371a10.55 10.55 0 0 1-2.356 3.472q-1.519 1.457-3.596 2.263-2.046.806-4.433.806zm-2.883 0V17.207h4.216V39zm29.917-8.401-8.432-13.392h4.867l6.541 10.726h-2.79l6.541-10.726h4.805L95.95 30.599zM92.385 39V28.336h4.247V39zm18.777-2.945 11.439-15.903h5.022l-11.439 15.903zm0 2.945v-2.945l3.162-.775h13.051V39zm.651-18.073v-3.72h15.81v2.945l-3.193.775zM130.929 39V17.207h4.216V39zm3.1 0v-3.72h12.059V39zm0-9.331v-3.596h10.974v3.596zm0-8.742v-3.72h11.904v3.72zM147.966 39l8.773-21.793h3.441L168.922 39h-4.495l-6.758-17.887h1.55L152.368 39zm4.65-4.061v-3.534h11.718v3.534zM46.596 46v-3.948h-1.32v-.432h3.102v.432h-1.314V46zm1.923 0v-3h.462v.468c.18-.3.498-.468.93-.468h.276v.432h-.294c-.648 0-.906.318-.906 1.014V46zm3.573.06c-.882 0-1.536-.702-1.536-1.56s.642-1.56 1.536-1.56c.384 0 .846.198 1.104.552V43h.462v3h-.462v-.492c-.258.36-.72.552-1.104.552m.024-.42c.642 0 1.122-.51 1.122-1.14 0-.624-.48-1.14-1.122-1.14-.612 0-1.092.51-1.092 1.14s.48 1.14 1.092 1.14m2.38.36v-3h.456v.444c.21-.306.57-.504 1.02-.504.804 0 1.302.528 1.302 1.392V46h-.468v-1.668c0-.582-.3-.972-.9-.972-.546 0-.948.432-.948.978V46zm4.582.06c-.564 0-.99-.186-1.296-.54l.366-.324c.246.288.534.456.954.456.474 0 .72-.228.72-.504 0-.33-.432-.396-.846-.492-.48-.114-1.02-.264-1.02-.852 0-.45.42-.87 1.11-.87.486 0 .888.15 1.17.462l-.354.288c-.204-.24-.444-.354-.816-.354-.432 0-.654.21-.654.468 0 .306.348.354.81.468.498.114 1.056.27 1.056.882 0 .456-.396.912-1.2.912m1.6-2.64V43h.516v-.234c0-.894.258-1.146 1.14-1.146h.042v.426c-.636 0-.714.114-.714.726V43h.714v.42h-.714V46h-.468v-2.58zm3.578 2.64a1.54 1.54 0 0 1-1.554-1.56c0-.882.69-1.56 1.554-1.56s1.56.678 1.56 1.56-.696 1.56-1.56 1.56m0-.42c.612 0 1.092-.51 1.092-1.14s-.48-1.14-1.092-1.14-1.086.51-1.086 1.14.474 1.14 1.086 1.14m2.251.36v-3h.462v.468c.18-.3.499-.468.93-.468h.276v.432h-.293c-.648 0-.907.318-.907 1.014V46zm2.332 0v-3h.457v.408c.197-.288.533-.468.96-.468.54 0 .9.252 1.067.612.193-.366.583-.612 1.087-.612.864 0 1.338.528 1.338 1.296V46h-.469v-1.794c0-.498-.335-.852-.876-.852-.492 0-.882.336-.882.9V46h-.462v-1.848c0-.48-.335-.798-.84-.798-.527 0-.917.354-.917.954V46zm5.707-3h.468v3h-.468zm-.132-.99a.36.36 0 0 1 .367-.366c.215 0 .371.156.371.366s-.156.372-.371.372a.36.36 0 0 1-.367-.372M75.819 46v-3h.456v.444c.21-.306.57-.504 1.02-.504.804 0 1.302.528 1.302 1.392V46h-.468v-1.668c0-.582-.3-.972-.9-.972-.546 0-.948.432-.948.978V46zm4.99.06c-.882 0-1.536-.702-1.536-1.56s.642-1.56 1.536-1.56c.384 0 .846.198 1.104.552V43h.462v2.946c0 .912-.576 1.518-1.482 1.518-.732 0-1.194-.324-1.41-.828l.456-.15c.144.342.444.57.954.57.654 0 1.026-.456 1.026-1.098v-.456c-.252.36-.72.558-1.11.558m.024-.42c.642 0 1.122-.51 1.122-1.14 0-.624-.48-1.14-1.122-1.14-.612 0-1.092.51-1.092 1.14s.48 1.14 1.092 1.14m4.939.36-1.596-4.38h.486l1.35 3.708 1.344-3.708h.492L86.245 46zm2.68-3h.468v3h-.468zm-.132-.99a.36.36 0 0 1 .366-.366c.216 0 .372.156.372.366s-.156.372-.372.372a.36.36 0 0 1-.366-.372m2.417 4.05c-.564 0-.99-.186-1.296-.54l.366-.324c.246.288.534.456.954.456.474 0 .72-.228.72-.504 0-.33-.432-.396-.846-.492-.48-.114-1.02-.264-1.02-.852 0-.45.42-.87 1.11-.87.486 0 .888.15 1.17.462l-.354.288c-.204-.24-.444-.354-.816-.354-.432 0-.654.21-.654.468 0 .306.348.354.81.468.498.114 1.056.27 1.056.882 0 .456-.396.912-1.2.912m1.84-3.06h.468v3h-.468zm-.132-.99a.36.36 0 0 1 .366-.366c.216 0 .372.156.372.366s-.156.372-.372.372a.36.36 0 0 1-.366-.372m2.843 4.05a1.54 1.54 0 0 1-1.554-1.56c0-.882.69-1.56 1.554-1.56s1.56.678 1.56 1.56-.696 1.56-1.56 1.56m0-.42c.612 0 1.092-.51 1.092-1.14s-.48-1.14-1.092-1.14-1.086.51-1.086 1.14.474 1.14 1.086 1.14m2.252.36v-3h.456v.444c.21-.306.57-.504 1.02-.504.804 0 1.302.528 1.302 1.392V46h-.468v-1.668c0-.582-.3-.972-.9-.972-.546 0-.948.432-.948.978V46zm4.582.06c-.564 0-.99-.186-1.296-.54l.366-.324c.246.288.534.456.954.456.474 0 .72-.228.72-.504 0-.33-.432-.396-.846-.492-.48-.114-1.02-.264-1.02-.852 0-.45.42-.87 1.11-.87.486 0 .888.15 1.17.462l-.354.288c-.204-.24-.444-.354-.816-.354-.432 0-.654.21-.654.468 0 .306.348.354.81.468.498.114 1.056.27 1.056.882 0 .456-.396.912-1.2.912M105.15 43h.468v3h-.468zm-.132-.99a.36.36 0 0 1 .366-.366c.216 0 .372.156.372.366s-.156.372-.372.372a.36.36 0 0 1-.366-.372m1.404 3.99v-3h.456v.444c.21-.306.57-.504 1.02-.504.804 0 1.302.528 1.302 1.392V46h-.468v-1.668c0-.582-.3-.972-.9-.972-.546 0-.948.432-.948.978V46zm3.218-2.58V43h.516v-.708l.468-.258V43h.708v.42h-.708v1.428c0 .612.114.714.708.714V46h-.066c-.876 0-1.11-.252-1.11-1.146V43.42zm3.7 2.64a1.54 1.54 0 0 1-1.554-1.56c0-.882.69-1.56 1.554-1.56s1.56.678 1.56 1.56-.696 1.56-1.56 1.56m0-.42c.612 0 1.092-.51 1.092-1.14s-.48-1.14-1.092-1.14-1.086.51-1.086 1.14.474 1.14 1.086 1.14m3.471.36v-4.38h1.224c1.362 0 2.28.948 2.28 2.19 0 1.248-.972 2.19-2.262 2.19zm1.188-3.948h-.72v3.51h.738c1.062 0 1.818-.756 1.818-1.752 0-1.002-.708-1.758-1.836-1.758m3.077.948h.468v3h-.468zm-.132-.99a.36.36 0 0 1 .366-.366c.216 0 .372.156.372.366s-.156.372-.372.372a.36.36 0 0 1-.366-.372m2.825 4.05c-.882 0-1.536-.702-1.536-1.56s.642-1.56 1.536-1.56c.384 0 .846.198 1.104.552V43h.462v2.946c0 .912-.576 1.518-1.482 1.518-.732 0-1.194-.324-1.41-.828l.456-.15c.144.342.444.57.954.57.654 0 1.026-.456 1.026-1.098v-.456c-.252.36-.72.558-1.11.558m.024-.42c.642 0 1.122-.51 1.122-1.14 0-.624-.48-1.14-1.122-1.14-.612 0-1.092.51-1.092 1.14s.48 1.14 1.092 1.14m2.351-2.64h.468v3h-.468zm-.132-.99a.36.36 0 0 1 .366-.366c.216 0 .372.156.372.366s-.156.372-.372.372a.36.36 0 0 1-.366-.372m1.206 1.41V43h.516v-.708l.468-.258V43h.708v.42h-.708v1.428c0 .612.114.714.708.714V46h-.066c-.876 0-1.11-.252-1.11-1.146V43.42zm3.682 2.64c-.882 0-1.536-.702-1.536-1.56s.642-1.56 1.536-1.56c.384 0 .846.198 1.104.552V43h.462v3h-.462v-.492c-.258.36-.72.552-1.104.552m.024-.42c.642 0 1.122-.51 1.122-1.14 0-.624-.48-1.14-1.122-1.14-.612 0-1.092.51-1.092 1.14s.48 1.14 1.092 1.14m2.351.36v-4.38h.468V46zm2.497 0v-4.38h1.584c.858 0 1.488.618 1.488 1.392 0 .582-.36 1.11-.96 1.302L138.88 46h-.546l-.918-1.584h-1.176V46zm1.548-3.948h-1.08v1.944h1.074c.66 0 1.062-.492 1.062-.984 0-.552-.402-.96-1.056-.96m3.536 4.008c-.954 0-1.578-.654-1.578-1.536 0-.9.654-1.584 1.554-1.584.864 0 1.536.594 1.536 1.512v.198h-2.64c.06.594.528.996 1.128.996a1.09 1.09 0 0 0 1.014-.618l.402.198c-.276.522-.744.834-1.416.834m-.024-2.706c-.54 0-.96.366-1.08.87h2.142c-.084-.54-.48-.87-1.062-.87m3.656 2.706c-.882 0-1.536-.702-1.536-1.56s.642-1.56 1.536-1.56c.384 0 .846.198 1.104.552V43h.462v3h-.462v-.492c-.258.36-.72.552-1.104.552m.024-.42c.642 0 1.122-.51 1.122-1.14 0-.624-.48-1.14-1.122-1.14-.612 0-1.092.51-1.092 1.14s.48 1.14 1.092 1.14m2.351.36v-4.38h.468V46zm1.307-3h.468v3h-.468zm-.132-.99a.36.36 0 0 1 .366-.366c.216 0 .372.156.372.366s-.156.372-.372.372a.36.36 0 0 1-.366-.372m1.205 1.41V43h.516v-.708l.468-.258V43h.708v.42h-.708v1.428c0 .612.114.714.708.714V46h-.066c-.876 0-1.11-.252-1.11-1.146V43.42zm2.378-.42h.468v3h-.468zm-.132-.99a.36.36 0 0 1 .366-.366c.216 0 .372.156.372.366s-.156.372-.372.372a.36.36 0 0 1-.366-.372m2.867 4.05c-.954 0-1.578-.654-1.578-1.536 0-.9.654-1.584 1.554-1.584.864 0 1.536.594 1.536 1.512v.198h-2.64c.06.594.528.996 1.128.996a1.09 1.09 0 0 0 1.014-.618l.402.198c-.276.522-.744.834-1.416.834m-.024-2.706c-.54 0-.96.366-1.08.87h2.142c-.084-.54-.48-.87-1.062-.87m3.248 2.706c-.564 0-.99-.186-1.296-.54l.366-.324c.246.288.534.456.954.456.474 0 .72-.228.72-.504 0-.33-.432-.396-.846-.492-.48-.114-1.02-.264-1.02-.852 0-.45.42-.87 1.11-.87.486 0 .888.15 1.17.462l-.354.288c-.204-.24-.444-.354-.816-.354-.432 0-.654.21-.654.468 0 .306.348.354.81.468.498.114 1.056.27 1.056.882 0 .456-.396.912-1.2.912m1.708-.372a.36.36 0 0 1 .366-.366c.216 0 .372.156.372.366s-.156.372-.372.372a.36.36 0 0 1-.366-.372"/></svg>