<svg xmlns="http://www.w3.org/2000/svg" width="138" height="40" fill="none"><path fill="#6D2CF8" d="M16.317 24.003a5.33 5.33 0 0 0 3.592 1.386c2.961 0 5.362-2.412 5.362-5.387s-2.4-5.389-5.362-5.389a5.33 5.33 0 0 0-3.668 1.459 5.33 5.33 0 0 1-3.605 1.4 5.33 5.33 0 0 1-3.605-1.4q-.03-.032-.061-.057a5.33 5.33 0 0 0-3.607-1.402C2.4 14.613 0 17.027 0 20.002s2.401 5.387 5.363 5.387a5.33 5.33 0 0 0 3.683-1.473 5.32 5.32 0 0 1 3.59-1.385 5.33 5.33 0 0 1 3.681 1.472"/><path fill="#6D2CF8" d="M19.908 0c-2.962 0-5.363 2.412-5.363 5.388s2.401 5.387 5.363 5.387c5.063 0 9.182 4.14 9.182 9.225 0 5.086-4.12 9.225-9.182 9.225-2.962 0-5.363 2.412-5.363 5.387 0 2.976 2.401 5.388 5.363 5.388 10.995 0 19.909-8.955 19.909-20S30.903 0 19.907 0M5.363 10.776c2.962 0 5.363-2.413 5.363-5.388S8.326 0 5.363 0C2.401 0 0 2.412 0 5.388s2.401 5.387 5.363 5.387"/><path fill="#fff" d="M118.916 32.553V6.914h11.114q2.413 0 4.204.842 1.792.843 2.779 2.381t.987 3.626v.44q0 2.307-1.097 3.736a6.45 6.45 0 0 1-2.705 2.087v.66q1.462.072 2.266 1.025.805.916.805 2.454v8.388h-4.826V24.86q0-.879-.475-1.428-.439-.55-1.499-.55h-6.727v9.67zm4.826-14.065h5.776q1.718 0 2.669-.916.987-.952.987-2.49v-.367q0-1.538-.95-2.453-.951-.953-2.706-.953h-5.776zM104.154 33.064q-4.826 0-7.677-2.637-2.852-2.674-2.852-7.618v-6.153q0-4.945 2.852-7.582 2.85-2.673 7.677-2.674 4.825 0 7.678 2.674 2.851 2.637 2.851 7.582v6.153q0 4.945-2.851 7.618-2.853 2.637-7.678 2.637m0-4.321q2.706 0 4.204-1.575 1.5-1.575 1.499-4.212v-6.447q0-2.637-1.499-4.212-1.498-1.575-4.204-1.575-2.669 0-4.204 1.575-1.5 1.575-1.5 4.212v6.447q0 2.637 1.5 4.212 1.535 1.575 4.204 1.575M69.498 32.553l6.727-25.639h8.409l6.727 25.639h-4.973L85 26.913h-9.14l-1.389 5.64zm7.495-10.11h6.873L80.758 9.955H80.1zM57.966 33.064q-2.961 0-5.228-1.062t-3.546-3.04-1.28-4.761v-1.026h4.753v1.026q0 2.307 1.426 3.48 1.425 1.134 3.875 1.135 2.486 0 3.692-.99 1.244-.988 1.243-2.526 0-1.063-.621-1.722-.585-.66-1.755-1.062-1.133-.44-2.778-.806l-.841-.183q-2.632-.586-4.534-1.465-1.864-.915-2.888-2.38-.987-1.465-.987-3.81t1.097-3.992q1.133-1.685 3.144-2.564 2.047-.916 4.79-.916 2.74 0 4.862.953 2.157.915 3.363 2.783 1.243 1.832 1.243 4.615v1.099h-4.753v-1.099q0-1.464-.585-2.344-.547-.916-1.608-1.318-1.06-.44-2.523-.44-2.193 0-3.254.843-1.023.805-1.023 2.234 0 .952.475 1.611.511.66 1.499 1.099.987.44 2.523.77l.84.182q2.742.586 4.753 1.502 2.047.915 3.18 2.417t1.134 3.846-1.206 4.139q-1.17 1.758-3.364 2.783-2.157.99-5.118.99"/></svg>