<svg xmlns="http://www.w3.org/2000/svg" width="40" height="40" fill="none"><path fill="#6B61FC" d="M40 20.002c0 11-9.002 20.001-20.003 19.998-5.5 0-10.478-2.222-14.094-5.813-1.472-1.466-.421-3.982 1.657-3.982h17c4.127 0 7.599-3.25 7.695-7.375.099-4.249-3.328-7.737-7.554-7.737h-9.327c-1.15 0-2.154.866-2.229 2.013a2.16 2.16 0 0 0 2.154 2.304h9.306c1.743 0 3.243 1.335 3.329 3.074a3.24 3.24 0 0 1-3.236 3.4H5.763c-3.15 0-5.729-2.53-5.763-5.68v-.202A19.914 19.914 0 0 1 19.438.008a19.93 19.93 0 0 1 14.659 5.806c1.472 1.466.425 3.982-1.654 3.982H15.3c-4.229 0-7.656 3.492-7.554 7.741.1 4.122 3.572 7.368 7.694 7.368h9.183c1.151 0 2.154-.866 2.23-2.013a2.16 2.16 0 0 0-2.154-2.304H15.39c-1.743 0-3.242-1.336-3.328-3.075a3.24 3.24 0 0 1 3.236-3.4h18.938c3.147 0 5.729 2.527 5.76 5.674q.004.107.003.215"/></svg>