<svg xmlns="http://www.w3.org/2000/svg" xml:space="preserve" width="256" height="256"><g style="stroke:none;stroke-width:0;stroke-dasharray:none;stroke-linecap:butt;stroke-linejoin:miter;stroke-miterlimit:10;fill:none;fill-rule:nonzero;opacity:1"><path d="M6 90a5.999 5.999 0 0 1-4.243-10.242l78-78a6 6 0 0 1 8.484 0 6 6 0 0 1 0 8.485l-78 78A5.98 5.98 0 0 1 6 90" style="stroke:none;stroke-width:1;stroke-dasharray:none;stroke-linecap:butt;stroke-linejoin:miter;stroke-miterlimit:10;fill:#fff;fill-rule:nonzero;opacity:1" transform="translate(1.407 1.407)scale(2.81)"/><path d="M84 90a5.98 5.98 0 0 1-4.242-1.758l-78-78a6 6 0 0 1 8.485-8.485l78 78a5.997 5.997 0 0 1 0 8.484A5.98 5.98 0 0 1 84 90" style="stroke:none;stroke-width:1;stroke-dasharray:none;stroke-linecap:butt;stroke-linejoin:miter;stroke-miterlimit:10;fill:#fff;fill-rule:nonzero;opacity:1" transform="translate(1.407 1.407)scale(2.81)"/></g></svg>