<svg xmlns="http://www.w3.org/2000/svg" viewBox="0 0 500 500"><defs><clipPath id="a"><rect width="65.66" height="16.28" x="294.28" y="316.9" rx="4.97" style="fill:#fff600;stroke:#263238;stroke-linecap:round;stroke-linejoin:round"/></clipPath><clipPath id="b"><path d="M273 251.42s-43 11.85-49.9 11-9-3.9-10.62-3.9-6 2.13-8 1.95-4.24-.71-4.24.53 1.77 3.19 2.83 3.19 5.31-.18 5.31-.18-8.32 2.48-8.68 4.07a2.83 2.83 0 0 0 2.31 3.36 5 5 0 0 1 2.3 1.07 12.3 12.3 0 0 0 1.77 3.89c1.06 1.24 4.24 1.77 7.78 1.06s9.74-3.89 11.15-4.78 44.42-4.78 47.61-5.48 7.08-.71 8.32-2.84-7.94-12.94-7.94-12.94" style="fill:#fff;stroke:#263238;stroke-linecap:round;stroke-linejoin:round"/></clipPath><clipPath id="c"><path d="M309.32 208.06s-3.89 10.61-8.84 17.69-7.08 14.52-3.9 22.48a16.29 16.29 0 0 0 10.09 9.77s-2.48 23.36-1.77 29.56 10.26 13.45 24.6 14 26.72-4.6 26.72-9.56-10.08-31.32-10.08-36.81.88-22.65-3.9-38-21.59-20.46-32.92-9.13" style="fill:#fff600;stroke:#263238;stroke-linecap:round;stroke-linejoin:round"/></clipPath><clipPath id="d"><path d="M308.26 210.71a38.2 38.2 0 0 0-7.43 6.19c-4.07 4.25-23.72 34-23.72 34s5.84 12.22 7.61 12.57 32.57-26 35.4-29.2 4.6-9 3.72-11.51" style="fill:#fff600;stroke:#263238;stroke-linecap:round;stroke-linejoin:round"/></clipPath><clipPath id="e"><path d="M279.24 174.61s-.36 5.13.53 6.72 3.36 3.19 3.36 5.31-1.77 5-1.24 6.55 3.37 1.77 3.37 1.77 5.3 6.55 6.9 8.85 2.3 1.41 4.78.71 7.78-5.31 10.79-8.85-2-14.34-8.49-21.59-16.29-7.08-18.41-5-1.59 5.53-1.59 5.53" style="fill:#fff;stroke:#263238;stroke-linecap:round;stroke-linejoin:round"/></clipPath><clipPath id="f"><path d="M273.75 166.82v.71l-.32 8.67 9.55 1.24 2.13-3.72v4.07a19.6 19.6 0 0 1 8.67 1.24c4.6 1.77 10.44 14.34 10.09 19.47s-4.78 6.19-4.25 14S312 228.05 321 223.1s10.45-11.33 14.16-10.09 9.38 8.85 12.92-1.95 1.95-17.69-6.37-26.54-14.86-8.14-15.93-15.22-3.36-16.64-11-22-18.58-5.66-28-1.59-13.03 16.51-13.03 21.11" style="fill:#263238;stroke:#263238;stroke-linecap:round;stroke-linejoin:round"/></clipPath></defs><path d="M78.81 210s-15 64 26.75 119.81 114.49 77.46 173 96.58 113.25-2.95 133.79-52.1-20.95-75.61-30.1-139.8-1.85-82.67-44.53-131.55-130.28-47.7-189.5 2.47S78.81 210 78.81 210" style="fill:#fff600"/><path d="M78.81 210s-15 64 26.75 119.81 114.49 77.46 173 96.58 113.25-2.95 133.79-52.1-20.95-75.61-30.1-139.8-1.85-82.67-44.53-131.55-130.28-47.7-189.5 2.47S78.81 210 78.81 210" style="fill:#fff;opacity:.7000000000000001"/><path d="M408.9 258.53s0-4.18-5.86-10-9.61-9.2-9.61-9.2-2.93 9.61 2.5 15.47a103.4 103.4 0 0 0 13 11.29ZM400.4 284.65s0-4.18-5.85-10-9.62-9.2-9.62-9.2-2.93 9.55 2.51 15.44a103 103 0 0 0 13 11.29Z" style="fill:#fff600"/><path d="M408.53 265.66s.44-4.16 6.88-9.37 10.59-8.13 10.59-8.13 1.89 9.88-4.13 15.12a102.5 102.5 0 0 1-14.08 9.86ZM398.27 296.5s.87-4.09 7.82-8.59 11.34-7 11.34-7 .84 10-5.7 14.61a103 103 0 0 1-15 8.32ZM400.2 330.13s0-4.18 5.85-10 9.62-9.2 9.62-9.2 2.93 9.62-2.51 15.48a103.6 103.6 0 0 1-13 11.29Z" style="fill:#fff600"/><path d="M400.1 338.34s.59-4.14-4.37-10.77-8.21-10.47-8.21-10.47-4.27 9.1.28 15.67a103 103 0 0 0 11.23 13ZM394.33 362.66s0-4.18 5.85-10 9.62-9.2 9.62-9.2 2.93 9.62-2.51 15.47a102.7 102.7 0 0 1-13 11.29ZM398.23 384.72s-1.05-4.05 3.13-11.19 7-11.34 7-11.34 5.27 8.56 1.49 15.61a102 102 0 0 1-9.68 14.2Z" style="fill:#fff600"/><path d="M409.43 257.46a120 120 0 0 1-1.6 13c-2.32 11.95-8.1 19.67-10.42 30.47s4.33 24.71 2.55 38.59-7.18 21.58-5.63 30.84 9.67 34.32 9.67 34.32M408.47 268.44l6.31-4.85M408.77 262.86l-2.64-4.7" style="fill:none;stroke:#263238;stroke-linecap:round;stroke-linejoin:round;stroke-width:.5px"/><path d="M397.76 300.42s5.28-4 10.71-7.92M400.4 292.18s-4.4-8.63-9.39-14.35M400.4 336.08A65.3 65.3 0 0 1 411.7 321M399.38 342a74.5 74.5 0 0 0-5.73-10.86c-3.08-4.55-3.52-5.14-3.52-5.14M394.33 370.35a69.6 69.6 0 0 1 4.75-9.62 61 61 0 0 1 6.17-8.07M400.14 392a17.9 17.9 0 0 1 1.58-9.26c2.2-4.26 4.7-9.83 5.73-12" style="fill:none;stroke:#263238;stroke-linecap:round;stroke-linejoin:round;stroke-width:.5px"/><path d="M370.56 314.4s-.45-2.62 2.58-6.93 5-6.81 5-6.81 2.88 5.71.11 10a64.7 64.7 0 0 1-6.9 8.49ZM378.72 329.86s-.45-2.63 2.59-6.93 5-6.82 5-6.82 2.88 5.72.1 10a65.5 65.5 0 0 1-6.9 8.49Z" style="fill:#fff600"/><path d="M371.56 318.83s-.72-2.56-5.33-5.13-7.49-3.95-7.49-3.95-.11 6.4 4.23 9a65.5 65.5 0 0 0 9.91 4.66ZM381.35 337.06s-1-2.47-5.84-4.54-7.87-3.15-7.87-3.15.56 6.38 5.16 8.54a65 65 0 0 0 10.34 3.59ZM383.79 358.35s-.45-2.62-4.76-5.66-7-4.72-7-4.72-.79 6.35 3.25 9.43a65.7 65.7 0 0 0 9.36 5.67Z" style="fill:#fff600"/><path d="M384.74 363.49s-.82-2.53 1.57-7.23 4-7.46 4-7.46 3.66 5.25 1.52 9.86a65 65 0 0 1-5.63 9.39ZM392.09 384.64s.3-2.64 4.43-5.92 6.75-5.12 6.75-5.12 1.15 6.3-2.71 9.6a65 65 0 0 1-9 6.2ZM391 378.12s-.45-2.62-4.76-5.66-7-4.73-7-4.73-.79 6.35 3.26 9.44a65 65 0 0 0 9.35 5.67ZM391 392.37s.22-2.65-3.18-6.68-5.6-6.35-5.6-6.35-2.37 5.94.76 10a66 66 0 0 0 7.61 7.86Z" style="fill:#fff600"/><path d="M370.11 313.79a75 75 0 0 0 2.42 8c2.75 7.24 7.21 11.45 9.84 18s0 16 2.58 24.48 6.85 12.75 6.89 18.73-2.32 22.57-2.32 22.57M371.9 320.56l-4.48-2.35M371.11 317.1l1.15-3.23" style="fill:none;stroke:#263238;stroke-linecap:round;stroke-linejoin:round;stroke-width:.5px"/><path d="M382.09 339.46s-3.74-1.91-7.58-3.81M379.54 334.58a53.4 53.4 0 0 1 4.33-10M384.31 362.11a41.6 41.6 0 0 0-8.73-8.25M385.59 365.68a46.6 46.6 0 0 1 2.41-7.43c1.44-3.19 1.65-3.61 1.65-3.61M391.63 387.47a40.4 40.4 0 0 1 4.82-5 25.5 25.5 0 0 0 3.13-2.72M391.84 382.94a44.4 44.4 0 0 0-4-5.52 39.4 39.4 0 0 0-4.74-4.39M390.54 397.15a11.34 11.34 0 0 0-2-5.64c-1.84-2.43-4-5.66-4.89-6.92" style="fill:none;stroke:#263238;stroke-linecap:round;stroke-linejoin:round;stroke-width:.5px"/><path d="M377.56 402.62h38.3v28.7a3 3 0 0 1-3 3H380.6a3 3 0 0 1-3-3v-28.7z" style="fill:#263238"/><path d="M415.52 407.61h-38a3 3 0 0 1-3-3 3 3 0 0 1 3-3h38a3 3 0 0 1 3 3 3 3 0 0 1-3 3" style="fill:#263238"/><circle cx="342.67" cy="106.67" r="34" style="fill:#263238"/><circle cx="342.67" cy="106.67" r="29.49" style="fill:#fff" transform="rotate(-22.08 342.66 106.679)"/><path d="m323.54 112.09 19.13-5.42V79.91" style="fill:none;stroke:#263238;stroke-miterlimit:10;stroke-width:2px"/><path d="M177.7 258.67h-37.33L91.5 127.51h37.33z" style="fill:#263238"/><path d="M177.7 258.67h-37.33L91.5 127.51h37.33z" style="fill:#fff;opacity:.2"/><path d="M118.86 159.55h-9.6a3.45 3.45 0 0 1-3-2.17l-3.71-9.95a1.45 1.45 0 0 1 1.36-2.16h9.6a3.47 3.47 0 0 1 3 2.16l3.71 9.95c.44 1.2-.16 2.17-1.36 2.17M131.3 134.14H93.97l-2.47-6.63h37.33z" style="fill:#263238"/><path d="m106.73 135.23 1.07 2.88M108.17 135.23l1.07 2.88M109.6 135.23l1.08 2.88M111.04 135.23l1.07 2.88M112.48 135.23l1.07 2.88M113.92 135.23l1.07 2.88M115.36 135.23l1.07 2.88M116.8 135.23l1.07 2.88M118.23 135.23l1.08 2.88M119.67 135.23l1.07 2.88" style="fill:none;stroke:#263238;stroke-linecap:round;stroke-linejoin:round"/><path d="m115.75 153.31-9-5.73a.56.56 0 0 0-.6-.06.38.38 0 0 0-.09.51l4.14 8.93a.86.86 0 0 0 .56.46h.14a.33.33 0 0 0 .34-.23l1-2.94h3.6a.33.33 0 0 0 .36-.34.79.79 0 0 0-.45-.6" style="fill:#fff"/><path d="m115.57 153.71-9.04-5.73 4.14 8.93 1.03-3.16z" style="fill:#263238"/><path d="m132.46 153.71-9.04-5.73 4.15 8.93 1.02-3.16zM137.09 158.79l-.81-1.84-1.07 1.55zM158.93 217.41l-.81-1.84-1.07 1.55zM165.64 235.4l-.82-1.84-1.06 1.54zM172.51 253.84l-.82-1.84-1.06 1.55zM134.02 196.64l-.82-1.84-1.06 1.54zM141.76 217.41l-.82-1.84-1.06 1.55zM148.46 235.4l-.81-1.84-1.07 1.54zM155.34 253.84l-.82-1.84-1.06 1.55zM115.75 178.53l1.57 1.01 4.32-9.01-1.57-1.02zM117.69 169.7c-2.29-1.78-2.45-2.14-1.89-4.16-1.18 1.62-1.53 1.65-4 .33 2.29 1.79 2.45 2.15 1.89 4.17 1.14-1.62 1.49-1.65 4-.34M125.23 170.67c-1.41-1.1-1.51-1.32-1.17-2.57-.73 1-.94 1-2.49.21 1.41 1.1 1.51 1.32 1.16 2.57.73-1 .95-1.02 2.5-.21M124.8 174.91c-1-.79-1.08-.94-.83-1.83-.52.71-.68.72-1.78.14 1 .79 1.07.95.83 1.84.52-.72.67-.73 1.78-.15M147.46 214.88l.97.69 4.32-9.02-.97-.69zM143.84 176.2l-7.97-5.05 3.65 7.88.91-2.79z" style="fill:#fff"/><path d="M137.84 176.67c-2.92 0-5.94-1.73-6.73-3.85s.95-3.82 3.89-3.82 5.94 1.73 6.73 3.84-.96 3.83-3.89 3.83m-2.69-7.23c-2.67 0-4.27 1.52-3.58 3.38s3.43 3.38 6.1 3.38 4.28-1.51 3.58-3.38-3.43-3.38-6.1-3.38" style="fill:#fff"/><path d="M134.33 175.9a2.09 2.09 0 0 1-1.79-1.31.88.88 0 0 1 .82-1.31 2.09 2.09 0 0 1 1.79 1.31.88.88 0 0 1-.82 1.31m-.8-2.15a.56.56 0 0 0-.53.84 1.34 1.34 0 0 0 1.16.85c.46 0 .7-.38.53-.85a1.36 1.36 0 0 0-1.16-.84" style="fill:#fff"/><path d="m134.46 177.27-.32-.44a1.26 1.26 0 0 0 .93-1 1.82 1.82 0 0 0-.34-1.12l.38-.16a2.42 2.42 0 0 1 .45 1.48 1.54 1.54 0 0 1-1.1 1.24M129.46 190.27l-5.57-4.05-1.18 1.88 5.57 4.05zM120.54 195.52l.91.66 2-3.24a.67.67 0 0 1-.18-.77c.15-.25.56-.25.9 0a.75.75 0 0 1 .34.9.57.57 0 0 1-.73.11l-2 3.24.85.62 5-1.41.31-3-5.49-4L120 190Z" style="fill:#fff"/><path d="M115.28 182.79h32.13" style="fill:none;stroke:#263238;stroke-linecap:round;stroke-linejoin:round"/><path d="m143.22 186.22-1.18 1.88 5.57 4.05 1.18-1.88zM139.28 190l.59 5.51.91.66 2-3.24a.67.67 0 0 1-.18-.77c.15-.25.56-.25.9 0a.75.75 0 0 1 .34.9.57.57 0 0 1-.73.11l-2 3.24.85.62 5-1.41.31-3-5.49-4Z" style="fill:#fff"/><path d="M137.9 191.63c.06-.39.11-.81.15-1.28a3.34 3.34 0 0 0-.79-2.51 5.1 5.1 0 0 0-2.44-1.51c-.15 0-.27 0-.25.18a.41.41 0 0 0 .3.32 4.44 4.44 0 0 1 2 1.23 2.78 2.78 0 0 1 .63 2.07c0 .46-.1.88-.15 1.26-.27 2-.43 3.2 2.89 5.19a.32.32 0 0 0 .18.06.18.18 0 0 0 .17-.1.35.35 0 0 0-.19-.37c-2.87-1.73-2.76-2.55-2.5-4.54M123.68 205l.2.52a21 21 0 0 0 1 2.35l.93-.23a15 15 0 0 1-.69-1.6h4l3.32 8.92h-1.49l.39 1h4l-.39-1h-1.48l-3.34-8.96H134l.69 1.88h1.05l-.89-2.4-.2-.52Z" style="fill:#fff"/><path d="M144.56 229.72c.86 2.3-1 4.16-4.2 4.16s-6.44-1.86-7.29-4.16 1-4.15 4.2-4.15 6.44 1.86 7.29 4.15" style="fill:#fff;opacity:.44"/><path d="M144.56 229.72c.86 2.3-1 4.16-4.2 4.16s-6.44-1.86-7.29-4.16 1-4.15 4.2-4.15 6.44 1.86 7.29 4.15Z" style="fill:none;stroke:#fff;stroke-miterlimit:10"/><path d="m156.39 229.84 3.77-6.85a.7.7 0 0 1 1-.14 1.13 1.13 0 0 1 .69 1.13l-2 7.57Z" style="fill:#fff"/><path d="M155.77 230.42c1.48-.2 4.38 1.07 4.46 3a1.19 1.19 0 0 1-.67 1 8.5 8.5 0 0 1-4.22.72 1.18 1.18 0 0 0 .41-1.26 16 16 0 0 0-.69-1.62c-.27-.77-.13-1.8.71-1.86M147.92 245.45a5.3 5.3 0 0 0-1.36-1.87l-1.14 1.81a6 6 0 0 1 1.57 2.12 16 16 0 0 0 1.14 2.09l1.11-1.78a15.7 15.7 0 0 1-1.32-2.37M146.61 247.54a5.5 5.5 0 0 0-1.37-1.87l-1.14 1.82a6.1 6.1 0 0 1 1.58 2.12 16 16 0 0 0 1.13 2.09l1.12-1.78a14.3 14.3 0 0 1-1.32-2.38M148.31 245.42a16 16 0 0 0 1.13 2.09l1.64-2.62-3.67-2.68-.68 1.08a6.25 6.25 0 0 1 1.58 2.13M145.29 249.64a5.3 5.3 0 0 0-1.36-1.87l-1 1.52.17 3.45a.45.45 0 0 0 .53.39l2.92-1.15a15.5 15.5 0 0 1-1.26-2.34M144 252l-.09-1.84 1.67 1.22ZM159.7 247.08l-1.25 2 6.46 4.71 1.25-2 .39.29 3-4.71-7.25-5.28-2.95 4.71Zm4.78 5.57-4.89-3.57.89-1.43 4.9 3.57ZM98.71 129.27l.24.63-.9 1.1 1.72 1.1.23.64-2.7-1.74zM96.45 129.27l.24.63-.9 1.1 1.72 1.1.24.64-2.71-1.74z" style="fill:#fff"/><path d="M250 206.17h-77.21l-23.6-65.84h77.21z" style="fill:#263238"/><path d="M244.52 202.58h-68.83l-21.02-58.65h68.83z" style="fill:#fff600"/><path d="m231.43 166.07-11.38-8.38-8.99 23.34-23.31-6.58-12.06 28.13h68.83zM184 156.49c-1.6-4.46-6.51-8.08-11-8.08s-6.78 3.62-5.18 8.08 6.51 8.08 11 8.08 6.79-3.57 5.18-8.08" style="fill:#fff"/><path d="M258 194.84h-77.21L157.19 129h77.21z" style="fill:#263238"/><path d="M252.52 191.25h-68.83l-21.02-58.66h68.83z" style="fill:#fff600"/><path d="m239.43 154.74-11.38-8.38-8.99 23.34-23.31-6.58-12.06 28.13h68.83zM192 145.16c-1.6-4.46-6.51-8.08-11-8.08s-6.78 3.62-5.18 8.08 6.51 8.08 11 8.08 6.79-3.62 5.18-8.08" style="fill:#fff"/><path d="m258.35 118.67 1.85 4.5h-.53a8.6 8.6 0 0 0-1.05-1.7 4.9 4.9 0 0 0-1.61-1.21 5 5 0 0 0-2.06-.39h-2.71l5.37 14.67a5.56 5.56 0 0 0 1.19 2.21 2.9 2.9 0 0 0 1.87.6h.67l.19.52h-8.14l-.19-.52h.68c.81 0 1.29-.25 1.45-.74a4.34 4.34 0 0 0-.44-2.07l-5.37-14.67h-2.3a5.7 5.7 0 0 0-1.84.2 1.55 1.55 0 0 0-.88 1 3.6 3.6 0 0 0 .13 2.06h-.54l-1.42-4.5Z"/><path d="M270.04 127.72h5.87M275.72 143.28h-29.56l-10.95-29.94h29.56z" style="fill:none;stroke:#263238;stroke-miterlimit:10;stroke-width:.5px"/><path d="M241.95 128.82h-2.22l-.81-2.21h2.22zM271.55 128.82h-2.22l-.81-2.21h2.22zM236.75 114.61h-2.21l-.81-2.21h2.21zM266.35 114.61h-2.21l-.81-2.21h2.21zM251.56 114.61h-2.21l-.81-2.21h2.21zM247.58 144.21h-2.22l-.81-2.21h2.22zM277.18 144.21h-2.22l-.81-2.21h2.22z" style="fill:#fff;stroke:#263238;stroke-miterlimit:10;stroke-width:.5px"/><path d="m261.11 143.81 2.15 5.88" style="fill:none;stroke:#263238;stroke-miterlimit:10;stroke-width:.5px"/><path d="M262.39 144.21h-2.22l-.81-2.21h2.22z" style="fill:#fff;stroke:#263238;stroke-miterlimit:10;stroke-width:.5px"/><path d="M264.8 150.8h-2.22l-.81-2.22h2.22z" style="fill:#263238"/><path d="M244.39 137.67h24.83" style="fill:none;stroke:#263238;stroke-miterlimit:10;stroke-width:.5px"/><path d="M277.08 127.72a1.85 1.85 0 0 0-1.59-1.17.79.79 0 0 0-.74 1.17 1.84 1.84 0 0 0 1.59 1.16.78.78 0 0 0 .74-1.16" style="fill:#263238"/><path d="m140.03 286.49 26.79 22.96-25.53 124.91h1.73l28.4-122.62 26.02 21.82-36.74 100.65 2.3-.38 38.65-97.97 107.54 97.97h65.44l-76.54-150.02z" style="opacity:.2"/><path d="M143.02 434.36h-1.73l-2.59-150.01h6.91zM291.88 434.36h-1.73l-2.59-150.01h6.91z" style="fill:#263238;stroke:#263238;stroke-linecap:round;stroke-linejoin:round"/><path d="M136.06 282.03h166.36v3.89H136.06zM98.5 362.57l-3 6.38s3.7 4 5.38 4 2.35-1.68 4.37-2.36 5.37-7.05 5.37-7.05-2-3.36-4-3.7-5-1.34-6.72-1.68-1.4 4.41-1.4 4.41" style="fill:#fff;stroke:#263238;stroke-linecap:round;stroke-linejoin:round"/><path d="m98.5 362.57 2 3.36v3s2 1 2.69 0 3.7-4.37 3.7-4.37l-1.35-3M100.51 368.95l-3.69-.67" style="fill:none;stroke:#263238;stroke-linecap:round;stroke-linejoin:round"/><path d="m156.4 423-6.79 2s-.59 5.44.52 6.7 2.82.66 4.65 1.73 8.85-.63 8.85-.63 1.2-3.73.12-5.46-2.32-4.68-3.18-6.16-4.17 1.82-4.17 1.82" style="fill:#fff;stroke:#263238;stroke-linecap:round;stroke-linejoin:round"/><path d="m156.4 423-1.19 3.74-2.27 2s.57 2.18 1.77 2 5.73-.11 5.73-.11l1.38-3M152.94 428.75l-1.94-3.22" style="fill:none;stroke:#263238;stroke-linecap:round;stroke-linejoin:round"/><path d="M87.74 361.22s-5.71 3.7-4.7 5.72 1.68 3.36 2.69 4 4 1.68 5 1 3.36-2.35 3.69-5 1.35-3 .34-4.37-7.02-1.35-7.02-1.35" style="fill:#fff;stroke:#263238;stroke-linecap:round;stroke-linejoin:round"/><path d="m83 366.94 4 2.69 3.36-.34 1.34-3.7a2 2 0 0 0-2-2 4.45 4.45 0 0 0-3 1l.68 2" style="fill:none;stroke:#263238;stroke-linecap:round;stroke-linejoin:round"/><path d="M112.61 356.52s-5 4.7-4.37 8.06 7.06 6.05 7.06 6.05l7.73-4.36-2.36-6-5-2.69Z" style="fill:#fff;stroke:#263238;stroke-linecap:round;stroke-linejoin:round"/><path d="m108.24 364.58 5.38 2.02 6.05-2.02-2.36-5.37" style="fill:none;stroke:#263238;stroke-linecap:round;stroke-linejoin:round"/><path d="m112.61 356.52-.34 7.06 4.04 1.34" style="fill:none;stroke:#263238;stroke-linecap:round;stroke-linejoin:round"/><path d="M127.73 419.69s-5 4.71-4.37 8.07 7.06 6.05 7.06 6.05l7.73-4.37-2.35-6.05-5.05-2.69Z" style="fill:#fff;stroke:#263238;stroke-linecap:round;stroke-linejoin:round"/><path d="m123.36 427.76 5.38 2.01 6.05-2.01-2.35-5.38" style="fill:none;stroke:#263238;stroke-linecap:round;stroke-linejoin:round"/><path d="m127.73 419.69-.34 7.06 4.04 1.35" style="fill:none;stroke:#263238;stroke-linecap:round;stroke-linejoin:round"/><path d="M94.13 351.48s-5 4.7-4.37 8.06 7.06 6 7.06 6l7.72-4.37-2.35-6-5-2.69Z" style="fill:#fff;stroke:#263238;stroke-linecap:round;stroke-linejoin:round"/><path d="m89.76 359.54 5.38 2.02 6.04-2.02-2.35-5.37" style="fill:none;stroke:#263238;stroke-linecap:round;stroke-linejoin:round"/><path d="m94.13 351.48-.34 7.06 4.03 1.34" style="fill:none;stroke:#263238;stroke-linecap:round;stroke-linejoin:round"/><path d="M122.32 434.36H82.44l-5.98-66.11h51.84z" style="fill:#263238;stroke:#263238;stroke-linecap:round;stroke-linejoin:round"/><path d="M95.81 423.39s-5.72 3.7-4.71 5.71 1.68 3.36 2.69 4 4 1.68 5 1 3.36-2.35 3.7-5 1.34-3 .33-4.37-7.01-1.34-7.01-1.34" style="fill:#fff;stroke:#263238;stroke-linecap:round;stroke-linejoin:round"/><path d="m91.1 429.1 4 2.69 3.36-.33 1.34-3.7a2 2 0 0 0-2-2 4.4 4.4 0 0 0-3 1l.67 2" style="fill:none;stroke:#263238;stroke-linecap:round;stroke-linejoin:round"/><path d="M201.54 236.32a2.24 2.24 0 1 1-2.21-1.89 2.07 2.07 0 0 1 2.21 1.89M203.67 242.08a2.24 2.24 0 1 1-2.21-1.89 2.07 2.07 0 0 1 2.21 1.89M205.79 247.84a2.24 2.24 0 1 1-2.21-1.89 2.07 2.07 0 0 1 2.21 1.89M207.92 253.6a2.24 2.24 0 1 1-2.22-1.89 2.08 2.08 0 0 1 2.22 1.89" style="fill:gray;stroke:#263238;stroke-linecap:round;stroke-linejoin:round"/><path d="M177.96 281.66h-15.14l-2.28-25.11h19.7z" style="fill:#263238;stroke:#263238;stroke-linecap:round;stroke-linejoin:round"/><path d="m179.49 264.81-17.4 8.86.73 7.99h8.1l7.86-9.03zM158.79 253.55h23.2v5.46h-23.2z" style="fill:#fff600;stroke:#263238;stroke-linecap:round;stroke-linejoin:round"/><path d="M222.78 282h-27.25a3.46 3.46 0 1 1 0-6.91h27.25a3.46 3.46 0 1 1 0 6.91" style="fill:#263238;stroke:#263238;stroke-linecap:round;stroke-linejoin:round"/><path d="M295.26 282.03h-83.89l-20.01-54.46h83.89z" style="fill:#263238;stroke:#263238;stroke-linecap:round;stroke-linejoin:round"/><path d="M289.94 276.37H218.3l-17.08-46.5h71.63z" style="fill:gray;stroke:#263238;stroke-linecap:round;stroke-linejoin:round"/><path d="M304 301.48a57 57 0 0 1-6.58 8 104.3 104.3 0 0 0-19.59 23.86c-7.52 12.75-12.76 25.78-17.74 37.06s-14 32.1-18.51 38.44-7.56 9.73-7.56 9.73-7.45.17-16.27-.61-12.47-2.37-12.58-.07 6 8.61 10.34 9.71 10 2.78 11.32 4.09 3 2.81 5.22 1.85 8.83-10.21 16.22-16.58 16.21-12.68 24.19-27.53 8.4-23.34 14-28.92 11.5-14.33 18.64-18.94 28.45-13.15 35.26-22 3.26-19.68-3.29-23.55-27.93-5.27-33.07 5.46" style="fill:#263238;stroke:#263238;stroke-linecap:round;stroke-linejoin:round"/><path d="M246.86 399.48a78 78 0 0 1-5.27 9.37c-4.56 6.33-7.56 9.73-7.56 9.73s-7.45.17-16.27-.61-12.47-2.37-12.58-.07 6 8.61 10.34 9.71 10 2.78 11.32 4.09 3 2.81 5.22 1.85 8.83-10.21 16.22-16.58c3.44-3 7.19-5.93 11-9.73a24 24 0 0 1-12.42-7.76" style="fill:#fff;stroke:#263238;stroke-linecap:round;stroke-linejoin:round"/><path d="M232.06 433.55a13.9 13.9 0 0 0 3.15-2.9c-6-1.19-9.06-4.2-11.8-5a29.2 29.2 0 0 1-7.11-3.18l3-4.41-1.52-.13c-8.82-.78-12.47-2.37-12.58-.07s6 8.61 10.34 9.71 10 2.78 11.32 4.09 3.03 2.85 5.2 1.89" style="fill:#fff600;stroke:#263238;stroke-linecap:round;stroke-linejoin:round"/><path d="M242.43 329.64a69.2 69.2 0 0 0 5.13 14.51c3.54 7.08 11.33 14.51 17 18.76s23.89 20.53 32.92 33.45c1.13 1.62-3.19 7.08-8.5 11.86s-7.61 6.55-4.78 7.43 9.56.53 16.29-5.13 11.15-9.38 13.27-14c1.06-2.3-4.78-5.14-8.32-8.14s-16.64-22.83-20.71-32-14.33-22.3-21.94-26.9" style="fill:#263238;stroke:#263238;stroke-linecap:round;stroke-linejoin:round"/><path d="M313.75 396.54c1.06-2.3-4.78-5.14-8.32-8.14-3-2.53-12.71-16.95-18.15-26.94l-12 10.64c7.49 6.93 16.64 16.24 22.24 24.26 1.13 1.62-3.19 7.08-8.5 11.86s-7.61 6.55-4.78 7.43 9.56.53 16.29-5.13 11.1-9.38 13.22-13.98" style="fill:#fff;stroke:#263238;stroke-linecap:round;stroke-linejoin:round"/><path d="M310.11 391.84c-.95 1.42-2.19 3.35-3.62 5.76-3.36 5.66-12.56 12.92-13.8 11.68a12.2 12.2 0 0 1-1.86-2.8c-.6.58-1.22 1.17-1.86 1.74-5.31 4.78-7.61 6.55-4.78 7.43s9.56.53 16.29-5.13 11.15-9.38 13.27-14c.64-1.38-1.26-2.97-3.64-4.68" style="fill:#fff600;stroke:#263238;stroke-linecap:round;stroke-linejoin:round"/><path d="M298 408.04h60.17v2.83H298z" style="fill:#fff;stroke:#263238;stroke-linecap:round;stroke-linejoin:round"/><path d="M303.48 332.12 293 432.78a.81.81 0 0 0 .81.89h0a.81.81 0 0 0 .8-.69l15.65-100.86ZM351.62 332.12l10.53 100.66a.8.8 0 0 1-.8.89h0a.8.8 0 0 1-.8-.69L344.9 332.12ZM332.51 332.12l.49 100.74a.82.82 0 0 1-.81.81h0a.8.8 0 0 1-.8-.77l-5.63-100.78Z" style="fill:#fff;stroke:#263238;stroke-linecap:round;stroke-linejoin:round"/><rect width="65.66" height="16.28" x="294.28" y="316.9" rx="4.97" style="fill:#fff600"/><g style="clip-path:url(#a)"><path d="M355 316.9h-54.48l-1.62 3.4s50.28.88 50.28 3.78.87 6.69-9 6.69c-8 0-34.85.38-44.79.52a5 5 0 0 0 1.44 1.23l2.92.66H355a5 5 0 0 0 5-5v-6.34a5 5 0 0 0-5-4.94" style="opacity:.2"/></g><rect width="65.66" height="16.28" x="294.28" y="316.9" rx="4.97" style="fill:none;stroke:#263238;stroke-linecap:round;stroke-linejoin:round"/><path d="M243.84 336c-1.24-4.07-6.37-12.21 18.23-29.2 13-9 41.24-15.93 41.24-15.93l2.65-3s7.61 8 22.48 7.44 24.07-7.08 25.84-6.55 1.94 5.13 1.24 13.8-1.6 13.1-8.5 15.22-22.12 2.83-33.09 2.66a158 158 0 0 1-16.29-.89s-23.53 14.87-38.22 15.93" style="fill:#263238;stroke:#263238;stroke-linecap:round;stroke-linejoin:round"/><path d="M298.35 238.5c-1.07.33-33.45 6.72-36.28 6.19s-10.26-6.9-12.92-6.73-8 1.07-8.49 2.48 1.24 6.2 1.24 6.2-1.77 2.65-.89 3.89 6-1.77 6-1.77 5.84 4.25 8.49 3.36 5.49-1.94 5.49-1.94 41.59 2.47 42.12 2.65 5.66 1.24 6.19-6.19-4.75-10.09-10.95-8.14" style="fill:#fff;stroke:#263238;stroke-linecap:round;stroke-linejoin:round"/><path d="m241.9 246.64 7.25-6.02" style="fill:none;stroke:#263238;stroke-linecap:round;stroke-linejoin:round"/><path d="m244.55 243.98 3.89-12.21 1.6.35-1.95 8.85z" style="fill:#263238"/><path d="M273 251.42s-43 11.85-49.9 11-9-3.9-10.62-3.9-6 2.13-8 1.95-4.24-.71-4.24.53 1.77 3.19 2.83 3.19 5.31-.18 5.31-.18-8.32 2.48-8.68 4.07a2.83 2.83 0 0 0 2.31 3.36 5 5 0 0 1 2.3 1.07 12.3 12.3 0 0 0 1.77 3.89c1.06 1.24 4.24 1.77 7.78 1.06s9.74-3.89 11.15-4.78 44.42-4.78 47.61-5.48 7.08-.71 8.32-2.84-7.94-12.94-7.94-12.94" style="fill:#fff"/><g style="clip-path:url(#b)"><path d="M221 271c-7.39 0-5.75-7.39-8.21-6.15-2.15 1.07-10.54 2.14-12.92 4.85a3 3 0 0 0 2.17 1.76 5 5 0 0 1 2.3 1.07 12.3 12.3 0 0 0 1.77 3.89c1.06 1.24 4.24 1.77 7.78 1.06s9.74-3.89 11.15-4.78 44.42-4.78 47.61-5.48c2.57-.58 5.61-.69 7.33-1.83l1-1-4.57-4.46S228.42 271 221 271" style="fill:#fff600"/><path d="M221 271c-7.39 0-5.75-7.39-8.21-6.15-2.15 1.07-10.54 2.14-12.92 4.85a3 3 0 0 0 2.17 1.76 5 5 0 0 1 2.3 1.07 12.3 12.3 0 0 0 1.77 3.89c1.06 1.24 4.24 1.77 7.78 1.06s9.74-3.89 11.15-4.78 44.42-4.78 47.61-5.48c2.57-.58 5.61-.69 7.33-1.83l1-1-4.57-4.46S228.42 271 221 271" style="fill:#fff;opacity:.5"/></g><path d="M273 251.42s-43 11.85-49.9 11-9-3.9-10.62-3.9-6 2.13-8 1.95-4.24-.71-4.24.53 1.77 3.19 2.83 3.19 5.31-.18 5.31-.18-8.32 2.48-8.68 4.07a2.83 2.83 0 0 0 2.31 3.36 5 5 0 0 1 2.3 1.07 12.3 12.3 0 0 0 1.77 3.89c1.06 1.24 4.24 1.77 7.78 1.06s9.74-3.89 11.15-4.78 44.42-4.78 47.61-5.48 7.08-.71 8.32-2.84-7.94-12.94-7.94-12.94" style="fill:none;stroke:#263238;stroke-linecap:round;stroke-linejoin:round"/><path d="M309.32 208.06s-3.89 10.61-8.84 17.69-7.08 14.52-3.9 22.48a16.29 16.29 0 0 0 10.09 9.77s-2.48 23.36-1.77 29.56 10.26 13.45 24.6 14 26.72-4.6 26.72-9.56-10.08-31.32-10.08-36.81.88-22.65-3.9-38-21.59-20.46-32.92-9.13" style="fill:#fff600"/><g style="clip-path:url(#c)"><path d="M342.24 217.08c-2.57-8.29-8.64-13.55-15.46-14.87-3.29.73-12.28 2.83-14.52 3.36a23 23 0 0 0-2.94 2.49s-3.89 10.61-8.84 17.69c-3.33 4.75-5.37 9.66-5.4 14.77 13.06 3.09 33 8.12 31 8.68-2.87.82-15.18-5.75-11.49-1.64s23.4 23 17.65 21.34-18.47-15.19-15.18-8.62 12.31 17.24 9.44 17.24-18.06-15.19-12.73-6.16 29.55 23.4 21.75 25.45c-4.5 1.18-14.05.87-19.59 1.8a38 38 0 0 0 13.55 2.89c14.33.53 26.72-4.6 26.72-9.56s-10.08-31.32-10.08-36.81.88-22.65-3.88-38.05" style="opacity:.2"/></g><path d="M309.32 208.06s-3.89 10.61-8.84 17.69-7.08 14.52-3.9 22.48a16.29 16.29 0 0 0 10.09 9.77s-2.48 23.36-1.77 29.56 10.26 13.45 24.6 14 26.72-4.6 26.72-9.56-10.08-31.32-10.08-36.81.88-22.65-3.9-38-21.59-20.46-32.92-9.13" style="fill:none;stroke:#263238;stroke-linecap:round;stroke-linejoin:round"/><path d="M311.5 251s13 21 32 27M310 254.5s5 16.5 18 24.5M312.68 241.28s11.75-5.12 16.57-8.43M307.86 242.49s4.22.9 15.06 0" style="fill:none;stroke:#263238;stroke-linecap:round;stroke-linejoin:round"/><path d="M308.26 210.71a38.2 38.2 0 0 0-7.43 6.19c-4.07 4.25-23.72 34-23.72 34s5.84 12.22 7.61 12.57 32.57-26 35.4-29.2 4.6-9 3.72-11.51" style="fill:#fff600"/><g style="clip-path:url(#d)"><path d="M320.12 234.25c2.83-3.19 4.6-9 3.72-11.51l-7-5.4-2.24 2.31s-.15 9.06-8.21 13.95-11.49 4.93-12.72 11.08 2.87 7.8-2.05 8.62-8.21 1.23-8.21 4.52a44 44 0 0 0 .37 4.87 2.2 2.2 0 0 0 .93.76c1.78.35 32.58-26.02 35.41-29.2" style="opacity:.2"/></g><path d="M308.26 210.71a38.2 38.2 0 0 0-7.43 6.19c-4.07 4.25-23.72 34-23.72 34s5.84 12.22 7.61 12.57 32.57-26 35.4-29.2 4.6-9 3.72-11.51" style="fill:none;stroke:#263238;stroke-linecap:round;stroke-linejoin:round"/><path d="M270.39 252.65s5.49 13.1 6.72 14.52 7.79.53 9.91-1.07 1.77-4.77 1.77-4.77-8.14-14.34-9-15-1.24.89-5 2.13-5.11 1.72-4.4 4.19" style="fill:#fff;stroke:#263238;stroke-linecap:round;stroke-linejoin:round"/><path d="M279.24 174.61s-.36 5.13.53 6.72 3.36 3.19 3.36 5.31-1.77 5-1.24 6.55 3.37 1.77 3.37 1.77 5.3 6.55 6.9 8.85 2.3 1.41 4.78.71 7.78-5.31 10.79-8.85-2-14.34-8.49-21.59-16.29-7.08-18.41-5-1.59 5.53-1.59 5.53" style="fill:#fff"/><g style="clip-path:url(#e)"><path d="M293.27 169.65c-.82 4-1.64 10.87.82 15.52 3.7 7 6.57 10.67 4.52 16.42-.37 1-.75 1.92-1.12 2.72 2.64-1.13 7.44-5.35 10.24-8.64 3-3.54-2-14.34-8.49-21.59a18.8 18.8 0 0 0-5.97-4.43" style="fill:#fff600"/><path d="M293.27 169.65c-.82 4-1.64 10.87.82 15.52 3.7 7 6.57 10.67 4.52 16.42-.37 1-.75 1.92-1.12 2.72 2.64-1.13 7.44-5.35 10.24-8.64 3-3.54-2-14.34-8.49-21.59a18.8 18.8 0 0 0-5.97-4.43" style="fill:#fff;opacity:.5"/><path d="M283.13 182.22s0-2.66 3.19-.89M285.4 184.68l.42 2.45s1.94.67 3.37-1.86" style="fill:none;stroke:#263238;stroke-linecap:round;stroke-linejoin:round"/></g><path d="M279.24 174.61s-.36 5.13.53 6.72 3.36 3.19 3.36 5.31-1.77 5-1.24 6.55 3.37 1.77 3.37 1.77 5.3 6.55 6.9 8.85 2.3 1.41 4.78.71 7.78-5.31 10.79-8.85-2-14.34-8.49-21.59-16.29-7.08-18.41-5-1.59 5.53-1.59 5.53" style="fill:none;stroke:#263238;stroke-linecap:round;stroke-linejoin:round"/><path d="M273.75 166.82v.71l-.32 8.67 9.55 1.24 2.13-3.72v4.07a19.6 19.6 0 0 1 8.67 1.24c4.6 1.77 10.44 14.34 10.09 19.47s-4.78 6.19-4.25 14S312 228.05 321 223.1s10.45-11.33 14.16-10.09 9.38 8.85 12.92-1.95 1.95-17.69-6.37-26.54-14.86-8.14-15.93-15.22-3.36-16.64-11-22-18.58-5.66-28-1.59-13.03 16.51-13.03 21.11" style="fill:#263238"/><g style="clip-path:url(#f)"><path d="M279.07 170.88a.7.7 0 0 1-.19 0c-1-.23-1.16-2-1.26-6.3 0-1.12-.05-2.27-.12-3.19v-.23c-.85 1-2.65 5.25-4 9l-.94-.34c3.62-10.08 4.8-9.93 5.18-9.87.69.09.76 1 .79 1.34.07.94.1 2.11.12 3.23 0 1.78.11 4.7.48 5.31a5.3 5.3 0 0 0 1.12-1.73c1-2.08 2-3 2.92-3 1.18 0 1.8 1.62 2.24 2.77a8 8 0 0 0 .37.83c.44.12 2-1.47 2.83-2.33l.73-.74a1.84 1.84 0 0 1 1.42-.72c.56.09.83.61 1.12 1.15a4.6 4.6 0 0 0 1.13 1.53c.32.25.48.21.55.2.72-.18 1.59-2.12 2.6-4.36.23-.53.48-1.08.75-1.66s.78-1.55 1.52-1.48c.93.07 1.36 1.53 2 3.74a16.6 16.6 0 0 0 2 5c.23.28.54.6.83.57.78-.13 1.64-2.44 2.16-3.82a13 13 0 0 1 .86-2 .94.94 0 0 1 .85-.54c.74 0 1.25 1 1.94 2.36.52 1 1.23 2.41 1.82 2.64.12.05.16 0 .19 0 .39-.2.72-1.49 1-2.52a11.6 11.6 0 0 1 1.22-3.31 2 2 0 0 1 1.36-.93c1.31-.21 2.77.92 3.74 1.68-.05-.51-.16-1.21-.25-1.82-.5-3.33-.64-4.94.19-5.4.39-.21.85-.09 1.37.37a35 35 0 0 1 2.56 2.69c1.83 2.06 4.61 5.16 5.73 4.86.31-.08.48-.56.56-.94l1 .2c-.21 1-.64 1.54-1.28 1.71-1.61.42-3.8-1.87-6.74-5.16A34 34 0 0 0 319 157a1.2 1.2 0 0 0-.24-.18 17.4 17.4 0 0 0 .33 4.31c.36 2.35.43 3 0 3.27a.61.61 0 0 1-.67 0c-.17-.12-.39-.28-.63-.48-.79-.61-2.11-1.62-3-1.49a1 1 0 0 0-.69.49 11 11 0 0 0-1.08 3c-.39 1.48-.72 2.76-1.51 3.16a1.18 1.18 0 0 1-1 0c-.94-.37-1.65-1.77-2.34-3.11a10 10 0 0 0-1-1.77 12.5 12.5 0 0 0-.78 1.87c-.74 2-1.58 4.24-2.95 4.45a1.89 1.89 0 0 1-1.76-.94 17 17 0 0 1-2.17-5.31 10.3 10.3 0 0 0-1.14-3 5 5 0 0 0-.51.9c-.27.57-.52 1.13-.75 1.65-1.25 2.79-2.08 4.63-3.28 4.92a1.62 1.62 0 0 1-1.41-.39 5.4 5.4 0 0 1-1.38-1.84 2.7 2.7 0 0 0-.4-.63s-.16 0-.55.43l-.72.74c-1.66 1.7-2.72 2.72-3.63 2.65a1 1 0 0 1-.75-.46 5.8 5.8 0 0 1-.47-1c-.28-.74-.82-2.11-1.36-2.13-.16 0-.83.15-2 2.44-.86 1.63-1.47 2.33-2.09 2.33" style="fill:#575757"/><path d="M299 211.06s2.48-9.23 5-6.3 4.27 3.83 4.5 1.35 0-6.08 2.48-2.7 8.55 6.75 9 1.57 1.13-12.16 4.06-8.55 5.4 6.3 5.63 4.27 2.25-3.6 3.15-1.35 1.58 4.51 2.25-.67-2.48-10.81.9-9.46 5 5.85 5 3.38-4.06-5.41-.45-4.51 4.05 3.16 4.5 1.81-2-4.51 1.13-4.51" style="fill:none;stroke:#575757;stroke-miterlimit:10"/></g><path d="M273.75 166.82v.71l-.32 8.67 9.55 1.24 2.13-3.72v4.07a19.6 19.6 0 0 1 8.67 1.24c4.6 1.77 10.44 14.34 10.09 19.47s-4.78 6.19-4.25 14S312 228.05 321 223.1s10.45-11.33 14.16-10.09 9.38 8.85 12.92-1.95 1.95-17.69-6.37-26.54-14.86-8.14-15.93-15.22-3.36-16.64-11-22-18.58-5.66-28-1.59-13.03 16.51-13.03 21.11" style="fill:none;stroke:#263238;stroke-linecap:round;stroke-linejoin:round"/><path d="M67.23 434.36h365.94" style="fill:none;stroke:#263238;stroke-miterlimit:10"/></svg>