<svg xmlns="http://www.w3.org/2000/svg" width="800" height="800" viewBox="0 -7.98 48.891 48.891"><g data-name="cash money"><path fill="#56ae89" fill-rule="evenodd" d="M48.391.5H.5v23.946h47.891z" data-name="Path 78"/><path fill="#56ae89" fill-rule="evenodd" d="M48.391 24.446H.5v3.991h47.891z" data-name="Path 79"/><path fill="#56ae89" fill-rule="evenodd" d="M48.391 28.437H.5v3.991h47.891z" data-name="Path 80"/><path fill="#56ae89" fill-rule="evenodd" d="M48.391.5H.5v23.946h47.891z" data-name="Path 81"/><path fill="#f2f7fd" fill-rule="evenodd" d="M8.481 24.446A7.983 7.983 0 0 0 .5 16.464v7.982Z" data-name="Path 82"/><path fill="#f2f7fd" fill-rule="evenodd" d="M8.481.5A7.983 7.983 0 0 1 .5 8.482V.5Z" data-name="Path 83"/><path fill="#f2f7fd" fill-rule="evenodd" d="M40.41 24.446a7.98 7.98 0 0 1 7.982-7.982v7.982Z" data-name="Path 84"/><path fill="#f2f7fd" fill-rule="evenodd" d="M40.41.5a7.98 7.98 0 0 0 7.982 7.982V.5Z" data-name="Path 85"/><path fill="none" stroke="#0f0e0b" stroke-linecap="round" stroke-linejoin="round" d="M40.41.5a7.98 7.98 0 0 0 7.982 7.982V.5Zm0 23.946a7.98 7.98 0 0 1 7.982-7.982v7.982ZM8.481.5A7.983 7.983 0 0 1 .5 8.482V.5Zm0 23.946A7.983 7.983 0 0 0 .5 16.464v7.982Zm15.964-7.982v1m0-9.978v1m-2 5.987a2 2 0 1 0 2-2m2-1.995a2 2 0 1 0-2 1.995M48.391.5H.5v23.946h47.891zM28.436 32.428h19.955v-3.991H.5v3.991h19.954m3.492 0h1m23.447-7.982H.5v3.991h47.891v-3.991Zm0-23.946H.5v23.946h47.891V.5Z" data-name="Path 86"/></g></svg>