<svg xmlns="http://www.w3.org/2000/svg" xml:space="preserve" viewBox="0 0 512 512"><circle cx="248.008" cy="156.431" r="47.943" style="fill:#fff"/><path d="M216.455 251.989H112.162L8.325 420.134v16.05h495.35v-16.05L383.856 251.989H279.935" style="fill:#fbb03b"/><path d="M351.74 372.705H232.027l-15.982 63.479h287.63v-16.05l-31.918-47.429z" style="fill:#8cc63f"/><circle cx="375.862" cy="372.189" r="23.977" style="fill:#fff"/><path d="M384 251.989H112.162L8.325 420.134v16.05H160.26" style="fill:#f7931e"/><circle cx="248.008" cy="156.431" r="47.943" style="fill:#fff"/><path d="M248.009 76.522c-44.133 0-79.909 35.777-79.909 79.909s79.909 143.838 79.909 143.838 79.909-99.705 79.909-143.838c.001-44.132-35.776-79.909-79.909-79.909m0 127.855c-26.48 0-47.946-21.467-47.946-47.946 0-26.48 21.467-47.946 47.946-47.946 26.48 0 47.946 21.465 47.946 47.946s-21.466 47.946-47.946 47.946" style="fill:#009245"/><path d="M247.675 76.522v31.964c27.057 0 47.946 21.465 47.946 47.946 0 26.479-20.889 47.946-47.946 47.946v95.892s79.909-99.705 79.909-143.838-35.161-79.91-79.909-79.91M423.811 308.184H319.928l-15.982-56.195h79.91z" style="fill:#8cc63f"/><path d="m320 307.926-16.054-55.937H384" style="fill:#009245"/><path d="M255.975 285.643c9.324 3.284 16.006 12.17 16.006 22.617 0 13.24-10.733 23.973-23.973 23.973s-23.973-10.733-23.973-23.973c0-10.439 6.673-19.32 15.984-22.61" style="fill:#fff"/><path d="M143.61 332.119h48.462l-31.964 104.065H8.325v-16.05l55.891-88.015h48.174" style="fill:#8cc63f"/><path d="M64.216 332.119h47.946l-55.967 96.007v8.058H8.325v-16.05z" style="fill:#009245"/><circle cx="128.146" cy="332.238" r="15.982" style="fill:#fff"/><path d="M88.189 292.575h71.919l15.981-40.586h-63.927z" style="fill:#8cc63f"/><path d="M88.189 292.575h39.955l23.973-40.586h-39.955z" style="fill:#009245"/><path d="M216.455 148.969h15.61v15.61h-15.61z" style="fill:#8cc63f"/><path d="M240.39 148.969H256v15.61h-15.61z" style="fill:#fbb03b"/><path d="M264.325 148.969h15.61v15.61h-15.61z" style="fill:#8cc63f"/><path d="M387.86 244.705h-90.24c25.408-39.435 38.29-69.121 38.29-88.273 0-48.468-39.432-87.901-87.901-87.901s-87.901 39.432-87.901 87.901c0 19.152 12.882 48.838 38.29 88.273h-90.57L0 417.903v25.566h512v-25.846zm-8.009 15.61 29.136 40.585h-83.185l-11.693-40.585zM176.089 156.432c0-39.656 32.263-71.918 71.919-71.918s71.919 32.262 71.919 71.918c0 31.003-47.238 98.805-71.919 130.887-24.681-32.076-71.919-99.867-71.919-130.887m87.902 151.828c0 8.812-7.17 15.982-15.982 15.982s-15.982-7.17-15.982-15.982c0-3.934 1.455-7.622 3.92-10.468a512 512 0 0 0 5.827 7.474l6.236 7.78 6.236-7.78c.066-.081 2.245-2.809 5.828-7.475a16 16 0 0 1 3.917 10.469m-147.494-47.945h47.917l-9.588 23.935h-52.832zM15.61 427.859v-5.494l51.001-81.921h39.01c3.359 9.187 12.188 15.762 22.524 15.762s19.164-6.575 22.524-15.762h30.812l-27.114 87.415zm104.542-95.625c0-4.406 3.585-7.991 7.991-7.991s7.991 3.585 7.991 7.991-3.585 7.991-7.991 7.991-7.991-3.585-7.991-7.991m89.65 95.625h-39.093l31.955-103.024h-51.721c-3.126-9.608-12.162-16.574-22.799-16.574-10.638 0-19.673 6.966-22.8 16.574H76.329l15.548-24.976h73.512l15.84-39.545h27.537a842 842 0 0 0 17.473 24.573c-6.349 5.93-10.193 14.329-10.193 23.374 0 17.626 14.339 31.964 31.964 31.964s31.964-14.339 31.964-31.964c0-9.047-3.843-17.446-10.193-23.374a842 842 0 0 0 17.471-24.572h10.613l16.189 56.195h106.142l34.366 47.87h-47.7c-3.495-13.863-16.063-24.155-30.995-24.155s-27.501 10.293-30.995 24.155H225.828zm182.044-55.67c0 8.812-7.17 15.982-15.982 15.982s-15.982-7.17-15.982-15.982 7.17-15.982 15.982-15.982c8.813-.001 15.982 7.169 15.982 15.982m104.544 55.67H227.094l11.132-47.87h106.643c3.491 13.867 16.062 24.163 30.997 24.163s27.505-10.297 30.997-24.163h58.905l30.623 42.657v5.213z"/><path d="M256 220.77v-8.981c27.07-3.89 47.946-27.227 47.946-55.357 0-30.844-25.093-55.937-55.936-55.937-30.844 0-55.937 25.093-55.937 55.937 0 28.259 21.067 51.675 48.318 55.404v8.934zm-47.946-64.338c0-22.031 17.924-39.955 39.956-39.955 22.031 0 39.955 17.924 39.955 39.955 0 22.032-17.924 39.956-39.955 39.956-22.033-.002-39.956-17.925-39.956-39.956"/></svg>