<svg xmlns="http://www.w3.org/2000/svg" xml:space="preserve" width="800" height="800" fill="#fff" stroke="#fff" viewBox="-3.94 0 122.88 122.88"><path d="M36.37 82.46c-2.88-3.29-5.86-6.71-8.22-11.74-2.31-4.96-3.59-10.08-3.55-15.4.05-5.32 1.4-10.8 4.34-16.46.02-.04.04-.07.06-.11 3.85-6.52 9.24-10.88 15.24-13.32 5.03-2.06 10.5-2.76 15.86-2.27 5.34.49 10.57 2.17 15.14 4.87 5.81 3.44 10.59 8.54 13.22 14.98 1.42 3.49 2.38 7.38 2.5 11.64.12 4.25-.61 8.83-2.57 13.67-3 7.43-10.01 15.39-14.6 22.7-.25-.05-.51-.06-.77-.02l-6.19.92 9.43-32.8c.27-.93-.28-1.9-1.21-2.17-.93-.26-1.9.28-2.17 1.21L63.01 92.5l-9.36 1.39-9.89-31.44c.71.14 1.46-.17 1.85-.83l7.01-11.93 3.57 8.19c.39.89 1.42 1.29 2.3.91.44-.19.76-.55.93-.96l3.16-7.98 3.7 9.76a1.75 1.75 0 0 0 2.26 1.02 1.75 1.75 0 0 0 1.02-2.26l-5.27-13.9c-.15-.49-.52-.91-1.03-1.11-.9-.36-1.92.09-2.28.99l-3.27 8.27-3.26-7.48a1.7 1.7 0 0 0-.72-.81c-.83-.49-1.91-.21-2.39.62l-8.52 14.5-.61-1.93a1.75 1.75 0 0 0-2.19-1.15 1.75 1.75 0 0 0-1.15 2.19l11.27 35.85-6.78 1.01c-1.64-4.85-4.14-9.69-6.99-12.96zM14.26 18.49a3.95 3.95 0 0 1-1.25-2.73c-.04-1 .31-2.02 1.04-2.81a3.95 3.95 0 0 1 2.73-1.25c1-.04 2.02.31 2.81 1.04l6.28 5.85a3.95 3.95 0 0 1 1.25 2.73c.04 1.01-.31 2.02-1.04 2.81a3.95 3.95 0 0 1-2.73 1.25c-1.01.04-2.02-.31-2.81-1.04l-6.28-5.85zM3.99 61.66A3.92 3.92 0 0 1 0 57.86c-.04-1.08.37-2.08 1.06-2.81s1.65-1.2 2.74-1.23l8.57-.29c1.08-.04 2.08.37 2.81 1.06s1.2 1.65 1.23 2.74v.06h.01l-.01.14a3.94 3.94 0 0 1-1.06 2.61c-.69.73-1.65 1.19-2.74 1.23h-.06v.01h-.09l-8.47.28zm106.72-12.15.13-.01c1.02-.06 1.97.27 2.71.87.78.63 1.31 1.57 1.43 2.64v.04c.01 0 .01.11.01.13.06 1.02-.27 1.97-.87 2.71-.63.78-1.57 1.31-2.64 1.43l-8.53.9c-1.08.11-2.1-.23-2.87-.86a3.91 3.91 0 0 1-.57-5.51c.63-.78 1.57-1.32 2.64-1.43 2.85-.31 5.71-.64 8.56-.91zm-16.9-34.14c.61-.9 1.51-1.46 2.49-1.66.98-.19 2.03-.01 2.94.59l.01.01c.9.6 1.47 1.51 1.66 2.49s.01 2.03-.59 2.94l-4.77 7.13c-.6.9-1.51 1.47-2.5 1.67-.98.19-2.03.01-2.94-.59-.9-.6-1.47-1.52-1.67-2.5-.19-.98-.01-2.03.59-2.94l4.78-7.14zM56.77 3.83a3.9 3.9 0 0 1 1.22-2.75C58.7.4 59.68-.01 60.74 0v-.01c.09 0 .18.01.27.02.99.08 1.88.53 2.52 1.2.68.71 1.09 1.68 1.08 2.75h.01c0 .07 0 .14-.01.2l-.21 8.37h.01c0 .09-.01.18-.02.27-.08 1-.53 1.88-1.2 2.52-.72.68-1.69 1.09-2.75 1.08v.01c-.09 0-.18-.01-.27-.02-1-.08-1.88-.53-2.52-1.2a3.94 3.94 0 0 1-1.08-2.75h-.01c0-.07 0-.14.01-.2l.2-8.41zm14.65 92.01-.63 2.95-.16 2.1-25.33 3.77c-.09-1.51-.33-3.14-.71-4.83l26.83-3.99zm-.84 9.65.02 1.27.03.44c.07.83.08 1.67.03 2.5l-.38 1.83-23.53 3.5-.41-.94-.92-3.76-.02-1.09 25.18-3.75zm-1.85 10.86c-1.22 2.09-2.9 3.72-4.82 4.83-1.71 1-3.62 1.57-5.53 1.69-1.94.12-3.9-.25-5.69-1.11-1.22-.6-2.36-1.43-3.37-2.51l19.41-2.9z"/></svg>