<svg xmlns="http://www.w3.org/2000/svg" xml:space="preserve" width="800" height="800" viewBox="0 0 512 512"><path d="M299.322 205.978c16.095-9.661 36.126-21.684 36.126-51.496 0-21.905-17.82-39.724-39.724-39.724-21.905 0-39.724 17.82-39.724 39.724a8.829 8.829 0 0 0 17.656 0c0-12.169 9.9-22.069 22.069-22.069s22.069 9.9 22.069 22.069c0 18.86-10.472 26.103-27.557 36.359-15.254 9.156-34.237 20.55-34.237 47.504a8.83 8.83 0 0 0 8.828 8.828h61.793a8.829 8.829 0 0 0 0-17.656h-51.77c3.055-10.165 11.815-15.941 24.471-23.539M423.724 203.034h-8.828v-79.448a8.829 8.829 0 0 0-17.656 0v79.448h-33.37l15.543-77.717a8.83 8.83 0 0 0-6.925-10.388 8.827 8.827 0 0 0-10.388 6.925l-17.655 88.276a8.826 8.826 0 0 0 8.657 10.559h44.138v17.655a8.829 8.829 0 0 0 17.656 0V220.69h8.828a8.829 8.829 0 0 0 0-17.656" style="fill:#ff6464"/><path d="M150.069 114.759c-63.379 0-114.759 51.379-114.759 114.759v203.034h229.517V229.517c.001-63.379-51.379-114.758-114.758-114.758" style="fill:#5a4146"/><path d="M512 176.552C512 79.2 432.799 0 335.448 0 270.4 0 210.807 35.605 179.925 92.919a8.828 8.828 0 0 0 15.543 8.374c27.797-51.59 81.434-83.638 139.98-83.638 87.616 0 158.897 71.281 158.897 158.897s-71.281 158.897-158.897 158.897c-1.692 0-3.386-.036-5.081-.089l11.324-11.324a8.825 8.825 0 0 0 0-12.483 8.825 8.825 0 0 0-12.483 0l-26.483 26.483a8.825 8.825 0 0 0 0 12.483l26.483 26.483a8.8 8.8 0 0 0 6.242 2.585 8.8 8.8 0 0 0 6.242-2.585 8.825 8.825 0 0 0 0-12.483l-11.498-11.497c1.752.05 3.506.083 5.255.083C432.799 353.103 512 273.903 512 176.552" style="fill:#e4eaf6"/><path d="m283.841 434.589-78.77-32.821a17.66 17.66 0 0 1-10.865-16.298v-22.435H105.93v22.436a17.66 17.66 0 0 1-10.865 16.298l-78.77 32.821A26.48 26.48 0 0 0 0 459.034v35.31C0 504.095 7.905 512 17.655 512h264.828c9.75 0 17.655-7.905 17.655-17.655v-35.31a26.48 26.48 0 0 0-16.297-24.446" style="fill:#e6af78"/><path d="m283.841 434.589-63.644-26.518c-13.364 25.064-39.742 42.136-70.129 42.136s-56.765-17.073-70.129-42.136l-63.644 26.518A26.48 26.48 0 0 0 0 459.034v35.31C0 504.095 7.905 512 17.655 512h264.828c9.75 0 17.655-7.905 17.655-17.655v-35.31a26.48 26.48 0 0 0-16.297-24.446" style="fill:#e4eaf6"/><path d="M16.297 434.589A26.48 26.48 0 0 0 0 459.034v35.31C0 504.095 7.905 512 17.655 512h88.276c-26.483-44.138-42.295-97.134-42.295-97.134zM283.841 434.589a26.48 26.48 0 0 1 16.297 24.446v35.31c0 9.75-7.905 17.655-17.655 17.655h-88.276c26.483-44.137 42.295-97.134 42.295-97.134z" style="fill:#d2555a"/><path d="M194.207 363.034h-88.276v22.436a17.66 17.66 0 0 1-10.865 16.298l-12.302 5.127c94.144 24.005 111.443-43.861 111.443-43.861" style="fill:#d29b6e"/><path d="M43.027 468.738 7.593 440.554C2.846 445.409 0 451.974 0 459.034v35.31C0 504.095 7.905 512 17.655 512h35.31v-22.582a26.48 26.48 0 0 0-9.938-20.68" style="fill:#c04b50"/><path d="M143.844 209.469c-19.671 20.583-45.173 35.471-73.823 42.26-4.348 1.031-7.364 4.958-6.959 9.408l5.867 64.54a35.31 35.31 0 0 0 18.017 27.669l45.974 25.54a35.31 35.31 0 0 0 34.296 0l45.974-25.54a35.31 35.31 0 0 0 18.017-27.669l5.867-64.54c.405-4.45-2.612-8.377-6.959-9.408-28.65-6.79-54.152-21.677-73.823-42.26-3.365-3.521-9.081-3.521-12.448 0" style="fill:#f0c087"/><path d="M156.281 209.458c-3.364-3.521-9.069-3.512-12.441.001-11.252 11.721-24.447 21.517-38.984 29.107-10.923 5.71-22.581 10.211-34.857 13.158-4.335 1.041-7.342 4.952-6.94 9.393l5.869 64.561a35.31 35.31 0 0 0 18.018 27.671l45.973 25.54c3.822 2.123 7.945 3.454 12.147 4.055l-13.33-23.995a79.4 79.4 0 0 1-9.671-31.389l-5.764-63.417c-.598-6.574 2.496-12.977 8.108-16.452 9.151-5.667 17.771-12.174 25.66-19.556 23.357 21.858 52.761 36.759 84.538 42.572l.554.102.559.066.463.054.89-9.789c.405-4.45-2.612-8.377-6.959-9.408-28.654-6.793-54.159-21.686-73.833-42.274" style="fill:#e6af78"/><path d="M220.198 408.071c-13.364 25.064-39.742 42.136-70.129 42.136s-56.765-17.073-70.129-42.136l-16.305 6.794c16.075 31.434 48.703 52.997 86.433 52.997s70.358-21.564 86.433-52.997z" style="fill:#d7deed"/><path d="M237.689 307.552c-.439 1.5-11.5 36.724-78.793 36.724v17.655c81.655 0 95.285-47.706 95.828-49.741z" style="fill:#464655"/><circle cx="158.897" cy="353.103" r="8.828" style="fill:#5b5d6e"/><path d="M247.172 264.828h-10.433l-4.815 52.966h15.249a8.83 8.83 0 0 0 8.828-8.828v-35.31a8.83 8.83 0 0 0-8.829-8.828M63.399 264.828H52.966a8.83 8.83 0 0 0-8.828 8.828v35.31a8.83 8.83 0 0 0 8.828 8.828h15.247z" style="fill:#707487"/><path d="M53.652 419.025c8.16 23.823 21.286 59.261 37.422 92.975h19.62c-17.519-35.277-32.043-74.578-40.679-99.794zM257.111 468.738l35.433-28.184c4.747 4.855 7.593 11.42 7.593 18.481v35.31c0 9.75-7.905 17.655-17.655 17.655h-35.31v-22.582a26.48 26.48 0 0 1 9.939-20.68M246.486 419.025c-8.16 23.823-21.286 59.261-37.422 92.975h-19.62c17.519-35.277 32.043-74.578 40.679-99.794z" style="fill:#c04b50"/></svg>