<svg xmlns="http://www.w3.org/2000/svg" xml:space="preserve" viewBox="237.07 220.17 1710.11 1619.86"><path d="M1639.191 1674.082c-.707 3.797-.973 7.711-.906 11.559.148 8.984 1.785 17.898 2.02 26.879.52 19.941-11.758 35.133-5.813 55.836 2.719 9.461 12.914 27.27 24.301 27.016 11.336-.254 18.324-12.555 21.59-21.691 4.957-13.863 9.703-26.531 16.723-39.633 3.391-6.328 6.695-12.836 9.375-19.523-24.535-10.883-46.449-23.754-62.074-35.945a73 73 0 0 1-5.216-4.498M1892.48 1698.84c2.754 2.953 5.434 5.98 8.242 8.879 8.008 8.27 18.293 16.992 29.559 14.684 9.336-1.914 15.711-11.363 16.723-20.832 1.008-9.477-2.293-18.879-6.379-27.492-9.918-20.945-24.586-39.156-40.793-55.559.465 4.578.918 9.168 1.254 13.773 1.625 22.07-.043 46.641-8.606 66.547M1904.43 1762.18c-3.215-18.164-9.805-35.449-18.059-51.887-5.387 8.273-12.402 15.242-21.535 20.078-8.949 4.738-19.059 7.73-29.914 9.32 6.848 15.059 14.18 29.902 22.148 44.406 5.531 10.09 13.152 21.215 24.629 21.961 9.512.617 18.152-6.813 21.629-15.68 3.477-8.874 2.77-18.812 1.102-28.198M1764.23 1734.398c.316 1.496.637 2.984.977 4.469a658 658 0 0 0 14.289 53.348c3.438 10.977 8.711 23.387 19.82 26.383 9.195 2.48 19.141-3.098 24.293-11.113 5.156-8.008 6.426-17.895 6.645-27.422.309-13.273-1.219-26.438-3.883-39.395-19.367 1.496-40.726-1.082-62.141-6.27" style="fill:#1f2a50"/><path d="M1607.527 1198.008c2.715 21.82 2.129 44.055-1.93 65.668-3.898 20.777-8.844 41.746-8.191 63.027 1.137 37.313 21.805 78.73 36.902 112.34a764 764 0 0 0 12.504 26.5c31.801 64.063 74.477 125.477 134.633 164.887 15.164 9.906 31.961 18.539 50.051 19.406 19.117.918 37.809-7.055 53.16-18.488 3.797-2.832 9.016-8.824 14.922-15.547-19.293-180.422-135.613-343.09-278.965-449.879-3.773-2.813-8.055-5.949-12.648-9.113 2.82 13.105 2.101 27.336-.438 41.199" style="fill:#ebf2e5"/><path d="M1886.371 1710.293c2.344-3.586 4.371-7.414 6.109-11.453 8.563-19.906 10.23-44.477 8.605-66.547-.336-4.605-.789-9.195-1.254-13.773-.09-.91-.152-1.816-.254-2.719-5.906 6.723-11.125 12.715-14.922 15.547-15.352 11.434-34.043 19.406-53.16 18.488-18.09-.867-34.887-9.5-50.051-19.406-60.156-39.41-102.832-100.824-134.633-164.887a764 764 0 0 1-12.504-26.5c-15.098-33.609-35.766-75.027-36.902-112.34-.652-21.281 4.293-42.25 8.191-63.027 4.059-21.613 4.645-43.848 1.93-65.668-.105.586-.203 1.18-.32 1.766-1.148 5.902-2.609 11.734-4.273 17.363-.773 2.621-1.617 5.219-2.457 7.824.496 3.898.578 7.84.223 11.648-1.504 16.25-8.898 31.254-14.367 46.625-9.113 25.609-11.809 51.645-10.941 77.773 1.211 36.297 9.297 72.781 16.598 108.527 21.461 105.023 79.719 203.5 168.934 264.035 1.102.281 2.207.563 3.309.828 21.414 5.188 42.773 7.766 62.141 6.27 2.902-.227 5.742-.566 8.551-.977 10.855-1.59 20.965-4.582 29.914-9.32 9.131-4.835 16.146-11.804 21.533-20.077" style="fill:#c6cad6"/><path d="M1591.988 1469.535c-7.301-35.746-15.387-72.23-16.598-108.527-.867-26.129 1.828-52.164 10.941-77.773 5.469-15.371 12.863-30.375 14.367-46.625.355-3.809.273-7.75-.223-11.648-14.805 45.672-40.008 87.93-73.117 122.688-3.504 16.031-7.5 31.969-11.887 47.82a1016 1016 0 0 1 46.305 88.789c.484 1.066.977 2.129 1.465 3.195a1013 1013 0 0 1 40.883 104.699c9.715 29.637 12.289 60.398 35.066 81.93a73 73 0 0 0 5.215 4.496c15.625 12.191 37.539 25.063 62.074 35.945 17.266 7.66 35.832 14.305 54.441 19.047-89.213-60.536-147.471-159.012-168.932-264.036" style="fill:#a1a8c3"/><path d="M1546.332 1109.641a221.1 221.1 0 0 1 15.16 71.02c.234 5.285.344 10.824 2.93 15.449 2.125 3.805 6.5 5.938 11.688 6.965 9.426 1.859 21.551.078 27.82-1.906 1.102-.352 2.188-.844 3.277-1.395.117-.586.215-1.18.32-1.766 2.539-13.863 3.258-28.094.438-41.199-1.938-8.977-5.508-17.438-11.289-24.867-11.805-15.152-31.277-22.801-50.602-22.563.016.227.031.457.039.68q.115-.207.219-.418" style="fill:#203a73"/><path d="M1576.109 1203.074c-5.188-1.027-9.563-3.16-11.688-6.965-2.586-4.625-2.695-10.164-2.93-15.449a221.1 221.1 0 0 0-15.16-71.02q-.103.212-.219.418c.367 6.203.719 12.402.949 18.609a864 864 0 0 1-.449 73.582c-.996 20.535-2.645 41.035-5.09 61.465-3.359 28.141-8.105 56.16-14.164 83.934 33.109-34.758 58.313-77.016 73.117-122.688.84-2.605 1.684-5.203 2.457-7.824 1.664-5.629 3.125-11.461 4.273-17.363-1.09.551-2.176 1.043-3.277 1.395-6.268 1.984-18.393 3.766-27.819 1.906M539.852 1678.578c-15.625 12.191-37.539 25.063-62.07 35.945 2.676 6.688 5.984 13.195 9.371 19.523 7.02 13.102 11.766 25.77 16.723 39.633 3.266 9.137 10.254 21.438 21.594 21.691 11.387.254 21.582-17.555 24.297-27.016 5.941-20.703-6.332-35.895-5.813-55.836.238-8.98 1.871-17.895 2.023-26.879.063-3.848-.203-7.762-.91-11.559a72 72 0 0 1-5.215 4.498M283.172 1632.293c.34-4.605.793-9.195 1.258-13.773-16.207 16.402-30.875 34.613-40.797 55.559-4.082 8.613-7.387 18.016-6.375 27.492 1.008 9.469 7.387 18.918 16.719 20.832 11.273 2.309 21.555-6.414 29.559-14.684 2.809-2.898 5.488-5.926 8.242-8.879-8.563-19.906-10.227-44.477-8.606-66.547M297.887 1710.293c-8.246 16.438-14.84 33.723-18.059 51.887-1.664 9.387-2.371 19.324 1.105 28.199 3.473 8.867 12.117 16.297 21.625 15.68 11.48-.746 19.098-11.871 24.637-21.961 7.961-14.504 15.297-29.348 22.148-44.406-10.859-1.59-20.973-4.582-29.918-9.32-9.136-4.837-16.148-11.806-21.538-20.079M357.887 1740.668c-2.664 12.957-4.188 26.121-3.883 39.395.223 9.527 1.488 19.414 6.644 27.422 5.156 8.016 15.098 13.594 24.293 11.113 11.109-2.996 16.383-15.406 19.82-26.383a661 661 0 0 0 14.297-53.348c.332-1.484.652-2.973.973-4.469-21.414 5.188-42.773 7.766-62.144 6.27" style="fill:#1f2a50"/><path d="M302.652 1631.48c15.348 11.438 34.043 19.41 53.16 18.492 18.09-.867 34.891-9.5 50.051-19.41 60.152-39.41 102.828-100.816 134.633-164.879a757 757 0 0 0 12.504-26.5c15.098-33.609 35.762-75.027 36.902-112.344.652-21.281-4.293-42.25-8.195-63.023-3.457-18.422-4.344-37.289-2.875-55.973-4.113-16.84-6.023-34.801-2.535-51.035-4.598 3.164-8.875 6.301-12.648 9.113-142.578 106.211-258.398 267.695-278.633 446.949 7.023 7.923 13.273 15.36 17.636 18.61" style="fill:#ebf2e5"/><path d="M595.32 1469.676c7.305-35.754 15.391-72.23 16.598-108.535.867-26.125-1.828-52.16-10.941-77.77-5.473-15.371-12.863-30.383-14.371-46.625a56 56 0 0 1-.219-4.129c-1.805-5.121-3.519-10.273-5.063-15.48a203 203 0 0 1-2.269-8.406l-.223-.887c-1.469 18.684-.582 37.551 2.875 55.973 3.902 20.773 8.848 41.742 8.195 63.023-1.141 37.316-21.805 78.734-36.902 112.344a757 757 0 0 1-12.504 26.5c-31.805 64.063-74.48 125.469-134.633 164.879-15.16 9.91-31.961 18.543-50.051 19.41-19.117.918-37.813-7.055-53.16-18.492-4.363-3.25-10.613-10.688-17.637-18.609-.215 1.879-.395 3.762-.586 5.648-.465 4.578-.918 9.168-1.258 13.773-1.621 22.07.043 46.641 8.605 66.547 1.738 4.039 3.77 7.867 6.109 11.453 5.391 8.273 12.402 15.242 21.539 20.078 8.945 4.738 19.059 7.73 29.918 9.32 2.801.41 5.641.75 8.543.977 19.371 1.496 40.73-1.082 62.145-6.27a322 322 0 0 0 8.582-2.223c87.954-60.659 145.431-158.359 166.708-262.499" style="fill:#c6cad6"/><path d="M586.387 1232.617q.033 2.076.219 4.129c1.508 16.242 8.898 31.254 14.371 46.625 9.113 25.609 11.809 51.645 10.941 77.77-1.207 36.305-9.293 72.781-16.598 108.535-21.277 104.141-78.754 201.84-166.707 262.5 16.832-4.617 33.531-10.723 49.168-17.652 24.531-10.883 46.445-23.754 62.07-35.945a72 72 0 0 0 5.215-4.496c22.781-21.531 25.359-52.293 35.066-81.93a1012 1012 0 0 1 40.887-104.699c.484-1.066.977-2.129 1.465-3.195 13.086-28.438 27.566-56.23 43.227-83.336-5.594-19.723-10.438-39.613-14.648-59.621-28.43-31.505-50.563-68.669-64.676-108.685" style="fill:#a1a8c3"/><path d="M578.832 1207.844q.11.45.223.887a15.1 15.1 0 0 0 6.269 1.012c6.414-.352 15.375-3.73 21.965-8.516 3.121-2.266 5.707-4.852 7.242-7.574 2.168-3.863 2.68-8.395 3.273-12.777 2.598-19.184 7.668-38.02 14.957-55.957.211-5.156.574-10.301.883-15.453-17.785.926-35.184 8.512-46.059 22.477-5.785 7.43-9.355 15.883-11.289 24.867-3.487 16.233-1.577 34.194 2.536 51.034" style="fill:#203a73"/><path d="M632.582 1131.906c.074-2.324.082-4.66.18-6.988-7.289 17.938-12.359 36.773-14.957 55.957-.594 4.383-1.106 8.914-3.273 12.777-1.535 2.723-4.121 5.309-7.242 7.574-6.59 4.785-15.551 8.164-21.965 8.516a15 15 0 0 1-6.269-1.012 206 206 0 0 0 2.269 8.406c1.543 5.207 3.258 10.359 5.063 15.48 14.113 40.016 36.246 77.18 64.676 108.684a884 884 0 0 1-8.269-44.91c-1.715-10.871-3.289-21.762-4.594-32.676-5.228-43.745-7.076-87.819-5.619-131.808M843.273 1707.469c2.145 4.078 4.367 8.117 6.758 12.07 54.078 51.715 122.715 88.082 195.934 103.609 44.465 9.434 90.5 11.164 135.566 5.395 27.883-7.715 54.48-19.484 78.605-35.719 31.883-21.438 58.48-51.34 76.359-85.375-110.515 41.196-382.655 41.199-493.222.02" style="fill:#1f2a50"/><path d="M1547.063 1128.668c-57.539 25.898-118.227 45.348-180.215 58.719-39.934 8.613-80.438 14.77-121.18 18.582-95.484 8.922-193.102 4.102-288.266-6.922-112.945-13.09-221.027-28.648-324.82-67.141-1.457 43.988.391 88.063 5.617 131.809 1.305 10.914 2.879 21.805 4.594 32.676 44.707 35.145 90.465 68.961 140.234 96.316 129.805 71.344 307.969 104.215 454.051 66.551 1.84-.477 3.68-.961 5.512-1.461 67.719-18.391 141.313-88.766 192.047-134.875 40.652-36.953 78.117-77.402 111.977-120.672a864 864 0 0 0 .449-73.582" style="fill:#ebf2e5"/><path d="M998.406 1669.434c-82.406-8.313-163.84-27.035-241.465-55.941 13.555 22.941 28.109 45.387 43.773 67.191 7.41 10.316 22.297 19.234 42.559 26.785 110.566 41.18 382.707 41.176 493.223-.02 20.242-7.547 35.109-16.457 42.516-26.766 14.449-20.109 27.91-40.793 40.563-61.875-12.328 4.359-24.719 8.555-37.223 12.406-123.786 38.122-255.079 51.227-383.946 38.22" style="fill:#c6cad6"/><path d="M1541.523 1263.715c2.445-20.43 4.094-40.93 5.09-61.465-33.859 43.27-71.324 83.719-111.977 120.672-50.734 46.109-124.328 116.484-192.047 134.875-1.832.5-3.672.984-5.512 1.461-146.082 37.664-324.246 4.793-454.051-66.551-49.77-27.355-95.527-61.172-140.234-96.316q3.552 22.546 8.269 44.91c4.211 20.008 9.055 39.898 14.648 59.621 20.281 71.52 49.582 140.898 87.422 206.16 26.508 10.051 53.457 18.957 80.777 26.598 123.59 34.57 253.781 44.387 381.145 28.598 70.922-8.789 140.992-25.391 208.262-49.664a901.6 901.6 0 0 0 92.156-217.145c4.387-15.852 8.383-31.789 11.887-47.82 6.06-27.774 10.806-55.794 14.165-83.934" style="fill:#c6cad6"/><path d="M1215.055 1662.277c-127.363 15.789-257.555 5.973-381.145-28.598-27.32-7.641-54.27-16.547-80.777-26.598 1.246 2.145 2.543 4.273 3.809 6.41 77.625 28.906 159.059 47.629 241.465 55.941 128.867 13.008 260.16-.098 383.945-38.219 12.504-3.852 24.895-8.047 37.223-12.406 1.246-2.066 2.52-4.117 3.742-6.195-67.27 24.275-137.34 40.876-208.262 49.665" style="fill:#203a73"/><path d="M632.582 1131.906c103.793 38.492 211.875 54.051 324.82 67.141 95.164 11.023 192.781 15.844 288.266 6.922 40.742-3.813 81.246-9.969 121.18-18.582 61.988-13.371 122.676-32.82 180.215-58.719-.23-6.207-.582-12.406-.949-18.609a20 20 0 0 0-.039-.68c-.336-5.648-.672-11.297-1.117-16.941-146.668 14.332-763.527 14.332-910.184 0-.453 5.672-.793 11.348-1.129 17.027-.309 5.152-.672 10.297-.883 15.453-.098 2.328-.106 4.664-.18 6.988" style="fill:#a1a8c3"/><path d="M440.098 646.488c5.07-22.133 12.906-59.777 14.438-65.09 7.582-26.324 16.617-52.266 27.195-77.539 1.848-4.41 4.164-10.68 6.992-17.371 9.547-32.883 21.035-65.031 34.32-96.016q2.232-5.197 4.512-10.383c-24.809 5.387-45.977 12.105-54.504 19.234-13.348 11.16-22.184 25.813-30.188 40.434-34.191 62.488-52.836 127.359-57.84 192.644 11.91 8.34 24.348 15.926 37.324 22.484 7.219 3.646 15.946-.518 17.751-8.397M1736.859 439.758c-8-14.621-16.832-29.273-30.188-40.434-8.535-7.137-29.73-13.859-54.563-19.246a599 599 0 0 1 4.57 10.395c19.867 46.32 35.77 95.223 47.027 145.344 4.844 7.082 9.566 12.117 12.586 20.602 7.414 20.848 13.645 41.879 21.27 62.57 2.332 6.328 4.793 12.621 7.461 18.867 18.508-7.75 34.098-18.5 46.875-32.113-7.573-56.259-25.502-112.013-55.038-165.985" style="fill:#203a73"/><path d="M1796.141 668.07c-.023-20.805-1.453-41.598-4.242-62.328-12.777 13.613-28.367 24.363-46.875 32.113-2.668-6.246-5.129-12.539-7.461-18.867-7.625-20.691-13.855-41.723-21.27-62.57-3.02-8.484-7.742-13.52-12.586-20.602 9.5 42.285 15.676 85.438 18.105 128.644 4.047 72.195-2.363 144.543-21.305 213.246-7.887 28.609-18.754 59.293-32.875 88.981 26.441-7.394 49.297-16.125 57.836-24.332 12.547-12.055 20.352-27.285 27.32-42.426 35.208-76.472 48.603-154.777 43.353-231.859M457.012 687.059c1.727-67.691 12.852-135.586 31.711-200.57-2.828 6.691-5.145 12.961-6.992 17.371-10.578 25.273-19.613 51.215-27.195 77.539-1.531 5.313-9.367 42.957-14.438 65.09-1.805 7.879-10.531 12.043-17.75 8.398-12.977-6.559-25.414-14.145-37.324-22.484-.91 11.883-1.422 23.773-1.438 35.668-5.254 77.082 8.145 155.387 43.352 231.859 6.969 15.141 14.773 30.371 27.316 42.426 8.539 8.207 31.398 16.938 57.844 24.332-14.125-29.688-24.992-60.371-32.879-88.981-16.961-61.535-23.852-125.996-22.207-190.648" style="fill:#1f2a50"/><path d="M1703.707 535.816c-11.258-50.121-27.16-99.023-47.027-145.344a614 614 0 0 0-4.57-10.395c-20.461-45.559-45.973-87.469-87.086-118.902-72.703-55.574-868.621-53.762-950.316 0-43.254 28.465-66.949 72.961-87.152 118.914q-2.28 5.186-4.512 10.383c-13.285 30.984-24.774 63.133-34.32 96.016-18.859 64.984-29.984 132.879-31.711 200.57a379 379 0 0 0 41.426 41.106c21.277 18.098 47.324 46.512 75.832 26.824 22.34-15.426 17.945-43.313 20.07-67.152 2.242-25.16 4.777-50.637 10.668-75.25a491 491 0 0 1 12.496-43.313c11.402-58.824 35.133-114.684 76.844-158.66 10.785-11.371 205.391-15.465 395.516-14.496 190.125-.969 384.73 3.125 395.516 14.496 35.176 37.086 57.539 82.637 70.539 131.273 3.156 6.359 6.141 12.801 8.883 19.348 10.094 24.133 16.484 47.883 19.969 73.684l11.277 83.707c1.941 14.371 17.145 22.981 30.379 17.059 26.379-11.801 51.074-26.543 72.375-46.129a198 198 0 0 0 23.012-25.094c-2.432-43.207-8.608-86.359-18.108-128.645" style="fill:#ebf2e5"/><path d="M1721.813 664.461a198 198 0 0 1-23.012 25.094c-21.301 19.586-45.996 34.328-72.375 46.129-13.234 5.922-28.438-2.688-30.379-17.059l-11.277-83.707c-3.484-25.801-9.875-49.551-19.969-73.684-2.742-6.547-5.727-12.988-8.883-19.348 8.629 32.309 13.145 65.973 14.461 99.453a382.4 382.4 0 0 1 6.152 55.066c2.824 73.055-17.922 244.629-63.289 266.328-50.891 24.336-753.715 1.047-804.211-3.094-41.961-3.441-55.938-25.691-68.449-65.734-10.781-34.523-17.258-71.176-19.078-108.004-13.254-65.301-18.227-143.258-4-216.629a491 491 0 0 0-12.496 43.313c-5.891 24.613-8.426 50.09-10.668 75.25-2.125 23.84 2.27 51.727-20.07 67.152-28.508 19.688-54.555-8.727-75.832-26.824a378.6 378.6 0 0 1-41.426-41.106c-1.645 64.652 5.246 129.113 22.207 190.648 7.887 28.609 18.754 59.293 32.879 88.981 22.117 46.496 52.289 90.527 91.996 120.133 2.777 2.066 13.516 3.941 30.68 5.617 146.656 14.332 763.516 14.332 910.184 0 17.16-1.676 27.902-3.551 30.676-5.617 39.707-29.605 69.875-73.637 92-120.133 14.121-29.688 24.988-60.371 32.875-88.981 18.94-68.701 25.35-141.049 21.304-213.244" style="fill:#c6cad6"/><path d="M1493.906 936.176c-12.051 7.113-210.289 10.582-404.043 10.41-193.754.172-391.996-3.297-404.043-10.41-20.844-12.313-48.481-72.25-64.316-150.273 1.82 36.828 8.297 73.481 19.078 108.004 12.512 40.043 26.488 62.293 68.449 65.734 50.496 4.141 753.32 27.43 804.211 3.094 45.367-21.699 66.113-193.273 63.289-266.328a382.5 382.5 0 0 0-6.152-55.066c5.516 139.495-43.828 275.553-76.473 294.835" style="fill:#a1a8c3"/><path d="M1570.379 641.34c-1.316-33.48-5.832-67.144-14.461-99.453-13-48.637-35.363-94.188-70.539-131.273-10.785-11.371-205.391-15.465-395.516-14.496-190.125-.969-384.73 3.125-395.516 14.496-41.711 43.977-65.441 99.836-76.844 158.66-14.227 73.371-9.254 151.328 4 216.629 15.836 78.023 43.473 137.961 64.316 150.273 12.047 7.113 210.289 10.582 404.043 10.41 193.754.172 391.992-3.297 404.043-10.41 32.646-19.282 81.99-155.34 76.474-294.836" style="fill:#1f2a50"/><path d="M685.859 628.66c-6.141 30.84-11.141 63.57-.371 93.113 17.281 47.387 69.109 51.375 112.555 49.574 1.703-.07 3.418-.168 5.121-.238-6.926-13.289-10.535-28.598-11.445-43.223-2.25-36.07 1.68-175.285 19.848-195.031 26.5-28.797 83.652-29.102 110.426 0 18.168 19.754 22.098 158.961 19.848 195.031-.734 11.762-3.219 23.953-7.758 35.191 66.047-5.352 132.195-12.813 197.418-23.227 35.516-5.672 70.871-12.32 106.043-19.828-1.363-45.043 3.152-168.648 20.191-187.168 26.5-28.797 83.648-29.102 110.426 0 12.984 14.117 18.691 89.23 20.078 144.121 16.914-8.231 32.961-18.621 48.008-32.539 30.836-28.535 56.305-74.883 36-116.613-11.508-23.672-33.707-40.797-57.848-51.289-24.137-10.488-50.367-15.059-76.336-19.309-171.695-28.105-348.422-46.078-518.852-11.098-21.227 4.355-44.723 9.152-63.715 20.094-16.738 9.645-25.207 27.844-33.645 45.023-18.124 36.912-27.999 77.279-35.992 117.416" style="fill:#203a73"/><path d="M921.992 532.856c-26.773-29.102-83.926-28.797-110.426 0-18.168 19.746-22.098 158.961-19.848 195.031.91 14.625 4.52 29.934 11.445 43.223 5.5 10.563 13.094 19.859 23.117 26.516 21.746 14.445 58.551 14.91 80.996 0 12.492-8.301 21.211-20.695 26.805-34.547 4.539-11.238 7.023-23.43 7.758-35.191 2.251-36.072-1.679-175.279-19.847-195.032M1257.734 532.856c-17.039 18.519-21.555 142.125-20.191 187.168.09 2.981.207 5.625.348 7.863 1.633 26.254 11.93 54.707 34.559 69.738 21.742 14.445 58.547 14.91 80.992 0 22.637-15.031 32.93-43.484 34.566-69.738.641-10.289.781-28.996.23-50.91-1.387-54.891-7.094-130.004-20.078-144.121-26.777-29.102-83.926-28.797-110.426 0" style="fill:#3ec0f0"/><path d="M1045.965 1823.148c-73.219-15.527-141.855-51.895-195.934-103.609 17.535 29.012 41.5 54.414 69.563 73.285 49.734 33.461 110.004 47.961 170.262 47.172 31.043.406 62.078-3.246 91.676-11.453-45.067 5.77-91.102 4.039-135.567-5.395" style="fill:#203a73"/></svg>