<svg xmlns="http://www.w3.org/2000/svg" xmlns:xlink="http://www.w3.org/1999/xlink" xml:space="preserve" viewBox="0 0 500 500"><path d="M0 0h500v500H0z" style="fill:#fff"/><path d="M46.906 385.444s58.642-57.195 129.665-33.735 201.339-29.035 200.036-113.231-45.789-49.751-32.017-29.508 67.55 21.438 81.385-22.815 35.554-43.959 35.554-43.959M79.041 70.679s37.059 22.433 25.707 42.152c-9.766 16.964-30.032-16.68 8.842-15.049s37.759 37.778 37.759 37.778M396.806 310.011s29.321 2.606 34.534-11.729-8.471-15.992-11.077-8.322 14.335 17.444 25.412 14.838" style="fill:none;stroke:#d4d4d4;stroke-linecap:round;stroke-linejoin:round;stroke-miterlimit:10"/><path d="m70.144 183.594-27.482 3.09 9.593-17.866zM436.553 240.178l9.122-10.269 5.864 13.167zM227.588 87.067l-5.426-16.331 15.134 4.398z" style="fill:#d4d4d4"/><path d="m56.695 358.22-19.578-3.255M306.869 203.585l14.117-18.851M175.228 82.679l-6.437-28.32M338.02 254.75l13.204-3.019" style="fill:none;stroke:#000;stroke-linecap:round;stroke-linejoin:round;stroke-miterlimit:10"/><path d="M25.374 426.081h442.332" style="fill:none;stroke:#000;stroke-width:.75;stroke-linecap:round;stroke-linejoin:round;stroke-miterlimit:10"/><path d="M416.219 56.755c-34.332 23.484-64.062 49.891-74.982 67.536-8.295 13.403-8.161 20.629-3.216 22.608 7.248 2.902 21.074-15.185 21.074-15.185s-.63 12.173 7.407 10.813l-.226.161s2.229 6.688 10.475 6.354a11 11 0 0 0 1.742-.224c.02.042 3.506 7.534 10.69 5.618 3.126-.834 5.562-2.77 7.249-5.057.001 0 29.452-12 60.609-34.67z" style="fill:#fff"/><path d="M375.728 113s-12.082 23.747-3.226 27.737 15.232-16.267 15.232-16.267 6.487.607 11.732-7.213" style="fill:none;stroke:#000;stroke-linecap:round;stroke-linejoin:round;stroke-miterlimit:10"/><path d="M366.276 142.688s2.229 6.688 10.475 6.355c8.247-.333 15.219-10.243 15.153-15.022-.053-3.803-3.205-5.437-5.698-5.493" style="fill:none;stroke:#000;stroke-linecap:round;stroke-linejoin:round;stroke-miterlimit:10"/><path d="M378.492 148.814s3.488 7.543 10.692 5.622 10.758-9.689 9.874-14.155c-.856-4.327-4.41-5.806-7.114-5.349M367.112 125.185l4.106-2.106M410.67 60.6c-31.957 22.478-59.105 47.004-69.433 63.692-8.295 13.403-8.161 20.629-3.216 22.608 7.248 2.902 21.074-15.185 21.074-15.185s-.882 16.967 12.651 8.61" style="fill:none;stroke:#000;stroke-linecap:round;stroke-linejoin:round;stroke-miterlimit:10"/><path d="M396.433 149.379s30.529-12.436 62.304-35.91" style="fill:none;stroke:#000;stroke-linecap:round;stroke-linejoin:round;stroke-miterlimit:10"/><path d="M424.082 51.49c-11.718 7.705-23.042 15.831-33.432 23.951.048.035 29.72 21.754 50.609 50.013 9.627-6.135 19.929-13.429 29.972-21.803-14.188-27.069-34.901-43.925-47.149-52.161" style="fill:#ed5d1c;stroke:#000;stroke-linecap:round;stroke-linejoin:round;stroke-miterlimit:10"/><path d="M407.803 66.595s21.833 13.138 43.304 45.853" style="fill:none;stroke:#000;stroke-linecap:round;stroke-linejoin:round;stroke-miterlimit:10"/><circle cx="406.875" cy="76.599" r="3.801" style="fill:none;stroke:#000;stroke-linecap:round;stroke-linejoin:round;stroke-miterlimit:10"/><circle cx="248.029" cy="169.445" r="40.752" style="fill:#fff;stroke:#000;stroke-linecap:round;stroke-linejoin:round;stroke-miterlimit:10" transform="rotate(-7.022 248 169.373)"/><path d="M288.602 173.263c2.109-22.408-14.346-42.282-36.754-44.391a41 41 0 0 0-7.064-.049c-1.007-.144-2.85-.054-5.806.36-20.048 2.809-33.413 21.158-28.447 23.961s15.16-11.319 15.16-11.319c-.284 1.543-6.708 9.943-1.2 11.732 4.682 1.522 10.985-11.891 10.985-11.891s-4.405 10.736-.111 12.854c4.293 2.118 7.679-9.63 7.679-9.63s-3.168 12.848 8.11 18.678 15.014 5.168 15.014 5.168l-.001-.011a58 58 0 0 0 10.512 2.006l-4.262 31.362c8.898-6.652 15.061-16.896 16.185-28.83"/><path d="M284.904 174.848c-.523 5.556-5.451 9.636-11.007 9.113s-9.636-5.451-9.113-11.007 5.451-9.636 11.007-9.113 9.636 5.451 9.113 11.007" style="fill:#fff"/><path d="M267.699 173.229a7.176 7.176 0 1 1 6.472 7.817" style="fill:none;stroke:#000;stroke-linecap:round;stroke-linejoin:round;stroke-miterlimit:10"/><circle cx="291.923" cy="109.645" r="26.599" transform="rotate(-16.843 291.916 109.661)"/><path d="M245.943 166.901c-.22 2.343-1.832 4.107-3.6 3.941s-3.022-2.2-2.801-4.543 1.832-4.107 3.6-3.94c1.767.166 3.021 2.2 2.801 4.542M223.262 159.946c-.206 2.194-1.716 3.846-3.371 3.69s-2.83-2.061-2.623-4.254c.206-2.194 1.716-3.846 3.371-3.69 1.655.155 2.83 2.06 2.623 4.254"/><path d="m232.391 155.733-8.441 10.181 7.655 2.609M220.985 176.057s7.179.346 11.956 1.695" style="fill:none;stroke:#000;stroke-linecap:round;stroke-linejoin:round;stroke-miterlimit:10"/><path d="M256.186 181.001a7.38 7.38 0 0 1-9.984 3.054 7.38 7.38 0 0 1-3.054-9.984 7.38 7.38 0 0 1 9.984-3.054 7.38 7.38 0 0 1 3.054 9.984M217.646 171.125a6.3 6.3 0 0 0-2.607-8.522 6.29 6.29 0 0 0-6.838.61c-.155.935-.315 1.869-.405 2.822-.212 2.247-.194 4.478-.034 6.685.405.384.845.738 1.362 1.013a6.303 6.303 0 0 0 8.522-2.608" style="fill:#ed5d1c"/><path d="M245.341 181.894c-.955-9.502-33.228-3.899-33.228-3.899 30.838-9.215 28.476-19.395 22.895-24.219-2.08-1.798-3.634-2.342-8.711-1.054l.4-.617c.851-2.556.178-6.699-4.047-8.889-3.947-2.046-15.222.618-25.788 4.123.391-.727 5.397-9.911-2.279-12.062-7.951-2.228-70.642 30.987-94.841 49.262-18.438 13.924-69.632 59.19-38.324 105.883s133.13 17.6 133.13 17.6 40.024-55.911 35.365-59.302c-4.642-3.378-72.817-4.971-73.323-4.983 18.045-19.926 47.367-30.343 56.12-31.939 10.442-1.904 26.149-2.725 25.889-10.62-.186-5.66-7.863-6.811-12.197-7.009 19.008-.099 19.648-5.226 18.939-12.275m-21.84 12.266-.002-.002.031.001z" style="fill:#fff"/><defs><path id="a" d="M156.591 243.736c5.124-5.658 11.158-10.548 17.372-14.688l-42.737-64.692c-12.374 7.16-23.846 14.415-31.483 20.183-18.438 13.924-69.632 59.19-38.324 105.883s133.13 17.6 133.13 17.6 40.024-55.911 35.365-59.302c-4.642-3.378-72.817-4.972-73.323-4.984"/></defs><clipPath id="b"><use xlink:href="#a" style="overflow:visible"/></clipPath><g style="clip-path:url(#b)"><path d="M161.493 285.044c-1.785-3.337-4.815-5.727-8.431-6.615-7.033-1.728-14.119 2.767-15.795 10.02-1.676 7.252 2.684 14.558 9.717 16.286 3.987.979 8.153-.016 11.312-2.664 1.785 3.337 4.816 5.727 8.43 6.615 7.033 1.728 14.119-2.767 15.794-10.02 1.676-7.252-2.683-14.558-9.716-16.286-3.987-.979-8.153.016-11.311 2.664M98.915 302.183c-1.785-3.337-4.816-5.727-8.431-6.615-7.033-1.728-14.119 2.767-15.795 10.02-1.676 7.252 2.684 14.558 9.717 16.286 3.987.979 8.153-.016 11.312-2.664 1.785 3.337 4.815 5.727 8.43 6.615 7.034 1.728 14.119-2.767 15.795-10.02 1.676-7.252-2.683-14.558-9.716-16.286-3.988-.98-8.154.016-11.312 2.664M105.61 240.671c-1.785-3.337-4.816-5.727-8.431-6.615-7.033-1.728-14.119 2.767-15.795 10.02-1.676 7.252 2.684 14.558 9.717 16.286 3.987.979 8.153-.016 11.312-2.664 1.785 3.337 4.815 5.727 8.43 6.615 7.034 1.728 14.119-2.767 15.795-10.019s-2.683-14.558-9.716-16.286c-3.987-.981-8.153.014-11.312 2.663M150.107 203.043c-1.785-3.337-4.816-5.727-8.431-6.615-7.033-1.728-14.119 2.767-15.795 10.02-1.676 7.252 2.684 14.558 9.717 16.286 3.987.979 8.153-.016 11.312-2.664 1.785 3.337 4.816 5.727 8.43 6.615 7.034 1.728 14.119-2.767 15.795-10.019s-2.683-14.558-9.716-16.286c-3.988-.98-8.154.015-11.312 2.663M86.563 187.546c-1.785-3.337-4.816-5.727-8.431-6.615-7.033-1.728-14.119 2.767-15.795 10.02-1.676 7.252 2.684 14.558 9.717 16.286 3.987.98 8.153-.016 11.312-2.664 1.785 3.337 4.815 5.727 8.43 6.615 7.033 1.728 14.119-2.767 15.794-10.02 1.676-7.252-2.683-14.558-9.716-16.286-3.986-.98-8.152.015-11.311 2.664M40.593 260.301c-1.785-3.337-4.816-5.727-8.431-6.615-7.033-1.728-14.119 2.767-15.795 10.019s2.684 14.558 9.717 16.286c3.987.979 8.153-.016 11.312-2.664 1.785 3.337 4.816 5.727 8.43 6.615 7.033 1.728 14.119-2.767 15.794-10.02 1.676-7.252-2.683-14.558-9.716-16.286-3.987-.978-8.153.017-11.311 2.665M152.768 248.318a13 13 0 0 0 3.214-1.986c1.785 3.337 4.815 5.727 8.43 6.615 6.522 1.602 13.089-2.146 15.345-8.483" style="fill:none;stroke:#ed5d1c;stroke-linecap:round;stroke-linejoin:round;stroke-miterlimit:10"/></g><path d="M180.45 154.472s35.099-17.565 43.04-10.671c3.593 3.12 4.059 5.749 3.209 8.305" style="fill:none;stroke:#000;stroke-linecap:round;stroke-linejoin:round;stroke-miterlimit:10"/><path d="M196.863 164.533s29.082-15.931 37.436-11.201c7.406 4.194 7.337 16.588-22.186 24.663 0 0 33.228-7.068 33.629 4.796.285 8.423-2.049 12.431-31.812 11.083" style="fill:none;stroke:#000;stroke-linecap:round;stroke-linejoin:round;stroke-miterlimit:10"/><path d="M223.501 194.16s14.84-.878 15.1 7.018c.26 7.895-15.448 8.716-25.889 10.62-10.117 1.845-47.726 15.464-63.623 41.943" style="fill:none;stroke:#000;stroke-linecap:round;stroke-linejoin:round;stroke-miterlimit:10"/><path d="M156.58 243.736s68.675 1.593 73.334 4.983c4.659 3.391-35.365 59.302-35.365 59.302s-101.822 29.093-133.13-17.6 19.886-91.959 38.324-105.883c24.2-18.275 86.89-51.49 94.841-49.262s1.506 12.357 1.506 12.357" style="fill:none;stroke:#000;stroke-linecap:round;stroke-linejoin:round;stroke-miterlimit:10"/><path d="M165.778 235.069c4.694-3.828 9.703-7.182 14.672-10.06q0 0 0 0c-26.42-23.101-35.211-68.511-35.211-68.511h0a601 601 0 0 0-14.304 8.026c1.961 35.677 24.982 61.185 34.843 70.545" style="fill:#d4d4d4;stroke:#000;stroke-linecap:round;stroke-linejoin:round;stroke-miterlimit:10"/><path d="m134.314 169.921 12.492-6.795M139.431 188.457l12.924-7.896M149.961 208.038l11.738-7.104M159.894 223.935l12.116-7.693" style="fill:none;stroke:#000;stroke-linecap:round;stroke-linejoin:round;stroke-miterlimit:10"/><path d="M327.114 379.095s-9.521 52.548 70.253 39.668c3.848-3.416 6.64-7.652 7.733-12.91 11.501-55.334-15.53-82.781-60.173-117.017-58.208-44.638-82.026-37.011-82.026-37.011z" style="fill:#fff"/><defs><path id="c" d="M327.114 379.095s10.548 40.753 70.253 39.668c3.848-3.416 6.64-7.652 7.733-12.91 11.501-55.334-15.53-82.781-60.173-117.017-58.208-44.638-82.026-37.011-82.026-37.011z"/></defs><clipPath id="d"><use xlink:href="#c" style="overflow:visible"/></clipPath><g style="clip-path:url(#d)"><path d="M353.885 285.044c-1.785-3.337-4.816-5.727-8.431-6.615-7.033-1.728-14.119 2.767-15.795 10.02-1.676 7.252 2.684 14.558 9.717 16.286 3.987.979 8.153-.016 11.312-2.664 1.785 3.337 4.815 5.727 8.43 6.615 7.034 1.728 14.119-2.767 15.794-10.02 1.676-7.252-2.683-14.558-9.716-16.286-3.986-.979-8.153.016-11.311 2.664M340.233 335.577c-1.785-3.337-4.815-5.727-8.431-6.615-7.033-1.728-14.119 2.767-15.795 10.02-1.676 7.252 2.684 14.558 9.717 16.286 3.987.979 8.153-.016 11.312-2.664 1.785 3.337 4.816 5.727 8.431 6.615 7.034 1.728 14.119-2.767 15.794-10.02 1.676-7.252-2.683-14.558-9.716-16.286-3.988-.98-8.154.015-11.312 2.664M409.347 329.431c-1.785-3.337-4.815-5.727-8.431-6.615-7.033-1.728-14.119 2.767-15.795 10.02-1.676 7.252 2.684 14.558 9.717 16.286 3.987.979 8.153-.016 11.312-2.664 1.785 3.337 4.815 5.727 8.43 6.615 7.034 1.728 14.119-2.767 15.794-10.02 1.676-7.252-2.683-14.558-9.716-16.286-3.987-.98-8.153.015-11.311 2.664" style="fill:none;stroke:#ed5d1c;stroke-linecap:round;stroke-linejoin:round;stroke-miterlimit:10"/></g><path d="M262.9 251.825s23.818-7.627 82.026 37.011c44.644 34.236 71.674 61.683 60.173 117.017" style="fill:none;stroke:#000;stroke-linecap:round;stroke-linejoin:round;stroke-miterlimit:10"/><path d="M312.219 283.526s26.402 43.602 17.594 142.555H147.25s-2.601-106.265 35.406-148.742c0 0 30.434-39.167 71.878-31.156s57.685 37.343 57.685 37.343" style="fill:#fff"/><defs><path id="e" d="M312.219 283.526s-1.296-2.339-4.087-5.875c1.201-3.256 2.088-5.924 2.014-6.517-.217-1.737-8.834-11.205-16.372-11.652-1.686-.1-3.437.078-5.159.407-8.643-5.713-19.881-10.961-34.081-13.706-15.681-3.031-29.783.694-41.26 6.493-2.896-2.736-5.891-5.087-8.251-5.838-6.733-2.141-21.285 2.793-23.171 10.232-1.22 4.81 1.923 11.87 4.298 16.262-2.276 2.439-3.495 4.006-3.495 4.006-38.006 42.477-35.406 148.742-35.406 148.742h182.563c8.808-98.952-17.593-142.554-17.593-142.554"/></defs><clipPath id="f"><use xlink:href="#e" style="overflow:visible"/></clipPath><g style="clip-path:url(#f)"><path d="M171.171 343.196c-1.785-3.337-4.815-5.727-8.431-6.615-7.033-1.728-14.119 2.767-15.795 10.02-1.676 7.252 2.684 14.558 9.717 16.286 3.987.979 8.153-.016 11.312-2.664 1.785 3.337 4.816 5.727 8.43 6.615 7.034 1.728 14.119-2.767 15.795-10.02 1.676-7.252-2.683-14.558-9.716-16.286-3.987-.98-8.153.016-11.312 2.664M216.915 304.581c-1.785-3.337-4.815-5.727-8.431-6.615-7.033-1.728-14.119 2.767-15.795 10.02-1.676 7.252 2.684 14.558 9.717 16.286 3.987.979 8.153-.016 11.312-2.664 1.785 3.337 4.816 5.727 8.43 6.615 7.034 1.728 14.119-2.767 15.794-10.02 1.676-7.252-2.683-14.558-9.716-16.286-3.986-.979-8.152.016-11.311 2.664M284.37 263.946c-1.785-3.337-4.815-5.727-8.431-6.615-7.033-1.728-14.119 2.767-15.795 10.02-1.676 7.252 2.684 14.558 9.717 16.286 3.987.98 8.153-.016 11.312-2.664 1.785 3.337 4.815 5.727 8.43 6.615 7.034 1.728 14.119-2.767 15.794-10.02 1.676-7.252-2.683-14.558-9.716-16.286-3.986-.98-8.152.016-11.311 2.664M264.499 351.07c-1.785-3.337-4.815-5.727-8.431-6.615-7.033-1.728-14.119 2.767-15.795 10.02-1.676 7.252 2.684 14.558 9.717 16.286 3.987.979 8.153-.016 11.312-2.664 1.785 3.337 4.816 5.727 8.43 6.615 7.033 1.728 14.119-2.767 15.794-10.02 1.676-7.252-2.683-14.558-9.716-16.286-3.986-.98-8.152.015-11.311 2.664M315.706 315.873c-1.785-3.337-4.815-5.727-8.431-6.615-7.033-1.728-14.119 2.767-15.795 10.02-1.676 7.252 2.684 14.558 9.717 16.286 3.987.979 8.153-.016 11.312-2.664 1.785 3.337 4.816 5.727 8.43 6.615 7.033 1.728 14.119-2.767 15.794-10.02 1.676-7.252-2.683-14.558-9.716-16.286-3.986-.98-8.152.016-11.311 2.664M332.955 382.276c-1.785-3.337-4.815-5.727-8.431-6.615-7.033-1.728-14.119 2.767-15.795 10.02-1.676 7.252 2.684 14.558 9.717 16.286 3.987.979 8.153-.016 11.312-2.664 1.785 3.337 4.816 5.727 8.43 6.615 7.033 1.728 14.119-2.767 15.794-10.02s-2.683-14.558-9.716-16.286c-3.986-.98-8.152.015-11.311 2.664M216.915 394.399c-1.785-3.337-4.815-5.727-8.431-6.615-7.033-1.728-14.119 2.767-15.795 10.02-1.676 7.252 2.684 14.558 9.717 16.286 3.987.979 8.153-.016 11.312-2.664 1.785 3.337 4.816 5.727 8.43 6.615 7.034 1.728 14.119-2.767 15.794-10.02 1.676-7.252-2.683-14.558-9.716-16.286-3.986-.98-8.152.016-11.311 2.664M146.702 417.274c-1.785-3.337-4.815-5.727-8.431-6.615-7.033-1.728-14.119 2.767-15.795 10.02-1.676 7.252 2.684 14.558 9.717 16.286 3.987.98 8.153-.016 11.312-2.664 1.785 3.337 4.815 5.727 8.43 6.615 7.033 1.728 14.119-2.767 15.794-10.02 1.676-7.252-2.683-14.558-9.716-16.286-3.986-.98-8.152.015-11.311 2.664M211.57 255.977c-1.785-3.337-4.815-5.727-8.431-6.615-7.033-1.728-14.119 2.767-15.795 10.02-1.676 7.252 2.684 14.558 9.717 16.286 3.987.979 8.153-.016 11.312-2.664 1.785 3.337 4.815 5.727 8.43 6.615 7.034 1.728 14.119-2.767 15.795-10.02 1.676-7.252-2.683-14.558-9.716-16.286-3.987-.98-8.153.015-11.312 2.664" style="fill:none;stroke:#ed5d1c;stroke-linecap:round;stroke-linejoin:round;stroke-miterlimit:10"/></g><path d="M312.219 283.526s26.402 43.602 17.594 142.555H147.25s-2.601-106.265 35.406-148.742" style="fill:none;stroke:#000;stroke-linecap:round;stroke-linejoin:round;stroke-miterlimit:10"/><path d="M256.102 265.365c-9.562-.875-34.093-3.644-39.757-24.152-6.374-23.082 17.954-33.718 42.977-20.968 12.537 6.388 33.983-1.843 37.14 15.048 3.09 16.53-16.405 32.265-40.36 30.072" style="fill:#d4d4d4;stroke:#000;stroke-linecap:round;stroke-linejoin:round;stroke-miterlimit:10"/><path d="M226.697 226.452s18.507 30.774 60.643 8.84" style="fill:none;stroke:#000;stroke-linecap:round;stroke-linejoin:round;stroke-miterlimit:10"/><path d="M231.787 232.458s-5.982 4.565-10.705 10.721M240.039 238.479s-5.931 6.045-10.591 14.761M253.784 243.18s-2.477 10.986-2.769 16.302M267.222 242.434s2.526 6.003 3.178 14.636M280.157 238.479s3.542 5.844 5.228 12.207" style="fill:none;stroke:#000;stroke-linecap:round;stroke-linejoin:round;stroke-miterlimit:10"/><path d="M315.35 389.053c-5.023-2.101-28.88-1.346-28.88-1.346-18.841.345-38.887 3.268-53.989 8.062-16.124 5.118-34.251 21.235-32.743 32.195 1.5 10.911 9.733 6.985 9.807 6.949 2.125 3.813 7.277 4.983 11.985 2.702l.001-.002c2.497 2.151 6.604 2.568 10.747.695 2.454 3.499 8.54 4.641 18.02-.095 18.991-9.488 45.638-5.394 45.638-5.394s50.917 2.442 56.124-22.608c.085-.408.148-.801.228-1.205-10.709-7.901-32.361-18.039-36.938-19.953" style="fill:#fff"/><path d="M352.058 410.212c-5.207 25.051-56.124 22.608-56.124 22.608s-26.647-4.094-45.638 5.394-24.367-4.609-14.19-14.001 22.964-9.677 22.964-9.677" style="fill:none;stroke:#000;stroke-linecap:round;stroke-linejoin:round;stroke-miterlimit:10"/><path d="M250.076 410.212s-21.034 1.795-28.413 14.001c-7.011 11.597 1.722 18.116 10.614 14.096" style="fill:none;stroke:#000;stroke-linecap:round;stroke-linejoin:round;stroke-miterlimit:10"/><path d="M239.069 405.459s-21.005 4.144-28.348 17.843c-6.489 12.105 2.806 18.19 10.808 14.314" style="fill:none;stroke:#000;stroke-linecap:round;stroke-linejoin:round;stroke-miterlimit:10"/><path d="M209.547 434.912s-8.304 4.012-9.811-6.948 16.62-27.077 32.743-32.195c22.012-6.987 64.354-11.746 89.535-5.336" style="fill:none;stroke:#000;stroke-linecap:round;stroke-linejoin:round;stroke-miterlimit:10"/><path d="M55.504 415.183c0 11.469 9.297 20.766 20.766 20.766s20.766-9.298 20.766-20.766c0-11.469-9.297-20.766-20.766-20.766s-20.766 9.297-20.766 20.766m7.643 0c0-7.247 5.875-13.122 13.123-13.122s13.123 5.875 13.123 13.122-5.875 13.123-13.123 13.123c-7.247-.001-13.123-5.876-13.123-13.123" style="fill:#fff;stroke:#000;stroke-linecap:round;stroke-linejoin:round;stroke-miterlimit:10"/><path d="M86.789 448.51h34.445c6.293 0 11.394-5.101 11.394-11.394V393.98c0-6.293-5.101-11.394-11.394-11.394H86.789c-6.293 0-11.394 5.102-11.394 11.394v43.135c-.001 6.294 5.101 11.395 11.394 11.395" style="fill:#fff;stroke:#000;stroke-linecap:round;stroke-linejoin:round;stroke-miterlimit:10"/><path d="M115.573 373.034c17-5.224 15.613-29.884 0-41.061-13.153-9.416-2.104-13.562-6.393-38.769-4.29-25.207-27.329-37.698-54.32-25.399s-30.624 57.308-.074 70.674c21.816 9.544 33.661-4.966 35.066 17.635.632 10.165 11.503 21.289 25.721 16.92" style="fill:none;stroke:#000;stroke-linecap:round;stroke-linejoin:round;stroke-miterlimit:10"/><path d="M107.01 433.453a4.84 4.84 0 0 1-5.354-.123c-5.702-3.975-18.55-14.193-17.724-25.057.906-11.933 15.671-10.231 20.878-.006 0 0 5.132-9.603 13.585-8.365 9.389 1.374 11.305 19.114-11.385 33.551" style="fill:#ed5d1c"/><ellipse cx="93.292" cy="414.229" rx="1.721" ry="2.767"/><ellipse cx="114.08" cy="414.229" rx="1.721" ry="2.767"/><path d="M108.565 414.636c0 2.885-1.843 5.224-4.118 5.224s-4.118-2.339-4.118-5.224" style="fill:none;stroke:#000;stroke-linecap:round;stroke-linejoin:round;stroke-miterlimit:10"/><path d="m418.461 447.021-105.937.194c-10.997.02-16.683-8.514-12.699-19.061l27.769-73.526c3.983-10.547 16.128-19.113 27.125-19.133l105.937-.193c10.997-.02 16.683 8.513 12.699 19.06l-27.769 73.526c-3.984 10.546-16.128 19.113-27.125 19.133"/><path d="M402.471 385.429c-1.242 4.669-6.032 8.461-10.699 8.469-4.667.009-7.443-3.77-6.201-8.439s6.032-8.461 10.699-8.47c4.666-.007 7.443 3.771 6.201 8.44" style="fill:#fff"/><path d="m235.738 444.684-.021-10.774a2.535 2.535 0 0 1 2.531-2.54l106.732-.195a2.536 2.536 0 0 1 2.54 2.531l.019 10.775a2.536 2.536 0 0 1-2.531 2.54l-106.73.195a2.537 2.537 0 0 1-2.54-2.532"/></svg>