<svg xmlns="http://www.w3.org/2000/svg" viewBox="0 0 500 500"><path d="M449 142.6s-66.66-79.76-170-98.07S155.48 104 120.83 149.79 47 212.55 45 278.58s24.85 100 76.49 123.57 104.61 36 156.26 43.15 92.83 3.26 113.1-39.23S402 344 425.49 323.69 502 211.24 449 142.6" style="fill:#ffad66"/><path d="M449 142.6s-66.66-79.76-170-98.07S155.48 104 120.83 149.79 47 212.55 45 278.58s24.85 100 76.49 123.57 104.61 36 156.26 43.15 92.83 3.26 113.1-39.23S402 344 425.49 323.69 502 211.24 449 142.6" style="fill:#fff;opacity:.7000000000000001"/><path d="M13.99 421.73h442.29v1H13.99zM468.14 421.73h12.85v1h-12.85z" style="fill:#263238"/><g style="opacity:.30000000000000004"><path d="M411.82 294.28a1 1 0 0 0 1.24-.73c15.79-49.69 8.55-106.56-18.91-148.41a.91.91 0 0 0-1.42-.21 1.37 1.37 0 0 0-.18 1.7c27 41.19 34.15 97.16 18.6 146.06a1.29 1.29 0 0 0 .59 1.56Z"/><path d="M402.31 243.58c12.45-.2 16 23.35 15.56 23.61-.32 2.51-.7 5-1.13 7.54-.43-3.38-5.16-9.59-13.57-14.53-8.17-5.2-12.72-16.94-.86-16.62M438.24 245c12.21.32 5.77 18.85-3.88 21.13-9.39 2.6-15.76 5.94-17.45 8.68q.87-3.7 1.56-7.46c.41.27 8.2-22.17 19.77-22.35"/><path d="M440.34 253.93c12.22.32 5.78 18.85-3.87 21.12-9.39 2.6-15.76 5.95-17.45 8.69q.86-3.72 1.56-7.46c.42.3 8.19-22.15 19.76-22.35M401.35 221.63c12.23-2.67 19.09 19.58 18.67 19.9v7.55c-.9-3.19-6.46-8.29-15.45-11.42-8.85-3.47-14.96-13.98-3.22-16.03M437 215.81c12.08-2.12 8.34 17.26-.84 21.37-8.88 4.41-14.69 8.92-15.95 11.91.21-2.51.36-5 .47-7.55.39.23 4.89-23.2 16.32-25.73M397.33 200.27c11.68-5.05 21.55 15.43 21.19 15.81.39 2.44.73 4.91 1 7.38-1.35-2.93-7.53-6.81-16.83-8.08-9.16-1.63-16.69-10.74-5.36-15.11M431.61 187.43c11.62-4.48 10.64 15.32 2.17 21.17-8.14 6.09-13.23 11.67-14.06 14.84q-.21-3.75-.6-7.48c.47.17 1.63-23.74 12.49-28.53M390.35 180c10.83-7.29 23.44 11 23.12 11.41q1.11 3.5 2 7.06c-1.73-2.62-8.37-5.2-17.72-4.6-9.23.2-17.9-7.33-7.4-13.87M422.35 160.47c10.83-6.73 12.66 13 5.12 20.5-7.17 7.62-11.4 14.13-11.77 17.41-.5-2.42-1.05-4.84-1.64-7.24.48.09-1.74-23.76 8.29-30.67M380.53 161.21c9.65-9.36 24.75 6.29 24.49 6.76 1.05 2.17 2.06 4.36 3 6.59-2.08-2.25-9-3.49-18.14-1.05-9.09 2.06-18.77-3.7-9.35-12.3M409.31 135.56c9.72-8.81 14.42 10.46 8 19.33-6 9-9.23 16.26-9.14 19.58-.83-2.3-1.71-4.59-2.64-6.85.54.01-5.11-23.22 3.78-32.06M399.06 155.21c.33.07-5.07-20.63-11.72-29.45-6.33-8.9-13.43-5.35-14.68-.48s3.29 10.85 8 14.8c4.83 3.47 18.52 14.8 18.4 15.13"/><path d="M398.87 156h.09a.67.67 0 0 0 .71-.42v-.07a.69.69 0 0 0 0-.64c-.43-4-6.12-22.08-11.84-29.66-3.11-4.38-6.94-6.41-10.5-5.53A7.43 7.43 0 0 0 372 125c-1.79 6.59 5.83 13.68 8.22 15.7 4.75 3.38 17.2 13.71 18.25 14.9a.74.74 0 0 0 .4.4m-17.69-34.5c1.66.58 3.62 1.94 5.64 4.79 5.25 7 9.65 21.24 11.09 26.75-1.15-1-3-2.52-5.81-4.87-3.67-3-8.52-6.91-11.13-8.77-4.47-3.79-8.87-9.45-7.67-13.86a6 6 0 0 1 4.31-4.26 6.2 6.2 0 0 1 3.57.21ZM453.05 339.31a.6.6 0 0 0-.9-.29c-25 16.89-41.08 48.65-41.93 82.9a1 1 0 0 0 0 .31h1.21a.8.8 0 0 0 0-.27c.84-33.7 16.65-65 41.27-81.58a.89.89 0 0 0 .35-1.07"/><path d="M427 395.29c-7.38-3.77-14.38 9.21-14.15 9.5-.33 1.6-.62 3.21-.89 4.83.95-1.89 5.06-4.2 11.09-4.68 5.95-.73 11.03-6.37 3.95-9.65M405.25 385.58c-7.34-3.39-7.34 9.55-2.05 13.73 5.05 4.3 8.16 8.16 8.6 10.29.17-1.64.37-3.28.61-4.9-.31.06-.31-15.6-7.16-19.12M432.06 382.49c-6.74-5.18-15.42 6.07-15.24 6.38q-.82 2.24-1.54 4.51c1.2-1.64 5.56-3.05 11.56-2.27 5.98.52 11.79-3.95 5.22-8.62M412 368.58c-6.76-4.8-8.54 7.84-3.92 13 4.39 5.23 6.91 9.62 7.05 11.77.39-1.55.82-3.1 1.28-4.63-.27-.01 1.89-15.29-4.41-20.14M438.87 370.94c-5.92-6.44-16 2.87-15.89 3.21-.74 1.34-1.46 2.71-2.14 4.1 1.4-1.36 5.89-1.86 11.69.12 5.81 1.72 12.16-1.52 6.34-7.43M421.09 353.23c-6-6.07-9.5 6-5.67 12 3.6 6 5.48 10.83 5.31 13 .61-1.44 1.24-2.87 1.91-4.28-.31-.09 3.94-14.68-1.55-20.72M447.22 360.89c-4.94-7.52-16.23-.33-16.14 0-.91 1.18-1.81 2.38-2.68 3.61 1.58-1.05 6.07-.64 11.52 2.46 5.48 2.86 12.2.92 7.3-6.07M432.18 339.89c-5.06-7.19-10.24 4.06-7.29 10.71 2.7 6.65 3.88 11.76 3.42 13.83q1.2-1.95 2.47-3.84c-.3-.09 5.95-13.65 1.4-20.7M457 352.59c-3.82-8.41-16.05-3.52-16-3.15q-1.62 1.47-3.16 3c1.7-.72 6.08.56 11 4.7 4.99 3.93 11.95 3.33 8.16-4.55M445.1 328.86c-4-8.1-10.75 2-8.78 9.17 1.71 7.1 2.14 12.39 1.4 14.34q1.45-1.69 3-3.3c-.31-.15 7.85-12.33 4.38-20.21M447.15 343.58c-.21-.06 7.28-10.81 13.07-14.12 5.61-3.44 9.11.75 8.85 4s-4.21 5.5-7.81 6.49c-3.62.66-14.12 3.4-14.11 3.63"/><path d="M447.1 344.1h-.1a.52.52 0 0 1-.33-.46v-.05a.41.41 0 0 1 .14-.38c1.11-2.21 8.25-11.37 13.19-14.21 2.76-1.69 5.46-1.78 7.4-.21a5.68 5.68 0 0 1 2.07 4.75c-.29 4.45-6.3 6.44-8.14 7-3.53.62-13.08 3.12-14 3.52a.37.37 0 0 1-.23.04m17.67-15.38a6.75 6.75 0 0 0-4.35 1.21c-4.57 2.61-10.14 9.82-12.13 12.69.89-.27 2.28-.64 4.46-1.2 2.81-.73 6.51-1.62 8.45-2 3.45-.94 7.24-3 7.43-6a4.55 4.55 0 0 0-1.69-3.8 4.34 4.34 0 0 0-2.17-.9M404.58 422.23c-15-48.61-7.82-104 19-144.82a1.37 1.37 0 0 0-.17-1.7.91.91 0 0 0-1.43.21c-27.07 41.26-34.48 97.12-19.53 146.31Z"/><path d="M413.79 374.36c-12.44-.2-16 23.35-15.55 23.6.32 2.52.69 5 1.13 7.55.42-3.38 5.15-9.6 13.56-14.53 8.19-5.26 12.72-16.98.86-16.62M377.87 375.75c-12.21.32-5.78 18.85 3.87 21.12 9.39 2.6 15.77 5.95 17.45 8.69q-.85-3.72-1.56-7.46c-.41.3-8.19-22.1-19.76-22.35M414.76 352.4c-12.24-2.66-19.09 19.58-18.68 19.9q-.06 3.76 0 7.55c.91-3.19 6.46-8.28 15.45-11.41 8.86-3.44 14.97-13.98 3.23-16.04M379.15 346.58c-12.08-2.11-8.34 17.26.84 21.38 8.88 4.4 14.68 8.92 15.94 11.9-.2-2.51-.36-5-.46-7.54-.47.23-4.94-23.2-16.32-25.74M418.78 331c-11.69-5-21.56 15.43-21.19 15.81-.39 2.45-.74 4.91-1 7.39 1.34-2.94 7.53-6.81 16.83-8.08 9.15-1.59 16.64-10.71 5.36-15.12M384.49 318.21c-11.61-4.49-10.64 15.31-2.16 21.17 8.14 6.09 13.23 11.66 14.05 14.84q.22-3.75.6-7.48c-.46.16-1.62-23.74-12.49-28.53M425.75 310.75c-10.82-7.3-23.43 11-23.12 11.4q-1.1 3.5-2.05 7.07c1.73-2.62 8.38-5.2 17.72-4.6 9.28.22 17.96-7.31 7.45-13.87M393.75 291.25c-10.82-6.73-12.66 13-5.12 20.49 7.17 7.63 11.41 14.13 11.78 17.42q.73-3.65 1.64-7.24c-.49.08 1.73-23.76-8.3-30.67M435.57 292c-9.64-9.36-24.75 6.28-24.48 6.76a122 122 0 0 0-3 6.58c2.08-2.24 9-3.48 18.14-1 9.09 2.01 18.77-3.76 9.34-12.34M406.8 266.33c-9.73-8.81-14.42 10.47-8 19.33 6 9 9.24 16.26 9.14 19.58q1.25-3.45 2.64-6.84c-.58 0 5.1-23.22-3.78-32.07"/></g><g style="opacity:.30000000000000004"><path d="M109.77 339.39a.61.61 0 0 1 .9-.29c25 16.87 41 48.61 41.89 82.82a1 1 0 0 1-.05.31h-1.21a.8.8 0 0 1-.05-.27c-.84-33.66-16.64-64.9-41.23-81.5a.86.86 0 0 1-.25-1.07"/><path d="M135.85 395.32c7.36-3.77 14.36 9.2 14.13 9.49.33 1.59.62 3.2.88 4.83-1-1.89-5.05-4.21-11.07-4.68-5.96-.73-11.07-6.36-3.94-9.64M157.52 385.62c7.34-3.39 7.33 9.53 2 13.71-5 4.3-8.15 8.16-8.59 10.28-.17-1.64-.38-3.27-.61-4.9.35.06.35-15.58 7.2-19.09M130.74 382.53c6.73-5.17 15.41 6.06 15.22 6.38q.82 2.22 1.54 4.5c-1.19-1.64-5.55-3-11.55-2.27-5.95.52-11.78-3.95-5.21-8.61M150.73 368.63c6.76-4.8 8.54 7.84 3.92 13-4.38 5.22-6.9 9.6-7 11.75-.39-1.55-.82-3.1-1.28-4.63.27-.01-1.89-15.27 4.36-20.12M123.93 371c5.92-6.43 16 2.87 15.88 3.2.74 1.35 1.46 2.71 2.14 4.1-1.4-1.35-5.89-1.85-11.69.12-5.8 1.71-12.14-1.52-6.33-7.42M141.7 353.3c6-6.07 9.49 6 5.66 12-3.59 6-5.47 10.81-5.31 12.94-.6-1.44-1.24-2.86-1.9-4.27.31-.06-3.93-14.63 1.55-20.67M115.59 361c4.94-7.51 16.22-.33 16.12 0q1.38 1.75 2.68 3.6c-1.57-1.05-6.06-.64-11.5 2.45-5.48 2.83-12.2.89-7.3-6.05M130.62 340c5-7.18 10.23 4 7.28 10.7-2.7 6.64-3.88 11.75-3.42 13.82a89 89 0 0 0-2.47-3.83c.31-.12-5.94-13.69-1.39-20.69M105.87 352.66c3.81-8.4 16-3.51 16-3.15q1.61 1.47 3.16 3c-1.7-.72-6.08.56-11 4.7-5.03 3.92-12.03 3.32-8.16-4.55M117.71 329c4-8.09 10.74 2 8.77 9.16-1.71 7.1-2.14 12.38-1.4 14.33q-1.45-1.68-3-3.3c.32-.19-7.84-12.37-4.37-20.19M115.67 343.66c.2-.06-7.28-10.8-13.06-14.1-5.61-3.45-9.1.75-8.84 4s4.2 5.5 7.79 6.48c3.62.65 14.11 3.39 14.11 3.62"/><path d="M115.71 344.18h.06a.5.5 0 0 0 .34-.45.43.43 0 0 0-.13-.38c-1.08-2.24-8.2-11.35-13.18-14.19-2.75-1.7-5.45-1.78-7.39-.22a5.68 5.68 0 0 0-2.07 4.75c.29 4.45 6.3 6.44 8.13 6.94 3.53.62 13.08 3.12 14 3.52a.38.38 0 0 0 .24.03m-17.65-15.36a6.72 6.72 0 0 1 4.35 1.2c4.56 2.61 10.13 9.82 12.12 12.68-.89-.27-2.29-.64-4.47-1.2-2.8-.73-6.49-1.62-8.43-2-3.45-1-7.23-3-7.43-6a4.56 4.56 0 0 1 1.69-3.8 4.26 4.26 0 0 1 2.17-.88M158.19 422.23c15-48.56 7.81-103.87-18.95-144.67a1.37 1.37 0 0 1 .17-1.7.91.91 0 0 1 1.43.21c27 41.22 34.44 97 19.51 146.16Z"/><path d="M149 374.41c12.43-.2 16 23.32 15.54 23.58q-.48 3.76-1.13 7.54c-.43-3.38-5.15-9.59-13.56-14.52-8.19-5.25-12.71-16.93-.85-16.6M184.87 375.79c12.21.32 5.77 18.84-3.86 21.11-9.38 2.6-15.75 5.94-17.44 8.68.58-2.48 1.1-5 1.56-7.46.41.3 8.19-22.12 19.74-22.33M148 352.47c12.22-2.66 19.08 19.56 18.66 19.88q.06 3.76 0 7.54c-.91-3.18-6.45-8.27-15.44-11.4-8.82-3.49-14.93-13.96-3.22-16.02M183.59 346.66c12.07-2.12 8.34 17.24-.83 21.35-8.87 4.4-14.67 8.91-15.93 11.9.2-2.51.36-5 .46-7.54.44.23 4.93-23.18 16.3-25.71M144 331.13c11.67-5 21.53 15.42 21.16 15.8q.6 3.66 1 7.38c-1.34-2.94-7.52-6.81-16.81-8.07-9.13-1.63-16.62-10.74-5.35-15.11M178.26 318.31c11.6-4.48 10.62 15.3 2.16 21.15-8.13 6.09-13.22 11.66-14 14.82q-.23-3.73-.6-7.46c.42.18 1.58-23.73 12.44-28.51M137 310.86c10.81-7.29 23.41 11 23.1 11.39.73 2.33 1.41 4.69 2 7.06-1.73-2.62-8.36-5.2-17.7-4.59-9.19.22-17.86-7.3-7.4-13.86M169 291.38c10.81-6.72 12.64 13 5.11 20.47-7.16 7.62-11.39 14.12-11.76 17.4-.5-2.42-1-4.83-1.64-7.23.49.08-1.71-23.74 8.29-30.64M127.23 292.12c9.64-9.35 24.72 6.28 24.46 6.75 1.05 2.16 2.06 4.36 3 6.58-2.08-2.24-9-3.48-18.12-1-9.09 2.02-18.75-3.75-9.34-12.33M156 266.49c9.72-8.8 14.41 10.45 8 19.31-6 9-9.23 16.24-9.13 19.56q-1.25-3.45-2.64-6.84c.51.01-5.13-23.2 3.77-32.03"/></g><g style="opacity:.30000000000000004"><path d="M277.66 265.54a1.21 1.21 0 0 0 1.52-.9c19.35-60.85 10.48-130.5-23.15-181.75a1.12 1.12 0 0 0-1.75-.26 1.69 1.69 0 0 0-.21 2.09c33.09 50.44 41.82 119 22.78 178.87a1.57 1.57 0 0 0 .72 1.91Z"/><path d="M266 203.45c15.24-.25 19.63 28.59 19.05 28.9q-.58 4.64-1.38 9.25c-.52-4.14-6.31-11.76-16.62-17.8-10.05-6.44-15.56-20.75-1.05-20.35M310 205.15c15 .39 7.07 23.09-4.75 25.87-11.49 3.18-19.3 7.28-21.37 10.64.71-3 1.34-6.08 1.91-9.14.53.37 10.06-27.12 24.21-27.37"/><path d="M312.6 216.12c15 .39 7.07 23.08-4.75 25.86-11.49 3.19-19.3 7.29-21.37 10.64.71-3 1.34-6.08 1.91-9.13.51.36 10.04-27.12 24.21-27.37M264.84 176.56c15-3.26 23.38 24 22.87 24.37.05 3.07 0 6.16 0 9.24-1.11-3.9-7.91-10.14-18.92-14-10.79-4.17-18.33-17.09-3.95-19.61M308.45 169.43c14.79-2.59 10.22 21.14-1 26.18-10.87 5.39-18 10.92-19.53 14.58q.39-4.62.57-9.25c.51.29 6.01-28.41 19.96-31.51M259.92 150.4c14.31-6.18 26.39 18.9 25.95 19.36.48 3 .9 6 1.26 9.05-1.65-3.6-9.22-8.34-20.61-9.9-11.25-1.99-20.43-13.16-6.6-18.51M301.91 134.68c14.22-5.49 13 18.76 2.65 25.93-10 7.46-16.2 14.28-17.21 18.17-.19-3.06-.43-6.11-.74-9.16.57.2 1.99-29.08 15.3-34.94M251.38 125.54c13.25-8.93 28.7 13.44 28.31 14 .9 2.86 1.73 5.74 2.51 8.65-2.12-3.2-10.25-6.37-21.7-5.63-11.37.25-21.99-8.97-9.12-17.02M290.56 101.66c13.26-8.24 15.51 16 6.28 25.1-8.79 9.34-14 17.31-14.43 21.33q-.9-4.46-2-8.87c.59.11-2.13-29.1 10.15-37.56M239.35 102.57c11.81-11.46 30.31 7.69 30 8.28q1.94 4 3.7 8.06c-2.55-2.75-11-4.27-22.21-1.28-11.18 2.53-23.03-4.54-11.49-15.06M274.59 71.15c11.91-10.79 17.66 12.85 9.84 23.68-7.33 11-11.31 19.9-11.19 24q-1.53-4.23-3.24-8.38c.62-.02-6.29-28.45 4.59-39.3M262 95.22c.4.08-6.21-25.26-14.36-36.07-7.74-10.89-16.44-6.55-18-.59s4 13.29 9.74 18.13c6.04 4.25 22.81 18.13 22.62 18.53"/><path d="M261.81 96.17h.1a.8.8 0 0 0 .87-.51v-.09a.83.83 0 0 0 0-.78c-.53-4.86-7.49-27-14.5-36.33-3.81-5.36-8.5-7.84-12.86-6.78a9.13 9.13 0 0 0-6.53 6.56C226.72 66.34 236.06 75 239 77.5c5.82 4.14 21.08 16.79 22.36 18.24a.87.87 0 0 0 .45.43m-21.67-42.25c2 .72 4.43 2.38 6.91 5.87 6.43 8.53 11.82 26 13.58 32.76-1.41-1.24-3.63-3.09-7.12-6-4.49-3.7-10.43-8.46-13.63-10.74-5.47-4.64-10.86-11.57-9.38-17a7.3 7.3 0 0 1 5.27-5.22 7.6 7.6 0 0 1 4.37.33M328.15 320.68a.74.74 0 0 0-1.09-.36c-30.63 20.69-50.31 59.59-51.35 101.53a1 1 0 0 0 .06.38h1.48a1.1 1.1 0 0 0 .06-.33c1-41.27 20.4-79.56 50.54-99.92a1 1 0 0 0 .3-1.3"/><path d="M296.19 389.24c-9-4.62-17.61 11.28-17.33 11.64q-.6 2.92-1.08 5.91c1.16-2.31 6.19-5.15 13.58-5.73 7.31-.9 13.57-7.8 4.83-11.82M269.62 377.35c-9-4.15-9 11.69-2.52 16.81 6.2 5.27 10 10 10.54 12.6q.32-3 .75-6c-.39.07-.39-19.11-8.77-23.41M302.45 373.56c-8.25-6.34-18.89 7.43-18.66 7.82q-1 2.72-1.89 5.52c1.47-2 6.81-3.73 14.16-2.78 7.32.63 14.44-4.85 6.39-10.56M277.94 356.52c-8.28-5.88-10.46 9.61-4.8 15.91 5.37 6.4 8.46 11.78 8.63 14.41q.72-2.86 1.57-5.67c-.34.01 2.27-18.71-5.4-24.65M310.79 359.41c-7.25-7.87-19.63 3.53-19.46 3.93q-1.36 2.48-2.62 5c1.72-1.66 7.21-2.26 14.32.15 7.12 2.13 14.89-1.83 7.76-9.08M289 337.73c-7.34-7.44-11.64 7.36-6.94 14.68 4.4 7.37 6.7 13.26 6.5 15.87.74-1.77 1.52-3.51 2.33-5.24-.36-.04 4.85-17.91-1.89-25.31M321 347.1c-6-9.2-19.88-.4-19.76 0q-1.69 2.16-3.28 4.42c1.92-1.29 7.42-.79 14.09 3 6.74 3.53 14.95 1.15 8.95-7.42M302.6 321.38c-6.2-8.79-12.54 5-8.92 13.12 3.3 8.14 4.74 14.41 4.18 16.94 1-1.59 2-3.16 3-4.69-.34-.12 7.31-16.75 1.74-25.37M332.93 336.94c-4.67-10.29-19.65-4.3-19.58-3.86-1.31 1.2-2.61 2.44-3.87 3.72 2.08-.89 7.45.69 13.5 5.75 6.13 4.78 14.65 4.04 9.95-5.61M318.43 307.88c-4.87-9.92-13.17 2.46-10.76 11.23 2.09 8.7 2.63 15.18 1.71 17.57q1.78-2.07 3.66-4.05c-.37-.18 9.63-15.1 5.39-24.75M320.93 325.91c-.26-.07 8.92-13.24 16-17.29 6.87-4.22 11.15.92 10.83 4.92s-5.15 6.74-9.55 7.95c-4.43.78-17.28 4.13-17.28 4.42"/><path d="M320.87 326.54h-.07a.61.61 0 0 1-.41-.56v-.06a.52.52 0 0 1 .17-.47c1.32-2.74 10.05-13.91 16.15-17.39 3.38-2.08 6.69-2.19 9.06-.27a7 7 0 0 1 2.54 5.82c-.36 5.45-7.72 7.89-10 8.51-4.33.76-16 3.82-17.1 4.31a.43.43 0 0 1-.34.11m21.64-18.82a8.2 8.2 0 0 0-5.32 1.47c-5.6 3.19-12.42 12-14.87 15.54 1.1-.33 2.8-.78 5.48-1.47 3.44-.89 8-2 10.34-2.4 4.22-1.16 8.86-3.72 9.1-7.37a5.55 5.55 0 0 0-2.07-4.65 5.15 5.15 0 0 0-2.66-1.12M268.8 422.23c-18.42-59.53-9.58-127.34 23.2-177.36a1.67 1.67 0 0 0-.21-2.08 1.11 1.11 0 0 0-1.75.26c-33.12 50.53-42.19 118.95-23.89 179.18Z"/><path d="M280.08 363.6c-15.24-.24-19.63 28.6-19.05 28.91q.59 4.62 1.38 9.24c.52-4.14 6.32-11.75 16.62-17.8 10.03-6.43 15.58-20.75 1.05-20.35M236.09 365.3c-15 .4-7.08 23.09 4.74 25.87 11.5 3.19 19.31 7.29 21.37 10.64q-1.05-4.55-1.91-9.14c-.5.33-10.03-27.11-24.2-27.37M281.26 336.71c-15-3.26-23.38 24-22.87 24.38q-.08 4.61 0 9.24c1.11-3.91 7.91-10.15 18.92-14 10.85-4.23 18.33-17.1 3.95-19.62M237.65 329.58c-14.79-2.59-10.21 21.15 1 26.19 10.88 5.39 18 10.92 19.53 14.58-.25-3.08-.44-6.17-.57-9.25-.5.29-6.01-28.41-19.96-31.52M286.19 310.55c-14.32-6.17-26.4 18.9-25.95 19.37-.48 3-.91 6-1.26 9 1.64-3.59 9.22-8.34 20.61-9.89 11.24-1.96 20.41-13.12 6.6-18.48M244.2 294.83c-14.23-5.49-13 18.76-2.65 25.93 10 7.46 16.2 14.29 17.21 18.17.18-3.05.42-6.11.73-9.15-.56.22-1.98-29.08-15.29-34.95M294.73 285.7c-13.26-8.93-28.7 13.44-28.32 14-.89 2.85-1.73 5.74-2.51 8.65 2.12-3.21 10.26-6.37 21.71-5.63 11.39.28 21.99-8.98 9.12-17.02M255.54 261.82c-13.26-8.24-15.5 16-6.27 25.1 8.78 9.34 14 17.31 14.42 21.33q.92-4.46 2-8.87c-.59.11 2.13-29.1-10.15-37.56M306.75 262.73c-11.81-11.47-30.31 7.69-30 8.27q-1.93 4-3.71 8.07c2.55-2.75 11-4.27 22.22-1.28 11.18 2.53 23.03-4.54 11.49-15.06M271.52 231.3c-11.91-10.78-17.66 12.82-9.85 23.68 7.33 11 11.32 19.91 11.19 24q1.53-4.23 3.24-8.38c-.62-.02 6.3-28.46-4.58-39.3"/></g><path d="M366.86 342.62s11.85 9.62 12.15 11.86-8.2 18.27-16.41 30.45-17.62 17-17.62 17-3.64-.32-4 1.61a44 44 0 0 1-1.52 5.45s-10.63 2.88-16.71 2.88-14.88-1-17.92 1.28a39.7 39.7 0 0 0-6.38 6.74l8.81-1s-4.86 4.49-4.56 5.45c0 0 9.11-1.6 10-1.6s17.31 1.92 17.31 1.92-4.86 2.25-8.5 4.17-4.26 3.85-4.26 3.85 13.37-4.17 18.84-4.17 8.51.32 13.67-.32 8.81-2.56 10.33-5.45c1-1.94 3.16-5.35 4.44-7.36.61-1 1-1.61 1-1.61l1.22 3.2s3.64-8 4.25-9.94 10.44-23.03 18-31.71 15.19-16.35 18.23-26.93S410 332.68 407 332s-10.94-1.6-13.67-2.88-14.62-3.12-14.62-3.12Z" style="fill:#263238"/><path d="m316.57 433.46.29-.91c0-.09.71-2.14 4.49-4.14 2.34-1.23 5.2-2.61 6.94-3.43-6.47-.76-14.92-1.72-15.51-1.72s-6.3 1-9.94 1.6l-.43.07-.14-.42c-.28-.88 1.62-3 3.61-4.94l-8.47.93.69-.92a39 39 0 0 1 6.48-6.84c2.5-1.84 8.26-1.66 13.83-1.48 1.56.05 3 .1 4.39.1 5.42 0 14.67-2.36 16.33-2.8a43 43 0 0 0 1.41-5.11c.33-2.12 3.57-2.08 4.33-2 1.11-.61 9.78-5.57 17.32-16.76 8.76-13 16.57-28.27 16.32-30.11-.2-1.49-7.45-7.87-12-11.54l-.36-.3 12.3-17.3h.31c.48.08 11.95 2 14.71 3.24 1.88.88 6.52 1.65 9.91 2.21 1.48.24 2.76.45 3.66.64a3.07 3.07 0 0 1 2 1.47c1.42 2.36 1 7.43-1.34 15.51-2.75 9.55-9.14 16.75-15.9 24.37-.81.91-1.63 1.82-2.44 2.75-7.72 8.8-17.32 30-17.82 31.55-.61 1.93-4.13 9.67-4.28 10l-.49 1.09-1.29-3.4c-.15.22-.32.49-.5.78-1.21 1.9-3.39 5.38-4.41 7.32-1.6 3-5.4 5.06-10.72 5.72a62.6 62.6 0 0 1-9.79.37c-1.2 0-2.48-.05-3.94-.05-5.33 0-18.55 4.1-18.69 4.15Zm-3.79-11.2c.91 0 15.69 1.73 17.37 1.93l1.77.2-1.62.75s-4.89 2.26-8.48 4.15a11.2 11.2 0 0 0-3.35 2.54c3.5-1 13.16-3.8 17.7-3.8 1.46 0 2.75 0 4 .05a61 61 0 0 0 9.65-.37c5-.61 8.51-2.46 10-5.18 1-1.88 3-5.06 4.45-7.4l1-1.62.54-.82 1.14 3c1-2.26 3.28-7.34 3.73-8.79.73-2.3 10.49-23.32 18-31.91.81-.93 1.63-1.85 2.44-2.76 6.69-7.53 13-14.64 15.69-24 2.2-7.69 2.69-12.64 1.44-14.72a2 2 0 0 0-1.37-1c-.87-.18-2.14-.39-3.61-.63-3.64-.61-8.17-1.35-10.17-2.29-2.4-1.12-12.27-2.8-14.15-3.11l-11.39 16c2.63 2.15 11.67 9.68 12 11.88.33 2.51-8.29 18.63-16.49 30.8s-17.72 17.11-17.81 17.16l-.13.07h-.14c-.83-.07-3.23 0-3.41 1.19a45 45 0 0 1-1.54 5.53l-.09.25-.26.07c-.43.12-10.76 2.9-16.84 2.9-1.37 0-2.85-.05-4.42-.1-5.15-.16-11-.35-13.21 1.29a35.2 35.2 0 0 0-5.55 5.7l9.14-1-1.11 1a33.3 33.3 0 0 0-4.15 4.45c2.31-.36 8.45-1.41 9.23-1.41M212 419.6s-4.69 1.19-8.2 2.36a13.6 13.6 0 0 0-5 2.67 75 75 0 0 1 9.53.34 31.8 31.8 0 0 0 8.53-.34ZM242.62 408.54s-2.59.88-4.43 1.55-2.51 3.17-2.51 3.17h6.86Z" style="fill:#263238"/><path d="M308.69 352.27s4.42 7.58 3.47 10.43-4.11 6-11.38 16.12-27.18 29.08-27.18 29.08a55 55 0 0 1-17.39.64c-8.85-1.27-11.7-1.27-13.59 0s-1 5.37.31 6.32a50.1 50.1 0 0 1-14.22 2.84c-8.85.63-14.54-.95-16.75 1.9s-3.8 1.9 1.26 4.11 5.69 1.9 13.59 1.9 14.86 0 17.39.31a50 50 0 0 1 5.06.95s-4.75 2.21-5.06 4.74 2.21 4.43 5.69 4.43 2.84.31 13-3.48 20.86-3.48 25.92-9.17a31.7 31.7 0 0 0 6.64-12l.31 5.37s1.9-6.63 5.06-11.06 31-34.14 35.72-37.3 10.39-10.4 10.39-15.5-5.05-9.8-5.05-9.8Z" style="fill:#adadad"/><path d="M251.19 436.54h-1.3a6.93 6.93 0 0 1-5.24-2 3.72 3.72 0 0 1-1-3c.24-1.93 2.64-3.61 4.14-4.49-1-.21-2.34-.47-3.7-.64-2.5-.31-9.37-.31-17.33-.31h-2.59c-5.52 0-6.66 0-11.2-1.94l-.9-.39c-2.09-.91-2.65-1.16-2.75-1.74s.27-.8.76-1.24a11.4 11.4 0 0 0 1.43-1.51c1.61-2.07 4.64-2 9.21-2 2.3 0 4.9.08 7.9-.14a53 53 0 0 0 13.4-2.56 6.7 6.7 0 0 1-1-3.72 3.27 3.27 0 0 1 1.29-2.8c2-1.36 4.9-1.37 13.94-.08a54.8 54.8 0 0 0 17.07-.6c1.56-1.48 20.13-19.32 27-28.91 2.75-3.84 4.89-6.63 6.6-8.88 2.67-3.49 4.15-5.42 4.71-7.11.72-2.16-2.24-8-3.44-10l-.32-.56 34.13-9.38.21.2c.21.2 5.21 4.95 5.21 10.16s-5.61 12.54-10.65 15.9c-4.77 3.2-32.5 32.87-35.58 37.2s-5 10.85-5 10.91l-.81 2.83-.34-5.72a32.7 32.7 0 0 1-5.92 9.72c-3.29 3.71-8.74 4.91-15 6.3A80 80 0 0 0 263 433c-8.72 3.31-9.5 3.54-11.81 3.54m-24.38-11.43c8 0 14.89 0 17.45.31s5.09 1 5.12 1l1.36.35-1.27.59c-1.25.59-4.54 2.51-4.78 4.35a2.79 2.79 0 0 0 .71 2.22 6 6 0 0 0 4.49 1.65h.73c2.64 0 2.8 0 12.05-3.45a82 82 0 0 1 11.22-3c6.13-1.35 11.42-2.51 14.51-6a31.4 31.4 0 0 0 6.52-11.8l.8-3.16.35 6a37.8 37.8 0 0 1 4.31-8.7c3.09-4.33 31.07-34.24 35.85-37.43s10.2-10.34 10.2-15.07c0-4.23-3.78-8.32-4.7-9.24l-32.29 8.92c1.06 1.92 4.07 7.67 3.2 10.28-.62 1.84-2 3.7-4.86 7.4-1.71 2.24-3.84 5-6.59 8.85-7.22 10-27.05 29-27.25 29.16l-.1.09h-.13a56 56 0 0 1-17.57.64c-8.64-1.23-11.49-1.25-13.24-.08a2.44 2.44 0 0 0-.85 2 5 5 0 0 0 1.18 3.51l.71.53-.82.33a50.3 50.3 0 0 1-14.38 2.88c-3 .22-5.66.18-8 .14-4.28-.07-7.11-.11-8.41 1.57a12.7 12.7 0 0 1-1.55 1.63l-.36.34a17 17 0 0 0 2.08 1l.9.39c4.34 1.9 5.33 1.9 10.8 1.86Z" style="fill:#263238"/><path d="M336.5 368.39c4.74-3.16 10.43-10.43 10.43-15.49s-5.05-9.8-5.05-9.8l-33.19 9.17s4.42 7.58 3.47 10.43c-.61 1.83-2.14 3.8-5.08 7.65l15.53 4.8-1.75-5.26 10.14 3.39a55 55 0 0 1 5.5-4.89M249.34 427.36l-.17-1c.11 0 10.73-1.85 15.41-4.45a13.2 13.2 0 0 0 5.91-7.18l1 .26a13.84 13.84 0 0 1-6.38 7.79c-4.87 2.71-15.33 4.51-15.77 4.58" style="fill:#263238"/><path d="M245.31 414.61s9.89-1.07 14.44-2.14 6.95-1.6 6.95-1.6" style="fill:#fff"/><path d="m245.36 415.11-.1-1c.1 0 9.91-1.08 14.37-2.13s7-1.61 7-1.61l.21 1s-2.4.53-6.94 1.6-14.44 2.13-14.54 2.14M250.56 432.49s-.33-3-2.67-2.51-6 3.51-7.69 6.52-2.18 4.18-2.18 4.18a46 46 0 0 1 5.85-3.51c2.01-.84 6.69-4.68 6.69-4.68M306.69 374.93s-4.15 2.35-3.06 3.43 2.16.18 2.88-.36.18-3.07.18-3.07M303.81 380.16s-3.07.54-3.07 1.62 3.07.18 3.07.18ZM298.58 384.48s-2.52.72-1.8 1.62 2.88 0 2.88 0ZM295.16 388.81s-2.88 0-2.34 1.26 2.16 2 2.7 1.26-.36-2.52-.36-2.52M290.65 394.21s-3.6.72-2.88 2.34 3.61 2.35 4.15 1.08 1.26-3.96-1.27-3.42M289.93 400.34s-5.4-1.81-5.22-.36 3.42 2.52 4.5 2.52.72-2.16.72-2.16M284.17 403.58s-5.59-1.62-4-.18 5 3.78 5.22 2.7-1.22-2.52-1.22-2.52M281.47 407.18s-5.59-1.8-5.41-.36 3.42 2.16 4.51 2.52.9-2.16.9-2.16M280.57 412.77s-7.21-4.15-6.49-1.8 5.77 3.6 5.77 3.6ZM278.4 418.35s-4.5-2.7-4.86-1.44 2.52 2.16 4 2.88.86-1.44.86-1.44M277 421.23s-6.48-3.24-6.48-1.62 2.34 2.35 2.34 2.35-4.69-2.35-4.5-.36l.18 2s-2.89-.72-3.07.18a12 12 0 0 1-.54 1.8s-2.88-.54-2.88 0v2s.54 2.52 1.62 1.62l1.08-.9s2.7 1.26 3.06-.18l-.36-2.7s2.35 2.16 2.89 1.08 0-3.42 0-3.42 4.14 5 4.32 3.06a3.06 3.06 0 0 0-.72-2.7s2.7 1.26 2.88 0a17 17 0 0 0 .18-2.21" style="fill:#263238"/><path d="M259.67 427.36s-3.79-1.44-3.07-.36l.73 1.08s-3.79-1.44-4-.36l-.18 1.08s-3.24-.36-3.6.9-.36 4 2.16 4.33 4.32-2.89 4.32-2.89 3.25 1.44 3.25.54v-.9s2.7 1.08 2.34-.18a13 13 0 0 0-1.95-3.24M261.68 414.54a3.19 3.19 0 0 0-3.25.18 2.6 2.6 0 0 1-.73.44c-.55.17-1.11-.18-1.65-.37a3.11 3.11 0 0 0-3.56 1.3c-.9-.86-2.35-.58-3.54-.25l-1.1.31a8.7 8.7 0 0 0-2.21.84c-1.49 0-3 .1-4.46.21L222 418.55a.9.9 0 0 0-.62.19.81.81 0 0 0-.07.91 2.39 2.39 0 0 0 4.52-.33 6.6 6.6 0 0 0 3 1.94c1.19.24 2.65-.44 2.78-1.64a4.34 4.34 0 0 0 6.28-.06 4.16 4.16 0 0 0 5.45-.71c-.21.57.28 1.18.83 1.44a3 3 0 0 0 4-1.89 6 6 0 0 0 3.29 1.15 2.33 2.33 0 0 0 2.32-2.18 4.8 4.8 0 0 0 3 1.23 2.34 2.34 0 0 0 2.32-2 2.31 2.31 0 0 0 4.16-.66 1.2 1.2 0 0 1 .22-.56c.34-.37.93 0 1.4.14a1.79 1.79 0 0 0 2.38-1.18c.42-2.26-5.42-1.64-5.58.2M241.87 410.1a2.76 2.76 0 0 0 0 2.74 2.62 2.62 0 0 0 3.38.64 4.12 4.12 0 0 0 1.86-3.13c.9.53-.37 2.36.54 2.88a1.2 1.2 0 0 0 .63.11h2a.8.8 0 0 0 .55-.14c.19-.15.2-.42.24-.66a2.73 2.73 0 0 1 2.35-2.26 4.6 4.6 0 0 0 0 2.06 6.3 6.3 0 0 0 5.11-.9c0 .22 0 .44.07.67a6.62 6.62 0 0 0 5.43-2.52c-3.44-1-7.1-1-10.69-.92-1 0-2.32.26-2.5 1.25a2.54 2.54 0 0 0-1.6-1.61 1.69 1.69 0 0 0-2 .84c.59-1.38-2.22-1.46-2.79-1.28a4.48 4.48 0 0 0-2.58 2.23" style="fill:#263238"/><path d="m111.75 205-.63-4.74-3.8 6.95-2.53-1.26s-3.47 8.85-4.11 10.75-1.89 6.63-2.21 7.9-1.26 4.11-1.26 4.11l-2.53-2.21s-.63 17.7-.63 22.44v10.43l-2.53-.63v4.42l-2.22-.63 1.9 10.12 1.9 6.32-18.65 30.31S47 346.26 44.1 354.8s2.53 2.21 4.43.94 28.47-35.4 31.29-37.61 20.55-21.81 28.13-26.56 14.23-8.21 15.81-8.53 8.85 1.9 8.85 1.9L131 297.26l2.85-1.26.31 7.9 2.21-2.53a71 71 0 0 0 .32 7.59 46 46 0 0 0 2.53 5.37l2.84 4.11 3.17-2.84 4.74 9.17 2.53 7.27 2.21-2.85s2.53 3.79 3.79 4.74 4.43 3.8 5.69 4.43 3.8 2.21 3.8 2.21l1.89-2.53 4.11 3.48.32-3.48 8.22 6.64 4.74 2.85-.27-4.43 2.53 2.53 1 .95 1.58-2.85 4.74 3.8 3.16-1.58 6.33 2.52 3.16.32 14.85-.63-2.53-4.11 9.17 2.21-1.58-4.42 7 3.16-1.9-2.85 6.95 1.9-.46-2.85 1.26-5.69 10.43 5.38.64-3.8 3.79.32-.63-4.11 2.53 1.9-.95-4.74 8.53 5.37-2.21-6.64 7.27 8.54 1.34-2.53 4.43 3.47 4.43 3.48 6.63 6 3.48 4.74v-3.48s2.21 4.11 2.85 5.06 1.26-2.21 1.26-2.21 4.74 4.11 5.69 5.06-2.21 0 4.11 2.21 3.79-1.9 3.79-1.9l9.17 3.79 10.08 1.58-7-7.91 8.22 4.11 1.27-4.11 13 1.58-5.41-7.25 4.11 2.22 2.53-5.69 4.43 2.21v-4.43l2.84.32.63-2.53 4.43 1 4.74 1.58 3.79 2.53 2.22 2.53v-4.75l5.69 1.27-.64-4.74 6 .63h4.74l-.31-4.74 5.05.31-1.58-6.63 12.33 3.11-2.21-7.91 7.27 3.17-.32-6.64 7 2.21-3.16-8.22.63-6.32L413 314v-7.9l1.58-4.75-.31-11.35 3.16 1.9-5.06-12.64-.32-4.11 3.48 3.79-2.84-10.43 5.37 4.11-3.16-8.54-2.21-3.79 6.32 5.06-4.11-7.59-3.16-6.64-2.53-5.37 5.06 3.48-3.16-6.33 4.74 2.22-7.59-7.59c-.95-1-4.74-6.32-4.74-6.32l-4.74-5.38-4.11-4.42-6.67-7.6s-19.89-16.75-29-22.44-23.08-8.54-26.24-9.8 1-.32-3.16-1.27-9.17-1.26-10.12-1.58-8.53-2.21-8.53-2.21l8.53-.32s-17.38-2.53-20.23-2.53-17.07 1-17.07 1l7.27-3.47-13.59.94a51 51 0 0 1-6-.31c-1.58-.32-7.27-.63-7.27-.63l-17.07-.95 4.11-2.85s-11.06 1.58-13.91 2.53a89 89 0 0 0-9.8 3.48c-2.52 1.26-25.92 12-31.92 17.07a96 96 0 0 1-14.23 9.8c-1.26.63-.31-8.22-.31-8.22l-4.11 2.84 4.11-7.27-6 3.16.63-4.42-3.48 3.48-.63-5.38-5.37 4.43-1.9-3.16-6.32 3.16 1.26-5.69-5.69 6-1.96 2.17-1.27-6-3.47 5.69-.64 2.53-.94-7-3.48 8.21-1.27 2.53-.94-9.8-.64 4.75-2.21-7.28-1.26 6.33-3.17-3.48-1.58 3.48-3.13-3.12-2.21 5-3.19-1.21-1.9 3.48-2.53-2.22Z" style="fill:#ffad66"/><path d="m330.2 363.72-11.59-1.82-8.05-3.34a1.78 1.78 0 0 1-.23 1.55c-.66.81-2.14.78-4.66-.1-4.31-1.51-4.33-1.57-4.41-2a.6.6 0 0 1 .07-.39c-.79-.78-3.7-3.31-5-4.44-.48 1.81-1 1.92-1.18 1.95a.76.76 0 0 1-.8-.38c-.37-.56-1.24-2.12-1.93-3.37v3l-4.35-5.93-6.6-6-8.33-6.45-1.33 2.66-6.09-7.16 1.84 5.53-8.73-5.5 1 4.88-2.59-1.94.54 3.52-4-.33-.67 4-10.46-5.4-1.11 5 .39 3.49-6.37-1.75 2.12 3.19-7.47-3.4 1.49 4.21-8.88-2.14 2.34 3.8-15.71.67-3.37-.35-6.08-2.49-3.25 1.63-4.53-3.63-1.62 2.91-3-3 .29 4.05-5.57-3.34-7.57-6.11-.32 3.5-4.43-3.73-1.85 2.47-.39-.24s-2.52-1.58-3.75-2.19a31 31 0 0 1-4-3.06c-.7-.58-1.32-1.1-1.74-1.42a24.4 24.4 0 0 1-3.52-4.29l-2.35 3-2.83-8.14-4.42-8.53-3.1 2.8-3.17-4.58a43.6 43.6 0 0 1-2.6-5.54 49.5 49.5 0 0 1-.33-6.38l-2.17 2.47-.33-8.41-3 1.32 1.64-12.79c-2.8-.83-7.19-2-8.2-1.76-1.49.3-8.12 3.77-15.64 8.47-5.07 3.17-14.91 13.25-21.42 19.92-3.32 3.4-5.72 5.86-6.67 6.6-1.45 1.13-9.69 11.35-17 20.37-8.34 10.34-13.46 16.67-14.37 17.27a18 18 0 0 0-1.47 1.22c-1.94 1.72-3.19 2.73-4 2.15s-.65-1.91.35-4.89c2.83-8.51 29.29-44.15 30.42-45.66l18.5-30.12-1.83-6.11-2.06-11 2.36.67v-4.4l2.53.63v-9.72c0-4.7.62-22.29.63-22.46v-1.05l2.75 2.4c.3-.92.81-2.51 1-3.35.29-1.19 1.57-6 2.22-7.94s4-10.41 4.12-10.77l.2-.51 2.58 1.29 4.3-7.87.57 4.29 4-10.52 2.6 2.28 1.81-3.32 3.13 1.25 2.31-5.29 3.19 3.17 1.59-3.51 3 3.31L135 183l2.12 7 .9-6.77 1.2 12.39.49-1 4.17-9.87.85 6.19.06-.15L149 184l1.32 6.24 1.23-1.44 7-7.34-1.55 6.46 5.79-2.9 1.84 3.06 5.63-4.64.62 5.26 3.81-3.8-.71 4.94 6.65-3.5-3.88 6.85L180 191l-.12 1.08c-.33 3.08-.47 6.66-.18 7.61a99 99 0 0 0 13.9-9.62c5.19-4.37 23-12.86 29.76-16l2.27-1.09a61 61 0 0 1 7.64-2.79l2.23-.71c2.85-1 13.54-2.49 14-2.55l2.1-.3-4.6 3.14 15.61.87c.23 0 5.74.32 7.34.64a50 50 0 0 0 5.91.3l16.14-1.13-7.3 3.5c4.25-.28 12.4-.78 14.51-.78 2.85 0 19.59 2.43 20.31 2.53l-.06 1-5 .19c2.16.55 4.65 1.19 5.18 1.37a26 26 0 0 0 2.7.4 72 72 0 0 1 7.37 1.17c2.26.52 2.34.54 2.36.91.17.08.44.2.87.37.79.32 2.33.75 4.27 1.3 5.68 1.6 15.18 4.28 22 8.54 9.09 5.65 28.94 22.32 29.14 22.49l6.69 7.64 4.1 4.41 4.75 5.39c1.34 1.89 4 5.57 4.72 6.3l9.6 9.59-6-2.81 3.39 6.78-5.13-3.53 4.9 10.34 5.27 9.73-6.15-4.92.86 1.47 3.8 10.23-5.57-4.26 3 11-3.9-4.25.2 2.59 5.58 13.95-3.65-2.19.29 10.56-1.58 4.75v9.1l-3.91-4.24-.5 5.1 3.49 9.08-7.26-2.31.32 6.72-7.05-3.06 2.17 7.73-12.37-3.17 1.55 6.48-5.17-.32.32 4.71h-5.28l-5.43-.57.65 4.82-5.8-1.28v5.45L366.2 347l-3.68-2.46-4.68-1.56-3.9-.83-.62 2.48-2.72-.3V349l-4.69-2.34-2.53 5.7-2.62-1.41 4.74 6.41-13.7-1.67-1.31 4.27-6.49-3.25ZM318.94 361l8.69 1.36-7.74-8.79 10 5 1.21-3.94 12.22 1.49-6-8.14 5.6 3 2.53-5.68 4.17 2.09v-4.18l3 .33.65-2.57 4.83 1.03 4.92 1.65 3.89 2.62 1.34 1.53v-4l5.6 1.25-.63-4.67 6.64.7H384l-.32-4.78 4.95.31-1.63-6.84 12.3 3.15-2.27-8.08 7.5 3.26-.31-6.56 6.65 2.12-2.83-7.36.75-7.55 3.68 4v-6.78l1.55-4.66-.34-12.21 2.67 1.61-4.54-11.42-.43-5.55 3.07 3.34-2.7-9.87 5.18 4-2.56-6.91-3.53-6 6.49 5.19-2.87-5.49-6.46-13.72 5 3.43-3-5.88 3.47 1.62-5.58-5.58c-1-1-4.64-6.16-4.8-6.38l-4.71-5.34-4.1-4.41-6.65-7.6c-.14-.11-19.94-16.74-29-22.35-6.74-4.19-16.16-6.84-21.79-8.43-2-.55-3.53-1-4.37-1.33s-1.41-.6-1.56-.88l-1.52-.36c-2.44-.56-5.23-.9-7.27-1.15a22 22 0 0 1-2.9-.44c-.91-.31-8.42-2.19-8.49-2.21l-3.42-.85 6.44-.24c-5.34-.74-12.84-1.73-14.6-1.73-2.79 0-16.89.93-17 .94l-2.6.18 7.25-3.47-11 .76a48 48 0 0 1-6.13-.32c-1.53-.31-7.15-.62-7.2-.63l-18.53-1 3.54-2.46a114 114 0 0 0-11.7 2.2l-2.24.72a59 59 0 0 0-7.49 2.73l-2.29 1.09c-6.69 3.18-24.45 11.62-29.54 15.91a96.5 96.5 0 0 1-14.32 9.87.74.74 0 0 1-.76 0c-.84-.58-.71-4.24-.39-7.59l-5 3.47 4.34-7.69-5.36 2.82.56-3.91-3.15 3.15-.65-5.49-5.11 4.21-2-3.26-6.85 3.42 1.1-4.95-4.44 4.7-2.54 3-1.22-5.76-2.78 4.55-1.24 5-1-7.72-2.75 6.36-2.06 4.11-.69-7.2-.37 2.71-2.3-7.57-1.07 5.35-3.31-3.65-1.57 3.44-3.15-3.15-2.14 4.87-3.19-1.28-2 3.63-2.45-2.15-4.85 12.89-.69-5.19-3.29 6-2.47-1.24c-.75 1.91-3.37 8.61-3.9 10.21-.62 1.85-1.88 6.57-2.2 7.87s-1.24 4-1.28 4.15l-.24.71-2.3-2c-.13 3.88-.59 17.37-.59 21.38V260l-2.55-.66v4.45l-2.08-.59 1.75 9.32 2 6.48-.12.19-18.68 30.35c-.3.4-27.51 37-30.3 45.41-1.06 3.18-.76 3.71-.72 3.76.4 0 2-1.39 2.82-2.08a20 20 0 0 1 1.58-1.3c.84-.56 7.91-9.33 14.14-17.07 7.67-9.5 15.59-19.33 17.12-20.53.9-.69 3.41-3.26 6.58-6.51 6.54-6.7 16.43-16.84 21.6-20.07 7.13-4.46 14.15-8.24 16-8.6 1.65-.34 8.34 1.68 9.1 1.91l.4.12-1.52 11.87 2.71-1.21.29 7.39 2.23-2.63v1.33a66 66 0 0 0 .31 7.47 41 41 0 0 0 2.48 5.26l2.49 3.59 3.22-2.9 5 9.75 2.3 6.5 2.07-2.66.39.57a27.7 27.7 0 0 0 3.67 4.62c.43.32 1.07.86 1.78 1.45a31.5 31.5 0 0 0 3.84 2.93c1 .49 2.68 1.52 3.44 2l1.94-2.59 3.78 3.2.31-3.45 9 7.22 3.86 2.31-.34-4.8 4 3.95 1.55-2.78 5 4 3.08-1.54 6.47 2.58 3.09.31 13.93-.59-2.72-4.42 9.45 2.28-1.67-4.67 6.44 2.93-1.67-2.5 7.54 2.05-.25-2.19 1.42-6.41 10.4 5.36.6-3.57 3.62.3-.72-4.69 2.46 1.84-.92-4.6 8.34 5.25-2.59-7.75 8.45 9.92 1.2-2.4 9.33 7.33 6.74 6.1 2.57 3.51v-3.93l.94 1.75s1.89 3.5 2.66 4.75a9.7 9.7 0 0 0 .52-1.77l.17-.84.65.56c.19.17 4.76 4.13 5.71 5.08a1 1 0 0 1 .35.7.3.3 0 0 0 0 .08c.62.27 2.07.79 3.59 1.32 2.87 1 3.45.51 3.54.41.25-.31-.1-1.18-.34-1.58l-.81-1.31Z" style="fill:#263238"/><path d="M146.15 242.89s.37-3.21.37-5.71-2.26 3.21-2.26 3.21l-4.53-6.39-6.79 4.64-3.77-10.71-1.88 8.57-6.41-7.86-1.14 8.57A89 89 0 0 0 113 230c-4.15-3.92.37 10.35 0 9.28a14.55 14.55 0 0 0-5.29-6.06c-2.64-1.43 2.64 11.42 2.64 11.42a11.6 11.6 0 0 0-5.28-2.5c-3.39-.71 1.46 14.64 1.46 14.64a13.21 13.21 0 0 0 13.45 12.95 13.53 13.53 0 0 0 11.86-6.84 31 31 0 0 1 4.54 1 18.2 18.2 0 0 0 5.28 1.43c2.64.36 5.28-3.57 5.28-3.57l3.39-3.21 1.89-7.5 1.89-4.28 1.88-4.64Z" style="fill:#fff;opacity:.51"/><path d="M121.86 258.22a4.9 4.9 0 1 1-4.9-4.9 4.9 4.9 0 0 1 4.9 4.9" style="fill:#263238"/><path d="M117 263.62a5.4 5.4 0 1 1 5.4-5.4 5.41 5.41 0 0 1-5.4 5.4m0-9.8a4.4 4.4 0 1 0 4.4 4.4 4.41 4.41 0 0 0-4.4-4.4" style="fill:#263238"/><path d="M121.23 257.75a1.27 1.27 0 1 1-1.26-1.26 1.25 1.25 0 0 1 1.26 1.26" style="fill:#fff"/><path d="M107.28 251.61c-.28 0-6.94-.76-16.75-10.58a210 210 0 0 1-17.43-20l-4.44-6.33.82-.57 4.43 6.32a210.5 210.5 0 0 0 17.33 19.85c9.56 9.56 16.07 10.28 16.13 10.28Z" style="fill:#263238"/><path d="M102.64 252.49c-.11-.07-10.55-6.42-16.22-12.09l.71-.71c5.58 5.59 15.92 11.88 16 11.94ZM103.14 256.67c-.38-.06-9.41-1.38-19.21-9.28l.63-.78c9.57 7.72 18.63 9 18.72 9.06ZM97.84 262c-.14 0-13.72 0-21.26-1.27s-18.94-6.76-19.42-7l.44-.89c.11.05 11.72 5.67 19.14 6.91s21 1.25 21.1 1.25ZM84.45 265.55c-3.41 0-6.81-.09-9.73-.35l.09-1c10.58.93 27.56-.31 27.73-.32l.08 1c-.13.02-9.15.67-18.17.67M80.54 269.62l-.17-1c7.5-1.25 16-2.83 16.11-2.85l.19 1c-.09.02-8.67 1.6-16.13 2.85" style="fill:#263238"/><path d="M115.86 273.87s-2.15 1.84-4.81 4.3l-7.22-.37s-5 3.19-6.84 5.47-3.89-4.34-3.89-4.34l-18.65 30.35S47 346.26 44.1 354.8s2.53 2.21 4.43.94 28.47-35.4 31.29-37.61 20.55-21.81 28.13-26.56c4.49-2.8 8.63-5.15 11.6-6.68l1.15-3.44s-4.56 0-5.93-.92 1.09-6.66 1.09-6.66" style="fill:#cfcfcf"/><path d="M43.82 359.69a.93.93 0 0 1-.54-.16c-.75-.5-.65-1.91.35-4.89 2.83-8.51 29.29-44.15 30.42-45.66l19.2-31.25.32 1c.54 1.71 1.72 4.3 2.55 4.46 0 0 .22 0 .48-.28 1.85-2.32 6.75-5.45 7-5.58l.14-.09 7.16.37c2.57-2.37 4.65-4.15 4.67-4.17l1.63-1.39-.84 2c-1.22 2.86-1.81 5.68-1.27 6.05 1 .68 4.43.83 5.65.83h.7l-1.44 4.31-.18.09c-3.22 1.66-7.44 4.09-11.56 6.67-5.07 3.17-14.91 13.25-21.42 19.92-3.32 3.4-5.72 5.86-6.67 6.6-1.45 1.13-9.68 11.35-16.95 20.36-8.34 10.35-13.47 16.68-14.38 17.28a18 18 0 0 0-1.47 1.22c-1.61 1.39-2.72 2.31-3.55 2.31M93 280.09l-18.1 29.45c-.3.4-27.51 37-30.3 45.41-1.06 3.18-.76 3.71-.72 3.76.41.06 2-1.39 2.82-2.08a18 18 0 0 1 1.58-1.3c.84-.56 7.91-9.33 14.15-17.08 7.66-9.5 15.58-19.32 17.11-20.52.9-.69 3.4-3.26 6.57-6.51 6.55-6.7 16.44-16.84 21.61-20.07 4.07-2.54 8.23-4.94 11.45-6.61l.87-2.6c-1.38 0-4.35-.22-5.51-1s-.51-3.4.17-5.37c-.86.75-2 1.79-3.28 3l-.16.14-7.27-.37c-.8.52-5 3.29-6.58 5.27a1.45 1.45 0 0 1-1.45.64c-1.34-.25-2.44-2.68-2.96-4.16" style="fill:#263238"/><path d="m49 356-.84-.55c.14-.22 14.68-22.63 26.25-38 9.35-12.38 20-23.21 26.32-29.68 1.6-1.63 2.86-2.91 3.75-3.87.64-.68 1.33-1.39 2-2.1l.71.71c-.7.7-1.38 1.4-2 2.07-.9 1-2.16 2.26-3.76 3.89-6.33 6.45-16.93 17.25-26.24 29.58C63.61 333.41 49.09 355.79 49 356" style="fill:#263238"/><path d="M274.54 174.3a49 49 0 0 1-6-.32c-1.58-.31-7.27-.63-7.27-.63l-17.07-.95 4.11-2.84s-11.07 1.58-13.91 2.53a88 88 0 0 0-9.8 3.48c-2.53 1.26-25.92 12-31.93 17.07a97 97 0 0 1-14.22 9.79c-1.27.64-.32-8.21-.32-8.21l-4.13 2.84 4.11-7.27-6 3.16.64-4.42-3.47 3.47-.63-5.37-5.38 4.42-1.89-3.16-6.33 3.16 1.27-5.69-5.69 6-1.9 2.21-1.26-6-3.47 5.7-.63 2.53-1-7-3.48 8.22-1.26 2.53-.95-9.8-.63 4.74-2.22-7.27-1.26 6.32-3.16-3.47-1.58 3.47-3.16-3.16-2.22 5.06-3.16-1.26-1 1.83v8.6l1-2.23 3.18 9.53 1.59-2.54 2.54 6.66 2.22-10.79.95 11.11 7-11.43v13.38l5.39-6.67 1 3.49 5.39-6.35-4.44 8.89 6.29-6.66s-7.62 12.39-7 11.43 8.58-2.54 8.58-2.54l-8.58 6.67 9.85-1.27-6 4.45 4.45 1.9 5.08 4.45a83 83 0 0 1 5.08 9.2 56 56 0 0 1 2.22 7.94s-3.49-6.35-3.49-5.4-.95 8.89-.95 8.89-2.23 8.58-2.86 11.43-8.57 14.29-8.57 14.29l.63-2.54.64-11.75-3.18 9.53-1.59-8.57-4.44 6.66-1 3.5-3.81-1.91.31 5.4-3.81.95 3.18 3.81v7.62l2.54-3.81 3.36 15c-.85-4.36-1.14-18.47-1.14-18.47l3.81-5.08 1 10.79 1-4.44 3.17 3.49 1.59-4.44 2.86 2.85 1.9-4.12 2.86 6.35.32-8.89 6.35 12.38 1.9-2.86v-7l4.34 13.64 3.17 7.93c-.63-2.85-1.27-11.74-1.27-11.74l1.27-5.72 3.49 6.35v-8.25l7 7-1.27-10.47 11.11 15.23-7-15.87s7.62 9.84 7.31 8.89-4.77-14.92-4.77-14.92l7.31 6.35-3.18-6.35 3.18 1.27-2.54-5.08 11.78-3.15-5.08-5.08 14.93 1.59a25 25 0 0 1-3.5-1.27c-1.27-.63-8.25-4.44-8.25-4.44l-8.57-4.13 9.84-.32-4.45-3.17 2.86-.32 10.8-.95-5.72-3.5 7.62-4.12 7.94-6-5.72-1.27 8.26-2.85c-5.4-.32-15.24-1.91-15.24-1.91l17.46-3.81 5.4-4.76 14-9.53-8.26 3.81 5.72-6 6-6-3.81-1.59 15.88-4.12-17.47-2.54a32 32 0 0 1 3.18-4.45c1.27-1.27 22.86-11.75 22.86-11.75l-9.53 2.54 14.8-12.06Z" style="opacity:.36"/><path d="M211.35 258a24.1 24.1 0 0 0 6.62 1.58 16.1 16.1 0 0 0 6.61-.71 42 42 0 0 1 6.84-1.27 47 47 0 0 1 6.92-.24q-3.42.51-6.8 1.1c-2.25.42-4.49.85-6.67 1.47a16.4 16.4 0 0 1-3.47.68 15.5 15.5 0 0 1-3.54-.17 17.4 17.4 0 0 1-6.51-2.44M219.29 248.78c1.29.13 2.57.25 3.86.28s2.56.06 3.84 0a26.7 26.7 0 0 0 7.45-1.3 68 68 0 0 0 7.1-2.9c1.17-.53 2.33-1.09 3.48-1.67l3.48-1.71a58 58 0 0 1-6.58 4.14 43.4 43.4 0 0 1-7.13 3.19 22.8 22.8 0 0 1-7.79 1.1 30.8 30.8 0 0 1-7.71-1.13M241.83 238a21.5 21.5 0 0 0 3.45-1.94 30.5 30.5 0 0 0 3.14-2.38c1-.87 2-1.75 2.86-2.7a26.6 26.6 0 0 1 3.11-2.62 44 44 0 0 1 7-4 53 53 0 0 1 7.46-2.88c-1.19.6-2.39 1.16-3.56 1.79s-2.36 1.2-3.51 1.85a65 65 0 0 0-6.71 4.13 27 27 0 0 0-3 2.46 31 31 0 0 1-3.07 2.62 21 21 0 0 1-7.17 3.67M232.94 229.1l4.51-1.17c1.5-.37 3-.75 4.5-1.15a82 82 0 0 0 8.79-2.74c.33-.16.7-.29 1-.47s.63-.34 1-.56a18.5 18.5 0 0 1 2.12-1.09 51 51 0 0 1 4.37-1.7 88 88 0 0 1 9-2.55l-4.34 1.67c-1.45.54-2.9 1.09-4.32 1.68s-2.86 1.18-4.23 1.85a22 22 0 0 0-2 1.06c-.3.19-.66.4-1 .61s-.73.34-1.09.51a53 53 0 0 1-9 2.55c-3.15.63-6.25 1.16-9.31 1.5M256.44 205.92c1.68-.26 3.35-.5 5-.8s3.33-.57 5-.92 3.29-.73 4.87-1.24a17 17 0 0 0 2.31-.86 23 23 0 0 1 2.41-1 65.4 65.4 0 0 1 10-2.26c3.35-.53 6.72-1 10.11-1.19l-5 1c-1.66.33-3.32.65-5 1a99 99 0 0 0-9.78 2.46 24 24 0 0 0-2.3.92 18 18 0 0 1-2.46.89 42 42 0 0 1-5 1.07 77 77 0 0 1-10.16.93M293.27 190.68a28.4 28.4 0 0 1 6.29-1 24 24 0 0 1 6.42.5 38 38 0 0 1 6.07 2 41 41 0 0 1 5.66 2.92q-3-1.09-6-2.11c-2-.66-4-1.29-6-1.75a31.5 31.5 0 0 0-6.16-.72c-2.06-.02-4.17.02-6.28.16M316.44 187.82a39.4 39.4 0 0 1 7.94.92 31.5 31.5 0 0 1 3.88 1.08 24.3 24.3 0 0 1 3.66 1.68c2.33 1.28 4.66 2.56 6.94 3.91l3.43 2c1.12.71 2.26 1.39 3.36 2.13-1.22-.52-2.42-1.1-3.62-1.65l-3.57-1.76c-2.37-1.17-4.71-2.42-7-3.67a31.7 31.7 0 0 0-7.25-2.93c-1.26-.37-2.54-.68-3.83-.95s-2.63-.51-3.94-.76M346 193.86a53.6 53.6 0 0 1 7 4.25 28 28 0 0 1 3.23 2.54 21 21 0 0 1 2.78 3c-1.14-.79-2.23-1.59-3.33-2.38s-2.22-1.54-3.34-2.32a53.5 53.5 0 0 1-6.34-5.09M367.24 206.56c2.17 1.15 4.4 2 6.51 3.37a18 18 0 0 1 2.93 2.3 15 15 0 0 1 2.31 2.9c-1-.76-1.92-1.52-2.88-2.24s-1.94-1.39-2.95-2-2.05-1.26-3.07-1.94a14 14 0 0 1-2.85-2.39M363.11 214.49a81 81 0 0 1 10.81 4.51c1.73.88 3.46 1.78 5.13 2.8a23.4 23.4 0 0 1 4.7 3.52 54 54 0 0 0-5.11-2.76l-5.22-2.56c-3.42-1.78-6.94-3.52-10.31-5.51M374.86 226.56a17 17 0 0 1 3.08 1.2 26 26 0 0 1 2.88 1.62 17.4 17.4 0 0 1 4.84 4.48l-5.45-3.56c-1.8-1.19-3.61-2.36-5.35-3.74M354.54 226.56a19.4 19.4 0 0 1 3.66.18 26 26 0 0 1 3.6.73 20 20 0 0 1 3.45 1.31 8.36 8.36 0 0 1 2.94 2.22 18 18 0 0 0-3.28-1.43c-1.12-.37-2.26-.72-3.41-1-2.3-.69-4.63-1.25-6.96-2.01M331.68 211a38 38 0 0 1 9.09.85 30 30 0 0 1 4.41 1.28 11.1 11.1 0 0 1 4 2.32 19.6 19.6 0 0 0-4.23-1.5c-1.45-.37-2.9-.72-4.37-1-2.98-.65-5.94-1.2-8.9-1.95M348.51 208.14a21.8 21.8 0 0 1 5.92.58 20.4 20.4 0 0 1 2.86.85 9.7 9.7 0 0 1 2.65 1.43c-1-.22-1.94-.4-2.89-.6l-2.86-.6a39 39 0 0 1-5.68-1.66M319.3 200.52a16 16 0 0 1 3.11-.64 21 21 0 0 1 3.17-.11 16.2 16.2 0 0 1 3.17.43 8.1 8.1 0 0 1 2.93 1.28 38 38 0 0 0-6.15-.6c-2.05-.11-4.11-.13-6.23-.36M311.36 205.29a21 21 0 0 1 3.47-.71 30 30 0 0 1 3.51-.26 26 26 0 0 1 3.53.17 14.6 14.6 0 0 1 3.46.8l-7 .13c-2.33.03-4.6.06-6.97-.13M290.41 183.06a58 58 0 0 1 9.77-1.6c1.65-.13 3.31-.21 5-.18a22.3 22.3 0 0 1 4.95.51c-1.65.05-3.28.22-4.92.35l-4.9.43c-3.31.25-6.58.5-9.9.49M274.53 183.7a14.6 14.6 0 0 1 2.75-1.66 20.6 20.6 0 0 1 3-1.16 15 15 0 0 1 6.35-.68l-3 .85c-1 .3-2 .57-3 .89-2.05.59-4.01 1.24-6.1 1.76M254.21 184.33a25.6 25.6 0 0 1 5.63-2.88 24.1 24.1 0 0 1 6.12-1.56 44.4 44.4 0 0 1-5.73 2.59 41.6 41.6 0 0 1-6.02 1.85M260.88 191.63a76 76 0 0 1 8.81-2.18c3-.55 5.94-1 9-1.31a49 49 0 0 1-8.76 2.4 59 59 0 0 1-9.05 1.09M287.55 206.24a33.3 33.3 0 0 1 9.69-1.79 25.8 25.8 0 0 1 5 .26 14.5 14.5 0 0 1 4.72 1.53 27.4 27.4 0 0 0-4.81-.67c-1.6-.1-3.22-.07-4.83 0s-3.22.17-4.84.28ZM320.89 218.3a47.5 47.5 0 0 1 11 .65 34.5 34.5 0 0 1 5.37 1.32 16 16 0 0 1 4.93 2.48 27.5 27.5 0 0 0-5.19-1.65q-2.64-.63-5.32-1.06c-1.78-.32-3.57-.59-5.37-.87s-3.61-.56-5.42-.87M350.1 234.5c2.79.61 5.53 1.44 8.25 2.32s5.39 1.9 8 3 5.24 2.3 7.78 3.62a68 68 0 0 1 7.36 4.41c-1.31-.59-2.55-1.28-3.86-1.85s-2.58-1.21-3.87-1.79c-2.61-1.14-5.2-2.29-7.83-3.37s-5.27-2.13-7.91-3.2ZM357.72 243.39a60.3 60.3 0 0 1 12.12 4.45 43.6 43.6 0 0 1 5.62 3.25 20.2 20.2 0 0 1 4.8 4.36 33.5 33.5 0 0 0-5.26-3.63c-1.84-1.07-3.73-2-5.65-3s-3.84-1.85-5.79-2.75ZM344.7 249.42a40.5 40.5 0 0 1 7.77 2.08 48.5 48.5 0 0 1 7.32 3.39 39.5 39.5 0 0 1 6.58 4.68 30.9 30.9 0 0 1 5.32 6c-1-.92-1.8-2-2.84-2.81-.5-.44-1-.91-1.47-1.34l-1.55-1.23a56 56 0 0 0-6.59-4.38c-2.29-1.32-4.67-2.48-7.09-3.57-1.21-.53-2.44-1-3.69-1.5s-2.46-.89-3.76-1.32M369.15 257.67a64 64 0 0 1 5.58 4.65c1.8 1.63 3.5 3.36 5.13 5.16a57 57 0 0 1 4.54 5.7 29.6 29.6 0 0 1 3.48 6.4c-.33-.51-.66-1-1-1.54s-.7-1-1-1.48c-.68-1-1.4-1.94-2.16-2.87-1.5-1.87-3.08-3.68-4.69-5.47s-3.25-3.53-4.89-5.3ZM389.15 256.72a46.6 46.6 0 0 1 9.72 9.41 40.5 40.5 0 0 1 3.66 5.75 23.8 23.8 0 0 1 2.18 6.43 42 42 0 0 0-2.94-6 64 64 0 0 0-3.78-5.49c-1.35-1.77-2.8-3.47-4.27-5.15s-3-3.33-4.57-4.95M394.55 279.26a23.3 23.3 0 0 1 5.13 6.61 23.7 23.7 0 0 1 1.65 3.88 18 18 0 0 1 .84 4.12c-.56-1.3-1.06-2.57-1.65-3.81s-1.16-2.47-1.82-3.67c-1.27-2.39-2.7-4.75-4.15-7.13M371.05 276.4a55 55 0 0 1 6.29 6.48 66 66 0 0 1 5.3 7.33 55 55 0 0 1 4.18 8 43.7 43.7 0 0 1 2.65 8.63c-.58-1.39-1-2.84-1.61-4.19-.29-.69-.56-1.39-.86-2.07l-1-2a85 85 0 0 0-4.33-7.8c-1.57-2.54-3.27-5-5-7.4-.88-1.2-1.8-2.38-2.74-3.54s-1.93-2.29-2.88-3.44M391.05 294.5a65 65 0 0 1 5.3 9.73c.75 1.69 1.44 3.41 2 5.17a24 24 0 0 1 1.25 5.42c-.59-1.76-1.34-3.42-2.06-5.11l-2.23-5c-1.45-3.39-2.96-6.71-4.26-10.21M346.92 269.1a15.9 15.9 0 0 1 5.49 1.38 21.7 21.7 0 0 1 4.89 2.95 23 23 0 0 1 3.95 4.1 23 23 0 0 1 1.57 2.37c.45.83.86 1.68 1.25 2.54a56 56 0 0 0-3.49-4.36l-.92-1-1-1c-.63-.65-1.36-1.22-2.05-1.81a31 31 0 0 0-4.57-3 26.6 26.6 0 0 0-5.12-2.17M335.81 254.18a44.2 44.2 0 0 1 11.29 3.18 30 30 0 0 1 5.2 2.8 13 13 0 0 1 4.15 4.18 18.8 18.8 0 0 0-4.61-3.45 51 51 0 0 0-5.18-2.52c-1.76-.77-3.56-1.47-5.38-2.16ZM329.14 273.86a42 42 0 0 1 16.46 7.38 31.5 31.5 0 0 1 4.5 4.05c-1.67-1.14-3.29-2.29-5-3.33s-3.39-2.07-5.15-3-3.52-1.83-5.33-2.68-3.62-1.65-5.48-2.42M363.11 290.37a42.8 42.8 0 0 1 9 7.63 34.3 34.3 0 0 1 3.57 4.73 20.1 20.1 0 0 1 2.37 5.42 45.8 45.8 0 0 0-6.77-9.42c-1.27-1.45-2.63-2.83-4-4.23s-2.75-2.76-4.17-4.13M388.51 243.39a31.9 31.9 0 0 1 9.09 4.77 24.3 24.3 0 0 1 3.81 3.5 14 14 0 0 1 2.66 4.42 24 24 0 0 0-3.28-3.82 44 44 0 0 0-3.86-3.22c-1.33-1-2.73-1.95-4.13-2.89s-2.8-1.86-4.29-2.76M394.86 234.18a16 16 0 0 1 2.89 1.41 24 24 0 0 1 2.6 1.87 14.8 14.8 0 0 1 4 5l-2.36-2.1-2.39-2c-1.55-1.36-3.18-2.7-4.74-4.18M310.09 233.86a45.6 45.6 0 0 1 10-1.37 36 36 0 0 1 5.07.19 16.8 16.8 0 0 1 4.94 1.18 38 38 0 0 0-5-.32q-2.49 0-5 .06c-3.3.08-6.63.27-10.01.26M301.52 227.51a41.7 41.7 0 0 1 8.37-1.34 38 38 0 0 1 4.25 0 14.7 14.7 0 0 1 4.21.74 42 42 0 0 0-4.21.13l-4.18.27c-2.8.12-5.59.29-8.44.2M293.9 217.67a40.2 40.2 0 0 1 9.75-3.2 27.4 27.4 0 0 1 10.25-.29c-1.71.1-3.39.3-5.06.52s-3.33.53-5 .86c-3.3.64-6.58 1.44-9.94 2.11M264.06 238.94a116 116 0 0 1 12.08-.08 120 120 0 0 1 12.05 1 116 116 0 0 1-12.08.08 119 119 0 0 1-12.05-1M286.28 244c3.79-.07 7.55.17 11.3.44 1.88.16 3.75.31 5.62.51s3.74.42 5.62.64a64 64 0 0 1-11.32-.05 87 87 0 0 1-11.22-1.54M322.79 241.48a42 42 0 0 1 7.21.24 41.7 41.7 0 0 1 7.08 1.35 47.4 47.4 0 0 1-14.29-1.59M292.63 253.23a66.4 66.4 0 0 1 13.07 0 49 49 0 0 1 6.48 1 22.1 22.1 0 0 1 6.17 2.21A39.7 39.7 0 0 0 312 255c-2.13-.31-4.28-.56-6.43-.74s-4.3-.37-6.46-.54-4.31-.3-6.48-.49M313.27 263.7a59.7 59.7 0 0 1 10.69.71 50 50 0 0 1 5.27 1.09 18.3 18.3 0 0 1 5 2 37 37 0 0 0-5.18-1.16c-1.75-.3-3.49-.59-5.25-.85-3.51-.49-7.02-1.05-10.53-1.79M303.11 278c2.31.56 4.56 1.29 6.8 2.06s4.45 1.63 6.64 2.55a70 70 0 0 1 6.4 3.11c1.05.57 2.06 1.19 3.07 1.82l1.45 1.05c.47.37.91.77 1.36 1.16l-1.53-.91-1.56-.83c-1.05-.53-2.09-1.06-3.17-1.53-2.14-1-4.29-1.94-6.46-2.85l-6.5-2.78-3.26-1.4c-1.08-.45-2.17-.95-3.24-1.45M339.3 290.37a17.2 17.2 0 0 1 3.27 1.71 23 23 0 0 1 2.9 2.29 18.6 18.6 0 0 1 2.43 2.81 10.8 10.8 0 0 1 1.56 3.35c-.72-1-1.46-1.93-2.24-2.82s-1.64-1.72-2.51-2.54c-1.71-1.64-3.57-3.17-5.41-4.8M357.08 302.44a37.2 37.2 0 0 1 7.16 5.76 23.1 23.1 0 0 1 5.22 7.57c-.91-1.24-1.91-2.37-2.9-3.5s-2.06-2.21-3.11-3.29c-2.1-2.18-4.28-4.28-6.37-6.54M338 303.71a36 36 0 0 1 7.7 6 35 35 0 0 1 3.19 3.72 22 22 0 0 1 2.45 4.25c-1-1.28-2.06-2.5-3.12-3.7s-2.18-2.36-3.31-3.49c-2.22-2.29-4.56-4.49-6.91-6.78M359 315.46a38.3 38.3 0 0 1 5.34 7.19 33.5 33.5 0 0 1 2 4 17 17 0 0 1 1.22 4.34c-.6-1.38-1.31-2.66-2-4s-1.44-2.57-2.19-3.84c-1.47-2.5-3.01-5.03-4.37-7.69M324.06 304a73 73 0 0 1 6.21 4.25c2 1.5 4 3.11 5.83 4.78a63 63 0 0 1 5.32 5.36 25.6 25.6 0 0 1 4.23 6.24c-.38-.5-.74-1-1.1-1.51l-1.21-1.43c-.82-.93-1.65-1.85-2.55-2.72-1.76-1.75-3.57-3.46-5.43-5.11s-3.74-3.3-5.62-4.95ZM309.46 305a75.5 75.5 0 0 1 11 4.91 59 59 0 0 1 5.17 3.12 17.8 17.8 0 0 1 4.49 4 13.8 13.8 0 0 0-2.4-1.77c-.83-.55-1.7-1-2.55-1.53-1.73-1-3.48-1.93-5.24-2.88-3.52-1.85-7.04-3.78-10.47-5.85M313 317.68a27.2 27.2 0 0 1 8.52 3.12 24.3 24.3 0 0 1 3.76 2.61 14.7 14.7 0 0 1 3 3.48 35 35 0 0 0-3.49-2.79c-1.23-.83-2.48-1.61-3.77-2.34s-2.61-1.41-3.94-2.09ZM293.58 315.14a57 57 0 0 1 8.47 4.44c1.34.86 2.67 1.74 3.93 2.72a17.7 17.7 0 0 1 3.48 3.32c-1.26-1-2.64-1.76-4-2.61l-4-2.5c-2.68-1.7-5.34-3.41-7.88-5.37M293.9 325.3a22 22 0 0 1 3.68 1.76 28 28 0 0 1 3.39 2.3 20.4 20.4 0 0 1 3 2.84 9.6 9.6 0 0 1 2 3.57 18.4 18.4 0 0 0-2.66-3c-1-.91-2-1.76-3-2.58-2.11-1.63-4.31-3.19-6.41-4.89M317.4 329.74a75 75 0 0 1 7.65 6.8 54 54 0 0 1 6.63 7.81c-1.26-1.16-2.53-2.29-3.76-3.47s-2.45-2.36-3.66-3.56a97 97 0 0 1-6.86-7.58M337.4 329.74a33.8 33.8 0 0 1 9.52 7.62 29.4 29.4 0 0 1-5.11-3.38 30 30 0 0 1-4.41-4.24M279.93 300.53a98 98 0 0 1 10.37 3.62 96 96 0 0 1 9.95 4.64 109.3 109.3 0 0 1-20.32-8.26M287.87 293.23a52 52 0 0 1 14.29 4.77 44 44 0 0 1-7.32-1.85 45 45 0 0 1-6.97-2.92M301.84 286.25a35 35 0 0 1 6.49 2.4c1 .5 2.06 1 3.05 1.62a17.4 17.4 0 0 1 2.84 2 69 69 0 0 1-6.37-2.63 43 43 0 0 1-6.01-3.39M248.5 302.76c2.82 1.69 5.52 3.5 8.25 5.26s5.46 3.48 8.26 5.21a34.7 34.7 0 0 1-8.86-4.29 44 44 0 0 1-7.65-6.18M262.47 307.52q3 1.1 5.88 2.25c1.95.74 3.89 1.52 5.85 2.2s3.95 1.22 6 1.91a30.7 30.7 0 0 1 5.79 2.53c-2-.67-4-1.17-6-1.7l-3-.76c-1-.26-2-.6-3-.94a60.2 60.2 0 0 1-11.52-5.49M256.44 317.68c3.63 1.12 7.13 2.52 10.61 4q2.61 1.1 5.18 2.26c1.73.75 3.42 1.58 5.16 2.34a38 38 0 0 1-5.47-1.54c-1.79-.62-3.55-1.32-5.3-2a90 90 0 0 1-10.18-5.06M276.76 330.38a8.8 8.8 0 0 1 2.43.55 12.5 12.5 0 0 1 2.24 1.09 10.3 10.3 0 0 1 1.95 1.6 5.9 5.9 0 0 1 1.31 2.15c-.64-.55-1.25-1-1.88-1.5s-1.3-.89-2-1.31c-1.3-.85-2.68-1.63-4.05-2.58M285.33 328.47a86 86 0 0 1 5.3 7.16c.82 1.24 1.64 2.46 2.44 3.71s1.58 2.49 2.42 3.74a23.2 23.2 0 0 1-3.12-3.23c-.94-1.16-1.82-2.37-2.66-3.6a50.3 50.3 0 0 1-4.38-7.78M306 346.25a20.4 20.4 0 0 1-3.41-2.63c-1.06-1-2.05-2-3-3a51 51 0 0 1-5.31-6.72 66 66 0 0 1 6.12 6c1 1.05 1.91 2.1 2.84 3.18s1.76 2.11 2.76 3.17M252.31 292a57 57 0 0 1 8 2.83 56.5 56.5 0 0 1 7.56 3.84 65.3 65.3 0 0 1-15.56-6.67M257.39 283.07a38.2 38.2 0 0 1 12.38 3.49 33 33 0 0 1-6.34-1.21 33.4 33.4 0 0 1-6.04-2.28M258.34 269.42a44 44 0 0 1 6.72.49c1.11.16 2.21.33 3.31.53s2.18.42 3.31.57a11.8 11.8 0 0 1-3.4.29 32 32 0 0 1-3.37-.29 31.3 31.3 0 0 1-6.57-1.59M279.3 263.7a49.7 49.7 0 0 1 8.42-.63c1.41 0 2.82.05 4.22.18a17 17 0 0 1 4.18.77c-1.41-.06-2.8.08-4.2.1s-2.8.06-4.2.06a66 66 0 0 1-8.42-.48M282.15 276.72a28.9 28.9 0 0 1 11.12 1.59 28.9 28.9 0 0 1-11.12-1.59M279.3 283.07a19 19 0 0 1 4.76.9 18.4 18.4 0 0 1 4.44 2 19 19 0 0 1-4.76-.9 19.3 19.3 0 0 1-4.44-2M222.78 270.69A34 34 0 0 1 228 273c.83.45 1.66.89 2.47 1.36s1.62.95 2.48 1.4a8.9 8.9 0 0 1-2.84-.61 22 22 0 0 1-2.62-1.17 21.5 21.5 0 0 1-4.71-3.29M208.5 278.94c2.48 1.24 4.91 2.55 7.34 3.87s4.83 2.67 7.25 4l7.22 4c1.2.66 2.41 1.33 3.64 1.94a28 28 0 0 0 3.76 1.72 35.5 35.5 0 0 1-7.79-2.91c-2.52-1.16-4.95-2.49-7.37-3.82s-4.8-2.75-7.14-4.23-4.67-2.94-6.91-4.57M223.74 293.23a56 56 0 0 1 6.83 3.19c1.1.6 2.19 1.21 3.27 1.85l3.23 2a18 18 0 0 1-3.62-1.18c-1.16-.49-2.29-1.06-3.4-1.64a38.7 38.7 0 0 1-6.31-4.22M224.37 303.71c2.78 1.09 5.47 2.26 8.2 3.34s5.47 2.08 8.31 3a25.5 25.5 0 0 1-8.72-2 32.4 32.4 0 0 1-7.79-4.34M213.58 311c2.86 2 5.58 4.21 8.35 6.31q2.06 1.59 4.16 3.12c1.41 1 2.82 2 4.31 2.95a32.4 32.4 0 0 1-9.15-5.19 51 51 0 0 1-7.67-7.19M237.39 319.58a18.4 18.4 0 0 1 7.3 5.08 17.9 17.9 0 0 1-7.3-5.08M210.08 313.87c.67 1.51 1.33 3 1.95 4.5s1.27 3 1.95 4.46 1.36 2.94 2.12 4.36a35 35 0 0 0 2.56 4.14 15.5 15.5 0 0 1-3.3-3.7 29.5 29.5 0 0 1-2.38-4.34 37.7 37.7 0 0 1-2.9-9.42M192 317c1.19 3.58 2.17 7.18 3.25 10.75.51 1.8 1.08 3.57 1.66 5.34a35.4 35.4 0 0 0 2.07 5.18 18.7 18.7 0 0 1-2.88-4.87 45 45 0 0 1-1.91-5.33A58 58 0 0 1 192 317M206.91 325.62c1.58 2.4 2.93 4.89 4.28 7.38l4 7.54a30.4 30.4 0 0 1-4.94-7 41 41 0 0 1-3.34-7.92M201.83 331.65c2 2.09 3.9 4.29 5.81 6.44q1.41 1.64 2.87 3.22a37 37 0 0 0 3.07 3 14.3 14.3 0 0 1-3.67-2.42 30 30 0 0 1-3.1-3.11 37.4 37.4 0 0 1-4.98-7.13M180.24 310.38c.9 3.18 1.57 6.38 2.29 9.57.34 1.6.72 3.18 1.1 4.77a40 40 0 0 0 1.37 4.71 17.3 17.3 0 0 1-2.2-4.46 41 41 0 0 1-1.35-4.78 49 49 0 0 1-1.21-9.81M189.45 326.89c.92 2.42 1.74 4.81 2.69 7.15.47 1.17 1 2.31 1.52 3.45s1.16 2.24 1.82 3.36a16.2 16.2 0 0 1-4.37-6.4 26 26 0 0 1-1.15-3.71 18 18 0 0 1-.51-3.85M201.19 283.07a24 24 0 0 0 2.23 4.32 33 33 0 0 0 2.9 3.84 38 38 0 0 0 3.44 3.38c1.21 1.07 2.51 2.05 3.82 3.07-.76-.32-1.51-.69-2.25-1.06s-1.45-.82-2.11-1.33a22.6 22.6 0 0 1-3.73-3.33 20.7 20.7 0 0 1-2.81-4.14 13.6 13.6 0 0 1-1.49-4.75M201.83 296.09c2.11 1.56 4 3.25 6 4.93s3.87 3.38 5.74 5.23a29.6 29.6 0 0 1-6.47-4.4 32 32 0 0 1-5.27-5.76M198 266.56a48 48 0 0 1 6.5 2.37c2.1.93 4.15 1.91 6.2 3a17 17 0 0 1-3.4-.78 35 35 0 0 1-3.25-1.24 32.4 32.4 0 0 1-6.05-3.35M205.32 201.79a87 87 0 0 1 9.73-6.47c1.69-1 3.41-1.9 5.16-2.75a38 38 0 0 1 5.43-2.21c-1.7 1-3.34 2-5 3l-5 2.94c-3.4 1.91-6.78 3.82-10.32 5.49M225.64 185.92a20 20 0 0 1 3.16-1.81 31 31 0 0 1 3.36-1.34 23.4 23.4 0 0 1 7.13-1.3c-1.13.46-2.27.82-3.4 1.21l-3.38 1.14c-2.26.73-4.51 1.5-6.87 2.1M223.42 201.79a92 92 0 0 1 11-5.84c1.9-.85 3.82-1.66 5.78-2.36a30 30 0 0 1 6.05-1.64c-2 .71-3.83 1.6-5.72 2.44L234.9 197c-3.78 1.65-7.57 3.34-11.48 4.79M230.09 208.46a36.6 36.6 0 0 1 6.21-3.64c1.09-.51 2.18-1 3.31-1.41a18 18 0 0 1 3.49-1 80 80 0 0 1-6.33 3.39 45.5 45.5 0 0 1-6.68 2.66M215.8 218.94a22 22 0 0 1 3.81-1.42 32 32 0 0 1 4-.87 29.3 29.3 0 0 1 8.1-.25c-1.33.29-2.65.49-4 .71l-3.95.63c-2.65.4-5.27.85-7.96 1.2M208.18 225.61a31.5 31.5 0 0 1 5.74 0c1 .08 1.9.15 2.84.28s1.88.25 2.85.39a10.6 10.6 0 0 1-2.88.47 25 25 0 0 1-2.88 0 23 23 0 0 1-5.67-1.14M205.32 211.64a27.8 27.8 0 0 1 8.87-3.33 9.8 9.8 0 0 1 3.2-.17c-1 .29-2 .67-3 1s-2 .68-3 1a41.6 41.6 0 0 1-6.07 1.5M212.31 191.32a72 72 0 0 1-6.61 3.68l-3.36 1.65c-1.12.55-2.25 1.08-3.37 1.69a14 14 0 0 1 2.94-2.44 35 35 0 0 1 3.3-1.89 33.5 33.5 0 0 1 7.1-2.69M203.1 237a45 45 0 0 1 7.08 1.17c2.33.55 4.6 1.22 6.89 2a18 18 0 0 1-3.61-.24c-1.19-.17-2.37-.41-3.53-.68a37.7 37.7 0 0 1-6.83-2.25M199 242.75a19 19 0 0 1 4.61 1.13 21.3 21.3 0 0 1 4.28 2.05 11 11 0 0 1-2.38-.33 21 21 0 0 1-2.27-.68 17.4 17.4 0 0 1-4.24-2.17M192.94 215.76a43.3 43.3 0 0 1 13.65 1.59 42.5 42.5 0 0 1-13.65-1.59M197.07 224.34a13.4 13.4 0 0 1 7.3 2.22 12 12 0 0 1-3.81-.58 12.2 12.2 0 0 1-3.49-1.64M186.91 244.34a32 32 0 0 1 5.47 2.61 40.6 40.6 0 0 1 5 3.42 16 16 0 0 1-2.87-1.06c-.92-.42-1.81-.9-2.69-1.4a27.5 27.5 0 0 1-4.91-3.57M189.13 269.42a61 61 0 0 1 2.85 6.14l1.25 3.12c.42 1 .83 2.07 1.3 3.12a11.7 11.7 0 0 1-2.07-2.74A25 25 0 0 1 191 276a31 31 0 0 1-1.11-3.22 20 20 0 0 1-.76-3.36M186.59 286.25c1.14 2.29 2 4.64 2.93 7l1.32 3.51c.45 1.18.89 2.33 1.46 3.48a12 12 0 0 1-2.25-3.12 29 29 0 0 1-1.56-3.48 33 33 0 0 1-1.9-7.39M181.51 295.77c1.21 2.07 2.19 4.19 3.25 6.28.5 1.05 1 2.08 1.59 3.1a27 27 0 0 0 1.83 3 9.5 9.5 0 0 1-2.56-2.53 20 20 0 0 1-1.86-3.08 28 28 0 0 1-1.37-3.3 20.5 20.5 0 0 1-.88-3.47M169.13 300.22c.47 2.72.75 5.41 1.09 8.11l.52 4 .61 4.05a24.1 24.1 0 0 1-2.22-8 38 38 0 0 1-.27-4.12 25 25 0 0 1 .27-4.04M155.16 291c.38 2.66.49 5.3.61 7.94l.14 4c.05 1.32.09 2.63.2 4a15.4 15.4 0 0 1-1.06-3.89 36 36 0 0 1-.39-4 37 37 0 0 1 .5-8.05M162.78 305.61c1.14 4 2.06 8.05 3 12.07s1.93 8 3 12.06a53.7 53.7 0 0 1-4.07-11.8 76.7 76.7 0 0 1-1.93-12.33M147.86 298.31c.23 2.43.24 4.81.34 7.19 0 1.18.09 2.37.17 3.55a27 27 0 0 0 .44 3.55 10.1 10.1 0 0 1-1.3-3.43 20.3 20.3 0 0 1-.41-3.64 26 26 0 0 1 .12-3.63 20 20 0 0 1 .64-3.59M142.33 304.08a.56.56 0 0 0 .3.44.7.7 0 0 0 .36 0l-1.07.26a.52.52 0 0 0 .41-.7m0 0a.7.7 0 0 1 .21.06 1.2 1.2 0 0 1 .46.4l-1.08.27a1.3 1.3 0 0 1 .24-.58c.11-.14.18-.14.17-.15" style="fill:#263238"/></svg>