<svg xmlns="http://www.w3.org/2000/svg" width="889" height="281" fill="none"><g clip-path="url(#a)"><path fill="#fff" d="M250.003 99.829q16.05 0 28.05 7.2t18.3 19.5q6.45 12.3 6.45 27.3t-6.45 27.3q-6.3 12.3-18.3 19.5t-28.05 7.2-28.05-7.2-18.45-19.5q-6.3-12.3-6.3-27.3t6.3-27.3q6.45-12.3 18.45-19.5t28.05-7.2m0 90q9.9 0 17.25-4.8t11.25-12.9q3.9-8.25 3.9-18.3t-3.9-18.15q-3.9-8.25-11.25-13.05t-17.25-4.8-17.25 4.8-11.25 13.05q-3.9 8.1-3.9 18.15t3.9 18.3q3.9 8.1 11.25 12.9t17.25 4.8m103.071-88.8q18.9 0 30.9 7.2 12.15 7.05 17.7 19.05 5.55 11.85 5.55 26.55t-5.7 26.7q-5.7 11.85-17.85 19.05-12.15 7.05-30.6 7.05h-39.45v-105.6zm2.25 87.6q10.2 0 17.25-4.8 7.2-4.95 10.65-12.9 3.6-7.95 3.6-17.1t-3.6-17.1q-3.45-7.95-10.65-12.75-7.05-4.95-17.25-4.95h-21.3v69.6zm94.209-46.5q1.2 2.1 1.501 6.6 0 2.1 1.799 2.1 1.8 0 1.8-2.1.3-4.5 1.5-6.6l24.3-41.1h21.6l-39 64.2v41.4h-20.4v-41.4l-39-64.2h21.6zm156.654-16.8q3.45-3.75 7.5-5.25.45-.15.9-.45.45-.45.45-1.2 0-1.65-1.5-1.65l-1.2.3q-3.9 1.95-8.25 1.95h-51.75v-18h84v20.4l-53.85 60.9q-2.85 3.15-7.5 5.25-.45.15-.9.6-.45.3-.45 1.05 0 1.65 1.5 1.65l1.2-.3q4.5-1.95 8.25-1.95h51.75v18h-84v-20.4zm64.898-6.3v26.4h44.4v16.8h-44.4v26.4h54v18h-74.4v-105.6h74.4v18zm142.741 87.6-8.1-24h-43.8l-8.1 24h-22.8l38.4-105.6h28.8l38.4 105.6zm-13.65-40.8-12.15-36.15q-2.1-6.75-2.4-15 0-2.1-1.8-2.1t-1.8 2.1q-.3 8.25-2.4 15l-12.15 36.15z"/><path fill="#FF5C00" fill-rule="evenodd" d="M76.532 143.021c24.94-50.103 77.255-56.655 101.816-47.832 1.884.677 4.026-.479 4.273-2.422 3.869-30.416 4.331-32.47 11.529-49.987.581-1.414-.081-3.036-1.508-3.658l-4.303-1.875a2.97 2.97 0 0 0-3.08.437l-17.397 14.563a2.965 2.965 0 0 1-3.598.145l-15.017-10.6c-1.241-.876-2.966-.663-3.943.487L130.64 59.528a2.95 2.95 0 0 1-3.067.908l-20.978-6.078c-1.317-.381-2.728.188-3.383 1.365L80.349 96.767c-36.345 56.355-30.608 87.014-25.805 98.887 25.805 63.798 107.507 33.494 111.578 24.279 3.773-8.543-2.156-9.522-5.744-9.431a2.8 2.8 0 0 0-1.461.484c-46.191 30.674-118.555 4.7-82.385-67.965m33.983 51.748c-.588-3.439 2.862-6.761 6.895-5.193 1.465.571 2.363 1.845 3.272 3.136.457.649.917 1.302 1.453 1.871 3.232 3.434 9.142 2.624 18.909-3.004l.126-.065c1.463-.751 6.508-3.341 8.052-.999 1.283 1.948.178 4.66-1.47 7.022-.886 1.27-2.084 2.294-3.435 3.082-5.692 3.321-15.896 7.582-23.989 4.074-2.666-1.181-8.796-3.97-9.813-9.924m43.841-22.98c9.5 2.409 20.379-7.556 24.297-22.257 3.919-14.701-.606-28.571-10.107-30.979s-20.378 7.557-24.297 22.257c-3.918 14.701.606 28.571 10.107 30.979m2.102-5.568c3.592.911 7.706-2.858 9.188-8.417 1.482-5.56-.229-10.805-3.822-11.715s-7.707 2.857-9.188 8.417.229 10.804 3.822 11.715m-28.962-14.283c-3.525 13.223-14.084 21.989-23.584 19.581s-14.345-15.08-10.82-28.302c3.524-13.223 14.083-21.99 23.583-19.581 9.501 2.408 14.345 15.08 10.821 28.302m-10.557 5.866c-1.482 5.559-5.596 9.328-9.189 8.417s-5.304-6.156-3.822-11.715 5.596-9.328 9.189-8.417 5.304 6.155 3.822 11.715" clip-rule="evenodd"/></g><defs><clipPath id="a"><path fill="#fff" d="M0 0h889v281H0z"/></clipPath></defs></svg>