<svg xmlns="http://www.w3.org/2000/svg" xml:space="preserve" viewBox="0 0 2000 2000"><path d="M0 0h2000v2000H0z" style="fill:#fff"/><path d="M1178.053 1540.665c-80.205.4-158.34-18.86-237.09-31.29-36.606-4.931-73.194-10.68-110.107-12.694-42.689-1.207-85.425 1.244-127.726 7.07-63.185 8.281-126.578 15.095-190.183 19.141-63.557 4.711-127.489 6.052-190.468-5.212-58.152-9.906-116.943-26.051-166.18-59.587-24.335-18.684-70.127-36.422-58.437-74.334 9.303-20.685 102.111-21.358 126.52-27.029-.271.041-.538.077-.81.117 11.963-1.687 23.949-3.193 35.912-4.867-.276.036-.552.077-.828.113 53.694-6.841 107.584-11.9 161.396-17.431l-.132.018c4.251-.597 8.494-1.303 12.759-1.778 8.668-.405 7.564 12.521-.005 13.586-7.072 1.198-14.248 1.704-21.365 2.651-67.303 5.153-134.485 12.282-201.418 21.212-33.656 4.447-69.16 4.154-101.11 16.455-4.086 28.363 30.623 39.361 48.671 54.068 30.54 21.891 65.527 35.441 101.011 47.062 44.496 12.19 90.45 19.047 136.41 22.613 74.723 3.131 149.322-5.295 223.698-11.353 59.924-5.96 119.403-17.578 179.785-17.974 152.474-3.015 300.202 60.12 453.252 41.134 91.587-8.307 176.236-45.739 262.82-73.719 33.265-9.699 67.613-15.29 102.155-17.778 69.036-7.147 141.572.65 207.229-25.41 19.895-9.492 53.499-26.409 45.528-52.303.208.217.421.434.629.651a14.6 14.6 0 0 0-2.168-1.976q.26.19.517.38c-.243-.189-.494-.363-.742-.543l.167.122a14 14 0 0 0-2.515-1.393q.408.202.823.412c-22.861-9.198-48.062-8.869-72.317-8.883h1c-14.346-2.409-307.154 15.75-266.196-10.053 36.299-1.67 72.909 2.363 109.328-.375 63.738-.725 127.502-6.42 191.241-3.404 17.859 2.557 41.616 2.497 52.72 18.837 9.096 33.697-28.85 56.814-55.256 68.27-41.377 17.434-86.89 19.365-131.142 21.71-48.057 3.213-96.75 3.792-143.927 14.319-61.706 13.133-118.682 41.665-178.953 59.603-62.922 19.509-128.492 30.902-194.496 29.842" style="fill:#231f20"/><path d="M1250.425 1457.992c-6.811-2.967 11.285-20.789 13.635-25.238 9.814-3.388-.695 10.441-2.559 13.157-3.609 3.573-5.013 12.871-11.076 12.081M1272.333 1454.433c-4.933-3.175 1.969-8.363 3.523-11.741 1.888-1.817 3.261-8.288 6.595-6.246l.009-.009c1.18 3.965-2.825 8.091-3.88 11.92-1.042 2.747-2.397 7.373-6.247 6.076M1319.265 1445.304c-3.104-2.372.829-5.437 2.364-7.453 1.6-1.609 2.067-4.227 3.81-5.569l.008.006c4.299-.943 1.075 4.709.264 6.534-1.432 2.537-2.399 8.291-6.446 6.482M1621.927 1390.266c-1.558-3.576 3.357-4.79 5.729-5.982l-.157.066c4.503-.914 17.208-10.193 19.01-3.05.131 1.878-1.334 3.9-3.229 4.207-5.291-.463-19.343 7.902-21.353 4.759M1647.345 1403.836c-.73-3.683 18.719-14.636 19.308-8.345.047 6.825-10.415 4.695-14.342 8.633-.864 2.318-4.749 2.536-4.966-.288M258.569 1415.005c-2.514-4.98-3.772-10.472-6.278-15.46-1.627-2.593-3.21-7.271.923-8.308 6.051.627 9.131 14.919 11.642 20.036 1.49 3.512-4.112 7.334-6.287 3.732M280.667 1402.015c-1.539-3.727-2.533-7.652-3.709-11.502l.022.073c-.312-1.448-.934-2.711-1.533-4.03-.807-3.432 4.544-5.945 5.952-2.257.57 5.286 9.263 15.666 4.248 18.932-1.682 1.16-4.103.838-4.98-1.216" style="fill:#231f20"/><path d="M1364.168 1264.69c-2.091-.623-3.606-2.557-3.971-4.663-18.963 5.956-39.847 3.28-59.503 3.249-33.332-2.216-65.882-9.452-98.771-14.626-66.652-9.052-133.535-15.316-200.301-23.269-9.225 2.741-8.944-9.894-10.606-15.785-2.08-14.097-5.884-27.926-7.047-42.149-14.853-7.11-35.959-17.421-36.464-36.206q-.02.141-.041.276c-.947-8.377-1.041-16.819-.642-25.278v.068l.041-6.526c0 .348-.004.701-.004 1.049l.013-2.718c0 .353-.005.701-.005 1.054.023-4.69.095-9.38.145-14.071 0 .353-.005.706-.005 1.058 2.131-51.844-1.352-103.574-2.719-155.379 1.696-9.574-11.01-48.748-1.678-49.801 3.276-4 6.882-2.699 10.932-1.949 4.366.185 9.564-.819 12.904 2.727 7.745 13.31 12.357 28.459 22.277 40.646 18.693 23.915 36.915 48.116 54.837 72.612 14.077 15.849 29.505 30.271 44.719 44.97 18.565-42.865 53.964-75.438 78.064-115.077 26.212-38.254 76.28-93.905 52.464-142.823-13.817-21.962-42.812-20.971-62.631-33.703-4.038-3.781-5.111-10.64-1.541-15.067 5.566-5.354 14.685-4.218 21.773-6.265 59.003-7.874 150.038.402 202.038 30.239 41.709 24.55 61.154 45.789 66.249 95.282 6.241 20.371-19.75 22.997-31.654 32.578-19.994 12.916-38.014 28.115-53.871 45.894-10.58 12.493-23.028 24.39-30.527 39.013 2.918 13.167 2.957 26.766 4.664 40.146 4.918 39.845 18.422 77.942 29.407 116.379 3.948 8.403 9.924 16.359 9.834 26.052-.422 9.637 2.792 18.906 2.741 28.539 1.683-.971 3.662.566 3.36 2.393l.027-.104c-3.121 20.642-1.106 41.785-4.154 62.552-.986 6.768-.067 20.456-10.354 18.683m-4.63-14.442 1.025-.221.003-.092zm-251.913-221.015-.109.194q.877-1.483 1.804-2.993c-.569.93-1.144 1.858-1.695 2.799M865.682 957.961c-27.507-2.154-54.887-6.504-82.484-7.301-8.823-1.561-24.562 4.569-27.396-7.348-1.922-50.758 10.568-101.72 61.543-123.291 1.814-7.241 11.225-9.969 15.844-3.618 5.9 5.226 12.195 10.106 16.459 16.861 8.094 10.974 13.564 23.614 19.49 35.83 6.825 18.182 6.041 37.863 6.617 56.971-1.259 9.519 2.838 30.17-10.073 31.896M1090.318 1349.103c-13.369-.381-26.658-2.067-40.038-2.064-9.628-.691-42.949 2.81-44.528-9.148-.399-5.223.523-10.497 1.413-15.646-.359-9.304-3.128-18.37-3.366-27.658l.022.01c.05-4.859 6.031-9.377 10.404-6.325 1.909-.642 4.327.248 5.452 1.828l.007-.028c1.639 2.317 1.031 5.329.844 7.98 19.648 5.979 37.187 17.175 56.497 24.069 10.616 3.831 23.983 1.635 33.138 8.7 17.358-10.268 16.258 24.272-19.845 18.282" style="fill:#f7941d"/><path d="M1153.112 1357.14c-11.616-1.292-25.212-.582-35.28-6.937-2.519-4.056 2.117-7.793 6.13-6.54 10.571 2.466 29.464-4.782 36.865 3.158 2.559 4.993-2.152 11.411-7.715 10.319" style="fill:#f7941d"/><path d="M1170.743 1362.009c-10.799-.967-21.594-.896-32.339-3.036-2.951-.521-6.118-.416-8.915-1.577-2.588-1.342-1.342-5.522 1.342-5.859l-.003-.012c8.914-1.047 17.86.252 26.777.089 8.208-2.359 16.278-.524 24.255 1.979 2.148.542 3.021 3.079 2.623 5.047-1.443 6.348-9.132 3.831-13.74 3.369M885.935 801.112c-20.303-11.087 13.251-33.318 25.961-26.061 15.644 13.296-12.708 30.908-25.961 26.061M1001.586 755.783c-27.271-9.492-1.356-31.231 14.551-35.92 14.264-6.292 34.37 6.473 19.651 20.67-9.365 8.068-21.174 16.86-34.202 15.25" style="fill:#f7941d"/><path d="M1014.53 904.328c-5.765-10.607-8.708-22.531-14.442-33.162-62.676 29.663-96.883-3.803-128.889-55.767.004.005.009.014.014.018-26.442-40.462-53.765-81.155-71.598-126.279-11.504-20.345-19.598-42.307-22.537-65.632l.014.262-.036-.638.013.199c-.367-4.534 0-9.073.344-13.596-.005.032-.005.068-.009.104.015-.217.036-.434.045-.651v.009c3.787-80.38 76.061-139.161 148.717-159.997-19.745-38.307-33.6-142.96 9.275-168.822 11.255-7.161 25.488-12.282 37.849-4.748 30.353 18.605 30.392 63.842 26.867 95.4-2.426 26.561-19.38 48.985-23.792 74.751 33.541 3.926 60.555 26.571 80.508 52.461 21.241 25.19 40.234 52.463 52.945 83.008q-.145-.304-.289-.615c3.9 7.651 6.627 15.785 9.231 23.949-.032-.095-.068-.195-.099-.289.402 1.23.805 2.46 1.199 3.695l-.204-.638q.603 1.871 1.199 3.749c41.68 2.359 37.048 37.158 17.562 63.312 5.579 26.265 14.753 52.162 27.11 76.034l-.068-.145c1.253 2.641 2.501 5.283 3.736 7.933l-.298-.62c5.248 10.084 10.566 21.165 20.688 27.155 5.149 6.17-1.991 11.33-7.801 5.73-10.83-7.128-16.68-19.566-22.267-30.845l.005.005c-.038-.079-.079-.154-.109-.235a12 12 0 0 1-.145-.299l-.005-.014v.005l-.021-.044.012.022c-11.976-21.501-20.161-44.722-26.703-68.386-6.379-16.686-1.831-21.981 7.313-35.717-.018.023-.032.05-.05.072 11.52-17.824 3.511-34.8-18.155-35.233-7.663 8.19-14.301 17.924-16.875 29.01-6.398 14.422-14.189-8.998-16.997-14.514a178 178 0 0 0-11.321-22.244c-50.585-96.018-154.013-67.051-225.122-12.185l.005-.005c-19.271 12.979-36.484 29.364-48.291 49.494q.136-.198.271-.403c-3.92 6.168-7.708 13.013-7.571 20.498 8.502 13.606 15.171 28.092 22.062 42.593 18.927 32.296 37.852 64.678 58.672 95.794v-.005c19.918 30.541 45.052 73.359 87.282 68.007 12.645-1.024 23.999-6.873 35.871-10.756 1.311-1.496 3.813-1.263 5.061.213 4.915-1.597 5.759 5.066 7.363 8.236 3.615 7.943 7.444 15.798 10.588 23.949 4.239 5.626-3.929 13.815-8.127 6.817" style="fill:#231f20"/><path d="M934.02 809.082c-8.712-2.634-6.884-15.431-9.123-22.62-4.121-21.068-7.383-42.675-16.168-62.419-1.391-2.272-3.143-7.509 1.086-7.585 6.868 4.088 9.34 13.701 12.737 20.656 7.583 20.431 13.01 41.821 15.113 63.534 5.683-2.264 10.177-8.982 11.771-14.781l-.095.475c1.518-4.665-.114-9.68.849-14.188 1.717-3.231 6.217-1.115 5.541 2.253 1.253 13.785-5.786 33.813-21.711 34.675M953.286 844.151c-.991-.126-1.77-.83-2.207-1.705-1.066.712-2.849-2.266-1.644-2.667-2.636-32.665 44.624-26.661 33.157-9.875-9.497 4.98-19.42 10.247-29.306 14.247m2.094-11.986c-.059 1.883.009 3.779.029 5.665 6.986-2.638 13.243-6.825 20.156-9.649l-.299.136c1.257-.601 2.56-1.135 3.692-1.948-7.587-2.535-19.441-3.223-23.64 5.123q.077.333.062.673M884.995 805.355c-.92-3.151-6-21.871-2.335-22.438 3.284 2.276 3.463 14.028 5.768 18.467-.036-.109-.072-.222-.109-.33 1.979 2.567-.499 7.705-3.324 4.301M898.058 799.719c-5.221-4.377-3.565-13.834-5.253-20.131-.052-2.396 3.36-2.602 3.335-.109a5 5 0 0 1-.018-.276q.022.159.05.313l-.01-.06c-.533 4.415 7.945 20.993 1.896 20.263M910.091 790.163c-1.211-4.925-.657-10.187-2.017-15.111q.025.069.05.145c-.382-.735-.726-2.075.461-2.216 3.627 2.846 2.888 9.376 4.805 13.516 1.947 2.683-.936 7.374-3.299 3.666M993.572 748.66c-.071-3.974-4.411-20.582-.513-21.479 2.188-.716 3.573 2.069 2.369 3.746.135 1.275.37 2.545.581 3.812-.023-.109-.041-.217-.063-.326.544 2.893 4.802 20.659-2.374 14.247M1008.807 740.307c-3.554-3.58-.911-9.798-1.827-14.353-.432-.35-.649-.963-.569-1.526l-.01.153c-.152-1.369.859-3.442 2.406-2.234 2.213 3.052 1.823 7.225 2.637 10.779.792 2.607 1.954 8.443-2.637 7.181M1028.93 731.052a39 39 0 0 1-.855-7.06l.027.43c.524-4.399-2.538-10.549.673-14.008 4.993-1.431 2.85 8.78 4.287 11.758.262 3.421 3.444 8.846-.631 10.957-1.491.559-3.206-.496-3.501-2.077M861.754 764.409c-21.223-4.453-23.069-12.947-6.695-26.911 10.483-13.977 29.976-19.754 46.779-16.436 7.061 1.28 4.361 11.344 2.174 15.883-6.706 16.313-24.05 29.907-42.258 27.464m7.797-9.601c14.284-2.041 27.818-12.349 30.808-26.854-13.09 2.81-28.092 3.008-38.896 11.717-1.136 4.378-5.981 7-7.892 11.185 4.903 2.416 10.425 4.583 15.98 3.952M961.123 709.942c-26.199-2.194-4.923-30.111 4.541-40.123 12.806-10.438 30.531-17.822 47.151-17.528 34.405 3.757 23.742 18.042 5.116 35.892-13.646 13.497-37.834 21.642-56.808 21.759m9.072-9.595c22.655-5.083 50.342-14.467 60.583-36.913-11.633-3.044-24.078-4.937-35.204.82-16.559 5.61-33.673 15.896-39.071 33.454 3.846 2.931 9.071 2.906 13.692 2.639" style="fill:#231f20"/><path d="M873.075 756.979c-10.388-6.333-.54-27.314 11.23-22.537 15.166 5.542 1.078 26.948-11.23 22.537M981.366 693.02c-9.918-13.108 13.536-27.691 21.547-13.867 5.986 11.117-14.16 24.709-21.547 13.867M849.255 746.19c-5.171-1.461-10.235-3.306-15.513-4.452-1.638.457-2.699-1.748-1.835-3.046l-.001-.002c.339-2.059 14.802 1.94 18.159 1.618 3.351.543 2.53 6.307-.81 5.882M859.136 738.822c-7.531-1.51-19.176-2.321-24.578-7.633-.234-1.598 1.464-2.843 2.841-1.874 4.306 1.946 9.07 2.548 13.709 3.207 3.241 1.079 9.994-1.262 10.494 3.419.018 1.363-1.015 2.862-2.466 2.881M868.878 731.019c-6.067-1.84-11.789-4.745-17.879-6.563-1.99-.587-5.171-1.618-4.066-4.302.617-1.65 2.973-1.984 3.67-.231 6.544 2.954 14.323 3.536 20.691 6.105 1.479 1.791.088 5.378-2.416 4.991M999.034 658.328c-1.621-1.928-.465-4.734-.312-6.979.65-4.586.601-9.24.633-13.84.215-2.217 3.347-2.559 3.701-.215.32 1.614.28 3.326.433 4.978l-.003-.08c-.347 3.539 2.329 19.525-4.452 16.136M1012.023 657.264c-4.627-2.196.228-9.038.188-12.883 1.321-4.106.702-9.747 3.366-13.033 2.201.791.628 4.736.895 6.644l.001-.026-.018.258.003-.031q-.013.195-.03.388c.009-.086.014-.172.023-.258q-.016.178-.028.358l.001-.019q-.024.308-.044.612l.002-.02c-1.161 4.204.742 17.39-4.359 18.01M1024.053 654.104c.287-3.317 1.961-6.33 2.406-9.647-.032.136-.059.267-.086.403.406-2.333.73-4.664.873-7.029l-.027.366c.068-.941.027-1.94.213-2.863l-.009.138c.016-1.697 2.093-3.082 3.442-1.73 1.622 3.978.186 9.057.163 13.374l.027-.43c-.285 2.405-.069 4.785.113 7.178.179 5.094-7.241 5.572-7.115.24M819.339 729.624c-7.95-2.712-.868-12.879 2.43-16.96l-.209.239.484-.556-.268.31c7.547-9.339 16.621-17.218 23.507-27.049 3.664-3.471 5.853-9.716 10.786-11.254 3.5-.085 4.977 4.376 3.316 7.048-12.404 15.474-25.158 30.749-36.576 46.975l-.003-.008c-.905.904-2.179 1.44-3.467 1.255M914.106 646.406c-5.9-.803-6.824-9.663-2.293-12.8 9.468-4.128 19.823-6.266 29.762-9.13 18.993-4.731 37.632-10.776 56.688-15.29 11.521-2.578 23.508-3.633 35.156-1.49 4.774-1.057 7.644 4.171 2.28 5.811-11.374 1.946-22.864 3.633-34.041 6.645l.02-.006-.516.145.204-.056c-1.023.292-2.045.587-3.072.874l.534-.149c-28.033 9.095-56.822 16.375-84.722 25.446" style="fill:#231f20"/><path d="M822.615 721.729c-6.987-7.387 24.37-37.785 28.633-47.296 10.467-12.373 17.862-2.217 8.188 8.716l.335-.511c-8.275 11.586-16.609 23.16-26.075 33.802-1 2.754-4.308 5.649-6.633 2.431-1.629.845-2.171 3.862-4.448 2.858M847.31 616.501c-.735-13.518-2.612-27.947-.038-41.235 2.462-4.1 7.404.817 4.85 4.062-.072 2.391.041 4.798.096 7.182v-.073c.28 9.394.835 18.772 1.583 28.137.595 3.861-5.4 6.332-6.491 1.927M859.571 608.124c-1.843-9.61.466-19.515.167-29.228.415-2.689-1.928-7.308 1.646-8.362a1.9 1.9 0 0 1 1.981.964c.92 9.482-.381 19.376.667 28.967.395 3.032 3.008 7.301-.776 9.156-1.373.631-3.21.055-3.685-1.497M875.355 606.18c-3.807-5.76.154-16.076-.626-23.062.917-5.053-.821-21.503 5.491-22.104 1.426.394 1.869 2.163 1.272 3.393-2.568 7.117-1.343 15.055-1.5 22.499l-.006-.187q.007.208.009.416l-.001-.118.028 1.113-.01-.298c.01.323.013.648.024.971l-.001-.103c-.915 5.201 5.186 19.984-4.68 17.48M797.326 562.691c-8.266-3.356 23.984-41.063-.729-60.76-27.85 21.96-35.457-24.202.203-6.515 3.066-5.839 5.109-13.171 3.674-19.723-.399-1.072.081-2.366 1.049-2.963 7.51-1.377 1.146 21.298-1.39 24.718 12.308 9.386 11.608 27.113 7.889 40.642l.081-.339c-1.596 7.278-5.584 13.682-7.954 20.652 1.636 1.827-.451 5.307-2.823 4.288m-13.289-59.513c2.834-.017 5.635-1.104 7.945-2.708l-.129.089q.453-.331.89-.676c-3.606-1.197-17.353-6.684-14.844 1.1l-.068-.103c1.599 1.645 3.985 2.187 6.206 2.298M1048.33 510.015c-.301-17.377 9.346-35.718 23.908-45.338-.972-3.31-6.458-8.383-2.479-11.176 3.803-1.026 3.262 5.265 5.012 7.422q-.03-.069-.064-.138.46.999.941 1.992c34.983-12.304 14.629 33.872-1.14 6.017-10.279 5.891-16.44 16.549-20.583 27.313l.013-.037c-2.157 2.188-1.958 17.704-5.608 13.945m37.376-36.101c2.541-.335 5.164-2.288 5.563-4.922q0 .036.003.073c-.004-.08.007-.16.014-.24l-.015.128-.005-.132q.01.156-.016.312a2.3 2.3 0 0 0-.1-.94l.032.112c-2.591-4.237-9.38-2.679-13.299-1.259q.689 1.207 1.444 2.371c-.045-.072-.091-.14-.136-.213 1.513 2.214 3.513 4.952 6.515 4.71M749.816 625.776c-2.171-5.535 19.947-12.487 24.464-11.805 5.254.592 10.879 1.535 15.447 4.31 2.421 4.476-5.077.656-6.923.603l.08.017c-.378-.078-.752-.15-1.132-.225l.064.012q-.208-.039-.42-.081l.037.006c-5.153-1.094-10.552-1.261-15.476.863l.002-.001c-2.657 1.034-5.203 2.325-7.721 3.66l.037-.019c-2.642.692-6.05 5.556-8.459 2.66M971.817 456.741c.14-1.524.516-3.062 1.058-4.491l-.068.19.329-.879c.64-1.686 1.312-3.364 1.957-5.05l-.015.035c7.868-21.563 20.582-45.58 42.565-55.157-.081.032-.158.059-.24.09 3.092-.45 9.374-5.506 11.262-1.733.267 1.177-.448 2.584-1.642 2.923-3.617 1.054-7.219 2.147-10.729 3.523-11.657 4.483-19.01 15.262-26.024 25.03q.062-.089.118-.176c-4.49 6.324-8.314 13.121-10.91 20.447l.005-.013-.503 1.331.006-.014-.072.19.001-.002-1.051 2.767.037-.092c-1.201 3.607-3.267 7.039-3.428 10.905.05 1.75-2.737 2.143-2.656.176M801.043 1317.866c-5.278-16.946-5.059-35.429-7.125-53.031-1.975-27.187-5.575-54.253-5.955-81.539-1.826-54.561-4.917-109.056-6.975-163.611-.902-24.138-6.199-49.182-2.552-73.027 10.31-10.363 8.24 32.304 10.156 37.341-.027-.267-.059-.534-.086-.796 11.677 105.847 8.021 212.847 18.82 318.832-.023-.244-.05-.484-.077-.728.328 4.508 1.643 8.902 1.859 13.397-.008 3.973-5.537 6.934-8.065 3.162M821.779 1321.062c-2.949-.018-5.133-3.003-4.717-5.848 1.935-11.539 4.857-22.902 7.34-34.338 8.399-35.728 14.523-71.946 20.448-108.151 12.113-78.36 18.074-157.553 24.351-236.517-.142-18.76.246-38.215-6.243-56.08-13.152-26.591-35.236-47.902-47.728-74.969-6.681-14.734-15.668-29.361-15.618-46.034-.992-12.377 11.16-24.848 20.717-11.583 2.821-15.547 15.653-6.027 8.463-1.959-3.063 15.996 6.548 31.58 12.932 45.708 2.62 5.7 12.065 20.858-.442 20.299-7.719-5.139-11.025-15.2-13.696-23.718-2.156-5.483-11.383-46.877-19.448-34.198.09-.208.176-.416.267-.62-3.258 22.227 15.195 47.586 26.476 65.965 18.164 23.659 42.027 46.62 44.425 77.967 5.479 42.401-2.826 84.71-6.047 126.949-6.534 98.341-23.942 195.59-45.835 291.564l.003-.021c-.326 2.846-2.628 5.593-5.648 5.584" style="fill:#231f20"/><path d="M398.648 1391.72c-1.719-.906-2.635-2.759-2.429-4.681a110 110 0 0 1-4.197-9.842c-.63.161-1.31-.245-1.438-.873-4.76-1.657-4.959-7.754-6.988-11.691-4.155-10.759-8.017-21.642-12.578-32.244-27.5-61.413-48.522-125.344-71.71-188.437-4.56-12.685-9.527-25.22-12.949-38.282-2.766-8.929-3.616-18.51-10.526-25.414-3.763-12.174 15.74-11.698 23.464-13.008 17.197-2.868 34.522-4.725 51.946-5.662 69.984-4.065 140.091-2.7 210.115-5.481 36.061-1.623 72.236-2.073 108.278.04 6.31-.178 13.182 1.604 19.195-.22 4.3-2.009 7.785 2.47 9.692 5.816l-.005-.005c.107.17.206.341.312.507l-.007-.009c.019.031.038.066.057.094l-.001-.003c25.724 57.439 35.472 120.465 51.856 180.918 6.847 23.035 14.933 45.661 22.289 68.531.974 6.91 11.894 20.033 2.474 23.894.497 1.845.977 3.7 1.447 5.55 71.751-1.743 143.611-8.444 215.367-4.138-.163-.009-.33-.023-.502-.032 43.672 2.885 88.38 1.897 131.53 3.315 7.587-.836 13.04 3.324 11.387 11.819-.196 7.429 1.451 14.807.866 22.202-1.657 10.738-16.41 7.17-24.279 9.282-46.725 3.454-93.599 2.895-140.409 2.346-31.86.616-63.714 1.373-95.573.253-65.735-1.035-131.45-.081-197.175.771-45.506.921-91.056-.302-136.51 2.168-47.572 2.124-95.762-.69-142.999 2.516m634.404-40.132c1.195.065 2.361.128 3.507.188-1.169-.053-2.338-.157-3.507-.188m-714.897-190.956a426 426 0 0 1-1.269-3.167q.593 1.506 1.196 3.01l-.067-.168c.044.108.089.22.14.325m59.182-88.373-.371.032c1.596-.116 3.183-.226 4.775-.331-1.467.1-2.939.178-4.404.299m186.383-5.011q1.533-.122 2.961-.221c-.985.077-1.979.11-2.961.221" style="fill:#231f20"/><path d="M776.892 1350.44a3.8 3.8 0 0 1-1.047-1.018c-4.09-.858-4.823-16.807-7.312-21.336-.737-.315-1.211-1.066-1.199-1.949l-.002.036c-2.752-4.032 6.164-9.058 7.447-1.323 2.215 6.268 3.841 12.705 6.586 18.783 2.376 3.28-.197 9.019-4.473 6.807M808.954 1350.082c-8.642-13.165-10.664-35.505-11.26-51.235.482-5.181 8.127-5.762 8.432-.166l-.008-.047c.956 5.413 1.833 10.841 2.735 16.263l-.008-.053c1.407 9.146 3.354 18.183 5.97 27.06 2.229 3.972-.813 11.056-5.861 8.178M822.957 1320.521c-6.286.108.42-17.481 3.957-16.193 2.013 1.513-.017 4.726.521 6.911-.349 3.314.329 9.407-4.478 9.282M1419.165 1383.767c.231.009.457.014.688.023-47.326-.678-94.441-4.593-141.331-10.883-40.393-4.314-80.69-9.85-120.259-19.203-19.453-4.296-37.179-13.35-55.849-19.933-32.467-11.024-64.059-23.772-94.803-38.906-8.276 3.468-10.063 13.792-15.991 19.833-10.133 12.141-18.256 3.973-14.34-9.337-5.542 9.424-19.182 30.145-26.62 10.526-2.934-13.654 2.924-27.484 8.476-39.735-6.437 4.967-9.683 12.6-13.521 19.534l.075-.137c-5.417 10.151-11.865 32.853-22.796 12.347-4.636-14.554 6.151-28.092 12.434-40.416l-.016.032c1.743-3.34 3.578-6.675 4.669-10.296-10.399 3.616-21.426 6.278-30.537 12.707-8.015 5.253-20.552 26.908-26.913 8.394.374-19.051 18.428-33.997 33.261-43.709 26.862-17.354 59.633-15.514 90.17-13.653 26.089 1.775 51.467 8.79 77.45 11.365 13.107 2.507 26.37 3.326 39.679 3.83 13.992 1.193 27.672 4.571 41.706 5.536 46.496 6.692 93.164 12.793 140.103 15.393 24.39.32 48.776-.571 73.088 1.039l-.051.006c5.233-.758 10.964-1.63 15.478-4.476-2.599-18.599-12.374-35.301-16.853-53.462-9.622-32.828-21.224-64.992-31.073-97.741-7.867-32.978-12.297-66.582-16.39-100.182l.136.837c-1.107-7.179-3.55-13.982-5.672-20.887-1.872-6.223 7.9-12.026 10.932-5.129 6.007 14.781 7.881 30.778 9.525 46.531 3.5 28.544 8.464 57.241 16.289 84.937 7.017 22.015 15.729 43.44 21.53 65.831l-.04-.124q.132.418.262.837l-.19-.611c6.273 26.417 20.397 51.481 22.188 78.649-6.049 19.829-33.564 15.034-49.726 14.573-19.356.374-38.739.693-58.094-.172-74.021-5.678-147.285-18.038-220.979-25.874-58.4-7.134-150.71-33.382-184.615 31.939q.076-.311.145-.615a11.2 11.2 0 0 0-.384 2.298c.023-.203.041-.407.063-.611-.015.811-.021 1.899.72 2.395.307-.332.607-.67.909-1.006l-.38.43c9.645-12.865 23.537-20.909 38.755-25.467 5.595-1.921 13.26-6.306 18.541-1.77 4.271 16.96-20.614 34.15-19.702 52.339q-.006-.279-.018-.556c-.017 2.519 1.203 4.907 2.953 6.665 5.47-10.924 10.435-22.303 17.712-32.187 4.397-4.088 17.899-21.715 21.163-8.979-1.213 15.021-20.59 35.491-10.122 49.775 8.768-4.973 23.124-46.86 30.772-37.744 3.204 9.249-10.232 23.752-8.512 35.167 6.874-4.582 9.116-13.339 14.109-19.612 11.102-16.698 28.025-3.046 42.448 1.288 22.57 10.946 46.861 17.476 70.136 26.713 15.857 5.592 30.697 13.75 47.151 17.679 40.962 10.706 83.109 15.521 125.067 20.53 48.384 6.886 97.049 10.912 145.908 12.196 31.191-.808 75.324 6.728 91.161-27.685 4.09-18.221.96-37.475-.987-55.846-8.794-46.118-11.444-93.036-19.784-139.233.05.289.095.574.145.859-10.35-68.437-24.63-136.257-43.831-202.739l.258.828c-7.241-20.979-14.608-41.881-21.094-63.108-.884-5.35-4.626-11.225-2.199-16.476 7.382-8.582 10.63 5.644 12.333 11.203 6.852 18.594 12.91 37.444 20.169 55.898 24.85 75.585 37.645 154.414 49.786 232.876 5.655 38.829 8.529 77.974 15.608 116.612 2.064 19.415 4.481 39.536.198 58.793-16.13 44.77-71.919 39.366-110.677 39.257" style="fill:#231f20"/><path d="M938.995 1225.372c.885-56.722 2.098-113.78 2.796-170.626.699-34.116 6.287-68.152 3.201-102.303-1.029-16.494-2.2-33.001-4.485-49.376.301-6.553-12.631-27.945-.269-26.35v-.001c12.83 19.598 12.712 44.818 15.343 67.477 3.475 30.79.636 61.656-1.381 92.439-2.559 60.734-2.421 121.569-5.534 182.293q.016-.159.035-.319-.037.348-.072.697l.013-.135c.792 5.791-5.926 14.103-9.647 6.204M928.483 1340.259c-1.951-6.089 1.423-13.329 1.677-19.738 1.409-7.559 2.254-15.316 4.438-22.682 3.269-6.182 9.856-1.835 8.05 4.189-2.738 6.462-2.905 46.476-14.165 38.231M621.43 992.697c-13.265-1.477-22.039-16.447-12.886-27.555-18.119 5.614-21.684-14.657-9.089-23.919-30.711-11.184-5.403-38.489 18.298-28.848l-.165-.028c21.905 6.492 42.123-4.992 60.056-16.602 6.126-4.198 11.482-9.374 16.763-14.565 1.302-1.088 2.688-3.221 4.613-2.637 5.305 5.383-19.986 24.788-24.767 28.147l.059-.042c-46.284 34.305-59.436 1.354-80.243 16.198-4.118 6.307 6.313 10.524 11.249 11.219 2.896.886 8.067-.431 8.587 3.645-.025 6.546-14.498 6.217-15.506 16.624-1.243 12.948 26.583-5.884 19.54 7.367l.109-.096c-3.682 4.334-9.101 10.418-6.857 16.457 4.563 7.797 15.396 10.742 20.964 2.335 14.119-22.935 33.999-41.224 59.096-51.452-.131.072-.267.14-.398.213 4.212-.952 9.265-8.641 13.166-4.538.932 1.598.249 3.633-1.104 4.746-12.976 9.365-29.146 13.681-40.479 25.465l.212-.191-1.076.955-.389.344.115-.099c-5.19 4.653-9.906 9.827-13.819 15.604l.035-.05-.277.394.035-.05q-.164.236-.33.47l.114-.161-1.874 2.685q.162-.237.33-.475a88 88 0 0 0-.535.761l.137-.194c-5.555 8.117-12.439 18.97-23.684 17.873" style="fill:#231f20"/><path d="M645.176 942.952c2.962-4.431 8.777-6.211 13.157-9.01 11.343-6.744 22.068-14.495 33.818-20.556 1.148-.507 2.501-.1 2.985 1.117 1.07 3.247-3.002 4.257-5.111 5.541l.033-.019q-.36.19-.721.385l.113-.063c-13.63 7.537-27.034 15.704-40.125 24.062-1.062 2.596-5.149 1.36-4.149-1.457M667.317 921.011c1.564-6.809 18.826-14.216 24.615-19.389l-.19.136c7.656-5.302 15.38-10.49 22.913-15.97l-.262.181c3.696-2.589 7.614-4.896 11.031-7.865a14 14 0 0 1-.298.267c3.397-4.148 7.816 1.372 3.636 4.193a3900 3900 0 0 0-58.142 36.409q.039-.026.078-.055c-.606.423-1.203.852-1.765 1.339l.041-.035c-.489.371-1.161 2.062-1.657.789" style="fill:#231f20"/><path d="M833.139 554.566c.408-6.349.386-14.027 4.683-19.086 2.777-2.548 5.569 2.038 2.874 4.071-1.109 4.41-1.141 8.99-1.226 13.511v-.02c.704 4.154-5.807 6.406-6.331 1.524M853.788 546.759c-2.506-1.12-.662-19.563 3.165-18.078 3.06 1.052 1.098 5.551 1.534 8.014.023 3.556 1.49 12.482-4.699 10.064M872.597 536.296c-1.92-2.63.613-6.122 1.013-8.964-.027.091-.05.181-.077.271.519-1.266 1.59-10.236 3.193-5.817-.47 3.816 3.459 17.87-4.129 14.51M998.364 512.004c-4.105-1.203-.762-5.957-.145-8.575.446-1.436 1.012-4.812 3.148-3.922 1.352 2.678 1.712 12.939-3.003 12.497M1013.116 518.067c-6.812-.367-.123-14.793 2.555-17.237 5.226-1.819 3.113 5.229 2.375 7.92-.998 3.294-.227 9.051-4.93 9.317M1028.971 525.826c-4.43-1.121-1.521-6.185-.719-9.01.619-2.22.121-5.903 3.316-6.029 1.798.009 2.58 1.954 2.093 3.486-.849 3.779 1.086 11.551-4.69 11.553M922.997 346.941c-3.051-2.563-.489-8.254-.888-11.89.177-8.166 1.265-16.432 5.732-23.469 2.948-7.817 12.493-6.52 7.671 1.231-7.753 8.04-9.121 19.688-10.115 30.322 1.211 1.532-.348 4.425-2.4 3.806M937.304 336.487c.121-1.377.501-2.712.862-4.041l-.034.129.064-.241-.019.071.041-.152-.016.06q.104-.388.211-.778l-.051.197.271-1.022-.016.065c2.296-8.134 4.736-18.777 12.236-23.485 3.01-.382 3.802 3.681 1.815 5.392-5.848 6.832-9.681 15.428-11.356 24.235 1.115 4.441-4.953 4.133-4.008-.43M957.228 331.549c.77-4.567 4.171-8.838 7.349-12.122.955-.777 2.425-.542 2.995.57 1.219 2.577-1.833 3.595-3.381 4.896-1.937.565-6.306 9.58-6.963 6.656M1211.059 754.405c-4.723-6.553-13.188-6.84-20.141-9.526a.87.87 0 0 1-1.032-.428c-.49-.212-1.024-.428-1.392-.829h.003c-4.285-7.639 22.396-1.664 24.552 1.035 7.47 5.041 3.684 13.236-1.99 9.748M1243.451 797.758c.66-4.837-2.352-18.813 2.328-20.837 4.724.5.651 9.49 1.437 12.823-.576 3.025 1.806 8.032-1.512 9.729-1.093.314-2.229-.534-2.253-1.715M1287.368 959.899c-3.271-.978-19.623-6.831-13.217-11.054.903.166 2.489-.391 2.269 1.139 3.898 2.91 15.56 1.273 14.648 7.702-.506 1.524-2.119 2.678-3.7 2.213M1295.612 933.663c-2.245-2.762-18.081-20.158-8.795-19.964 5.117 3.937 8.792 9.941 13.522 14.482 2.88 2.837-1.516 8.444-4.727 5.482M1371.967 870.762c-5.091-3.727 14.366-18.171 16.883-22.656 5.942-3.592 7.866 4.464-.004 8.005-4.923 3.819-9.543 8.107-13.529 12.901-.627 1.223-1.928 2.462-3.35 1.75M774.135 918.402c-3.43-1.589-2.184-17.624 1.428-18.621 4.375-.127 1.411 7.313 2.501 10.096 1.183 3.536 1.772 10.037-3.929 8.525M806.381 912.686c-5.553-.974-1.218-7.252.016-10.267.972-1.579.16-4.931 2.703-4.899 3.065 2.354.549 8.092.815 11.583-.137 1.815-1.621 3.588-3.534 3.583M1026.544 1183.86c-4.292-1.851-8.526-3.82-12.872-5.533l.072.029c-2.923-1.595-25.041-6.424-15.876-10.746 5.882 4.198 35.322 5.966 32.68 14.554-.729 1.504-2.464 2.38-4.004 1.696M1246.515 1174.412c-4.143-.47-8.277-.941-12.343-1.872l.123.029-.526-.12c-8.453-1.945-16.941-4.265-24.228-9.146l.126.078c-3.613-2.725-9.393-4.416-10.932-8.964-.294-2.107 3.036-3.35 3.555-.979 4.439 3.506 9.838 5.716 14.926 8.12-.095-.036-.194-.077-.294-.113 9.931 3.767 20.703 4.552 31.149 6.002 4.215.808 2.372 7.565-1.556 6.965M1264.982 1165.078c-5.889-1.588-18.005-3.7-20.458-9.605-.339-2.616 3.899-3.616 3.947-.63 2.57 1.244 5.388 1.811 8.149 2.483l-.205-.048c11.358 3.685 22.525.099 32.883-4.228 7.24 3.447-1.778 8.962-5.997 9.862l.237-.082c-5.882 2.093-12.334 3.143-18.556 2.248M1322.573 1175.957c-2.792-2.718 1.823-5.246 3.191-7.393.675-2.303 3.715-3.511 3.385-.192q.061-.202.086-.411a4 4 0 0 1-.023.179l.001-.002c-1.231 2.601-2.811 9.349-6.64 7.819M777.16 1362.271c-1.616-3.825-3.297-19.7 4.405-14.174v-.001c.722 2.674.538 5.592 1.292 8.304l-.007-.032.09.434q-.028-.142-.058-.285c.747 2.643 1.753 6.267-1.62 7.462-1.571.619-3.527.042-4.102-1.708M410.886 1375.659c-2.679.307-10.57-.24-5.269-3.804 14.54-1.474 29.259-1.432 43.877-1.989l-.027.002a1142 1142 0 0 1 56.225-3.923l-.281.014c.241-.012.482-.02.724-.033l-.032.001c6.903-.413 13.817-.091 20.724-.277l-.19.01 1.565-.068-.393.014c11.272-1.097 22.533-.944 33.834-.847l-.097.005q.213-.01.425-.018l-.092.003c21.831-1.549 43.752-.081 65.605-.292l-.107.004c34.525-.316 69.105-1.022 103.669-1.877l-.205.011c13.704-.538 27.478.337 40.979-2.033 12.581 10.341-32.867 7.747-37.661 8.58l-.25.01.178-.007c-11.529 1.024-23.067.418-34.615.785.167-.005.335-.014.502-.018-53.363 2.841-106.749-.294-160.148.408l.183-.01a19 19 0 0 1-.407.018l.224-.008c-11.634 1.015-23.295.493-34.946.849l.38-.014c-7.845.365-15.674.903-23.523 1.158l.371-.014c-.891.036-1.786.077-2.682.113l.375-.014c-9.691.291-19.263 1.877-28.928 2.438l.371-.014c-13.452.342-26.907.79-40.358.837M833.347 1365.54c-2.531-5.551 9.296-4.625 12.541-5.302 3.874.141 2.835 5.664-.529 5.79-3.876-.122-8.506 1.422-12.012-.488M877.853 1364.258c-3.046-.025-6.081-.299-9.124-.22-1.523.346-3.62-.385-3.056-2.294 2.676-3.848 9.291-3.47 13.591-3.461 3.894.707 2.006 6.298-1.411 5.975M1054.177 1363.391c-1.726.173-4.262-.358-3.605-2.628 3.076-4.493 11.282-1.97 16.128-3.751l-.013.002c7.049-1.699 8.349 7.505-6.848 6.309l.398-.013c-2.02.082-4.038.125-6.06.081M1100.826 1364.163c-3.922-.253-7.837-.89-11.778-.593-1.411 0-2.176-1.452-1.615-2.673 2.987-2.835 9.815-1.745 13.966-3.013 4.806-.386 3.623 6.639-.573 6.279M767.926 1337.037c-7.736-20.637-12.355-43.434-21.042-64.139-9.171-30.012-15.68-60.769-25.132-90.703l.081.267c-8.69-27.322-13.594-55.646-23.043-82.769l.008.028c-.464-2.796-12.511-31.861-5.363-27.681l.001.001-.034-.077c.29.342.451.805.295 1.271.17.667.365 1.327.56 1.99l-.007-.023c1.956 7.943 5.223 15.433 7.732 23.189l-.016-.05.147.497c-.023-.081-.05-.167-.072-.249q.238.81.479 1.619l-.077-.253c.466 1.569.918 3.148 1.375 4.722-.027-.086-.05-.172-.077-.253 7.717 20.964 11.947 42.871 17.591 64.42 10.166 30.901 18.243 62.425 27.238 93.668l-.048-.158q.052.17.099.339l-.04-.141c6.19 18.096 12.71 36.085 18.271 54.411.234 4.241 9.755 21.625 1.074 20.074M501.727 1249.423c-47.059-4.204-22.589-59.953 12.13-55.905 32.418 6.462 18.328 60.706-12.13 55.905m4.991-7.604c13.857.24 22.196-18.049 16.528-29.566-6.045-9.762-21.418-9.708-29.146-1.885-2.985 3.455-6.543 6.987-8.312 11.171-.417 1.49-1.503 2.823-2.954 3.346-1.051 12.447 14.092 16.167 23.884 16.934" style="fill:#fff"/></svg>