<?xml version="1.0" encoding="utf-8"?>
<!-- Generator: Adobe Illustrator 27.5.0, SVG Export Plug-In . SVG Version: 6.00 Build 0)  -->
<svg version="1.1" xmlns="http://www.w3.org/2000/svg" xmlns:xlink="http://www.w3.org/1999/xlink" x="0px" y="0px"
	 viewBox="0 0 3710 3710" style="enable-background:new 0 0 3710 3710;" xml:space="preserve">
<g id="Background">
	<g>
		<g>
			<rect style="fill:#FFFFFF;" width="3710" height="3710"/>
		</g>
	</g>
</g>
<g id="Illustration">
	<g>
		<linearGradient id="SVGID_1_" gradientUnits="userSpaceOnUse" x1="3600.3694" y1="4068.3447" x2="1125.926" y2="995.2412">
			<stop  offset="0" style="stop-color:#DAE3FE"/>
			<stop  offset="1" style="stop-color:#E9EFFD"/>
		</linearGradient>
		<path style="fill:url(#SVGID_1_);" d="M2919.635,2856.424c-56.837,59.836-110.615,98.423-153.105,128.91
			c-499.455,358.365-1090.443,253.903-1216.045,228.392c-185.474-37.671-543.992-110.488-803.193-415.303
			c-392.151-461.161-331.087-1187.707-26.908-1667.311c55.639-87.728,349.54-574.636,946.894-652.721
			c361.512-47.256,782.918,48.054,1088.089,303.727C3395.947,1318.797,3350.344,2402.986,2919.635,2856.424z"/>
		<g>
			<g>
				<g style="opacity:0.3;">
					<path style="fill:#BDD0FB;" d="M2053.354,908.362c4.419-1.617,9.312,0.657,10.926,5.075c3.14,8.584,6.698,17.159,10.578,25.488
						c1.963,4.214,0.182,9.212-3.976,11.246c-0.049,0.024-0.098,0.048-0.149,0.073c-4.264,1.986-9.332,0.138-11.318-4.127
						c-4.083-8.767-7.83-17.794-11.134-26.831c-1.512-4.131,0.381-8.679,4.248-10.571
						C2052.795,908.584,2053.07,908.464,2053.354,908.362z M2096.523,978.169c4.976,7.719,10.33,15.297,15.917,22.532
						c2.874,3.72,2.189,9.071-1.534,11.948c-3.747,2.874-9.074,2.187-11.949-1.537c-5.879-7.61-11.515-15.588-16.752-23.708
						c-2.549-3.954-1.409-9.227,2.544-11.776c0.287-0.185,0.582-0.351,0.881-0.497
						C2089.454,973.26,2094.159,974.503,2096.523,978.169z M2142.228,1034.168c6.552,6.4,13.46,12.592,20.541,18.407
						c3.635,2.985,4.161,8.354,1.176,11.989c-2.987,3.628-8.352,4.159-11.989,1.175c-7.456-6.124-14.734-12.646-21.631-19.385
						c-3.365-3.287-3.427-8.68-0.142-12.047c0.701-0.717,1.498-1.285,2.349-1.701
						C2135.676,1031.068,2139.581,1031.581,2142.228,1034.168z M2199.309,1078.537c7.826,4.78,15.95,9.273,24.147,13.361
						c4.209,2.1,5.921,7.216,3.822,11.425c-2.104,4.207-7.216,5.915-11.425,3.822c-8.631-4.305-17.183-9.037-25.421-14.064
						c-4.014-2.451-5.283-7.694-2.831-11.709c0.877-1.437,2.111-2.522,3.519-3.21
						C2193.647,1076.925,2196.73,1076.965,2199.309,1078.537z M2264.852,1109.085c8.671,2.915,17.59,5.5,26.509,7.679
						c4.571,1.12,7.368,5.73,6.251,10.299c-1.117,4.573-5.729,7.37-10.298,6.249c-9.382-2.293-18.768-5.013-27.891-8.081
						c-4.458-1.497-6.859-6.328-5.359-10.788c0.755-2.247,2.356-3.971,4.33-4.937
						C2260.337,1108.556,2262.64,1108.341,2264.852,1109.085z M2335.521,1124.369c9.114,0.927,18.38,1.473,27.544,1.624
						c4.703,0.077,8.455,3.954,8.377,8.655c-0.077,4.705-3.95,8.455-8.656,8.379c-9.643-0.157-19.398-0.734-28.989-1.709
						c-4.68-0.477-8.087-4.656-7.612-9.337c0.309-3.04,2.182-5.542,4.739-6.793
						C2332.302,1124.513,2333.879,1124.201,2335.521,1124.369z M2629.383,1007.326c3.63,2.991,4.149,8.36,1.156,11.991
						c-6.13,7.436-12.669,14.706-19.433,21.604c-3.294,3.36-8.687,3.413-12.045,0.118c-3.358-3.291-3.411-8.684-0.118-12.043
						c6.423-6.55,12.63-13.453,18.45-20.516c0.799-0.969,1.765-1.715,2.824-2.234
						C2623.125,1004.824,2626.722,1005.131,2629.383,1007.326z M2407.775,1123.608c9.087-1.123,18.236-2.653,27.193-4.553
						c4.604-0.974,9.125,1.966,10.101,6.568c0.976,4.604-1.972,9.103-6.568,10.099c-9.433,1.999-19.067,3.612-28.637,4.793
						c-4.668,0.576-8.921-2.74-9.498-7.411c-0.457-3.703,1.535-7.145,4.71-8.697
						C2405.901,1124.002,2406.81,1123.729,2407.775,1123.608z M2577.354,1060.284c2.868,3.728,2.17,9.077-1.559,11.946
						c-7.639,5.874-15.633,11.495-23.755,16.713c-3.951,2.562-9.228,1.392-11.771-2.565c-2.541-3.957-1.393-9.227,2.565-11.771
						c7.72-4.958,15.317-10.301,22.575-15.884c0.463-0.356,0.952-0.655,1.457-0.902
						C2570.43,1056.078,2574.844,1057.019,2577.354,1060.284z M2478.034,1106.722c8.602-3.126,17.181-6.664,25.502-10.519
						c4.269-1.98,9.331-0.123,11.31,4.146c1.952,4.213,0.169,9.2-3.983,11.231c-0.054,0.026-0.109,0.054-0.164,0.077
						c-8.759,4.062-17.791,7.788-26.843,11.079c-4.423,1.604-9.31-0.676-10.917-5.098c-1.501-4.129,0.392-8.667,4.254-10.556
						C2477.463,1106.949,2477.746,1106.829,2478.034,1106.722z"/>
					<path style="fill:#BDD0FB;" d="M2653.927,956.838c-1.506,0.737-2.813,1.924-3.691,3.502c-2.136,3.838-4.39,7.692-6.693,11.464
						c-2.454,4.012-1.19,9.257,2.822,11.71c4.013,2.456,9.262,1.196,11.711-2.825c2.426-3.965,4.794-8.02,7.044-12.058
						c2.289-4.109,0.813-9.299-3.295-11.586C2659.29,955.633,2656.348,955.654,2653.927,956.838z"/>
				</g>
				<g style="opacity:0.3;">
					<path style="fill:#BDD0FB;" d="M2681.665,698.628c-3.693,1.807-5.633,6.075-4.396,10.133c1.282,4.199,2.497,8.498,3.611,12.772
						c1.187,4.553,5.838,7.282,10.39,6.096c4.571-1.192,7.281-5.84,6.096-10.391c-1.174-4.5-2.453-9.027-3.801-13.449
						c-1.373-4.499-6.134-7.034-10.634-5.662C2682.489,698.261,2682.066,698.431,2681.665,698.628z"/>
					<path style="fill:#BDD0FB;" d="M2234.032,490.03c4.322-1.858,9.332,0.139,11.191,4.464c1.857,4.322-0.141,9.322-4.464,11.188
						c-8.229,3.536-16.434,7.48-24.484,11.759c-4.126,2.211-9.312,0.629-11.52-3.525s-0.63-9.311,3.523-11.521
						c3.488-1.854,6.993-3.643,10.513-5.365C2223.815,494.573,2228.942,492.217,2234.032,490.03z M2180.751,528.848
						c2.748,3.815,1.884,9.139-1.934,11.887c-7.327,5.281-14.511,10.925-21.351,16.782c-3.559,3.067-8.95,2.645-12.011-0.929
						c-3.058-3.571-2.642-8.949,0.93-12.008c7.201-6.167,14.763-12.111,22.475-17.665c0.4-0.288,0.817-0.537,1.244-0.746
						C2173.764,524.38,2178.288,525.43,2180.751,528.848z M2277.832,474.664c9.136-2.517,18.506-4.678,27.85-6.419
						c4.625-0.862,9.073,2.188,9.936,6.815c0.861,4.624-2.19,9.065-6.814,9.934c-8.874,1.652-17.77,3.703-26.446,6.095
						c-4.536,1.248-9.226-1.414-10.476-5.951c-1.105-4.012,0.854-8.144,4.461-9.909C2276.813,475,2277.31,474.808,2277.832,474.664z
						 M2125.297,576.407c3.521,3.119,3.847,8.504,0.726,12.024c-5.981,6.749-11.744,13.835-17.129,21.059
						c-2.813,3.776-8.146,4.552-11.92,1.738c-3.771-2.811-4.55-8.146-1.739-11.917c5.672-7.608,11.741-15.07,18.038-22.177
						c0.762-0.858,1.656-1.529,2.627-2.004C2118.908,573.658,2122.636,574.049,2125.297,576.407z M2351.757,462.9
						c9.46-0.446,19.073-0.492,28.571-0.138c4.701,0.175,8.369,4.125,8.195,8.825c-0.173,4.704-4.127,8.372-8.828,8.197
						c-9.022-0.335-18.152-0.292-27.136,0.133c-4.7,0.221-8.689-3.41-8.91-8.109c-0.165-3.502,1.809-6.608,4.768-8.055
						C2349.429,463.258,2350.56,462.956,2351.757,462.9z M2426.469,467.634c9.352,1.637,18.743,3.688,27.914,6.095
						c4.551,1.197,7.271,5.852,6.076,10.403c-1.197,4.557-5.854,7.275-10.403,6.074c-8.713-2.286-17.638-4.236-26.525-5.793
						c-4.634-0.811-7.733-5.226-6.922-9.86c0.49-2.792,2.288-5.027,4.653-6.184C2422.824,467.607,2424.63,467.312,2426.469,467.634z
						 M2498.378,488.538c8.778,3.636,17.5,7.685,25.922,12.029c4.182,2.158,5.821,7.294,3.665,11.475
						c-2.16,4.186-7.296,5.821-11.475,3.665c-8.003-4.13-16.289-7.974-24.633-11.43c-4.346-1.801-6.41-6.784-4.609-11.129
						c0.827-1.997,2.324-3.511,4.123-4.391C2493.49,487.721,2496.028,487.565,2498.378,488.538z M2564.012,524.63
						c7.77,5.467,15.396,11.33,22.665,17.427c3.605,3.022,4.077,8.395,1.053,12.001c-3.018,3.599-8.395,4.073-12,1.051
						c-6.902-5.788-14.143-11.354-21.524-16.548c-3.847-2.707-4.771-8.019-2.063-11.866c0.856-1.215,1.969-2.138,3.216-2.747
						C2558.06,522.627,2561.378,522.778,2564.012,524.63z M2620.142,574.289c6.358,7.028,12.499,14.421,18.255,21.977
						c2.851,3.743,2.129,9.089-1.614,11.939c-3.731,2.84-9.086,2.129-11.937-1.614c-5.467-7.178-11.301-14.2-17.339-20.877
						c-3.156-3.487-2.885-8.875,0.603-12.029c0.607-0.549,1.272-0.997,1.973-1.34
						C2613.406,570.72,2617.535,571.408,2620.142,574.289z M2663.951,634.996c3.446,6.074,6.747,12.331,9.81,18.593
						c1.11,2.268,2.19,4.54,3.244,6.821c1.973,4.268,0.206,9.389-4.156,11.304c-4.268,1.977-9.331,0.116-11.307-4.155
						c-1.002-2.166-2.03-4.33-3.084-6.485c-2.913-5.954-6.048-11.899-9.324-17.675c-2.321-4.091-0.885-9.29,3.207-11.61
						c0.154-0.086,0.309-0.17,0.466-0.247C2656.82,629.58,2661.719,631.058,2663.951,634.996z"/>
					<path style="fill:#BDD0FB;" d="M2073.714,635.004c-1.521,0.744-2.835,1.946-3.714,3.539c-2.224,4.04-4.405,8.203-6.481,12.375
						c-2.098,4.212-0.383,9.326,3.828,11.422c4.212,2.095,9.324,0.388,11.422-3.828c1.973-3.962,4.045-7.917,6.156-11.753
						c2.269-4.118,0.769-9.299-3.353-11.568C2079.044,633.8,2076.12,633.827,2073.714,635.004z"/>
				</g>
				<g>
					<path style="fill:#BDD0FB;" d="M2107.175,767.363c-0.412,1.766,0.341,3.599,1.876,4.564l43.783,27.545
						c0.014,24.157,3.881,48.485,11.837,72.037l-32.618,40.104c-1.144,1.407-1.269,3.384-0.312,4.925l32.743,52.703
						c0.956,1.541,2.786,2.304,4.553,1.902l50.405-11.476c17.589,17.568,37.687,31.813,59.337,42.527l5.296,51.455
						c0.186,1.803,1.496,3.291,3.261,3.703l60.42,14.115c1.765,0.412,3.599-0.341,4.564-1.876l27.544-43.783
						c24.157-0.013,48.485-3.879,72.037-11.837l40.104,32.618c1.407,1.144,3.384,1.271,4.924,0.313l52.704-32.743
						c1.54-0.957,2.303-2.786,1.901-4.553l-11.476-50.405c17.568-17.589,31.813-37.687,42.527-59.338l51.456-5.296
						c1.803-0.186,3.291-1.495,3.703-3.261l14.115-60.419c0.412-1.765-0.342-3.598-1.875-4.563l-43.785-27.545
						c-0.013-24.157-3.88-48.484-11.837-72.037l32.618-40.104c1.145-1.406,1.27-3.384,0.313-4.924l-32.743-52.704
						c-0.957-1.54-2.785-2.303-4.553-1.901l-50.405,11.475c-17.589-17.568-37.687-31.813-59.338-42.528l-5.296-51.455
						c-0.185-1.803-1.494-3.291-3.261-3.704l-60.419-14.114c-1.766-0.412-3.598,0.341-4.564,1.875l-27.545,43.784
						c-24.157,0.013-48.485,3.88-72.037,11.837l-40.104-32.618c-1.406-1.143-3.384-1.269-4.924-0.313l-52.703,32.743
						c-1.54,0.957-2.304,2.785-1.901,4.553l11.475,50.404c-17.568,17.589-31.812,37.688-42.527,59.338l-51.455,5.296
						c-1.803,0.185-3.291,1.496-3.703,3.261L2107.175,767.363z"/>
					
						<linearGradient id="SVGID_00000042694827487059491910000009082099987468128930_" gradientUnits="userSpaceOnUse" x1="2317.1438" y1="799.1241" x2="2441.917" y2="799.1241">
						<stop  offset="0" style="stop-color:#DAE3FE"/>
						<stop  offset="1" style="stop-color:#E9EFFD"/>
					</linearGradient>
					<path style="fill:url(#SVGID_00000042694827487059491910000009082099987468128930_);" d="M2360.573,739.704
						c32.765-10.444,67.918,7.71,78.365,40.477c5.062,15.872,3.638,32.765-4.008,47.565c-7.643,14.799-20.593,25.741-36.468,30.798
						c-32.765,10.445-67.918-7.71-78.366-40.477c-9.503-29.809,4.667-61.594,31.976-74.953
						C2354.78,741.79,2357.619,740.646,2360.573,739.704z M2422.003,821.069c5.862-11.349,6.953-24.3,3.073-36.471
						c-8.009-25.118-34.964-39.043-60.084-31.033c-25.131,8.003-39.043,34.964-31.034,60.086
						c8.009,25.118,34.964,39.043,60.084,31.033c2.278-0.727,4.473-1.611,6.582-2.643
						C2409.783,837.561,2417.238,830.292,2422.003,821.069z"/>
					
						<linearGradient id="SVGID_00000031887144531651165520000013498411716294653568_" gradientUnits="userSpaceOnUse" x1="2227.418" y1="799.4792" x2="2534.1838" y2="799.4792">
						<stop  offset="0" style="stop-color:#DAE3FE"/>
						<stop  offset="1" style="stop-color:#E9EFFD"/>
					</linearGradient>
					<path style="fill:url(#SVGID_00000031887144531651165520000013498411716294653568_);" d="M2313.635,661.637
						c-4.69,2.294-9.292,4.838-13.788,7.631l0,0c-1.415,0.878-2.816,1.781-4.203,2.705c-6.836,4.558-13.298,9.653-19.287,15.204
						c-0.082,0.076-0.164,0.151-0.245,0.226c-0.23,0.216-0.461,0.431-0.69,0.65c-0.448,0.421-0.892,0.848-1.334,1.273
						c-1.163,1.122-1.416,2.832-0.744,4.211c0.164,0.335,0.384,0.651,0.656,0.933c1.395,1.445,3.697,1.478,5.142,0.087
						c7.433-7.183,15.691-13.612,24.544-19.109c43.965-27.324,96.942-28.375,140.474-7.486
						c24.214,11.616,45.505,30.023,60.697,54.479c2.665,4.288,5.094,8.679,7.281,13.153c14.725,30.109,18.614,64.084,10.886,97.162
						c-8.875,37.996-32.017,70.263-65.159,90.853c-68.453,42.518-158.667,21.423-201.17-46.993
						c-2.621-4.218-5.019-8.554-7.185-12.987c-9.392-19.207-14.477-40.255-14.815-61.652c-0.009-0.553-0.14-1.074-0.369-1.539
						c-0.599-1.225-1.869-2.063-3.325-2.039c-2.01,0.038-3.614,1.681-3.579,3.696c0.356,22.464,5.692,44.564,15.552,64.728
						c2.274,4.653,4.791,9.203,7.54,13.631c44.625,71.831,139.385,93.945,211.19,49.336c34.795-21.616,59.087-55.489,68.404-95.378
						c8.114-34.726,4.03-70.393-11.427-102.002c-2.297-4.697-4.847-9.306-7.642-13.807c-21.619-34.796-55.491-59.09-95.379-68.408
						C2380.924,642.082,2345.249,646.172,2313.635,661.637z"/>
				</g>
			</g>
			<g>
				<g style="opacity:0.3;">
					<path style="fill:#BDD0FB;" d="M1692.778,834.805c-2.044,1-3.275,3.255-2.871,5.614c0.753,4.402,1.649,8.842,2.666,13.195
						c0.66,2.828,3.487,4.586,6.319,3.927c2.836-0.65,4.587-3.491,3.927-6.319c-0.968-4.148-1.823-8.38-2.542-12.581
						c-0.488-2.861-3.207-4.785-6.073-4.299C1693.695,834.43,1693.219,834.589,1692.778,834.805z"/>
					<path style="fill:#BDD0FB;" d="M1703.731,873.687c2.727-1.002,5.75,0.39,6.755,3.118c2.539,6.88,5.46,13.71,8.681,20.295
						c0.679,1.389,1.378,2.775,2.092,4.159c1.328,2.581,0.315,5.754-2.267,7.086c-2.492,1.162-5.754,0.315-7.09-2.269
						c-0.745-1.448-1.475-2.899-2.187-4.352c-3.377-6.904-6.44-14.065-9.1-21.281c-0.943-2.553,0.224-5.371,2.619-6.543
						C1703.394,873.823,1703.56,873.754,1703.731,873.687z M1734.925,924.219c5.005,7.349,10.508,14.455,16.36,21.115
						c1.918,2.185,1.703,5.504-0.48,7.424c-2.174,1.905-5.507,1.705-7.425-0.48c-6.134-6.98-11.906-14.429-17.151-22.135
						c-1.636-2.402-1.014-5.675,1.387-7.313c0.21-0.143,0.432-0.268,0.656-0.378
						C1730.584,921.321,1733.434,922.031,1734.925,924.219z M1770.139,964.268c6.642,5.89,13.724,11.423,21.054,16.451
						c2.394,1.643,3.004,4.919,1.361,7.313c-1.65,2.403-4.916,3.011-7.314,1.364c-7.686-5.271-15.115-11.08-22.081-17.253
						c-2.173-1.928-2.376-5.255-0.448-7.428c0.472-0.528,1.024-0.941,1.624-1.235
						C1766.192,962.572,1768.495,962.813,1770.139,964.268z M1814.118,994.442c7.896,4.087,16.12,7.723,24.432,10.795
						c2.728,1.011,4.119,4.036,3.11,6.76c-1.007,2.718-4.031,4.117-6.757,3.111c-8.722-3.226-17.339-7.035-25.623-11.322
						c-2.58-1.335-3.589-4.513-2.254-7.093c0.542-1.038,1.378-1.824,2.357-2.303
						C1810.829,993.682,1812.578,993.644,1814.118,994.442z M1864.13,1012.964c8.649,2.043,17.503,3.569,26.323,4.54
						c2.885,0.316,4.97,2.916,4.653,5.805c-0.317,2.889-2.913,4.977-5.806,4.653c-9.242-1.015-18.524-2.617-27.589-4.755
						c-2.827-0.67-4.579-3.503-3.911-6.328c0.377-1.597,1.445-2.852,2.811-3.52
						C1861.666,1012.843,1862.898,1012.674,1864.13,1012.964z M1917.123,1018.784c8.877-0.122,17.828-0.8,26.609-2.018
						c2.876-0.4,5.535,1.611,5.933,4.487c0.398,2.877-1.604,5.526-4.488,5.936c-9.207,1.278-18.599,1.989-27.911,2.117
						c-2.905,0.037-5.293-2.284-5.332-5.187c-0.028-2.102,1.181-3.935,2.951-4.801
						C1915.561,1018.987,1916.318,1018.794,1917.123,1018.784z M1969.908,1011.471c8.549-2.289,17.068-5.147,25.322-8.497
						c2.693-1.089,5.761,0.208,6.852,2.9c1.094,2.69-0.217,5.717-2.897,6.856c-8.654,3.507-17.586,6.504-26.552,8.905
						c-2.807,0.75-5.693-0.916-6.445-3.722c-0.661-2.468,0.551-4.999,2.766-6.083
						C1969.254,1011.682,1969.572,1011.561,1969.908,1011.471z M2049.175,978.162c1.715,2.347,1.201,5.635-1.146,7.35
						c-6.495,4.745-13.363,9.214-20.391,13.275c-1.065,0.623-2.134,1.227-3.208,1.826c-2.485,1.479-5.744,0.499-7.153-2.049
						c-1.412-2.541-0.495-5.74,2.045-7.154c1.009-0.557,2.013-1.128,3.029-1.723c6.728-3.885,13.279-8.148,19.473-12.672
						c0.255-0.187,0.523-0.347,0.795-0.48C2044.87,975.435,2047.65,976.071,2049.175,978.162z"/>
				</g>
				<g style="opacity:0.3;">
					<path style="fill:#BDD0FB;" d="M1816.929,596.578c8.288-3.922,16.888-7.369,25.56-10.255c2.756-0.914,5.735,0.575,6.653,3.334
						c0.918,2.76-0.603,5.717-3.334,6.653c-8.27,2.748-16.472,6.039-24.379,9.781c-2.625,1.244-5.763,0.12-7.005-2.505
						c-1.232-2.606-0.139-5.714,2.441-6.977C1816.885,596.6,1816.908,596.589,1816.929,596.578z M1800.028,611.492
						c1.548,2.457,0.81,5.707-1.649,7.253c-7.396,4.658-14.584,9.811-21.364,15.318c-2.247,1.814-5.569,1.489-7.401-0.772
						c-1.832-2.255-1.487-5.564,0.767-7.399c7.106-5.77,14.639-11.171,22.391-16.049c0.164-0.103,0.328-0.195,0.499-0.278
						C1795.653,608.399,1798.58,609.192,1800.028,611.492z M1869.126,579.246c8.995-1.804,18.176-3.075,27.289-3.775
						c2.897-0.222,5.428,1.949,5.649,4.843c0.225,2.898-1.938,5.415-4.84,5.651c-8.694,0.666-17.449,1.878-26.033,3.595
						c-2.85,0.57-5.621-1.277-6.191-4.121c-0.48-2.396,0.749-4.736,2.844-5.761C1868.242,579.484,1868.67,579.338,1869.126,579.246z
						 M1757.528,644.408c2.094,2.013,2.157,5.345,0.144,7.439c-6.058,6.299-11.788,13.031-17.03,20.016
						c-1.746,2.318-5.045,2.788-7.364,1.052c-2.324-1.746-2.796-5.044-1.051-7.368c5.496-7.327,11.506-14.391,17.862-20.995
						c0.441-0.456,0.942-0.815,1.48-1.078C1753.498,642.53,1755.892,642.835,1757.528,644.408z M1923.945,575.044
						c9.144,0.411,18.359,1.389,27.392,2.901c2.866,0.48,4.8,3.194,4.32,6.06c-0.48,2.866-3.189,4.804-6.06,4.32
						c-8.615-1.448-17.403-2.377-26.124-2.766c-2.901-0.131-5.15-2.589-5.019-5.495c0.088-1.988,1.275-3.672,2.948-4.491
						C1922.166,575.2,1923.033,575.004,1923.945,575.044z M1978.18,584.117c8.797,2.595,17.514,5.749,25.909,9.369
						c2.667,1.149,3.897,4.242,2.745,6.91c-1.147,2.666-4.243,3.9-6.915,2.748c-8.005-3.451-16.322-6.457-24.717-8.934
						c-2.787-0.821-4.379-3.749-3.557-6.536c0.435-1.471,1.456-2.612,2.737-3.238C1975.522,583.879,1976.868,583.73,1978.18,584.117
						z M2028.686,605.916c7.926,4.627,15.636,9.784,22.913,15.318c2.314,1.762,2.761,5.061,1.002,7.374
						c-1.757,2.313-5.061,2.756-7.371,1.003c-6.939-5.282-14.291-10.196-21.849-14.604c-2.51-1.466-3.357-4.689-1.89-7.197
						c0.541-0.934,1.327-1.632,2.226-2.072C2025.245,604.992,2027.106,604.996,2028.686,605.916z"/>
					<path style="fill:#BDD0FB;" d="M1719.175,686.665c-0.912,0.446-1.703,1.159-2.247,2.106c-2.242,3.905-4.377,7.895-6.351,11.857
						c-1.293,2.6-0.236,5.761,2.365,7.057c2.599,1.285,5.756,0.233,7.056-2.366c1.88-3.78,3.919-7.585,6.056-11.313
						c1.447-2.52,0.574-5.737-1.945-7.181C1722.536,685.925,1720.691,685.924,1719.175,686.665z"/>
				</g>
				<g>
					<path style="fill:#BDD0FB;" d="M1744.121,783.667c-0.258,1.107,0.214,2.256,1.176,2.861l27.444,17.266
						c0.009,15.142,2.433,30.391,7.42,45.154l-20.446,25.138c-0.717,0.882-0.796,2.121-0.196,3.087l20.524,33.035
						c0.599,0.966,1.746,1.445,2.853,1.192l31.595-7.194c11.025,11.012,23.623,19.941,37.194,26.657l3.32,32.253
						c0.116,1.131,0.938,2.063,2.044,2.321l37.872,8.847c1.106,0.259,2.256-0.213,2.861-1.176l17.265-27.444
						c15.142-0.008,30.392-2.432,45.155-7.42l25.138,20.446c0.882,0.717,2.121,0.796,3.086,0.196l33.036-20.524
						c0.966-0.6,1.443-1.746,1.191-2.854l-7.193-31.595c11.012-11.025,19.941-23.623,26.656-37.194l32.254-3.319
						c1.13-0.117,2.063-0.937,2.321-2.044l8.847-37.873c0.258-1.106-0.214-2.255-1.175-2.86l-27.445-17.266
						c-0.008-15.142-2.432-30.391-7.42-45.154l20.446-25.138c0.718-0.881,0.796-2.121,0.196-3.086l-20.524-33.036
						c-0.6-0.965-1.746-1.444-2.854-1.191l-31.594,7.193c-11.025-11.012-23.623-19.941-37.194-26.657l-3.32-32.253
						c-0.116-1.13-0.937-2.063-2.044-2.322l-37.872-8.847c-1.107-0.258-2.256,0.214-2.861,1.175l-17.265,27.445
						c-15.142,0.008-30.391,2.432-45.154,7.42l-25.137-20.446c-0.882-0.717-2.121-0.796-3.087-0.196l-33.035,20.524
						c-0.965,0.6-1.444,1.746-1.191,2.854l7.192,31.594c-11.012,11.025-19.94,23.623-26.656,37.194l-32.253,3.32
						c-1.13,0.116-2.063,0.938-2.321,2.044L1744.121,783.667z"/>
					
						<linearGradient id="SVGID_00000070815161658634682960000008535181734458277534_" gradientUnits="userSpaceOnUse" x1="1875.016" y1="803.5667" x2="1954.6295" y2="803.5667">
						<stop  offset="0" style="stop-color:#DAE3FE"/>
						<stop  offset="1" style="stop-color:#E9EFFD"/>
					</linearGradient>
					<path style="fill:url(#SVGID_00000070815161658634682960000008535181734458277534_);" d="M1902.739,765.662
						c10.129-3.233,20.909-2.324,30.354,2.556c9.443,4.875,16.423,13.14,19.651,23.269c6.666,20.904-4.905,43.294-25.827,50.005
						c-20.909,6.66-43.338-4.926-49.999-25.827c-3.23-10.128-2.323-20.907,2.555-30.351c3.966-7.677,10.17-13.725,17.793-17.455
						C1899.017,767.003,1900.848,766.267,1902.739,765.662z M1942.721,794.686c-2.376-7.452-7.509-13.531-14.458-17.121
						c-6.945-3.586-14.876-4.254-22.325-1.88l0,0c-7.447,2.385-13.528,7.51-17.118,14.459c-3.589,6.943-4.253,14.875-1.88,22.322
						c4.903,15.378,21.4,23.9,36.78,19.002c1.387-0.444,2.718-0.98,3.989-1.602C1940.528,823.595,1947.181,808.673,1942.721,794.686
						z"/>
					
						<linearGradient id="SVGID_00000174589048782485559930000015067540501610654641_" gradientUnits="userSpaceOnUse" x1="1816.5101" y1="803.8629" x2="2014.7594" y2="803.8629">
						<stop  offset="0" style="stop-color:#DAE3FE"/>
						<stop  offset="1" style="stop-color:#E9EFFD"/>
					</linearGradient>
					<path style="fill:url(#SVGID_00000174589048782485559930000015067540501610654641_);" d="M1872.135,714.768
						c-2.991,1.463-5.93,3.09-8.817,4.88c-5.732,3.559-11.108,7.704-15.989,12.334c-0.218,0.21-0.436,0.419-0.654,0.629
						c-1.682,1.624-2.048,4.096-1.075,6.091c0.237,0.484,0.555,0.941,0.948,1.349c2.018,2.09,5.345,2.133,7.437,0.125
						c4.516-4.366,9.525-8.262,14.882-11.587l0.002-0.001c0.293-0.183,0.591-0.363,0.885-0.541
						c12.751-7.753,26.951-12.034,41.472-12.732c7.882-0.378,15.863,0.305,23.761,2.075c0.064,0.014,0.128,0.029,0.193,0.043
						c0.197,0.047,0.392,0.089,0.587,0.136c23.041,5.384,42.608,19.416,55.094,39.515c1.618,2.6,3.089,5.261,4.416,7.975
						c8.929,18.259,11.286,38.862,6.602,58.924c-5.384,23.041-19.419,42.604-39.515,55.089c-20.09,12.47-43.857,16.398-66.898,11.02
						c-23.041-5.384-42.608-19.416-55.094-39.515c-1.591-2.556-3.043-5.186-4.357-7.872c-5.696-11.65-8.779-24.412-8.984-37.386
						c-0.014-0.8-0.202-1.554-0.534-2.227c-0.867-1.772-2.704-2.984-4.809-2.95c-2.905,0.054-5.224,2.435-5.177,5.347
						c0.23,14.518,3.679,28.799,10.048,41.83c1.472,3.009,3.096,5.949,4.873,8.81c13.972,22.489,35.862,38.188,61.643,44.21
						c25.776,6.019,52.354,1.666,74.841-12.326c22.488-13.969,38.188-35.856,44.207-61.639c5.245-22.441,2.606-45.492-7.384-65.92
						c-1.483-3.032-3.13-6.013-4.936-8.921C1972.752,707.998,1917.219,692.713,1872.135,714.768z"/>
				</g>
			</g>
		</g>
		<g>
			<g>
				<g style="opacity:0.3;">
					<path style="fill:#BDD0FB;" d="M1478.874,2974.363c4.564-1.462,9.448,1.055,10.908,5.618c2.839,8.865,6.103,17.74,9.706,26.377
						c1.823,4.37-0.198,9.382-4.513,11.279c-0.051,0.022-0.102,0.045-0.155,0.068c-4.422,1.844-9.502-0.247-11.347-4.67
						c-3.791-9.091-7.229-18.433-10.216-27.767c-1.367-4.267,0.748-8.817,4.762-10.581
						C1478.295,2974.565,1478.58,2974.455,1478.874,2974.363z M1519.905,3047.194c4.743,8.062,9.877,15.996,15.262,23.59
						c2.77,3.906,1.851,9.322-2.057,12.095c-3.932,2.769-9.325,1.848-12.097-2.06c-5.666-7.989-11.07-16.341-16.063-24.822
						c-2.43-4.129-1.051-9.448,3.078-11.878c0.3-0.176,0.607-0.333,0.917-0.469
						C1512.915,3041.904,1517.651,3043.365,1519.905,3047.194z M1564.09,3106.078c6.401,6.785,13.175,13.373,20.139,19.585
						c3.575,3.189,3.887,8.675,0.698,12.25c-3.19,3.568-8.672,3.886-12.25,0.698c-7.333-6.542-14.468-13.481-21.207-20.625
						c-3.288-3.485-3.127-8.975,0.356-12.265c0.743-0.7,1.577-1.245,2.462-1.634
						C1557.552,3102.652,1561.504,3103.336,1564.09,3106.078z M1620.336,3153.601c7.765,5.189,15.846,10.099,24.018,14.599
						c4.197,2.312,5.726,7.589,3.415,11.784c-2.315,4.194-7.589,5.72-11.785,3.415c-8.604-4.74-17.111-9.91-25.285-15.368
						c-3.983-2.661-5.056-8.05-2.395-12.033c0.952-1.426,2.253-2.479,3.714-3.121
						C1614.641,3151.725,1617.777,3151.894,1620.336,3153.601z M1685.766,3187.409c8.703,3.326,17.672,6.328,26.657,8.915
						c4.605,1.329,7.26,6.137,5.934,10.74c-1.327,4.607-6.136,7.262-10.739,5.931c-9.452-2.723-18.89-5.881-28.047-9.381
						c-4.475-1.709-6.717-6.724-5.005-11.2c0.861-2.255,2.562-3.944,4.612-4.844
						C1681.194,3186.683,1683.546,3186.56,1685.766,3187.409z M1757.047,3205.897c9.236,1.322,18.643,2.262,27.962,2.796
						c4.783,0.274,8.44,4.375,8.165,9.156c-0.273,4.784-4.371,8.44-9.157,8.168c-9.806-0.561-19.71-1.553-29.43-2.943
						c-4.743-0.68-8.036-5.074-7.359-9.818c0.441-3.081,2.45-5.549,5.105-6.716
						C1753.765,3205.91,1755.383,3205.658,1757.047,3205.897z M2060.952,3098.993c3.57,3.195,3.875,8.68,0.679,12.251
						c-6.547,7.313-13.503,14.439-20.673,21.178c-3.492,3.282-8.982,3.112-12.263-0.381c-3.281-3.489-3.111-8.979,0.38-12.26
						c6.808-6.399,13.411-13.166,19.628-20.111c0.853-0.953,1.867-1.672,2.967-2.156
						C2054.688,3096.187,2058.335,3096.649,2060.952,3098.993z M1830.607,3208.123c9.294-0.765,18.667-1.942,27.861-3.504
						c4.725-0.8,9.205,2.38,10.006,7.103c0.802,4.726-2.385,9.181-7.104,10.004c-9.682,1.642-19.553,2.884-29.341,3.688
						c-4.775,0.392-8.964-3.159-9.358-7.936c-0.312-3.787,1.859-7.207,5.154-8.655
						C1828.684,3208.447,1829.62,3208.206,1830.607,3208.123z M2005.807,3150.725c2.764,3.912,1.831,9.327-2.083,12.092
						c-8.017,5.66-16.386,11.049-24.868,16.022c-4.127,2.444-9.448,1.033-11.872-3.099c-2.422-4.133-1.034-9.448,3.099-11.872
						c8.062-4.725,16.015-9.846,23.633-15.227c0.486-0.343,0.996-0.627,1.52-0.857
						C1998.935,3146.157,2003.388,3147.298,2005.807,3150.725z M1902.807,3193.857c8.883-2.824,17.761-6.068,26.388-9.646
						c4.426-1.838,9.501,0.262,11.338,4.689c1.811,4.368-0.211,9.369-4.519,11.264c-0.056,0.024-0.113,0.05-0.17,0.071
						c-9.082,3.77-18.428,7.187-27.777,10.16c-4.568,1.449-9.446-1.075-10.898-5.641c-1.356-4.264,0.759-8.804,4.767-10.566
						C1902.217,3194.064,1902.509,3193.955,1902.807,3193.857z"/>
					<path style="fill:#BDD0FB;" d="M2088.026,3048.633c-1.564,0.688-2.943,1.841-3.902,3.41c-2.333,3.817-4.786,7.646-7.287,11.388
						c-2.664,3.981-1.596,9.371,2.386,12.034c3.981,2.666,9.375,1.601,12.034-2.388c2.633-3.934,5.212-7.962,7.669-11.978
						c2.5-4.086,1.213-9.429-2.872-11.927C2093.534,3047.63,2090.539,3047.529,2088.026,3048.633z"/>
				</g>
				<g style="opacity:0.3;">
					<path style="fill:#BDD0FB;" d="M2126.976,2787.021c-3.833,1.685-5.985,5.948-4.895,10.129c1.13,4.327,2.189,8.751,3.144,13.147
						c1.018,4.683,5.639,7.653,10.32,6.635c4.701-1.023,7.652-5.641,6.635-10.321c-1.007-4.628-2.121-9.288-3.31-13.844
						c-1.21-4.636-5.95-7.413-10.586-6.204C2127.83,2786.682,2127.393,2786.837,2126.976,2787.021z"/>
					<path style="fill:#BDD0FB;" d="M1680.11,2556.155c4.475-1.712,9.491,0.529,11.203,5.008c1.71,4.475-0.53,9.48-5.007,11.2
						c-8.521,3.257-17.034,6.929-25.404,10.949c-4.291,2.079-9.503,0.253-11.577-4.066c-2.075-4.319-0.255-9.501,4.063-11.577
						c3.626-1.742,7.268-3.417,10.922-5.023C1669.524,2560.354,1674.839,2558.169,1680.11,2556.155z M1624.277,2593.445
						c2.638,3.997,1.537,9.378-2.461,12.017c-7.675,5.07-15.221,10.515-22.425,16.192c-3.75,2.973-9.218,2.32-12.184-1.444
						c-2.964-3.761-2.317-9.217,1.445-12.181c7.584-5.977,15.526-11.712,23.605-17.044c0.419-0.277,0.854-0.513,1.297-0.708
						C1617.353,2588.608,1621.913,2589.865,1624.277,2593.445z M1725.321,2542.337c9.402-2.182,19.027-3.993,28.608-5.376
						c4.742-0.685,9.142,2.604,9.828,7.347c0.685,4.741-2.605,9.134-7.347,9.827c-9.099,1.313-18.238,3.031-27.165,5.104
						c-4.668,1.082-9.33-1.822-10.414-6.491c-0.958-4.128,1.207-8.252,4.951-9.898
						C1724.27,2542.636,1724.784,2542.462,1725.321,2542.337z M1565.87,2639.541c3.453,3.32,3.562,8.814,0.239,12.266
						c-6.367,6.62-12.525,13.591-18.306,20.719c-3.019,3.726-8.479,4.294-12.202,1.273c-3.721-3.017-4.292-8.479-1.275-12.2
						c6.088-7.507,12.574-14.849,19.277-21.819c0.811-0.841,1.749-1.487,2.757-1.93
						C1559.483,2636.477,1563.26,2637.03,1565.87,2639.541z M1801.038,2533.435c9.646-0.061,19.429,0.292,29.081,1.046
						c4.776,0.373,8.345,4.545,7.973,9.321c-0.372,4.78-4.548,8.348-9.324,7.975c-9.168-0.715-18.46-1.051-27.62-0.992
						c-4.792,0.03-8.701-3.831-8.73-8.622c-0.022-3.57,2.115-6.649,5.187-7.999
						C1798.654,2533.702,1799.817,2533.443,1801.038,2533.435z M1876.871,2541.355c9.449,2.054,18.92,4.532,28.153,7.362
						c4.581,1.407,7.156,6.257,5.752,10.839c-1.408,4.587-6.259,7.16-10.838,5.749c-8.772-2.689-17.774-5.043-26.753-6.997
						c-4.682-1.018-7.652-5.639-6.634-10.321c0.615-2.821,2.537-5.021,4.992-6.1
						C1873.163,2541.176,1875.013,2540.951,1876.871,2541.355z M1949.18,2565.614c8.781,4.065,17.49,8.548,25.88,13.318
						c4.166,2.37,5.62,7.665,3.253,11.83c-2.372,4.17-7.667,5.621-11.83,3.253c-7.973-4.536-16.245-8.791-24.592-12.655
						c-4.348-2.013-6.241-7.17-4.228-11.516c0.924-1.998,2.51-3.476,4.378-4.297
						C1944.241,2564.58,1946.829,2564.527,1949.18,2565.614z M2014.474,2605.069c7.68,5.886,15.197,12.169,22.341,18.675
						c3.543,3.225,3.801,8.713,0.574,12.256c-3.22,3.537-8.713,3.797-12.255,0.572c-6.783-6.176-13.92-12.142-21.217-17.734
						c-3.802-2.915-4.522-8.358-1.607-12.161c0.921-1.201,2.093-2.094,3.387-2.662
						C2008.499,2602.782,2011.87,2603.074,2014.474,2605.069z M2069.531,2657.934c6.179,7.416,12.121,15.195,17.665,23.123
						c2.746,3.927,1.789,9.338-2.138,12.083c-3.915,2.736-9.334,1.79-12.081-2.137c-5.265-7.532-10.91-14.92-16.778-21.965
						c-3.066-3.679-2.568-9.151,1.113-12.217c0.641-0.534,1.336-0.961,2.063-1.281
						C2062.825,2654.022,2066.998,2654.894,2069.531,2657.934z M2111.592,2721.531c3.254,6.325,6.354,12.829,9.211,19.328
						c1.035,2.355,2.04,4.711,3.018,7.076c1.831,4.425-0.181,9.563-4.699,11.331c-4.426,1.835-9.501-0.27-11.334-4.698
						c-0.93-2.246-1.885-4.491-2.869-6.727c-2.717-6.18-5.661-12.36-8.754-18.374c-2.192-4.259-0.515-9.491,3.745-11.682
						c0.16-0.082,0.322-0.16,0.485-0.232C2104.56,2715.723,2109.484,2717.431,2111.592,2721.531z"/>
					<path style="fill:#BDD0FB;" d="M1510.943,2697.029c-1.579,0.694-2.966,1.863-3.926,3.447
						c-2.431,4.019-4.823,8.165-7.109,12.324c-2.309,4.199-0.777,9.474,3.421,11.782c4.2,2.307,9.472,0.782,11.782-3.421
						c2.172-3.95,4.445-7.888,6.752-11.705c2.48-4.096,1.168-9.431-2.932-11.912
						C1516.418,2696.025,1513.441,2695.931,1510.943,2697.029z"/>
				</g>
				<g>
					<path style="fill:#BDD0FB;" d="M1539.499,2833.112c-0.492,1.78,0.197,3.676,1.719,4.722l43.412,29.849
						c-0.989,24.584,1.936,49.501,9.055,73.799l-34.859,39.457c-1.223,1.384-1.432,3.391-0.522,4.999l31.132,54.992
						c0.909,1.608,2.739,2.461,4.554,2.125l51.77-9.585c17.17,18.608,37.03,33.939,58.618,45.742l3.253,52.582
						c0.115,1.843,1.385,3.411,3.165,3.904l60.899,16.873c1.779,0.493,3.677-0.197,4.723-1.719l29.848-43.412
						c24.583,0.99,49.502-1.934,73.8-9.055l39.457,34.859c1.384,1.223,3.391,1.433,4.998,0.523l54.994-31.132
						c1.607-0.91,2.459-2.739,2.123-4.555l-9.585-51.771c18.608-17.17,33.939-37.031,45.741-58.618l52.583-3.252
						c1.843-0.114,3.411-1.385,3.904-3.165l16.873-60.899c0.493-1.779-0.198-3.676-1.719-4.722l-43.413-29.849
						c0.99-24.583-1.935-49.5-9.055-73.799l34.859-39.457c1.223-1.384,1.433-3.391,0.523-4.998l-31.132-54.993
						c-0.91-1.607-2.739-2.46-4.554-2.124l-51.771,9.584c-17.17-18.608-37.031-33.939-58.618-45.741l-3.253-52.583
						c-0.113-1.843-1.384-3.411-3.165-3.904l-60.899-16.872c-1.779-0.493-3.676,0.198-4.722,1.719l-29.849,43.413
						c-24.584-0.99-49.501,1.935-73.799,9.054l-39.457-34.859c-1.384-1.221-3.391-1.432-4.998-0.522l-54.993,31.132
						c-1.607,0.91-2.46,2.739-2.124,4.555l9.584,51.769c-18.608,17.17-33.938,37.031-45.741,58.618l-52.583,3.253
						c-1.843,0.114-3.411,1.385-3.904,3.165L1539.499,2833.112z"/>
					
						<linearGradient id="SVGID_00000080178572613398932190000013815957066632038815_" gradientUnits="userSpaceOnUse" x1="1751.7979" y1="2876.7427" x2="1878.8752" y2="2876.7427">
						<stop  offset="0" style="stop-color:#DAE3FE"/>
						<stop  offset="1" style="stop-color:#E9EFFD"/>
					</linearGradient>
					<path style="fill:url(#SVGID_00000080178572613398932190000013815957066632038815_);" d="M1798.515,2815.487
						c33.776-9.268,68.796,10.667,78.067,44.446c4.492,16.362,2.341,33.494-6.054,48.238c-8.392,14.743-22.025,25.34-38.39,29.827
						c-33.777,9.268-68.796-10.667-78.067-44.446c-8.433-30.729,7.307-62.486,35.653-74.947
						C1792.533,2817.37,1795.47,2816.324,1798.515,2815.487z M1857.65,2900.838c6.437-11.306,8.085-24.439,4.642-36.987
						c-7.107-25.894-33.959-41.184-59.855-34.075c-25.907,7.101-41.184,33.959-34.077,59.857
						c7.107,25.894,33.959,41.184,59.855,34.076c2.349-0.645,4.619-1.453,6.808-2.416
						C1844.53,2917.114,1852.418,2910.026,1857.65,2900.838z"/>
					
						<linearGradient id="SVGID_00000098203667936296291010000011049859884106646695_" gradientUnits="userSpaceOnUse" x1="1660.3724" y1="2877.156" x2="1972.8446" y2="2877.156">
						<stop  offset="0" style="stop-color:#DAE3FE"/>
						<stop  offset="1" style="stop-color:#E9EFFD"/>
					</linearGradient>
					<path style="fill:url(#SVGID_00000098203667936296291010000011049859884106646695_);" d="M1753.99,2734.094
						c-4.868,2.14-9.657,4.538-14.349,7.193l0,0c-1.477,0.835-2.94,1.696-4.39,2.578c-7.146,4.354-13.933,9.271-20.259,14.672
						c-0.086,0.073-0.172,0.147-0.259,0.22c-0.244,0.21-0.487,0.42-0.729,0.633c-0.474,0.41-0.943,0.826-1.411,1.24
						c-1.23,1.094-1.559,2.823-0.932,4.255c0.153,0.348,0.363,0.678,0.629,0.977c1.36,1.528,3.7,1.657,5.229,0.302
						c7.863-7.001,16.533-13.2,25.771-18.426c45.875-25.98,99.831-24.85,143.262-1.784c24.159,12.826,45.061,32.442,59.505,57.96
						c2.534,4.474,4.823,9.044,6.863,13.688c13.734,31.252,16.281,65.987,7.043,99.328c-10.61,38.298-35.499,70.173-70.081,89.749
						c-71.426,40.425-162.355,15.212-202.767-56.176c-2.492-4.402-4.752-8.913-6.772-13.514
						c-8.76-19.936-13.06-41.567-12.516-63.355c0.014-0.563-0.098-1.099-0.312-1.582c-0.559-1.272-1.817-2.177-3.299-2.213
						c-2.047-0.045-3.748,1.561-3.796,3.613c-0.571,22.875,3.942,45.587,13.139,66.515c2.121,4.829,4.493,9.564,7.107,14.185
						c42.429,74.951,137.942,101.39,212.866,58.977c36.307-20.553,62.433-54.014,73.571-94.22
						c9.7-35.001,7.025-71.467-7.392-104.276c-2.143-4.875-4.546-9.671-7.203-14.368c-20.555-36.307-54.016-62.437-94.22-73.575
						C1823.279,2716.989,1786.804,2719.67,1753.99,2734.094z"/>
				</g>
			</g>
			<g>
				<g style="opacity:0.3;">
					<path style="fill:#BDD0FB;" d="M1114.991,2884.535c-2.122,0.933-3.468,3.176-3.154,5.593c0.583,4.511,1.311,9.067,2.165,13.539
						c0.554,2.906,3.358,4.811,6.268,4.259c2.913-0.544,4.813-3.362,4.259-6.268c-0.813-4.261-1.507-8.603-2.065-12.908
						c-0.378-2.932-3.065-5.003-6.001-4.627C1115.941,2884.192,1115.449,2884.333,1114.991,2884.535z"/>
					<path style="fill:#BDD0FB;" d="M1124.523,2924.558c2.817-0.907,5.835,0.636,6.745,3.454c2.298,7.106,4.987,14.178,7.992,21.014
						c0.634,1.442,1.287,2.881,1.956,4.319c1.245,2.682,0.082,5.869-2.602,7.117c-2.584,1.079-5.869,0.082-7.12-2.603
						c-0.698-1.505-1.381-3.011-2.044-4.52c-3.15-7.166-5.969-14.581-8.377-22.034c-0.854-2.637,0.451-5.457,2.937-6.549
						C1124.175,2924.682,1124.347,2924.618,1124.523,2924.558z M1154.168,2977.276c4.788,7.687,10.093,15.146,15.772,22.167
						c1.861,2.303,1.505,5.672-0.797,7.535c-2.292,1.848-5.675,1.506-7.536-0.797c-5.952-7.358-11.516-15.178-16.535-23.238
						c-1.565-2.513-0.797-5.817,1.715-7.385c0.22-0.136,0.451-0.255,0.683-0.357
						C1149.872,2974.146,1152.742,2974.988,1154.168,2977.276z M1188.341,3019.494c6.515,6.27,13.492,12.195,20.742,17.616
						c2.368,1.771,2.853,5.13,1.081,7.498c-1.779,2.376-5.127,2.86-7.5,1.084c-7.603-5.683-14.921-11.903-21.754-18.474
						c-2.131-2.052-2.2-5.446-0.147-7.578c0.502-0.517,1.081-0.916,1.704-1.189
						C1184.395,3017.604,1186.728,3017.945,1188.341,3019.494z M1231.842,3052.026c7.866,4.488,16.084,8.528,24.415,12
						c2.734,1.142,4.024,4.279,2.884,7.009c-1.137,2.724-4.273,4.022-7.005,2.885c-8.742-3.645-17.353-7.879-25.604-12.585
						c-2.57-1.465-3.465-4.741-1.999-7.312c0.595-1.033,1.478-1.799,2.494-2.245
						C1228.527,3051.117,1230.308,3051.151,1231.842,3052.026z M1281.968,3072.952c8.717,2.438,17.663,4.359,26.598,5.713
						c2.923,0.441,4.936,3.174,4.494,6.101c-0.442,2.927-3.171,4.944-6.101,4.494c-9.363-1.417-18.742-3.433-27.878-5.984
						c-2.849-0.8-4.514-3.755-3.717-6.602c0.45-1.61,1.589-2.842,3.007-3.465
						C1279.465,3072.726,1280.726,3072.606,1281.968,3072.952z M1335.654,3081.075c9.039,0.245,18.176-0.074,27.162-0.949
						c2.943-0.288,5.566,1.869,5.851,4.813c0.285,2.944-1.862,5.557-4.814,5.855c-9.422,0.918-19.01,1.252-28.491,0.995
						c-2.957-0.083-5.291-2.544-5.21-5.5c0.059-2.141,1.365-3.956,3.202-4.763
						C1334.055,3081.217,1334.834,3081.052,1335.654,3081.075z M1389.673,3075.825c8.795-1.974,17.583-4.528,26.121-7.596
						c2.786-0.996,5.854,0.45,6.852,3.236c1.001,2.783-0.458,5.809-3.233,6.857c-8.952,3.209-18.166,5.888-27.391,7.96
						c-2.888,0.647-5.755-1.168-6.404-4.055c-0.571-2.539,0.768-5.065,3.068-6.075
						C1388.999,3076.013,1389.328,3075.903,1389.673,3075.825z M1471.722,3045.22c1.647,2.459,0.988,5.784-1.472,7.432
						c-6.807,4.559-13.982,8.821-21.301,12.662c-1.11,0.59-2.223,1.16-3.34,1.725c-2.59,1.401-5.866,0.27-7.195-2.382
						c-1.331-2.644-0.265-5.862,2.379-7.196c1.05-0.525,2.096-1.065,3.154-1.627c7.008-3.675,13.851-7.741,20.343-12.087
						c0.267-0.18,0.546-0.331,0.829-0.456C1467.454,3042.267,1470.256,3043.03,1471.722,3045.22z"/>
				</g>
				<g style="opacity:0.3;">
					<path style="fill:#BDD0FB;" d="M1251.225,2647.262c8.597-3.647,17.492-6.798,26.436-9.375c2.843-0.815,5.812,0.823,6.632,3.669
						c0.82,2.846-0.851,5.793-3.669,6.632c-8.53,2.453-17.014,5.462-25.215,8.941c-2.723,1.157-5.87-0.117-7.024-2.84
						c-1.146-2.703,0.096-5.821,2.774-6.998C1251.179,2647.282,1251.204,2647.271,1251.225,2647.262z M1233.407,2661.737
						c1.473,2.565,0.587,5.841-1.979,7.312c-7.719,4.434-15.248,9.378-22.377,14.701c-2.362,1.753-5.729,1.284-7.5-1.093
						c-1.771-2.371-1.282-5.724,1.088-7.498c7.471-5.576,15.361-10.76,23.452-15.403c0.171-0.098,0.341-0.185,0.519-0.263
						C1229.083,2658.407,1232.029,2659.336,1233.407,2661.737z M1305.063,2631.792c9.229-1.462,18.625-2.374,27.927-2.708
						c2.958-0.105,5.443,2.208,5.548,5.163c0.109,2.959-2.197,5.43-5.16,5.55c-8.875,0.317-17.835,1.187-26.641,2.577
						c-2.924,0.462-5.667-1.533-6.129-4.45c-0.389-2.458,0.959-4.788,3.134-5.745
						C1304.153,2631.997,1304.595,2631.865,1305.063,2631.792z M1188.79,2693.468c2.047,2.135,1.973,5.529-0.162,7.576
						c-6.427,6.158-12.537,12.771-18.162,19.662c-1.873,2.287-5.249,2.628-7.538,0.764c-2.292-1.873-2.636-5.249-0.763-7.541
						c5.897-7.228,12.307-14.167,19.048-20.623c0.467-0.446,0.993-0.791,1.551-1.036
						C1184.767,2691.39,1187.19,2691.799,1188.79,2693.468z M1361.023,2629.792c9.288,0.798,18.625,2.176,27.754,4.09
						c2.896,0.607,4.752,3.45,4.144,6.346c-0.607,2.897-3.445,4.756-6.346,4.145c-8.707-1.831-17.611-3.141-26.47-3.9
						c-2.947-0.254-5.133-2.848-4.879-5.8c0.172-2.02,1.45-3.684,3.186-4.447
						C1359.205,2629.877,1360.097,2629.713,1361.023,2629.792z M1415.838,2641.277c8.844,3.006,17.584,6.577,25.977,10.61
						c2.666,1.281,3.789,4.479,2.507,7.146c-1.278,2.665-4.48,3.793-7.151,2.509c-8.003-3.844-16.342-7.249-24.782-10.118
						c-2.802-0.952-4.301-3.997-3.349-6.799c0.504-1.479,1.591-2.597,2.92-3.182
						C1413.143,2640.924,1414.518,2640.829,1415.838,2641.277z M1466.33,2665.558c7.874,5.038,15.505,10.606,22.681,16.54
						c2.282,1.889,2.6,5.264,0.714,7.545c-1.884,2.281-5.265,2.594-7.542,0.715c-6.842-5.663-14.12-10.97-21.628-15.769
						c-2.493-1.596-3.222-4.911-1.625-7.402c0.59-0.928,1.418-1.606,2.352-2.017
						C1462.866,2664.474,1464.76,2664.556,1466.33,2665.558z"/>
					<path style="fill:#BDD0FB;" d="M1148.005,2734.878c-0.946,0.416-1.782,1.109-2.374,2.05c-2.444,3.881-4.782,7.852-6.955,11.803
						c-1.424,2.593-0.479,5.853,2.114,7.279c2.592,1.416,5.848,0.476,7.279-2.114c2.07-3.768,4.303-7.556,6.633-11.261
						c1.577-2.505,0.822-5.814-1.682-7.389C1151.457,2734.264,1149.579,2734.187,1148.005,2734.878z"/>
				</g>
				<g>
					<path style="fill:#BDD0FB;" d="M1169.364,2834.627c-0.308,1.116,0.124,2.304,1.078,2.96l27.211,18.71
						c-0.62,15.409,1.214,31.028,5.676,46.258l-21.85,24.732c-0.766,0.868-0.898,2.125-0.328,3.133l19.514,34.47
						c0.57,1.008,1.717,1.542,2.854,1.332l32.451-6.009c10.762,11.664,23.211,21.274,36.743,28.672l2.039,32.959
						c0.071,1.156,0.868,2.138,1.984,2.448l38.173,10.576c1.115,0.309,2.305-0.124,2.96-1.078l18.709-27.211
						c15.41,0.62,31.029-1.213,46.259-5.676l24.732,21.851c0.868,0.766,2.126,0.898,3.133,0.328l34.471-19.514
						c1.008-0.571,1.541-1.717,1.331-2.855l-6.008-32.451c11.664-10.762,21.274-23.211,28.671-36.743l32.96-2.039
						c1.155-0.072,2.138-0.868,2.447-1.983l10.576-38.173c0.309-1.115-0.124-2.303-1.077-2.959l-27.212-18.71
						c0.62-15.409-1.213-31.028-5.676-46.258l21.85-24.732c0.767-0.867,0.898-2.125,0.328-3.133l-19.514-34.471
						c-0.57-1.007-1.717-1.542-2.855-1.331l-32.45,6.008c-10.762-11.664-23.212-21.274-36.743-28.672l-2.039-32.96
						c-0.071-1.155-0.868-2.138-1.984-2.447l-38.172-10.576c-1.116-0.309-2.304,0.124-2.961,1.077l-18.709,27.212
						c-15.41-0.62-31.028,1.213-46.259,5.676l-24.732-21.85c-0.867-0.766-2.125-0.898-3.133-0.328l-34.47,19.514
						c-1.007,0.571-1.542,1.717-1.331,2.855l6.007,32.45c-11.664,10.762-21.273,23.212-28.671,36.743l-32.96,2.039
						c-1.155,0.071-2.138,0.868-2.447,1.983L1169.364,2834.627z"/>
					
						<linearGradient id="SVGID_00000083784374081265256170000011216507485958522254_" gradientUnits="userSpaceOnUse" x1="1301.7095" y1="2861.9683" x2="1382.7928" y2="2861.9683">
						<stop  offset="0" style="stop-color:#DAE3FE"/>
						<stop  offset="1" style="stop-color:#E9EFFD"/>
					</linearGradient>
					<path style="fill:url(#SVGID_00000083784374081265256170000011216507485958522254_);" d="M1331.528,2822.892
						c10.442-2.869,21.375-1.497,30.783,3.862c9.407,5.353,16.167,14.053,19.031,24.495c5.915,21.549-6.789,43.854-28.359,49.815
						c-21.555,5.909-43.898-6.813-49.809-28.359c-2.866-10.44-1.496-21.372,3.86-30.78c4.354-7.647,10.919-13.545,18.832-17.024
						C1327.684,2824.101,1329.578,2823.429,1331.528,2822.892z M1371.009,2854.087c-2.108-7.682-7.079-14.082-14.002-18.023
						c-6.918-3.938-14.961-4.947-22.641-2.84l0,0c-7.677,2.118-14.078,7.081-18.02,14.004c-3.941,6.917-4.946,14.961-2.84,22.638
						c4.351,15.853,20.785,25.21,36.64,20.864c1.43-0.395,2.806-0.885,4.126-1.465
						C1367.577,2883.416,1374.967,2868.507,1371.009,2854.087z"/>
					
						<linearGradient id="SVGID_00000132051951709715737750000009899471381244413618_" gradientUnits="userSpaceOnUse" x1="1242.0931" y1="2862.3013" x2="1444.0297" y2="2862.3013">
						<stop  offset="0" style="stop-color:#DAE3FE"/>
						<stop  offset="1" style="stop-color:#E9EFFD"/>
					</linearGradient>
					<path style="fill:url(#SVGID_00000132051951709715737750000009899471381244413618_);" d="M1302.496,2769.829
						c-3.104,1.365-6.162,2.898-9.176,4.6c-5.981,3.384-11.623,7.379-16.783,11.888c-0.23,0.204-0.461,0.409-0.691,0.613
						c-1.78,1.583-2.255,4.083-1.347,6.154c0.221,0.503,0.525,0.981,0.909,1.412c1.967,2.211,5.35,2.393,7.563,0.437
						c4.777-4.255,10.036-8.013,15.626-11.174l0.002-0.001c0.306-0.174,0.617-0.345,0.923-0.514
						c13.298-7.361,27.926-11.128,42.732-11.235c8.037-0.057,16.13,0.969,24.094,3.098c0.065,0.017,0.129,0.034,0.194,0.052
						c0.199,0.056,0.396,0.106,0.592,0.163c23.223,6.436,42.553,21.528,54.425,42.5c1.539,2.713,2.925,5.482,4.163,8.299
						c8.328,18.951,9.872,40.016,4.271,60.238c-6.436,23.224-21.53,42.549-42.5,54.419c-20.962,11.856-45.312,14.866-68.536,8.436
						c-23.223-6.436-42.553-21.528-54.425-42.5c-1.513-2.667-2.881-5.404-4.107-8.192c-5.313-12.092-7.92-25.207-7.59-38.419
						c0.019-0.814-0.141-1.59-0.451-2.288c-0.809-1.84-2.628-3.149-4.771-3.201c-2.958-0.066-5.417,2.261-5.491,5.226
						c-0.369,14.783,2.548,29.46,8.488,42.985c1.373,3.123,2.904,6.183,4.593,9.167c13.285,23.466,34.909,40.35,60.895,47.55
						c25.981,7.196,53.208,3.87,76.673-9.436c23.464-13.281,40.35-34.903,47.546-60.89c6.27-22.619,4.541-46.186-4.777-67.389
						c-1.384-3.147-2.936-6.249-4.653-9.283C1405.17,2767.117,1349.292,2749.257,1302.496,2769.829z"/>
				</g>
			</g>
		</g>
		<g>
			<circle style="fill:#91B3FA;" cx="916.734" cy="2738.376" r="391.968"/>
			<g>
				
					<linearGradient id="SVGID_00000173866095362961648610000004124554276695059585_" gradientUnits="userSpaceOnUse" x1="1877.6761" y1="-3954.0293" x2="1681.6858" y2="-3054.4797" gradientTransform="matrix(0.9047 -0.4261 0.4261 0.9047 -363.9512 -113.9155)">
					<stop  offset="0" style="stop-color:#4F52FF"/>
					<stop  offset="1" style="stop-color:#4042E2"/>
				</linearGradient>
				<path style="fill:url(#SVGID_00000173866095362961648610000004124554276695059585_);" d="M1114.556,2529.853
					c0,0,191.682,182.75,389.529,130.314l20.72,25.062c0,0-245.021,147.875-459.547-20.115L1114.556,2529.853z"/>
			</g>
			
				<linearGradient id="SVGID_00000075878748861168873320000016595777904242781318_" gradientUnits="userSpaceOnUse" x1="621.0474" y1="3471.6104" x2="967.7975" y2="2783.1357">
				<stop  offset="0" style="stop-color:#4F52FF"/>
				<stop  offset="1" style="stop-color:#4042E2"/>
			</linearGradient>
			<path style="fill:url(#SVGID_00000075878748861168873320000016595777904242781318_);" d="M929.947,3126.165
				c0,0-180.224-140.325-216.466-374.477c-20.873-134.858,86.437-256.262,222.801-251.051
				c51.728,1.977,111.478,10.275,178.273,29.216c0,0-94.565,228.896,26.719,535.466
				C1141.275,3065.319,1010.208,3141.079,929.947,3126.165z"/>
			
				<linearGradient id="SVGID_00000067194058391001894020000008573155056159677358_" gradientUnits="userSpaceOnUse" x1="-16.6753" y1="2865.3352" x2="148.5961" y2="2865.3352" gradientTransform="matrix(0.9047 -0.4261 0.4261 0.9047 -363.9512 -113.9155)">
				<stop  offset="0" style="stop-color:#FEBBBA"/>
				<stop  offset="1" style="stop-color:#FF928E"/>
			</linearGradient>
			<path style="fill:url(#SVGID_00000067194058391001894020000008573155056159677358_);" d="M891.656,2364.098l-36.294,135.238
				c-3.413,12.717,3.007,25.995,15.087,31.233c20.963,9.089,54.579,17.748,84.398-0.979c9.759-6.129,15.89-16.675,16.657-28.172
				l7.514-112.678L891.656,2364.098z"/>
			<circle style="fill:#91B3FA;" cx="861.495" cy="989.477" r="391.968"/>
			<circle style="fill:#91B3FA;" cx="2843.504" cy="989.477" r="391.968"/>
			<circle style="fill:#91B3FA;" cx="2760.65" cy="2833.537" r="391.968"/>
			<g>
				<g>
					
						<linearGradient id="SVGID_00000072961592242635516110000016962422843678719873_" gradientUnits="userSpaceOnUse" x1="968.1738" y1="1190.4907" x2="1638.2551" y2="533.8104">
						<stop  offset="0" style="stop-color:#FEBBBA"/>
						<stop  offset="1" style="stop-color:#FF928E"/>
					</linearGradient>
					<path style="fill:url(#SVGID_00000072961592242635516110000016962422843678719873_);" d="M1006.151,911.315
						c20.029-4.517,95.523,244.34,320.529,111.53l17.489,41.079c0,0-188.943,197.196-349.037,5.001L1006.151,911.315z"/>
					
						<linearGradient id="SVGID_00000159449323231082775840000004444638959191171227_" gradientUnits="userSpaceOnUse" x1="1582.5295" y1="681.6043" x2="1202.3944" y2="988.5944" gradientTransform="matrix(0.9871 0.1598 -0.1598 0.9871 41.0766 77.5032)">
						<stop  offset="0" style="stop-color:#FEBBBA"/>
						<stop  offset="1" style="stop-color:#FF928E"/>
					</linearGradient>
					<path style="fill:url(#SVGID_00000159449323231082775840000004444638959191171227_);" d="M1479.672,1080.732
						c-1.173-8.855-6.309-16.697-13.958-21.311l-74.65-45.039c0,0,0.453-10.435,19.655-14.468
						c19.204-4.032,18.255-24.961,18.255-24.961s-26.519,7.267-65.567,19.281c-22.33,6.87-36.852,23.033-45.203,35.618l16.178,30.36
						c46.819,22.752,96.159,33.641,147.33,35.908L1479.672,1080.732z"/>
				</g>
				
					<linearGradient id="SVGID_00000071531826098416762610000004691650946972911269_" gradientUnits="userSpaceOnUse" x1="1384.6499" y1="196.5076" x2="1088.1539" y2="663.8657">
					<stop  offset="0" style="stop-color:#E1473D"/>
					<stop  offset="1" style="stop-color:#E9605A"/>
				</linearGradient>
				<path style="fill:url(#SVGID_00000071531826098416762610000004691650946972911269_);" d="M706.882,903.818
					c-6.876,2.972,34.084,267.66-10.44,441.456c0,0,76.034,39.7,165.053,36.171c0,0,160.249-246.25,164.443-274.432
					c4.752-31.933-19.787-195.698-19.787-195.698S876.545,830.48,706.882,903.818z"/>
				
					<linearGradient id="SVGID_00000020400417177893071600000005480643751642498194_" gradientUnits="userSpaceOnUse" x1="956.2106" y1="594.4717" x2="895.903" y2="960.7834">
					<stop  offset="0" style="stop-color:#FEBBBA"/>
					<stop  offset="1" style="stop-color:#FF928E"/>
				</linearGradient>
				<path style="fill:url(#SVGID_00000020400417177893071600000005480643751642498194_);" d="M913.052,1015.25
					c79.198,2.687,85.5-65.178,80.987-110.437c-26.043-12.786-92.226-39.171-179.721-29.745
					C812.699,913.699,817.962,1012.023,913.052,1015.25z"/>
				
					<linearGradient id="SVGID_00000060725439257607428060000018331828069343596976_" gradientUnits="userSpaceOnUse" x1="969.5513" y1="596.6682" x2="909.2438" y2="962.9799">
					<stop  offset="0" style="stop-color:#FEBBBA"/>
					<stop  offset="1" style="stop-color:#FF928E"/>
				</linearGradient>
				<path style="fill:url(#SVGID_00000060725439257607428060000018331828069343596976_);" d="M936.565,756.644
					c0,0-39.341,83.13-62.321,118.18c-6.744,10.286-4.675,24.063,4.867,31.824c10.895,8.861,28.601,17.641,56.106,17.916
					c11.564,0.115,21.725-7.708,24.771-18.865l25.93-94.959L936.565,756.644z"/>
				<g>
					
						<linearGradient id="SVGID_00000095303426633530363810000014849059907846815876_" gradientUnits="userSpaceOnUse" x1="689.8941" y1="5105.8618" x2="649.6909" y2="5558.1479" gradientTransform="matrix(-0.723 -0.6909 -0.6909 0.723 218.375 3572.7656)">
						<stop  offset="0" style="stop-color:#FEBBBA"/>
						<stop  offset="1" style="stop-color:#FF928E"/>
					</linearGradient>
					<path style="fill:url(#SVGID_00000095303426633530363810000014849059907846815876_);" d="M1071.077,688.177
						c0,0,18.217,42.078-3.186,106.052c-21.404,63.974-56.381,69.532-78.533,53.717s-50.874-44.076-54.446-102.026
						C931.341,687.968,1045.982,634.955,1071.077,688.177z"/>
					
						<linearGradient id="SVGID_00000036216319107766254230000014088871383179087541_" gradientUnits="userSpaceOnUse" x1="971.351" y1="643.4727" x2="785.1722" y2="330.9577">
						<stop  offset="0" style="stop-color:#09005D"/>
						<stop  offset="1" style="stop-color:#1A0F91"/>
					</linearGradient>
					<path style="fill:url(#SVGID_00000036216319107766254230000014088871383179087541_);" d="M978.138,742.15
						c0,0,38.654-86.583,96.627-32.647l4.474,22.286c0,0,55.209-15.728,37.065-65.757c-18.145-50.029-84.122-83.966-143.171-51.54
						c-59.049,32.426-79.119,70.621-75.946,116.164c3.174,45.542,37.308,29.958,37.308,29.958s6.568-33.484,22.604-39.433
						c16.036-5.949,15.692,19.395,15.692,19.395L978.138,742.15z"/>
					
						<linearGradient id="SVGID_00000096748943461769277950000004161474531785729697_" gradientUnits="userSpaceOnUse" x1="754.4027" y1="5111.5767" x2="714.1996" y2="5563.8618" gradientTransform="matrix(-0.723 -0.6909 -0.6909 0.723 218.375 3572.7656)">
						<stop  offset="0" style="stop-color:#FEBBBA"/>
						<stop  offset="1" style="stop-color:#FF928E"/>
					</linearGradient>
					<path style="fill:url(#SVGID_00000096748943461769277950000004161474531785729697_);" d="M964.846,743.207
						c0,0,20.131-44.391-8.067-45.996c-28.198-1.605-16.725,42.792-11.106,58.991L964.846,743.207z"/>
					
						<linearGradient id="SVGID_00000158723088687560973300000013118809996352495015_" gradientUnits="userSpaceOnUse" x1="802.7065" y1="743.9417" x2="616.5277" y2="431.4268">
						<stop  offset="0" style="stop-color:#09005D"/>
						<stop  offset="1" style="stop-color:#1A0F91"/>
					</linearGradient>
					<path style="fill:url(#SVGID_00000158723088687560973300000013118809996352495015_);" d="M948.838,646.583
						c15.798-1.923,22.154-21.442,11.409-33.183c-34.683-37.897-100.151-79.945-193.423-15.423
						c-105.066,72.681-161.911,105.565-187.72,98.665c-16.949-4.531-31.687,12.234-23.682,27.846
						c5.919,11.543,17.968,23.598,40.232,34.584C767.4,843.816,856.176,657.863,948.838,646.583z"/>
				</g>
			</g>
			
				<linearGradient id="SVGID_00000159431214661203609670000017897463798122077340_" gradientUnits="userSpaceOnUse" x1="2880.6179" y1="-40.2" x2="2694.6802" y2="758.8328">
				<stop  offset="0" style="stop-color:#4F52FF"/>
				<stop  offset="1" style="stop-color:#4042E2"/>
			</linearGradient>
			<path style="fill:url(#SVGID_00000159431214661203609670000017897463798122077340_);" d="M2766.614,875.35
				c0,0-150.24,271.679-365.485,291.335l-11.474,32.365c0,0,296.61,57.924,448.551-186.422L2766.614,875.35z"/>
			
				<linearGradient id="SVGID_00000179626041772361381240000012030413942746824628_" gradientUnits="userSpaceOnUse" x1="2959.3652" y1="843.0927" x2="3140.4478" y2="749.3179" gradientTransform="matrix(0.7912 0.6116 -0.6116 0.7912 486.1234 220.8482)">
				<stop  offset="0" style="stop-color:#C4421B"/>
				<stop  offset="1" style="stop-color:#5C0E16"/>
			</linearGradient>
			<path style="fill:url(#SVGID_00000179626041772361381240000012030413942746824628_);" d="M2533.329,2645.772
				c0,0-47.077,123.695,38.897,187.504c85.974,63.809,223.646-94.63,223.646-94.63l-76.098,194.868
				c0,0-101.702,65.046-207.718-43.062c-106.015-108.108-32.54-255.002-32.54-255.002s-72.638-34.896-29.552-105.385
				c2.956-4.836,10.317-3.551,11.467,1.999c4.256,20.544,15.465,56.645,43.087,71.044
				C2544.138,2623.76,2533.329,2645.772,2533.329,2645.772z"/>
			
				<linearGradient id="SVGID_00000088113812150337791330000016973017039380100014_" gradientUnits="userSpaceOnUse" x1="3697.5564" y1="3090.0042" x2="1979.9865" y2="956.8901">
				<stop  offset="0" style="stop-color:#B37CFF"/>
				<stop  offset="1" style="stop-color:#F895E7"/>
			</linearGradient>
			<path style="fill:url(#SVGID_00000088113812150337791330000016973017039380100014_);" d="M2149.582,1165.728
				c-1.277-0.4-2.558-0.794-3.838-1.188l2.669,1.453C2148.787,1165.958,2149.189,1165.829,2149.582,1165.728z"/>
			
				<linearGradient id="SVGID_00000157298398504235733170000017400274033335620996_" gradientUnits="userSpaceOnUse" x1="1908.9381" y1="2216.1057" x2="4337.3677" y2="-1721.5117">
				<stop  offset="0" style="stop-color:#53D8FF"/>
				<stop  offset="1" style="stop-color:#3840F7"/>
			</linearGradient>
			<path style="fill:url(#SVGID_00000157298398504235733170000017400274033335620996_);" d="M2544.132,1209.011
				c5.328,9.075,2.627-9.373-5.399-42.941C2534.809,1179.832,2536.067,1195.271,2544.132,1209.011z"/>
			<g>
				<g>
					
						<linearGradient id="SVGID_00000054968521993780656320000008598078855286230918_" gradientUnits="userSpaceOnUse" x1="2522.1216" y1="2673.2124" x2="621.7706" y2="551.7305">
						<stop  offset="0" style="stop-color:#4042E2"/>
						<stop  offset="1" style="stop-color:#4F52FF"/>
					</linearGradient>
					<path style="fill:url(#SVGID_00000054968521993780656320000008598078855286230918_);" d="M2679.299,2003.713
						c-35.713,1.919-62.775-33.962-50.839-68.373c13.242-38.181,25.045-89.953,24.153-151.905
						c-1.991-137.707-118.234-234.809-268.659-203.868c-149.06,30.658-177.118,164.936-155.384,228.163
						c11.359,33.039,50.79,89.324,85.953,135.668c24.593,32.411,4.003,79.7-35.54,81.826l-398.306,21.402l-20.839-352.164
						c-1.75-29.551-33.729-45.489-56.503-28.137c-38.333,29.213-98.915,55.278-184.773,36.835
						c-163.198-35.064-163.792-190.258-136.871-268.368c22.712-65.906,175.506-152.876,292.293-75.731
						c24.78,16.366,57.005-3.33,55.178-34.216l-22.147-444.444c-496.304,47.602-884.414,465.686-884.414,974.467
						c0,56.535,4.854,111.929,14.054,165.841l381.222,4.539c17.212,0.345,25.911,19.061,14.41,30.77
						c-21.983,22.384-43.731,58.893-39.795,114.286c7.697,108.296,105.435,149.421,213.437,103.742
						c107.586-45.506,135.708-166.708,29.42-251.44l342.279,6.873l2.281,268.705c0.25,29.434,35.994,47.815,61.858,31.561
						c132.196-83.051,257.782,18.228,264.326,98.073c7.6,92.701-44.229,184.901-157.99,173.709
						c-49.25-4.847-88.775-18.676-117.734-32.787c-26.525-12.922-57.313,4.729-57.088,32.519l1.886,232.278
						c8.797,0.234,17.618,0.366,26.471,0.366c493.665,0,901.92-365.404,969.23-840.483L2679.299,2003.713z"/>
					<path style="fill:#FFFFFF;" d="M1901.636,2838.928c-8.507,0-17.459-0.123-26.604-0.366l-4.852-0.129l-1.927-237.134
						c-0.115-14.146,7.13-27.204,19.376-34.927c13.47-8.494,30.272-9.295,44.939-2.15c35.641,17.367,74.678,28.235,116.024,32.303
						c44.436,4.363,82.331-7.476,109.559-34.267c31.243-30.738,47.292-80.844,42.93-134.03
						c-3.262-39.823-37.659-83.711-83.643-106.727c-31.835-15.929-96.625-35.485-173.001,12.499
						c-13.896,8.734-31.783,9.099-46.673,0.949c-14.2-7.769-22.756-21.498-22.884-36.722l-2.238-263.822l-323.236-6.492
						c43.215,38.798,63.288,85.858,56.712,133.768c-6.887,50.153-43.608,93.889-98.235,116.993
						c-59.941,25.356-118.557,25.043-160.81-0.855c-35.045-21.48-56.211-59.537-59.594-107.159
						c-4.172-58.722,20.116-96.67,41.223-118.163c3.681-3.748,4.748-8.759,2.853-13.405c-1.698-4.165-6.207-8.669-13.778-8.821
						l-385.373-4.587l-0.703-4.129c-9.374-54.938-14.125-111.02-14.125-166.686c0-246.259,91.417-481.916,257.409-663.567
						c164.913-180.469,389.204-292.659,631.55-315.904l5.238-0.502l22.409,449.7c0.982,16.593-7.083,31.932-21.048,39.984
						c-13.346,7.694-29.012,7.202-41.919-1.325c-65.618-43.343-135.688-29.333-171.614-17.127
						c-53.842,18.298-101.432,56.276-113.158,90.302c-15.725,45.625-22.285,119.826,10.981,178.792
						c24.182,42.867,65.294,70.8,122.195,83.026c86.103,18.494,145.772-9.325,180.67-35.92c11.825-9.011,26.872-10.724,40.254-4.581
						c14.046,6.447,23.361,20.4,24.31,36.416l20.544,347.175l393.317-21.133c16.179-0.869,30.016-10.405,37.018-25.508
						c7.345-15.851,5.346-34.343-5.216-48.262c-48.015-63.283-77.187-109.401-86.702-137.071
						c-11.347-33.012-10.061-88.645,18.388-138.519c19.831-34.761,60.344-79.667,140.74-96.202
						c74.311-15.283,143.999-0.612,196.202,41.321c49.631,39.871,77.508,99.32,78.492,167.398
						c0.762,52.991-7.457,104.677-24.431,153.625c-5.068,14.611-2.477,30.793,6.933,43.292c9.292,12.342,23.81,19.247,38.89,18.414
						l197.671-10.62l-0.857,6.051c-32.935,232.435-148.851,446.042-326.4,601.473
						C2370.199,2752.511,2140.137,2838.928,1901.636,2838.928z M1880.152,2828.632c7.368,0.164,14.573,0.245,21.483,0.245
						c480.143,0,893.216-356.415,963.378-830.109l-185.448,9.964l-0.268-5.019l0.268,5.019c-18.385,0.99-36.148-7.386-47.455-22.407
						c-11.429-15.177-14.567-34.852-8.399-52.632c16.588-47.837,24.621-98.368,23.875-150.186
						c-0.939-65.027-27.481-121.745-74.737-159.706c-49.828-40.023-116.551-53.986-187.885-39.312
						c-76.713,15.779-115.229,58.379-134.03,91.336c-26.895,47.146-28.227,99.398-17.613,130.27
						c9.037,26.285,38.5,72.711,85.203,134.264c12.816,16.889,15.24,39.33,6.324,58.563c-8.592,18.539-25.639,30.247-45.6,31.32
						l-396.412,21.298l2.094,246.601c0.098,11.53,6.698,21.994,17.658,27.99c11.7,6.403,25.684,6.154,36.501-0.641
						c80.538-50.603,149.126-29.849,182.843-12.976c49.742,24.894,85.573,71.067,89.166,114.894
						c4.6,56.123-12.557,109.212-45.898,142.015c-29.421,28.95-70.094,41.775-117.592,37.105
						c-42.541-4.185-82.726-15.378-119.447-33.268c-11.514-5.613-24.67-5.016-35.173,1.615c-9.42,5.942-14.773,15.543-14.688,26.344
						L1880.152,2828.632z M940.914,2015.734l377.023,4.487c10.45,0.209,19.219,5.986,22.926,15.075
						c3.406,8.353,1.492,17.642-4.99,24.243c-19.661,20.017-42.276,55.422-38.369,110.406c3.193,44.941,22.151,79.28,54.82,99.302
						c39.453,24.181,94.724,24.246,151.646,0.17c51.326-21.712,85.792-62.498,92.189-109.103
						c6.609-48.131-16.101-95.642-63.943-133.781l-11.609-9.253l353.717,7.105l-19.504-329.63
						c-0.739-12.486-7.646-22.906-18.47-27.875c-9.943-4.561-21.146-3.28-29.97,3.44c-36.58,27.875-99.033,57.058-188.876,37.751
						c-59.833-12.855-103.179-42.433-128.834-87.912c-34.908-61.875-28.135-139.41-11.73-187.006
						c12.859-37.316,61.97-77.017,119.427-96.544c37.666-12.803,111.182-27.456,180.389,18.257
						c9.659,6.379,21.385,6.756,31.354,1.004c10.65-6.14,16.791-17.915,16.036-30.731l-21.889-439.223
						c-499.002,50.498-874.631,466.131-874.631,968.95C927.627,1908.575,932.097,1962.676,940.914,2015.734z"/>
				</g>
				<g>
					
						<linearGradient id="SVGID_00000060735807320392923140000001048403212895491242_" gradientUnits="userSpaceOnUse" x1="1369.2045" y1="2559.8164" x2="2253.7297" y2="1260.6686">
						<stop  offset="0" style="stop-color:#FE7062"/>
						<stop  offset="1" style="stop-color:#FF928E"/>
					</linearGradient>
					<path style="fill:url(#SVGID_00000060735807320392923140000001048403212895491242_);" d="M1930.367,2568.74
						c28.959,14.111,68.484,27.94,117.734,32.787c113.761,11.192,165.591-81.008,157.99-173.709
						c-6.544-79.845-132.13-181.124-264.326-98.073c-25.863,16.254-61.608-2.127-61.858-31.561l-2.281-268.705l-342.279-6.873
						c106.289,84.732,78.167,205.934-29.42,251.44c-108.001,45.679-205.74,4.553-213.437-103.742
						c-3.936-55.393,17.812-91.902,39.795-114.286c11.501-11.709,2.802-30.425-14.41-30.77l-381.222-4.539
						c77.348,453.27,466.218,800.29,938.509,812.828l-1.886-232.278C1873.054,2573.469,1903.842,2555.819,1930.367,2568.74z"/>
					<path style="fill:#FFFFFF;" d="M1875.166,2838.564c-0.046,0-0.088,0-0.134-0.002
						c-467.936-12.423-864.665-356.026-943.331-817.007c-0.252-1.471,0.164-2.976,1.132-4.109c0.968-1.135,2.421-1.827,3.88-1.762
						l381.224,4.538c10.45,0.209,19.219,5.986,22.926,15.075c3.406,8.353,1.492,17.642-4.99,24.243
						c-19.661,20.017-42.276,55.422-38.369,110.406c3.193,44.941,22.151,79.28,54.82,99.302
						c39.453,24.181,94.724,24.246,151.646,0.17c51.326-21.712,85.792-62.498,92.189-109.103
						c6.609-48.131-16.101-95.642-63.943-133.781c-1.685-1.343-2.326-3.61-1.597-5.636c0.72-1.994,2.614-3.319,4.728-3.319
						c0.033,0,0.066,0,0.101,0.002l342.279,6.874c2.719,0.054,4.901,2.262,4.924,4.981l2.281,268.705
						c0.098,11.53,6.698,21.994,17.658,27.99c11.697,6.4,25.684,6.156,36.501-0.641c80.538-50.603,149.123-29.853,182.846-12.976
						c49.739,24.894,85.57,71.067,89.162,114.894c4.6,56.123-12.557,109.212-45.898,142.015
						c-29.421,28.95-70.094,41.775-117.592,37.105c-42.541-4.185-82.726-15.378-119.447-33.268l0,0
						c-11.514-5.613-24.67-5.013-35.173,1.615c-9.42,5.942-14.773,15.543-14.688,26.344l1.888,232.28
						c0.01,1.363-0.533,2.671-1.505,3.627C1877.748,2838.048,1876.481,2838.564,1875.166,2838.564z M942.642,2025.807
						c79.935,451.588,468.557,787.939,927.456,802.555l-1.845-227.063c-0.115-14.146,7.13-27.202,19.376-34.927
						c13.47-8.494,30.272-9.295,44.939-2.15l0,0c35.641,17.367,74.678,28.235,116.024,32.303
						c44.436,4.363,82.331-7.476,109.559-34.267c31.243-30.738,47.292-80.842,42.93-134.03
						c-3.262-39.823-37.659-83.711-83.643-106.727c-31.835-15.929-96.625-35.485-173.001,12.499
						c-13.896,8.734-31.783,9.099-46.673,0.949c-14.2-7.769-22.756-21.498-22.884-36.722l-2.238-263.822l-323.236-6.492
						c43.215,38.798,63.288,85.858,56.712,133.768c-6.887,50.153-43.608,93.889-98.235,116.993
						c-59.941,25.356-118.557,25.043-160.81-0.855c-35.045-21.48-56.211-59.537-59.594-107.159
						c-4.172-58.722,20.112-96.67,41.223-118.164c3.681-3.746,4.748-8.757,2.853-13.403c-1.698-4.165-6.207-8.669-13.778-8.821
						L942.642,2025.807z"/>
				</g>
				<g>
					
						<linearGradient id="SVGID_00000007404988265016506790000017272017333859887490_" gradientUnits="userSpaceOnUse" x1="1468.505" y1="1461.23" x2="2880.6709" y2="1461.23">
						<stop  offset="0" style="stop-color:#FE7062"/>
						<stop  offset="1" style="stop-color:#FF928E"/>
					</linearGradient>
					<path style="fill:url(#SVGID_00000007404988265016506790000017272017333859887490_);" d="M1773.985,1359.062
						c-116.788-77.144-269.582,9.826-292.293,75.731c-26.921,78.109-26.327,233.304,136.871,268.368
						c85.858,18.443,146.44-7.622,184.773-36.835c22.774-17.353,54.753-1.415,56.503,28.137l20.839,352.164l398.306-21.402
						c39.544-2.126,60.133-49.415,35.54-81.826c-35.163-46.344-74.593-102.63-85.953-135.668
						c-21.735-63.227,6.323-197.505,155.384-228.163c150.425-30.941,266.668,66.161,268.659,203.868
						c0.893,61.952-10.91,113.724-24.153,151.905c-11.936,34.411,15.126,70.292,50.839,68.373l191.567-10.293
						c6.414-45.269,9.805-91.512,9.805-138.552c0-438.684-288.534-809.963-686.172-934.458c-0.393,0.101-0.795,0.23-1.169,0.264
						l-2.669-1.453c-91.356-28.188-188.413-43.388-289.025-43.388c-31.925,0-63.477,1.581-94.619,4.568l22.147,444.444
						C1830.99,1355.731,1798.765,1375.427,1773.985,1359.062z"/>
					<path style="fill:#FFFFFF;" d="M1880.673,2051.652c-2.644,0-4.855-2.06-5.012-4.729l-20.839-352.165
						c-0.739-12.486-7.646-22.906-18.47-27.875c-9.943-4.561-21.146-3.28-29.97,3.44c-36.58,27.875-99.033,57.058-188.876,37.751
						c-59.833-12.855-103.179-42.433-128.834-87.912c-34.908-61.875-28.135-139.41-11.73-187.006
						c12.859-37.316,61.97-77.017,119.427-96.544c37.666-12.803,111.182-27.454,180.389,18.257l0,0
						c9.659,6.379,21.385,6.756,31.354,1.004c10.65-6.14,16.791-17.915,16.036-30.731l-22.151-444.491
						c-0.134-2.683,1.865-4.996,4.538-5.253c31.773-3.046,63.769-4.59,95.101-4.59c98.978,0,196.719,14.673,290.508,43.613
						c0.317,0.098,0.628,0.227,0.919,0.388l1.083,0.589c0.625-0.041,1.253,0.028,1.855,0.216
						c98.785,30.929,191.775,77.205,276.383,137.545c83.512,59.555,156.972,131.438,218.343,213.654
						c127.548,170.869,194.969,374.216,194.969,588.056c0,46.255-3.314,93.106-9.852,139.256c-0.337,2.377-2.31,4.185-4.708,4.314
						l-191.569,10.293c-18.385,0.99-36.148-7.386-47.455-22.407c-11.426-15.177-14.567-34.852-8.399-52.632
						c16.588-47.837,24.621-98.368,23.875-150.186c-0.939-65.027-27.481-121.745-74.737-159.706
						c-49.828-40.023-116.551-53.986-187.885-39.312c-76.713,15.779-115.229,58.379-134.03,91.336
						c-26.895,47.146-28.227,99.398-17.613,130.27c9.037,26.283,38.5,72.711,85.203,134.264
						c12.816,16.889,15.237,39.33,6.324,58.563c-8.592,18.539-25.639,30.247-45.6,31.32l-398.307,21.401
						C1880.853,2051.65,1880.764,2051.652,1880.673,2051.652z M1824.141,1654.111c5.526,0,11.095,1.201,16.402,3.637
						c14.046,6.447,23.361,20.4,24.31,36.416l20.544,347.175l393.317-21.133c16.179-0.869,30.016-10.405,37.018-25.508
						c7.345-15.851,5.346-34.343-5.216-48.262c-48.015-63.283-77.187-109.401-86.702-137.071
						c-11.347-33.012-10.061-88.645,18.388-138.519c19.831-34.761,60.344-79.667,140.74-96.202
						c74.311-15.283,143.999-0.612,196.202,41.321c49.631,39.87,77.508,99.32,78.492,167.398
						c0.762,52.991-7.457,104.677-24.431,153.625c-5.068,14.611-2.477,30.793,6.933,43.292c9.292,12.342,23.81,19.247,38.89,18.414
						l187.433-10.071c6.093-44.359,9.181-89.337,9.181-133.755c0-427.78-273.739-801.043-681.348-929.255
						c-0.173,0.028-0.34,0.051-0.504,0.065c-0.988,0.093-1.989-0.115-2.863-0.591l-2.228-1.212
						c-92.683-28.545-189.259-43.017-287.066-43.017c-29.441,0-59.48,1.378-89.362,4.098l21.908,439.639
						c0.982,16.593-7.083,31.932-21.048,39.984c-13.346,7.694-29.012,7.202-41.919-1.325l0,0
						c-65.618-43.343-135.692-29.333-171.611-17.127c-53.845,18.298-101.435,56.276-113.161,90.302
						c-15.725,45.625-22.285,119.826,10.981,178.794c24.182,42.865,65.294,70.799,122.195,83.024
						c86.087,18.494,145.772-9.325,180.67-35.92C1807.425,1656.892,1815.735,1654.111,1824.141,1654.111z"/>
				</g>
			</g>
			<g>
				
					<linearGradient id="SVGID_00000021119697076399580350000005488602020297676202_" gradientUnits="userSpaceOnUse" x1="2659.812" y1="468.2087" x2="2988.1541" y2="1212.0021">
					<stop  offset="0" style="stop-color:#4F52FF"/>
					<stop  offset="1" style="stop-color:#4042E2"/>
				</linearGradient>
				<path style="fill:url(#SVGID_00000021119697076399580350000005488602020297676202_);" d="M2830.034,1383.579
					c0,0-153.098-447.151-43.451-533.816c0,0,164.333-26.512,283.824,18.803v440.565
					C3070.408,1309.13,2959.604,1411.993,2830.034,1383.579z"/>
				
					<linearGradient id="SVGID_00000093166892295451300630000000439240932498486199_" gradientUnits="userSpaceOnUse" x1="2819.1279" y1="781.5934" x2="2968.4006" y2="781.5934">
					<stop  offset="0" style="stop-color:#FEBBBA"/>
					<stop  offset="1" style="stop-color:#FF928E"/>
				</linearGradient>
				<path style="fill:url(#SVGID_00000093166892295451300630000000439240932498486199_);" d="M2819.128,769.095
					c0,0,21.347,51.85,26.786,92.616c1.597,11.966,10.852,21.385,22.76,23.364c25.515,4.239,67.807,6.603,93.542-16.877
					c5.71-5.209,7.649-13.396,5.049-20.674c-10.599-29.67-65.702-153.206-95.724-172.147L2819.128,769.095z"/>
				<g>
					
						<linearGradient id="SVGID_00000178926360783278918410000011913922144745344394_" gradientUnits="userSpaceOnUse" x1="3021.6233" y1="1076.3132" x2="2772.8623" y2="1299.1614">
						<stop  offset="0" style="stop-color:#FEBBBA"/>
						<stop  offset="1" style="stop-color:#FF928E"/>
					</linearGradient>
					<path style="fill:url(#SVGID_00000178926360783278918410000011913922144745344394_);" d="M2890.186,1176.436
						c17.075-18.612-45.949,54.118-46.056,54.31c-28.968,51.83-93.697,70.465-93.697,70.465s-24.957-41.489-56.979-42.842
						c-23.324-0.986-53.232,26.417-67.761,41.379c-4.521,4.655-3.298,12.332,2.418,15.403l59.947,32.204
						c0,0,181.228,10.182,274.102-86.38C2945.741,1200.84,2913.844,1178.599,2890.186,1176.436z"/>
					
						<linearGradient id="SVGID_00000164513518708488753990000017529576025610440076_" gradientUnits="userSpaceOnUse" x1="3018.593" y1="740.0795" x2="3206.2161" y2="-794.4092">
						<stop  offset="0" style="stop-color:#4F52FF"/>
						<stop  offset="1" style="stop-color:#4042E2"/>
					</linearGradient>
					<path style="fill:url(#SVGID_00000164513518708488753990000017529576025610440076_);" d="M3070.408,868.566
						c-88.047,31.22-91.801,188.899-91.801,188.899s-68.069,83.128-134.85,161.58c-2.343,2.752-0.679,6.968,2.904,7.438
						c24.252,3.178,63.021,13.524,79.559,60.048c1.2,3.376,5.26,4.315,8.028,2.038c0.357-0.294,0.735-0.564,1.141-0.803
						C3192.828,1135.947,3070.408,868.566,3070.408,868.566z"/>
				</g>
				<g>
					
						<linearGradient id="SVGID_00000169532275457942985420000006846849455629281418_" gradientUnits="userSpaceOnUse" x1="9718.7627" y1="639.5107" x2="9522.9668" y2="898.5331" gradientTransform="matrix(-1 0 0 1 12480.0488 0)">
						<stop  offset="0" style="stop-color:#FEBBBA"/>
						<stop  offset="1" style="stop-color:#FF928E"/>
					</linearGradient>
					<path style="fill:url(#SVGID_00000169532275457942985420000006846849455629281418_);" d="M2722.862,638.379
						c0,2.581,57.657,163.218,57.657,163.218l91.022-34.87l-32.027-160.37C2839.514,606.357,2722.862,595.164,2722.862,638.379z"/>
					
						<linearGradient id="SVGID_00000011717661166000205670000012204172658854618299_" gradientUnits="userSpaceOnUse" x1="2824.9871" y1="504.1473" x2="2716.2314" y2="1037.7302">
						<stop  offset="0" style="stop-color:#09005D"/>
						<stop  offset="1" style="stop-color:#1A0F91"/>
					</linearGradient>
					<path style="fill:url(#SVGID_00000011717661166000205670000012204172658854618299_);" d="M2823.548,645.426l23.47,83.101
						c0.301,1.066,0.455,2.139,0.457,3.247c0.009,6.778-1.669,30.1-25.426,26.928c-21.555-2.878-41.271-5.184-53.808,0.72
						c-5.629,2.651-8.322,9.129-6.218,14.984c5.242,14.594,17.663,47.261,32.785,73.995c3.069,5.425,9.799,7.535,15.473,4.954
						c17.095-7.777,52.69-25.19,78.045-45.905c3.435-2.808,5.086-7.222,4.268-11.583c-3.989-21.258-15.871-85.914-16.396-104.443
						c-0.492-17.392,19.023-30.669,27.615-35.66c2.817-1.636,4.821-4.33,5.584-7.497c2.697-11.195,4.985-36.529-27.33-42.112
						c-6.763-1.168-11.174-7.643-9.8-14.367c2.735-13.388,1.86-33.09-23.563-40.346c-25.841-7.375-42.101,8.179-50.371,20.107
						c-3.344,4.823-9.601,6.387-14.959,3.993c-3.05-1.363-6.735-1.423-10.695,1.916c-5.336,4.499-13.459,3.13-17.381-2.644
						c-7.535-11.091-21.224-22.162-44.398-14.664c-41.123,13.305-39.156,60.718-24.082,86.493
						c15.074,25.776,58.838,8.816,79.556-8.265c15.752-12.987,39.737-5.218,50.33-0.748
						C2820.058,639.047,2822.558,641.922,2823.548,645.426z"/>
					
						<linearGradient id="SVGID_00000116218893281995970770000017086507240031640496_" gradientUnits="userSpaceOnUse" x1="9439.9043" y1="841.7647" x2="9592.2148" y2="685.4976" gradientTransform="matrix(-1 0 0 1 12480.0488 0)">
						<stop  offset="0" style="stop-color:#FEBBBA"/>
						<stop  offset="1" style="stop-color:#FF928E"/>
					</linearGradient>
					<path style="fill:url(#SVGID_00000116218893281995970770000017086507240031640496_);" d="M2879.848,722.356
						c0,0-19.744-46.627-3.651-61.084c16.093-14.457,38.547-9.494,37.813,26.508C2913.099,732.56,2879.848,722.356,2879.848,722.356
						z"/>
				</g>
			</g>
			<g>
				
					<linearGradient id="SVGID_00000164494521120308059940000010384588614607689868_" gradientUnits="userSpaceOnUse" x1="2783.4678" y1="2348.7468" x2="2999.5591" y2="2926.666">
					<stop  offset="0" style="stop-color:#09005D"/>
					<stop  offset="1" style="stop-color:#1A0F91"/>
				</linearGradient>
				<path style="fill:url(#SVGID_00000164494521120308059940000010384588614607689868_);" d="M2725.182,2477.434
					c0,0-29.517-116.192,105.369-89.174c0,0,64.72-12.541,69.833,48.743c0,0,42.732,26.389,13.604,80.413
					c0,0,123.166-51.787,180.661,55.813c57.495,107.6,9.369,169.154-42.477,186.343c0,0,43.004,20.031,24.359,68.666
					s-119.232,85.491-180.959,28.832c0,0-170.084,27.59-170.217-93.118c0,0-80.927-48.948-0.447-151.076
					C2805.388,2510.747,2725.182,2477.434,2725.182,2477.434z"/>
				
					<linearGradient id="SVGID_00000144305950492833030560000006191007681387179155_" gradientUnits="userSpaceOnUse" x1="3013.147" y1="2777.5776" x2="3696.6301" y2="2107.4968">
					<stop  offset="0" style="stop-color:#FF928E"/>
					<stop  offset="1" style="stop-color:#FE7062"/>
				</linearGradient>
				<path style="fill:url(#SVGID_00000144305950492833030560000006191007681387179155_);" d="M2725.804,2748.754
					c26.684-8.864,104.632-26.073,181.218,40.54c12.989,11.298,18.679,28.877,14.657,45.616
					c-17.856,74.317-65.786,270.27-16.682,363.155c0,0-91.268,57.413-175.74,27.441c0,0-38.045-154.526-92.64-229.447
					c-37.692-51.725,51.79-199.927,74.479-235.762C2714.531,2754.87,2719.709,2750.779,2725.804,2748.754z"/>
				
					<linearGradient id="SVGID_00000064349569924848657870000014983715509990475451_" gradientUnits="userSpaceOnUse" x1="2960.5437" y1="1827.1947" x2="2652.3064" y2="3415.2913">
					<stop  offset="0" style="stop-color:#C4421B"/>
					<stop  offset="1" style="stop-color:#5C0E16"/>
				</linearGradient>
				<path style="fill:url(#SVGID_00000064349569924848657870000014983715509990475451_);" d="M2795.826,2600.089
					c0,0,43.131,111.449,47.589,161.044c0,0-43.417,21.305-85.875-11.248c0,0-7.661-112.361-14.542-132.319L2795.826,2600.089z"/>
				
					<linearGradient id="SVGID_00000116954316675899049360000002671328055731070625_" gradientUnits="userSpaceOnUse" x1="3077.0017" y1="1848.1875" x2="3217.7178" y2="1501.9821" gradientTransform="matrix(0.968 0.251 -0.251 0.968 200.5005 42.9407)">
					<stop  offset="0" style="stop-color:#C4421B"/>
					<stop  offset="1" style="stop-color:#5C0E16"/>
				</linearGradient>
				<path style="fill:url(#SVGID_00000116954316675899049360000002671328055731070625_);" d="M2736.002,2448.161
					c0,0-99.85,148.803-36.353,189.302c63.497,40.499,134.583-65.252,134.583-65.252s21.817-80.479-4.247-106.795
					S2736.002,2448.161,2736.002,2448.161z"/>
				
					<linearGradient id="SVGID_00000089565907684509060250000004817270213376954785_" gradientUnits="userSpaceOnUse" x1="2763.425" y1="2356.2412" x2="2979.5156" y2="2934.1584">
					<stop  offset="0" style="stop-color:#09005D"/>
					<stop  offset="1" style="stop-color:#1A0F91"/>
				</linearGradient>
				<path style="fill:url(#SVGID_00000089565907684509060250000004817270213376954785_);" d="M2783.179,2411.915
					c0,0-47.507,12.744-53.575,34.588s69.071,39.722,89.988,40.089l19.402,86.854c0,0,47.335-83.635,26.229-130.512
					C2844.118,2396.057,2783.179,2411.915,2783.179,2411.915z"/>
				
					<linearGradient id="SVGID_00000108311186722177800810000016285593208684187544_" gradientUnits="userSpaceOnUse" x1="3149.4739" y1="1877.6431" x2="3290.1902" y2="1531.4371" gradientTransform="matrix(0.968 0.251 -0.251 0.968 200.5005 42.9407)">
					<stop  offset="0" style="stop-color:#C4421B"/>
					<stop  offset="1" style="stop-color:#5C0E16"/>
				</linearGradient>
				<path style="fill:url(#SVGID_00000108311186722177800810000016285593208684187544_);" d="M2813.728,2562.081
					c0,0,39.153-48.136,56.176-18.007c17.023,30.129-34.907,54.654-53.561,40.164L2813.728,2562.081z"/>
				
					<linearGradient id="SVGID_00000112614261029723466120000005704119256245523100_" gradientUnits="userSpaceOnUse" x1="3333.655" y1="1067.426" x2="3953.2051" y2="242.6048" gradientTransform="matrix(0.8749 0.4843 -0.4843 0.8749 392.7783 133.0192)">
					<stop  offset="0" style="stop-color:#C4421B"/>
					<stop  offset="1" style="stop-color:#5C0E16"/>
				</linearGradient>
				<path style="fill:url(#SVGID_00000112614261029723466120000005704119256245523100_);" d="M2310.009,2600.271
					c0,0,17.672,23.349,27.603,22.931c25.74-1.083,72.806,1.305,91.906,19.846c26.47,25.693,40.819,104.984,66.901,169.7
					c26.081,64.716,136.302,138.372,205.109,110.53c68.807-27.842,106.354-151.388,171.752-155.298s62.473,112.331,7.39,151.77
					c-35.727,25.58-210.041,163.557-343.116,67.443s-133.875-289.144-133.875-289.144s-43.383-17.599-65.563-31.746
					C2315.938,2652.156,2310.009,2600.271,2310.009,2600.271z"/>
			</g>
			<g>
				
					<linearGradient id="SVGID_00000088096335446029204040000007963626673348546972_" gradientUnits="userSpaceOnUse" x1="1492.4771" y1="975.463" x2="578.9301" y2="1180.9561">
					<stop  offset="0" style="stop-color:#FEBBBA"/>
					<stop  offset="1" style="stop-color:#FF928E"/>
				</linearGradient>
				<path style="fill:url(#SVGID_00000088096335446029204040000007963626673348546972_);" d="M686.671,988.304
					c0,0-2.303,49.525,36.918,228.042c41.447,188.65,371.701,96.392,371.701,96.392l-7.216-46.189c0,0-226.941,2.558-257.263-42.878
					c-22.24-33.326-23.209-117.891-20.507-159.875c1.342-20.857-50.926-171.085-103.424-159.978
					C692.19,920.528,685.909,949.345,686.671,988.304z"/>
				<g>
					
						<linearGradient id="SVGID_00000155135249379394881870000003921870850619052417_" gradientUnits="userSpaceOnUse" x1="1021.0667" y1="1378.6498" x2="1664.3466" y2="735.3699">
						<stop  offset="0" style="stop-color:#FEBBBA"/>
						<stop  offset="1" style="stop-color:#FF928E"/>
					</linearGradient>
					<path style="fill:url(#SVGID_00000155135249379394881870000003921870850619052417_);" d="M1086.252,1329.01
						c0,0-11.476-47.188-6.847-63.93s13.598-38.266,43.493-33.483c29.896,4.783,65.16,17.377,65.16,17.377
						s-1.781,21.807-24.502,14.771l14.089,10.902c0,0-2.013,17.461-21.205,8.132l13.104,14.458c0,0-8.242,14.34-22.362,5.142
						C1133.064,1293.182,1126.295,1334.692,1086.252,1329.01z"/>
				</g>
			</g>
			<g>
				
					<linearGradient id="SVGID_00000173150958734984973840000010361018046403741070_" gradientUnits="userSpaceOnUse" x1="1184.639" y1="3235.7998" x2="988.6617" y2="4135.2896" gradientTransform="matrix(0.9899 0.1417 -0.1417 0.9899 108.5405 81.6795)">
					<stop  offset="0" style="stop-color:#4F52FF"/>
					<stop  offset="1" style="stop-color:#4042E2"/>
				</linearGradient>
				<path style="fill:url(#SVGID_00000173150958734984973840000010361018046403741070_);" d="M1445.142,2749.138
					c0,0-363.98,53.48-511.823-112.542c-151.972-115.622-254.299,30.225-103.718,124.062c0,0,279.433,257.056,609.164,25.426
					L1445.142,2749.138z"/>
				
					<linearGradient id="SVGID_00000013194803374464045440000011989059387971175354_" gradientUnits="userSpaceOnUse" x1="1722.1223" y1="2398.6167" x2="2050.3704" y2="1800.8585" gradientTransform="matrix(0.9899 0.1417 -0.1417 0.9899 108.5405 81.6795)">
					<stop  offset="0" style="stop-color:#FEBBBA"/>
					<stop  offset="1" style="stop-color:#FF928E"/>
				</linearGradient>
				<path style="fill:url(#SVGID_00000013194803374464045440000011989059387971175354_);" d="M1438.765,2786.084
					c0,0,46.016-7.212,37.984-50.634c-8.459-45.729,48.305-55.983,23.944-92.385c-1.789-2.674-5.162-3.816-8.144-2.608
					c-18.347,7.435-81.888,39.306-71.025,120.763L1438.765,2786.084z"/>
			</g>
			<g>
				
					<linearGradient id="SVGID_00000166637558722339570110000015246030969812775559_" gradientUnits="userSpaceOnUse" x1="194.1903" y1="2809.8728" x2="53.1857" y2="2647.6714" gradientTransform="matrix(0.9047 -0.4261 0.4261 0.9047 -363.9512 -113.9155)">
					<stop  offset="0" style="stop-color:#FEBBBA"/>
					<stop  offset="1" style="stop-color:#FF928E"/>
				</linearGradient>
				<path style="fill:url(#SVGID_00000166637558722339570110000015246030969812775559_);" d="M974.071,2231.549
					c0,0,84.061,136.142,31.317,183.138s-145.486-79.701-145.486-79.701S834.814,2180.998,974.071,2231.549z"/>
				
					<linearGradient id="SVGID_00000096771199112998497330000001084960796233096614_" gradientUnits="userSpaceOnUse" x1="14.2504" y1="2682.0239" x2="264.429" y2="2682.0239" gradientTransform="matrix(0.9047 -0.4261 0.4261 0.9047 -363.9512 -113.9155)">
					<stop  offset="0" style="stop-color:#09005D"/>
					<stop  offset="1" style="stop-color:#1A0F91"/>
				</linearGradient>
				<path style="fill:url(#SVGID_00000096771199112998497330000001084960796233096614_);" d="M891.656,2364.098
					c-0.975,3.634-24.362,37.636-57.563,13.57s-25.309-53.194,2.983-68.329c0,0-22.895-3.221-16.897-24.017
					c5.998-20.796,25.196-15.082,25.196-15.082s-41.039-113.177,62.058-126.541c103.097-13.364,106.786,47.239,105.828,66.239
					c-0.958,19-37.601,59.466-99.564,53.593c0,0,18.61,10.069,10.676,32.413c-7.934,22.344-44.557,44.348-44.557,44.348
					L891.656,2364.098z"/>
				
					<linearGradient id="SVGID_00000008139531087144012210000007251071659089406103_" gradientUnits="userSpaceOnUse" x1="151.4891" y1="2846.991" x2="10.4839" y2="2684.7888" gradientTransform="matrix(0.9047 -0.4261 0.4261 0.9047 -363.9512 -113.9155)">
					<stop  offset="0" style="stop-color:#FEBBBA"/>
					<stop  offset="1" style="stop-color:#FF928E"/>
				</linearGradient>
				<path style="fill:url(#SVGID_00000008139531087144012210000007251071659089406103_);" d="M913.058,2358.081
					c0,0-26.21-41.968-43.864-18.005c-22.748,30.877,37.03,36.86,37.03,36.86L913.058,2358.081z"/>
			</g>
		</g>
	</g>
</g>
</svg>
