<svg xmlns="http://www.w3.org/2000/svg" xml:space="preserve" viewBox="0 0 3710 3710"><path d="M0 0h3710v3710H0z" style="fill:#fff"/><linearGradient id="a" x1="3600.369" x2="1125.926" y1="4068.345" y2="995.241" gradientUnits="userSpaceOnUse"><stop offset="0" style="stop-color:#dae3fe"/><stop offset="1" style="stop-color:#e9effd"/></linearGradient><path d="M2919.635 2856.424c-56.837 59.836-110.615 98.423-153.105 128.91-499.455 358.365-1090.443 253.903-1216.045 228.392-185.474-37.671-543.992-110.488-803.193-415.303-392.151-461.161-331.087-1187.707-26.908-1667.311 55.639-87.728 349.54-574.636 946.894-652.721 361.512-47.256 782.918 48.054 1088.089 303.727 640.58 536.679 594.977 1620.868 164.268 2074.306" style="fill:url(#a)"/><g style="opacity:.3"><path d="M2053.354 908.362a8.517 8.517 0 0 1 10.926 5.075 325 325 0 0 0 10.578 25.488 8.517 8.517 0 0 1-3.976 11.246l-.149.073a8.52 8.52 0 0 1-11.318-4.127 342 342 0 0 1-11.134-26.831c-1.512-4.131.381-8.679 4.248-10.571a8 8 0 0 1 .825-.353m43.169 69.807a326 326 0 0 0 15.917 22.532 8.52 8.52 0 0 1-1.534 11.948c-3.747 2.874-9.074 2.187-11.949-1.537a343 343 0 0 1-16.752-23.708 8.52 8.52 0 0 1 3.425-12.273c3.824-1.871 8.529-.628 10.893 3.038m45.705 55.999a322 322 0 0 0 20.541 18.407 8.52 8.52 0 0 1 1.176 11.989c-2.987 3.628-8.352 4.159-11.989 1.175a339 339 0 0 1-21.631-19.385c-3.365-3.287-3.427-8.68-.142-12.047a8.5 8.5 0 0 1 2.349-1.701 8.52 8.52 0 0 1 9.696 1.562m57.081 44.369a324 324 0 0 0 24.147 13.361 8.52 8.52 0 0 1 3.822 11.425 8.53 8.53 0 0 1-11.425 3.822 342 342 0 0 1-25.421-14.064 8.52 8.52 0 0 1-2.831-11.709 8.47 8.47 0 0 1 3.519-3.21 8.51 8.51 0 0 1 8.189.375m65.543 30.548c8.671 2.915 17.59 5.5 26.509 7.679a8.52 8.52 0 0 1 6.251 10.299 8.51 8.51 0 0 1-10.298 6.249 344 344 0 0 1-27.891-8.081 8.516 8.516 0 0 1-5.359-10.788 8.5 8.5 0 0 1 4.33-4.937 8.5 8.5 0 0 1 6.458-.421m70.669 15.284c9.114.927 18.38 1.473 27.544 1.624 4.703.077 8.455 3.954 8.377 8.655a8.517 8.517 0 0 1-8.656 8.379 343 343 0 0 1-28.989-1.709 8.52 8.52 0 0 1 1.724-16.949m293.862-117.043a8.52 8.52 0 0 1 1.156 11.991 339 339 0 0 1-19.433 21.604 8.515 8.515 0 0 1-12.045.118c-3.358-3.291-3.411-8.684-.118-12.043a321 321 0 0 0 18.45-20.516 8.5 8.5 0 0 1 2.824-2.234 8.52 8.52 0 0 1 9.166 1.08m-221.608 116.282a322 322 0 0 0 27.193-4.553 8.52 8.52 0 0 1 10.101 6.568c.976 4.604-1.972 9.103-6.568 10.099a339 339 0 0 1-28.637 4.793 8.519 8.519 0 0 1-2.089-16.907m169.579-63.324a8.52 8.52 0 0 1-1.559 11.946 345 345 0 0 1-23.755 16.713c-3.951 2.562-9.228 1.392-11.771-2.565-2.541-3.957-1.393-9.227 2.565-11.771a327 327 0 0 0 22.575-15.884 8.6 8.6 0 0 1 1.457-.902c3.564-1.743 7.978-.802 10.488 2.463m-99.32 46.438a325 325 0 0 0 25.502-10.519 8.515 8.515 0 0 1 11.31 4.146 8.517 8.517 0 0 1-3.983 11.231q-.081.04-.164.077a341 341 0 0 1-26.843 11.079c-4.423 1.604-9.31-.676-10.917-5.098-1.501-4.129.392-8.667 4.254-10.556q.407-.2.841-.36M2653.927 956.838a8.47 8.47 0 0 0-3.691 3.502 331 331 0 0 1-6.693 11.464 8.52 8.52 0 0 0 2.822 11.71c4.013 2.456 9.262 1.196 11.711-2.825a344 344 0 0 0 7.044-12.058c2.289-4.109.813-9.299-3.295-11.586a8.51 8.51 0 0 0-7.898-.207" style="fill:#bdd0fb"/></g><g style="opacity:.3"><path d="M2681.665 698.628a8.52 8.52 0 0 0-4.396 10.133 323 323 0 0 1 3.611 12.772 8.52 8.52 0 0 0 10.39 6.096 8.51 8.51 0 0 0 6.096-10.391 345 345 0 0 0-3.801-13.449 8.52 8.52 0 0 0-11.9-5.161M2234.032 490.03a8.52 8.52 0 0 1 11.191 4.464c1.857 4.322-.141 9.322-4.464 11.188a329 329 0 0 0-24.484 11.759c-4.126 2.211-9.312.629-11.52-3.525s-.63-9.311 3.523-11.521a352 352 0 0 1 10.513-5.365 344 344 0 0 1 15.241-7m-53.281 38.818a8.515 8.515 0 0 1-1.934 11.887 326 326 0 0 0-21.351 16.782c-3.559 3.067-8.95 2.645-12.011-.929a8.52 8.52 0 0 1 .93-12.008 342 342 0 0 1 22.475-17.665q.602-.432 1.244-.746a8.52 8.52 0 0 1 10.647 2.679m97.081-54.184a339 339 0 0 1 27.85-6.419 8.52 8.52 0 0 1 9.936 6.815c.861 4.624-2.19 9.065-6.814 9.934a321 321 0 0 0-26.446 6.095 8.52 8.52 0 0 1-10.476-5.951c-1.105-4.012.854-8.144 4.461-9.909.47-.229.967-.421 1.489-.565m-152.535 101.743a8.517 8.517 0 0 1 .726 12.024 323 323 0 0 0-17.129 21.059 8.51 8.51 0 0 1-11.92 1.738 8.516 8.516 0 0 1-1.739-11.917 340 340 0 0 1 18.038-22.177 8.5 8.5 0 0 1 2.627-2.004 8.52 8.52 0 0 1 9.397 1.277m226.46-113.507a340 340 0 0 1 28.571-.138 8.516 8.516 0 0 1 8.195 8.825 8.516 8.516 0 0 1-8.828 8.197 323 323 0 0 0-27.136.133 8.52 8.52 0 0 1-.802-17.017m74.712 4.734a344 344 0 0 1 27.914 6.095 8.52 8.52 0 0 1 6.076 10.403c-1.197 4.557-5.854 7.275-10.403 6.074a328 328 0 0 0-26.525-5.793 8.519 8.519 0 0 1-2.269-16.044 8.5 8.5 0 0 1 5.207-.735m71.909 20.904a344 344 0 0 1 25.922 12.029 8.52 8.52 0 0 1 3.665 11.475 8.515 8.515 0 0 1-11.475 3.665 326 326 0 0 0-24.633-11.43 8.52 8.52 0 0 1-4.609-11.129 8.48 8.48 0 0 1 4.123-4.391 8.5 8.5 0 0 1 7.007-.219m65.634 36.092a339 339 0 0 1 22.665 17.427 8.517 8.517 0 1 1-10.947 13.052 322 322 0 0 0-21.524-16.548 8.515 8.515 0 0 1-2.063-11.866 8.518 8.518 0 0 1 11.869-2.065m56.13 49.659a340 340 0 0 1 18.255 21.977 8.52 8.52 0 0 1-1.614 11.939c-3.731 2.84-9.086 2.129-11.937-1.614a323 323 0 0 0-17.339-20.877 8.516 8.516 0 0 1 .603-12.029 8.5 8.5 0 0 1 1.973-1.34 8.53 8.53 0 0 1 10.059 1.944m43.809 60.707a346 346 0 0 1 13.054 25.414c1.973 4.268.206 9.389-4.156 11.304-4.268 1.977-9.331.116-11.307-4.155a329.47 329.47 0 0 0-12.408-24.16 8.516 8.516 0 0 1 3.673-11.857c4.013-1.962 8.912-.484 11.144 3.454M2073.714 635.004a8.5 8.5 0 0 0-3.714 3.539 338 338 0 0 0-6.481 12.375 8.517 8.517 0 0 0 3.828 11.422c4.212 2.095 9.324.388 11.422-3.828a325 325 0 0 1 6.156-11.753 8.515 8.515 0 0 0-3.353-11.568 8.51 8.51 0 0 0-7.858-.187" style="fill:#bdd0fb"/></g><path d="M2107.175 767.363a4.25 4.25 0 0 0 1.876 4.564l43.783 27.545c.014 24.157 3.881 48.485 11.837 72.037l-32.618 40.104a4.25 4.25 0 0 0-.312 4.925l32.743 52.703a4.25 4.25 0 0 0 4.553 1.902l50.405-11.476c17.589 17.568 37.687 31.813 59.337 42.527l5.296 51.455a4.25 4.25 0 0 0 3.261 3.703l60.42 14.115a4.25 4.25 0 0 0 4.564-1.876l27.544-43.783c24.157-.013 48.485-3.879 72.037-11.837l40.104 32.618a4.25 4.25 0 0 0 4.924.313l52.704-32.743a4.25 4.25 0 0 0 1.901-4.553l-11.476-50.405c17.568-17.589 31.813-37.687 42.527-59.338l51.456-5.296a4.25 4.25 0 0 0 3.703-3.261l14.115-60.419a4.25 4.25 0 0 0-1.875-4.563l-43.785-27.545c-.013-24.157-3.88-48.484-11.837-72.037l32.618-40.104a4.25 4.25 0 0 0 .313-4.924l-32.743-52.704a4.25 4.25 0 0 0-4.553-1.901l-50.405 11.475c-17.589-17.568-37.687-31.813-59.338-42.528l-5.296-51.455a4.25 4.25 0 0 0-3.261-3.704l-60.419-14.114a4.25 4.25 0 0 0-4.564 1.875l-27.545 43.784c-24.157.013-48.485 3.88-72.037 11.837l-40.104-32.618a4.25 4.25 0 0 0-4.924-.313l-52.703 32.743a4.25 4.25 0 0 0-1.901 4.553l11.475 50.404c-17.568 17.589-31.812 37.688-42.527 59.338l-51.455 5.296a4.25 4.25 0 0 0-3.703 3.261z" style="fill:#bdd0fb"/><linearGradient id="b" x1="2317.144" x2="2441.917" y1="799.124" y2="799.124" gradientUnits="userSpaceOnUse"><stop offset="0" style="stop-color:#dae3fe"/><stop offset="1" style="stop-color:#e9effd"/></linearGradient><path d="M2360.573 739.704c32.765-10.444 67.918 7.71 78.365 40.477 5.062 15.872 3.638 32.765-4.008 47.565-7.643 14.799-20.593 25.741-36.468 30.798-32.765 10.445-67.918-7.71-78.366-40.477-9.503-29.809 4.667-61.594 31.976-74.953a63 63 0 0 1 8.501-3.41m61.43 81.365c5.862-11.349 6.953-24.3 3.073-36.471-8.009-25.118-34.964-39.043-60.084-31.033-25.131 8.003-39.043 34.964-31.034 60.086 8.009 25.118 34.964 39.043 60.084 31.033a48.5 48.5 0 0 0 6.582-2.643c9.159-4.48 16.614-11.749 21.379-20.972" style="fill:url(#b)"/><linearGradient id="c" x1="2227.418" x2="2534.184" y1="799.479" y2="799.479" gradientUnits="userSpaceOnUse"><stop offset="0" style="stop-color:#dae3fe"/><stop offset="1" style="stop-color:#e9effd"/></linearGradient><path d="M2313.635 661.637a156 156 0 0 0-13.788 7.631 154.7 154.7 0 0 0-23.49 17.909l-.245.226q-.346.323-.69.65-.671.633-1.334 1.273a3.64 3.64 0 0 0-.088 5.144 3.64 3.64 0 0 0 5.142.087 147 147 0 0 1 24.544-19.109c43.965-27.324 96.942-28.375 140.474-7.486 24.214 11.616 45.505 30.023 60.697 54.479a148 148 0 0 1 7.281 13.153c14.725 30.109 18.614 64.084 10.886 97.162-8.875 37.996-32.017 70.263-65.159 90.853-68.453 42.518-158.667 21.423-201.17-46.993a146 146 0 0 1-7.185-12.987c-9.392-19.207-14.477-40.255-14.815-61.652a3.635 3.635 0 0 0-3.694-3.578 3.635 3.635 0 0 0-3.579 3.696c.356 22.464 5.692 44.564 15.552 64.728a154 154 0 0 0 7.54 13.631c44.625 71.831 139.385 93.945 211.19 49.336 34.795-21.616 59.087-55.489 68.404-95.378 8.114-34.726 4.03-70.393-11.427-102.002a157 157 0 0 0-7.642-13.807c-21.619-34.796-55.491-59.09-95.379-68.408-34.736-8.113-70.411-4.023-102.025 11.442" style="fill:url(#c)"/><g style="opacity:.3"><path d="M1692.778 834.805a5.26 5.26 0 0 0-2.871 5.614 225 225 0 0 0 2.666 13.195 5.26 5.26 0 0 0 6.319 3.927c2.836-.65 4.587-3.491 3.927-6.319a216 216 0 0 1-2.542-12.581 5.265 5.265 0 0 0-6.073-4.299 5.3 5.3 0 0 0-1.426.463M1703.731 873.687a5.26 5.26 0 0 1 6.755 3.118c2.539 6.88 5.46 13.71 8.681 20.295a216 216 0 0 0 2.092 4.159 5.265 5.265 0 0 1-2.267 7.086c-2.492 1.162-5.754.315-7.09-2.269a228.51 228.51 0 0 1-11.287-25.633 5.26 5.26 0 0 1 3.116-6.756m31.194 50.532a218 218 0 0 0 16.36 21.115 5.26 5.26 0 0 1-.48 7.424c-2.174 1.905-5.507 1.705-7.425-.48a228 228 0 0 1-17.151-22.135 5.265 5.265 0 0 1 1.387-7.313 5.261 5.261 0 0 1 7.309 1.389m35.214 40.049a216 216 0 0 0 21.054 16.451 5.26 5.26 0 0 1 1.361 7.313 5.25 5.25 0 0 1-7.314 1.364 227 227 0 0 1-22.081-17.253 5.263 5.263 0 0 1 1.176-8.663 5.27 5.27 0 0 1 5.804.788m43.979 30.174a217 217 0 0 0 24.432 10.795 5.26 5.26 0 0 1-3.647 9.871 228 228 0 0 1-25.623-11.322 5.265 5.265 0 0 1-2.254-7.093 5.263 5.263 0 0 1 7.092-2.251m50.012 18.522a219 219 0 0 0 26.323 4.54 5.26 5.26 0 0 1 4.653 5.805 5.253 5.253 0 0 1-5.806 4.653 230 230 0 0 1-27.589-4.755 5.262 5.262 0 0 1 2.419-10.243m52.993 5.82c8.877-.122 17.828-.8 26.609-2.018a5.26 5.26 0 1 1 1.445 10.423 226 226 0 0 1-27.911 2.117 5.262 5.262 0 0 1-.143-10.522m52.785-7.313a216 216 0 0 0 25.322-8.497 5.264 5.264 0 0 1 6.852 2.9c1.094 2.69-.217 5.717-2.897 6.856a228 228 0 0 1-26.552 8.905 5.266 5.266 0 0 1-6.445-3.722 5.263 5.263 0 0 1 3.72-6.442m79.267-33.309a5.26 5.26 0 0 1-1.146 7.35 229 229 0 0 1-20.391 13.275 180 180 0 0 1-3.208 1.826c-2.485 1.479-5.744.499-7.153-2.049a5.26 5.26 0 0 1 2.045-7.154 137 137 0 0 0 3.029-1.723 218 218 0 0 0 19.473-12.672 5.262 5.262 0 0 1 7.351 1.147" style="fill:#bdd0fb"/></g><g style="opacity:.3"><path d="M1816.929 596.578a229 229 0 0 1 25.56-10.255 5.264 5.264 0 0 1 6.653 3.334c.918 2.76-.603 5.717-3.334 6.653a218 218 0 0 0-24.379 9.781 5.26 5.26 0 0 1-7.005-2.505 5.264 5.264 0 0 1 2.505-7.008m-16.901 14.914a5.26 5.26 0 0 1-1.649 7.253 220 220 0 0 0-21.364 15.318c-2.247 1.814-5.569 1.489-7.401-.772a5.26 5.26 0 0 1 .767-7.399 230 230 0 0 1 22.391-16.049q.244-.154.499-.278a5.26 5.26 0 0 1 6.757 1.927m69.098-32.246a228 228 0 0 1 27.289-3.775 5.263 5.263 0 0 1 5.649 4.843c.225 2.898-1.938 5.415-4.84 5.651a218 218 0 0 0-26.033 3.595 5.26 5.26 0 0 1-3.347-9.882q.597-.292 1.282-.432m-111.598 65.162a5.26 5.26 0 0 1 .144 7.439 216 216 0 0 0-17.03 20.016 5.273 5.273 0 0 1-7.364 1.052 5.263 5.263 0 0 1-1.051-7.368 226 226 0 0 1 17.862-20.995 5.264 5.264 0 0 1 7.439-.144m166.417-69.364a229 229 0 0 1 27.392 2.901 5.263 5.263 0 0 1-1.74 10.38 216 216 0 0 0-26.124-2.766 5.262 5.262 0 0 1 .472-10.515m54.235 9.073a230 230 0 0 1 25.909 9.369 5.254 5.254 0 0 1 2.745 6.91 5.26 5.26 0 0 1-6.915 2.748 220 220 0 0 0-24.717-8.934 5.262 5.262 0 0 1 2.978-10.093m50.506 21.799a227 227 0 0 1 22.913 15.318 5.262 5.262 0 0 1-6.369 8.377 215 215 0 0 0-21.849-14.604 5.26 5.26 0 0 1-1.89-7.197 5.266 5.266 0 0 1 7.195-1.894M1719.175 686.665a5.24 5.24 0 0 0-2.247 2.106 229 229 0 0 0-6.351 11.857 5.266 5.266 0 0 0 2.365 7.057 5.276 5.276 0 0 0 7.056-2.366 219 219 0 0 1 6.056-11.313 5.26 5.26 0 0 0-6.879-7.341" style="fill:#bdd0fb"/></g><path d="M1744.121 783.667a2.665 2.665 0 0 0 1.176 2.861l27.444 17.266a141.3 141.3 0 0 0 7.42 45.154l-20.446 25.138a2.66 2.66 0 0 0-.196 3.087l20.524 33.035a2.66 2.66 0 0 0 2.853 1.192l31.595-7.194a141.2 141.2 0 0 0 37.194 26.657l3.32 32.253a2.66 2.66 0 0 0 2.044 2.321l37.872 8.847a2.66 2.66 0 0 0 2.861-1.176l17.265-27.444a141.2 141.2 0 0 0 45.155-7.42l25.138 20.446a2.66 2.66 0 0 0 3.086.196l33.036-20.524a2.66 2.66 0 0 0 1.191-2.854l-7.193-31.595a141.2 141.2 0 0 0 26.656-37.194l32.254-3.319a2.66 2.66 0 0 0 2.321-2.044l8.847-37.873a2.665 2.665 0 0 0-1.175-2.86l-27.445-17.266a141.2 141.2 0 0 0-7.42-45.154l20.446-25.138a2.66 2.66 0 0 0 .196-3.086l-20.524-33.036a2.66 2.66 0 0 0-2.854-1.191l-31.594 7.193a141.2 141.2 0 0 0-37.194-26.657l-3.32-32.253a2.665 2.665 0 0 0-2.044-2.322l-37.872-8.847a2.67 2.67 0 0 0-2.861 1.175l-17.265 27.445a141.2 141.2 0 0 0-45.154 7.42l-25.137-20.446a2.66 2.66 0 0 0-3.087-.196l-33.035 20.524a2.66 2.66 0 0 0-1.191 2.854l7.192 31.594a141.2 141.2 0 0 0-26.656 37.194l-32.253 3.32a2.66 2.66 0 0 0-2.321 2.044z" style="fill:#bdd0fb"/><linearGradient id="d" x1="1875.016" x2="1954.63" y1="803.567" y2="803.567" gradientUnits="userSpaceOnUse"><stop offset="0" style="stop-color:#dae3fe"/><stop offset="1" style="stop-color:#e9effd"/></linearGradient><path d="M1902.739 765.662c10.129-3.233 20.909-2.324 30.354 2.556 9.443 4.875 16.423 13.14 19.651 23.269 6.666 20.904-4.905 43.294-25.827 50.005-20.909 6.66-43.338-4.926-49.999-25.827-3.23-10.128-2.323-20.907 2.555-30.351 3.966-7.677 10.17-13.725 17.793-17.455a41 41 0 0 1 5.473-2.197m39.982 29.024c-2.376-7.452-7.509-13.531-14.458-17.121-6.945-3.586-14.876-4.254-22.325-1.88-7.447 2.385-13.528 7.51-17.118 14.459-3.589 6.943-4.253 14.875-1.88 22.322 4.903 15.378 21.4 23.9 36.78 19.002a29.6 29.6 0 0 0 3.989-1.602c12.819-6.271 19.472-21.193 15.012-35.18" style="fill:url(#d)"/><linearGradient id="e" x1="1816.51" x2="2014.759" y1="803.863" y2="803.863" gradientUnits="userSpaceOnUse"><stop offset="0" style="stop-color:#dae3fe"/><stop offset="1" style="stop-color:#e9effd"/></linearGradient><path d="M1872.135 714.768a101 101 0 0 0-8.817 4.88 99.6 99.6 0 0 0-15.989 12.334l-.654.629a5.26 5.26 0 0 0-1.075 6.091c.237.484.555.941.948 1.349 2.018 2.09 5.345 2.133 7.437.125a89 89 0 0 1 14.882-11.587l.002-.001c.293-.183.591-.363.885-.541 12.751-7.753 26.951-12.034 41.472-12.732a89 89 0 0 1 23.761 2.075l.193.043c.197.047.392.089.587.136 23.041 5.384 42.608 19.416 55.094 39.515a90 90 0 0 1 4.416 7.975c8.929 18.259 11.286 38.862 6.602 58.924-5.384 23.041-19.419 42.604-39.515 55.089-20.09 12.47-43.857 16.398-66.898 11.02-23.041-5.384-42.608-19.416-55.094-39.515a88 88 0 0 1-4.357-7.872 88.3 88.3 0 0 1-8.984-37.386 5.26 5.26 0 1 0-10.52.17 98.85 98.85 0 0 0 10.048 41.83 100 100 0 0 0 4.873 8.81c13.972 22.489 35.862 38.188 61.643 44.21 25.776 6.019 52.354 1.666 74.841-12.326 22.488-13.969 38.188-35.856 44.207-61.639 5.245-22.441 2.606-45.492-7.384-65.92a101 101 0 0 0-4.936-8.921c-27.051-43.535-82.584-58.82-127.668-36.765" style="fill:url(#e)"/><g style="opacity:.3"><path d="M1478.874 2974.363a8.675 8.675 0 0 1 10.908 5.618 331 331 0 0 0 9.706 26.377 8.675 8.675 0 0 1-4.513 11.279l-.155.068c-4.422 1.844-9.502-.247-11.347-4.67a348 348 0 0 1-10.216-27.767c-1.367-4.267.748-8.817 4.762-10.581a8 8 0 0 1 .855-.324m41.031 72.831a332 332 0 0 0 15.262 23.59 8.677 8.677 0 0 1-2.057 12.095c-3.932 2.769-9.325 1.848-12.097-2.06a350 350 0 0 1-16.063-24.822 8.678 8.678 0 0 1 14.955-8.803m44.185 58.884a328 328 0 0 0 20.139 19.585 8.677 8.677 0 0 1 .698 12.25c-3.19 3.568-8.672 3.886-12.25.698a345 345 0 0 1-21.207-20.625c-3.288-3.485-3.127-8.975.356-12.265a8.7 8.7 0 0 1 2.462-1.634 8.68 8.68 0 0 1 9.802 1.991m56.246 47.523a329 329 0 0 0 24.018 14.599c4.197 2.312 5.726 7.589 3.415 11.784a8.686 8.686 0 0 1-11.785 3.415 349 349 0 0 1-25.285-15.368 8.677 8.677 0 0 1 9.637-14.43m65.43 33.808a333 333 0 0 0 26.657 8.915 8.68 8.68 0 0 1 5.934 10.74 8.67 8.67 0 0 1-10.739 5.931 351 351 0 0 1-28.047-9.381 8.67 8.67 0 0 1-5.005-11.2 8.64 8.64 0 0 1 4.612-4.844 8.64 8.64 0 0 1 6.588-.161m71.281 18.488a332 332 0 0 0 27.962 2.796c4.783.274 8.44 4.375 8.165 9.156a8.676 8.676 0 0 1-9.157 8.168 350 350 0 0 1-29.43-2.943 8.68 8.68 0 0 1-7.359-9.818 8.67 8.67 0 0 1 5.105-6.716 8.6 8.6 0 0 1 4.714-.643m303.905-106.904a8.676 8.676 0 0 1 .679 12.251 345 345 0 0 1-20.673 21.178 8.673 8.673 0 0 1-12.263-.381 8.67 8.67 0 0 1 .38-12.26 327 327 0 0 0 19.628-20.111 8.64 8.64 0 0 1 2.967-2.156 8.67 8.67 0 0 1 9.282 1.479m-230.345 109.13a327 327 0 0 0 27.861-3.504c4.725-.8 9.205 2.38 10.006 7.103.802 4.726-2.385 9.181-7.104 10.004a345 345 0 0 1-29.341 3.688 8.677 8.677 0 0 1-4.204-16.591 8.8 8.8 0 0 1 2.782-.7m175.2-57.398c2.764 3.912 1.831 9.327-2.083 12.092a352 352 0 0 1-24.868 16.022c-4.127 2.444-9.448 1.033-11.872-3.099-2.422-4.133-1.034-9.448 3.099-11.872a333 333 0 0 0 23.633-15.227 8.7 8.7 0 0 1 1.52-.857c3.699-1.627 8.152-.486 10.571 2.941m-103 43.132a331 331 0 0 0 26.388-9.646 8.673 8.673 0 0 1 11.338 4.689 8.677 8.677 0 0 1-4.519 11.264q-.084.038-.17.071a347 347 0 0 1-27.777 10.16c-4.568 1.449-9.446-1.075-10.898-5.641-1.356-4.264.759-8.804 4.767-10.566q.423-.185.871-.331M2088.026 3048.633a8.63 8.63 0 0 0-3.902 3.41 335 335 0 0 1-7.287 11.388 8.675 8.675 0 0 0 2.386 12.034c3.981 2.666 9.375 1.601 12.034-2.388a350 350 0 0 0 7.669-11.978c2.5-4.086 1.213-9.429-2.872-11.927a8.67 8.67 0 0 0-8.028-.539" style="fill:#bdd0fb"/></g><g style="opacity:.3"><path d="M2126.976 2787.021a8.68 8.68 0 0 0-4.895 10.129 327 327 0 0 1 3.144 13.147 8.675 8.675 0 0 0 10.32 6.635 8.666 8.666 0 0 0 6.635-10.321 349 349 0 0 0-3.31-13.844 8.678 8.678 0 0 0-11.894-5.746M1680.11 2556.155a8.675 8.675 0 0 1 11.203 5.008c1.71 4.475-.53 9.48-5.007 11.2a336 336 0 0 0-25.404 10.949c-4.291 2.079-9.503.253-11.577-4.066a8.677 8.677 0 0 1 4.063-11.577 356 356 0 0 1 10.922-5.023 349 349 0 0 1 15.8-6.491m-55.833 37.29a8.675 8.675 0 0 1-2.461 12.017 332 332 0 0 0-22.425 16.192c-3.75 2.973-9.218 2.32-12.184-1.444a8.675 8.675 0 0 1 1.445-12.181 348 348 0 0 1 23.605-17.044 9 9 0 0 1 1.297-.708 8.68 8.68 0 0 1 10.723 3.168m101.044-51.108a345 345 0 0 1 28.608-5.376 8.677 8.677 0 0 1 9.828 7.347c.685 4.741-2.605 9.134-7.347 9.827a327 327 0 0 0-27.165 5.104 8.68 8.68 0 0 1-10.414-6.491c-.958-4.128 1.207-8.252 4.951-9.898a9 9 0 0 1 1.539-.513m-159.451 97.204c3.453 3.32 3.562 8.814.239 12.266a329 329 0 0 0-18.306 20.719 8.67 8.67 0 0 1-12.202 1.273 8.674 8.674 0 0 1-1.275-12.2 346 346 0 0 1 19.277-21.819 8.7 8.7 0 0 1 2.757-1.93 8.68 8.68 0 0 1 9.51 1.691m235.168-106.106c9.646-.061 19.429.292 29.081 1.046a8.673 8.673 0 0 1 7.973 9.321 8.674 8.674 0 0 1-9.324 7.975 329 329 0 0 0-27.62-.992 8.676 8.676 0 0 1-.11-17.35m75.833 7.92a351 351 0 0 1 28.153 7.362 8.68 8.68 0 0 1 5.752 10.839c-1.408 4.587-6.259 7.16-10.838 5.749a334 334 0 0 0-26.753-6.997 8.676 8.676 0 0 1 3.686-16.953m72.309 24.259a351 351 0 0 1 25.88 13.318 8.676 8.676 0 0 1-8.577 15.083 332 332 0 0 0-24.592-12.655 8.674 8.674 0 0 1-4.228-11.516 8.63 8.63 0 0 1 4.378-4.297 8.66 8.66 0 0 1 7.139.067m65.294 39.455a345 345 0 0 1 22.341 18.675 8.675 8.675 0 1 1-11.681 12.828 328 328 0 0 0-21.217-17.734 8.673 8.673 0 0 1 1.78-14.823 8.67 8.67 0 0 1 8.777 1.054m55.057 52.865a346 346 0 0 1 17.665 23.123 8.677 8.677 0 0 1-2.138 12.083c-3.915 2.736-9.334 1.79-12.081-2.137a329 329 0 0 0-16.778-21.965 8.675 8.675 0 0 1 1.113-12.217 8.7 8.7 0 0 1 2.063-1.281 8.68 8.68 0 0 1 10.156 2.394m42.061 63.597a353 353 0 0 1 12.229 26.404c1.831 4.425-.181 9.563-4.699 11.331-4.426 1.835-9.501-.27-11.334-4.698a333 333 0 0 0-11.623-25.101 8.674 8.674 0 1 1 15.427-7.936M1510.943 2697.029a8.65 8.65 0 0 0-3.926 3.447 345 345 0 0 0-7.109 12.324 8.675 8.675 0 0 0 3.421 11.782c4.2 2.307 9.472.782 11.782-3.421a332 332 0 0 1 6.752-11.705c2.48-4.096 1.168-9.431-2.932-11.912a8.67 8.67 0 0 0-7.988-.515" style="fill:#bdd0fb"/></g><path d="M1539.499 2833.112a4.33 4.33 0 0 0 1.719 4.722l43.412 29.849c-.989 24.584 1.936 49.501 9.055 73.799l-34.859 39.457a4.33 4.33 0 0 0-.522 4.999l31.132 54.992a4.33 4.33 0 0 0 4.554 2.125l51.77-9.585c17.17 18.608 37.03 33.939 58.618 45.742l3.253 52.582a4.33 4.33 0 0 0 3.165 3.904l60.899 16.873a4.33 4.33 0 0 0 4.723-1.719l29.848-43.412c24.583.99 49.502-1.934 73.8-9.055l39.457 34.859a4.33 4.33 0 0 0 4.998.523l54.994-31.132a4.33 4.33 0 0 0 2.123-4.555l-9.585-51.771c18.608-17.17 33.939-37.031 45.741-58.618l52.583-3.252a4.33 4.33 0 0 0 3.904-3.165l16.873-60.899a4.33 4.33 0 0 0-1.719-4.722l-43.413-29.849c.99-24.583-1.935-49.5-9.055-73.799l34.859-39.457a4.33 4.33 0 0 0 .523-4.998l-31.132-54.993a4.33 4.33 0 0 0-4.554-2.124l-51.771 9.584c-17.17-18.608-37.031-33.939-58.618-45.741l-3.253-52.583a4.33 4.33 0 0 0-3.165-3.904l-60.899-16.872a4.33 4.33 0 0 0-4.722 1.719l-29.849 43.413c-24.584-.99-49.501 1.935-73.799 9.054l-39.457-34.859a4.33 4.33 0 0 0-4.998-.522l-54.993 31.132a4.33 4.33 0 0 0-2.124 4.555l9.584 51.769c-18.608 17.17-33.938 37.031-45.741 58.618l-52.583 3.253a4.33 4.33 0 0 0-3.904 3.165z" style="fill:#bdd0fb"/><linearGradient id="f" x1="1751.798" x2="1878.875" y1="2876.743" y2="2876.743" gradientUnits="userSpaceOnUse"><stop offset="0" style="stop-color:#dae3fe"/><stop offset="1" style="stop-color:#e9effd"/></linearGradient><path d="M1798.515 2815.487c33.776-9.268 68.796 10.667 78.067 44.446 4.492 16.362 2.341 33.494-6.054 48.238-8.392 14.743-22.025 25.34-38.39 29.827-33.777 9.268-68.796-10.667-78.067-44.446-8.433-30.729 7.307-62.486 35.653-74.947a64 64 0 0 1 8.791-3.118m59.135 85.351c6.437-11.306 8.085-24.439 4.642-36.987-7.107-25.894-33.959-41.184-59.855-34.075-25.907 7.101-41.184 33.959-34.077 59.857 7.107 25.894 33.959 41.184 59.855 34.076a49 49 0 0 0 6.808-2.416c9.507-4.179 17.395-11.267 22.627-20.455" style="fill:url(#f)"/><linearGradient id="g" x1="1660.372" x2="1972.845" y1="2877.156" y2="2877.156" gradientUnits="userSpaceOnUse"><stop offset="0" style="stop-color:#dae3fe"/><stop offset="1" style="stop-color:#e9effd"/></linearGradient><path d="M1753.99 2734.094a159.406 159.406 0 0 0-18.739 9.771 157 157 0 0 0-20.259 14.672l-.259.22q-.366.314-.729.633-.71.617-1.411 1.24a3.706 3.706 0 0 0-.303 5.232 3.71 3.71 0 0 0 5.229.302 149.5 149.5 0 0 1 25.771-18.426c45.875-25.98 99.831-24.85 143.262-1.784 24.159 12.826 45.061 32.442 59.505 57.96a151 151 0 0 1 6.863 13.688c13.734 31.252 16.281 65.987 7.043 99.328-10.61 38.298-35.499 70.173-70.081 89.749-71.426 40.425-162.355 15.212-202.767-56.176a149 149 0 0 1-6.772-13.514c-8.76-19.936-13.06-41.567-12.516-63.355a3.703 3.703 0 0 0-3.611-3.795 3.703 3.703 0 0 0-3.796 3.613c-.571 22.875 3.942 45.587 13.139 66.515a157 157 0 0 0 7.107 14.185c42.429 74.951 137.942 101.39 212.866 58.977 36.307-20.553 62.433-54.014 73.571-94.22 9.7-35.001 7.025-71.467-7.392-104.276a160 160 0 0 0-7.203-14.368c-20.555-36.307-54.016-62.437-94.22-73.575-35.009-9.701-71.484-7.02-104.298 7.404" style="fill:url(#g)"/><g style="opacity:.3"><path d="M1114.991 2884.535a5.355 5.355 0 0 0-3.154 5.593 229 229 0 0 0 2.165 13.539 5.36 5.36 0 0 0 6.268 4.259c2.913-.544 4.813-3.362 4.259-6.268a220 220 0 0 1-2.065-12.908 5.36 5.36 0 0 0-6.001-4.627 5.4 5.4 0 0 0-1.472.412M1124.523 2924.558a5.36 5.36 0 0 1 6.745 3.454 223 223 0 0 0 7.992 21.014 224 224 0 0 0 1.956 4.319 5.36 5.36 0 0 1-2.602 7.117c-2.584 1.079-5.869.082-7.12-2.603a232.972 232.972 0 0 1-10.421-26.554 5.356 5.356 0 0 1 2.937-6.549q.248-.11.513-.198m29.645 52.718a222 222 0 0 0 15.772 22.167 5.356 5.356 0 0 1-.797 7.535c-2.292 1.848-5.675 1.506-7.536-.797a233 233 0 0 1-16.535-23.238 5.363 5.363 0 0 1 1.715-7.385 5.36 5.36 0 0 1 7.381 1.718m34.173 42.218a220 220 0 0 0 20.742 17.616 5.36 5.36 0 0 1 1.081 7.498 5.35 5.35 0 0 1-7.5 1.084 231 231 0 0 1-21.754-18.474 5.36 5.36 0 0 1 1.557-8.767 5.37 5.37 0 0 1 5.874 1.043m43.501 32.532a221 221 0 0 0 24.415 12 5.358 5.358 0 0 1-4.121 9.894 232 232 0 0 1-25.604-12.585 5.36 5.36 0 0 1-1.999-7.312 5.36 5.36 0 0 1 2.494-2.245 5.34 5.34 0 0 1 4.815.248m50.126 20.926a223 223 0 0 0 26.598 5.713 5.36 5.36 0 0 1 4.494 6.101 5.35 5.35 0 0 1-6.101 4.494 235 235 0 0 1-27.878-5.984 5.36 5.36 0 0 1 2.887-10.324m53.686 8.123c9.039.245 18.176-.074 27.162-.949a5.357 5.357 0 0 1 5.851 4.813 5.365 5.365 0 0 1-4.814 5.855 231 231 0 0 1-28.491.995 5.36 5.36 0 0 1 .292-10.714m54.019-5.25a220 220 0 0 0 26.121-7.596 5.36 5.36 0 0 1 6.852 3.236c1.001 2.783-.458 5.809-3.233 6.857a232 232 0 0 1-27.391 7.96 5.357 5.357 0 1 1-2.349-10.457m82.049-30.605a5.356 5.356 0 0 1-1.472 7.432 233 233 0 0 1-21.301 12.662c-1.11.59-2.223 1.16-3.34 1.725-2.59 1.401-5.866.27-7.195-2.382a5.36 5.36 0 0 1 2.379-7.196c1.05-.525 2.096-1.065 3.154-1.627a222 222 0 0 0 20.343-12.087 5.363 5.363 0 0 1 7.432 1.473" style="fill:#bdd0fb"/></g><g style="opacity:.3"><path d="M1251.225 2647.262a233 233 0 0 1 26.436-9.375 5.36 5.36 0 0 1 6.632 3.669c.82 2.846-.851 5.793-3.669 6.632a222 222 0 0 0-25.215 8.941 5.357 5.357 0 0 1-7.024-2.84 5.36 5.36 0 0 1 2.84-7.027m-17.818 14.475a5.356 5.356 0 0 1-1.979 7.312 224 224 0 0 0-22.377 14.701c-2.362 1.753-5.729 1.284-7.5-1.093a5.36 5.36 0 0 1 1.088-7.498 235 235 0 0 1 23.452-15.403 5.358 5.358 0 0 1 7.316 1.981m71.656-29.945a233 233 0 0 1 27.927-2.708 5.36 5.36 0 0 1 5.548 5.163c.109 2.959-2.197 5.43-5.16 5.55a222 222 0 0 0-26.641 2.577 5.358 5.358 0 1 1-1.674-10.582m-116.273 61.676a5.36 5.36 0 0 1-.162 7.576 220 220 0 0 0-18.162 19.662 5.37 5.37 0 0 1-7.538.764 5.36 5.36 0 0 1-.763-7.541 230 230 0 0 1 19.048-20.623 5.362 5.362 0 0 1 7.577.162m172.233-63.676a233 233 0 0 1 27.754 4.09 5.36 5.36 0 0 1 4.144 6.346 5.355 5.355 0 0 1-6.346 4.145 221 221 0 0 0-26.47-3.9 5.359 5.359 0 0 1-1.693-10.247 5.34 5.34 0 0 1 2.611-.434m54.815 11.485a234 234 0 0 1 25.977 10.61 5.357 5.357 0 0 1-4.644 9.655 224 224 0 0 0-24.782-10.118 5.36 5.36 0 0 1-.429-9.981 5.35 5.35 0 0 1 3.878-.166m50.492 24.281a232 232 0 0 1 22.681 16.54 5.358 5.358 0 0 1-6.828 8.26 219 219 0 0 0-21.628-15.769 5.357 5.357 0 0 1-1.625-7.402 5.36 5.36 0 0 1 7.4-1.629M1148.005 2734.878a5.33 5.33 0 0 0-2.374 2.05 233 233 0 0 0-6.955 11.803 5.363 5.363 0 0 0 2.114 7.279 5.374 5.374 0 0 0 7.279-2.114 223 223 0 0 1 6.633-11.261 5.358 5.358 0 0 0-6.697-7.757" style="fill:#bdd0fb"/></g><path d="M1169.364 2834.627a2.715 2.715 0 0 0 1.078 2.96l27.211 18.71a143.9 143.9 0 0 0 5.676 46.258l-21.85 24.732a2.71 2.71 0 0 0-.328 3.133l19.514 34.47a2.71 2.71 0 0 0 2.854 1.332l32.451-6.009a143.8 143.8 0 0 0 36.743 28.672l2.039 32.959a2.71 2.71 0 0 0 1.984 2.448l38.173 10.576a2.71 2.71 0 0 0 2.96-1.078l18.709-27.211c15.41.62 31.029-1.213 46.259-5.676l24.732 21.851a2.71 2.71 0 0 0 3.133.328l34.471-19.514a2.71 2.71 0 0 0 1.331-2.855l-6.008-32.451a143.8 143.8 0 0 0 28.671-36.743l32.96-2.039a2.71 2.71 0 0 0 2.447-1.983l10.576-38.173a2.71 2.71 0 0 0-1.077-2.959l-27.212-18.71a143.8 143.8 0 0 0-5.676-46.258l21.85-24.732a2.71 2.71 0 0 0 .328-3.133l-19.514-34.471a2.71 2.71 0 0 0-2.855-1.331l-32.45 6.008a143.9 143.9 0 0 0-36.743-28.672l-2.039-32.96a2.71 2.71 0 0 0-1.984-2.447l-38.172-10.576a2.72 2.72 0 0 0-2.961 1.077l-18.709 27.212a143.8 143.8 0 0 0-46.259 5.676l-24.732-21.85a2.71 2.71 0 0 0-3.133-.328l-34.47 19.514a2.71 2.71 0 0 0-1.331 2.855l6.007 32.45a143.8 143.8 0 0 0-28.671 36.743l-32.96 2.039a2.71 2.71 0 0 0-2.447 1.983z" style="fill:#bdd0fb"/><linearGradient id="h" x1="1301.709" x2="1382.793" y1="2861.968" y2="2861.968" gradientUnits="userSpaceOnUse"><stop offset="0" style="stop-color:#dae3fe"/><stop offset="1" style="stop-color:#e9effd"/></linearGradient><path d="M1331.528 2822.892c10.442-2.869 21.375-1.497 30.783 3.862 9.407 5.353 16.167 14.053 19.031 24.495 5.915 21.549-6.789 43.854-28.359 49.815-21.555 5.909-43.898-6.813-49.809-28.359-2.866-10.44-1.496-21.372 3.86-30.78 4.354-7.647 10.919-13.545 18.832-17.024a41 41 0 0 1 5.662-2.009m39.481 31.195c-2.108-7.682-7.079-14.082-14.002-18.023-6.918-3.938-14.961-4.947-22.641-2.84-7.677 2.118-14.078 7.081-18.02 14.004-3.941 6.917-4.946 14.961-2.84 22.638 4.351 15.853 20.785 25.21 36.64 20.864a30 30 0 0 0 4.126-1.465c13.305-5.849 20.695-20.758 16.737-35.178" style="fill:url(#h)"/><linearGradient id="i" x1="1242.093" x2="1444.03" y1="2862.301" y2="2862.301" gradientUnits="userSpaceOnUse"><stop offset="0" style="stop-color:#dae3fe"/><stop offset="1" style="stop-color:#e9effd"/></linearGradient><path d="M1302.496 2769.829a103 103 0 0 0-9.176 4.6 101.5 101.5 0 0 0-16.783 11.888l-.691.613a5.357 5.357 0 0 0-.438 7.566c1.967 2.211 5.35 2.393 7.563.437a90.5 90.5 0 0 1 15.626-11.174l.002-.001c.306-.174.617-.345.923-.514 13.298-7.361 27.926-11.128 42.732-11.235a90.7 90.7 0 0 1 24.288 3.15c.199.056.396.106.592.163 23.223 6.436 42.553 21.528 54.425 42.5a91 91 0 0 1 4.163 8.299c8.328 18.951 9.872 40.016 4.271 60.238-6.436 23.224-21.53 42.549-42.5 54.419-20.962 11.856-45.312 14.866-68.536 8.436-23.223-6.436-42.553-21.528-54.425-42.5a90 90 0 0 1-4.107-8.192 89.9 89.9 0 0 1-7.59-38.419 5.355 5.355 0 0 0-5.222-5.489 5.363 5.363 0 0 0-5.491 5.226 100.7 100.7 0 0 0 8.488 42.985 102 102 0 0 0 4.593 9.167c13.285 23.466 34.909 40.35 60.895 47.55 25.981 7.196 53.208 3.87 76.673-9.436 23.464-13.281 40.35-34.903 47.546-60.89 6.27-22.619 4.541-46.186-4.777-67.389a103 103 0 0 0-4.653-9.283c-25.717-45.427-81.595-63.287-128.391-42.715" style="fill:url(#i)"/><circle cx="916.734" cy="2738.376" r="391.968" style="fill:#91b3fa"/><linearGradient id="j" x1="1877.676" x2="1681.686" y1="-3954.029" y2="-3054.48" gradientTransform="rotate(-25.217 -436.543 756.51)" gradientUnits="userSpaceOnUse"><stop offset="0" style="stop-color:#4f52ff"/><stop offset="1" style="stop-color:#4042e2"/></linearGradient><path d="M1114.556 2529.853s191.682 182.75 389.529 130.314l20.72 25.062s-245.021 147.875-459.547-20.115z" style="fill:url(#j)"/><linearGradient id="k" x1="621.047" x2="967.798" y1="3471.61" y2="2783.136" gradientUnits="userSpaceOnUse"><stop offset="0" style="stop-color:#4f52ff"/><stop offset="1" style="stop-color:#4042e2"/></linearGradient><path d="M929.947 3126.165s-180.224-140.325-216.466-374.477c-20.873-134.858 86.437-256.262 222.801-251.051 51.728 1.977 111.478 10.275 178.273 29.216 0 0-94.565 228.896 26.719 535.466.001 0-131.066 75.76-211.327 60.846" style="fill:url(#k)"/><linearGradient id="l" x1="-16.675" x2="148.596" y1="2865.335" y2="2865.335" gradientTransform="rotate(-25.217 -436.543 756.51)" gradientUnits="userSpaceOnUse"><stop offset="0" style="stop-color:#febbba"/><stop offset="1" style="stop-color:#ff928e"/></linearGradient><path d="m891.656 2364.098-36.294 135.238c-3.413 12.717 3.007 25.995 15.087 31.233 20.963 9.089 54.579 17.748 84.398-.979 9.759-6.129 15.89-16.675 16.657-28.172l7.514-112.678z" style="fill:url(#l)"/><circle cx="861.495" cy="989.477" r="391.968" style="fill:#91b3fa"/><circle cx="2843.504" cy="989.477" r="391.968" style="fill:#91b3fa"/><circle cx="2760.65" cy="2833.537" r="391.968" style="fill:#91b3fa"/><linearGradient id="m" x1="968.174" x2="1638.255" y1="1190.491" y2="533.81" gradientUnits="userSpaceOnUse"><stop offset="0" style="stop-color:#febbba"/><stop offset="1" style="stop-color:#ff928e"/></linearGradient><path d="M1006.151 911.315c20.029-4.517 95.523 244.34 320.529 111.53l17.489 41.079s-188.943 197.196-349.037 5.001z" style="fill:url(#m)"/><linearGradient id="n" x1="1582.53" x2="1202.394" y1="681.604" y2="988.594" gradientTransform="rotate(9.196 -461.345 294.152)" gradientUnits="userSpaceOnUse"><stop offset="0" style="stop-color:#febbba"/><stop offset="1" style="stop-color:#ff928e"/></linearGradient><path d="M1479.672 1080.732a29.4 29.4 0 0 0-13.958-21.311l-74.65-45.039s.453-10.435 19.655-14.468c19.204-4.032 18.255-24.961 18.255-24.961s-26.519 7.267-65.567 19.281c-22.33 6.87-36.852 23.033-45.203 35.618l16.178 30.36c46.819 22.752 96.159 33.641 147.33 35.908z" style="fill:url(#n)"/><linearGradient id="o" x1="1384.65" x2="1088.154" y1="196.508" y2="663.866" gradientUnits="userSpaceOnUse"><stop offset="0" style="stop-color:#e1473d"/><stop offset="1" style="stop-color:#e9605a"/></linearGradient><path d="M706.882 903.818c-6.876 2.972 34.084 267.66-10.44 441.456 0 0 76.034 39.7 165.053 36.171 0 0 160.249-246.25 164.443-274.432 4.752-31.933-19.787-195.698-19.787-195.698s-129.606-80.835-299.269-7.497" style="fill:url(#o)"/><linearGradient id="p" x1="956.211" x2="895.903" y1="594.472" y2="960.783" gradientUnits="userSpaceOnUse"><stop offset="0" style="stop-color:#febbba"/><stop offset="1" style="stop-color:#ff928e"/></linearGradient><path d="M913.052 1015.25c79.198 2.687 85.5-65.178 80.987-110.437-26.043-12.786-92.226-39.171-179.721-29.745-1.619 38.631 3.644 136.955 98.734 140.182" style="fill:url(#p)"/><linearGradient id="q" x1="969.551" x2="909.244" y1="596.668" y2="962.98" gradientUnits="userSpaceOnUse"><stop offset="0" style="stop-color:#febbba"/><stop offset="1" style="stop-color:#ff928e"/></linearGradient><path d="M936.565 756.644s-39.341 83.13-62.321 118.18c-6.744 10.286-4.675 24.063 4.867 31.824 10.895 8.861 28.601 17.641 56.106 17.916 11.564.115 21.725-7.708 24.771-18.865l25.93-94.959z" style="fill:url(#q)"/><linearGradient id="r" x1="689.894" x2="649.691" y1="5105.862" y2="5558.148" gradientTransform="scale(-1 1)rotate(-43.699 4345.718 2058.612)" gradientUnits="userSpaceOnUse"><stop offset="0" style="stop-color:#febbba"/><stop offset="1" style="stop-color:#ff928e"/></linearGradient><path d="M1071.077 688.177s18.217 42.078-3.186 106.052c-21.404 63.974-56.381 69.532-78.533 53.717s-50.874-44.076-54.446-102.026c-3.571-57.952 111.07-110.965 136.165-57.743" style="fill:url(#r)"/><linearGradient id="s" x1="971.351" x2="785.172" y1="643.473" y2="330.958" gradientUnits="userSpaceOnUse"><stop offset="0" style="stop-color:#09005d"/><stop offset="1" style="stop-color:#1a0f91"/></linearGradient><path d="M978.138 742.15s38.654-86.583 96.627-32.647l4.474 22.286s55.209-15.728 37.065-65.757-84.122-83.966-143.171-51.54-79.119 70.621-75.946 116.164c3.174 45.542 37.308 29.958 37.308 29.958s6.568-33.484 22.604-39.433 15.692 19.395 15.692 19.395z" style="fill:url(#s)"/><linearGradient id="t" x1="754.403" x2="714.2" y1="5111.577" y2="5563.862" gradientTransform="scale(-1 1)rotate(-43.699 4345.718 2058.612)" gradientUnits="userSpaceOnUse"><stop offset="0" style="stop-color:#febbba"/><stop offset="1" style="stop-color:#ff928e"/></linearGradient><path d="M964.846 743.207s20.131-44.391-8.067-45.996-16.725 42.792-11.106 58.991z" style="fill:url(#t)"/><linearGradient id="u" x1="802.707" x2="616.528" y1="743.942" y2="431.427" gradientUnits="userSpaceOnUse"><stop offset="0" style="stop-color:#09005d"/><stop offset="1" style="stop-color:#1a0f91"/></linearGradient><path d="M948.838 646.583c15.798-1.923 22.154-21.442 11.409-33.183-34.683-37.897-100.151-79.945-193.423-15.423-105.066 72.681-161.911 105.565-187.72 98.665-16.949-4.531-31.687 12.234-23.682 27.846 5.919 11.543 17.968 23.598 40.232 34.584C767.4 843.816 856.176 657.863 948.838 646.583" style="fill:url(#u)"/><linearGradient id="v" x1="2880.618" x2="2694.68" y1="-40.2" y2="758.833" gradientUnits="userSpaceOnUse"><stop offset="0" style="stop-color:#4f52ff"/><stop offset="1" style="stop-color:#4042e2"/></linearGradient><path d="M2766.614 875.35s-150.24 271.679-365.485 291.335l-11.474 32.365s296.61 57.924 448.551-186.422z" style="fill:url(#v)"/><linearGradient id="w" x1="2959.365" x2="3140.448" y1="843.093" y2="749.318" gradientTransform="rotate(37.704 -80.341 822.27)" gradientUnits="userSpaceOnUse"><stop offset="0" style="stop-color:#c4421b"/><stop offset="1" style="stop-color:#5c0e16"/></linearGradient><path d="M2533.329 2645.772s-47.077 123.695 38.897 187.504 223.646-94.63 223.646-94.63l-76.098 194.868s-101.702 65.046-207.718-43.062-32.54-255.002-32.54-255.002-72.638-34.896-29.552-105.385c2.956-4.836 10.317-3.551 11.467 1.999 4.256 20.544 15.465 56.645 43.087 71.044 39.62 20.652 28.811 42.664 28.811 42.664" style="fill:url(#w)"/><linearGradient id="x" x1="3697.556" x2="1979.986" y1="3090.004" y2="956.89" gradientUnits="userSpaceOnUse"><stop offset="0" style="stop-color:#b37cff"/><stop offset="1" style="stop-color:#f895e7"/></linearGradient><path d="M2149.582 1165.728q-1.917-.599-3.838-1.188l2.669 1.453c.374-.035.776-.164 1.169-.265" style="fill:url(#x)"/><linearGradient id="y" x1="1908.938" x2="4337.368" y1="2216.106" y2="-1721.512" gradientUnits="userSpaceOnUse"><stop offset="0" style="stop-color:#53d8ff"/><stop offset="1" style="stop-color:#3840f7"/></linearGradient><path d="M2544.132 1209.011c5.328 9.075 2.627-9.373-5.399-42.941-3.924 13.762-2.666 29.201 5.399 42.941" style="fill:url(#y)"/><linearGradient id="z" x1="2522.122" x2="621.771" y1="2673.212" y2="551.731" gradientUnits="userSpaceOnUse"><stop offset="0" style="stop-color:#4042e2"/><stop offset="1" style="stop-color:#4f52ff"/></linearGradient><path d="M2679.299 2003.713c-35.713 1.919-62.775-33.962-50.839-68.373 13.242-38.181 25.045-89.953 24.153-151.905-1.991-137.707-118.234-234.809-268.659-203.868-149.06 30.658-177.118 164.936-155.384 228.163 11.359 33.039 50.79 89.324 85.953 135.668 24.593 32.411 4.003 79.7-35.54 81.826l-398.306 21.402-20.839-352.164c-1.75-29.551-33.729-45.489-56.503-28.137-38.333 29.213-98.915 55.278-184.773 36.835-163.198-35.064-163.792-190.258-136.871-268.368 22.712-65.906 175.506-152.876 292.293-75.731 24.78 16.366 57.005-3.33 55.178-34.216l-22.147-444.444c-496.304 47.602-884.414 465.686-884.414 974.467a985 985 0 0 0 14.054 165.841l381.222 4.539c17.212.345 25.911 19.061 14.41 30.77-21.983 22.384-43.731 58.893-39.795 114.286 7.697 108.296 105.435 149.421 213.437 103.742 107.586-45.506 135.708-166.708 29.42-251.44l342.279 6.873 2.281 268.705c.25 29.434 35.994 47.815 61.858 31.561 132.196-83.051 257.782 18.228 264.326 98.073 7.6 92.701-44.229 184.901-157.99 173.709-49.25-4.847-88.775-18.676-117.734-32.787-26.525-12.922-57.313 4.729-57.088 32.519l1.886 232.278c8.797.234 17.618.366 26.471.366 493.665 0 901.92-365.404 969.23-840.483z" style="fill:url(#z)"/><path d="M1901.636 2838.928c-8.507 0-17.459-.123-26.604-.366l-4.852-.129-1.927-237.134c-.115-14.146 7.13-27.204 19.376-34.927 13.47-8.494 30.272-9.295 44.939-2.15 35.641 17.367 74.678 28.235 116.024 32.303 44.436 4.363 82.331-7.476 109.559-34.267 31.243-30.738 47.292-80.844 42.93-134.03-3.262-39.823-37.659-83.711-83.643-106.727-31.835-15.929-96.625-35.485-173.001 12.499-13.896 8.734-31.783 9.099-46.673.949-14.2-7.769-22.756-21.498-22.884-36.722l-2.238-263.822-323.236-6.492c43.215 38.798 63.288 85.858 56.712 133.768-6.887 50.153-43.608 93.889-98.235 116.993-59.941 25.356-118.557 25.043-160.81-.855-35.045-21.48-56.211-59.537-59.594-107.159-4.172-58.722 20.116-96.67 41.223-118.163 3.681-3.748 4.748-8.759 2.853-13.405-1.698-4.165-6.207-8.669-13.778-8.821l-385.373-4.587-.703-4.129c-9.374-54.938-14.125-111.02-14.125-166.686 0-246.259 91.417-481.916 257.409-663.567 164.913-180.469 389.204-292.659 631.55-315.904l5.238-.502 22.409 449.7c.982 16.593-7.083 31.932-21.048 39.984-13.346 7.694-29.012 7.202-41.919-1.325-65.618-43.343-135.688-29.333-171.614-17.127-53.842 18.298-101.432 56.276-113.158 90.302-15.725 45.625-22.285 119.826 10.981 178.792 24.182 42.867 65.294 70.8 122.195 83.026 86.103 18.494 145.772-9.325 180.67-35.92 11.825-9.011 26.872-10.724 40.254-4.581 14.046 6.447 23.361 20.4 24.31 36.416l20.544 347.175 393.317-21.133c16.179-.869 30.016-10.405 37.018-25.508a46.99 46.99 0 0 0-5.216-48.262c-48.015-63.283-77.187-109.401-86.702-137.071-11.347-33.012-10.061-88.645 18.388-138.519 19.831-34.761 60.344-79.667 140.74-96.202 74.311-15.283 143.999-.612 196.202 41.321 49.631 39.871 77.508 99.32 78.492 167.398.762 52.991-7.457 104.677-24.431 153.625-5.068 14.611-2.477 30.793 6.933 43.292 9.292 12.342 23.81 19.247 38.89 18.414l197.671-10.62-.857 6.051c-32.935 232.435-148.851 446.042-326.4 601.473-179.243 156.914-409.305 243.331-647.806 243.331m-21.484-10.296c7.368.164 14.573.245 21.483.245 480.143 0 893.216-356.415 963.378-830.109l-185.448 9.964-.268-5.019.268 5.019c-18.385.99-36.148-7.386-47.455-22.407-11.429-15.177-14.567-34.852-8.399-52.632 16.588-47.837 24.621-98.368 23.875-150.186-.939-65.027-27.481-121.745-74.737-159.706-49.828-40.023-116.551-53.986-187.885-39.312-76.713 15.779-115.229 58.379-134.03 91.336-26.895 47.146-28.227 99.398-17.613 130.27 9.037 26.285 38.5 72.711 85.203 134.264 12.816 16.889 15.24 39.33 6.324 58.563-8.592 18.539-25.639 30.247-45.6 31.32l-396.412 21.298 2.094 246.601c.098 11.53 6.698 21.994 17.658 27.99 11.7 6.403 25.684 6.154 36.501-.641 80.538-50.603 149.126-29.849 182.843-12.976 49.742 24.894 85.573 71.067 89.166 114.894 4.6 56.123-12.557 109.212-45.898 142.015-29.421 28.95-70.094 41.775-117.592 37.105-42.541-4.185-82.726-15.378-119.447-33.268-11.514-5.613-24.67-5.016-35.173 1.615-9.42 5.942-14.773 15.543-14.688 26.344zm-939.238-812.898 377.023 4.487c10.45.209 19.219 5.986 22.926 15.075 3.406 8.353 1.492 17.642-4.99 24.243-19.661 20.017-42.276 55.422-38.369 110.406 3.193 44.941 22.151 79.28 54.82 99.302 39.453 24.181 94.724 24.246 151.646.17 51.326-21.712 85.792-62.498 92.189-109.103 6.609-48.131-16.101-95.642-63.943-133.781l-11.609-9.253 353.717 7.105-19.504-329.63c-.739-12.486-7.646-22.906-18.47-27.875-9.943-4.561-21.146-3.28-29.97 3.44-36.58 27.875-99.033 57.058-188.876 37.751-59.833-12.855-103.179-42.433-128.834-87.912-34.908-61.875-28.135-139.41-11.73-187.006 12.859-37.316 61.97-77.017 119.427-96.544 37.666-12.803 111.182-27.456 180.389 18.257 9.659 6.379 21.385 6.756 31.354 1.004 10.65-6.14 16.791-17.915 16.036-30.731l-21.889-439.223c-499.002 50.498-874.631 466.131-874.631 968.95.001 53.709 4.471 107.81 13.288 160.868" style="fill:#fff"/><linearGradient id="A" x1="1369.205" x2="2253.73" y1="2559.816" y2="1260.669" gradientUnits="userSpaceOnUse"><stop offset="0" style="stop-color:#fe7062"/><stop offset="1" style="stop-color:#ff928e"/></linearGradient><path d="M1930.367 2568.74c28.959 14.111 68.484 27.94 117.734 32.787 113.761 11.192 165.591-81.008 157.99-173.709-6.544-79.845-132.13-181.124-264.326-98.073-25.863 16.254-61.608-2.127-61.858-31.561l-2.281-268.705-342.279-6.873c106.289 84.732 78.167 205.934-29.42 251.44-108.001 45.679-205.74 4.553-213.437-103.742-3.936-55.393 17.812-91.902 39.795-114.286 11.501-11.709 2.802-30.425-14.41-30.77l-381.222-4.539c77.348 453.27 466.218 800.29 938.509 812.828l-1.886-232.278c-.222-27.79 30.566-45.44 57.091-32.519" style="fill:url(#A)"/><path d="M1875.166 2838.564c-.046 0-.088 0-.134-.002-467.936-12.423-864.665-356.026-943.331-817.007a5.02 5.02 0 0 1 1.132-4.109c.968-1.135 2.421-1.827 3.88-1.762l381.224 4.538c10.45.209 19.219 5.986 22.926 15.075 3.406 8.353 1.492 17.642-4.99 24.243-19.661 20.017-42.276 55.422-38.369 110.406 3.193 44.941 22.151 79.28 54.82 99.302 39.453 24.181 94.724 24.246 151.646.17 51.326-21.712 85.792-62.498 92.189-109.103 6.609-48.131-16.101-95.642-63.943-133.781a5.03 5.03 0 0 1-1.597-5.636 5.03 5.03 0 0 1 4.829-3.317l342.279 6.874a5.024 5.024 0 0 1 4.924 4.981l2.281 268.705c.098 11.53 6.698 21.994 17.658 27.99 11.697 6.4 25.684 6.156 36.501-.641 80.538-50.603 149.123-29.853 182.846-12.976 49.739 24.894 85.57 71.067 89.162 114.894 4.6 56.123-12.557 109.212-45.898 142.015-29.421 28.95-70.094 41.775-117.592 37.105-42.541-4.185-82.726-15.378-119.447-33.268-11.514-5.613-24.67-5.013-35.173 1.615-9.42 5.942-14.773 15.543-14.688 26.344l1.888 232.28a5.04 5.04 0 0 1-1.505 3.627 5.02 5.02 0 0 1-3.518 1.438m-932.524-812.757c79.935 451.588 468.557 787.939 927.456 802.555l-1.845-227.063c-.115-14.146 7.13-27.202 19.376-34.927 13.47-8.494 30.272-9.295 44.939-2.15 35.641 17.367 74.678 28.235 116.024 32.303 44.436 4.363 82.331-7.476 109.559-34.267 31.243-30.738 47.292-80.842 42.93-134.03-3.262-39.823-37.659-83.711-83.643-106.727-31.835-15.929-96.625-35.485-173.001 12.499-13.896 8.734-31.783 9.099-46.673.949-14.2-7.769-22.756-21.498-22.884-36.722l-2.238-263.822-323.236-6.492c43.215 38.798 63.288 85.858 56.712 133.768-6.887 50.153-43.608 93.889-98.235 116.993-59.941 25.356-118.557 25.043-160.81-.855-35.045-21.48-56.211-59.537-59.594-107.159-4.172-58.722 20.112-96.67 41.223-118.164 3.681-3.746 4.748-8.757 2.853-13.403-1.698-4.165-6.207-8.669-13.778-8.821z" style="fill:#fff"/><linearGradient id="B" x1="1468.505" x2="2880.671" y1="1461.23" y2="1461.23" gradientUnits="userSpaceOnUse"><stop offset="0" style="stop-color:#fe7062"/><stop offset="1" style="stop-color:#ff928e"/></linearGradient><path d="M1773.985 1359.062c-116.788-77.144-269.582 9.826-292.293 75.731-26.921 78.109-26.327 233.304 136.871 268.368 85.858 18.443 146.44-7.622 184.773-36.835 22.774-17.353 54.753-1.415 56.503 28.137l20.839 352.164 398.306-21.402c39.544-2.126 60.133-49.415 35.54-81.826-35.163-46.344-74.593-102.63-85.953-135.668-21.735-63.227 6.323-197.505 155.384-228.163 150.425-30.941 266.668 66.161 268.659 203.868.893 61.952-10.91 113.724-24.153 151.905-11.936 34.411 15.126 70.292 50.839 68.373l191.567-10.293c6.414-45.269 9.805-91.512 9.805-138.552 0-438.684-288.534-809.963-686.172-934.458-.393.101-.795.23-1.169.264l-2.669-1.453c-91.356-28.188-188.413-43.388-289.025-43.388-31.925 0-63.477 1.581-94.619 4.568l22.147 444.444c1.825 30.885-30.4 50.581-55.18 34.216" style="fill:url(#B)"/><path d="M1880.673 2051.652a5.023 5.023 0 0 1-5.012-4.729l-20.839-352.165c-.739-12.486-7.646-22.906-18.47-27.875-9.943-4.561-21.146-3.28-29.97 3.44-36.58 27.875-99.033 57.058-188.876 37.751-59.833-12.855-103.179-42.433-128.834-87.912-34.908-61.875-28.135-139.41-11.73-187.006 12.859-37.316 61.97-77.017 119.427-96.544 37.666-12.803 111.182-27.454 180.389 18.257 9.659 6.379 21.385 6.756 31.354 1.004 10.65-6.14 16.791-17.915 16.036-30.731l-22.151-444.491a5.025 5.025 0 0 1 4.538-5.253c31.773-3.046 63.769-4.59 95.101-4.59 98.978 0 196.719 14.673 290.508 43.613.317.098.628.227.919.388l1.083.589a5.1 5.1 0 0 1 1.855.216c98.785 30.929 191.775 77.205 276.383 137.545 83.512 59.555 156.972 131.438 218.343 213.654 127.548 170.869 194.969 374.216 194.969 588.056 0 46.255-3.314 93.106-9.852 139.256a5.03 5.03 0 0 1-4.708 4.314l-191.569 10.293c-18.385.99-36.148-7.386-47.455-22.407-11.426-15.177-14.567-34.852-8.399-52.632 16.588-47.837 24.621-98.368 23.875-150.186-.939-65.027-27.481-121.745-74.737-159.706-49.828-40.023-116.551-53.986-187.885-39.312-76.713 15.779-115.229 58.379-134.03 91.336-26.895 47.146-28.227 99.398-17.613 130.27 9.037 26.283 38.5 72.711 85.203 134.264a57.02 57.02 0 0 1 6.324 58.563c-8.592 18.539-25.639 30.247-45.6 31.32l-398.307 21.401q-.134.01-.27.009m-56.532-397.541c5.526 0 11.095 1.201 16.402 3.637 14.046 6.447 23.361 20.4 24.31 36.416l20.544 347.175 393.317-21.133c16.179-.869 30.016-10.405 37.018-25.508a46.99 46.99 0 0 0-5.216-48.262c-48.015-63.283-77.187-109.401-86.702-137.071-11.347-33.012-10.061-88.645 18.388-138.519 19.831-34.761 60.344-79.667 140.74-96.202 74.311-15.283 143.999-.612 196.202 41.321 49.631 39.87 77.508 99.32 78.492 167.398.762 52.991-7.457 104.677-24.431 153.625-5.068 14.611-2.477 30.793 6.933 43.292 9.292 12.342 23.81 19.247 38.89 18.414l187.433-10.071c6.093-44.359 9.181-89.337 9.181-133.755 0-427.78-273.739-801.043-681.348-929.255a7 7 0 0 1-.504.065 5 5 0 0 1-2.863-.591l-2.228-1.212c-92.683-28.545-189.259-43.017-287.066-43.017-29.441 0-59.48 1.378-89.362 4.098l21.908 439.639c.982 16.593-7.083 31.932-21.048 39.984-13.346 7.694-29.012 7.202-41.919-1.325-65.618-43.343-135.692-29.333-171.611-17.127-53.845 18.298-101.435 56.276-113.161 90.302-15.725 45.625-22.285 119.826 10.981 178.794 24.182 42.865 65.294 70.799 122.195 83.024 86.087 18.494 145.772-9.325 180.67-35.92 7.139-5.435 15.449-8.216 23.855-8.216" style="fill:#fff"/><linearGradient id="C" x1="2659.812" x2="2988.154" y1="468.209" y2="1212.002" gradientUnits="userSpaceOnUse"><stop offset="0" style="stop-color:#4f52ff"/><stop offset="1" style="stop-color:#4042e2"/></linearGradient><path d="M2830.034 1383.579s-153.098-447.151-43.451-533.816c0 0 164.333-26.512 283.824 18.803v440.565c.001-.001-110.803 102.862-240.373 74.448" style="fill:url(#C)"/><linearGradient id="D" x1="2819.128" x2="2968.401" y1="781.593" y2="781.593" gradientUnits="userSpaceOnUse"><stop offset="0" style="stop-color:#febbba"/><stop offset="1" style="stop-color:#ff928e"/></linearGradient><path d="M2819.128 769.095s21.347 51.85 26.786 92.616c1.597 11.966 10.852 21.385 22.76 23.364 25.515 4.239 67.807 6.603 93.542-16.877 5.71-5.209 7.649-13.396 5.049-20.674-10.599-29.67-65.702-153.206-95.724-172.147z" style="fill:url(#D)"/><linearGradient id="E" x1="3021.623" x2="2772.862" y1="1076.313" y2="1299.161" gradientUnits="userSpaceOnUse"><stop offset="0" style="stop-color:#febbba"/><stop offset="1" style="stop-color:#ff928e"/></linearGradient><path d="M2890.186 1176.436c17.075-18.612-45.949 54.118-46.056 54.31-28.968 51.83-93.697 70.465-93.697 70.465s-24.957-41.489-56.979-42.842c-23.324-.986-53.232 26.417-67.761 41.379-4.521 4.655-3.298 12.332 2.418 15.403l59.947 32.204s181.228 10.182 274.102-86.38c-16.419-60.135-48.316-82.376-71.974-84.539" style="fill:url(#E)"/><linearGradient id="F" x1="3018.593" x2="3206.216" y1="740.08" y2="-794.409" gradientUnits="userSpaceOnUse"><stop offset="0" style="stop-color:#4f52ff"/><stop offset="1" style="stop-color:#4042e2"/></linearGradient><path d="M3070.408 868.566c-88.047 31.22-91.801 188.899-91.801 188.899s-68.069 83.128-134.85 161.58c-2.343 2.752-.679 6.968 2.904 7.438 24.252 3.178 63.021 13.524 79.559 60.048 1.2 3.376 5.26 4.315 8.028 2.038a9 9 0 0 1 1.141-.803c257.439-151.819 135.019-419.2 135.019-419.2" style="fill:url(#F)"/><linearGradient id="G" x1="9718.763" x2="9522.967" y1="639.511" y2="898.533" gradientTransform="matrix(-1 0 0 1 12480.049 0)" gradientUnits="userSpaceOnUse"><stop offset="0" style="stop-color:#febbba"/><stop offset="1" style="stop-color:#ff928e"/></linearGradient><path d="M2722.862 638.379c0 2.581 57.657 163.218 57.657 163.218l91.022-34.87-32.027-160.37s-116.652-11.193-116.652 32.022" style="fill:url(#G)"/><linearGradient id="H" x1="2824.987" x2="2716.231" y1="504.147" y2="1037.73" gradientUnits="userSpaceOnUse"><stop offset="0" style="stop-color:#09005d"/><stop offset="1" style="stop-color:#1a0f91"/></linearGradient><path d="m2823.548 645.426 23.47 83.101c.301 1.066.455 2.139.457 3.247.009 6.778-1.669 30.1-25.426 26.928-21.555-2.878-41.271-5.184-53.808.72-5.629 2.651-8.322 9.129-6.218 14.984 5.242 14.594 17.663 47.261 32.785 73.995 3.069 5.425 9.799 7.535 15.473 4.954 17.095-7.777 52.69-25.19 78.045-45.905 3.435-2.808 5.086-7.222 4.268-11.583-3.989-21.258-15.871-85.914-16.396-104.443-.492-17.392 19.023-30.669 27.615-35.66a11.85 11.85 0 0 0 5.584-7.497c2.697-11.195 4.985-36.529-27.33-42.112a12.08 12.08 0 0 1-9.8-14.367c2.735-13.388 1.86-33.09-23.563-40.346-25.841-7.375-42.101 8.179-50.371 20.107-3.344 4.823-9.601 6.387-14.959 3.993-3.05-1.363-6.735-1.423-10.695 1.916-5.336 4.499-13.459 3.13-17.381-2.644-7.535-11.091-21.224-22.162-44.398-14.664-41.123 13.305-39.156 60.718-24.082 86.493 15.074 25.776 58.838 8.816 79.556-8.265 15.752-12.987 39.737-5.218 50.33-.748 3.354 1.417 5.854 4.292 6.844 7.796" style="fill:url(#H)"/><linearGradient id="I" x1="9439.904" x2="9592.215" y1="841.765" y2="685.498" gradientTransform="matrix(-1 0 0 1 12480.049 0)" gradientUnits="userSpaceOnUse"><stop offset="0" style="stop-color:#febbba"/><stop offset="1" style="stop-color:#ff928e"/></linearGradient><path d="M2879.848 722.356s-19.744-46.627-3.651-61.084 38.547-9.494 37.813 26.508c-.911 44.78-34.162 34.576-34.162 34.576" style="fill:url(#I)"/><linearGradient id="J" x1="2783.468" x2="2999.559" y1="2348.747" y2="2926.666" gradientUnits="userSpaceOnUse"><stop offset="0" style="stop-color:#09005d"/><stop offset="1" style="stop-color:#1a0f91"/></linearGradient><path d="M2725.182 2477.434s-29.517-116.192 105.369-89.174c0 0 64.72-12.541 69.833 48.743 0 0 42.732 26.389 13.604 80.413 0 0 123.166-51.787 180.661 55.813s9.369 169.154-42.477 186.343c0 0 43.004 20.031 24.359 68.666s-119.232 85.491-180.959 28.832c0 0-170.084 27.59-170.217-93.118 0 0-80.927-48.948-.447-151.076 80.48-102.129.274-135.442.274-135.442" style="fill:url(#J)"/><linearGradient id="K" x1="3013.147" x2="3696.63" y1="2777.578" y2="2107.497" gradientUnits="userSpaceOnUse"><stop offset="0" style="stop-color:#ff928e"/><stop offset="1" style="stop-color:#fe7062"/></linearGradient><path d="M2725.804 2748.754c26.684-8.864 104.632-26.073 181.218 40.54 12.989 11.298 18.679 28.877 14.657 45.616-17.856 74.317-65.786 270.27-16.682 363.155 0 0-91.268 57.413-175.74 27.441 0 0-38.045-154.526-92.64-229.447-37.692-51.725 51.79-199.927 74.479-235.762 3.435-5.427 8.613-9.518 14.708-11.543" style="fill:url(#K)"/><linearGradient id="L" x1="2960.544" x2="2652.306" y1="1827.195" y2="3415.291" gradientUnits="userSpaceOnUse"><stop offset="0" style="stop-color:#c4421b"/><stop offset="1" style="stop-color:#5c0e16"/></linearGradient><path d="M2795.826 2600.089s43.131 111.449 47.589 161.044c0 0-43.417 21.305-85.875-11.248 0 0-7.661-112.361-14.542-132.319z" style="fill:url(#L)"/><linearGradient id="M" x1="3077.002" x2="3217.718" y1="1848.188" y2="1501.982" gradientTransform="rotate(14.53 -68.131 807.493)" gradientUnits="userSpaceOnUse"><stop offset="0" style="stop-color:#c4421b"/><stop offset="1" style="stop-color:#5c0e16"/></linearGradient><path d="M2736.002 2448.161s-99.85 148.803-36.353 189.302 134.583-65.252 134.583-65.252 21.817-80.479-4.247-106.795-93.983-17.255-93.983-17.255" style="fill:url(#M)"/><linearGradient id="N" x1="2763.425" x2="2979.516" y1="2356.241" y2="2934.158" gradientUnits="userSpaceOnUse"><stop offset="0" style="stop-color:#09005d"/><stop offset="1" style="stop-color:#1a0f91"/></linearGradient><path d="M2783.179 2411.915s-47.507 12.744-53.575 34.588 69.071 39.722 89.988 40.089l19.402 86.854s47.335-83.635 26.229-130.512c-21.105-46.877-82.044-31.019-82.044-31.019" style="fill:url(#N)"/><linearGradient id="O" x1="3149.474" x2="3290.19" y1="1877.643" y2="1531.437" gradientTransform="rotate(14.53 -68.131 807.493)" gradientUnits="userSpaceOnUse"><stop offset="0" style="stop-color:#c4421b"/><stop offset="1" style="stop-color:#5c0e16"/></linearGradient><path d="M2813.728 2562.081s39.153-48.136 56.176-18.007-34.907 54.654-53.561 40.164z" style="fill:url(#O)"/><linearGradient id="P" x1="3333.655" x2="3953.205" y1="1067.426" y2="242.605" gradientTransform="rotate(28.967 -61.09 826.803)" gradientUnits="userSpaceOnUse"><stop offset="0" style="stop-color:#c4421b"/><stop offset="1" style="stop-color:#5c0e16"/></linearGradient><path d="M2310.009 2600.271s17.672 23.349 27.603 22.931c25.74-1.083 72.806 1.305 91.906 19.846 26.47 25.693 40.819 104.984 66.901 169.7s136.302 138.372 205.109 110.53 106.354-151.388 171.752-155.298 62.473 112.331 7.39 151.77c-35.727 25.58-210.041 163.557-343.116 67.443s-133.875-289.144-133.875-289.144-43.383-17.599-65.563-31.746c-22.178-14.147-28.107-66.032-28.107-66.032" style="fill:url(#P)"/><linearGradient id="Q" x1="1492.477" x2="578.93" y1="975.463" y2="1180.956" gradientUnits="userSpaceOnUse"><stop offset="0" style="stop-color:#febbba"/><stop offset="1" style="stop-color:#ff928e"/></linearGradient><path d="M686.671 988.304s-2.303 49.525 36.918 228.042c41.447 188.65 371.701 96.392 371.701 96.392l-7.216-46.189s-226.941 2.558-257.263-42.878c-22.24-33.326-23.209-117.891-20.507-159.875 1.342-20.857-50.926-171.085-103.424-159.978-14.69 16.71-20.971 45.527-20.209 84.486" style="fill:url(#Q)"/><linearGradient id="R" x1="1021.067" x2="1664.347" y1="1378.65" y2="735.37" gradientUnits="userSpaceOnUse"><stop offset="0" style="stop-color:#febbba"/><stop offset="1" style="stop-color:#ff928e"/></linearGradient><path d="M1086.252 1329.01s-11.476-47.188-6.847-63.93 13.598-38.266 43.493-33.483 65.16 17.377 65.16 17.377-1.781 21.807-24.502 14.771l14.089 10.902s-2.013 17.461-21.205 8.132l13.104 14.458s-8.242 14.34-22.362 5.142c-14.118-9.197-20.887 32.313-60.93 26.631" style="fill:url(#R)"/><linearGradient id="S" x1="1184.639" x2="988.662" y1="3235.8" y2="4135.29" gradientTransform="rotate(8.15 -519.19 802.995)" gradientUnits="userSpaceOnUse"><stop offset="0" style="stop-color:#4f52ff"/><stop offset="1" style="stop-color:#4042e2"/></linearGradient><path d="M1445.142 2749.138s-363.98 53.48-511.823-112.542c-151.972-115.622-254.299 30.225-103.718 124.062 0 0 279.433 257.056 609.164 25.426z" style="fill:url(#S)"/><linearGradient id="T" x1="1722.122" x2="2050.37" y1="2398.617" y2="1800.859" gradientTransform="rotate(8.15 -519.19 802.995)" gradientUnits="userSpaceOnUse"><stop offset="0" style="stop-color:#febbba"/><stop offset="1" style="stop-color:#ff928e"/></linearGradient><path d="M1438.765 2786.084s46.016-7.212 37.984-50.634c-8.459-45.729 48.305-55.983 23.944-92.385-1.789-2.674-5.162-3.816-8.144-2.608-18.347 7.435-81.888 39.306-71.025 120.763z" style="fill:url(#T)"/><linearGradient id="U" x1="194.19" x2="53.186" y1="2809.873" y2="2647.671" gradientTransform="rotate(-25.217 -436.543 756.51)" gradientUnits="userSpaceOnUse"><stop offset="0" style="stop-color:#febbba"/><stop offset="1" style="stop-color:#ff928e"/></linearGradient><path d="M974.071 2231.549s84.061 136.142 31.317 183.138-145.486-79.701-145.486-79.701-25.088-153.988 114.169-103.437" style="fill:url(#U)"/><linearGradient id="V" x1="14.25" x2="264.429" y1="2682.024" y2="2682.024" gradientTransform="rotate(-25.217 -436.543 756.51)" gradientUnits="userSpaceOnUse"><stop offset="0" style="stop-color:#09005d"/><stop offset="1" style="stop-color:#1a0f91"/></linearGradient><path d="M891.656 2364.098c-.975 3.634-24.362 37.636-57.563 13.57s-25.309-53.194 2.983-68.329c0 0-22.895-3.221-16.897-24.017s25.196-15.082 25.196-15.082-41.039-113.177 62.058-126.541 106.786 47.239 105.828 66.239-37.601 59.466-99.564 53.593c0 0 18.61 10.069 10.676 32.413s-44.557 44.348-44.557 44.348z" style="fill:url(#V)"/><linearGradient id="W" x1="151.489" x2="10.484" y1="2846.991" y2="2684.789" gradientTransform="rotate(-25.217 -436.543 756.51)" gradientUnits="userSpaceOnUse"><stop offset="0" style="stop-color:#febbba"/><stop offset="1" style="stop-color:#ff928e"/></linearGradient><path d="M913.058 2358.081s-26.21-41.968-43.864-18.005c-22.748 30.877 37.03 36.86 37.03 36.86z" style="fill:url(#W)"/></svg>