<?xml version="1.0" ?><!-- Uploaded to: SVG Repo, www.svgrepo.com, Generator: SVG Repo Mixer Tools -->
<svg width="800px" height="800px" viewBox="0 0 32 32" id="object" xmlns="http://www.w3.org/2000/svg"><defs><style>.cls-1{fill:#798bc6;}.cls-2{fill:#6d6daa;}.cls-3{fill:#d6b5b0;}.cls-4{fill:#ff9797;}.cls-5{fill:#ffc661;}</style></defs><title/><rect class="cls-1" height="10" width="4" x="14" y="6"/><path class="cls-2" d="M18,17H14a1,1,0,0,1-1-1V6a1,1,0,0,1,1-1h4a1,1,0,0,1,1,1V16A1,1,0,0,1,18,17Zm-3-2h2V7H15Z"/><rect class="cls-3" height="4" width="28" x="2" y="26"/><path class="cls-2" d="M30,31H2a1,1,0,0,1-1-1V26a1,1,0,0,1,1-1H30a1,1,0,0,1,1,1v4A1,1,0,0,1,30,31ZM3,29H29V27H3Z"/><path class="cls-4" d="M16,10h0A12,12,0,0,1,28,22v4a0,0,0,0,1,0,0H4a0,0,0,0,1,0,0V22A12,12,0,0,1,16,10Z"/><path class="cls-2" d="M28,27H4a1,1,0,0,1-1-1V22a13,13,0,0,1,26,0v4A1,1,0,0,1,28,27ZM5,25H27V22A11,11,0,0,0,5,22Z"/><rect class="cls-5" height="4" width="10" x="11" y="2"/><path class="cls-2" d="M21,7H11a1,1,0,0,1-1-1V2a1,1,0,0,1,1-1H21a1,1,0,0,1,1,1V6A1,1,0,0,1,21,7ZM12,5h8V3H12Z"/></svg>