<svg xmlns="http://www.w3.org/2000/svg" id="object" width="800" height="800" viewBox="0 0 32 32"><defs><style>.cls-2{fill:#6d6daa}</style></defs><path d="M14 6h4v10h-4z" style="fill:#798bc6"/><path d="M18 17h-4a1 1 0 0 1-1-1V6a1 1 0 0 1 1-1h4a1 1 0 0 1 1 1v10a1 1 0 0 1-1 1m-3-2h2V7h-2Z" class="cls-2"/><path d="M2 26h28v4H2z" style="fill:#d6b5b0"/><path d="M30 31H2a1 1 0 0 1-1-1v-4a1 1 0 0 1 1-1h28a1 1 0 0 1 1 1v4a1 1 0 0 1-1 1M3 29h26v-2H3Z" class="cls-2"/><path d="M16 10a12 12 0 0 1 12 12v4H4v-4a12 12 0 0 1 12-12" style="fill:#ff9797"/><path d="M28 27H4a1 1 0 0 1-1-1v-4a13 13 0 0 1 26 0v4a1 1 0 0 1-1 1M5 25h22v-3a11 11 0 0 0-22 0Z" class="cls-2"/><path d="M11 2h10v4H11z" style="fill:#ffc661"/><path d="M21 7H11a1 1 0 0 1-1-1V2a1 1 0 0 1 1-1h10a1 1 0 0 1 1 1v4a1 1 0 0 1-1 1m-9-2h8V3h-8Z" class="cls-2"/></svg>