<?xml version="1.0" encoding="utf-8"?>
<!-- Generator: Adobe Illustrator 27.5.0, SVG Export Plug-In . SVG Version: 6.00 Build 0)  -->
<svg version="1.1" id="Layer_1" xmlns="http://www.w3.org/2000/svg" xmlns:xlink="http://www.w3.org/1999/xlink" x="0px" y="0px"
	 viewBox="0 0 2000 2000" style="enable-background:new 0 0 2000 2000;" xml:space="preserve">
<rect style="fill:#FFFFFF;" width="2000" height="2000"/>
<g>
	<path style="fill:#FFFFFF;" d="M414.35,725.081c3.72-10.951,14.21-19.25,24.93-22.982c4.942-2.003,6.153,5.943,1.673,7.176
		c-8.772,2.652-17.247,7.738-21.925,15.849C418.885,728.284,414.02,728.582,414.35,725.081z"/>
	<path style="fill:#FFFFFF;" d="M446.302,724.564c4.755-2.796,7.396,4.777,3.181,7.077c-7.507,5.173-13.208,12.68-17.368,20.714
		c-0.286,1.332-1.739,2.312-3.027,1.772C424.85,747.942,440.458,728.306,446.302,724.564z"/>
	<path style="fill:#FFFFFF;" d="M464.672,532.93c-7.638-7.628,19.591-3.841,23.114-4.612c3.588,0.363,10.984-0.748,10.28,4.799
		c-0.275,1.706-1.816,3.588-3.698,3.522c-9.928-0.759-19.867-2.146-29.707-3.698C464.661,532.941,464.661,532.93,464.672,532.93z"/>
	<path style="fill:#FFFFFF;" d="M461.909,606.63c-3.984-7.297,10.467-6.725,14.529-8.893c5.316-0.264,22.123-9.785,23.422-2.08
		c0.187,1.992-1.068,4.094-3.005,4.7c-10.126,3.28-20.538,5.085-31.115,5.966C464.859,607.565,462.922,607.939,461.909,606.63z"/>
	<path style="fill:#FFFFFF;" d="M518.318,461.443c-2.554-10.17,17.886,12.426,18.964,14.782c2.531,3.071-2.256,8.299-5.118,4.909
		C527.618,474.562,524.69,466.572,518.318,461.443z"/>
	<path style="fill:#FFFFFF;" d="M542.532,549.297c-5.294-40.328,50.575-54.284,77.739-33.592
		c17.786,13.153,13.164,42.672-5.063,53.426c-0.121,0.088-0.242,0.176-0.363,0.253c-8.167,4.722-14.562,11.634-16.201,21.188
		c-3.302,8.376-0.451,24.534-10.082,26.185c-0.528,3.984-2.289,8.585-2.3,11.491c0.033-0.165,0.077-0.319,0.11-0.484
		c-1.376,9.642-7.958,19.47-18.909,16.653c-10.918-0.583-11.381-12.789-9.202-21.022c0.958-3.126,1.057-6.813,2.267-9.895
		c-2.047-1.398-2.696-3.588-0.77-7.077C562.388,577.275,544.689,574.909,542.532,549.297z"/>
	<path style="fill:#FFFFFF;" d="M623.903,469.246c1.563-7.044,6.527-12.833,8.497-19.713c0.462-2.157,3.797-2.388,3.973,0.033
		c0,0,0,0,0.011,0c0,0.011,0,0.011,0,0.011c-0.594,6.978-4.436,13.307-5.129,20.318
		C630.705,474.948,622.957,474.705,623.903,469.246z"/>
	<path style="fill:#FFFFFF;" d="M625.026,613.663c4.821,2.521,8.057,7.892,13.274,10.203c11.832,4.832,6.846,14.055,0.902,10.665
		c-5.778-4.986-10.511-10.841-14.76-17.148C622.968,616.491,622.913,613.883,625.026,613.663z"/>
	<path style="fill:#FFFFFF;" d="M655.261,580.995c-3.577-9.994,13.637-1.761,18.073-1.431c5.063,2.345,18.513,4.205,15.992,11.854
		c-0.815,1.827-2.972,3.379-5.008,2.741C674.94,589.14,664.902,585.134,655.261,580.995z"/>
	<path style="fill:#FFFFFF;" d="M667.94,520.118c10.038-2.179,19.581-6.813,29.883-7.705c3.588-0.099,4.424,4.832,2.091,6.945
		c-2.267,2.069-5.745,1.189-8.563,1.574c-6.846,0.143-13.56,1.893-20.417,1.948c-1.343-0.165-2.763-0.066-4.05-0.484
		C665.585,521.703,666.609,519.909,667.94,520.118z"/>
	<path style="fill:#FFFFFF;" d="M770.048,455.829c-5.547-5.624-5.734-16.114-4.303-23.653c1.222-2.917,1.343-13.857,5.701-12.415
		c0.374,5.25-2.774,11.359-2.069,17.137C767.758,442.489,779.546,455.422,770.048,455.829z"/>
	<path style="fill:#FFFFFF;" d="M785.776,445.637c0.451-6.538,1.739-21.958,8.222-24.677c1.827,0.231,1.695,2.95,0.22,3.577
		c-2.652,6.119-3.522,13.219-2.774,19.834C792.094,447.971,786.172,449.82,785.776,445.637z"/>
	<path style="fill:#FFFFFF;" d="M835.184,426.244c-0.088,0.242-0.176,0.484-0.275,0.727c7.463-27.241,52.743-58.159,75.384-31.49
		c5.437-47.394,62.847-69.374,105.167-63.078c30.95,3.874,50.135,32.921,53.492,62.132c14.396-23.664,44.686-33.592,70.651-24.786
		c33.537,13.747,52.303,52.6,53.458,87.48v0.143c2.047,82.45-106.025,87.216-166.66,85.785
		c-49.859-2.124-103.34-2.719-148.147-27.131c-0.143-0.077-0.286-0.154-0.429-0.231c-0.847-0.473-1.695-0.936-2.532-1.409
		C844.54,498.215,823.033,460.606,835.184,426.244z"/>
	<path style="fill:#FFFFFF;" d="M1204.574,507.604c-3.423-5.911,10.225-10.952,11.81-17.445c1.981-3.104,2.003-7.198,3.929-10.181
		c3.335-0.803,0.396,8.86,0.077,10.764C1218.915,495.244,1210.242,512.568,1204.574,507.604z"/>
	<path style="fill:#FFFFFF;" d="M1246.398,489.619c-0.044,0.099-0.077,0.198-0.11,0.297c0.814-2.223,1.156-4.579,1.706-6.857
		c0.583-0.429,1.057-0.627,1.431-0.627c5.36,0-8.222,39.69-15.046,32.844C1227.819,509.431,1245.771,497.83,1246.398,489.619z"/>
	<path style="fill:#FFFFFF;" d="M1224.716,654.277c6.384-15.134,6.912-37.235,21.903-48.352c8.508-6.747,20.45-5.536,29.354-11.623
		c7.782-2.234,6.329-14.055,13.494-11.524c4.391,3.819,1.959,11.073,1.816,16.18c6.692,35.518-16.62,49.243-47.966,53.513
		c-3.885,1.211-7.925,2.157-11.524,4.105c-2.014,1.068-4.072,3.951-6.483,2.124C1223.978,657.667,1223.901,655.664,1224.716,654.277
		z"/>
	<path style="fill:#FFFFFF;" d="M1366.776,892.171c-2.917,3.28-5.294,7.033-7.275,10.94c-2.179,3.28-1.585,10.633-6.747,10.445
		c-7.55-3.676,8.354-25.458,13.681-27.747C1371.311,884.907,1370.332,890.939,1366.776,892.171z"/>
	<path style="fill:#FFFFFF;" d="M1302.51,361.438c-1.574-3.599,1.134-7.903,2.267-11.392c0.749-15.167,5.074-30.851,20.054-37.598
		c12.217-4.348,13.648-16.4,18.546-26.658c2.95-5.492,18.15-19.206,23.664-12.955c4.898,2.179,1.035,9.52,3.357,13.725
		c-0.033-0.176-0.077-0.352-0.11-0.528c2.664,11.018,6.472,22.299,4.282,33.757c-0.055,0.308-0.11,0.627-0.165,0.925
		c0.033-0.165,0.066-0.341,0.088-0.517c-5.635,30.785-32.59,30.169-57.234,35.771
		C1312.107,356.363,1307.341,365.466,1302.51,361.438z"/>
	<path style="fill:#FFFFFF;" d="M1386.731,889.717c-0.066-0.011-0.143-0.022-0.198-0.033c4.039,0,2.828,6.373-0.804,5.734
		c-5.118,4.579-9.499,10.093-12.459,16.301c-0.694,2.113-2.323,4.48-4.832,3.995
		C1358.973,912.633,1381.371,889.034,1386.731,889.717z"/>
	<path style="fill:#FFFFFF;" d="M1503.885,607.587c0.066-0.099,0.143-0.209,0.22-0.319c-2.873,2.818-3.291,10.038-8.156,9.609
		c-8.618-3.61,15.618-26.812,21.044-26.328c3.247,0.187,2.091,5.206-0.814,4.788
		C1510.885,597.714,1507.209,602.997,1503.885,607.587z"/>
	<path style="fill:#FFFFFF;" d="M1490.38,510.543c0.275-5.14,8.266-2.663,11.623-5.228c4.931-1.926,9.796-4.006,14.738-5.922h0.011
		c2.08-1.2,4.964-0.958,5.558,1.739c0.308,8.145-15.915,7.584-21.705,10.137c0.022,0,0.044,0,0.066-0.011
		c-0.022,0.011-0.055,0.011-0.077,0.022c-0.055,0.011-0.121,0.022-0.176,0.044c-0.011,0-0.011,0-0.022,0
		C1497.457,511.522,1491.425,514.604,1490.38,510.543z"/>
	<path style="fill:#FFFFFF;" d="M1496.246,444.25c-0.352-5.272,24.115-2.432,28.044-1.332c4.392,1.343,1.893,8.585-2.344,7.473
		c-7.859-2.102-15.662-4.513-23.774-5.459C1497.523,445.582,1496.334,445.164,1496.246,444.25z"/>
	<path style="fill:#FFFFFF;" d="M1538.863,609.579c-0.474,1.431-2.697,1.981-3.357,0.418c-2.95,1.618-5.371,3.995-7.616,6.461
		c-0.011,0.011-0.011,0.011-0.022,0.022c-4.447,3.082-5.669,13.131-11.326,12.591
		C1504.38,624.416,1541.725,594.566,1538.863,609.579z"/>
	<path style="fill:#FFFFFF;" d="M1537.851,367.623c9.763,3.863,17.908,11.854,25.557,18.931c3.324,3.192-1.387,9.631-5.184,6.417
		c-6.406-6.362-11.788-13.758-18.491-19.856C1538.797,381.194,1531.83,367.194,1537.851,367.623z"/>
	<path style="fill:#FFFFFF;" d="M1592.212,502.046c-2.069-15.09-21.694-23.279-18.7-46.26c3.819-38.039,69.924-37.466,77.53-2.08
		c5.305,37.18-19.834,27.285-29.674,45.996c-4.733,13.208-2.267,23.422-6.901,27.846c-0.363,12.58-8.101,36.696-23.873,29.541
		c-6.186-2.718-3.632-18.799,0.396-27.924C1589.691,520.217,1591.177,510.983,1592.212,502.046z"/>
	<path style="fill:#FFFFFF;" d="M1661.773,356.165c1.156-1.519,0.649-4.392,2.708-5.008c0.947-0.154,1.772,0.683,1.684,1.629
		c-0.946,5.074-3.984,9.532-4.975,14.628c-0.649,2.642-0.583,7.187-4.348,6.967C1650.062,370.98,1660.254,360.898,1661.773,356.165z
		"/>
	<path style="fill:#FFFFFF;" d="M1674.728,516.409c5.096,4.028,11.524,8.024,17.159,12.129c3.742,2.642-0.705,9.355-4.392,6.219
		C1685.492,530.96,1667.793,519.315,1674.728,516.409z"/>
	<path style="fill:#FFFFFF;" d="M1691.612,424.318c-0.176-4.766,6.043-4.711,9.301-6.208c7.594-2.146,14.716-6.076,22.519-7.352
		c5.36-0.033,4.667,8.508-0.11,9.047C1717.466,418.947,1691.028,431.406,1691.612,424.318z"/>
	<path style="fill:#FFFFFF;" d="M1689.146,483.588c-1.068-6.263,5.206-3.687,8.574-2.499c6.956,3.566,31.622-1.354,28.309,10.819
		c-1.023,2.322-3.698,3.83-6.087,2.818C1710.246,489.949,1697.753,489.817,1689.146,483.588z"/>
	<path style="fill:#FFFFFF;" d="M1807.257,940.479c0.286-4.887,7.958-5.393,7.385,0.044
		C1814.356,945.41,1806.674,945.905,1807.257,940.479z"/>
	<path style="fill:#FFFFFF;" d="M1816.866,904.708c0.781-2.719,1.64-7,5.206-7c3.665,0.341,2.586,4.304,1.673,6.593
		c-1.145,4.05,0.055,11.777-5.69,12.184C1812.287,915.472,1816.227,908.318,1816.866,904.708z"/>
	<path style="fill:#FFFFFF;" d="M1818.88,876.19c-0.528-4.777-4.116-9.895-3.005-14.506c4.645-4.458,6.747,9.234,8.431,12.03
		C1825.517,876.982,1820.179,880.031,1818.88,876.19z"/>
	<path style="fill:#FFFFFF;" d="M1854.882,845.471c0.297-5.217,8.519-5.767,7.903,0.044
		C1862.477,850.743,1854.266,851.282,1854.882,845.471z"/>
	<path style="fill:#FFFFFF;" d="M1901.153,1278.236c-1.794-1.332-4.458-2.641-7.099-3.225c-0.121-0.033-0.242-0.066-0.363-0.088
		c-0.033-0.011-0.077-0.011-0.11-0.022c-0.132-0.022-0.253-0.044-0.385-0.066c-0.187-0.033-0.374-0.055-0.55-0.077
		c-0.925-0.11-1.827-0.132-2.675,0.011c-2.487,0.187-5.085,0.748-7.484,0.561c-62.396,1.486-124.803,3.247-187.188,5.382
		c1.706-3.082,1.805-8.046,2.598-11.084c11.755-46.987,22.96-94.062,32.811-141.511c0.044-0.187,0.088-0.374,0.132-0.561
		c0.231-0.991,0.474-1.992,0.705-2.994v-0.011c0.011-0.011,0.011-0.011,0.011-0.011c0.011-0.055,0.022-0.099,0.033-0.154
		c5.547-26.999,17.093-52.391,20.362-79.896c26.493-52.149,50.498-111.848,43.377-171.536c0.033,0.231,0.066,0.462,0.11,0.693
		c-4.975-49.958-52.897-39.26-88.998-35.749c5.426-8.937,11.667-25.689-0.803-31.456c-9.4-1.871-18.986,1.981-28.441,2.366
		c-3.511,0.716-8.035,0.077-11.799,0.837c2.994-15.971,4.975-32.106,7.352-48.164c0.847-0.297,1.673-0.649,2.487-1.002
		c1.717-0.705,3.423-1.464,5.019-2.41c0.044-0.022,0.088-0.055,0.132-0.077c0.022-0.011,0.055-0.033,0.077-0.044
		c9.873-4.788,11.711-18.843,2.234-25.04c4.59-9.433,8.222-19.35,12.404-28.98l0.011-0.011c7.044-11.436,30.246-57.608,1.849-54.328
		c0.341-1.112,0.65-2.223,0.892-3.379c0.011-0.044,0.011-0.077,0.022-0.11c0.011-0.055,0.022-0.11,0.033-0.165
		c0.044-0.209,0.077-0.396,0.121-0.605c0.452-2.432,0.463-4.931,0.308-7.374c0.011,0.088,0.011,0.187,0.022,0.275
		c-0.165-20.263-19.14-16.829-31.578-8.937c5.041-30.07-36.498-22.211-50.036-8.321c3.115-25.029-41.516-4.249-48.759,5.899
		c0.407-22.497-22.079-8.486-28.771,2.388c-10.786,12.977-16.73,30.565-15.783,47.416c-3.577,7.198-4.909,15.332-7.286,22.993
		c-3.005,1.211-5.184,5.822-1.904,7.925c-5.778,24.434-4.061,50.069-1.618,74.844c1.123,28.353,3.566,30.763,32.502,32.051
		c-0.462,5.371-1.409,10.83-2.3,16.312c-5.68-2.983-17.974,1.662-23.829,1.794c-16.675-0.264-21.375,7.198-22.167,23.169
		c-17.357,2.895-34.957,4.557-51.907,9.477c-30.488,12.228-53.756,39.15-65.236,69.561c-10.434,30.488-16.95,62.308-31.049,91.464
		c-9.708,22.145-19.537,45.094-35.551,63.485c-11.942,12.944-27.098,21.221-43.19,27.714c-2.487-6.56-4.601-16.906-9.422-20.296
		c-1.64-3.137-5.844-1.409-8.64-1.123c-9.202,0.198-18.425-0.275-27.626,0.451c-27.505-0.594-54.967,2.036-82.417,2.906
		c-33.207-0.231-66.545,2.135-99.235,7.98c-11.711-2.576-3.324,14.066-1.761,19.339c3.082,9.829,4.964,20.351,9.631,29.541
		c-1.233,0.87-1.915,2.466-1.882,3.984c-8.002,7.947-10.831,20.043,3.269,22.541c-6.307,7.341-4.788,17.841,5.9,19.107
		c-4.59,8.618-2.069,18.062,9.278,14.936c3.236,21.98,11.282,43.872,17.038,65.544c3.808,10.346,3.94,23.015,8.662,33.009
		c-61.108,2.587-122.26,3.698-183.39,5.404c-10.181,0.825-20.373,1.563-30.565,2.213c1.673-4.282,3.445-8.53,5.239-12.768
		c22.453-54.339,46.425-108.062,67.096-163.128c4.59-13.791,10.632-26.999,15.915-40.504c0.98-5.514,6.45-12.173,3.522-17.5
		c0.418-3.412,1.222-8.937-3.401-9.598c-9.378-1.244-18.931-0.308-28.375-1.023c-54.614-5.393-113.158-0.639-168.906,1.915
		c-1.046,0.077-2.08,0.154-3.115,0.231c0,0,0-0.011,0.011-0.011c-0.121,0.011-0.253,0.022-0.363,0.033
		c-9.939,0.418-19.724,2.212-29.585,3.214c-1.244-5.811-6.703,3.027-7.308,5.063c-10.137,23.378-18.491,48.12-25.976,73.072
		c-10.005,11.414-19.349,23.466-28.551,35.474c-1.266,2.521-6.054,8.783-11.469,16.125c12.944-72.83,24.402-146.2,24.06-220.361
		c-2.113-51.621-8.519-66.545-63.695-62c-6.923,0.165-13.835,0.859-20.747,0.815c0.099-0.286,0.176-0.583,0.231-0.88
		c1.629-6.351,5.041-12.691,5.349-19.261c15.673,2.873,31.963-0.605,37.444-18.172c-0.066,0.165-0.132,0.319-0.209,0.484
		c3.841-10.027,7.231-20.274,9.598-30.752c22.685-4.127,34.285-45.666,12.228-57.993c5.591-31.633,8.211-68.119-24.6-83.22
		c-1.86-1.354-3.973-2.443-6.131-3.357c-9.653-15.453-26.404-21.209-43.685-20.582c-6.736-1.145-14.209-1.09-23.301,0.517
		c-42.639-3.258-112.079,50.784-126.927,89.45c-4.072,10.533-6.406,21.661-8.486,32.722c-1.728,15.86-4.601,37.224-24.621,38.06
		c-9.884,1.244-21.089-0.836-29.663,5.239c-0.088,0.066-0.176,0.121-0.253,0.187c-0.077,0.055-0.154,0.099-0.22,0.154
		c-12.052,8.057-18.854,22.2-20.45,36.344c0.462,47.922-56.584,24.445-79.467,85.928c-5.911,13.461-3.852,28.166-4.568,42.386
		c-6.175,37.18-48.572,16.95-29.2,84.332c3.346,21.958-22.244,32.491-27.34,52.006c-11.656,29.564-0.957,67.096,30.092,79.225
		c17.17,6.043,33.713-2.708,44.477-15.981c-0.22,1.882-0.44,3.764-0.66,5.646c-2.993,36.663-23.367,105.927,24.567,120.037
		c25.051,4.557,48.671-9.553,72.093-16.499c-0.143,2.443,0.308,5.063-0.077,7.407c-0.121,4.479-0.396,9.058-0.275,13.593
		c-2.014,0.198-4.017,0.407-6.031,0.617c-40.295,0.781-80.501,1.068-120.62,5.613c-40.086,1.024-80.006,3.093-119.509,10.654
		c-2.201,0.781-26.526,4.491-39.238,7.87c-0.958-0.242-1.64,0.022-2.124,0.594c-4.546,1.343-6.857,2.609-4.667,3.577
		c0.704-0.088,1.409-0.176,2.113-0.275c-0.264,0.187-0.506,0.385-0.759,0.583c-3.225,3.632,0.616,13.747,2.41,21.319v0.011
		c1.001,20.395,3.632,40.966,11.083,59.919c30.389,61.174,100.622,88.173,165.175,94.48
		c111.155,16.246,217.357-31.027,323.933-54.922c0.121-0.033,0.253-0.055,0.374-0.088c36.497-9.366,73.964-14.275,111.375-18.315
		c-0.198,0.011-0.385,0.033-0.583,0.055c42.87-4.942,86.093-4.183,129.128-2.278c80.37,1.398,157.492,26.063,232.579,52.666
		c60.668,17.578,122.062,36.377,185.47,39.965c0.969-0.011,1.783-0.286,2.454-0.737c10.434,1.618,24.347,2.3,26.746,2.576
		c4.799,0.341,9.609,0.286,14.397-0.209c21.265-2.499,42.562-6.527,62.539-14.429c35.199-13.758,67.91-32.821,99.081-54.031
		c34.109-22.882,66.897-48.891,105.662-63.552c38.237-14.672,79.808-16.994,120.048-22.574c26.625-2.355,52.974-6.604,79.06-12.36
		c36.333-8.068,74.206-17.302,102.79-42.496C1895.584,1349.877,1916.86,1310.892,1901.153,1278.236z M1406.29,1131.915
		c-7.133,27.142,1.651,55.55-7.562,82.23c-4.359,19.063-8.376,38.16-12.504,57.278c0.011,0.33,0,0.682-0.033,1.046
		c-23.345,1.475-46.657,3.39-69.946,5.481c-6.637-24.522-13.857-48.88-20.835-73.292
		C1343.322,1190.91,1390.782,1161.06,1406.29,1131.915z"/>
	<g>
		<path style="fill:#F7941D;" d="M1602.371,976.811l0.033-0.385c0.066-0.627,0.143-1.244,0.231-1.871
			C1602.547,975.292,1602.459,976.052,1602.371,976.811z M1795.326,872.954c0.033,0.231,0.066,0.462,0.11,0.693
			c-4.975-49.958-52.897-39.26-88.998-35.749c5.426-8.937,11.667-25.689-0.803-31.456c-9.4-1.871-18.986,1.981-28.441,2.366
			c-3.511,0.716-8.035,0.077-11.799,0.837c-2.575,0.517-4.799,1.695-6.087,4.414c-1.607,7.187-3.302,15.068-1.695,22.398
			c-0.649,0.693-1.31,1.376-1.97,2.058c-33.713,34.572-81.426,52.05-115.865,85.994c-2.003-20.23-6.868-40.042-9.279-60.195
			c-0.143-1.188-0.286-2.388-0.407-3.588c5.019-0.572,8.629-1.717,11.172-3.39c2.223-1.453,3.632-3.302,4.425-5.525
			c1.772-4.909,0.583-11.579-1.123-19.592c-0.473-0.594-1.057-1.068-1.739-1.42c-5.68-2.983-17.974,1.662-23.829,1.794
			c-16.675-0.264-21.375,7.198-22.167,23.169c-17.357,2.895-34.957,4.557-51.907,9.477c-30.488,12.228-53.756,39.15-65.236,69.561
			c-10.434,30.488-16.95,62.308-31.049,91.464c-9.708,22.145-19.537,45.094-35.551,63.485
			c-11.942,12.944-27.098,21.221-43.19,27.714v0.011c-13.725,5.547-28.133,9.829-41.814,14.639
			c-26.933,7.672-60.481,38.115-33.933,64.751c22.53,19.526,62.044,19.052,101.26,7.793c47.911-13.747,95.371-43.597,110.88-72.742
			c-7.133,27.142,1.651,55.55-7.562,82.23c-4.359,19.063-8.376,38.16-12.504,57.278c0.011,0.33,0,0.682-0.033,1.046
			c-0.539,6.725-6.703,18.579,0.132,21.958c0.572,0.275,1.233,0.507,2.003,0.661c23.895-1.156,47.79-1.112,71.685-0.969
			c9.708,0.055,19.427,0.132,29.145,0.154c3.038,0.011,6.076,0.011,9.114,0c0.858,0.011,1.728,0,2.597,0
			c50.52-4.689,101.557-1.123,152.011-7.055c0.022,0,0.022,0,0.033,0c12.393-0.121,24.456-4.557,36.795-3.83
			c2.85,0.44,4.535-0.748,5.591-2.675c1.706-3.082,1.805-8.046,2.598-11.084c11.755-46.987,22.96-94.062,32.811-141.511
			c0.044-0.187,0.088-0.374,0.132-0.561c0.231-0.991,0.474-1.992,0.705-2.994v-0.011c0.011-0.011,0.011-0.011,0.011-0.011
			c0.011-0.055,0.022-0.099,0.033-0.154c5.547-26.999,17.093-52.391,20.362-79.896
			C1778.442,992.342,1802.447,932.642,1795.326,872.954z M1569.715,920.546c2.168-2.201,3.94-5.69,5.371-7.958
			c1.959-0.605,3.137,1.045,4.678,1.816c0.661,0.154,1.244,0.165,1.783,0.055h0.011c0.473-0.099,0.902-0.275,1.299-0.528
			c3.005-1.86,4.535-7.385,8.563-7.649c0.264-0.022,0.561-0.011,0.859,0.022c0.033,0.396,0.055,0.781,0.055,1.178v0.011
			c0.033,1.574-0.143,3.148-0.275,4.711c-0.011,0.066-0.011,0.132-0.022,0.209c0-0.055,0.011-0.11,0.011-0.165
			c-0.506,2.135,0.242,4.909,2.587,5.382c0.011,0,0.022,0.011,0.044,0.011c0.099,0.022,0.198,0.033,0.308,0.044
			c3.61,0.044,5.426-4.128,8.772-5.14c6.516,7.484-0.914,18.557-2.763,26.79c-5.382,15.816-8.211,32.436-9.972,49.012
			c-1.299,0.583-2.586,1.167-3.896,1.739c-15.696,6.901-31.886,12.9-46.404,22.046c-1.651,1.035-3.291,2.124-4.898,3.258
			c-0.044,0.022-0.077,0.044-0.121,0.077c-0.022-0.286-0.044-0.594-0.055-0.881c0,0-0.011-0.011,0-0.022
			c-0.209-3.39-0.066-6.78,0.242-10.17c0.011-0.055,0.011-0.099,0.011-0.154c1.596-19.063,9.135-37.026,16.224-54.603
			c4.127-9.422,4.667-20.032,9.509-29.167c3.06,3.159,5.668,2.411,7.87,0.286C1569.571,920.689,1569.649,920.623,1569.715,920.546z
			 M1717.191,1138.079c-0.242,1.057-0.484,2.124-0.727,3.181c0.242-1.09,0.495-2.19,0.738-3.28
			C1717.202,1138.013,1717.202,1138.046,1717.191,1138.079z"/>
		<path style="fill:#F7941D;" d="M608.703,910.938c0,0.33-0.011,0.649-0.033,0.969c-0.308,6.571-3.72,12.911-5.349,19.261
			c-0.055,0.297-0.132,0.594-0.231,0.88c-0.55,1.673-1.805,3.236-3.346,3.907c-0.826,0.374-1.75,0.484-2.674,0.22
			c-0.374-0.11-0.749-0.275-1.123-0.517c-1.365-0.913-1.893-2.498-2.091-4.094c-0.935,0.253-1.794,0.198-2.576-0.121
			c-0.451-0.176-0.88-0.44-1.277-0.771c-7.055-5.855-6.274-34.131,4.854-27.483c4.59-2.752,9.994,1.277,10.39,6.186
			c0.826-1.244,2.95-1.211,3.412,0.297C608.692,910.09,608.703,910.519,608.703,910.938z"/>
		<path style="fill:#F7941D;" d="M646.059,724.85c-0.869-0.969-1.86-1.827-2.928-2.598c-1.86-1.354-3.973-2.443-6.131-3.357
			c-1.717-0.726-3.467-1.354-5.173-1.926c-14.473-9.19-24.974-16.356-38.512-18.656c-6.736-1.145-14.209-1.09-23.301,0.517
			c-42.639-3.258-112.079,50.784-126.927,89.45c-4.072,10.533-6.406,21.661-8.486,32.722c-1.728,15.86-4.601,37.224-24.621,38.06
			c-9.884,1.244-21.089-0.836-29.663,5.239c-0.088,0.066-0.176,0.121-0.253,0.187c-0.077,0.055-0.154,0.099-0.22,0.154
			c-12.052,8.057-18.854,22.2-20.45,36.344c0.462,47.922-56.584,24.445-79.467,85.928c-5.911,13.461-3.852,28.166-4.568,42.386
			c-6.175,37.18-48.572,16.95-29.2,84.332c3.346,21.958-22.244,32.491-27.34,52.006c-11.656,29.564-0.957,67.096,30.092,79.225
			c17.17,6.043,33.713-2.708,44.477-15.981c3.038-3.731,5.613-7.826,7.616-12.041c1.42-2.774,2.675-5.591,3.764-8.464
			c8.563-22.222,8.42-47.207,11.59-70.706v-0.011c0.121-0.859,0.242-1.706,0.363-2.554c5.052-35.452,12.206-70.772,22.541-105.068
			c2.795-8.464,5.679-17.688,9.058-26.867c6.615-17.963,15.156-35.749,28.815-47.284c17.863-12.602,40.273-4.689,60.305-4.975
			c47.878-1.431,62.473-41.781,71.157-83.429c4.094-19.592,6.868-39.469,11.194-55.726c4.347-11.38,8.794-22.772,13.593-33.966
			c2.212-5.162,4.502-10.291,6.89-15.354c6.384-6.703,14.727-11.05,21.232-17.643c0,0.011,0,0.011,0,0.011l0.033-0.033
			c0.033-0.022,0.055-0.044,0.077-0.066c0.088-0.077,0.176-0.165,0.264-0.242c0.011-0.011,0.022-0.022,0.033-0.033
			c12.393-13.12,26.955-23.268,46.029-20.384c0.077,0,0.154,0,0.231,0.011c6.219,0.429,12.547,0.11,18.403,2.597
			c4.127,0.76,8.849,3.379,12.955,1.882c0.947,0.737,2.058,1.112,3.104,1.156C645.157,729.814,647.325,728.053,646.059,724.85z
			 M599.48,707.768c4.094,2.091,12.118,4.689,13.417,8.123c-2.575-0.583-5.173-1.013-7.793-1.354
			c-0.517-2.961-3.379-5.008-5.624-6.747C599.48,707.779,599.48,707.779,599.48,707.768z"/>
		<path style="fill:#F7941D;" d="M584.916,843.247c-5.898-1.243-15.195-2.139-16.446-9.355c-0.208-3.729,0.98-8.712,5.588-8.705
			C594.738,814.571,622.71,849.195,584.916,843.247z"/>
		<path style="fill:#F7941D;" d="M648.23,857.638c-4.136-1.376-8.996-3.186-11.63-6.818c-2.986-5.554-0.297-11.823,6.523-11.054
			C652.06,839.118,659.897,856.252,648.23,857.638z"/>
		<path style="fill:#F7941D;" d="M1518.474,758.38c-9.796-3.279-3.705-16.187,4.739-15.978c5.873-1.833,14.974,2.601,15.254,9.081
			C1537.096,759.676,1524.907,760.629,1518.474,758.38z"/>
		<path style="fill:#F7941D;" d="M1587.546,755.092c-24.034-5.507-14.804-20.721,5.491-20.472
			c9.863-1.923,40.343,6.522,22.731,18.483C1607.028,757.391,1596.858,757.102,1587.546,755.092z"/>
		<path style="fill:#F7941D;" d="M620.271,515.705c-27.164-20.692-83.033-6.736-77.739,33.592
			c2.157,25.612,19.855,27.979,17.225,57.124c-1.926,3.489-1.277,5.679,0.77,7.077c1.277,0.87,3.093,1.431,5.173,1.783
			c4.281,0.749,9.663,0.66,13.582,0.781c1.574,0.055,2.917,0.143,3.852,0.33c2.157,0.517,3.94,0.616,5.426,0.363
			c9.631-1.651,6.78-17.808,10.082-26.185c1.64-9.554,8.035-16.466,16.201-21.188c0.121-0.077,0.242-0.165,0.363-0.253
			C633.435,558.377,638.057,528.857,620.271,515.705z M603.145,568.833c-11.645,9.565-12.713,25.788-15.387,39.59
			c-1.552-0.242-3.159-0.33-4.777-0.363c-1.431-0.022-2.873,0-4.315,0.022c-1.552,0.022-3.093,0.044-4.612-0.011
			c-1.673-0.044-3.324-0.176-4.931-0.473c-1.981-0.352-3.885-0.979-5.668-2.014c9.73-28.298-10.709-35.727-11.777-60.954
			c-0.935-31.181,46.349-37.235,65.885-20.637C631.85,541.625,620.073,559.037,603.145,568.833z"/>
		<path style="fill:#F7941D;" d="M569.057,609.733c0.787-24.372,1.737-49.087,5.816-73.176c1.311-7.838,11.099-12.71,11.789-1.709
			c16.956-15.003,6.779,19.153,4.849,25.983c-3.646,15.108-6.426,30.443-7.462,45.961c-13.307,16.995,1.104-38.783,1.997-42.654
			c-0.016,0.068-0.032,0.135-0.046,0.201c1.326-5.948,2.979-11.814,4.395-17.741c-0.005,0.021-0.009,0.042-0.014,0.062
			c0.028-0.122,0.057-0.244,0.086-0.365c-0.012,0.051-0.025,0.102-0.037,0.152c0.62-3.169,1.764-6.386,1.378-9.644
			c-3.477,2.716-3.534,7.925-6.655,10.706c-3.443,1.828-4.597-2.497-4.156-5.136c-1.079,22.592-3.421,45.165-7.234,67.438
			c0,0,0,0,0,0C572.952,611.976,569.619,612.243,569.057,609.733z"/>
		<path style="fill:#F7941D;" d="M496.855,600.356c-10.126,3.28-20.538,5.085-31.115,5.966c-0.881,1.244-2.818,1.618-3.83,0.308
			c-3.984-7.297,10.467-6.725,14.529-8.893c5.316-0.264,22.123-9.785,23.422-2.08C500.047,597.648,498.792,599.75,496.855,600.356z"
			/>
		<path style="fill:#F7941D;" d="M498.066,533.117c-0.275,1.706-1.816,3.588-3.698,3.522c-9.928-0.759-19.867-2.146-29.707-3.698
			c0,0,0-0.011,0.011-0.011c-7.638-7.628,19.591-3.841,23.114-4.612C491.374,528.681,498.77,527.57,498.066,533.117z"/>
		<path style="fill:#F7941D;" d="M532.164,481.133c-4.546-6.571-7.474-14.562-13.846-19.691
			c-2.554-10.17,17.886,12.426,18.964,14.782C539.813,479.295,535.026,484.523,532.164,481.133z"/>
		<path style="fill:#F7941D;" d="M636.385,449.567c0,0.011,0,0.011,0,0.011c-0.594,6.978-4.436,13.307-5.129,20.318
			c-0.55,5.052-8.299,4.81-7.352-0.65c1.563-7.044,6.527-12.833,8.497-19.713c0.462-2.157,3.797-2.388,3.973,0.033
			C636.374,449.567,636.374,449.567,636.385,449.567z"/>
		<path style="fill:#F7941D;" d="M699.914,519.359c-2.267,2.069-5.745,1.189-8.563,1.574c-6.846,0.143-13.56,1.893-20.417,1.948
			c-1.343-0.165-2.763-0.066-4.05-0.484c-1.299-0.693-0.275-2.488,1.057-2.278c10.038-2.179,19.581-6.813,29.883-7.705
			C701.411,512.315,702.247,517.246,699.914,519.359z"/>
		<path style="fill:#F7941D;" d="M689.326,591.419c-0.815,1.827-2.972,3.379-5.008,2.741c-9.378-5.019-19.416-9.025-29.057-13.164
			c-3.577-9.994,13.637-1.761,18.073-1.431C678.396,581.909,691.846,583.769,689.326,591.419z"/>
		<path style="fill:#F7941D;" d="M639.202,634.531c-5.778-4.986-10.511-10.841-14.76-17.148c-1.475-0.892-1.53-3.5,0.583-3.72
			c4.821,2.521,8.057,7.892,13.274,10.203C650.132,628.698,645.146,637.921,639.202,634.531z"/>
		<path style="fill:#F7941D;" d="M1651.042,453.705c-7.605-35.386-73.711-35.958-77.53,2.08c-2.994,22.982,16.631,31.171,18.7,46.26
			c-1.035,8.937-2.521,18.172-1.222,27.12c0.022,0.154,0.044,0.297,0.066,0.451c0.66,1.189,2.069,0.792,2.708-0.165
			c0.011,0,0.011,0,0.011,0c0.187-0.308,0.308-0.66,0.407-1.013c0.903,0.187,1.772,0.341,2.608,0.495
			c3.83,0.682,6.923,1.024,9.433,1.024c4.072,0,6.604-0.837,8.244-2.41c4.634-4.425,2.168-14.639,6.901-27.846
			C1631.208,480.99,1656.347,490.885,1651.042,453.705z M1642.644,472.526c-18.744,20.791-25.425,7.363-31.567,44.433l0.011-0.011
			c-0.407,1.706-0.837,3.412-1.233,5.118c-1.662-0.022-3.291-0.275-4.909-0.605c-1.167-0.242-2.323-0.517-3.478-0.781
			c-1.871-0.429-3.753-0.803-5.657-0.914c0.925-8.673,5.965-17.39,3.203-26.107c-9.708-17.148-31.115-40.317-4.491-54.416
			C1616.393,428.313,1653.529,444.625,1642.644,472.526z"/>
		<path style="fill:#F7941D;" d="M1603.421,524.799c-4.821-0.213,0.587-25.999,0.183-30.908c-0.002,0.014-0.003,0.029-0.005,0.043
			c0.016-0.152,0.032-0.304,0.047-0.456c-0.001,0.01-0.002,0.02-0.003,0.03c0.057-0.543,0.113-1.086,0.168-1.629
			c-0.002,0.018-0.004,0.037-0.006,0.055c0.016-0.155,0.032-0.31,0.047-0.464c-0.001,0.007-0.001,0.015-0.002,0.022
			c0.642-6.927,1.682-13.904,0.608-20.84c-0.387-4.516-2.257-9.399-0.026-13.694c1.965-5.208,9.196-6.556,10.929-0.445
			c16.071-8.647,1.067,30.178-0.039,36.057c0.03-0.12,0.056-0.237,0.082-0.357c-1.938,3.733-3.525,34.026-10.11,27.023
			c-0.14,0.782-0.27,1.566-0.375,2.355c1.07,1.125,0.132,3.219-1.404,3.209c0.016,0.001,0.033,0.002,0.05,0.003
			c-0.073-0.004-0.15,0-0.224,0.004C1603.367,524.805,1603.394,524.802,1603.421,524.799z M1608.418,500.061
			c-0.705,4.276-1.314,8.57-2.012,12.849c2.741-17.439,10.087-34.304,11.514-51.766c-3.194,4.612-6.905,3.498-7.869-1.801
			c-0.493,0.942-0.192,2.02-0.076,3.017c-0.026-0.159-0.052-0.318-0.077-0.477c1.173,7.004,2.036,14.142,0.989,21.218
			c0.017-0.163,0.034-0.327,0.047-0.49C1610.336,488.461,1609.377,494.261,1608.418,500.061z"/>
		<path style="fill:#F7941D;" d="M1500.605,511.269c0.022,0,0.044,0,0.066-0.011c-0.022,0.011-0.055,0.011-0.077,0.022
			c-0.055,0.011-0.121,0.022-0.176,0.044c-0.011,0-0.011,0-0.022,0c-2.939,0.198-8.971,3.28-10.016-0.781
			c0.275-5.14,8.266-2.663,11.623-5.228c4.931-1.926,9.796-4.006,14.738-5.922h0.011c2.08-1.2,4.964-0.958,5.558,1.739
			C1522.618,509.277,1506.394,508.716,1500.605,511.269z"/>
		<path style="fill:#F7941D;" d="M1521.946,450.392c-7.859-2.102-15.662-4.513-23.774-5.459c-0.649,0.649-1.838,0.231-1.926-0.682
			c-0.352-5.272,24.115-2.432,28.044-1.332C1528.682,444.262,1526.184,451.504,1521.946,450.392z"/>
		<path style="fill:#F7941D;" d="M1558.224,392.971c-6.406-6.362-11.788-13.758-18.491-19.856c-0.936,8.079-7.903-5.921-1.882-5.492
			c9.763,3.863,17.908,11.854,25.557,18.931C1566.732,389.746,1562.021,396.185,1558.224,392.971z"/>
		<path style="fill:#F7941D;" d="M1666.165,352.786c-0.946,5.074-3.984,9.532-4.975,14.628c-0.649,2.642-0.583,7.187-4.348,6.967
			c-6.78-3.401,3.412-13.483,4.931-18.216c1.156-1.519,0.649-4.392,2.708-5.008C1665.427,351.003,1666.253,351.84,1666.165,352.786z
			"/>
		<path style="fill:#F7941D;" d="M1723.321,419.805c-5.855-0.859-32.293,11.601-31.71,4.513c-0.176-4.766,6.043-4.711,9.301-6.208
			c7.594-2.146,14.716-6.076,22.519-7.352C1728.792,410.725,1728.098,419.266,1723.321,419.805z"/>
		<path style="fill:#F7941D;" d="M1726.029,491.909c-1.023,2.322-3.698,3.83-6.087,2.818c-9.697-4.777-22.189-4.909-30.796-11.139
			c-1.068-6.263,5.206-3.687,8.574-2.499C1704.676,484.655,1729.342,479.735,1726.029,491.909z"/>
		<path style="fill:#F7941D;" d="M1687.495,534.757c-2.003-3.797-19.702-15.442-12.768-18.348
			c5.096,4.028,11.524,8.024,17.159,12.129C1695.629,531.18,1691.182,537.894,1687.495,534.757z"/>
		<path style="fill:#231F20;" d="M1614.478,525.721c-3.632-4.711-7.297,0.011-8.255,4.237c-0.154,0.671-0.242,1.343-0.242,1.948
			c0.033-0.11,0.055-0.22,0.088-0.33c-0.044,0.187-0.099,0.363-0.132,0.561c-0.011,0.011-0.011,0.033-0.022,0.044v0.011
			c-1.981,5.591-2.19,15.409-9.025,16.939c-3.984-2.509-0.341-14.55-0.099-20.197c0.022-0.33,0.022-0.627,0.011-0.903
			c1.86-1.321,0.561-5.085-1.728-4.832c-1.354,0.826-2.795,3.038-4.083,5.966c-4.028,9.124-6.582,25.205-0.396,27.924
			c15.773,7.154,23.51-16.961,23.873-29.541C1614.5,526.909,1614.5,526.293,1614.478,525.721z M1596.978,549.187
			c-0.011,0-0.011-0.011-0.022-0.011h0.088c0.088,0.011,0.165,0.011,0.242,0.011H1596.978z"/>
		<path style="fill:#231F20;" d="M588.561,616.755c-0.528,3.984-2.289,8.585-2.3,11.491c0.033-0.165,0.077-0.319,0.11-0.484
			c-1.376,9.642-7.958,19.47-18.909,16.653c-10.918-0.583-11.381-12.789-9.202-21.022c0.958-3.126,1.057-6.813,2.267-9.895
			c0.374-0.98,0.87-1.882,1.519-2.708c2.961-1.871,3.236,2.477,3.588,4.403c0,0.022,0,0.033,0.011,0.055
			c0.022,0.011,0.033,0.022,0.055,0.033c1.233,0.87,0.473,3.159-1.024,3.258c0,0.561,0.011,1.101,0.022,1.662
			c0.011,0.264,0.011,0.517,0.022,0.771c0,0.011,0,0.011,0,0.022c-0.209,8.442-0.462,18.183,10.886,13.56
			c3.555-4.193,2.608-12.492,3.676-18.491c0.616-3.511,1.915-6.23,5.206-6.89C588.473,609.932,589.046,613.079,588.561,616.755z"/>
		<path style="fill:#231F20;" d="M1193.061,457.37v-0.143c-1.155-34.88-19.922-73.733-53.458-87.48
			c-25.964-8.805-56.254,1.122-70.651,24.786c-3.357-29.211-22.541-58.258-53.492-62.132c-42.32-6.296-99.73,15.684-105.167,63.078
			c-22.641-26.669-67.921,4.249-75.384,31.49c0.099-0.242,0.187-0.484,0.275-0.727c-12.151,34.362,9.356,71.972,40.108,88.14
			c0.837,0.473,1.684,0.936,2.532,1.409c0.143,0.077,0.286,0.154,0.429,0.231c44.807,24.412,98.288,25.007,148.147,27.131
			C1087.035,544.586,1195.108,539.82,1193.061,457.37z M1059.189,532.49c-66.204-0.451-208.573,3.412-217.72-84.541
			c0.011,0.242,0.011,0.484,0.022,0.727c-1.001-19.955,9.048-41.407,28.353-49.012c21.243-9.014,29.553-6.461,42.056,12.713
			c0.572,1.849,0.803,4.348,2.52,5.492c1.365,0.495,1.904-1.629,1.354-2.532c-0.022-0.396-0.033-0.803-0.044-1.2
			c0-0.572,0-1.145,0.011-1.717c3.962-1.97,3.467-6.868,0.738-9.686c5.437-46.546,61.801-68.119,103.153-59.061
			c30.103,6.703,38.38,38.215,43.222,64.597c2.036,6.769,8.761,2.884,9.906-2.267c10.104-22.53,36.784-33.273,60.239-27.648
			c32.865,10.709,49.551,49.529,50.322,81.954C1184.762,520.713,1105.647,531.477,1059.189,532.49z"/>
		<path style="fill:#231F20;" d="M794.218,424.538c-2.652,6.119-3.522,13.219-2.774,19.834c0.649,3.599-5.272,5.448-5.668,1.266
			c0.451-6.538,1.739-21.958,8.222-24.677C795.825,421.192,795.693,423.91,794.218,424.538z"/>
		<path style="fill:#231F20;" d="M770.048,455.829c-5.547-5.624-5.734-16.114-4.303-23.653c1.222-2.917,1.343-13.857,5.701-12.415
			c0.374,5.25-2.774,11.359-2.069,17.137C767.758,442.489,779.546,455.422,770.048,455.829z"/>
		<path style="fill:#231F20;" d="M1220.39,490.742c-1.475,4.502-10.148,21.826-15.816,16.862
			c-3.423-5.911,10.225-10.952,11.81-17.445c1.981-3.104,2.003-7.198,3.929-10.181
			C1223.648,479.174,1220.709,488.838,1220.39,490.742z"/>
		<path style="fill:#231F20;" d="M1234.379,515.276c-6.56-5.845,11.392-17.445,12.019-25.656c-0.044,0.099-0.077,0.198-0.11,0.297
			c0.814-2.223,1.156-4.579,1.706-6.857c0.583-0.429,1.057-0.627,1.431-0.627C1254.785,482.432,1241.203,522.122,1234.379,515.276z"
			/>
		<path style="fill:#231F20;" d="M449.483,731.641c-7.507,5.173-13.208,12.68-17.368,20.714c-0.286,1.332-1.739,2.312-3.027,1.772
			c-4.238-6.186,11.37-25.821,17.214-29.564C451.057,721.769,453.698,729.341,449.483,731.641z"/>
		<path style="fill:#231F20;" d="M440.953,709.276c-8.772,2.652-17.247,7.738-21.925,15.849c-0.143,3.159-5.008,3.456-4.678-0.044
			c3.72-10.951,14.21-19.25,24.93-22.982C444.222,700.097,445.433,708.043,440.953,709.276z"/>
		<path style="fill:#231F20;" d="M1538.863,609.579c-0.474,1.431-2.697,1.981-3.357,0.418c-2.95,1.618-5.371,3.995-7.616,6.461
			c-0.011,0.011-0.011,0.011-0.022,0.022c-4.447,3.082-5.669,13.131-11.326,12.591
			C1504.38,624.416,1541.725,594.566,1538.863,609.579z"/>
		<path style="fill:#231F20;" d="M1516.179,595.337c-5.294,2.377-8.97,7.661-12.294,12.25c0.066-0.099,0.143-0.209,0.22-0.319
			c-2.873,2.818-3.291,10.038-8.156,9.609c-8.618-3.61,15.618-26.812,21.044-26.328
			C1520.24,590.736,1519.085,595.755,1516.179,595.337z"/>
		<path style="fill:#231F20;" d="M1895.672,1284.587c-2.212,0.638-4.468,1.134-6.769,1.53c-14.551,2.488-30.499,0.694-45.248,2.058
			c-95.724,1.486-191.381,4.821-286.973,9.818c-88.052,3.676-176.291,6.505-264.024,15.09
			c-135.567,15.63-272.312,13.692-408.397,20.318c-0.077,0.011-0.154,0.011-0.231,0.011c-2.95,0.308-5.9,0.583-8.86,0.836
			c-44.18,3.842-88.69,2.664-132.739,7.98c-61.713,8.299-124.076,7.815-186.109,11.788c0.209-0.022,0.418-0.033,0.627-0.055
			c-7.638,0.55-15.266,1.09-22.905,1.618c0.099,0,0.198-0.011,0.297-0.011c-16.466,1.31-32.909,2.84-49.353,4.425
			c-15.453,1.486-30.895,3.005-46.349,4.436c-14.418,1.332-28.848,2.576-43.278,3.621c-1.376,0.099-2.74,0.198-4.116,0.297
			c-7.76,0.55-15.53,1.035-23.301,1.442c-53.646-1.332-106.961,5.151-160.563,5.8c-1.794,0.022-3.599,0.033-5.393,0.044
			c-0.055,0-0.11,0.011-0.165,0.011c-5.437,0.451-10.874,0.957-16.301,1.508c-27.098,2.708-54.108,6.406-81.085,9.862
			c-1.332,0.176-2.664,0.352-3.995,0.517c-0.496,0.066-0.991,0.132-1.486,0.187c-0.705,0.099-1.409,0.187-2.113,0.275
			c-2.19-0.969,0.121-2.234,4.667-3.577c0.66-0.198,1.376-0.396,2.124-0.594c12.712-3.379,37.037-7.088,39.238-7.87
			c39.503-7.562,79.423-9.631,119.509-10.654c40.119-4.546,80.326-4.832,120.62-5.613c2.014-0.209,4.017-0.418,6.031-0.617
			c2.785-0.297,5.559-0.583,8.343-0.859c27.604-2.828,55.231-5.492,82.879-7.925c65.092-5.745,130.284-10.236,195.63-12.47
			c28.793-1.794,57.432-5.261,86.082-8.53c38.919-2.191,77.86-3.753,116.768-6.285c10.192-0.649,20.384-1.387,30.565-2.213
			c61.13-1.706,122.282-2.817,183.39-5.404c17.027-0.715,34.054-1.552,51.07-2.543c67.206-1.101,133.817-10.027,200.671-16.003
			c13.967-0.825,27.923-1.64,41.891-2.411c37.411-2.102,74.822-4.017,112.244-5.778c65.566-3.104,131.143-5.723,196.73-7.936
			c62.385-2.135,124.792-3.896,187.188-5.382c2.399,0.187,4.997-0.374,7.484-0.561c2.278-0.176,4.458-0.044,6.351,1.255
			C1898.699,1278.346,1898.072,1282.484,1895.672,1284.587z"/>
		<path style="fill:#231F20;" d="M1261.598,1580.375c-0.671,0.451-1.486,0.727-2.454,0.737
			c-63.408-3.588-124.803-22.387-185.47-39.965c-75.087-26.603-152.209-51.268-232.579-52.666
			c-43.036-1.904-86.258-2.663-129.128,2.278c0.198-0.022,0.385-0.044,0.583-0.055c-37.411,4.039-74.877,8.948-111.375,18.315
			c-0.121,0.033-0.253,0.055-0.374,0.088c-106.576,23.895-212.778,71.168-323.933,54.922
			c-64.553-6.307-134.786-33.305-165.175-94.48c-7.451-18.953-10.082-39.525-11.083-59.919v-0.011
			c-0.275-5.393-0.429-10.786-0.528-16.124c0.176-1.354,0.077-3.841,0.363-5.965c0.044-0.308,0.088-0.616,0.154-0.914
			c0.187-0.902,0.462-1.673,0.913-2.201c0.484-0.572,1.167-0.837,2.124-0.594c0.088,0.011,0.187,0.033,0.286,0.066
			c0.055,0.297,0.121,0.594,0.165,0.903c0.143,0.737,0.253,1.475,0.352,2.223c0.231,1.673,0.407,3.368,0.539,5.074
			c0.462,5.283,0.682,10.709,1.86,15.86c-0.022-0.165-0.044-0.319-0.066-0.473c1.42,8.431,2.752,16.884,4.094,25.337
			c2.477,14.595,6.175,29.475,14.265,42.045c0.011,0.022,0.033,0.055,0.055,0.077c35.209,54.031,100.016,76.088,161.73,80.953
			c102.625,13.164,200.561-30.675,298.904-52.886c95.614-25.568,195.652-30.048,293.962-21.815
			c84.211,6.417,161.741,42.287,242.462,63.706c27.836,6.846,55.253,15.497,83.65,19.779c17.621,3.467,35.43,6.01,53.382,6.769
			c2.421-0.209,3.852,1.277,4.303,3.148C1264.086,1576.644,1263.414,1579.165,1261.598,1580.375z"/>
		<path style="fill:#231F20;" d="M1871.92,1373.299c-28.584,25.194-66.457,34.429-102.79,42.496
			c-26.085,5.756-52.435,10.005-79.06,12.36c-40.24,5.58-81.811,7.903-120.048,22.574c-38.765,14.661-71.553,40.669-105.662,63.552
			c-31.171,21.21-63.882,40.273-99.081,54.031c-19.977,7.903-41.274,11.931-62.539,14.429c-4.788,0.495-9.598,0.55-14.397,0.209
			c-2.399-0.275-16.312-0.958-26.746-2.576c-9.223-1.431-15.717-3.599-9.091-6.868c3.687,0.462,7.385,0.825,11.072,1.079
			c48.132,3.467,96.043-9.345,137.813-33.482c61.009-29.938,110.12-81.283,175.245-103.175
			c37.543-12.151,77.475-14.584,116.405-19.768c31.115-2.785,61.768-8.717,92.135-15.905c29.167-7.275,58.896-16.234,81.591-36.883
			c19.779-20.186,34.77-48.957,27.109-77.662c-1.574-0.418-3.39-0.892-4.975-1.596c-2.829-1.266-4.942-3.28-3.72-7.077
			c0.793-2.685,2.609-3.929,4.788-4.27c1.016-0.164,2.113-0.115,3.226,0.063c0.164,0.025,0.326,0.061,0.489,0.094
			c2.771,0.545,5.585,1.909,7.468,3.31C1916.86,1310.892,1895.584,1349.877,1871.92,1373.299z"/>
		<path style="fill:#231F20;" d="M481.908,1357.438c-2.994,2.476-11.073,2.367-14.44,3.082c-9.598,1.442-19.207,2.741-28.826,3.907
			c-43.487,5.294-87.161,8.057-130.922,10.643c0.044-0.011,0.099-0.011,0.154-0.022c-0.176,0.022-0.363,0.044-0.54,0.055h0.066
			c-14.936,1.64-29.871,3.302-44.807,4.887c-0.055,0.011-0.11,0.011-0.165,0.011h0.088c-0.341,0.033-0.682,0.066-1.024,0.099
			c-0.396,0.033-0.781,0.077-1.177,0.121c-45.666,6.031-91.651,7.451-137.659,9.576c-5.812,0.913-12.041,0.594-17.676,2.289
			c-0.694,0.198-1.376,0.429-2.047,0.704c1.959,7.055,1.002,14.396,1.992,21.562c5.9-0.297-2.091,7.715-3.511,0.176
			c-0.066-1.398-0.374-3.071-0.803-4.898v-0.011c-1.794-7.572-5.635-17.687-2.41-21.319c0.253-0.198,0.495-0.396,0.759-0.583
			c0.528-0.396,1.079-0.759,1.64-1.101c1.112-0.693,2.278-1.299,3.489-1.827c10.951-4.81,25.612-3.72,37.026-5.723
			c14.826-0.308,29.63-0.98,44.411-1.915c7.297-0.462,14.573-0.979,21.859-1.563c19.624-1.552,39.216-3.478,58.797-5.547
			c1.871-0.198,3.731-0.396,5.602-0.583c0.572-0.055,1.145-0.121,1.717-0.176c8.255-0.848,16.521-1.607,24.787-2.41
			c30.202-2.84,60.58-3.302,90.87-5.085c2.609-0.154,5.228-0.319,7.837-0.495c-0.165,0.022-0.319,0.044-0.473,0.055
			c0.33-0.033,0.671-0.066,1.001-0.099c7.154-0.716,14.286-1.783,21.463-2.498c-0.066,0-0.132,0.011-0.198,0.011
			c10.071-0.99,19.988-3.082,30.07-3.995c10.467-0.275,21.232-3.577,31.523-3.159c0.407,0.022,0.815,0.044,1.222,0.066
			C483.614,1354.445,483.35,1356.239,481.908,1357.438z"/>
		<path style="fill:#231F20;" d="M631.059,855.45c-5.255,1.347-21.187-11.269-16.248-15.921c1.041-0.688,2.409-0.361,2.95,0.779
			c2.95,4.043,6.087,9.716,11.662,9.972c-2.221-11.592-4.916-23.338-4.804-35.197c0,0.116-0.004,0.228-0.004,0.344
			c0.443-2.837-0.857-10.817,3.808-9.587c0.961,0.54,0.977,1.904,0.453,2.775c-0.137,3.232,0.095,6.471,0.349,9.688
			C628.496,824.522,639.992,856.789,631.059,855.45z"/>
		<path style="fill:#231F20;" d="M604.226,883.557c-3.379-0.496-6.476-19.708-1.636-16.846c0.001-0.001,0.002-0.003,0.003-0.004
			c4.561,11.391,3.31,16.972,13.759,4.617c0.692-0.807,1.969-0.984,2.725-0.158C621.142,875.152,608.645,886.99,604.226,883.557z"/>
		<path style="fill:#231F20;" d="M581.455,817.905c-8.535,1.684-21.348-24.406-13.74-21.316c-0.003-0.006-0.006-0.012-0.009-0.018
			c6.067,13.507,21.789,21.951,32.07,7.359c0.829-1.142,2.411-1.757,3.633-0.785C607.836,810.325,587.766,820.325,581.455,817.905z"
			/>
		<path style="fill:#231F20;" d="M565.258,820.929c-0.689-3.941,5.6-5.245,6.732-8.976c0.735-0.985,0.306-2.433,1.375-3.199
			c0.889-0.785,2.408-0.19,2.522,1.003c-0.004-0.014-0.007-0.027-0.011-0.041c0.012,0.063,0.022,0.127,0.029,0.191
			c-0.001-0.012-0.002-0.023-0.003-0.035c0.007,0.051,0.01,0.102,0.015,0.153c0-0.001,0-0.002,0-0.003
			C576.093,813.743,569.097,824.436,565.258,820.929z"/>
		<path style="fill:#231F20;" d="M571.907,824.736c-1.692-3.424,3.558-4.564,4.867-7.088c1.221-1.391,1.594-3.236,2.519-4.774
			c1.463-1.692,3.696,0.417,2.6,2.138C580.655,818.712,576.565,827.382,571.907,824.736z"/>
		<path style="fill:#231F20;" d="M580.021,829.094c-3.413-4.068,3.71-7.612,4.744-11.432c1.221-1.887-0.01-4.823,2.25-5.98
			c-0.049,0.028-0.097,0.056-0.146,0.084C595.2,809.257,584.852,832.99,580.021,829.094z"/>
		<path style="fill:#231F20;" d="M622.521,792.22c-8.165-19.589-34.123-20.378-52.208-17.233c-0.325,0.615-1.21,0.336-1.702,0.078
			c-1.303-2.968,6.534-3.908,8.452-5.323c10.224-3.126,21.054-1.932,31.013,1.6C619.476,772.115,633.504,796.473,622.521,792.22z"/>
		<path style="fill:#231F20;" d="M655.503,863.466c-2.366,10.478-5.756,20.725-9.598,30.752c0.077-0.165,0.143-0.319,0.209-0.484
			c-5.481,17.566-21.771,21.044-37.444,18.172c-6.274-1.145-12.459-3.302-17.809-5.988c-0.11,8.277,0.099,16.543,0.396,24.809
			c0,0.242,0.011,0.484,0.022,0.715c0.066,1.86,0.132,3.709,0.209,5.569c0.011,0.132,0.022,0.264,0.022,0.396
			c0.033,4.072-6.208,5.998-7.077,1.244c-0.804-12.03-0.594-24.126-0.143-36.178c0.396-8.629,8.816-3.709,13.56-1.519
			c8.167,3.335,16.983,6.032,25.887,4.964c16.642-0.506,21.881-26.515,25.348-48.418c0.749-4.788,1.42-9.378,2.114-13.461
			c0.693-4.127,1.398-7.749,2.234-10.522c-0.627,0.209-1.266,0.341-1.904,0.396c1.97,9.939-6.582,9.289-2.84-0.11
			c-2.025-0.352-3.863-1.376-5.481-2.619c0.176,2.113,2.003,9.873-2.223,7.308c-0.693-2.741,1.233-5.69,0.792-8.585
			c-2.883-2.994-5.085-6.648-6.021-10.721c-1.145-0.319-2.267-6.494-0.594-6.483c5.36,4.458,10.28,18.172,19.581,13.516
			c1.596-9.224,3.423-18.436,4.26-27.78c-4.194-0.693-8.552-1.629-12.79-0.936c-1.981,0.209-5.14,2.488-6.186-0.242
			c-4.391-1.057,4.436-5.525,6.01-5.899c4.348-1.75,9.157-2.388,13.736-1.178c4.259-22.607,1.068-47.757-17.137-60.492
			c-4.128-2.884-9.036-5.14-14.804-6.571c-0.033,0-0.044-0.011-0.077-0.022v0.011c-0.275-0.077-0.561-0.143-0.837-0.198
			c-1.53,0.98-3.324-0.396-3.192-2.091c-39.514-11.964-80.238,18.733-91.706,56.067c0.462,0.297,0.914,0.594,1.365,0.903
			c39.172,26.636,17.831,91.035-24.787,89.692c-5.481-0.165-11.315-1.431-17.423-3.996c-43.3-19.922-26.042-94.843,23.048-90.793
			c3.258-24.842,18.425-47.515,38.952-61.647c11.271-7.352,25.876-12.217,40.141-12.734c17.281-0.627,34.032,5.129,43.685,20.582
			c0.242,0.385,0.484,0.782,0.716,1.178c1.904,0.671,3.709,1.398,5.415,2.179c32.811,15.101,30.191,51.587,24.6,83.22
			C689.788,817.8,678.187,859.339,655.503,863.466z"/>
		<path style="fill:#231F20;" d="M687.532,993.233c0.341,74.162-11.117,147.531-24.06,220.361c-0.121,0.671-0.242,1.332-0.363,2.003
			c0.022-0.187,0.055-0.363,0.077-0.55c-1.915,5.349,0.198,18.161-6.042,19.845c-2.939-0.077-3.082-4.204-2.443-9.058
			c0.749-5.591,2.542-12.151,2.311-14.584c3.687-22.497,6.516-45.116,10.533-67.558c6.131-56.078,13.78-112.894,8.684-169.313
			c2.146-45.149-43.619-28.364-74.756-34.032c-2.267-0.418-4.447-0.947-6.527-1.629c-1.177-0.374-2.322-0.815-3.434-1.31
			c-1.849-0.804-3.588-1.761-5.206-2.895c-0.088-0.407-0.121-0.771-0.121-1.101c0-2.102,1.629-2.741,3.819-2.741
			c0.407,0,0.826,0.022,1.255,0.055c3.06,0.264,6.703,1.31,8.53,1.255c1.101,0.044,2.201,0.066,3.302,0.066
			c6.912,0.044,13.824-0.649,20.747-0.815C679.013,926.688,685.419,941.613,687.532,993.233z"/>
		<path style="fill:#231F20;" d="M970.509,1089.1c0.418-3.412,1.222-8.937-3.401-9.598c-9.378-1.244-18.931-0.308-28.375-1.023
			c-54.614-5.393-113.158-0.639-168.906,1.915c-1.046,0.077-2.08,0.154-3.115,0.231c0,0,0-0.011,0.011-0.011
			c-0.121,0.011-0.253,0.022-0.363,0.033c-9.939,0.418-19.724,2.212-29.585,3.214c-1.244-5.811-6.703,3.027-7.308,5.063
			c-10.137,23.378-18.491,48.12-25.976,73.072c-1.915,6.384-3.775,12.79-5.591,19.184c-3.643,12.8-7.121,25.579-10.555,38.182
			c-7.22,24.908-14.936,49.782-21.76,74.811c-1.068,3.929-2.125,7.859-3.137,11.799c-1.2,4.579-2.344,9.168-3.456,13.758
			c-16.939,0.704-33.856,1.816-50.762,3.258c-2.355,0.209-4.722,0.418-7.088,0.638c-25.876,2.356-51.698,5.492-77.409,9.125
			c-13.56,2.212-27.714,2.256-41.087,4.26c-1.849,1.277-2.785,7.661-2.389,13.274c0.033,0.451,0.066,0.891,0.121,1.321
			c0.253,2.333,0.748,4.425,1.53,5.833c0.66,1.2,1.508,1.904,2.587,1.849c0.132,0.253,0.308,0.495,0.495,0.705
			c0.55,0.594,1.31,0.99,2.201,0.99c77.585-4.425,155.137-10.764,232.799-14.331h0.231c5.151-0.121,10.302-0.22,15.453-0.385
			c1.497-0.044,3.005-0.088,4.502-0.143c42.65-2.917,85.807-2.697,128.083-9.179c1.508,1.838,4.414,1.112,5.503-0.87
			c0.605,0.682,1.673,0.033,2.432-0.066c1.431-0.605,0.275-2.08-0.903-1.266c0-0.165-0.055-0.33-0.121-0.495
			c-0.099-0.22-0.253-0.418-0.418-0.561c1.255-3.589,2.586-7.154,3.984-10.687c1.673-4.282,3.445-8.53,5.239-12.768
			c22.453-54.339,46.425-108.062,67.096-163.128c4.59-13.791,10.632-26.999,15.915-40.504
			C967.967,1101.086,973.437,1094.427,970.509,1089.1z"/>
		<path style="fill:#231F20;" d="M608.369,1237.341c-0.274-20.632,4.339-42.519,7.376-63.305c0.352-6.654,5.025-10.823,9.794-14.804
			c24.28-22.1,21.566-48.779,12.942-77.539c-2.789-4.146-5.289-46.672,4.091-37.28c-0.009-0.019-0.018-0.037-0.027-0.056
			c0.787,54.007,35.737,81.323-17.861,127.478c-2.963,16.383-4.889,32.934-7.75,49.336
			C615.491,1225.869,616.558,1242.584,608.369,1237.341z"/>
		<path style="fill:#231F20;" d="M620.337,1266.965c4.403,6.516,3.291,21.914-7.539,15.982c1.31,8.233-0.991,13.153-5.327,12.9
			c-2.091-0.121-4.645-1.442-7.507-4.172c-0.385-0.352-0.77-0.737-1.167-1.156c0.616,4.524,1.486,15.706-5.679,14.209
			c-5.591-1.992-8.321-8.112-14.077-10.093c-14.672-5.922-31.446-1.805-46.271,1.761c0.165-0.044,0.33-0.088,0.495-0.132
			c-15.982,4.017-32.04,7.704-47.977,11.92c0.022-0.011,0.055-0.022,0.088-0.033c-29.442,8.53-58.599,18.007-87.799,27.318
			c-2.509,0.803-5.03,1.607-7.55,2.41c-0.209,0.066-0.429,0.121-0.639,0.187c-23.422,6.945-47.042,21.055-72.093,16.499
			c-47.933-14.11-27.56-83.374-24.567-120.037c0.22-1.882,0.44-3.764,0.66-5.646c3.841-32.59,7.66-65.214,14.837-97.275
			c0.297-1.376,0.583-2.774,0.881-4.161c0.022-0.099,0.044-0.209,0.066-0.319c0.044-0.187,0.077-0.385,0.121-0.572
			c7.099-34.703,15.387-69.143,24.28-103.428c8.277-26.955,13.626-58.94,38.501-75.956c2.168-2.983,26.537-8.585,18.227-1.684
			c-17.544,1.915-28.044,18.711-34.208,33.669c-2.862,7.925-5.415,15.937-7.77,24.016c-8.288,28.518-14.033,57.817-21.441,86.544
			c-3.709,15.937-7.276,31.919-10.522,47.944v0.011c-4.744,23.422-8.794,46.965-11.59,70.706c-0.517,4.414-0.991,8.838-1.42,13.274
			c-2.51,33.592-25.777,105.74,11.16,124.814c0.099,0.033,0.198,0.077,0.308,0.099c-0.044-0.011-0.088-0.022-0.132-0.033
			c0.242,0.077,0.484,0.154,0.726,0.242c-0.022-0.011-0.044-0.022-0.066-0.033c9.003,2.917,18.59,1.849,27.516-0.804
			c0.055-0.011,0.099-0.033,0.154-0.044c51.467-16.202,102.03-35.683,154.289-49.32c2.884-0.814,5.789-1.563,8.695-2.289
			c2.73-0.672,5.459-1.321,8.2-1.97c5.096-1.2,10.192-2.367,15.266-3.654c21.298-5.844,49.915-11.073,64.41,9.961
			c0.275-1.926-0.121-3.841-0.451-5.734c0.418-5.316-8.849-14.044-0.781-16.587c6.141,1.959,8.596,9.983,14.616,12.724
			c0.771-7.187-4.634-12.547-5.547-19.074c4.436-10.456,10.533,5.327,15.343,7.584c0.033-0.308,0-0.605-0.055-0.903
			c-1.464-5.767-5.096-10.544-8.266-15.464c-2.796-5.911,3.918-8.64,7.848-4.226c-16.609-31.115-60.085-25.7-92.499-21.419
			c-2.741,0.363-5.393,0.715-7.947,1.035c-1.409,0.176-2.796,0.352-4.138,0.506c-37.048,6.241-73.986,13.296-110.593,21.826
			c-5.481,1.508-10.831,3.434-16.268,5.096c-1.354,0.429-2.465,0.231-3.313-0.33c-2.664-1.783-2.675-7.231,0.99-8.684
			c0.462-0.165,0.936-0.33,1.398-0.484c1.816-0.616,3.654-1.145,5.481-1.717c1.178-0.363,2.345-0.749,3.489-1.167
			c1.508-0.418,3.016-0.825,4.524-1.222c35.276-9.443,71.399-15.783,107.368-21.991c31.93-4.656,67.129-11.656,97.727,1.893
			c1.574,0.242,3.511,1.288,5.58,2.895c1.53,1.178,3.137,2.664,4.733,4.359C622.549,1247.571,631.355,1264.665,620.337,1266.965z"/>
		<path style="fill:#231F20;" d="M379.065,1263.53c-9.644,0.708-6.891-9.288-6.079-15.461c1.704-21.244,6.899-41.997,10.975-62.87
			c5.848-28.448,12.554-56.755,21.807-84.299c1.066-3.018,7.486-24.67,10.666-20.275c0,0,0.001,0,0.001-0.001
			c-9.674,58.001-29.691,114.733-35.756,173.552C390.201,1252.944,387.358,1265.526,379.065,1263.53z"/>
		<path style="fill:#231F20;" d="M360.635,1263.077c-3.807-1.038-14.851,2.094-12.344-4.798c3.298-4.164,9.126,0.846,13.526,0.072
			C364.882,1258.86,363.486,1263.71,360.635,1263.077z"/>
		<path style="fill:#231F20;" d="M349.764,1283.927c-3.218-3.52,8.289-10.693,10.343-13.995c6.316-0.986-3.832,7.163-4.701,8.869
			C353.534,1280.262,352.677,1285.043,349.764,1283.927z"/>
		<path style="fill:#231F20;" d="M648.95,1049.991c-3.071-2.699,1.58-5.984,3.074-8.259c1.98-1.73,2.759-5.042,5.09-6.063
			C662.381,1035.07,651.458,1053.076,648.95,1049.991z"/>
		<path style="fill:#231F20;" d="M654.833,1056.848c-2.275-2.196-0.119-5.119,1.814-6.658c-0.069,0.066-0.138,0.131-0.21,0.196
			c0.095-0.091,0.192-0.181,0.288-0.271c-0.005,0.005-0.011,0.01-0.016,0.016c2.036-1.734,3.951-3.798,6.362-4.99
			c3.145-0.949,3.866,3.932,1.214,4.95C660.976,1051.837,659.296,1059.563,654.833,1056.848z"/>
		<path style="fill:#231F20;" d="M715.863,1153.268c-1.563,2.576-3.236,5.063-4.876,7.606c-4.095,6.945-8.508,13.681-13.087,20.307
			c-12.79,18.546-26.856,36.233-38.963,55.219c0.066-0.121,0.121-0.242,0.176-0.352c-2.961,4.479-6.428,15.299-13.197,12.801
			c-4.226-2.014,1.387-12.162,8.783-23.015c2.807-4.116,5.878-8.332,8.772-12.239c5.415-7.341,10.203-13.604,11.469-16.125
			c9.201-12.008,18.546-24.06,28.551-35.474c2.972-3.39,5.999-6.725,9.102-9.994
			C713.992,1149.988,717.448,1150.373,715.863,1153.268z"/>
		<path style="fill:#231F20;" d="M389.506,1252.171c-1.622-27.794,2.806-55.516,2.477-83.31c-0.127-2.361,2.873-4.599,4.854-2.82
			c2.297,4.178,0.084,9.84,0.198,14.486c2.642,23.311,1.295,46.88,0.658,70.268c-0.002,0-0.003,0-0.004,0
			C397.408,1255.177,390.725,1257.043,389.506,1252.171z"/>
		<path style="fill:#231F20;" d="M397.521,1361.247c0.044,0.858,0.11,1.706,0.187,2.564c0.077,1.805-0.969,3.368-2.345,4.238
			c-1.288,0.803-2.862,1.023-4.116,0.297c-0.639-0.374-1.2-0.99-1.596-1.904c-0.242-1.53-0.407-3.093-0.495-4.656
			c-0.066-0.902-0.11-1.816-0.121-2.719c-0.121-4.534,0.154-9.113,0.275-13.593c0.385-2.344-0.066-4.964,0.077-7.407
			c0.099-1.618,0.473-3.17,1.541-4.502c2.531-2.785,5.954-1.024,6.648,1.904c0.187,0.716,0.198,1.497,0,2.301
			c0-0.099,0-0.187-0.011-0.275c-0.099,6.901-0.429,13.813-0.187,20.714C397.411,1359.222,397.455,1360.234,397.521,1361.247z"/>
		<path style="fill:#231F20;" d="M601.687,1325.528c-2.176-6.151-0.716-13.408-1.932-19.915c0.22-5.032-3.426-18.412,5.672-15.655
			c3.777,4.634,1.015,12.27,2.659,17.976C607.981,1312.939,611.532,1331.328,601.687,1325.528z"/>
		<path style="fill:#231F20;" d="M532.976,1036.834c-7.64-1.972-10.609-11.162-15.418-16.708c0.125,0.181,0.254,0.366,0.378,0.546
			c-10.013-16.538-24.082-30.012-34.365-46.335c0.129,0.185,0.254,0.37,0.383,0.55c-6.984-8.821-12.571-18.399-15.588-29.3
			c-0.888-4.304,4.138-5.157,5.876-1.449c17.582,27.833,41.236,51.388,58.021,79.891c-0.12-0.176-0.241-0.352-0.361-0.529
			c0.803,1.137,1.616,2.279,2.534,3.332c18.328-20.436,36.11-42.062,48.793-66.568c3.302-5.741,6.494-11.545,9.894-17.224
			c1.115-3.314,3.69-10.08,7.966-6.161c2.844,6.299-8.08,17.803-10.425,24.369c-12.184,24.301-28.847,45.572-45.769,66.671
			c0.001-0.002,0.003-0.003,0.004-0.005C541.67,1031.49,538.307,1036.804,532.976,1036.834z"/>
		<path style="fill:#231F20;" d="M469.16,1241.915c-0.068-1.357,2.044-1.709,2.038-0.189
			C471.265,1243.083,469.154,1243.436,469.16,1241.915z"/>
		<path style="fill:#231F20;" d="M508.899,1300.367c-9.825-2.074,8.002-58.267,7.784-69.074c0.488-1.901,2.324-3.552,4.353-3.358
			c7.494,2.735-0.63,16.979,0.036,23.092c-1.621,11.456-3.638,22.843-5.823,34.202
			C513.474,1289.992,515.66,1299.73,508.899,1300.367z"/>
		<path style="fill:#231F20;" d="M627.27,1318.428c-8.812-0.51-15.975-6.216-21.555-12.626c0.06,0.245,0.131,0.495,0.256,0.719
			c-0.012-0.024-0.023-0.047-0.035-0.07c1.571,1.067,0.386,4.01-1.333,2.593c-2.82-2.988-2.618-10.361,3.002-7.636
			c25.645,19.181,54.119-1.631,72.901-20.476c4.966-7.733,12.108-0.897,5.374,4.732
			C669.406,1300.589,651.35,1319.667,627.27,1318.428z"/>
		<path style="fill:#231F20;" d="M1552.364,788.924c-4.297,0.995-12.2-11.778-5.915-11.621c1.951,2.844,2.749,8.001,7.451,7.751
			c4.171,0.093,7.949-2.581,9.694-6.277C1572.347,775.004,1561.426,790.732,1552.364,788.924z"/>
		<path style="fill:#231F20;" d="M1551.563,757.702c-14.47,0.807-18.596-10.862-7.248-19.533c2.879-2.567,8.172-2.652,9.739-6.387
			c1.648-2.793-0.648-12.07,3.438-11.825c0.638,0.368,0.696,1.198,0.498,1.832c0.001-0.006,0.001-0.011,0.002-0.017
			c-0.471,4.913,0.974,10.581-2.042,14.876c-10.037,6.437-23.408,15.436-1.793,16.29c-0.094,0-0.189,0-0.279,0
			c1.965,0.255,5.185-1.414,5.636,1.518C1559.697,758.564,1554.275,757.529,1551.563,757.702z"/>
		<path style="fill:#231F20;" d="M1600.939,728.613c-5.996-0.502-13.764-1.379-16.428-7.666c-0.903-3.045-2.656-7.66,0.533-9.897
			c11.997-8.105,28.662-8.506,42.229-4.399c5.064,1.6,1.898,7.762-0.593,10.388C1620.674,724.679,1610.602,729.059,1600.939,728.613
			z M1604.28,723.829c8.424-0.547,17.35-4.694,21.343-12.449c-1.045-0.248-2.127-0.318-3.186-0.502
			c0.009,0.001,0.019,0.003,0.028,0.004c-0.099-0.015-0.198-0.031-0.298-0.048c0.027,0.004,0.054,0.009,0.08,0.013
			c-2.605-0.408-5.241-0.451-7.872-0.477c0.048,0.002,0.095,0.003,0.143,0.003c-4.014-0.022-8.052,0.049-12.039,0.539
			c0.12-0.017,0.241-0.034,0.361-0.052c-0.636,0.086-1.268,0.176-1.905,0.262c0.12-0.017,0.237-0.034,0.357-0.052
			c-0.705,0.099-1.413,0.19-2.118,0.284c0.021-0.003,0.042-0.006,0.063-0.009c-0.116,0.015-0.232,0.032-0.348,0.047
			c0.008-0.001,0.016-0.002,0.023-0.003c-0.106,0.015-0.212,0.029-0.317,0.044c0.008-0.001,0.015-0.002,0.023-0.003
			c-0.116,0.015-0.232,0.032-0.348,0.047c0.034-0.005,0.068-0.01,0.101-0.015c-1.743,0.258-3.453,0.597-5.157,1.034
			c0.01-0.003,0.019-0.006,0.029-0.008c-1.423,0.405-2.837,0.839-4.226,1.343c-0.115,0.267-0.275,0.511-0.47,0.717
			C1588.456,722.588,1598.23,723.192,1604.28,723.829z"/>
		<path style="fill:#231F20;" d="M1602.928,725.427c-6.744,0.829-10.615-8.115-4.103-11.409c4.636-2.656,13.176-0.028,12.238,6.234
			c0.937,1.469-0.536,3.831-2.287,3.199C1607.081,724.763,1605.132,725.593,1602.928,725.427z"/>
		<path style="fill:#231F20;" d="M1587.131,695.169c-6.381-1.604-3.039-9.607,2.193-10.254c9.056-1.556,37.757-10.269,41.903,0.354
			C1629.534,695.479,1595.699,697.216,1587.131,695.169z"/>
		<path style="fill:#231F20;" d="M1696.961,649.588c0.341-1.112,0.65-2.223,0.892-3.379c0.011-0.044,0.011-0.077,0.022-0.11
			c0.011-0.055,0.022-0.11,0.033-0.165c0.044-0.209,0.077-0.396,0.121-0.605c0.452-2.432,0.463-4.931,0.308-7.374
			c0.011,0.088,0.011,0.187,0.022,0.275c-0.165-20.263-19.14-16.829-31.578-8.937c5.041-30.07-36.498-22.211-50.036-8.321
			c3.115-25.029-41.516-4.249-48.759,5.899c0.407-22.497-22.079-8.486-28.771,2.388c-10.786,12.977-16.73,30.565-15.783,47.416
			c-3.577,7.198-4.909,15.332-7.286,22.993c-3.005,1.211-5.184,5.822-1.904,7.925c-5.778,24.434-4.061,50.069-1.618,74.844
			c1.123,28.353,3.566,30.763,32.502,32.051c-0.462,5.371-1.409,10.83-2.3,16.312c-1.156,7.165-2.223,14.341-2.014,21.375
			c0.055,1.717,0.176,3.445,0.407,5.14c0.011,0.011,0.033,0.022,0.044,0.022c4.127,2.752,5.151-1.508,5.58-5.437
			c0.165-1.563,0.242-3.082,0.385-4.073c0.99-8.42,2.245-16.807,3.412-25.194c0.033-4.37,3.907-15.618-3.489-14.925
			c-8.596,0.847-20.065,0.661-26.581-5.459c-2.157-14.771-3.632-29.729-3.929-44.698c-0.011-0.297-0.022-0.605-0.011-0.903
			c-0.055-2.355-0.066-4.711-0.044-7.066c0.011-1.486,0.033-2.983,0.077-4.469c0.11-4.601,0.352-9.201,0.726-13.791
			c25.469,16.51,53.822-29.355,4.711-12.327c-1.288,0.781-2.543,1.651-3.698,2.63c0.308-4.909,2.51-9.389,3.412-14.187
			c3.665-0.737,7.374-1.398,10.984-2.366c4.964-1.222,17.258-5.14,11.282-11.7c-6.153-1.926-13.109,0.385-19.206,1.827
			c1.706-6.813,3.335-13.923,2.983-20.968c31.655-5.448,64.003-4.832,95.867-8.486c-0.11,0.022-0.231,0.033-0.341,0.055
			c8.299-1.233,16.697-1.178,25.073-1.288c6.219,0.154,12.625,0.826,18.436,3.137c1.728,9.587-3.83,19.217-4.722,28.815
			c-0.044,0.253-0.099,0.517-0.143,0.771c0-0.033,0.011-0.066,0.011-0.099c-0.033,0.176-0.066,0.352-0.099,0.528
			c-11.105,57.619-6.956,22.883,20.021,42.584c6.34,8.882-6.373,13.505-13.032,15.53c-4.755,6.351-2.961,16.003-5.173,23.532
			c-3.071,18.953-5.283,38.05-8.42,56.992c-0.231,0.925-0.066,1.673,0.308,2.212c1.134,1.629,4.237,1.431,4.799-1.222
			c1.618-7.914,2.421-15.982,4.216-23.862c0.253-1.266,0.495-2.52,0.737-3.786c2.994-15.971,4.975-32.106,7.352-48.164
			c0.847-0.297,1.673-0.649,2.487-1.002c1.717-0.705,3.423-1.464,5.019-2.41c0.044-0.022,0.088-0.055,0.132-0.077
			c0.022-0.011,0.055-0.033,0.077-0.044c9.873-4.788,11.711-18.843,2.234-25.04c4.59-9.433,8.222-19.35,12.404-28.98
			c0-0.011,0.011-0.033,0.022-0.044c0,0.011-0.011,0.022-0.011,0.033C1702.156,692.48,1725.358,646.308,1696.961,649.588z
			 M1520.714,723.486c3.082-1.508,6.45-2.069,9.818-2.487c4.711-0.561,9.488-0.165,14.187,0.242
			c-0.726,2.62-3.379,4.216-5.745,5.239c-0.87-4.138-7.441-4.711-10.269-2.311c-2.036,0.055-3.742,1.882-3.742,3.907
			c-1.86-0.88-4.304-1.706-5.426-3.489C1520.152,724.586,1520.692,724.124,1520.714,723.486z M1522.056,719.006
			c0.011,0,0.033-0.011,0.044-0.011c0.055-0.033,0.099-0.066,0.154-0.099C1522.189,718.929,1522.123,718.973,1522.056,719.006z"/>
		<path style="fill:#231F20;" d="M1516.304,756.703c-3.037-0.68-1.012-4.306-0.168-6.071c-0.043,0.086-0.082,0.172-0.125,0.254
			c0.854-2.106,4.535-9.942,5.908-4.205C1519.791,749.183,1519.415,756.479,1516.304,756.703z"/>
		<path style="fill:#231F20;" d="M1523.26,755.569c-4.652,0.024,2.291-14.532,4.574-10.861c0.83,1.775-0.874,3.626-1.254,5.354
			C1525.748,751.958,1526.067,755.568,1523.26,755.569z"/>
		<path style="fill:#231F20;" d="M1531.522,752.669c-3.206-1.169,0.627-5.091,0.791-7.27c-0.009,0.047-0.017,0.099-0.026,0.146
			c-0.15-1.253,1.768-1.87,1.836-0.383C1533.49,747.437,1534.504,752.16,1531.522,752.669z"/>
		<path style="fill:#231F20;" d="M1591.506,748.885c-4.611-0.775,3.461-12.31,4.794-7.262c-0.551,1.762-2.318,3-2.614,5.022
			c0.03-0.09,0.06-0.185,0.09-0.275C1593.499,747.521,1592.945,748.999,1591.506,748.885z"/>
		<path style="fill:#231F20;" d="M1597.499,747.634c0.414-3.289,3.138-6.027,5.486-8.173c3.483-1.266,2.93,2.836,0.87,4.227
			c-1.631,1.839-1.567,5.581-4.279,6.114C1598.387,749.883,1597.46,748.798,1597.499,747.634z"/>
		<path style="fill:#231F20;" d="M1606.284,748.272c0.661-3.194,2.545-7.564,4.956-9.554c4.618,0.763-0.57,7.061-0.811,9.782
			C1609.975,750.946,1606.202,750.986,1606.284,748.272z"/>
		<path style="fill:#231F20;" d="M1537.03,1019.838c-7.692-23.284,5.614-47.845,14.552-69.202
			c3.943-10.096,1.526-21.812,6.178-31.521c3.339-5.667,10.629-2.851,12.128,2.741c-1.869-10.924,8.319-18.996,12.343-5.469
			c3.503-15.659,11.814-14.417,12.397,1.335c8.448-14.939,18.522-7.126,14.381,7.448c-5.771,15.959-12.201,31.854-12.686,49.112
			c0.012-0.18,0.024-0.359,0.033-0.537c-1.852,6.41,3.964,17.328-4.148,20.272c-9.124,0.716-4.437-17.667-4.984-23.458
			c-0.017,0.245-0.034,0.49-0.052,0.74c1.092-10.885,3.318-21.99,7.876-31.979c2.98-7.854,10.373-15.741,8.778-24.487
			c-8.36,4.12-7.208,17.517-14.736,22.144c-9.605,0.168,4.074-18.196-0.477-26.294c-3.56,4.775-3.331,26.14-10.753,24.472
			c-1.282-0.801-1.312-2.31-1.157-3.634c0.388-5.24,3.485-13.41-1.195-17.185c0.034-0.004,0.067-0.009,0.1-0.013
			c-0.172,0.015-0.346,0.057-0.511,0.109c0,0,0,0,0,0.001c0.044-0.012,0.088-0.024,0.132-0.036c-0.045,0.017-0.092,0.034-0.138,0.05
			c-1.759,5.647,1.114,23.628-7.334,23.722c-3.905-3.653,0.262-11.112-3.608-15.453c0.073,0.099,0.142,0.198,0.215,0.301
			c-0.267-0.322-0.572-0.605-0.916-0.844c0.017,0.009,0.035,0.018,0.052,0.028c-0.066-0.033-0.123-0.08-0.185-0.12
			c0.032,0.024,0.064,0.048,0.097,0.072c-0.061-0.033-0.124-0.065-0.187-0.095c0.141,0.063,0.271,0.152,0.391,0.247
			c-0.24-0.147-0.474-0.308-0.743-0.397c-2.752,9.279-0.102,19.909-3.451,29.367c-4.159,12.124-10.86,23.29-14.991,35.434
			c0.004-0.012,0.008-0.025,0.013-0.037c-3.412,8.808-3.229,18.261-3.856,27.534c0.013-0.138,0.021-0.275,0.03-0.413
			C1540.759,1016.284,1540.982,1021.345,1537.03,1019.838z"/>
		<path style="fill:#231F20;" d="M1062.986,1210.788c-0.473-0.088-0.935-0.187-1.409-0.308c-0.011,0-0.033-0.011-0.044-0.011
			c-0.066-0.022-0.121-0.044-0.176-0.066c-0.451-4.799,6.637-11.469,0.539-14.716c-2.63-0.693-6.197-0.792-7.694-3.412
			c0.264-4.513,5.481-7.198,5.217-11.788c-0.87-5.756-8.541-4.149-11.898-7.33c-0.286-3.324,1.772-6.593,3.555-9.301
			c0.947,0.363,1.992,0.044,2.939-0.297c7.551-2.179,19.57-0.352,21.099,8.827c0,0.055,0,0.121-0.011,0.176
			c-2.928,3.071-7.474,3.269-10.742,5.624c-5.162,8.706,13.307,4.601,13.99,12.911c-3.071,3.819-12.481,2.113-11.645,8.53
			c2.102,3.995,8.684,3.137,11.832,6.329C1077.635,1209.929,1066.761,1210.094,1062.986,1210.788z M1077.878,1198.229
			c-0.033-0.011-0.066-0.022-0.099-0.033c0.418-0.242,0.826-0.506,1.233-0.781
			C1078.615,1197.701,1078.23,1197.965,1077.878,1198.229z M1498.568,1288.648c0.363-6.571,1.915-14.342-3.434-18.161
			c-10.203-1.772-20.78-1.013-31.104-1.144c-25.964,0.319-51.918,1.464-77.838,3.126c-23.345,1.475-46.657,3.39-69.946,5.481
			c-6.637-24.522-13.857-48.88-20.835-73.292c-3.742-13.054-7.407-26.118-10.886-39.238c-3.907-15.552-9.587-30.576-13.835-46.04
			c-0.265-0.583-0.528-1.222-0.793-1.904v-0.011c-2.487-6.56-4.601-16.906-9.422-20.296c-1.64-3.137-5.844-1.409-8.64-1.123
			c-9.202,0.198-18.425-0.275-27.626,0.451c-27.505-0.594-54.967,2.036-82.417,2.906c-33.207-0.231-66.545,2.135-99.235,7.98
			c-11.711-2.576-3.324,14.066-1.761,19.339c3.082,9.829,4.964,20.351,9.631,29.541c-1.233,0.87-1.915,2.466-1.882,3.984
			c-8.002,7.947-10.831,20.043,3.269,22.541c-6.307,7.341-4.788,17.841,5.9,19.107c-4.59,8.618-2.069,18.062,9.278,14.936
			c3.236,21.98,11.282,43.872,17.038,65.544c3.808,10.346,3.94,23.015,8.662,33.009c0.958,2.047,2.114,3.984,3.533,5.767
			c3.06,1.211,6.109-1.805,6.076-4.799c22.519,1.948,44.984-2.025,67.525-1.464c-0.066-0.011-0.132-0.011-0.187-0.011
			c37.961,0.726,75.857-1.695,113.774-3.016c11.447-0.165,22.761-1.959,34.175-2.587c5.173-0.187,13.901,0.066,12.801-7.429
			c27.241-1.001,54.416-3.203,81.668-4.237c8.475-1.277,37.697,0.22,47.955-3.489c1.552-0.55,2.664-1.233,3.214-2.047
			c8.497-0.771,17.082-1.222,25.612-0.925c-0.088,1.178,0.033,2.223,0.319,3.126c1.453,4.854,7.264,5.536,9.114,0
			c0.143-0.396,0.253-0.814,0.341-1.266C1498.458,1291.664,1498.48,1290.189,1498.568,1288.648z"/>
		<path style="fill:#231F20;" d="M1526.394,863.667c-3.625-2.846-0.16-7.887,3.775-7.898c3.247-2.576,13.643-4.776,17.696-3.682
			c3.559,1.849,2.329,7.208-1.045,8.549C1540.634,863.013,1532.894,865.591,1526.394,863.667z"/>
		<path style="fill:#231F20;" d="M1385.73,895.418c-5.118,4.579-9.499,10.093-12.459,16.301c-0.694,2.113-2.323,4.48-4.832,3.995
			c-9.465-3.082,12.933-26.68,18.293-25.997c-0.066-0.011-0.143-0.022-0.198-0.033
			C1390.573,889.684,1389.362,896.057,1385.73,895.418z"/>
		<path style="fill:#231F20;" d="M1366.776,892.171c-2.917,3.28-5.294,7.033-7.275,10.94c-2.179,3.28-1.585,10.633-6.747,10.445
			c-7.55-3.676,8.354-25.458,13.681-27.747C1371.311,884.907,1370.332,890.939,1366.776,892.171z"/>
		<path style="fill:#231F20;" d="M1818.88,876.19c-0.528-4.777-4.116-9.895-3.005-14.506c4.645-4.458,6.747,9.234,8.431,12.03
			C1825.517,876.982,1820.179,880.031,1818.88,876.19z"/>
		<path style="fill:#231F20;" d="M1823.745,904.3c-1.145,4.05,0.055,11.777-5.69,12.184c-5.767-1.013-1.827-8.167-1.189-11.777
			c0.781-2.719,1.64-7,5.206-7C1825.737,898.049,1824.658,902.011,1823.745,904.3z"/>
		<path style="fill:#231F20;" d="M1814.642,940.523c-0.286,4.887-7.969,5.382-7.385-0.044
			C1807.543,935.592,1815.215,935.086,1814.642,940.523z"/>
		<path style="fill:#231F20;" d="M1862.785,845.515c-0.308,5.228-8.519,5.767-7.903-0.044
			C1855.179,840.254,1863.401,839.703,1862.785,845.515z"/>
		<path style="fill:#231F20;" d="M1291.283,598.958c0.143-5.107,2.575-12.36-1.816-16.18c-7.165-2.531-5.712,9.289-13.494,11.524
			c-8.904,6.087-20.846,4.876-29.354,11.623c-14.991,11.117-15.519,33.218-21.903,48.352c-0.815,1.387-0.738,3.39,0.594,4.424
			c2.41,1.827,4.468-1.057,6.483-2.124c3.599-1.948,7.638-2.895,11.524-4.105C1274.663,648.201,1297.975,634.476,1291.283,598.958z
			 M1283.886,598.606c-0.847,25.425-34.274,16.246-50.167,39.381C1244.659,600.565,1259.672,615.556,1283.886,598.606z
			 M1234.06,648.289c3.522-6.13,8.816-11.227,14.716-15.068c-0.132,0.077-0.264,0.154-0.396,0.231
			c11.37-7.958,27.89-6.703,36.938-18.006C1283.028,642.115,1253.244,641.025,1234.06,648.289z"/>
		<path style="fill:#231F20;" d="M1370.287,286.032c0.033,0.176,0.077,0.352,0.11,0.528c-2.322-4.205,1.541-11.546-3.357-13.725
			c-5.514-6.252-20.714,7.462-23.664,12.955c-4.898,10.258-6.329,22.31-18.546,26.658c-14.98,6.747-19.306,22.431-20.054,37.598
			c-1.133,3.489-3.841,7.793-2.267,11.392c4.832,4.028,9.598-5.074,14.749-5.47c24.644-5.602,51.599-4.986,57.234-35.771
			c-0.022,0.176-0.055,0.352-0.088,0.517c0.055-0.297,0.11-0.616,0.165-0.925C1376.759,308.331,1372.951,297.049,1370.287,286.032z
			 M1346.293,297.072v-0.011c0.033-0.11,0.066-0.22,0.11-0.33c0.495-1.585,1.046-3.137,1.695-4.678
			c0.55-1.189,1.123-2.344,1.794-3.467c0.011-0.022,0.033-0.044,0.044-0.066c2.322-3.346,5.668-5.911,9.113-8.013
			c-1.475,54.813-13.978,35.529-48.814,61.725C1312.261,316.729,1342.353,321.088,1346.293,297.072z M1351.489,341.538
			c-13.109,4.557-28.067,3.764-40.592,10.148c21.056-25.601,52.644-11.161,53.426-57.883
			C1370.585,310.235,1370.332,333.877,1351.489,341.538z"/>
		<path style="fill:#FFFFFF;" d="M1606.033,1258.578c-42.208-1.102-53.698-42.713-58.621-77.515
			c-7.37-38.009-11.375-76.622-12.581-115.314c0.004,0.163,0.009,0.322,0.013,0.486c-0.006-0.323-0.014-0.64-0.026-0.963
			c0.004,0.159,0.009,0.323,0.013,0.482c-0.062-2.261-0.124-4.523-0.185-6.784c0.004,0.155,0.009,0.305,0.013,0.456
			c0.758-4.074-3.36-41.633,4.36-35.376c-0.006-0.005-0.012-0.01-0.018-0.015c0.916,0.819,0.805,2.336-0.113,3.139
			c2.149,44.69,5.538,89.504,12.922,133.653c-0.03-0.189-0.06-0.378-0.09-0.572c0.196,1.214,0.386,2.424,0.58,3.637
			c-0.006-0.042-0.013-0.083-0.02-0.125c0.607,3.735,1.218,7.47,1.808,11.208c-0.004-0.029-0.008-0.059-0.013-0.088
			c0.044,0.282,0.089,0.564,0.133,0.844c-0.006-0.045-0.013-0.09-0.02-0.135c3.079,20.721,6.107,43.121,18.517,60.564
			c18.343,20.557,48.678,20.344,67.168,0.107c-0.112,0.095-0.219,0.193-0.327,0.292c6.841-6.22,12.266-13.76,17.368-21.423
			c-0.011,0.016-0.021,0.031-0.032,0.046c1.063-1.568,2.138-3.129,3.207-4.689c-0.046,0.069-0.093,0.139-0.141,0.209
			c1.734-2.544,3.444-5.108,5.181-7.649c-0.099,0.146-0.198,0.292-0.297,0.438c19.112-28.445,38.011-58.061,50.682-89.969
			c-0.064,0.172-0.129,0.34-0.193,0.507c0.12-0.318,0.241-0.641,0.361-0.959c-0.015,0.042-0.03,0.084-0.046,0.126
			c6.195-15.034,13.457-29.627,19.715-44.655c2.438-3.46,4.151-14.379,8.607-14.258c4.472,3.076-2.703,10.722-3.527,14.821
			c-3.718,8.594-7.156,17.277-10.506,26.024c0.013-0.034,0.026-0.068,0.04-0.103c-11.041,30.922-26.157,58.621-42.557,86.972
			C1667.529,1210.894,1645.535,1256.917,1606.033,1258.578z"/>
		<path style="fill:#FFFFFF;" d="M1622.358,1121.724c-6.483-4.812-9.216-22.491-11.782-30.611
			c-6.059-27.015-8.246-54.727-14.754-81.655c0.034,0.112,0.069,0.224,0.103,0.335c-0.194-0.641-0.387-1.281-0.58-1.917
			c0.004,0.014,0.009,0.028,0.013,0.042c-0.773-2.62-3.059-8.475,1.11-9.092c-0.047-0.002-0.094-0.004-0.141-0.004
			c2.278,0.184,1.88,5.298,3.516,7.188c5.215,15.406,9.837,31.23,12.512,47.296c-0.001-0.003-0.001-0.007-0.002-0.011
			c3.111,18.641,5.17,37.615,10.776,55.715c11.67-40.416,25.732-79.938,38.472-119.973c2.983-17.752,11.358-33.998,15.71-51.444
			c3.426-6.022,4.273-24.844,12.399-24.602c2.091,0.968,1.909,3.631,0.808,5.28c-6.303,15.194-9.215,31.719-15.194,47.11
			c-5.052,11.368-6.254,23.742-10.27,35.428c-5.434,18.097-13.654,35.107-19.09,53.184c0.052-0.142,0.107-0.284,0.159-0.43
			c-0.12,0.322-0.24,0.643-0.361,0.965c0.001-0.003,0.002-0.007,0.004-0.01c-5.984,16.456-11.029,33.235-15.839,50.063
			C1627.421,1109.389,1628.649,1120.767,1622.358,1121.724z"/>
		<path style="fill:#FFFFFF;" d="M1611.598,903.416c-2.734-5.943,25.234-17.518,30.241-21.864
			c19.162-10.175,35.904-24.913,54.259-35.874c1.168,0.341,0.922,2.139-0.127,2.493c-13.724,12.54-27.882,24.619-43.508,34.758
			c-9.131,5.762-18.596,10.964-27.791,16.609C1620.932,901.099,1614.901,908.654,1611.598,903.416z"/>
		<path style="fill:#FFFFFF;" d="M1526.831,943.245c-12.406-19.474-21.437-40.559-27.313-62.871
			c-0.346-4.438-6.02-14.678-1.327-17.283c3.254-0.167,2.413,8.911,4.159,11.53c-0.014-0.046-0.029-0.091-0.043-0.137
			c0.029,0.094,0.059,0.189,0.086,0.284c-0.006-0.022-0.012-0.044-0.019-0.066c4.649,13.529,9.753,27.097,16.558,39.698
			c4.47,8.231,9.48,16.149,14.082,24.296C1535.256,942.442,1529.504,947.497,1526.831,943.245z"/>
		<path style="fill:#FFFFFF;" d="M1515.664,860.553c-0.192-4.857-2.42-15.397,1.972-18.32c1.984-0.408,2.91,2.118,1.624,3.419
			c-1.259,4.732,3.778,14.062-0.288,16.553C1517.64,862.831,1515.95,862.096,1515.664,860.553z"/>
		<path style="fill:#FFFFFF;" d="M1527.484,847.198c-3.501-3.457,3.668-7.968,5.683-10.693c3.693-1.697,2.99,3.007,0.703,4.365
			C1531.519,842.555,1530.84,847.832,1527.484,847.198z"/>
		<path style="fill:#FFFFFF;" d="M1673.891,830.227c-3.077-3.946,5.2-6.589,5.175-10.721c0.004,0.012,0.007,0.025,0.01,0.037
			c-0.005-0.021-0.013-0.042-0.009-0.065c-0.001,0.006-0.002,0.013-0.002,0.019c-0.005-0.019-0.01-0.038-0.016-0.057
			c0.025,0.078,0.004,0.157-0.004,0.24c0.002-0.109,0.003-0.216-0.026-0.322c0.005,0.014,0.01,0.029,0.014,0.044
			c-1.107-1.628,1.712-3.604,2.31-1.414c-0.001-0.015-0.002-0.029-0.003-0.044c0,0.004,0,0.004,0,0.009
			c-0.028-0.113-0.073-0.222-0.125-0.327C1683.179,820.18,1677.024,831.913,1673.891,830.227z"/>
		<path style="fill:#FFFFFF;" d="M1662.817,934.615c-1.263-2.602-3.382-9.177,0.799-9.885c2.662,0.881,0.641,5.05,2.826,6.832
			C1668.235,933.817,1664.55,937.368,1662.817,934.615z"/>
		<path style="fill:#FFFFFF;" d="M1649.124,951.129c-0.787-2.676,2.756-5.721,3.449-1.948
			C1653.08,951.703,1649.937,954.875,1649.124,951.129z"/>
		<path style="fill:#FFFFFF;" d="M1546.527,1015.681c3.902-5.24,12.542-7.021,18.233-10.453c1.176-0.589,2.641,0.145,2.877,1.437
			c-0.165,5.34-10.667,5.321-14.557,7.857C1550.998,1014.662,1547.23,1019.383,1546.527,1015.681z"/>
		<path style="fill:#FFFFFF;" d="M1676.052,1095.126c-3.851-2.405,5.591-12.208,7.898-8.277c1.346,2.53-1.543,3.813-2.931,5.367
			C1679.733,1093.625,1678.338,1096.516,1676.052,1095.126z"/>
		<path style="fill:#FFFFFF;" d="M1409.598,1124.115c-3.138-4.483-0.576-11.249-0.766-16.48c1.656-17.964,6.74-35.4,9.714-53.146
			c-1.248-29.672,1.575-59.416,4.527-88.958c-0.021,0.189-0.039,0.383-0.06,0.576c0.61-5.929,1.058-11.871,1.672-17.795
			c-0.017,0.185-0.039,0.37-0.056,0.555c0.473-3.143,0.002-8.235,4.252-8.595c1.93-0.056,3.22,1.694,3.147,3.517
			c-0.909,13.081-2.078,26.143-2.657,39.249c-1.096,16.667-2.243,33.342-3.138,50.024c-0.654,12.75,0.439,25.427-3.712,37.776
			c0.008-0.03,0.015-0.061,0.023-0.092c-3.766,16.481-8.879,32.707-10.993,49.523
			C1415.079,1120.095,1411.83,1125.482,1409.598,1124.115z"/>
		<path style="fill:#FFFFFF;" d="M1441.026,956.474c0.933-4.211-1.087-12.91,3.666-14.614c1.433-0.042,2.431,1.432,2.125,2.778
			c-1.917,3.789-0.071,12.105-3.67,13.888C1441.943,958.751,1440.986,957.672,1441.026,956.474z"/>
		<path style="fill:#FFFFFF;" d="M1407.565,981.088c-0.843-1.587-1.44-3.281-1.922-5.009c-0.682-2.49,3.292-3.896,3.653-0.981
			c0.311,2.09,2.853,4.57,0.806,6.386C1409.321,982.114,1408.073,982.055,1407.565,981.088z"/>
		<path style="fill:#FFFFFF;" d="M1567.542,651.701c-4.031-2.69,2.591-12.619,5.761-14.437c2.156-0.344,2.825,2.564,1.433,3.84
			c-2.168,2.396-4.671,4.895-5.508,8.101C1569.738,650.295,1568.818,651.872,1567.542,651.701z"/>
		<path style="fill:#FFFFFF;" d="M1582.857,644.266c-3.13-1.287,0.89-4.896,1.746-6.677c-0.047,0.069-0.099,0.142-0.146,0.211
			c1.121-1.364,2.505-4.748,4.669-3.143c0.88,0.842,0.643,2.282-0.166,3.087c0.004-0.004,0.007-0.008,0.011-0.013
			c-0.058,0.067-0.115,0.135-0.172,0.202c0.04-0.049,0.082-0.098,0.122-0.145C1586.701,639.615,1585.575,643.418,1582.857,644.266z"
			/>
		<path style="fill:#FFFFFF;" d="M1600.958,643.027c-3.041-2.334,2.511-6.303,4.088-8.225c1.929-1.904,3.968,1.367,2.017,2.791
			C1604.589,638.807,1603.556,642.683,1600.958,643.027z"/>
		<path style="fill:#FFFFFF;" d="M398.418,876.462c-0.235-4.621,5.615-4.531,8.788-5.757c11.947-3.699,26.715-0.327,33.665-13.483
			c-0.052,0.077-0.107,0.155-0.159,0.237c0.302-0.442,0.604-0.883,0.905-1.328c-0.001,0.001-0.002,0.002-0.003,0.004
			c5.478-3.914,6.632-36.943,8.843-30.604c-0.386,22.193-6.19,50.846-33.875,50.229C411.996,875.743,399.98,882.7,398.418,876.462z"
			/>
		<path style="fill:#FFFFFF;" d="M396.893,906.284c-0.127-11.5,40.202-9.124,49.714-18.526c-0.073,0.052-0.142,0.103-0.215,0.155
			c0.264-0.186,0.525-0.374,0.788-0.56c-0.01,0.008-0.021,0.015-0.031,0.023c0.07-0.051,0.14-0.1,0.211-0.151
			c-0.024,0.017-0.048,0.034-0.072,0.051c0.015-0.011,0.03-0.022,0.045-0.033c-0.024,0.017-0.048,0.033-0.072,0.051
			c1.418-1.099,2.704-2.338,3.908-3.667c-0.052,0.06-0.099,0.116-0.151,0.176c2.625-3.235,5.854-6.951,5.786-11.336
			c-0.515-2.046,2.276-2.016,1.914,0.123c-2.182,22.663-28.293,27.976-46.826,30.92
			C407.655,903.513,399.465,910.491,396.893,906.284z"/>
		<path style="fill:#FFFFFF;" d="M370.302,916.498c1.179-6.783,3.736-13.405,8.487-18.499c-0.004,0.005-0.009,0.01-0.013,0.016
			c0.197-0.227,0.394-0.454,0.591-0.68c-0.005,0.006-0.01,0.012-0.015,0.018c0.036-0.042,0.071-0.083,0.107-0.125
			c-0.004,0.005-0.008,0.009-0.012,0.014c3.975-4.763,4.456-0.185,0.833,2.484c0.039-0.039,0.073-0.082,0.112-0.125
			c-0.985,1.152-1.913,2.359-2.657,3.68c0.002-0.005,0.005-0.01,0.008-0.016c-2.22,4.205-3.15,8.919-4.187,13.52
			C373.294,919.023,369.884,918.912,370.302,916.498z"/>
		<path style="fill:#FFFFFF;" d="M523.427,845.055c-1.884-3.318,8.256-9.123,9.287-15.955c-0.047,0.125-0.09,0.249-0.138,0.378
			c3.594-9.732,6.316-21.789,0.107-30.883c1.31-4.727,5.659,3.932,5.714,5.911c3.766,13.09,0.524,29.171-9.066,39.048
			C527.86,845.035,525.11,847.679,523.427,845.055z"/>
		<path style="fill:#FFFFFF;" d="M291.527,1033.125c-10.331-29.199,7.86-58.164,34.156-71.591c-0.014,0.01-0.027,0.021-0.04,0.032
			c0.036-0.028,0.073-0.056,0.112-0.082c-0.014,0.009-0.028,0.019-0.042,0.028c2.019-1.402,3.55-3.327,5.003-5.282
			c4.243-1.528-1.401,4.995-2.507,5.786c-8.774,6.881-18.143,13.227-24.2,22.863
			C286.008,1005.773,304.046,1037.184,291.527,1033.125z"/>
		<path style="fill:#FFFFFF;" d="M283.24,1091.752c-9.658-10.577,32.356-17.995,28.367-66.143c0,0.005,0,0.009,0,0.013
			c-0.317-1.86-0.714-13.181,2.516-7.92c-0.124,9.12,1.392,18.248,0.742,27.414c-1.187,15.94-10.243,29.952-22.735,39.537
			c0.116-0.103,0.232-0.211,0.348-0.314C289.172,1086.306,287.645,1092.823,283.24,1091.752z"/>
		<path style="fill:#FFFFFF;" d="M258.659,1093.957c-1.172-2.903,14.834-28.582,14.185-20.908c0.004-0.003,0.008-0.006,0.012-0.009
			c-0.019,0.015-0.038,0.027-0.058,0.041c0.012-0.008,0.025-0.016,0.036-0.025c-1.515,1.162-2.767,2.641-3.835,4.214
			c0.026-0.034,0.052-0.069,0.077-0.107c-1.381,2.193-2.416,4.572-3.334,6.988c0.006-0.016,0.013-0.033,0.02-0.049
			c-2.539,3.739,0.069,11.379-4.81,12.852C259.416,1097.004,258.334,1095.416,258.659,1093.957z"/>
		<path style="fill:#FFFFFF;" d="M273.063,1180.314c-4.065-2.524,0.709-6.969,1.41-10.167c3.663-9.687,0.67-20.104,1.312-30.139
			c-0.683-20.543,14.641-26.247,9.327-17.799c-11.394,13.842,1.514,34.167-5.313,49.919
			C278.468,1175.105,277.52,1181.571,273.063,1180.314z"/>
		<path style="fill:#FFFFFF;" d="M244.243,1189.327c-2.174-7.511,4.775-20.013,9.255-26.175c2.115-1.639,3.872,1.752,1.941,3.118
			c-0.908,0.768-1.349,1.941-1.951,2.944c-2.478,4.89-4.515,10.074-5.174,15.549
			C248.637,1187.176,247.296,1191.438,244.243,1189.327z"/>
		<path style="fill:#FFFFFF;" d="M469.03,774.112c-6.004-4.352,12.276-17.54,16.289-19.619c2.908,1.408-2.275,3.165-3.13,4.446
			C477.074,761.908,471.783,775.028,469.03,774.112z"/>
	</g>
</g>
</svg>
