<svg xmlns="http://www.w3.org/2000/svg" xml:space="preserve" viewBox="0 0 2000 2000"><path d="M0 0h2000v2000H0z" style="fill:#fff"/><path d="M414.35 725.081c3.72-10.951 14.21-19.25 24.93-22.982 4.942-2.003 6.153 5.943 1.673 7.176-8.772 2.652-17.247 7.738-21.925 15.849-.143 3.16-5.008 3.458-4.678-.043M446.302 724.564c4.755-2.796 7.396 4.777 3.181 7.077-7.507 5.173-13.208 12.68-17.368 20.714-.286 1.332-1.739 2.312-3.027 1.772-4.238-6.185 11.37-25.821 17.214-29.563M464.672 532.93c-7.638-7.628 19.591-3.841 23.114-4.612 3.588.363 10.984-.748 10.28 4.799-.275 1.706-1.816 3.588-3.698 3.522-9.928-.759-19.867-2.146-29.707-3.698 0 0 0-.011.011-.011M461.909 606.63c-3.984-7.297 10.467-6.725 14.529-8.893 5.316-.264 22.123-9.785 23.422-2.08.187 1.992-1.068 4.094-3.005 4.7-10.126 3.28-20.538 5.085-31.115 5.966-.881 1.242-2.818 1.616-3.831.307M518.318 461.443c-2.554-10.17 17.886 12.426 18.964 14.782 2.531 3.071-2.256 8.299-5.118 4.909-4.546-6.572-7.474-14.562-13.846-19.691M542.532 549.297c-5.294-40.328 50.575-54.284 77.739-33.592 17.786 13.153 13.164 42.672-5.063 53.426a7 7 0 0 1-.363.253c-8.167 4.722-14.562 11.634-16.201 21.188-3.302 8.376-.451 24.534-10.082 26.185-.528 3.984-2.289 8.585-2.3 11.491.033-.165.077-.319.11-.484-1.376 9.642-7.958 19.47-18.909 16.653-10.918-.583-11.381-12.789-9.202-21.022.958-3.126 1.057-6.813 2.267-9.895-2.047-1.398-2.696-3.588-.77-7.077 2.63-29.148-15.069-31.514-17.226-57.126M623.903 469.246c1.563-7.044 6.527-12.833 8.497-19.713.462-2.157 3.797-2.388 3.973.033h.011v.011c-.594 6.978-4.436 13.307-5.129 20.318-.55 5.053-8.298 4.81-7.352-.649M625.026 613.663c4.821 2.521 8.057 7.892 13.274 10.203 11.832 4.832 6.846 14.055.902 10.665-5.778-4.986-10.511-10.841-14.76-17.148-1.474-.892-1.529-3.5.584-3.72M655.261 580.995c-3.577-9.994 13.637-1.761 18.073-1.431 5.063 2.345 18.513 4.205 15.992 11.854-.815 1.827-2.972 3.379-5.008 2.741-9.378-5.019-19.416-9.025-29.057-13.164M667.94 520.118c10.038-2.179 19.581-6.813 29.883-7.705 3.588-.099 4.424 4.832 2.091 6.945-2.267 2.069-5.745 1.189-8.563 1.574-6.846.143-13.56 1.893-20.417 1.948-1.343-.165-2.763-.066-4.05-.484-1.299-.693-.275-2.487 1.056-2.278M770.048 455.829c-5.547-5.624-5.734-16.114-4.303-23.653 1.222-2.917 1.343-13.857 5.701-12.415.374 5.25-2.774 11.359-2.069 17.137-1.619 5.591 10.169 18.524.671 18.931M785.776 445.637c.451-6.538 1.739-21.958 8.222-24.677 1.827.231 1.695 2.95.22 3.577-2.652 6.119-3.522 13.219-2.774 19.834.65 3.6-5.272 5.449-5.668 1.266M835.184 426.244c-.088.242-.176.484-.275.727 7.463-27.241 52.743-58.159 75.384-31.49 5.437-47.394 62.847-69.374 105.167-63.078 30.95 3.874 50.135 32.921 53.492 62.132 14.396-23.664 44.686-33.592 70.651-24.786 33.537 13.747 52.303 52.6 53.458 87.48v.143c2.047 82.45-106.025 87.216-166.66 85.785-49.859-2.124-103.34-2.719-148.147-27.131l-.429-.231c-.847-.473-1.695-.936-2.532-1.409-30.753-16.171-52.26-53.78-40.109-88.142M1204.574 507.604c-3.423-5.911 10.225-10.952 11.81-17.445 1.981-3.104 2.003-7.198 3.929-10.181 3.335-.803.396 8.86.077 10.764-1.475 4.502-10.148 21.826-15.816 16.862M1246.398 489.619c-.044.099-.077.198-.11.297.814-2.223 1.156-4.579 1.706-6.857.583-.429 1.057-.627 1.431-.627 5.36 0-8.222 39.69-15.046 32.844-6.56-5.845 11.392-17.446 12.019-25.657M1224.716 654.277c6.384-15.134 6.912-37.235 21.903-48.352 8.508-6.747 20.45-5.536 29.354-11.623 7.782-2.234 6.329-14.055 13.494-11.524 4.391 3.819 1.959 11.073 1.816 16.18 6.692 35.518-16.62 49.243-47.966 53.513-3.885 1.211-7.925 2.157-11.524 4.105-2.014 1.068-4.072 3.951-6.483 2.124-1.332-1.033-1.409-3.036-.594-4.423M1366.776 892.171c-2.917 3.28-5.294 7.033-7.275 10.94-2.179 3.28-1.585 10.633-6.747 10.445-7.55-3.676 8.354-25.458 13.681-27.747 4.876-.902 3.897 5.13.341 6.362M1302.51 361.438c-1.574-3.599 1.134-7.903 2.267-11.392.749-15.167 5.074-30.851 20.054-37.598 12.217-4.348 13.648-16.4 18.546-26.658 2.95-5.492 18.15-19.206 23.664-12.955 4.898 2.179 1.035 9.52 3.357 13.725-.033-.176-.077-.352-.11-.528 2.664 11.018 6.472 22.299 4.282 33.757-.055.308-.11.627-.165.925.033-.165.066-.341.088-.517-5.635 30.785-32.59 30.169-57.234 35.771-5.152.395-9.918 9.498-14.749 5.47M1386.731 889.717c-.066-.011-.143-.022-.198-.033 4.039 0 2.828 6.373-.804 5.734-5.118 4.579-9.499 10.093-12.459 16.301-.694 2.113-2.323 4.48-4.832 3.995-9.465-3.081 12.933-26.68 18.293-25.997M1503.885 607.587c.066-.099.143-.209.22-.319-2.873 2.818-3.291 10.038-8.156 9.609-8.618-3.61 15.618-26.812 21.044-26.328 3.247.187 2.091 5.206-.814 4.788-5.294 2.377-8.97 7.66-12.294 12.25M1490.38 510.543c.275-5.14 8.266-2.663 11.623-5.228 4.931-1.926 9.796-4.006 14.738-5.922h.011c2.08-1.2 4.964-.958 5.558 1.739.308 8.145-15.915 7.584-21.705 10.137.022 0 .044 0 .066-.011-.022.011-.055.011-.077.022-.055.011-.121.022-.176.044h-.022c-2.939.198-8.971 3.28-10.016-.781M1496.246 444.25c-.352-5.272 24.115-2.432 28.044-1.332 4.392 1.343 1.893 8.585-2.344 7.473-7.859-2.102-15.662-4.513-23.774-5.459-.649.65-1.838.232-1.926-.682M1538.863 609.579c-.474 1.431-2.697 1.981-3.357.418-2.95 1.618-5.371 3.995-7.616 6.461l-.022.022c-4.447 3.082-5.669 13.131-11.326 12.591-12.162-4.655 25.183-34.505 22.321-19.492M1537.851 367.623c9.763 3.863 17.908 11.854 25.557 18.931 3.324 3.192-1.387 9.631-5.184 6.417-6.406-6.362-11.788-13.758-18.491-19.856-.936 8.079-7.903-5.921-1.882-5.492M1592.212 502.046c-2.069-15.09-21.694-23.279-18.7-46.26 3.819-38.039 69.924-37.466 77.53-2.08 5.305 37.18-19.834 27.285-29.674 45.996-4.733 13.208-2.267 23.422-6.901 27.846-.363 12.58-8.101 36.696-23.873 29.541-6.186-2.718-3.632-18.799.396-27.924-1.299-8.948.187-18.182 1.222-27.119M1661.773 356.165c1.156-1.519.649-4.392 2.708-5.008.947-.154 1.772.683 1.684 1.629-.946 5.074-3.984 9.532-4.975 14.628-.649 2.642-.583 7.187-4.348 6.967-6.78-3.401 3.412-13.483 4.931-18.216M1674.728 516.409c5.096 4.028 11.524 8.024 17.159 12.129 3.742 2.642-.705 9.355-4.392 6.219-2.003-3.797-19.702-15.442-12.767-18.348M1691.612 424.318c-.176-4.766 6.043-4.711 9.301-6.208 7.594-2.146 14.716-6.076 22.519-7.352 5.36-.033 4.667 8.508-.11 9.047-5.856-.858-32.294 11.601-31.71 4.513M1689.146 483.588c-1.068-6.263 5.206-3.687 8.574-2.499 6.956 3.566 31.622-1.354 28.309 10.819-1.023 2.322-3.698 3.83-6.087 2.818-9.696-4.777-22.189-4.909-30.796-11.138M1807.257 940.479c.286-4.887 7.958-5.393 7.385.044-.286 4.887-7.968 5.382-7.385-.044M1816.866 904.708c.781-2.719 1.64-7 5.206-7 3.665.341 2.586 4.304 1.673 6.593-1.145 4.05.055 11.777-5.69 12.184-5.768-1.013-1.828-8.167-1.189-11.777M1818.88 876.19c-.528-4.777-4.116-9.895-3.005-14.506 4.645-4.458 6.747 9.234 8.431 12.03 1.211 3.268-4.127 6.317-5.426 2.476M1854.882 845.471c.297-5.217 8.519-5.767 7.903.044-.308 5.228-8.519 5.767-7.903-.044" style="fill:#fff"/><path d="M1901.153 1278.236c-1.794-1.332-4.458-2.641-7.099-3.225-.121-.033-.242-.066-.363-.088-.033-.011-.077-.011-.11-.022l-.385-.066c-.187-.033-.374-.055-.55-.077-.925-.11-1.827-.132-2.675.011-2.487.187-5.085.748-7.484.561-62.396 1.486-124.803 3.247-187.188 5.382 1.706-3.082 1.805-8.046 2.598-11.084 11.755-46.987 22.96-94.062 32.811-141.511l.132-.561c.231-.991.474-1.992.705-2.994v-.011l.011-.011.033-.154c5.547-26.999 17.093-52.391 20.362-79.896 26.493-52.149 50.498-111.848 43.377-171.536.033.231.066.462.11.693-4.975-49.958-52.897-39.26-88.998-35.749 5.426-8.937 11.667-25.689-.803-31.456-9.4-1.871-18.986 1.981-28.441 2.366-3.511.716-8.035.077-11.799.837 2.994-15.971 4.975-32.106 7.352-48.164a37 37 0 0 0 2.487-1.002c1.717-.705 3.423-1.464 5.019-2.41.044-.022.088-.055.132-.077.022-.011.055-.033.077-.044 9.873-4.788 11.711-18.843 2.234-25.04 4.59-9.433 8.222-19.35 12.404-28.98l.011-.011c7.044-11.436 30.246-57.608 1.849-54.328.341-1.112.65-2.223.892-3.379.011-.044.011-.077.022-.11l.033-.165c.044-.209.077-.396.121-.605.452-2.432.463-4.931.308-7.374.011.088.011.187.022.275-.165-20.263-19.14-16.829-31.578-8.937 5.041-30.07-36.498-22.211-50.036-8.321 3.115-25.029-41.516-4.249-48.759 5.899.407-22.497-22.079-8.486-28.771 2.388-10.786 12.977-16.73 30.565-15.783 47.416-3.577 7.198-4.909 15.332-7.286 22.993-3.005 1.211-5.184 5.822-1.904 7.925-5.778 24.434-4.061 50.069-1.618 74.844 1.123 28.353 3.566 30.763 32.502 32.051-.462 5.371-1.409 10.83-2.3 16.312-5.68-2.983-17.974 1.662-23.829 1.794-16.675-.264-21.375 7.198-22.167 23.169-17.357 2.895-34.957 4.557-51.907 9.477-30.488 12.228-53.756 39.15-65.236 69.561-10.434 30.488-16.95 62.308-31.049 91.464-9.708 22.145-19.537 45.094-35.551 63.485-11.942 12.944-27.098 21.221-43.19 27.714-2.487-6.56-4.601-16.906-9.422-20.296-1.64-3.137-5.844-1.409-8.64-1.123-9.202.198-18.425-.275-27.626.451-27.505-.594-54.967 2.036-82.417 2.906-33.207-.231-66.545 2.135-99.235 7.98-11.711-2.576-3.324 14.066-1.761 19.339 3.082 9.829 4.964 20.351 9.631 29.541-1.233.87-1.915 2.466-1.882 3.984-8.002 7.947-10.831 20.043 3.269 22.541-6.307 7.341-4.788 17.841 5.9 19.107-4.59 8.618-2.069 18.062 9.278 14.936 3.236 21.98 11.282 43.872 17.038 65.544 3.808 10.346 3.94 23.015 8.662 33.009-61.108 2.587-122.26 3.698-183.39 5.404a1785 1785 0 0 1-30.565 2.213c1.673-4.282 3.445-8.53 5.239-12.768 22.453-54.339 46.425-108.062 67.096-163.128 4.59-13.791 10.632-26.999 15.915-40.504.98-5.514 6.45-12.173 3.522-17.5.418-3.412 1.222-8.937-3.401-9.598-9.378-1.244-18.931-.308-28.375-1.023-54.614-5.393-113.158-.639-168.906 1.915l-3.115.231s0-.011.011-.011l-.363.033c-9.939.418-19.724 2.212-29.585 3.214-1.244-5.811-6.703 3.027-7.308 5.063-10.137 23.378-18.491 48.12-25.976 73.072-10.005 11.414-19.349 23.466-28.551 35.474-1.266 2.521-6.054 8.783-11.469 16.125 12.944-72.83 24.402-146.2 24.06-220.361-2.113-51.621-8.519-66.545-63.695-62-6.923.165-13.835.859-20.747.815.099-.286.176-.583.231-.88 1.629-6.351 5.041-12.691 5.349-19.261 15.673 2.873 31.963-.605 37.444-18.172a9 9 0 0 1-.209.484c3.841-10.027 7.231-20.274 9.598-30.752 22.685-4.127 34.285-45.666 12.228-57.993 5.591-31.633 8.211-68.119-24.6-83.22-1.86-1.354-3.973-2.443-6.131-3.357-9.653-15.453-26.404-21.209-43.685-20.582-6.736-1.145-14.209-1.09-23.301.517-42.639-3.258-112.079 50.784-126.927 89.45-4.072 10.533-6.406 21.661-8.486 32.722-1.728 15.86-4.601 37.224-24.621 38.06-9.884 1.244-21.089-.836-29.663 5.239-.088.066-.176.121-.253.187-.077.055-.154.099-.22.154-12.052 8.057-18.854 22.2-20.45 36.344.462 47.922-56.584 24.445-79.467 85.928-5.911 13.461-3.852 28.166-4.568 42.386-6.175 37.18-48.572 16.95-29.2 84.332 3.346 21.958-22.244 32.491-27.34 52.006-11.656 29.564-.957 67.096 30.092 79.225 17.17 6.043 33.713-2.708 44.477-15.981l-.66 5.646c-2.993 36.663-23.367 105.927 24.567 120.037 25.051 4.557 48.671-9.553 72.093-16.499-.143 2.443.308 5.063-.077 7.407-.121 4.479-.396 9.058-.275 13.593-2.014.198-4.017.407-6.031.617-40.295.781-80.501 1.068-120.62 5.613-40.086 1.024-80.006 3.093-119.509 10.654-2.201.781-26.526 4.491-39.238 7.87-.958-.242-1.64.022-2.124.594-4.546 1.343-6.857 2.609-4.667 3.577.704-.088 1.409-.176 2.113-.275-.264.187-.506.385-.759.583-3.225 3.632.616 13.747 2.41 21.319v.011c1.001 20.395 3.632 40.966 11.083 59.919 30.389 61.174 100.622 88.173 165.175 94.48 111.155 16.246 217.357-31.027 323.933-54.922.121-.033.253-.055.374-.088 36.497-9.366 73.964-14.275 111.375-18.315-.198.011-.385.033-.583.055 42.87-4.942 86.093-4.183 129.128-2.278 80.37 1.398 157.492 26.063 232.579 52.666 60.668 17.578 122.062 36.377 185.47 39.965.969-.011 1.783-.286 2.454-.737 10.434 1.618 24.347 2.3 26.746 2.576 4.799.341 9.609.286 14.397-.209 21.265-2.499 42.562-6.527 62.539-14.429 35.199-13.758 67.91-32.821 99.081-54.031 34.109-22.882 66.897-48.891 105.662-63.552 38.237-14.672 79.808-16.994 120.048-22.574 26.625-2.355 52.974-6.604 79.06-12.36 36.333-8.068 74.206-17.302 102.79-42.496 23.662-23.426 44.938-62.411 29.231-95.067m-494.863-146.321c-7.133 27.142 1.651 55.55-7.562 82.23-4.359 19.063-8.376 38.16-12.504 57.278.011.33 0 .682-.033 1.046-23.345 1.475-46.657 3.39-69.946 5.481-6.637-24.522-13.857-48.88-20.835-73.292 47.912-13.748 95.372-43.598 110.88-72.743" style="fill:#fff"/><path d="m1602.371 976.811.033-.385c.066-.627.143-1.244.231-1.871-.088.737-.176 1.497-.264 2.256m192.955-103.857c.033.231.066.462.11.693-4.975-49.958-52.897-39.26-88.998-35.749 5.426-8.937 11.667-25.689-.803-31.456-9.4-1.871-18.986 1.981-28.441 2.366-3.511.716-8.035.077-11.799.837-2.575.517-4.799 1.695-6.087 4.414-1.607 7.187-3.302 15.068-1.695 22.398-.649.693-1.31 1.376-1.97 2.058-33.713 34.572-81.426 52.05-115.865 85.994-2.003-20.23-6.868-40.042-9.279-60.195a187 187 0 0 1-.407-3.588c5.019-.572 8.629-1.717 11.172-3.39 2.223-1.453 3.632-3.302 4.425-5.525 1.772-4.909.583-11.579-1.123-19.592a5.3 5.3 0 0 0-1.739-1.42c-5.68-2.983-17.974 1.662-23.829 1.794-16.675-.264-21.375 7.198-22.167 23.169-17.357 2.895-34.957 4.557-51.907 9.477-30.488 12.228-53.756 39.15-65.236 69.561-10.434 30.488-16.95 62.308-31.049 91.464-9.708 22.145-19.537 45.094-35.551 63.485-11.942 12.944-27.098 21.221-43.19 27.714v.011c-13.725 5.547-28.133 9.829-41.814 14.639-26.933 7.672-60.481 38.115-33.933 64.751 22.53 19.526 62.044 19.052 101.26 7.793 47.911-13.747 95.371-43.597 110.88-72.742-7.133 27.142 1.651 55.55-7.562 82.23-4.359 19.063-8.376 38.16-12.504 57.278.011.33 0 .682-.033 1.046-.539 6.725-6.703 18.579.132 21.958a8.4 8.4 0 0 0 2.003.661c23.895-1.156 47.79-1.112 71.685-.969 9.708.055 19.427.132 29.145.154q4.557.016 9.114 0c.858.011 1.728 0 2.597 0 50.52-4.689 101.557-1.123 152.011-7.055h.033c12.393-.121 24.456-4.557 36.795-3.83 2.85.44 4.535-.748 5.591-2.675 1.706-3.082 1.805-8.046 2.598-11.084 11.755-46.987 22.96-94.062 32.811-141.511l.132-.561c.231-.991.474-1.992.705-2.994v-.011l.011-.011.033-.154c5.547-26.999 17.093-52.391 20.362-79.896 26.492-52.149 50.497-111.849 43.376-171.537m-225.611 47.592c2.168-2.201 3.94-5.69 5.371-7.958 1.959-.605 3.137 1.045 4.678 1.816.661.154 1.244.165 1.783.055h.011a3.9 3.9 0 0 0 1.299-.528c3.005-1.86 4.535-7.385 8.563-7.649.264-.022.561-.011.859.022.033.396.055.781.055 1.178v.011c.033 1.574-.143 3.148-.275 4.711-.011.066-.011.132-.022.209 0-.055.011-.11.011-.165-.506 2.135.242 4.909 2.587 5.382.011 0 .022.011.044.011.099.022.198.033.308.044 3.61.044 5.426-4.128 8.772-5.14 6.516 7.484-.914 18.557-2.763 26.79-5.382 15.816-8.211 32.436-9.972 49.012-1.299.583-2.586 1.167-3.896 1.739-15.696 6.901-31.886 12.9-46.404 22.046a108 108 0 0 0-4.898 3.258 1 1 0 0 0-.121.077 24 24 0 0 1-.055-.881s-.011-.011 0-.022c-.209-3.39-.066-6.78.242-10.17.011-.055.011-.099.011-.154 1.596-19.063 9.135-37.026 16.224-54.603 4.127-9.422 4.667-20.032 9.509-29.167 3.06 3.159 5.668 2.411 7.87.286.065-.067.143-.133.209-.21m147.476 217.533c-.242 1.057-.484 2.124-.727 3.181.242-1.09.495-2.19.738-3.28 0 .033 0 .066-.011.099M608.703 910.938c0 .33-.011.649-.033.969-.308 6.571-3.72 12.911-5.349 19.261a6 6 0 0 1-.231.88c-.55 1.673-1.805 3.236-3.346 3.907-.826.374-1.75.484-2.674.22a4.3 4.3 0 0 1-1.123-.517c-1.365-.913-1.893-2.498-2.091-4.094-.935.253-1.794.198-2.576-.121a4.7 4.7 0 0 1-1.277-.771c-7.055-5.855-6.274-34.131 4.854-27.483 4.59-2.752 9.994 1.277 10.39 6.186.826-1.244 2.95-1.211 3.412.297.033.418.044.847.044 1.266M646.059 724.85c-.869-.969-1.86-1.827-2.928-2.598-1.86-1.354-3.973-2.443-6.131-3.357-1.717-.726-3.467-1.354-5.173-1.926-14.473-9.19-24.974-16.356-38.512-18.656-6.736-1.145-14.209-1.09-23.301.517-42.639-3.258-112.079 50.784-126.927 89.45-4.072 10.533-6.406 21.661-8.486 32.722-1.728 15.86-4.601 37.224-24.621 38.06-9.884 1.244-21.089-.836-29.663 5.239-.088.066-.176.121-.253.187-.077.055-.154.099-.22.154-12.052 8.057-18.854 22.2-20.45 36.344.462 47.922-56.584 24.445-79.467 85.928-5.911 13.461-3.852 28.166-4.568 42.386-6.175 37.18-48.572 16.95-29.2 84.332 3.346 21.958-22.244 32.491-27.34 52.006-11.656 29.564-.957 67.096 30.092 79.225 17.17 6.043 33.713-2.708 44.477-15.981a60 60 0 0 0 7.616-12.041 84 84 0 0 0 3.764-8.464c8.563-22.222 8.42-47.207 11.59-70.706v-.011c.121-.859.242-1.706.363-2.554 5.052-35.452 12.206-70.772 22.541-105.068 2.795-8.464 5.679-17.688 9.058-26.867 6.615-17.963 15.156-35.749 28.815-47.284 17.863-12.602 40.273-4.689 60.305-4.975 47.878-1.431 62.473-41.781 71.157-83.429 4.094-19.592 6.868-39.469 11.194-55.726 4.347-11.38 8.794-22.772 13.593-33.966a470 470 0 0 1 6.89-15.354c6.384-6.703 14.727-11.05 21.232-17.643v.011l.033-.033a.5.5 0 0 0 .077-.066c.088-.077.176-.165.264-.242l.033-.033c12.393-13.12 26.955-23.268 46.029-20.384.077 0 .154 0 .231.011 6.219.429 12.547.11 18.403 2.597 4.127.76 8.849 3.379 12.955 1.882a5.47 5.47 0 0 0 3.104 1.156c2.522.121 4.69-1.64 3.424-4.843m-46.579-17.082c4.094 2.091 12.118 4.689 13.417 8.123-2.575-.583-5.173-1.013-7.793-1.354-.517-2.961-3.379-5.008-5.624-6.747z" style="fill:#f7941d"/><path d="M584.916 843.247c-5.898-1.243-15.195-2.139-16.446-9.355-.208-3.729.98-8.712 5.588-8.705 20.68-10.616 48.652 24.008 10.858 18.06M648.23 857.638c-4.136-1.376-8.996-3.186-11.63-6.818-2.986-5.554-.297-11.823 6.523-11.054 8.937-.648 16.774 16.486 5.107 17.872M1518.474 758.38c-9.796-3.279-3.705-16.187 4.739-15.978 5.873-1.833 14.974 2.601 15.254 9.081-1.371 8.193-13.56 9.146-19.993 6.897M1587.546 755.092c-24.034-5.507-14.804-20.721 5.491-20.472 9.863-1.923 40.343 6.522 22.731 18.483-8.74 4.288-18.91 3.999-28.222 1.989M620.271 515.705c-27.164-20.692-83.033-6.736-77.739 33.592 2.157 25.612 19.855 27.979 17.225 57.124-1.926 3.489-1.277 5.679.77 7.077 1.277.87 3.093 1.431 5.173 1.783 4.281.749 9.663.66 13.582.781 1.574.055 2.917.143 3.852.33 2.157.517 3.94.616 5.426.363 9.631-1.651 6.78-17.808 10.082-26.185 1.64-9.554 8.035-16.466 16.201-21.188.121-.077.242-.165.363-.253 18.229-10.752 22.851-40.272 5.065-53.424m-17.126 53.128c-11.645 9.565-12.713 25.788-15.387 39.59-1.552-.242-3.159-.33-4.777-.363-1.431-.022-2.873 0-4.315.022-1.552.022-3.093.044-4.612-.011-1.673-.044-3.324-.176-4.931-.473-1.981-.352-3.885-.979-5.668-2.014 9.73-28.298-10.709-35.727-11.777-60.954-.935-31.181 46.349-37.235 65.885-20.637 14.287 17.632 2.51 35.044-14.418 44.84" style="fill:#f7941d"/><path d="M569.057 609.733c.787-24.372 1.737-49.087 5.816-73.176 1.311-7.838 11.099-12.71 11.789-1.709 16.956-15.003 6.779 19.153 4.849 25.983-3.646 15.108-6.426 30.443-7.462 45.961-13.307 16.995 1.104-38.783 1.997-42.654q-.024.102-.046.201c1.326-5.948 2.979-11.814 4.395-17.741l-.014.062.086-.365-.037.152c.62-3.169 1.764-6.386 1.378-9.644-3.477 2.716-3.534 7.925-6.655 10.706-3.443 1.828-4.597-2.497-4.156-5.136-1.079 22.592-3.421 45.165-7.234 67.438-.811 2.165-4.144 2.432-4.706-.078M496.855 600.356c-10.126 3.28-20.538 5.085-31.115 5.966-.881 1.244-2.818 1.618-3.83.308-3.984-7.297 10.467-6.725 14.529-8.893 5.316-.264 22.123-9.785 23.422-2.08.186 1.991-1.069 4.093-3.006 4.699M498.066 533.117c-.275 1.706-1.816 3.588-3.698 3.522-9.928-.759-19.867-2.146-29.707-3.698 0 0 0-.011.011-.011-7.638-7.628 19.591-3.841 23.114-4.612 3.588.363 10.984-.748 10.28 4.799M532.164 481.133c-4.546-6.571-7.474-14.562-13.846-19.691-2.554-10.17 17.886 12.426 18.964 14.782 2.531 3.071-2.256 8.299-5.118 4.909M636.385 449.567v.011c-.594 6.978-4.436 13.307-5.129 20.318-.55 5.052-8.299 4.81-7.352-.65 1.563-7.044 6.527-12.833 8.497-19.713.462-2.157 3.797-2.388 3.973.033zM699.914 519.359c-2.267 2.069-5.745 1.189-8.563 1.574-6.846.143-13.56 1.893-20.417 1.948-1.343-.165-2.763-.066-4.05-.484-1.299-.693-.275-2.488 1.057-2.278 10.038-2.179 19.581-6.813 29.883-7.705 3.587-.099 4.423 4.832 2.09 6.945M689.326 591.419c-.815 1.827-2.972 3.379-5.008 2.741-9.378-5.019-19.416-9.025-29.057-13.164-3.577-9.994 13.637-1.761 18.073-1.431 5.062 2.344 18.512 4.204 15.992 11.854M639.202 634.531c-5.778-4.986-10.511-10.841-14.76-17.148-1.475-.892-1.53-3.5.583-3.72 4.821 2.521 8.057 7.892 13.274 10.203 11.833 4.832 6.847 14.055.903 10.665M1651.042 453.705c-7.605-35.386-73.711-35.958-77.53 2.08-2.994 22.982 16.631 31.171 18.7 46.26-1.035 8.937-2.521 18.172-1.222 27.12l.066.451c.66 1.189 2.069.792 2.708-.165h.011c.187-.308.308-.66.407-1.013.903.187 1.772.341 2.608.495 3.83.682 6.923 1.024 9.433 1.024 4.072 0 6.604-.837 8.244-2.41 4.634-4.425 2.168-14.639 6.901-27.846 9.84-18.711 34.979-8.816 29.674-45.996m-8.398 18.821c-18.744 20.791-25.425 7.363-31.567 44.433l.011-.011c-.407 1.706-.837 3.412-1.233 5.118-1.662-.022-3.291-.275-4.909-.605-1.167-.242-2.323-.517-3.478-.781-1.871-.429-3.753-.803-5.657-.914.925-8.673 5.965-17.39 3.203-26.107-9.708-17.148-31.115-40.317-4.491-54.416 21.87-10.93 59.006 5.382 48.121 33.283" style="fill:#f7941d"/><path d="M1603.421 524.799c-4.821-.213.587-25.999.183-30.908l-.005.043.047-.456-.003.03.168-1.629-.006.055.047-.464-.002.022c.642-6.927 1.682-13.904.608-20.84-.387-4.516-2.257-9.399-.026-13.694 1.965-5.208 9.196-6.556 10.929-.445 16.071-8.647 1.067 30.178-.039 36.057q.044-.178.082-.357c-1.938 3.733-3.525 34.026-10.11 27.023-.14.782-.27 1.566-.375 2.355 1.07 1.125.132 3.219-1.404 3.209l.05.003c-.073-.004-.15 0-.224.004zm4.997-24.738c-.705 4.276-1.314 8.57-2.012 12.849 2.741-17.439 10.087-34.304 11.514-51.766-3.194 4.612-6.905 3.498-7.869-1.801-.493.942-.192 2.02-.076 3.017l-.077-.477c1.173 7.004 2.036 14.142.989 21.218q.026-.245.047-.49c-.598 5.85-1.557 11.65-2.516 17.45M1500.605 511.269c.022 0 .044 0 .066-.011-.022.011-.055.011-.077.022-.055.011-.121.022-.176.044h-.022c-2.939.198-8.971 3.28-10.016-.781.275-5.14 8.266-2.663 11.623-5.228 4.931-1.926 9.796-4.006 14.738-5.922h.011c2.08-1.2 4.964-.958 5.558 1.739.308 8.145-15.916 7.584-21.705 10.137M1521.946 450.392c-7.859-2.102-15.662-4.513-23.774-5.459-.649.649-1.838.231-1.926-.682-.352-5.272 24.115-2.432 28.044-1.332 4.392 1.343 1.894 8.585-2.344 7.473M1558.224 392.971c-6.406-6.362-11.788-13.758-18.491-19.856-.936 8.079-7.903-5.921-1.882-5.492 9.763 3.863 17.908 11.854 25.557 18.931 3.324 3.192-1.387 9.631-5.184 6.417M1666.165 352.786c-.946 5.074-3.984 9.532-4.975 14.628-.649 2.642-.583 7.187-4.348 6.967-6.78-3.401 3.412-13.483 4.931-18.216 1.156-1.519.649-4.392 2.708-5.008.946-.154 1.772.683 1.684 1.629M1723.321 419.805c-5.855-.859-32.293 11.601-31.71 4.513-.176-4.766 6.043-4.711 9.301-6.208 7.594-2.146 14.716-6.076 22.519-7.352 5.361-.033 4.667 8.508-.11 9.047M1726.029 491.909c-1.023 2.322-3.698 3.83-6.087 2.818-9.697-4.777-22.189-4.909-30.796-11.139-1.068-6.263 5.206-3.687 8.574-2.499 6.956 3.566 31.622-1.354 28.309 10.82M1687.495 534.757c-2.003-3.797-19.702-15.442-12.768-18.348 5.096 4.028 11.524 8.024 17.159 12.129 3.743 2.642-.704 9.356-4.391 6.219" style="fill:#f7941d"/><path d="M1614.478 525.721c-3.632-4.711-7.297.011-8.255 4.237a9 9 0 0 0-.242 1.948c.033-.11.055-.22.088-.33-.044.187-.099.363-.132.561-.011.011-.011.033-.022.044v.011c-1.981 5.591-2.19 15.409-9.025 16.939-3.984-2.509-.341-14.55-.099-20.197.022-.33.022-.627.011-.903 1.86-1.321.561-5.085-1.728-4.832-1.354.826-2.795 3.038-4.083 5.966-4.028 9.124-6.582 25.205-.396 27.924 15.773 7.154 23.51-16.961 23.873-29.541a21 21 0 0 0 .01-1.827m-17.5 23.466c-.011 0-.011-.011-.022-.011h.088c.088.011.165.011.242.011zM588.561 616.755c-.528 3.984-2.289 8.585-2.3 11.491.033-.165.077-.319.11-.484-1.376 9.642-7.958 19.47-18.909 16.653-10.918-.583-11.381-12.789-9.202-21.022.958-3.126 1.057-6.813 2.267-9.895.374-.98.87-1.882 1.519-2.708 2.961-1.871 3.236 2.477 3.588 4.403a.1.1 0 0 0 .011.055c.022.011.033.022.055.033 1.233.87.473 3.159-1.024 3.258 0 .561.011 1.101.022 1.662.011.264.011.517.022.771v.022c-.209 8.442-.462 18.183 10.886 13.56 3.555-4.193 2.608-12.492 3.676-18.491.616-3.511 1.915-6.23 5.206-6.89 3.985.759 4.558 3.906 4.073 7.582M1193.061 457.37v-.143c-1.155-34.88-19.922-73.733-53.458-87.48-25.964-8.805-56.254 1.122-70.651 24.786-3.357-29.211-22.541-58.258-53.492-62.132-42.32-6.296-99.73 15.684-105.167 63.078-22.641-26.669-67.921 4.249-75.384 31.49.099-.242.187-.484.275-.727-12.151 34.362 9.356 71.972 40.108 88.14.837.473 1.684.936 2.532 1.409l.429.231c44.807 24.412 98.288 25.007 148.147 27.131 60.635 1.433 168.708-3.333 166.661-85.783m-133.872 75.12c-66.204-.451-208.573 3.412-217.72-84.541.011.242.011.484.022.727-1.001-19.955 9.048-41.407 28.353-49.012 21.243-9.014 29.553-6.461 42.056 12.713.572 1.849.803 4.348 2.52 5.492 1.365.495 1.904-1.629 1.354-2.532-.022-.396-.033-.803-.044-1.2 0-.572 0-1.145.011-1.717 3.962-1.97 3.467-6.868.738-9.686 5.437-46.546 61.801-68.119 103.153-59.061 30.103 6.703 38.38 38.215 43.222 64.597 2.036 6.769 8.761 2.884 9.906-2.267 10.104-22.53 36.784-33.273 60.239-27.648 32.865 10.709 49.551 49.529 50.322 81.954 1.441 60.404-77.674 71.168-124.132 72.181M794.218 424.538c-2.652 6.119-3.522 13.219-2.774 19.834.649 3.599-5.272 5.448-5.668 1.266.451-6.538 1.739-21.958 8.222-24.677 1.827.231 1.695 2.949.22 3.577M770.048 455.829c-5.547-5.624-5.734-16.114-4.303-23.653 1.222-2.917 1.343-13.857 5.701-12.415.374 5.25-2.774 11.359-2.069 17.137-1.619 5.591 10.169 18.524.671 18.931M1220.39 490.742c-1.475 4.502-10.148 21.826-15.816 16.862-3.423-5.911 10.225-10.952 11.81-17.445 1.981-3.104 2.003-7.198 3.929-10.181 3.335-.804.396 8.86.077 10.764M1234.379 515.276c-6.56-5.845 11.392-17.445 12.019-25.656-.044.099-.077.198-.11.297.814-2.223 1.156-4.579 1.706-6.857.583-.429 1.057-.627 1.431-.627 5.36-.001-8.222 39.689-15.046 32.843M449.483 731.641c-7.507 5.173-13.208 12.68-17.368 20.714-.286 1.332-1.739 2.312-3.027 1.772-4.238-6.186 11.37-25.821 17.214-29.564 4.755-2.794 7.396 4.778 3.181 7.078M440.953 709.276c-8.772 2.652-17.247 7.738-21.925 15.849-.143 3.159-5.008 3.456-4.678-.044 3.72-10.951 14.21-19.25 24.93-22.982 4.942-2.002 6.153 5.944 1.673 7.177M1538.863 609.579c-.474 1.431-2.697 1.981-3.357.418-2.95 1.618-5.371 3.995-7.616 6.461l-.022.022c-4.447 3.082-5.669 13.131-11.326 12.591-12.162-4.655 25.183-34.505 22.321-19.492M1516.179 595.337c-5.294 2.377-8.97 7.661-12.294 12.25.066-.099.143-.209.22-.319-2.873 2.818-3.291 10.038-8.156 9.609-8.618-3.61 15.618-26.812 21.044-26.328 3.247.187 2.092 5.206-.814 4.788M1895.672 1284.587a63 63 0 0 1-6.769 1.53c-14.551 2.488-30.499.694-45.248 2.058-95.724 1.486-191.381 4.821-286.973 9.818-88.052 3.676-176.291 6.505-264.024 15.09-135.567 15.63-272.312 13.692-408.397 20.318-.077.011-.154.011-.231.011-2.95.308-5.9.583-8.86.836-44.18 3.842-88.69 2.664-132.739 7.98-61.713 8.299-124.076 7.815-186.109 11.788.209-.022.418-.033.627-.055-7.638.55-15.266 1.09-22.905 1.618.099 0 .198-.011.297-.011-16.466 1.31-32.909 2.84-49.353 4.425-15.453 1.486-30.895 3.005-46.349 4.436-14.418 1.332-28.848 2.576-43.278 3.621l-4.116.297c-7.76.55-15.53 1.035-23.301 1.442-53.646-1.332-106.961 5.151-160.563 5.8-1.794.022-3.599.033-5.393.044-.055 0-.11.011-.165.011-5.437.451-10.874.957-16.301 1.508-27.098 2.708-54.108 6.406-81.085 9.862-1.332.176-2.664.352-3.995.517-.496.066-.991.132-1.486.187-.705.099-1.409.187-2.113.275-2.19-.969.121-2.234 4.667-3.577.66-.198 1.376-.396 2.124-.594 12.712-3.379 37.037-7.088 39.238-7.87 39.503-7.562 79.423-9.631 119.509-10.654 40.119-4.546 80.326-4.832 120.62-5.613 2.014-.209 4.017-.418 6.031-.617a1128 1128 0 0 1 8.343-.859c27.604-2.828 55.231-5.492 82.879-7.925 65.092-5.745 130.284-10.236 195.63-12.47 28.793-1.794 57.432-5.261 86.082-8.53 38.919-2.191 77.86-3.753 116.768-6.285a1765 1765 0 0 0 30.565-2.213c61.13-1.706 122.282-2.817 183.39-5.404a3156 3156 0 0 0 51.07-2.543c67.206-1.101 133.817-10.027 200.671-16.003 13.967-.825 27.923-1.64 41.891-2.411a12344 12344 0 0 1 112.244-5.778c65.566-3.104 131.143-5.723 196.73-7.936 62.385-2.135 124.792-3.896 187.188-5.382 2.399.187 4.997-.374 7.484-.561 2.278-.176 4.458-.044 6.351 1.255 2.381 2.323 1.754 6.461-.646 8.564" style="fill:#231f20"/><path d="M1261.598 1580.375c-.671.451-1.486.727-2.454.737-63.408-3.588-124.803-22.387-185.47-39.965-75.087-26.603-152.209-51.268-232.579-52.666-43.036-1.904-86.258-2.663-129.128 2.278.198-.022.385-.044.583-.055-37.411 4.039-74.877 8.948-111.375 18.315-.121.033-.253.055-.374.088-106.576 23.895-212.778 71.168-323.933 54.922-64.553-6.307-134.786-33.305-165.175-94.48-7.451-18.953-10.082-39.525-11.083-59.919v-.011c-.275-5.393-.429-10.786-.528-16.124.176-1.354.077-3.841.363-5.965.044-.308.088-.616.154-.914.187-.902.462-1.673.913-2.201.484-.572 1.167-.837 2.124-.594.088.011.187.033.286.066.055.297.121.594.165.903.143.737.253 1.475.352 2.223a85 85 0 0 1 .539 5.074c.462 5.283.682 10.709 1.86 15.86l-.066-.473c1.42 8.431 2.752 16.884 4.094 25.337 2.477 14.595 6.175 29.475 14.265 42.045a.3.3 0 0 0 .055.077c35.209 54.031 100.016 76.088 161.73 80.953 102.625 13.164 200.561-30.675 298.904-52.886 95.614-25.568 195.652-30.048 293.962-21.815 84.211 6.417 161.741 42.287 242.462 63.706 27.836 6.846 55.253 15.497 83.65 19.779 17.621 3.467 35.43 6.01 53.382 6.769 2.421-.209 3.852 1.277 4.303 3.148.507 2.057-.165 4.578-1.981 5.788" style="fill:#231f20"/><path d="M1871.92 1373.299c-28.584 25.194-66.457 34.429-102.79 42.496-26.085 5.756-52.435 10.005-79.06 12.36-40.24 5.58-81.811 7.903-120.048 22.574-38.765 14.661-71.553 40.669-105.662 63.552-31.171 21.21-63.882 40.273-99.081 54.031-19.977 7.903-41.274 11.931-62.539 14.429-4.788.495-9.598.55-14.397.209-2.399-.275-16.312-.958-26.746-2.576-9.223-1.431-15.717-3.599-9.091-6.868a199 199 0 0 0 11.072 1.079c48.132 3.467 96.043-9.345 137.813-33.482 61.009-29.938 110.12-81.283 175.245-103.175 37.543-12.151 77.475-14.584 116.405-19.768 31.115-2.785 61.768-8.717 92.135-15.905 29.167-7.275 58.896-16.234 81.591-36.883 19.779-20.186 34.77-48.957 27.109-77.662-1.574-.418-3.39-.892-4.975-1.596-2.829-1.266-4.942-3.28-3.72-7.077.793-2.685 2.609-3.929 4.788-4.27 1.016-.164 2.113-.115 3.226.063.164.025.326.061.489.094 2.771.545 5.585 1.909 7.468 3.31 15.708 32.658-5.568 71.643-29.232 95.065M481.908 1357.438c-2.994 2.476-11.073 2.367-14.44 3.082a1021 1021 0 0 1-28.826 3.907c-43.487 5.294-87.161 8.057-130.922 10.643.044-.011.099-.011.154-.022a9 9 0 0 1-.54.055h.066c-14.936 1.64-29.871 3.302-44.807 4.887-.055.011-.11.011-.165.011h.088l-1.024.099c-.396.033-.781.077-1.177.121-45.666 6.031-91.651 7.451-137.659 9.576-5.812.913-12.041.594-17.676 2.289-.694.198-1.376.429-2.047.704 1.959 7.055 1.002 14.396 1.992 21.562 5.9-.297-2.091 7.715-3.511.176-.066-1.398-.374-3.071-.803-4.898v-.011c-1.794-7.572-5.635-17.687-2.41-21.319.253-.198.495-.396.759-.583a21 21 0 0 1 1.64-1.101 27 27 0 0 1 3.489-1.827c10.951-4.81 25.612-3.72 37.026-5.723 14.826-.308 29.63-.98 44.411-1.915 7.297-.462 14.573-.979 21.859-1.563 19.624-1.552 39.216-3.478 58.797-5.547 1.871-.198 3.731-.396 5.602-.583.572-.055 1.145-.121 1.717-.176 8.255-.848 16.521-1.607 24.787-2.41 30.202-2.84 60.58-3.302 90.87-5.085 2.609-.154 5.228-.319 7.837-.495-.165.022-.319.044-.473.055l1.001-.099c7.154-.716 14.286-1.783 21.463-2.498-.066 0-.132.011-.198.011 10.071-.99 19.988-3.082 30.07-3.995 10.467-.275 21.232-3.577 31.523-3.159l1.222.066c2.011 2.772 1.747 4.566.305 5.765M631.059 855.45c-5.255 1.347-21.187-11.269-16.248-15.921 1.041-.688 2.409-.361 2.95.779 2.95 4.043 6.087 9.716 11.662 9.972-2.221-11.592-4.916-23.338-4.804-35.197q-.002.172-.004.344c.443-2.837-.857-10.817 3.808-9.587.961.54.977 1.904.453 2.775-.137 3.232.095 6.471.349 9.688-.729 6.219 10.767 38.486 1.834 37.147M604.226 883.557c-3.379-.496-6.476-19.708-1.636-16.846l.003-.004c4.561 11.391 3.31 16.972 13.759 4.617.692-.807 1.969-.984 2.725-.158 2.065 3.986-10.432 15.824-14.851 12.391M581.455 817.905c-8.535 1.684-21.348-24.406-13.74-21.316l-.009-.018c6.067 13.507 21.789 21.951 32.07 7.359.829-1.142 2.411-1.757 3.633-.785 4.427 7.18-15.643 17.18-21.954 14.76" style="fill:#231f20"/><path d="M565.258 820.929c-.689-3.941 5.6-5.245 6.732-8.976.735-.985.306-2.433 1.375-3.199.889-.785 2.408-.19 2.522 1.003l-.011-.041q.018.095.029.191l-.003-.035q.009.076.015.153v-.003c.176 3.721-6.82 14.414-10.659 10.907M571.907 824.736c-1.692-3.424 3.558-4.564 4.867-7.088 1.221-1.391 1.594-3.236 2.519-4.774 1.463-1.692 3.696.417 2.6 2.138-1.238 3.7-5.328 12.37-9.986 9.724M580.021 829.094c-3.413-4.068 3.71-7.612 4.744-11.432 1.221-1.887-.01-4.823 2.25-5.98l-.146.084c8.331-2.509-2.017 21.224-6.848 17.328M622.521 792.22c-8.165-19.589-34.123-20.378-52.208-17.233-.325.615-1.21.336-1.702.078-1.303-2.968 6.534-3.908 8.452-5.323 10.224-3.126 21.054-1.932 31.013 1.6 11.4.773 25.428 25.131 14.445 20.878" style="fill:#231f20"/><path d="M655.503 863.466c-2.366 10.478-5.756 20.725-9.598 30.752.077-.165.143-.319.209-.484-5.481 17.566-21.771 21.044-37.444 18.172-6.274-1.145-12.459-3.302-17.809-5.988-.11 8.277.099 16.543.396 24.809 0 .242.011.484.022.715a942 942 0 0 0 .209 5.569c.011.132.022.264.022.396.033 4.072-6.208 5.998-7.077 1.244-.804-12.03-.594-24.126-.143-36.178.396-8.629 8.816-3.709 13.56-1.519 8.167 3.335 16.983 6.032 25.887 4.964 16.642-.506 21.881-26.515 25.348-48.418.749-4.788 1.42-9.378 2.114-13.461.693-4.127 1.398-7.749 2.234-10.522a8.3 8.3 0 0 1-1.904.396c1.97 9.939-6.582 9.289-2.84-.11-2.025-.352-3.863-1.376-5.481-2.619.176 2.113 2.003 9.873-2.223 7.308-.693-2.741 1.233-5.69.792-8.585-2.883-2.994-5.085-6.648-6.021-10.721-1.145-.319-2.267-6.494-.594-6.483 5.36 4.458 10.28 18.172 19.581 13.516 1.596-9.224 3.423-18.436 4.26-27.78-4.194-.693-8.552-1.629-12.79-.936-1.981.209-5.14 2.488-6.186-.242-4.391-1.057 4.436-5.525 6.01-5.899 4.348-1.75 9.157-2.388 13.736-1.178 4.259-22.607 1.068-47.757-17.137-60.492-4.128-2.884-9.036-5.14-14.804-6.571-.033 0-.044-.011-.077-.022v.011a11 11 0 0 0-.837-.198c-1.53.98-3.324-.396-3.192-2.091-39.514-11.964-80.238 18.733-91.706 56.067.462.297.914.594 1.365.903 39.172 26.636 17.831 91.035-24.787 89.692-5.481-.165-11.315-1.431-17.423-3.996-43.3-19.922-26.042-94.843 23.048-90.793 3.258-24.842 18.425-47.515 38.952-61.647 11.271-7.352 25.876-12.217 40.141-12.734 17.281-.627 34.032 5.129 43.685 20.582.242.385.484.782.716 1.178a65 65 0 0 1 5.415 2.179c32.811 15.101 30.191 51.587 24.6 83.22 22.056 12.328 10.455 53.867-12.229 57.994" style="fill:#231f20"/><path d="M687.532 993.233c.341 74.162-11.117 147.531-24.06 220.361l-.363 2.003c.022-.187.055-.363.077-.55-1.915 5.349.198 18.161-6.042 19.845-2.939-.077-3.082-4.204-2.443-9.058.749-5.591 2.542-12.151 2.311-14.584 3.687-22.497 6.516-45.116 10.533-67.558 6.131-56.078 13.78-112.894 8.684-169.313 2.146-45.149-43.619-28.364-74.756-34.032-2.267-.418-4.447-.947-6.527-1.629a33 33 0 0 1-3.434-1.31 29.6 29.6 0 0 1-5.206-2.895 5.2 5.2 0 0 1-.121-1.101c0-2.102 1.629-2.741 3.819-2.741.407 0 .826.022 1.255.055 3.06.264 6.703 1.31 8.53 1.255q1.651.066 3.302.066c6.912.044 13.824-.649 20.747-.815 55.175-4.544 61.581 10.381 63.694 62.001" style="fill:#231f20"/><path d="M970.509 1089.1c.418-3.412 1.222-8.937-3.401-9.598-9.378-1.244-18.931-.308-28.375-1.023-54.614-5.393-113.158-.639-168.906 1.915l-3.115.231s0-.011.011-.011l-.363.033c-9.939.418-19.724 2.212-29.585 3.214-1.244-5.811-6.703 3.027-7.308 5.063-10.137 23.378-18.491 48.12-25.976 73.072a1360 1360 0 0 0-5.591 19.184c-3.643 12.8-7.121 25.579-10.555 38.182-7.22 24.908-14.936 49.782-21.76 74.811a873 873 0 0 0-3.137 11.799 762 762 0 0 0-3.456 13.758c-16.939.704-33.856 1.816-50.762 3.258-2.355.209-4.722.418-7.088.638-25.876 2.356-51.698 5.492-77.409 9.125-13.56 2.212-27.714 2.256-41.087 4.26-1.849 1.277-2.785 7.661-2.389 13.274.033.451.066.891.121 1.321.253 2.333.748 4.425 1.53 5.833.66 1.2 1.508 1.904 2.587 1.849.132.253.308.495.495.705.55.594 1.31.99 2.201.99 77.585-4.425 155.137-10.764 232.799-14.331h.231c5.151-.121 10.302-.22 15.453-.385 1.497-.044 3.005-.088 4.502-.143 42.65-2.917 85.807-2.697 128.083-9.179 1.508 1.838 4.414 1.112 5.503-.87.605.682 1.673.033 2.432-.066 1.431-.605.275-2.08-.903-1.266 0-.165-.055-.33-.121-.495a1.7 1.7 0 0 0-.418-.561 282 282 0 0 1 3.984-10.687c1.673-4.282 3.445-8.53 5.239-12.768 22.453-54.339 46.425-108.062 67.096-163.128 4.59-13.791 10.632-26.999 15.915-40.504.981-5.514 6.451-12.173 3.523-17.5" style="fill:#231f20"/><path d="M608.369 1237.341c-.274-20.632 4.339-42.519 7.376-63.305.352-6.654 5.025-10.823 9.794-14.804 24.28-22.1 21.566-48.779 12.942-77.539-2.789-4.146-5.289-46.672 4.091-37.28l-.027-.056c.787 54.007 35.737 81.323-17.861 127.478-2.963 16.383-4.889 32.934-7.75 49.336-1.443 4.698-.376 21.413-8.565 16.17" style="fill:#231f20"/><path d="M620.337 1266.965c4.403 6.516 3.291 21.914-7.539 15.982 1.31 8.233-.991 13.153-5.327 12.9-2.091-.121-4.645-1.442-7.507-4.172-.385-.352-.77-.737-1.167-1.156.616 4.524 1.486 15.706-5.679 14.209-5.591-1.992-8.321-8.112-14.077-10.093-14.672-5.922-31.446-1.805-46.271 1.761l.495-.132c-15.982 4.017-32.04 7.704-47.977 11.92.022-.011.055-.022.088-.033-29.442 8.53-58.599 18.007-87.799 27.318-2.509.803-5.03 1.607-7.55 2.41-.209.066-.429.121-.639.187-23.422 6.945-47.042 21.055-72.093 16.499-47.933-14.11-27.56-83.374-24.567-120.037l.66-5.646c3.841-32.59 7.66-65.214 14.837-97.275.297-1.376.583-2.774.881-4.161.022-.099.044-.209.066-.319.044-.187.077-.385.121-.572 7.099-34.703 15.387-69.143 24.28-103.428 8.277-26.955 13.626-58.94 38.501-75.956 2.168-2.983 26.537-8.585 18.227-1.684-17.544 1.915-28.044 18.711-34.208 33.669-2.862 7.925-5.415 15.937-7.77 24.016-8.288 28.518-14.033 57.817-21.441 86.544-3.709 15.937-7.276 31.919-10.522 47.944v.011c-4.744 23.422-8.794 46.965-11.59 70.706a661 661 0 0 0-1.42 13.274c-2.51 33.592-25.777 105.74 11.16 124.814.099.033.198.077.308.099l-.132-.033c.242.077.484.154.726.242l-.066-.033c9.003 2.917 18.59 1.849 27.516-.804.055-.011.099-.033.154-.044 51.467-16.202 102.03-35.683 154.289-49.32a297 297 0 0 1 8.695-2.289c2.73-.672 5.459-1.321 8.2-1.97 5.096-1.2 10.192-2.367 15.266-3.654 21.298-5.844 49.915-11.073 64.41 9.961.275-1.926-.121-3.841-.451-5.734.418-5.316-8.849-14.044-.781-16.587 6.141 1.959 8.596 9.983 14.616 12.724.771-7.187-4.634-12.547-5.547-19.074 4.436-10.456 10.533 5.327 15.343 7.584.033-.308 0-.605-.055-.903-1.464-5.767-5.096-10.544-8.266-15.464-2.796-5.911 3.918-8.64 7.848-4.226-16.609-31.115-60.085-25.7-92.499-21.419-2.741.363-5.393.715-7.947 1.035-1.409.176-2.796.352-4.138.506-37.048 6.241-73.986 13.296-110.593 21.826-5.481 1.508-10.831 3.434-16.268 5.096-1.354.429-2.465.231-3.313-.33-2.664-1.783-2.675-7.231.99-8.684.462-.165.936-.33 1.398-.484 1.816-.616 3.654-1.145 5.481-1.717a72 72 0 0 0 3.489-1.167q2.262-.627 4.524-1.222c35.276-9.443 71.399-15.783 107.368-21.991 31.93-4.656 67.129-11.656 97.727 1.893 1.574.242 3.511 1.288 5.58 2.895 1.53 1.178 3.137 2.664 4.733 4.359 9.434 10.035 18.24 27.129 7.222 29.429" style="fill:#231f20"/><path d="M379.065 1263.53c-9.644.708-6.891-9.288-6.079-15.461 1.704-21.244 6.899-41.997 10.975-62.87 5.848-28.448 12.554-56.755 21.807-84.299 1.066-3.018 7.486-24.67 10.666-20.275l.001-.001c-9.674 58.001-29.691 114.733-35.756 173.552 9.522-1.232 6.679 11.35-1.614 9.354M360.635 1263.077c-3.807-1.038-14.851 2.094-12.344-4.798 3.298-4.164 9.126.846 13.526.072 3.065.509 1.669 5.359-1.182 4.726M349.764 1283.927c-3.218-3.52 8.289-10.693 10.343-13.995 6.316-.986-3.832 7.163-4.701 8.869-1.872 1.461-2.729 6.242-5.642 5.126M648.95 1049.991c-3.071-2.699 1.58-5.984 3.074-8.259 1.98-1.73 2.759-5.042 5.09-6.063 5.267-.599-5.656 17.407-8.164 14.322M654.833 1056.848c-2.275-2.196-.119-5.119 1.814-6.658a10 10 0 0 1-.21.196q.143-.136.288-.271l-.016.016c2.036-1.734 3.951-3.798 6.362-4.99 3.145-.949 3.866 3.932 1.214 4.95-3.309 1.746-4.989 9.472-9.452 6.757M715.863 1153.268c-1.563 2.576-3.236 5.063-4.876 7.606-4.095 6.945-8.508 13.681-13.087 20.307-12.79 18.546-26.856 36.233-38.963 55.219.066-.121.121-.242.176-.352-2.961 4.479-6.428 15.299-13.197 12.801-4.226-2.014 1.387-12.162 8.783-23.015 2.807-4.116 5.878-8.332 8.772-12.239 5.415-7.341 10.203-13.604 11.469-16.125 9.201-12.008 18.546-24.06 28.551-35.474a342 342 0 0 1 9.102-9.994c1.399-2.014 4.855-1.629 3.27 1.266" style="fill:#231f20"/><path d="M389.506 1252.171c-1.622-27.794 2.806-55.516 2.477-83.31-.127-2.361 2.873-4.599 4.854-2.82 2.297 4.178.084 9.84.198 14.486 2.642 23.311 1.295 46.88.658 70.268h-.004c-.281 4.382-6.964 6.248-8.183 1.376M397.521 1361.247c.044.858.11 1.706.187 2.564.077 1.805-.969 3.368-2.345 4.238-1.288.803-2.862 1.023-4.116.297-.639-.374-1.2-.99-1.596-1.904a47 47 0 0 1-.495-4.656 45 45 0 0 1-.121-2.719c-.121-4.534.154-9.113.275-13.593.385-2.344-.066-4.964.077-7.407.099-1.618.473-3.17 1.541-4.502 2.531-2.785 5.954-1.024 6.648 1.904a4.65 4.65 0 0 1 0 2.301c0-.099 0-.187-.011-.275-.099 6.901-.429 13.813-.187 20.714.033 1.013.077 2.025.143 3.038M601.687 1325.528c-2.176-6.151-.716-13.408-1.932-19.915.22-5.032-3.426-18.412 5.672-15.655 3.777 4.634 1.015 12.27 2.659 17.976-.105 5.005 3.446 23.394-6.399 17.594M532.976 1036.834c-7.64-1.972-10.609-11.162-15.418-16.708l.378.546c-10.013-16.538-24.082-30.012-34.365-46.335q.192.279.383.55c-6.984-8.821-12.571-18.399-15.588-29.3-.888-4.304 4.138-5.157 5.876-1.449 17.582 27.833 41.236 51.388 58.021 79.891l-.361-.529c.803 1.137 1.616 2.279 2.534 3.332 18.328-20.436 36.11-42.062 48.793-66.568 3.302-5.741 6.494-11.545 9.894-17.224 1.115-3.314 3.69-10.08 7.966-6.161 2.844 6.299-8.08 17.803-10.425 24.369-12.184 24.301-28.847 45.572-45.769 66.671l.004-.005c-3.229 3.576-6.592 8.89-11.923 8.92M469.16 1241.915c-.068-1.357 2.044-1.709 2.038-.189.067 1.357-2.044 1.71-2.038.189M508.899 1300.367c-9.825-2.074 8.002-58.267 7.784-69.074.488-1.901 2.324-3.552 4.353-3.358 7.494 2.735-.63 16.979.036 23.092-1.621 11.456-3.638 22.843-5.823 34.202-1.775 4.763.411 14.501-6.35 15.138" style="fill:#231f20"/><path d="M627.27 1318.428c-8.812-.51-15.975-6.216-21.555-12.626.06.245.131.495.256.719l-.035-.07c1.571 1.067.386 4.01-1.333 2.593-2.82-2.988-2.618-10.361 3.002-7.636 25.645 19.181 54.119-1.631 72.901-20.476 4.966-7.733 12.108-.897 5.374 4.732-16.474 14.925-34.53 34.003-58.61 32.764M1552.364 788.924c-4.297.995-12.2-11.778-5.915-11.621 1.951 2.844 2.749 8.001 7.451 7.751 4.171.093 7.949-2.581 9.694-6.277 8.753-3.773-2.168 11.955-11.23 10.147M1551.563 757.702c-14.47.807-18.596-10.862-7.248-19.533 2.879-2.567 8.172-2.652 9.739-6.387 1.648-2.793-.648-12.07 3.438-11.825.638.368.696 1.198.498 1.832l.002-.017c-.471 4.913.974 10.581-2.042 14.876-10.037 6.437-23.408 15.436-1.793 16.29h-.279c1.965.255 5.185-1.414 5.636 1.518.183 4.108-5.239 3.073-7.951 3.246M1600.939 728.613c-5.996-.502-13.764-1.379-16.428-7.666-.903-3.045-2.656-7.66.533-9.897 11.997-8.105 28.662-8.506 42.229-4.399 5.064 1.6 1.898 7.762-.593 10.388-6.006 7.64-16.078 12.02-25.741 11.574m3.341-4.784c8.424-.547 17.35-4.694 21.343-12.449-1.045-.248-2.127-.318-3.186-.502l.028.004-.298-.048.08.013c-2.605-.408-5.241-.451-7.872-.477q.072.003.143.003c-4.014-.022-8.052.049-12.039.539l.361-.052c-.636.086-1.268.176-1.905.262l.357-.052c-.705.099-1.413.19-2.118.284l.063-.009-.348.047.023-.003-.317.044.023-.003-.348.047.101-.015a50 50 0 0 0-5.157 1.034l.029-.008a63 63 0 0 0-4.226 1.343 2.5 2.5 0 0 1-.47.717c-.091 8.04 9.683 8.644 15.733 9.281" style="fill:#231f20"/><path d="M1602.928 725.427c-6.744.829-10.615-8.115-4.103-11.409 4.636-2.656 13.176-.028 12.238 6.234.937 1.469-.536 3.831-2.287 3.199-1.695 1.312-3.644 2.142-5.848 1.976M1587.131 695.169c-6.381-1.604-3.039-9.607 2.193-10.254 9.056-1.556 37.757-10.269 41.903.354-1.693 10.21-35.528 11.947-44.096 9.9" style="fill:#231f20"/><path d="M1696.961 649.588c.341-1.112.65-2.223.892-3.379.011-.044.011-.077.022-.11l.033-.165c.044-.209.077-.396.121-.605.452-2.432.463-4.931.308-7.374.011.088.011.187.022.275-.165-20.263-19.14-16.829-31.578-8.937 5.041-30.07-36.498-22.211-50.036-8.321 3.115-25.029-41.516-4.249-48.759 5.899.407-22.497-22.079-8.486-28.771 2.388-10.786 12.977-16.73 30.565-15.783 47.416-3.577 7.198-4.909 15.332-7.286 22.993-3.005 1.211-5.184 5.822-1.904 7.925-5.778 24.434-4.061 50.069-1.618 74.844 1.123 28.353 3.566 30.763 32.502 32.051-.462 5.371-1.409 10.83-2.3 16.312-1.156 7.165-2.223 14.341-2.014 21.375.055 1.717.176 3.445.407 5.14a.1.1 0 0 0 .044.022c4.127 2.752 5.151-1.508 5.58-5.437.165-1.563.242-3.082.385-4.073.99-8.42 2.245-16.807 3.412-25.194.033-4.37 3.907-15.618-3.489-14.925-8.596.847-20.065.661-26.581-5.459-2.157-14.771-3.632-29.729-3.929-44.698-.011-.297-.022-.605-.011-.903a216 216 0 0 1-.044-7.066c.011-1.486.033-2.983.077-4.469.11-4.601.352-9.201.726-13.791 25.469 16.51 53.822-29.355 4.711-12.327-1.288.781-2.543 1.651-3.698 2.63.308-4.909 2.51-9.389 3.412-14.187 3.665-.737 7.374-1.398 10.984-2.366 4.964-1.222 17.258-5.14 11.282-11.7-6.153-1.926-13.109.385-19.206 1.827 1.706-6.813 3.335-13.923 2.983-20.968 31.655-5.448 64.003-4.832 95.867-8.486-.11.022-.231.033-.341.055 8.299-1.233 16.697-1.178 25.073-1.288 6.219.154 12.625.826 18.436 3.137 1.728 9.587-3.83 19.217-4.722 28.815-.044.253-.099.517-.143.771 0-.033.011-.066.011-.099l-.099.528c-11.105 57.619-6.956 22.883 20.021 42.584 6.34 8.882-6.373 13.505-13.032 15.53-4.755 6.351-2.961 16.003-5.173 23.532-3.071 18.953-5.283 38.05-8.42 56.992-.231.925-.066 1.673.308 2.212 1.134 1.629 4.237 1.431 4.799-1.222 1.618-7.914 2.421-15.982 4.216-23.862.253-1.266.495-2.52.737-3.786 2.994-15.971 4.975-32.106 7.352-48.164a37 37 0 0 0 2.487-1.002c1.717-.705 3.423-1.464 5.019-2.41.044-.022.088-.055.132-.077.022-.011.055-.033.077-.044 9.873-4.788 11.711-18.843 2.234-25.04 4.59-9.433 8.222-19.35 12.404-28.98 0-.011.011-.033.022-.044 0 .011-.011.022-.011.033 7.045-11.436 30.247-57.608 1.85-54.328m-176.247 73.898c3.082-1.508 6.45-2.069 9.818-2.487 4.711-.561 9.488-.165 14.187.242-.726 2.62-3.379 4.216-5.745 5.239-.87-4.138-7.441-4.711-10.269-2.311-2.036.055-3.742 1.882-3.742 3.907-1.86-.88-4.304-1.706-5.426-3.489.615-.001 1.155-.463 1.177-1.101m1.342-4.48c.011 0 .033-.011.044-.011.055-.033.099-.066.154-.099-.065.033-.131.077-.198.11" style="fill:#231f20"/><path d="M1516.304 756.703c-3.037-.68-1.012-4.306-.168-6.071q-.063.13-.125.254c.854-2.106 4.535-9.942 5.908-4.205-2.128 2.502-2.504 9.798-5.615 10.022M1523.26 755.569c-4.652.024 2.291-14.532 4.574-10.861.83 1.775-.874 3.626-1.254 5.354-.832 1.896-.513 5.506-3.32 5.507M1531.522 752.669c-3.206-1.169.627-5.091.791-7.27l-.026.146c-.15-1.253 1.768-1.87 1.836-.383-.633 2.275.381 6.998-2.601 7.507M1591.506 748.885c-4.611-.775 3.461-12.31 4.794-7.262-.551 1.762-2.318 3-2.614 5.022l.09-.275c-.277 1.151-.831 2.629-2.27 2.515M1597.499 747.634c.414-3.289 3.138-6.027 5.486-8.173 3.483-1.266 2.93 2.836.87 4.227-1.631 1.839-1.567 5.581-4.279 6.114-1.189.081-2.116-1.004-2.077-2.168M1606.284 748.272c.661-3.194 2.545-7.564 4.956-9.554 4.618.763-.57 7.061-.811 9.782-.454 2.446-4.227 2.486-4.145-.228M1537.03 1019.838c-7.692-23.284 5.614-47.845 14.552-69.202 3.943-10.096 1.526-21.812 6.178-31.521 3.339-5.667 10.629-2.851 12.128 2.741-1.869-10.924 8.319-18.996 12.343-5.469 3.503-15.659 11.814-14.417 12.397 1.335 8.448-14.939 18.522-7.126 14.381 7.448-5.771 15.959-12.201 31.854-12.686 49.112q.019-.27.033-.537c-1.852 6.41 3.964 17.328-4.148 20.272-9.124.716-4.437-17.667-4.984-23.458l-.052.74c1.092-10.885 3.318-21.99 7.876-31.979 2.98-7.854 10.373-15.741 8.778-24.487-8.36 4.12-7.208 17.517-14.736 22.144-9.605.168 4.074-18.196-.477-26.294-3.56 4.775-3.331 26.14-10.753 24.472-1.282-.801-1.312-2.31-1.157-3.634.388-5.24 3.485-13.41-1.195-17.185l.1-.013a2.4 2.4 0 0 0-.511.109v.001l.132-.036-.138.05c-1.759 5.647 1.114 23.628-7.334 23.722-3.905-3.653.262-11.112-3.608-15.453q.108.148.215.301a4.6 4.6 0 0 0-.916-.844l.052.028c-.066-.033-.123-.08-.185-.12l.097.072a4 4 0 0 0-.187-.095c.141.063.271.152.391.247-.24-.147-.474-.308-.743-.397-2.752 9.279-.102 19.909-3.451 29.367-4.159 12.124-10.86 23.29-14.991 35.434l.013-.037c-3.412 8.808-3.229 18.261-3.856 27.534q.018-.206.03-.413c.141 2.491.364 7.552-3.588 6.045M1062.986 1210.788a22 22 0 0 1-1.409-.308c-.011 0-.033-.011-.044-.011a3 3 0 0 1-.176-.066c-.451-4.799 6.637-11.469.539-14.716-2.63-.693-6.197-.792-7.694-3.412.264-4.513 5.481-7.198 5.217-11.788-.87-5.756-8.541-4.149-11.898-7.33-.286-3.324 1.772-6.593 3.555-9.301.947.363 1.992.044 2.939-.297 7.551-2.179 19.57-.352 21.099 8.827 0 .055 0 .121-.011.176-2.928 3.071-7.474 3.269-10.742 5.624-5.162 8.706 13.307 4.601 13.99 12.911-3.071 3.819-12.481 2.113-11.645 8.53 2.102 3.995 8.684 3.137 11.832 6.329-.903 3.973-11.777 4.138-15.552 4.832m14.892-12.559-.099-.033c.418-.242.826-.506 1.233-.781-.397.286-.782.55-1.134.814m420.69 90.419c.363-6.571 1.915-14.342-3.434-18.161-10.203-1.772-20.78-1.013-31.104-1.144-25.964.319-51.918 1.464-77.838 3.126-23.345 1.475-46.657 3.39-69.946 5.481-6.637-24.522-13.857-48.88-20.835-73.292-3.742-13.054-7.407-26.118-10.886-39.238-3.907-15.552-9.587-30.576-13.835-46.04a37 37 0 0 1-.793-1.904v-.011c-2.487-6.56-4.601-16.906-9.422-20.296-1.64-3.137-5.844-1.409-8.64-1.123-9.202.198-18.425-.275-27.626.451-27.505-.594-54.967 2.036-82.417 2.906-33.207-.231-66.545 2.135-99.235 7.98-11.711-2.576-3.324 14.066-1.761 19.339 3.082 9.829 4.964 20.351 9.631 29.541-1.233.87-1.915 2.466-1.882 3.984-8.002 7.947-10.831 20.043 3.269 22.541-6.307 7.341-4.788 17.841 5.9 19.107-4.59 8.618-2.069 18.062 9.278 14.936 3.236 21.98 11.282 43.872 17.038 65.544 3.808 10.346 3.94 23.015 8.662 33.009.958 2.047 2.114 3.984 3.533 5.767 3.06 1.211 6.109-1.805 6.076-4.799 22.519 1.948 44.984-2.025 67.525-1.464-.066-.011-.132-.011-.187-.011 37.961.726 75.857-1.695 113.774-3.016 11.447-.165 22.761-1.959 34.175-2.587 5.173-.187 13.901.066 12.801-7.429 27.241-1.001 54.416-3.203 81.668-4.237 8.475-1.277 37.697.22 47.955-3.489 1.552-.55 2.664-1.233 3.214-2.047 8.497-.771 17.082-1.222 25.612-.925-.088 1.178.033 2.223.319 3.126 1.453 4.854 7.264 5.536 9.114 0 .143-.396.253-.814.341-1.266-.154-1.343-.132-2.818-.044-4.359M1526.394 863.667c-3.625-2.846-.16-7.887 3.775-7.898 3.247-2.576 13.643-4.776 17.696-3.682 3.559 1.849 2.329 7.208-1.045 8.549-6.186 2.377-13.926 4.955-20.426 3.031M1385.73 895.418c-5.118 4.579-9.499 10.093-12.459 16.301-.694 2.113-2.323 4.48-4.832 3.995-9.465-3.082 12.933-26.68 18.293-25.997-.066-.011-.143-.022-.198-.033 4.039 0 2.828 6.373-.804 5.734M1366.776 892.171c-2.917 3.28-5.294 7.033-7.275 10.94-2.179 3.28-1.585 10.633-6.747 10.445-7.55-3.676 8.354-25.458 13.681-27.747 4.876-.902 3.897 5.13.341 6.362M1818.88 876.19c-.528-4.777-4.116-9.895-3.005-14.506 4.645-4.458 6.747 9.234 8.431 12.03 1.211 3.268-4.127 6.317-5.426 2.476M1823.745 904.3c-1.145 4.05.055 11.777-5.69 12.184-5.767-1.013-1.827-8.167-1.189-11.777.781-2.719 1.64-7 5.206-7 3.665.342 2.586 4.304 1.673 6.593M1814.642 940.523c-.286 4.887-7.969 5.382-7.385-.044.286-4.887 7.958-5.393 7.385.044M1862.785 845.515c-.308 5.228-8.519 5.767-7.903-.044.297-5.217 8.519-5.768 7.903.044M1291.283 598.958c.143-5.107 2.575-12.36-1.816-16.18-7.165-2.531-5.712 9.289-13.494 11.524-8.904 6.087-20.846 4.876-29.354 11.623-14.991 11.117-15.519 33.218-21.903 48.352-.815 1.387-.738 3.39.594 4.424 2.41 1.827 4.468-1.057 6.483-2.124 3.599-1.948 7.638-2.895 11.524-4.105 31.346-4.271 54.658-17.996 47.966-53.514m-7.397-.352c-.847 25.425-34.274 16.246-50.167 39.381 10.94-37.422 25.953-22.431 50.167-39.381m-49.826 49.683c3.522-6.13 8.816-11.227 14.716-15.068l-.396.231c11.37-7.958 27.89-6.703 36.938-18.006-2.29 26.669-32.074 25.579-51.258 32.843M1370.287 286.032c.033.176.077.352.11.528-2.322-4.205 1.541-11.546-3.357-13.725-5.514-6.252-20.714 7.462-23.664 12.955-4.898 10.258-6.329 22.31-18.546 26.658-14.98 6.747-19.306 22.431-20.054 37.598-1.133 3.489-3.841 7.793-2.267 11.392 4.832 4.028 9.598-5.074 14.749-5.47 24.644-5.602 51.599-4.986 57.234-35.771a7 7 0 0 1-.088.517c.055-.297.11-.616.165-.925 2.19-11.458-1.618-22.74-4.282-33.757m-23.994 11.04v-.011c.033-.11.066-.22.11-.33a52 52 0 0 1 1.695-4.678c.55-1.189 1.123-2.344 1.794-3.467.011-.022.033-.044.044-.066 2.322-3.346 5.668-5.911 9.113-8.013-1.475 54.813-13.978 35.529-48.814 61.725 2.026-25.503 32.118-21.144 36.058-45.16m5.196 44.466c-13.109 4.557-28.067 3.764-40.592 10.148 21.056-25.601 52.644-11.161 53.426-57.883 6.262 16.432 6.009 40.074-12.834 47.735" style="fill:#231f20"/><path d="M1606.033 1258.578c-42.208-1.102-53.698-42.713-58.621-77.515-7.37-38.009-11.375-76.622-12.581-115.314l.013.486c-.006-.323-.014-.64-.026-.963l.013.482-.185-6.784.013.456c.758-4.074-3.36-41.633 4.36-35.376l-.018-.015c.916.819.805 2.336-.113 3.139 2.149 44.69 5.538 89.504 12.922 133.653l-.09-.572c.196 1.214.386 2.424.58 3.637l-.02-.125c.607 3.735 1.218 7.47 1.808 11.208l-.013-.088.133.844-.02-.135c3.079 20.721 6.107 43.121 18.517 60.564 18.343 20.557 48.678 20.344 67.168.107q-.167.143-.327.292c6.841-6.22 12.266-13.76 17.368-21.423l-.032.046c1.063-1.568 2.138-3.129 3.207-4.689l-.141.209c1.734-2.544 3.444-5.108 5.181-7.649l-.297.438c19.112-28.445 38.011-58.061 50.682-89.969q-.097.257-.193.507l.361-.959-.046.126c6.195-15.034 13.457-29.627 19.715-44.655 2.438-3.46 4.151-14.379 8.607-14.258 4.472 3.076-2.703 10.722-3.527 14.821-3.718 8.594-7.156 17.277-10.506 26.024l.04-.103c-11.041 30.922-26.157 58.621-42.557 86.972-19.879 28.897-41.873 74.92-81.375 76.581" style="fill:#fff"/><path d="M1622.358 1121.724c-6.483-4.812-9.216-22.491-11.782-30.611-6.059-27.015-8.246-54.727-14.754-81.655l.103.335-.58-1.917.013.042c-.773-2.62-3.059-8.475 1.11-9.092q-.07-.004-.141-.004c2.278.184 1.88 5.298 3.516 7.188 5.215 15.406 9.837 31.23 12.512 47.296l-.002-.011c3.111 18.641 5.17 37.615 10.776 55.715 11.67-40.416 25.732-79.938 38.472-119.973 2.983-17.752 11.358-33.998 15.71-51.444 3.426-6.022 4.273-24.844 12.399-24.602 2.091.968 1.909 3.631.808 5.28-6.303 15.194-9.215 31.719-15.194 47.11-5.052 11.368-6.254 23.742-10.27 35.428-5.434 18.097-13.654 35.107-19.09 53.184q.08-.212.159-.43l-.361.965.004-.01c-5.984 16.456-11.029 33.235-15.839 50.063-2.506 4.808-1.278 16.186-7.569 17.143M1611.598 903.416c-2.734-5.943 25.234-17.518 30.241-21.864 19.162-10.175 35.904-24.913 54.259-35.874 1.168.341.922 2.139-.127 2.493-13.724 12.54-27.882 24.619-43.508 34.758-9.131 5.762-18.596 10.964-27.791 16.609-3.74 1.561-9.771 9.116-13.074 3.878M1526.831 943.245c-12.406-19.474-21.437-40.559-27.313-62.871-.346-4.438-6.02-14.678-1.327-17.283 3.254-.167 2.413 8.911 4.159 11.53l-.043-.137q.044.141.086.284l-.019-.066c4.649 13.529 9.753 27.097 16.558 39.698 4.47 8.231 9.48 16.149 14.082 24.296 2.242 3.746-3.51 8.801-6.183 4.549M1515.664 860.553c-.192-4.857-2.42-15.397 1.972-18.32 1.984-.408 2.91 2.118 1.624 3.419-1.259 4.732 3.778 14.062-.288 16.553-1.332.626-3.022-.109-3.308-1.652M1527.484 847.198c-3.501-3.457 3.668-7.968 5.683-10.693 3.693-1.697 2.99 3.007.703 4.365-2.351 1.685-3.03 6.962-6.386 6.328M1673.891 830.227c-3.077-3.946 5.2-6.589 5.175-10.721l.01.037c-.005-.021-.013-.042-.009-.065l-.002.019-.016-.057c.025.078.004.157-.004.24a1.1 1.1 0 0 0-.026-.322l.014.044c-1.107-1.628 1.712-3.604 2.31-1.414l-.003-.044v.009a1.6 1.6 0 0 0-.125-.327c1.964 2.554-4.191 14.287-7.324 12.601" style="fill:#fff"/><path d="M1662.817 934.615c-1.263-2.602-3.382-9.177.799-9.885 2.662.881.641 5.05 2.826 6.832 1.793 2.255-1.892 5.806-3.625 3.053M1649.124 951.129c-.787-2.676 2.756-5.721 3.449-1.948.507 2.522-2.636 5.694-3.449 1.948M1546.527 1015.681c3.902-5.24 12.542-7.021 18.233-10.453 1.176-.589 2.641.145 2.877 1.437-.165 5.34-10.667 5.321-14.557 7.857-2.082.14-5.85 4.861-6.553 1.159M1676.052 1095.126c-3.851-2.405 5.591-12.208 7.898-8.277 1.346 2.53-1.543 3.813-2.931 5.367-1.286 1.409-2.681 4.3-4.967 2.91M1409.598 1124.115c-3.138-4.483-.576-11.249-.766-16.48 1.656-17.964 6.74-35.4 9.714-53.146-1.248-29.672 1.575-59.416 4.527-88.958q-.03.285-.06.576c.61-5.929 1.058-11.871 1.672-17.795-.017.185-.039.37-.056.555.473-3.143.002-8.235 4.252-8.595 1.93-.056 3.22 1.694 3.147 3.517-.909 13.081-2.078 26.143-2.657 39.249-1.096 16.667-2.243 33.342-3.138 50.024-.654 12.75.439 25.427-3.712 37.776l.023-.092c-3.766 16.481-8.879 32.707-10.993 49.523 3.528-.174.279 5.213-1.953 3.846M1441.026 956.474c.933-4.211-1.087-12.91 3.666-14.614 1.433-.042 2.431 1.432 2.125 2.778-1.917 3.789-.071 12.105-3.67 13.888-1.204.225-2.161-.854-2.121-2.052M1407.565 981.088c-.843-1.587-1.44-3.281-1.922-5.009-.682-2.49 3.292-3.896 3.653-.981.311 2.09 2.853 4.57.806 6.386-.781.63-2.029.571-2.537-.396M1567.542 651.701c-4.031-2.69 2.591-12.619 5.761-14.437 2.156-.344 2.825 2.564 1.433 3.84-2.168 2.396-4.671 4.895-5.508 8.101.51 1.09-.41 2.667-1.686 2.496M1582.857 644.266c-3.13-1.287.89-4.896 1.746-6.677l-.146.211c1.121-1.364 2.505-4.748 4.669-3.143.88.842.643 2.282-.166 3.087l.011-.013-.172.202.122-.145c-2.22 1.827-3.346 5.63-6.064 6.478M1600.958 643.027c-3.041-2.334 2.511-6.303 4.088-8.225 1.929-1.904 3.968 1.367 2.017 2.791-2.474 1.214-3.507 5.09-6.105 5.434M398.418 876.462c-.235-4.621 5.615-4.531 8.788-5.757 11.947-3.699 26.715-.327 33.665-13.483q-.08.115-.159.237.453-.662.905-1.328l-.003.004c5.478-3.914 6.632-36.943 8.843-30.604-.386 22.193-6.19 50.846-33.875 50.229-4.586-.017-16.602 6.94-18.164.702M396.893 906.284c-.127-11.5 40.202-9.124 49.714-18.526l-.215.155q.395-.28.788-.56l-.031.023.211-.151-.072.051.045-.033-.072.051c1.418-1.099 2.704-2.338 3.908-3.667l-.151.176c2.625-3.235 5.854-6.951 5.786-11.336-.515-2.046 2.276-2.016 1.914.123-2.182 22.663-28.293 27.976-46.826 30.92-4.237.003-12.427 6.981-14.999 2.774M370.302 916.498c1.179-6.783 3.736-13.405 8.487-18.499l-.013.016.591-.68-.015.018.107-.125-.012.014c3.975-4.763 4.456-.185.833 2.484.039-.039.073-.082.112-.125-.985 1.152-1.913 2.359-2.657 3.68l.008-.016c-2.22 4.205-3.15 8.919-4.187 13.52-.262 2.238-3.672 2.127-3.254-.287M523.427 845.055c-1.884-3.318 8.256-9.123 9.287-15.955-.047.125-.09.249-.138.378 3.594-9.732 6.316-21.789.107-30.883 1.31-4.727 5.659 3.932 5.714 5.911 3.766 13.09.524 29.171-9.066 39.048-1.471 1.481-4.221 4.125-5.904 1.501M291.527 1033.125c-10.331-29.199 7.86-58.164 34.156-71.591l-.04.032q.054-.043.112-.082l-.042.028c2.019-1.402 3.55-3.327 5.003-5.282 4.243-1.528-1.401 4.995-2.507 5.786-8.774 6.881-18.143 13.227-24.2 22.863-18.001 20.894.037 52.305-12.482 48.246M283.24 1091.752c-9.658-10.577 32.356-17.995 28.367-66.143v.013c-.317-1.86-.714-13.181 2.516-7.92-.124 9.12 1.392 18.248.742 27.414-1.187 15.94-10.243 29.952-22.735 39.537.116-.103.232-.211.348-.314-3.306 1.967-4.833 8.484-9.238 7.413M258.659 1093.957c-1.172-2.903 14.834-28.582 14.185-20.908l.012-.009q-.028.021-.058.041.019-.012.036-.025c-1.515 1.162-2.767 2.641-3.835 4.214a2 2 0 0 0 .077-.107c-1.381 2.193-2.416 4.572-3.334 6.988l.02-.049c-2.539 3.739.069 11.379-4.81 12.852-1.536.05-2.618-1.538-2.293-2.997M273.063 1180.314c-4.065-2.524.709-6.969 1.41-10.167 3.663-9.687.67-20.104 1.312-30.139-.683-20.543 14.641-26.247 9.327-17.799-11.394 13.842 1.514 34.167-5.313 49.919-1.331 2.977-2.279 9.443-6.736 8.186M244.243 1189.327c-2.174-7.511 4.775-20.013 9.255-26.175 2.115-1.639 3.872 1.752 1.941 3.118-.908.768-1.349 1.941-1.951 2.944-2.478 4.89-4.515 10.074-5.174 15.549.323 2.413-1.018 6.675-4.071 4.564M469.03 774.112c-6.004-4.352 12.276-17.54 16.289-19.619 2.908 1.408-2.275 3.165-3.13 4.446-5.115 2.969-10.406 16.089-13.159 15.173" style="fill:#fff"/></svg>