<svg width="925" height="925" viewBox="0 0 925 925" fill="none" xmlns="http://www.w3.org/2000/svg">
<path d="M519.876 663.138H342.855V840.159H519.876V663.138Z" fill="#303030" stroke="#303030" stroke-width="1.5" stroke-miterlimit="10" stroke-linecap="round" stroke-linejoin="round"/>
<path d="M571.942 663.138H394.921V840.159H571.942V663.138Z" fill="#00826F" stroke="#303030" stroke-width="1.5" stroke-miterlimit="10" stroke-linecap="round" stroke-linejoin="round"/>
<path d="M512.648 791.202H407.181V828.411H512.648V791.202Z" fill="white" stroke="#303030" stroke-width="1.5" stroke-miterlimit="10" stroke-linecap="round" stroke-linejoin="round"/>
<path d="M422.094 796.654H414.681V804.067H422.094V796.654Z" fill="white" stroke="#303030" stroke-width="1.5" stroke-miterlimit="10" stroke-linecap="round" stroke-linejoin="round"/>
<path d="M419.639 799.109H417.138V801.612H419.639V799.109Z" fill="#303030"/>
<path d="M422.094 815.186H414.681V822.599H422.094V815.186Z" fill="white" stroke="#303030" stroke-width="1.5" stroke-miterlimit="10" stroke-linecap="round" stroke-linejoin="round"/>
<path d="M419.639 817.641H417.138V820.144H419.639V817.641Z" fill="#303030"/>
<path d="M440.626 796.654H433.213V804.067H440.626V796.654Z" fill="white" stroke="#303030" stroke-width="1.5" stroke-miterlimit="10" stroke-linecap="round" stroke-linejoin="round"/>
<path d="M438.171 799.109H435.668V801.612H438.171V799.109Z" fill="#303030"/>
<path d="M429.507 818.892H425.802V822.597H429.507V818.892Z" fill="#303030"/>
<path d="M436.918 818.892H433.213V822.597H436.918V818.892Z" fill="#303030"/>
<path d="M440.626 818.892H436.92V822.597H440.626V818.892Z" fill="#303030"/>
<path d="M429.507 818.892H425.802V822.597H429.507V818.892Z" fill="#303030"/>
<path d="M436.918 818.892H433.213V822.597H436.918V818.892Z" fill="#303030"/>
<path d="M440.626 818.892H436.92V822.597H440.626V818.892Z" fill="#303030"/>
<path d="M433.213 815.186H429.507V818.891H433.213V815.186Z" fill="#303030"/>
<path d="M440.626 815.186H436.92V818.891H440.626V815.186Z" fill="#303030"/>
<path d="M433.213 815.186H429.507V818.891H433.213V815.186Z" fill="#303030"/>
<path d="M440.626 815.186H436.92V818.891H440.626V815.186Z" fill="#303030"/>
<path d="M429.507 811.48H425.802V815.186H429.507V811.48Z" fill="#303030"/>
<path d="M436.918 811.48H433.213V815.186H436.918V811.48Z" fill="#303030"/>
<path d="M429.507 811.48H425.802V815.186H429.507V811.48Z" fill="#303030"/>
<path d="M436.918 811.48H433.213V815.186H436.918V811.48Z" fill="#303030"/>
<path d="M429.507 807.772H425.802V811.478H429.507V807.772Z" fill="#303030"/>
<path d="M425.8 807.772H422.094V811.478H425.8V807.772Z" fill="#303030"/>
<path d="M436.918 807.772H433.213V811.478H436.918V807.772Z" fill="#303030"/>
<path d="M440.626 807.772H436.92V811.478H440.626V807.772Z" fill="#303030"/>
<path d="M429.507 807.772H425.802V811.478H429.507V807.772Z" fill="#303030"/>
<path d="M425.8 807.772H422.094V811.478H425.8V807.772Z" fill="#303030"/>
<path d="M436.918 807.772H433.213V811.478H436.918V807.772Z" fill="#303030"/>
<path d="M440.626 807.772H436.92V811.478H440.626V807.772Z" fill="#303030"/>
<path d="M418.387 807.772H414.681V811.478H418.387V807.772Z" fill="#303030"/>
<path d="M418.387 807.772H414.681V811.478H418.387V807.772Z" fill="#303030"/>
<path d="M429.507 800.361H425.802V804.067H429.507V800.361Z" fill="#303030"/>
<path d="M429.507 800.361H425.802V804.067H429.507V800.361Z" fill="#303030"/>
<path d="M429.507 796.654H425.802V800.36H429.507V796.654Z" fill="#303030"/>
<path d="M429.507 796.654H425.802V800.36H429.507V796.654Z" fill="#303030"/>
<path d="M450.915 799.614H487.703" stroke="#303030" stroke-width="1.5" stroke-miterlimit="10" stroke-linecap="round" stroke-linejoin="round"/>
<path d="M450.915 808.881H504.782" stroke="#303030" stroke-width="1.5" stroke-miterlimit="10" stroke-linecap="round" stroke-linejoin="round"/>
<path d="M450.915 814.438H504.782" stroke="#303030" stroke-width="1.5" stroke-miterlimit="10" stroke-linecap="round" stroke-linejoin="round"/>
<path d="M450.915 819.998H504.782" stroke="#303030" stroke-width="1.5" stroke-miterlimit="10" stroke-linecap="round" stroke-linejoin="round"/>
<path d="M553.052 663.138H535.183V722.534H553.052V663.138Z" fill="#F55571" stroke="#303030" stroke-width="1.5" stroke-miterlimit="10" stroke-linecap="round" stroke-linejoin="round"/>
<path d="M495.691 486.117H318.67V663.138H495.691V486.117Z" fill="#303030" stroke="#303030" stroke-width="1.5" stroke-miterlimit="10" stroke-linecap="round" stroke-linejoin="round"/>
<path d="M547.755 486.117H370.734V663.138H547.755V486.117Z" fill="#00826F" stroke="#303030" stroke-width="1.5" stroke-miterlimit="10" stroke-linecap="round" stroke-linejoin="round"/>
<path d="M490.217 612.217H384.75V649.426H490.217V612.217Z" fill="white" stroke="#303030" stroke-width="1.5" stroke-miterlimit="10" stroke-linecap="round" stroke-linejoin="round"/>
<path d="M399.663 617.671H392.25V625.084H399.663V617.671Z" fill="white" stroke="#303030" stroke-width="1.5" stroke-miterlimit="10" stroke-linecap="round" stroke-linejoin="round"/>
<path d="M397.208 620.126H394.705V622.629H397.208V620.126Z" fill="#303030"/>
<path d="M399.663 636.2H392.25V643.613H399.663V636.2Z" fill="white" stroke="#303030" stroke-width="1.5" stroke-miterlimit="10" stroke-linecap="round" stroke-linejoin="round"/>
<path d="M397.208 638.655H394.705V641.158H397.208V638.655Z" fill="#303030"/>
<path d="M418.194 617.671H410.781V625.084H418.194V617.671Z" fill="white" stroke="#303030" stroke-width="1.5" stroke-miterlimit="10" stroke-linecap="round" stroke-linejoin="round"/>
<path d="M415.739 620.126H413.236V622.629H415.739V620.126Z" fill="#303030"/>
<path d="M407.074 639.908H403.369V643.614H407.074V639.908Z" fill="#303030"/>
<path d="M414.487 639.908H410.781V643.614H414.487V639.908Z" fill="#303030"/>
<path d="M418.193 639.908H414.487V643.614H418.193V639.908Z" fill="#303030"/>
<path d="M407.074 639.908H403.369V643.614H407.074V639.908Z" fill="#303030"/>
<path d="M414.487 639.908H410.781V643.614H414.487V639.908Z" fill="#303030"/>
<path d="M418.193 639.908H414.487V643.614H418.193V639.908Z" fill="#303030"/>
<path d="M410.781 636.2H407.076V639.906H410.781V636.2Z" fill="#303030"/>
<path d="M418.193 636.2H414.487V639.906H418.193V636.2Z" fill="#303030"/>
<path d="M410.781 636.2H407.076V639.906H410.781V636.2Z" fill="#303030"/>
<path d="M418.193 636.2H414.487V639.906H418.193V636.2Z" fill="#303030"/>
<path d="M407.074 632.495H403.369V636.201H407.074V632.495Z" fill="#303030"/>
<path d="M414.487 632.495H410.781V636.201H414.487V632.495Z" fill="#303030"/>
<path d="M407.074 632.495H403.369V636.201H407.074V632.495Z" fill="#303030"/>
<path d="M414.487 632.495H410.781V636.201H414.487V632.495Z" fill="#303030"/>
<path d="M407.074 628.789H403.369V632.495H407.074V628.789Z" fill="#303030"/>
<path d="M403.369 628.789H399.663V632.495H403.369V628.789Z" fill="#303030"/>
<path d="M414.487 628.789H410.781V632.495H414.487V628.789Z" fill="#303030"/>
<path d="M418.193 628.789H414.487V632.495H418.193V628.789Z" fill="#303030"/>
<path d="M407.074 628.789H403.369V632.495H407.074V628.789Z" fill="#303030"/>
<path d="M403.369 628.789H399.663V632.495H403.369V628.789Z" fill="#303030"/>
<path d="M414.487 628.789H410.781V632.495H414.487V628.789Z" fill="#303030"/>
<path d="M418.193 628.789H414.487V632.495H418.193V628.789Z" fill="#303030"/>
<path d="M395.956 628.789H392.25V632.495H395.956V628.789Z" fill="#303030"/>
<path d="M395.956 628.789H392.25V632.495H395.956V628.789Z" fill="#303030"/>
<path d="M407.074 621.376H403.369V625.082H407.074V621.376Z" fill="#303030"/>
<path d="M407.074 621.376H403.369V625.082H407.074V621.376Z" fill="#303030"/>
<path d="M407.074 617.671H403.369V621.376H407.074V617.671Z" fill="#303030"/>
<path d="M407.074 617.671H403.369V621.376H407.074V617.671Z" fill="#303030"/>
<path d="M428.484 620.629H465.27" stroke="#303030" stroke-width="1.5" stroke-miterlimit="10" stroke-linecap="round" stroke-linejoin="round"/>
<path d="M428.484 629.896H482.349" stroke="#303030" stroke-width="1.5" stroke-miterlimit="10" stroke-linecap="round" stroke-linejoin="round"/>
<path d="M428.484 635.455H482.349" stroke="#303030" stroke-width="1.5" stroke-miterlimit="10" stroke-linecap="round" stroke-linejoin="round"/>
<path d="M428.484 641.014H482.349" stroke="#303030" stroke-width="1.5" stroke-miterlimit="10" stroke-linecap="round" stroke-linejoin="round"/>
<path d="M528.865 486.117H510.996V563.882H528.865V486.117Z" fill="#F55571" stroke="#303030" stroke-width="1.5" stroke-miterlimit="10" stroke-linecap="round" stroke-linejoin="round"/>
<path d="M224.368 268.509C224.805 269.541 243.808 315.494 251.724 327.598C259.64 339.703 264.796 344.381 275.937 344.389C288.976 344.396 333.709 344.389 333.709 344.389L347.587 309.847L292.435 300.318C292.435 300.318 273.369 261.844 266.626 247.989C259.882 234.134 261.492 224.701 227.511 211.964L224.368 268.509Z" fill="#AD6163"/>
<path d="M236.38 211.966C253.235 217.497 257.986 221.952 265.88 237.742C276.549 259.085 287.692 284.116 287.692 284.116C287.692 284.116 278.334 305.306 236.38 309.836V211.966Z" fill="white" stroke="#303030" stroke-width="1.5" stroke-miterlimit="10" stroke-linecap="round" stroke-linejoin="round"/>
<path d="M379.62 328.044C371.284 336.809 357.139 340.885 343.545 344.672L338.717 315.144L372.886 308.29L379.62 328.044Z" fill="#AD6163"/>
<path d="M263.146 355.15L267.214 359.013L344.973 354.243L394.857 254.158L391.778 250.234L309.847 254.795L263.146 355.15Z" fill="#303030"/>
<path d="M267.214 359.013L344.973 354.243L394.857 254.158L313.425 259.107L267.214 359.013Z" fill="#F55571"/>
<path d="M330.454 258.073L326.788 265.43L373.077 262.617L376.743 255.259L368.141 255.801C368.141 255.801 368.45 254.588 368.831 253.091C369.212 251.594 367.525 249.384 364.913 248.903C362.644 248.484 359.475 248.216 355.272 248.521C350.601 248.86 347.101 249.622 344.685 250.346C342.289 251.062 339.96 253.241 339.268 254.797L338.015 257.612L330.454 258.073Z" fill="white" stroke="#303030" stroke-width="1.5" stroke-miterlimit="10" stroke-linecap="round" stroke-linejoin="round"/>
<path d="M359.934 324.089C359.934 324.089 370.252 326.275 379.62 328.044C388.927 316.128 389.131 309.827 389.595 302.279C390.058 294.731 390.363 291.101 385.884 284.123C381.405 277.147 375.596 270.725 372.153 267.643C368.755 264.6 365.643 271.549 369.438 277.289C372.966 282.628 376.734 288.976 376.66 292.755C376.66 292.755 362.052 291.871 356.926 291.912C350.107 291.965 349.702 291.791 348.122 292.418C345.538 293.443 346.47 297.528 352.849 298.39C366.498 300.237 368.601 300.101 372.128 303.108C372.128 303.108 368.707 302.806 358.772 303.091C345.852 303.459 341.601 303.75 339.919 305.707C339.022 306.752 339.682 313.521 346.479 314.963C344.629 319.811 347.992 323.275 359.934 324.089Z" fill="#AD6163"/>
<path d="M372.227 292.013C375.883 292.629 379.885 293.375 382.996 295.511C383.116 295.595 383.235 295.68 383.353 295.767C383.115 295.589 383.42 295.82 383.446 295.841C383.642 296.005 383.834 296.172 384.019 296.349C384.476 296.79 384.889 297.276 385.251 297.796C386.565 299.685 387.285 301.851 387.825 304.069C388.247 305.805 390.923 305.068 390.5 303.331C389.562 299.474 387.919 295.635 384.606 293.258C381.283 290.875 376.913 290 372.967 289.334C372.229 289.21 371.473 289.528 371.26 290.304C371.075 290.971 371.484 291.887 372.227 292.013Z" fill="#303030"/>
<path d="M379.848 306.828C377.572 303.938 374.198 302.44 370.679 301.664C366.207 300.68 361.66 301.537 357.155 301.8C352.706 302.059 348.168 302.079 343.745 302.617C340.589 303.002 337.664 304.512 338.308 308.139C339.005 312.065 342.302 315.292 346.111 316.304C347.839 316.762 348.575 314.087 346.849 313.628C344.141 312.909 341.824 310.757 341.121 308.03C340.809 306.817 340.966 306.219 342.172 305.771C343.414 305.311 344.773 305.294 346.079 305.218C350.003 304.991 353.927 304.763 357.849 304.536C361.527 304.323 365.369 303.52 369.04 304.16C372.449 304.754 375.692 306.008 377.887 308.793C378.991 310.191 380.943 308.215 379.848 306.828Z" fill="#303030"/>
<path d="M375.585 318.703C374.083 314.374 370.263 312.42 365.889 312.122C361.089 311.797 356.199 312.024 351.419 312.544C349.874 312.713 347.987 312.762 346.577 313.499C345.232 314.202 344.601 315.654 344.625 317.129C344.649 318.627 345.245 320.114 346.187 321.269C347.369 322.717 348.984 323.069 350.708 323.557C354.527 324.638 358.449 325.222 362.35 325.934C364.097 326.253 364.846 323.579 363.088 323.259C359.988 322.693 356.83 322.264 353.768 321.515C352.59 321.226 351.426 320.877 350.261 320.545C349.045 320.2 348.242 319.743 347.722 318.529C347.452 317.896 347.104 316.664 347.678 316.089C348.335 315.43 350.212 315.458 351.076 315.358C354.913 314.918 358.787 314.736 362.648 314.788C366.629 314.842 371.371 315.001 372.91 319.439C373.491 321.117 376.172 320.396 375.585 318.703Z" fill="#303030"/>
<path d="M216.531 754.983C218.198 748.617 232.791 654.868 239.418 603.699C254.451 487.619 243.58 380.684 243.58 380.684H136.869C129.047 437.974 103.054 450.582 172.875 470.249C172.875 470.249 175.767 564.912 176.157 586.874C176.547 608.835 167.336 617.733 168.613 674.971C169.073 695.629 169.173 750.837 169.891 753.146C168.983 786.474 209.562 781.599 216.531 754.983Z" fill="#AD6163"/>
<path d="M169.812 749.857C164.626 750.83 164.476 752.868 165.09 763.275C165.705 773.681 163.325 790.86 162.106 797.509C160.887 804.158 160.695 810.538 176.527 814.984C192.361 819.429 201.559 816.168 212.998 817.123C229.352 818.486 251.31 826.154 273.202 827.018C295.097 827.882 303.931 822.082 307.065 818.486C308.747 806.542 306.769 800.117 298.257 795.542C289.745 790.965 270.368 784.157 256.297 777.505C238.955 769.307 229.18 759.704 223.73 752.791C218.28 745.877 205.509 751.651 199.88 760.4C194.25 769.148 190.924 770.961 181.683 768.867C172.444 766.773 170.461 759.658 169.812 749.857Z" fill="#F55571"/>
<path d="M209.555 776.557C215.101 782.914 197.765 778.106 182.863 769.115L182.86 769.113C191.209 770.78 194.5 768.763 199.881 760.401C198.86 764.845 204.009 770.201 209.555 776.557Z" fill="#303030"/>
<path d="M163.647 822.567C167.997 827.874 176.978 829.166 185.921 829.46C194.864 829.754 204.758 827.027 218.992 828.476C231.529 829.752 252.947 833.204 265.288 834.198C279.344 835.33 294.622 833.563 301.448 828.94C307.853 824.602 307.4 818.373 306.832 809.905L306.649 809.863C306.488 810.706 306.205 811.424 305.798 811.951C302.873 815.724 296.814 821.009 274.897 821.468C253 821.927 232.088 816.316 215.975 815.311C199.981 814.314 192.554 817.942 176.383 815.063C162.559 812.601 162.049 807.151 161.956 802.444C161.956 802.444 159.296 817.259 163.647 822.567Z" fill="white" stroke="#303030" stroke-width="1.5" stroke-miterlimit="10" stroke-linecap="round" stroke-linejoin="round"/>
<path d="M219.441 380.684H104.063C96.755 437.144 96.8771 461.431 97.0399 528.941C97.1213 562.635 95.9281 586.968 91.5528 612.209C84.064 655.42 78.9266 665.358 78.6065 707.342C78.5029 720.878 77.2135 779.046 77.5853 790.368C104.405 832.822 121.723 790.792 121.723 790.792C121.723 790.792 128.418 749.731 132.144 729.148C140.513 682.905 143.832 653.725 152.734 626.421C169.891 573.796 184.025 466.747 184.025 466.747C184.025 466.747 223.852 431.607 219.441 380.684Z" fill="#AD6163"/>
<path d="M131.283 818.906C133.071 826.421 136.82 834.805 137.388 842.522C137.956 850.24 137.67 857.508 131.596 862.011C128.375 864.4 124.396 865.41 120.476 865.996C108.952 867.72 96.7495 866.929 85.9991 862.294C82.2399 860.674 78.7601 857.828 76.1904 854.552C71.8892 849.065 72.4571 841.593 72.5774 834.524C72.6865 828.13 73.939 820.083 74.3774 813.704C75.2765 800.597 73.9741 801.794 77.5705 776.06C78.3475 778.867 78.2606 784.585 81.807 786.689C83.7773 787.858 85.0556 780.489 88.9388 776.554C92.2632 773.187 97.9668 770.521 102.612 770.242C110.724 769.754 116.803 770.86 122.209 775.762C127.226 780.315 126.633 786.182 126.938 792.396C127.533 804.523 128.608 807.686 131.283 818.906Z" fill="#F55571"/>
<path d="M81.8089 786.693C82.3121 786.992 82.7709 786.728 83.2389 786.11C81.6868 791.839 80.9986 806.619 79.2947 804.852C76.7047 802.166 77.2061 786.58 77.5724 776.064C78.3494 778.871 78.2624 784.589 81.8089 786.693Z" fill="#303030"/>
<path d="M71.0715 857.704C71.1584 861.598 74.481 872.199 94.8144 876.515C110.969 879.943 124.783 877.375 132.09 871.792C137.128 867.918 138.147 857.747 137.686 846.798L137.566 846.748C137.657 852.848 136.539 858.337 131.596 862.005C128.386 864.394 124.405 865.419 120.47 866.001C108.954 867.727 96.7587 866.934 86.0047 862.301C82.2492 860.675 78.7508 857.839 76.1997 854.557C71.8873 849.065 72.4553 841.591 72.5885 834.533C72.5959 833.75 72.6255 832.947 72.6773 832.126C71.4304 843.639 70.8846 849.29 71.0715 857.704Z" fill="white" stroke="#303030" stroke-width="1.5" stroke-miterlimit="10" stroke-linecap="round" stroke-linejoin="round"/>
<path d="M102.94 365.845C98.3996 390.983 94.4351 426.125 93.4194 437.634C91.5269 459.101 89.9507 548.889 86.4727 578.674C82.9965 608.459 80.2567 613.723 77.5538 649.934C76.3217 666.433 76.2847 728.448 76.2847 728.448C76.2847 728.448 86.8612 739.332 108.576 740.879C130.292 742.425 134.308 735.19 134.308 735.19C134.308 735.19 142.814 682.043 147.721 661.027C152.627 640.013 165.647 595.063 172.875 560.622C173.156 584.9 174.078 591.48 170.083 606.106C166.087 620.73 165.928 639.378 166.435 667.165C166.942 694.952 167.558 710.1 167.558 710.1C167.558 710.1 175.78 718.353 193.183 719.086C210.584 719.816 229.898 714.227 229.898 714.227C229.898 714.227 236.706 647.232 242.237 621.639C244.814 609.715 249.543 576.697 250.571 533.231C252.318 459.482 248.227 405.279 245.636 365.848H102.94V365.845Z" fill="#00826F"/>
<path d="M105.655 369.989L103.624 384.408C103.624 384.408 130.323 407.244 201.234 400.223C235.696 394.551 244.07 385.777 244.07 385.777L243.379 369.989H105.655Z" fill="#303030"/>
<path d="M163.924 379.446L154.369 378.657L152.102 406.1L161.658 406.89L163.924 379.446Z" fill="#00826F"/>
<path d="M223.18 401.396L232.736 400.607L230.47 373.163L220.914 373.952L223.18 401.396Z" fill="#00826F"/>
<path d="M200.897 375.357C201.435 393.145 201.337 410.961 200.601 428.739C200.085 441.201 199.574 448.438 195.88 460.113C193.651 467.154 188.855 474.159 186.408 481.096C183.929 488.117 175.798 542.949 171.576 566.647" stroke="#303030" stroke-width="1.5" stroke-miterlimit="10" stroke-linecap="round" stroke-linejoin="round"/>
<path d="M135.746 721.33L138.067 712.464C140.687 713.088 142.824 716.718 142.141 720.035C141.048 725.35 139.403 727.481 138.225 732.456C137.868 733.96 137.675 738.605 137.314 740.107C136.517 743.413 132.558 745.935 129.926 747.352C121.628 751.82 108.527 751.085 100.403 749.742C87.6179 747.627 79.4797 740.901 76.4291 737.166C75.5096 736.041 74.6901 734.774 74.2479 733.323C73.2582 730.076 74.2128 727.026 74.5495 724.282C75.2025 718.947 73.2008 715.186 72.7143 712.437C72.3443 710.343 72.3646 708.489 73.2378 706.306C74.111 704.125 76.5197 703.716 76.5197 703.716L76.7306 710.981C76.7306 710.981 83.5423 720.022 105.241 723.716C118.524 725.979 135.746 721.33 135.746 721.33Z" fill="#00826F"/>
<path d="M75.5355 711.681C76.3699 712.782 77.4114 713.713 78.4863 714.575C81.45 716.952 84.7837 718.808 88.2691 720.302C94.0355 722.778 100.229 724.459 106.447 725.288C112.626 726.113 118.912 725.679 125.064 724.82C128.771 724.302 132.497 723.64 136.116 722.667C137.838 722.202 137.107 719.525 135.377 719.992C127.064 722.228 118.063 723.416 109.47 722.822C103.334 722.398 97.0973 720.787 91.3641 718.587C87.7326 717.194 84.1991 715.407 81.067 713.086C80.3104 712.525 79.3743 711.742 78.5936 710.964C78.3716 710.742 78.1607 710.512 77.9498 710.279C77.7759 710.087 77.6075 709.848 77.935 710.279C76.8657 708.875 74.4551 710.257 75.5355 711.681Z" fill="#303030"/>
<path d="M230.41 707.001L231.577 698.51C234.197 699.133 237.66 701.122 235.699 708.298C235.377 709.475 233.786 713.574 232.608 718.547C232.251 720.051 231.252 724.993 230.889 726.495C230.092 729.801 225.336 732.026 222.703 733.445C214.406 737.913 195.216 737.178 187.092 735.835C174.305 733.721 168.757 728.792 165.706 725.057C164.787 723.932 163.967 722.665 163.525 721.215C162.535 717.97 163.49 714.917 163.827 712.174C164.48 706.839 162.874 702.054 162.389 699.307C162.019 697.213 162.04 695.357 162.913 693.176C163.786 690.993 166.924 689.593 166.924 689.593L167.142 697.589C167.142 697.589 170.143 706.703 191.932 709.81C215.912 713.232 230.41 707.001 230.41 707.001Z" fill="#00826F"/>
<path d="M165.804 697.961C166.358 699.391 167.464 700.612 168.566 701.644C171.821 704.693 175.998 706.663 180.149 708.161C187.633 710.862 195.732 712.209 203.667 712.503C210.043 712.74 216.483 712.213 222.714 710.818C225.556 710.182 228.447 709.406 231.109 708.2C232.734 707.464 231.324 705.072 229.709 705.805C229.315 705.984 229.99 705.701 229.567 705.866C229.16 706.023 228.756 706.182 228.346 706.33C226.823 706.876 225.269 707.335 223.702 707.732C218.254 709.118 212.633 709.752 207.015 709.784C199.243 709.828 191.418 708.729 183.97 706.502C179.589 705.192 174.936 703.357 171.438 700.482C170.888 700.029 170.359 699.55 169.869 699.032C169.664 698.815 169.469 698.59 169.273 698.364C169.225 698.308 168.994 698.016 169.127 698.186C169.264 698.362 169.051 698.083 169.016 698.035C168.833 697.768 168.665 697.502 168.5 697.224C168.348 696.965 168.322 696.819 168.48 697.226C167.843 695.576 165.159 696.292 165.804 697.961Z" fill="#303030"/>
<path d="M109.86 741.188C96.1093 739.638 82.4064 733.594 74.6031 720.033" stroke="#303030" stroke-width="1.5" stroke-miterlimit="10" stroke-linecap="round" stroke-linejoin="round"/>
<path d="M233.266 715.646C225.017 724.428 200.616 726.582 186.491 724.338" stroke="#303030" stroke-width="1.5" stroke-miterlimit="10" stroke-linecap="round" stroke-linejoin="round"/>
<path d="M133.411 123.171C140.058 156.112 151.859 167.514 169.046 167.514C190.494 167.514 206.669 143.654 206.952 123.171C218.622 102.238 207.694 80.0106 178.619 81.0707C160.469 81.7348 147.26 84.717 141.747 101.498C132.108 105.944 131.615 114.269 133.411 123.171Z" fill="#303030"/>
<path d="M146.148 160.145C146.261 164.591 147.902 168.709 151.014 171.826L150.54 193.869L135.808 202.625C139.447 206.033 158.391 220.594 179.121 218.955C203.818 217.003 200.577 200.431 200.577 200.431L189.181 195.821L188.184 183.026C192.683 182.843 200.934 180.664 204.728 175.473C209.566 168.857 209.091 163.603 208.593 153.965C208.266 147.619 207.997 142.208 208.027 137.463C208.068 131.036 207.873 129.075 207.502 121.723C206.958 110.934 201.741 104.148 201.741 104.148C196.453 98.0816 182.269 95.1864 170.453 99.1583C158.63 103.132 155.204 108.286 155.204 108.286V112.952C155.204 115.705 154.122 118.347 152.192 120.309L149.791 122.751C149.791 122.751 152.93 128 152.93 135.141C152.93 138.667 150.568 141.768 148.392 139.161C145.478 135.785 141.099 132.915 136.506 132.917C130.523 132.917 126.531 136.408 125.748 140.741C124.821 145.876 128.262 149.604 132.425 151.317C136.587 153.03 142.084 153.014 145.904 150.524C145.904 150.524 146.035 155.7 146.148 160.145Z" fill="#AD6163"/>
<path d="M173.151 155.039C176.253 157.385 183.736 158.926 188.356 156.935" stroke="#303030" stroke-width="1.5" stroke-miterlimit="10" stroke-linecap="round" stroke-linejoin="round"/>
<path d="M188.182 183.028C178.603 183.044 167.752 181.296 161.205 177.65C163.081 181.67 170.577 187.91 188.709 189.782L188.182 183.028Z" fill="#303030"/>
<path d="M162.759 133.241C164.189 130.923 174.842 126.714 176.253 132.32C175.571 136.283 166.942 138.21 162.759 133.241Z" fill="white"/>
<path d="M174.142 134.884C173.103 136.445 170.929 136.837 169.286 135.761C167.645 134.684 167.157 132.543 168.198 130.982C169.238 129.421 171.412 129.028 173.053 130.105C174.695 131.182 175.182 133.32 174.142 134.884Z" fill="#303030"/>
<path d="M167.969 130.853L171.171 132.932L167.242 132.671L167.969 130.853Z" fill="white"/>
<path d="M176.821 131.889C173.08 126.538 164.565 129.017 162.759 133.241" stroke="#303030" stroke-width="1.5" stroke-miterlimit="10" stroke-linecap="round" stroke-linejoin="round"/>
<path d="M190.147 131.82C191.575 129.502 202.229 125.293 203.641 130.899C202.958 134.863 194.328 136.791 190.147 131.82Z" fill="white"/>
<path d="M201.554 133.443C200.525 135.012 198.353 135.419 196.705 134.353C195.057 133.287 194.555 131.151 195.584 129.582C196.612 128.013 198.784 127.606 200.433 128.672C202.081 129.739 202.584 131.874 201.554 133.443Z" fill="#303030"/>
<path d="M195.351 129.456L198.568 131.511L194.638 131.278L195.351 129.456Z" fill="white"/>
<path d="M204.209 130.468C199.263 125.33 192.478 128.078 190.147 131.82" stroke="#303030" stroke-width="1.5" stroke-miterlimit="10" stroke-linecap="round" stroke-linejoin="round"/>
<path d="M160.243 124.694C163.527 121.442 169.506 119.61 175.051 120.616" stroke="#303030" stroke-width="1.5" stroke-miterlimit="10" stroke-linecap="round" stroke-linejoin="round"/>
<path d="M190.039 119.982C194.814 118.657 199.926 118.123 204.209 120.341" stroke="#303030" stroke-width="1.5" stroke-miterlimit="10" stroke-linecap="round" stroke-linejoin="round"/>
<path d="M183.359 124.276C187.07 132.081 188.709 134.947 190.452 138.9C191.871 142.115 190.946 144.796 183.912 147.221" stroke="#303030" stroke-width="1.5" stroke-miterlimit="10" stroke-linecap="round" stroke-linejoin="round"/>
<path d="M132.109 140.511C133.159 139.714 135.792 139.031 138.497 139.647C141.201 140.262 143.503 142.274 144.383 144.794" stroke="#303030" stroke-width="1.5" stroke-miterlimit="10" stroke-linecap="round" stroke-linejoin="round"/>
<path d="M136.789 143.242C137.564 142.659 140.311 141.15 143.097 142.519" stroke="#303030" stroke-width="1.5" stroke-miterlimit="10" stroke-linecap="round" stroke-linejoin="round"/>
<path d="M197.171 198.129C197.171 198.129 199.038 213.072 178.645 214.3C158.253 215.529 141.997 201.222 139.886 196.962C139.886 196.962 116.711 204.845 101.432 211.965C86.1545 219.086 81.6331 242.814 94.4943 284.706C107.356 326.597 108.458 335.784 108.458 335.784L102.612 356.362C101.367 360.742 102.192 365.471 104.945 369.101C112.04 378.454 133.607 391.288 199.09 386.073C245.158 382.404 248.427 371.831 248.427 361.945C248.427 352.059 245.854 346.44 246.057 319.247C246.261 292.054 246.672 231.807 236.382 211.964L197.171 198.129Z" fill="white" stroke="#303030" stroke-width="1.5" stroke-miterlimit="10" stroke-linecap="round" stroke-linejoin="round"/>
<path d="M187.044 244.721C183.766 246.174 182.434 248.629 182.758 251.938C182.843 252.811 183.37 253.585 184.121 254.04L186.215 255.314L191.856 246.155L189.756 244.877C188.937 244.379 187.921 244.333 187.044 244.721Z" fill="#00826F" stroke="#00826F" stroke-width="1.5" stroke-miterlimit="10"/>
<path d="M264.258 290.836C264.339 294.66 262.661 297.415 259.229 299.1C258.865 299.279 258.426 299.246 258.081 299.035L186.221 255.32C185.472 254.863 184.944 254.091 184.858 253.216C184.534 249.907 185.866 247.452 189.144 245.999C190.023 245.611 191.037 245.657 191.856 246.157L263.671 289.846C264.019 290.057 264.248 290.431 264.258 290.836Z" fill="#00826F" stroke="#303030" stroke-width="1.5" stroke-miterlimit="10"/>
<path d="M194.498 249.92L255.524 286.914" stroke="white" stroke-width="1.5" stroke-miterlimit="10" stroke-linecap="round" stroke-linejoin="round"/>
<path d="M261.832 290.085C258.782 291.606 257.437 294.039 257.45 297.198C257.453 298.059 258.051 298.804 258.898 298.954L269.636 300.843C270.516 300.998 271.127 299.992 270.585 299.281L263.967 290.609C263.47 289.956 262.569 289.719 261.832 290.085Z" fill="white" stroke="#303030" stroke-width="1.5" stroke-miterlimit="10"/>
<path d="M265.538 295.222C265.895 294.832 266.283 294.49 266.683 294.168L270.585 299.281C271.127 299.992 270.514 300.996 269.636 300.843L263.146 299.701C263.538 298.083 264.332 296.536 265.538 295.222Z" fill="#00826F" stroke="#303030" stroke-width="1.5" stroke-miterlimit="10"/>
<path d="M133.272 270.385C126.163 237.987 121.327 227.724 98.4422 218.009C72.9547 228.127 77.0895 253.89 94.3333 329.982C96.7476 340.635 101.337 351.775 105.633 355.881L144.115 323.837L133.272 270.385Z" fill="#AD6163"/>
<path d="M101.432 211.965C84.9168 219.802 73.963 228.954 77.7481 259.501C81.5313 290.048 86.1545 313.636 86.1545 313.636C86.1545 313.636 91.3493 317.593 108.808 315.21C126.266 312.829 138.948 303.32 142.115 297.643C135.494 263.765 133.368 241.935 123.088 231.313" fill="white"/>
<path d="M101.432 211.965C84.9168 219.802 73.963 228.954 77.7481 259.501C81.5313 290.048 86.1545 313.636 86.1545 313.636C86.1545 313.636 91.3493 317.593 108.808 315.21C126.266 312.829 138.948 303.32 142.115 297.643C135.494 263.765 133.368 241.935 123.088 231.313" stroke="#303030" stroke-width="1.5" stroke-miterlimit="10" stroke-linecap="round" stroke-linejoin="round"/>
<path d="M86.1545 313.638C86.1545 313.638 90.8683 317.643 106.549 315.438C122.231 313.234 139.323 303.285 142.115 297.644C135.82 263.736 132.443 242.03 123.088 231.314" fill="white"/>
<path d="M86.1545 313.638C86.1545 313.638 90.8683 317.643 106.549 315.438C122.231 313.234 139.323 303.285 142.115 297.644C135.82 263.736 132.443 242.03 123.088 231.314" stroke="#303030" stroke-width="1.5" stroke-miterlimit="10" stroke-linecap="round" stroke-linejoin="round"/>
<path d="M111.703 321.737C122.47 308.095 139.255 304.723 165.499 289.85C192.683 274.446 214.162 262.271 220.429 258.193C225.754 254.73 229.605 255.1 237.085 260.657C243.188 265.192 246.675 267.939 252.828 273.43C258.367 278.371 264.261 283.444 260.935 285.893C258.967 287.342 253.415 285.566 249.206 283.098C244.995 280.632 236.243 274.09 236.243 274.09C236.243 274.09 237.157 279.663 237.697 284.844C238.237 290.026 234.584 293.36 231.35 292.03C229.518 298.222 224.951 297.258 223.134 295.476C220.218 300.048 217.671 300.075 214.728 300.277C207.328 300.782 207.272 298.113 207.272 298.113C207.272 298.113 205.872 300.464 202.754 303.455C199.637 306.447 196.981 307.816 193.136 308.049C187 308.421 183.439 310.757 177.063 318.714C167.218 331.006 159.757 340.309 148.457 350.059C138.502 358.648 112.474 367.404 103.726 353.455C97.8539 344.091 104.249 331.181 111.703 321.737Z" fill="#AD6163"/>
<path d="M111.703 321.737C122.47 308.095 141.825 303.267 168.067 288.395" stroke="#303030" stroke-width="1.5" stroke-miterlimit="10" stroke-linecap="round" stroke-linejoin="round"/>
<path d="M227.036 274.559C228.475 279.511 230.503 286.944 231.352 292.032" stroke="#303030" stroke-width="1.5" stroke-miterlimit="10" stroke-linecap="round" stroke-linejoin="round"/>
<path d="M219.288 277.711C220.727 282.665 222.586 291.018 223.136 295.478" stroke="#303030" stroke-width="1.5" stroke-miterlimit="10" stroke-linecap="round" stroke-linejoin="round"/>
<path d="M214.267 294.418C211.251 294.388 209.5 295.517 207.272 298.112C204.443 301.411 202.196 304.436 200.69 305.359C197.055 307.588 193.136 308.049 188.811 308.567" stroke="#303030" stroke-width="1.5" stroke-miterlimit="10" stroke-linecap="round" stroke-linejoin="round"/>
<path d="M232.874 266.677C234.147 268.568 235.187 270.523 236.245 274.09" stroke="#303030" stroke-width="1.5" stroke-miterlimit="10" stroke-linecap="round" stroke-linejoin="round"/>
<path d="M647.757 382.441H745.79C750.369 426.592 750.634 457.825 724.573 522.05C733.575 530.218 742.877 536.286 756.308 553.141C771.861 572.658 811.515 619.106 836.05 650.545C843.474 653.755 850.789 657.387 858.15 660.844C862.849 663.051 867.631 665.314 871.439 668.845C875.244 672.377 877.988 677.448 877.448 682.613C877.022 686.674 874.68 690.252 872.33 693.591C855.475 717.537 834.772 738.52 817.052 761.834C812.368 767.996 807.856 774.356 802.33 779.814C799.912 782.2 796.46 785.991 793.143 787.057C790.215 787.997 786.533 785.754 785.079 783.244C783.714 780.891 783.508 778.01 783.947 775.324C784.383 772.64 785.416 770.094 786.407 767.56C788.165 763.073 789.809 758.543 791.304 753.962C795.552 740.933 798.617 727.413 799.213 713.686C799.479 707.557 803.042 695.774 801.22 689.858C799.568 684.493 795.998 680.994 791.72 677.457C754.232 646.457 695.617 603.65 677.677 590.405C649.589 569.671 631.324 547.447 634.359 502.884C637.508 456.591 640.074 428.738 647.757 382.441Z" fill="#FFC4B0"/>
<path d="M816.348 617.628C812.416 639.834 787.323 664.207 769.866 674.162C769.866 674.162 680.898 600.934 653.857 578.04C626.815 555.148 619.963 542.209 621.735 512.076C623.444 483.003 641.917 375.667 641.917 375.667H745.826C745.826 375.667 759.447 417.734 746.458 460.926C735.93 495.939 730.041 519.857 730.041 519.857C730.041 519.857 780.724 566.666 816.348 617.628Z" fill="#F55571"/>
<path d="M816.348 614.474L827.842 628.843C827.842 628.843 822.813 643.898 809.617 658.879C796.423 673.86 779.618 684.241 779.618 684.241L765.519 672.321C765.519 672.321 778.785 666.222 795.875 647.198C810.052 631.42 816.348 614.474 816.348 614.474Z" fill="#303030"/>
<path d="M765.521 672.323C765.521 672.323 778.787 666.223 795.877 647.2C810.054 631.419 816.347 614.475 816.347 614.475" stroke="#303030" stroke-width="1.5" stroke-miterlimit="10" stroke-linecap="round" stroke-linejoin="round"/>
<path d="M784.171 787.519C786.494 790.902 790.449 794.676 790.449 794.676C790.449 794.676 805.573 783.273 816.113 770.606C830.951 752.772 846.469 730.037 853.105 722.219C864.12 709.242 885.323 686.603 887.567 675.984C887.227 675.47 886.844 674.972 886.407 674.48C881.595 669.169 866.568 661.895 857.819 658.666C849.722 655.671 841.28 644.131 836.045 650.545C841.626 655.856 844.804 663.062 841.561 670.578C836.176 683.066 822.51 693.672 814.316 691.008C810.683 684.335 808.085 682.215 799.42 688.113C793.548 692.109 790.418 693.848 792.446 701.348C794.253 708.033 797.335 719.095 794.27 733.427C792.055 743.779 788.377 755.549 784.607 767.352C781.586 776.826 780.676 782.429 784.171 787.519Z" fill="#F55571"/>
<path d="M812.566 689.853C813.467 697.003 813.939 704.211 813.549 711.415C813.092 719.817 811.427 728.111 808.676 736.06C806.805 741.466 804.437 746.674 801.722 751.706C800.874 753.278 803.268 754.681 804.117 753.106C808.739 744.541 812.363 735.415 814.403 725.884C816.078 718.058 816.692 710.038 816.388 702.046C816.235 697.967 815.85 693.903 815.341 689.853C815.123 688.105 812.344 688.084 812.566 689.853Z" fill="#303030"/>
<path d="M850.634 655.042C854.526 662.361 850.297 670.852 846.571 677.299C842.655 684.076 837.724 690.198 831.984 695.513C830.67 696.728 832.637 698.687 833.947 697.475C840.142 691.74 845.446 685.034 849.561 677.658C853.573 670.46 857.257 661.587 853.031 653.642C852.191 652.064 849.796 653.464 850.634 655.042Z" fill="#303030"/>
<path d="M867.476 663.205C863.56 679.481 852.715 692.338 842.037 704.709C839.36 707.812 836.783 711.042 834.855 714.672C833.345 717.511 832.265 720.542 831.479 723.655C830.676 726.835 830.091 730.067 829.264 733.244C828.247 737.151 826.783 740.912 825.551 744.754C823.561 750.965 822.081 757.407 817.841 762.55C816.712 763.917 818.666 765.891 819.803 764.512C823.531 759.993 825.348 754.763 827.054 749.239C828.254 745.354 829.644 741.535 830.879 737.662C831.95 734.304 832.69 730.868 833.447 727.429C834.119 724.379 834.861 721.32 836.104 718.444C837.684 714.788 839.965 711.497 842.497 708.443C847.899 701.925 853.61 695.735 858.444 688.761C863.682 681.205 867.988 672.923 870.151 663.943C870.569 662.206 867.894 661.466 867.476 663.205Z" fill="#303030"/>
<path d="M790.296 752.261C800.158 751.273 809.656 756.927 816.448 763.609C817.722 764.864 819.685 762.902 818.41 761.646C811.142 754.496 800.852 748.43 790.296 749.486C788.535 749.662 788.516 752.439 790.296 752.261Z" fill="#303030"/>
<path d="M793.837 796.934C797.124 800.452 802.663 800.517 806.019 797.063C811.144 791.791 820.162 781.274 838.968 758.676L888.252 699.448C894.887 691.473 898.464 686.646 896.314 682.519C894.738 679.492 890.673 677.181 887.569 675.986C885.323 686.605 865.387 707.146 853.107 722.222C846.63 730.173 830.363 749.661 815.524 767.493C808.319 776.153 791.715 794.251 791.715 794.251C791.715 794.251 792.444 795.441 793.837 796.934Z" fill="white" stroke="#303030" stroke-width="1.5" stroke-miterlimit="10" stroke-linecap="round" stroke-linejoin="round"/>
<path d="M690.305 764.825C688.716 744.408 673.69 608.332 668.977 578.376C664.263 548.421 680.515 448.231 680.515 448.231L669.143 388.933H754.569C767.132 415.458 773.252 439.647 764.919 477.529C754.589 524.491 744.804 575.2 744.804 575.2C744.804 575.2 751.559 618.893 751.559 657.445C751.559 697.461 744.98 769.881 744.477 778.942C744.338 781.451 752.535 812.557 753.727 820.948C754.186 824.175 754.567 827.762 752.743 830.431C751.087 832.855 748.068 833.811 745.237 834.357C739.757 835.417 734.154 835.545 728.578 835.667C693.717 836.442 658.857 837.215 623.996 837.991C621.58 838.044 619.095 838.087 616.829 837.219C614.564 836.351 612.54 834.346 612.352 831.869C611.771 824.232 620.614 819.655 626.071 816.852C639.771 809.815 654.169 803.786 667.622 796.132C682.67 787.573 691.735 783.194 690.305 764.825Z" fill="#FFC4B0"/>
<path d="M672.442 378.075C671.97 381.237 670.255 396.198 670.255 396.198C666.701 433.688 663.317 443.41 666.015 455.405C668.497 466.457 672.908 463.608 668.12 509.076C663.33 554.545 665.371 574.967 669.809 610.195C675.871 658.298 680.604 740.326 680.604 740.326C702.624 749.13 732.846 750.954 754.143 742.385C754.143 742.385 759.619 655.908 756.568 627.172C754.672 609.321 751.749 592.908 749.709 581.392C748.334 573.631 748.414 565.691 749.929 557.958C753.163 541.458 761.136 512.448 768.427 480.959C779.98 431.065 770.517 398.433 768.427 378.075H672.442Z" fill="#F55571"/>
<path d="M754.141 742.383C754.141 742.383 759.617 655.906 756.567 627.17C754.67 609.32 751.747 592.907 749.707 581.39C748.332 573.63 748.412 565.689 749.927 557.956C753.161 541.456 761.536 512.541 768.425 480.958" stroke="#303030" stroke-width="1.5" stroke-miterlimit="10" stroke-linecap="round" stroke-linejoin="round"/>
<path d="M670.255 396.198C666.701 433.688 663.317 443.41 666.015 455.405C668.497 466.457 672.908 463.608 668.12 509.076C663.33 554.545 664.45 571.015 669.809 610.195" stroke="#303030" stroke-width="1.5" stroke-miterlimit="10" stroke-linecap="round" stroke-linejoin="round"/>
<path d="M737.008 380.195C743.249 397.328 747.208 415.343 748.762 433.568C750.826 457.775 744.852 479.592 739.328 502.865C735.227 520.15 732.237 537.543 732.237 555.322C732.237 581.52 736.953 607.379 738.89 633.46C740.982 661.641 739.974 716.901 739.132 745.148" stroke="#303030" stroke-width="1.5" stroke-miterlimit="10" stroke-linecap="round" stroke-linejoin="round"/>
<path d="M757.727 741.131L757.001 757.851C757.001 757.851 737.61 765.197 717.648 764.848C697.687 764.498 681.053 758.719 681.053 758.719L678.846 739.954C678.846 739.954 692.085 746.111 717.648 746.812C738.853 747.395 757.727 741.131 757.727 741.131Z" fill="#303030"/>
<path d="M678.846 739.956C678.846 739.956 692.085 746.113 717.648 746.814C738.853 747.395 757.727 741.131 757.727 741.131" stroke="#303030" stroke-width="1.5" stroke-miterlimit="10" stroke-linecap="round" stroke-linejoin="round"/>
<path d="M717.08 386.729C717.08 386.729 719.914 406.056 721.855 415.471C723.836 425.086 724.571 440.058 734.291 444.647C738.969 446.856 743.661 446.653 748.73 446.653" stroke="#303030" stroke-width="1.5" stroke-miterlimit="10" stroke-linecap="round" stroke-linejoin="round"/>
<path d="M608.463 826.631C607.349 830.581 606.978 836.037 606.978 836.037C606.978 836.037 625.416 840.368 641.894 840.368C665.093 840.368 692.496 837.754 702.75 837.853C719.772 838.02 750.735 839.837 760.333 834.771C760.511 834.179 760.65 833.569 760.748 832.919C761.752 825.823 757.732 809.621 754.617 800.829C751.738 792.689 752.752 778.866 744.473 778.944C743.961 786.631 742.914 793.635 735.06 795.951C722.016 799.797 705.122 796.079 701.929 788.075C704.735 781.014 704.702 777.662 694.627 774.774C687.798 772.817 684.461 771.524 679.991 777.878C676.007 783.543 669.476 792.989 656.5 799.799C647.126 804.718 635.727 809.421 624.242 814.072C615.031 817.803 610.141 820.687 608.463 826.631Z" fill="#F55571"/>
<path d="M701.607 786.073C696.68 791.348 691.436 796.352 685.619 800.642C678.85 805.633 671.406 809.679 663.525 812.617C658.18 814.61 652.667 816.116 647.078 817.244C645.33 817.597 646.07 820.272 647.816 819.919C657.394 817.986 666.736 814.887 675.394 810.332C682.491 806.599 689.038 801.889 694.991 796.528C697.983 793.832 700.823 790.976 703.572 788.034C704.787 786.732 702.83 784.765 701.607 786.073Z" fill="#303030"/>
<path d="M752.774 793.087C749.853 800.259 741.326 802.537 734.467 803.854C726.293 805.423 717.889 805.602 709.643 804.527C708.894 804.429 708.263 805.236 708.256 805.915C708.247 806.745 708.903 807.206 709.643 807.302C718.584 808.468 727.685 808.118 736.511 806.268C744.157 804.666 752.282 801.604 755.451 793.825C756.125 792.173 753.44 791.453 752.774 793.087Z" fill="#303030"/>
<path d="M757.179 811.217C742.054 818.667 725.096 818.389 708.659 818.132C704.493 818.067 700.308 818.223 696.229 819.136C693.116 819.834 690.15 821.011 687.288 822.405C684.367 823.828 681.533 825.421 678.586 826.792C674.936 828.488 671.104 829.752 667.378 831.269C661.418 833.696 655.634 836.506 649.069 836.536C647.284 836.543 647.28 839.318 649.069 839.311C654.85 839.285 659.976 837.322 665.238 835.133C668.914 833.603 672.658 832.255 676.349 830.766C679.642 829.435 682.796 827.83 685.945 826.194C688.676 824.777 691.428 823.412 694.375 822.502C698.194 821.323 702.144 820.931 706.127 820.896C714.733 820.822 723.28 821.329 731.877 820.555C741.11 819.725 750.227 817.729 758.58 813.614C760.182 812.822 758.778 810.429 757.179 811.217Z" fill="#303030"/>
<path d="M639.569 808.881C646.63 815.816 648.273 826.816 647.481 836.273C647.332 838.053 650.108 838.044 650.256 836.273C651.109 826.089 649.1 814.355 641.53 806.918C640.255 805.665 638.293 807.626 639.569 808.881Z" fill="#303030"/>
<path d="M607.41 840.083C606.807 844.861 610.302 849.159 615.103 849.531C622.434 850.097 636.287 850.304 665.685 850.304H742.736C753.111 850.304 759.109 849.966 760.907 845.672C762.224 842.523 761.401 837.922 760.335 834.771C750.735 839.837 722.195 837.652 702.752 837.854C692.496 837.961 667.114 837.922 643.913 837.922C632.646 837.922 608.115 836.734 608.115 836.734C608.115 836.734 607.666 838.055 607.41 840.083Z" fill="white" stroke="#303030" stroke-width="1.5" stroke-miterlimit="10" stroke-linecap="round" stroke-linejoin="round"/>
<path d="M644.187 267.985C635.494 280.706 618.235 306.759 618.235 306.759C618.235 306.759 634.659 332.526 672.58 327.774V287.368V248.941C658.694 251.426 652.882 255.265 644.187 267.985Z" fill="white" stroke="#303030" stroke-width="1.5" stroke-miterlimit="10" stroke-linecap="round" stroke-linejoin="round"/>
<path d="M775.05 188.365C778.767 196.281 778.543 205.476 777.242 214.123C775.853 223.36 772.334 232.924 774.255 242.237C775.189 246.775 777.573 251.099 778.049 255.733C778.8 263.04 777.224 269.708 770.379 273.293C763.637 276.825 754.493 275.154 747.677 272.435C740.396 269.528 732.72 263.889 729.718 256.456C728.116 252.49 728.082 248.601 728.458 244.37C728.693 241.732 728.881 239.112 729.442 236.515C731.314 227.826 733.647 219.288 736.404 210.785C739.832 200.209 742.947 179.739 755.579 175.694C763.247 173.239 772.216 182.327 775.05 188.365Z" fill="#303030"/>
<path d="M679.205 184.02C676.145 204.131 696.928 222.984 718.127 225.056C739.327 227.128 758.113 212.393 760.093 192.147C762.071 171.9 745.311 153.6 724.264 150.34C702.713 147.003 683.699 154.482 679.205 184.02Z" fill="#303030"/>
<path d="M740.433 164.717C737.565 189.975 750.023 196.72 750.023 196.72C748.01 199.826 746.388 203.163 745.197 206.64C748.343 203.224 752.832 200.684 757.614 200.766C762.396 200.849 767.249 204.087 768.044 208.601C768.83 213.063 765.46 217.518 761.07 219.16C756.68 220.801 750.917 220.387 745.987 217.236L745.981 217.233C743.62 221.382 739.077 225.321 732.903 227.615L735.538 243.136L745.988 250.738C745.988 250.738 726.439 306.56 678.075 297.697C630.598 288.994 691.548 245.826 691.548 245.826L704.585 244.106L706.21 229.507C698.332 227.937 675.905 218.478 682.715 188.582C684.082 182.578 686.635 177.195 689.917 172.657C701.492 157.143 721.766 156.016 740.433 164.717Z" fill="#FFC4B0"/>
<path d="M762.213 208.456C761.175 207.614 758.531 206.835 755.771 207.37C753.011 207.903 750.613 209.866 749.64 212.387" stroke="#303030" stroke-width="1.5" stroke-miterlimit="10" stroke-linecap="round" stroke-linejoin="round"/>
<path d="M757.381 211.066C756.615 210.452 753.884 208.832 751.017 210.127" stroke="#303030" stroke-width="1.5" stroke-miterlimit="10" stroke-linecap="round" stroke-linejoin="round"/>
<path d="M723.037 229.553C723.037 229.553 716.492 231.54 706.21 229.509L705.634 234.67C709.525 235.124 715.356 235.482 723.037 229.553Z" fill="#303030"/>
<path d="M716.503 207.888C713.48 207.538 708.611 207.892 707.562 210.067C707.562 210.067 707.571 210.829 707.975 211.098C708.376 211.368 710.968 212.618 714.348 212.039C717.72 211.462 718.901 210.095 719.744 208.818C719.069 207.923 716.503 207.888 716.503 207.888Z" fill="#FF95FB"/>
<path d="M716.503 207.888C713.48 207.538 708.611 207.891 707.562 210.067C707.273 207.853 706.047 207.083 706.047 207.083C706.047 207.083 707.505 207.066 709.349 206.469C711.195 205.871 713.055 206.097 714.524 206.781C715.989 207.464 716.503 207.888 716.503 207.888Z" fill="#303030"/>
<path d="M714.514 206.77C714.938 206.987 715.338 207.25 715.708 207.547C716.118 207.88 716.213 208.384 715.72 208.698C715.504 208.837 715.243 208.889 714.988 208.922C713.365 209.14 711.723 208.813 710.139 208.4C709.769 208.304 709.369 208.182 709.147 207.869C708.933 207.568 708.968 207.187 709.157 206.883C709.344 206.582 709.717 206.478 710.047 206.367C710.853 206.097 711.724 206.025 712.566 206.143C713.245 206.24 713.904 206.458 714.514 206.77Z" fill="white"/>
<path d="M721.766 208.82C720.558 208.774 719.345 208.668 718.181 208.346C715.972 207.736 714.161 206.147 711.78 206.117C710.324 206.099 708.924 206.644 707.486 206.877C705.969 207.122 704.397 207.011 702.928 206.556" stroke="#303030" stroke-width="1.5" stroke-miterlimit="10" stroke-linecap="round" stroke-linejoin="round"/>
<path d="M705.433 207.052C706.702 207.437 707.51 208.402 707.555 209.727C707.562 209.927 707.547 210.454 707.627 210.637C707.762 210.953 707.926 211.138 708.509 211.409C710.896 212.515 717.117 212.964 719.741 208.82" stroke="#303030" stroke-width="1.5" stroke-miterlimit="10" stroke-linecap="round" stroke-linejoin="round"/>
<path d="M685.639 193.404C685.63 194.255 686.344 194.955 687.236 194.964C688.128 194.975 688.858 194.292 688.868 193.441C688.879 192.59 688.163 191.891 687.273 191.88C686.379 191.873 685.649 192.553 685.639 193.404Z" fill="#D48983"/>
<path d="M737.282 199.393C737.273 200.244 737.987 200.943 738.877 200.952C739.769 200.963 740.499 200.281 740.509 199.43C740.518 198.579 739.804 197.88 738.914 197.87C738.024 197.859 737.293 198.542 737.282 199.393Z" fill="#D48983"/>
<path d="M695.489 197.151C695.48 198.002 696.194 198.701 697.085 198.71C697.977 198.721 698.708 198.039 698.717 197.188C698.726 196.337 698.012 195.637 697.122 195.628C696.229 195.617 695.498 196.3 695.489 197.151Z" fill="#D48983"/>
<path d="M725.289 200.975C725.279 201.826 725.994 202.525 726.885 202.534C727.777 202.545 728.508 201.863 728.517 201.012C728.528 200.161 727.812 199.462 726.922 199.452C726.031 199.441 725.3 200.122 725.289 200.975Z" fill="#D48983"/>
<path d="M688.32 199.989C688.309 200.84 689.025 201.539 689.915 201.548C690.807 201.559 691.537 200.877 691.547 200.026C691.556 199.175 690.842 198.475 689.95 198.466C689.06 198.455 688.329 199.138 688.32 199.989Z" fill="#D48983"/>
<path d="M732.45 205.731C732.441 206.582 733.155 207.281 734.047 207.291C734.938 207.302 735.669 206.619 735.678 205.768C735.688 204.917 734.973 204.218 734.082 204.207C733.192 204.199 732.461 204.88 732.45 205.731Z" fill="#D48983"/>
<path d="M735.536 193.053C735.055 190.062 732.596 187.49 729.538 186.772C726.48 186.056 721.813 186.841 720.342 191.048C720.832 195.58 730.454 198.376 735.536 193.053Z" fill="white"/>
<path d="M722.31 194.25C723.679 196.139 726.397 196.518 728.384 195.099C730.369 193.68 730.868 191 729.501 189.113C728.132 187.226 725.415 186.845 723.428 188.264C721.443 189.681 720.941 192.361 722.31 194.25Z" fill="#303030"/>
<path d="M729.781 188.942L725.905 191.68L730.772 191.164L729.781 188.942Z" fill="white"/>
<path d="M720.344 191.049C721.812 186.842 726.48 186.058 729.538 186.774C732.596 187.49 735.055 190.063 735.536 193.055" stroke="#303030" stroke-width="1.5" stroke-miterlimit="10" stroke-linecap="round" stroke-linejoin="round"/>
<path d="M738.333 190.261C737.608 191.245 736.3 191.763 735.099 191.541" stroke="#303030" stroke-width="1.5" stroke-miterlimit="10" stroke-linecap="round" stroke-linejoin="round"/>
<path d="M705.76 188.92C705.403 185.912 703.057 183.237 700.031 182.393C697.006 181.549 692.309 182.138 690.664 186.28C690.962 190.827 700.458 194.024 705.76 188.92Z" fill="white"/>
<path d="M692.712 189.277C693.831 191.323 696.481 192.043 698.628 190.886C700.778 189.73 701.612 187.133 700.493 185.089C699.374 183.042 696.725 182.323 694.577 183.479C692.427 184.635 691.593 187.231 692.712 189.277Z" fill="#303030"/>
<path d="M700.791 184.955L696.603 187.182L701.494 187.282L700.791 184.955Z" fill="white"/>
<path d="M690.664 186.28C692.309 182.14 697.004 181.55 700.031 182.393C703.057 183.237 705.403 185.91 705.76 188.92" stroke="#303030" stroke-width="1.5" stroke-miterlimit="10" stroke-linecap="round" stroke-linejoin="round"/>
<path d="M688.455 183.044C688.683 184.032 689.556 184.839 690.559 184.989" stroke="#303030" stroke-width="1.5" stroke-miterlimit="10" stroke-linecap="round" stroke-linejoin="round"/>
<path d="M714.723 181.239C714.046 183.481 709.81 190.833 709.122 191.956C708.186 193.484 706.595 195.697 707.601 197.202C708.445 198.464 710.764 198.853 712.272 198.875" stroke="#303030" stroke-width="1.5" stroke-miterlimit="10" stroke-linecap="round" stroke-linejoin="round"/>
<path d="M707.268 175.92C702.432 173.204 696.284 173.324 692.755 175.68" stroke="#303030" stroke-width="1.5" stroke-miterlimit="10" stroke-linecap="round" stroke-linejoin="round"/>
<path d="M722.9 179.298C728.127 177.441 733.847 178.551 737.884 182.356" stroke="#303030" stroke-width="1.5" stroke-miterlimit="10" stroke-linecap="round" stroke-linejoin="round"/>
<path d="M672.58 248.943C677.376 247.325 697.472 244.663 697.472 244.663C695.972 258.218 715.025 264.241 741.082 245.547C741.082 245.547 759.982 254.886 766.588 259.594C785.628 273.164 777.884 298.189 770.821 326.205C763.649 354.652 762.601 352.214 765.508 367.218C767.482 377.409 771.92 399.543 771.92 399.543C763.839 407.542 727.777 416.307 690.033 411.71C655.351 407.487 637.984 395.378 632.567 388.482C632.567 388.482 642.091 322.165 645.718 296.982C647.653 283.548 651.033 275.095 657.268 266.272" fill="white"/>
<path d="M672.58 248.943C677.376 247.325 697.472 244.663 697.472 244.663C695.972 258.218 715.025 264.241 741.082 245.547C741.082 245.547 759.982 254.886 766.588 259.594C785.628 273.164 777.884 298.189 770.821 326.205C763.649 354.652 762.601 352.214 765.508 367.218C767.482 377.409 771.92 399.543 771.92 399.543C763.839 407.542 727.777 416.307 690.033 411.71C655.351 407.487 637.984 395.378 632.567 388.482C632.567 388.482 642.091 322.165 645.718 296.982C647.653 283.548 651.033 275.095 657.268 266.272" stroke="#303030" stroke-width="1.5" stroke-miterlimit="10" stroke-linecap="round" stroke-linejoin="round"/>
<path d="M766.993 340.855C755.688 350.427 664.927 356.889 641.889 323.578L636.615 360.282C659.706 391.003 735.73 397.121 767.535 377.554C767.535 377.554 763.987 362.582 764.035 357.485C764.083 352.386 766.993 340.855 766.993 340.855Z" fill="#303030"/>
<path d="M748.258 248.943C728.4 257.772 719.87 270.187 715.465 295.223C711.059 320.257 708.145 354.416 708.145 354.416H721.158C721.158 354.416 721.394 262.273 763.369 256.058L748.258 248.943Z" fill="#303030"/>
<path d="M674.723 248.786C666.122 258.776 657.568 273.87 655.009 288.408C650.604 313.442 647.691 347.6 647.691 347.6H660.703C660.703 347.6 662.766 306.068 672.582 273.713C676.913 259.439 686.783 249.82 697.474 244.663L674.723 248.786Z" fill="#303030"/>
<path d="M598.967 275.093H421.946V452.114H598.967V275.093Z" fill="#303030" stroke="#303030" stroke-width="1.5" stroke-miterlimit="10" stroke-linecap="round" stroke-linejoin="round"/>
<path d="M651.032 275.093H474.011V452.114H651.032V275.093Z" fill="#00826F" stroke="#303030" stroke-width="1.5" stroke-miterlimit="10" stroke-linecap="round" stroke-linejoin="round"/>
<path d="M593.491 401.193H488.024V438.402H593.491V401.193Z" fill="white" stroke="#303030" stroke-width="1.5" stroke-miterlimit="10" stroke-linecap="round" stroke-linejoin="round"/>
<path d="M502.939 406.646H495.526V414.059H502.939V406.646Z" fill="white" stroke="#303030" stroke-width="1.5" stroke-miterlimit="10" stroke-linecap="round" stroke-linejoin="round"/>
<path d="M500.484 409.102H497.981V411.603H500.484V409.102Z" fill="#303030"/>
<path d="M502.939 425.178H495.526V432.591H502.939V425.178Z" fill="white" stroke="#303030" stroke-width="1.5" stroke-miterlimit="10" stroke-linecap="round" stroke-linejoin="round"/>
<path d="M500.484 427.633H497.981V430.136H500.484V427.633Z" fill="#303030"/>
<path d="M521.469 406.646H514.056V414.059H521.469V406.646Z" fill="white" stroke="#303030" stroke-width="1.5" stroke-miterlimit="10" stroke-linecap="round" stroke-linejoin="round"/>
<path d="M519.016 409.102H516.513V411.603H519.016V409.102Z" fill="#303030"/>
<path d="M510.35 428.883H506.645V432.589H510.35V428.883Z" fill="#303030"/>
<path d="M517.761 428.883H514.056V432.589H517.761V428.883Z" fill="#303030"/>
<path d="M521.469 428.883H517.763V432.589H521.469V428.883Z" fill="#303030"/>
<path d="M510.35 428.883H506.645V432.589H510.35V428.883Z" fill="#303030"/>
<path d="M517.761 428.883H514.056V432.589H517.761V428.883Z" fill="#303030"/>
<path d="M521.469 428.883H517.763V432.589H521.469V428.883Z" fill="#303030"/>
<path d="M514.056 425.178H510.35V428.883H514.056V425.178Z" fill="#303030"/>
<path d="M521.469 425.178H517.763V428.883H521.469V425.178Z" fill="#303030"/>
<path d="M514.056 425.178H510.35V428.883H514.056V425.178Z" fill="#303030"/>
<path d="M521.469 425.178H517.763V428.883H521.469V425.178Z" fill="#303030"/>
<path d="M510.35 421.471H506.645V425.176H510.35V421.471Z" fill="#303030"/>
<path d="M517.761 421.471H514.056V425.176H517.761V421.471Z" fill="#303030"/>
<path d="M510.35 421.471H506.645V425.176H510.35V421.471Z" fill="#303030"/>
<path d="M517.761 421.471H514.056V425.176H517.761V421.471Z" fill="#303030"/>
<path d="M510.35 417.765H506.645V421.471H510.35V417.765Z" fill="#303030"/>
<path d="M506.643 417.765H502.937V421.471H506.643V417.765Z" fill="#303030"/>
<path d="M517.761 417.765H514.056V421.471H517.761V417.765Z" fill="#303030"/>
<path d="M521.469 417.765H517.763V421.471H521.469V417.765Z" fill="#303030"/>
<path d="M510.35 417.765H506.645V421.471H510.35V417.765Z" fill="#303030"/>
<path d="M506.643 417.765H502.937V421.471H506.643V417.765Z" fill="#303030"/>
<path d="M517.761 417.765H514.056V421.471H517.761V417.765Z" fill="#303030"/>
<path d="M521.469 417.765H517.763V421.471H521.469V417.765Z" fill="#303030"/>
<path d="M499.232 417.765H495.526V421.471H499.232V417.765Z" fill="#303030"/>
<path d="M499.232 417.765H495.526V421.471H499.232V417.765Z" fill="#303030"/>
<path d="M510.35 410.352H506.645V414.058H510.35V410.352Z" fill="#303030"/>
<path d="M510.35 410.352H506.645V414.058H510.35V410.352Z" fill="#303030"/>
<path d="M510.35 406.646H506.645V410.352H510.35V406.646Z" fill="#303030"/>
<path d="M510.35 406.646H506.645V410.352H510.35V406.646Z" fill="#303030"/>
<path d="M531.76 409.606H568.546" stroke="#303030" stroke-width="1.5" stroke-miterlimit="10" stroke-linecap="round" stroke-linejoin="round"/>
<path d="M531.76 418.871H585.625" stroke="#303030" stroke-width="1.5" stroke-miterlimit="10" stroke-linecap="round" stroke-linejoin="round"/>
<path d="M531.76 424.431H585.625" stroke="#303030" stroke-width="1.5" stroke-miterlimit="10" stroke-linecap="round" stroke-linejoin="round"/>
<path d="M531.76 429.99H585.625" stroke="#303030" stroke-width="1.5" stroke-miterlimit="10" stroke-linecap="round" stroke-linejoin="round"/>
<path d="M632.141 275.093H614.272V352.858H632.141V275.093Z" fill="#F55571" stroke="#303030" stroke-width="1.5" stroke-miterlimit="10" stroke-linecap="round" stroke-linejoin="round"/>
<path d="M651.032 275.093H474.011L504.993 319.638H682.015L651.032 275.093Z" fill="#00826F" stroke="#303030" stroke-width="1.5" stroke-miterlimit="10" stroke-linecap="round" stroke-linejoin="round"/>
<path d="M399.184 319.638H451.248L474.011 275.093H421.946L399.184 319.638Z" fill="#00826F" stroke="#303030" stroke-width="1.5" stroke-miterlimit="10" stroke-linecap="round" stroke-linejoin="round"/>
<path d="M570.991 391.443C572.655 387.849 581.107 388.526 585.975 388.911C587.902 389.062 591.351 388.961 594.644 388.711C590.355 388.578 584.839 387.949 581.607 386.829C577.847 385.527 573.89 384.204 575.117 380.965C576.343 377.725 581.577 378.488 585.094 379.152C589.21 379.931 593.711 380.486 598.166 379.823C602.621 379.161 605.372 377.318 605.12 375.502C604.867 373.685 603.555 373.134 601.267 372.122C598.129 370.736 597.145 370.442 594.98 368.979C592.816 367.517 591.68 365.497 591.648 363.584C591.554 357.91 596.76 360.617 599.807 361.51C604.598 362.914 608.569 363.684 615.125 366.189C617.482 367.09 620.505 368.995 624.658 369.931C626.495 370.346 631.764 370.93 635.456 369.439C642.159 366.733 660.008 358.622 667.504 354.739C674.282 351.228 681.053 347.704 687.817 344.161C704.143 317.227 715.058 299.722 725.009 283.453C734.959 267.184 745.478 260.382 757.074 262.718L758.169 322.743C758.169 322.743 744.63 342.953 730.141 363.164C724.086 371.609 719.643 379.657 699.516 386.494C690.784 389.462 643.151 399.874 635.982 402.471C624.486 406.637 628.247 405.831 621.489 408.434C614.729 411.037 609.575 412.825 603.642 413.911C598.48 414.855 587.181 417.125 586.148 411.925C585.671 409.52 588.714 407.836 594.127 406.61C595.017 406.408 595.952 406.182 596.886 405.947C592.893 406.474 588.594 406.608 586.102 406.408C579.801 405.901 572.828 405.174 571.907 401.502C571.182 398.614 572.136 397.818 574.083 397.106C572.373 396.542 569.328 395.038 570.991 391.443Z" fill="#FFC4B0"/>
<path d="M763.528 318.947L750.773 338.746C750.773 338.746 739.961 338.739 725.729 328.819C711.499 318.899 707.301 309.081 707.301 309.081C707.301 309.081 714.895 295.164 725.862 277.933C735.832 262.271 748.162 258.645 756.844 257.825" fill="white"/>
<path d="M763.528 318.947L750.773 338.746C750.773 338.746 739.961 338.739 725.729 328.819C711.499 318.899 707.301 309.081 707.301 309.081C707.301 309.081 714.895 295.164 725.862 277.933C735.832 262.271 748.162 258.645 756.844 257.825" stroke="#303030" stroke-width="1.5" stroke-miterlimit="10" stroke-linecap="round" stroke-linejoin="round"/>
<path d="M601.696 397.351C592.786 398.843 583.039 398.185 574.079 397.104" stroke="#303030" stroke-width="1.5" stroke-miterlimit="10" stroke-linecap="round" stroke-linejoin="round"/>
<path d="M602.911 404.621C596.261 405.664 589.562 406.478 582.844 405.448C580.484 405.085 578.047 404.523 575.99 403.255C574.149 402.121 572.275 399.796 574.778 398.303C576.312 397.389 574.917 394.99 573.378 395.907C570.22 397.789 570.059 401.239 572.412 403.886C574.292 406.001 577.213 407.081 579.895 407.703C587.743 409.525 595.807 408.526 603.649 407.298C605.409 407.02 604.661 404.347 602.911 404.621Z" fill="#303030"/>
<path d="M601.357 388.548C596.581 388.922 590.516 388.807 582.953 387.233C575.391 385.66 574.07 384.136 574.147 381.907C574.236 379.344 576.778 377.376 585.196 378.68" stroke="#303030" stroke-width="1.5" stroke-miterlimit="10" stroke-linecap="round" stroke-linejoin="round"/>
<path d="M283.698 183.712C288.911 182.371 297.58 177.165 298.69 170.622L298.694 170.623C298.686 170.585 298.681 170.551 298.673 170.512C290.113 161.113 284.848 148.658 284.848 134.944C284.848 105.729 308.532 82.0454 337.747 82.0454C366.962 82.0454 390.646 105.729 390.646 134.944C390.646 164.16 366.962 187.843 337.747 187.843C329.034 187.843 320.834 185.697 313.586 181.966C307.08 185.988 300.281 187.716 292.6 187.555C283.692 187.371 281.048 184.395 283.698 183.712Z" fill="white" stroke="#303030" stroke-width="1.5" stroke-miterlimit="10" stroke-linecap="round" stroke-linejoin="round"/>
<path d="M330.604 161.967C328.684 161.967 326.834 161.231 325.439 159.899L309.535 144.738C306.541 141.886 306.428 137.148 309.281 134.154C312.13 131.161 316.87 131.045 319.865 133.901L330.105 143.662L355.872 114.119C358.591 111.003 363.318 110.678 366.435 113.399C369.55 116.117 369.874 120.845 367.157 123.963L336.247 159.403C334.904 160.942 332.991 161.866 330.95 161.96C330.834 161.965 330.719 161.967 330.604 161.967Z" fill="#FF95FB"/>
</svg>
